<?xml version="1.0" encoding="UTF-8"?>
<svg version="1.1" xmlns="http://www.w3.org/2000/svg" width="1592" height="802">
<path d="M0 0 C525.36 0 1050.72 0 1592 0 C1592 264.66 1592 529.32 1592 802 C1066.64 802 541.28 802 0 802 C0 537.34 0 272.68 0 0 Z " fill="#FEFEFE" transform="translate(0,0)"/>
<path d="M0 0 C59.420625 -0.20625 118.84125 -0.4125 180.0625 -0.625 C208.23701538 -0.76156006 208.23701538 -0.76156006 236.98071289 -0.90087891 C259.86413574 -0.94604492 259.86413574 -0.94604492 270.56663513 -0.95443726 C278.06414492 -0.96377845 285.56091308 -1.0005244 293.05821228 -1.05575562 C301.70111159 -1.11933233 310.34329744 -1.14837822 318.98643246 -1.1344495 C323.40980379 -1.12841469 327.83157989 -1.13809494 332.25465977 -1.19215131 C336.25403613 -1.24073313 340.25068661 -1.24330116 344.25018692 -1.20901108 C345.69643747 -1.20476641 347.1428573 -1.21749 348.58877456 -1.24882579 C359.39350609 -1.46923989 359.39350609 -1.46923989 363.34242904 2.14229894 C365.15346006 4.68939207 366.59147395 7.21412578 368 10 C368.99377693 11.56841771 370.00065796 13.12870562 371.02734375 14.67578125 C372.00011638 16.21964332 372.97012561 17.7652497 373.9375 19.3125 C374.45908691 20.14225342 374.98067383 20.97200684 375.51806641 21.8269043 C378.32949289 26.30650176 381.11476213 30.80114349 383.875 35.3125 C389.25561363 44.09671682 394.82165352 52.76430756 400.36816406 61.44433594 C401.77718804 63.65104793 403.18247785 65.86006019 404.5859375 68.0703125 C408.01538777 73.45724839 411.51551973 78.77448962 415.1875 84 C419.97568092 90.84146062 424.42618218 97.88636566 428.86401367 104.95898438 C432.73414288 111.10334748 436.78236907 117.08876907 441 123 C442.11744514 121.27303933 443.23488373 119.54607443 444.35229492 117.8190918 C445.33802713 116.2957474 446.32386963 114.77247437 447.30981445 113.24926758 C449.84189068 109.3370795 452.37242086 105.42391633 454.8984375 101.5078125 C459.60609317 94.21344289 464.3521183 86.95133247 469.18359375 79.73828125 C471.51912571 76.21740404 473.78105426 72.65295378 476.0390625 69.08203125 C478.39894722 65.37296941 480.7934559 61.6870637 483.1875 58 C488.67566295 49.5367946 494.06625549 41.01374571 499.43994141 32.47753906 C502.16510931 28.14968242 504.89500013 23.82480961 507.625 19.5 C508.13409912 18.69256348 508.64319824 17.88512695 509.16772461 17.05322266 C509.64089111 16.30347168 510.11405762 15.5537207 510.6015625 14.78125 C511.01744629 14.12189453 511.43333008 13.46253906 511.86181641 12.78320312 C512.8877891 11.17580189 513.94222895 9.58665658 515 8 C515.66 8 516.32 8 517 8 C517.103125 7.4225 517.20625 6.845 517.3125 6.25 C518.12954975 3.57601901 519.10789507 2.05953676 521 0 C523.05581951 -0.49219131 523.05581951 -0.49219131 525.46086121 -0.48101807 C526.83014015 -0.48926605 526.83014015 -0.48926605 528.2270813 -0.49768066 C529.7257222 -0.47610901 529.7257222 -0.47610901 531.25463867 -0.45410156 C532.83537422 -0.45497772 532.83537422 -0.45497772 534.44804382 -0.45587158 C537.93835153 -0.45308035 541.42780986 -0.42193817 544.91796875 -0.390625 C547.335063 -0.38316634 549.75216329 -0.37747164 552.16926575 -0.37347412 C558.53657678 -0.35818845 564.90352386 -0.31888087 571.27069092 -0.2746582 C577.76569698 -0.23376901 584.26076175 -0.21547666 590.75585938 -0.1953125 C603.50406168 -0.15238988 616.2520115 -0.08486967 629 0 C628.67 1.65 628.34 3.3 628 5 C627.34 5 626.68 5 626 5 C625.65775391 5.99773437 625.65775391 5.99773437 625.30859375 7.015625 C623.61409269 10.88009906 621.38673996 14.23791343 619.0625 17.75 C618.05585962 19.28767535 617.04935263 20.82543802 616.04296875 22.36328125 C615.53169434 23.1413916 615.02041992 23.91950195 614.49365234 24.72119141 C612.70222055 27.45431079 610.92944681 30.19910283 609.15893555 32.94580078 C605.38533289 38.79958486 601.58711946 44.63709921 597.7734375 50.46484375 C597.21576187 51.31709785 597.21576187 51.31709785 596.64682007 52.18656921 C594.79944582 55.00920741 592.95092709 57.83108449 591.10107422 60.65209961 C587.27848587 66.48801328 583.4915384 72.34374397 579.75537109 78.23535156 C577.90112712 81.15572134 576.03586649 84.06881467 574.16796875 86.98046875 C567.42024334 97.50152154 560.69631447 108.03418156 554.08984375 118.64453125 C549.62390831 125.81507059 545.07374875 132.91714726 540.375 139.9375 C531.08858083 153.81359444 522.033069 167.84216521 513.1237793 181.96313477 C510.35737737 186.34024425 507.55867395 190.68185789 504.63671875 194.95703125 C504.11674316 195.72700439 503.59676758 196.49697754 503.06103516 197.2902832 C502.09198594 198.71922821 501.10939223 200.13912123 500.11083984 201.54760742 C498.07948491 204.5624569 496.99693317 206.50071975 497.01953125 210.1796875 C498.04857408 213.13972304 499.22290818 215.14289812 501.125 217.625 C503.85023194 221.33109251 506.27806353 225.06855204 508.5625 229.0625 C511.08038832 233.46176349 513.73567563 237.69962613 516.578125 241.89453125 C518.03930257 244.05819803 519.46896233 246.23760399 520.875 248.4375 C521.28492188 249.07558594 521.69484375 249.71367187 522.1171875 250.37109375 C523 252 523 252 523 254 C523.66 254 524.32 254 525 254 C526.33984375 255.80859375 526.33984375 255.80859375 527.9375 258.4375 C528.56527344 259.45328125 529.19304688 260.4690625 529.83984375 261.515625 C530.18644043 262.07830078 530.53303711 262.64097656 530.89013672 263.22070312 C532.4461701 265.71528545 534.05428154 268.17458677 535.66137695 270.63647461 C541.42797832 279.47200591 547.0338177 288.40500388 552.609375 297.36206055 C557.55556243 305.30700736 562.52659495 313.23567717 567.65234375 321.06640625 C568.03583984 321.65357422 568.41933594 322.24074219 568.81445312 322.84570312 C569.58745362 324.02738561 570.36368538 325.20695861 571.14257812 326.38476562 C574 330.7766378 574 330.7766378 574 333 C574.66 333 575.32 333 576 333 C576.42410156 333.89332031 576.84820313 334.78664063 577.28515625 335.70703125 C578.81818901 338.65087321 580.42244326 341.06575951 582.4375 343.6875 C590.78419925 354.95477542 597.8831612 367.13806271 605.203125 379.0859375 C607.52790439 382.85612321 609.9023767 386.59299729 612.2890625 390.32421875 C613.43441915 392.11547288 614.57501304 393.9097809 615.7109375 395.70703125 C619.52635575 401.74091668 623.46025235 407.67729422 627.49609375 413.56640625 C629 416 629 416 629 418 C615.09220309 418.35130957 601.18509911 418.61434285 587.27376747 418.77718258 C580.81326703 418.85535627 574.35575363 418.9613009 567.89697266 419.1315918 C561.65916187 419.2950205 555.424216 419.38434761 549.18442917 419.42315865 C546.80864723 419.45079984 544.43301621 419.50478594 542.05846024 419.58595085 C523.93354681 420.18063382 523.93354681 420.18063382 519.04772186 416.54878616 C515.81841789 413.06311696 513.74028392 409.17625831 511.85323715 404.84572029 C510.58384263 402.0997695 508.87298251 399.70982141 507.125 397.25 C503.23304897 391.4159732 499.50201997 385.48533 495.77172852 379.54736328 C492.0929077 373.70133052 488.34426409 367.90484934 484.5625 362.125 C479.88966017 354.97130702 475.31411825 347.762703 470.8125 340.5 C470.25957275 339.60941895 469.70664551 338.71883789 469.13696289 337.80126953 C468.62383545 336.96966309 468.11070801 336.13805664 467.58203125 335.28125 C467.13061768 334.54970703 466.6792041 333.81816406 466.21411133 333.06445312 C465.04743479 331.08065727 464.00245848 329.07087201 463 327 C462.34 327 461.68 327 461 327 C460.61585938 326.00871094 460.23171875 325.01742188 459.8359375 323.99609375 C457.96243518 319.628615 455.37615329 315.91783239 452.625 312.0625 C448.91180861 306.8038457 445.35686402 301.4944638 442 296 C438.26918883 297.24360372 437.92742547 298.3100873 435.9375 301.625 C433.15465948 306.15439315 430.28588917 310.59541402 427.3125 315 C423.05427449 321.34635477 418.94910146 327.78025946 414.88183594 334.25024414 C405.15695766 349.71537429 395.27434844 365.08055574 385.30102539 380.38647461 C382.67927282 384.41110562 380.06944374 388.44166098 377.5 392.5 C376.74404793 393.62308563 376.74404793 393.62308563 375.9728241 394.76885986 C374.34389503 397.4367602 373.02292163 400.02749954 371.68965149 402.84344482 C364.8419934 416.31095994 364.8419934 416.31095994 358.43847275 419.12611389 C351.07925223 420.82113132 343.59230483 420.29668462 336.10546875 419.953125 C333.70278256 419.91576578 331.29994274 419.8873232 328.89704895 419.86737061 C322.60788438 419.79142446 316.3281358 419.59542433 310.04266357 419.37329102 C303.61502504 419.16773033 297.18584561 419.07715332 290.75585938 418.9765625 C278.16658207 418.76282575 265.58379415 418.42597253 253 418 C254.20505089 414.93313911 255.42346828 412.08920535 257.14453125 409.27734375 C257.56726318 408.58455322 257.98999512 407.8917627 258.42553711 407.17797852 C258.88323486 406.43862061 259.34093262 405.6992627 259.8125 404.9375 C260.29533447 404.15238037 260.77816895 403.36726074 261.27563477 402.55834961 C265.4412925 395.82266131 269.74357693 389.17906111 274.08007812 382.55249023 C277.88322414 376.7378048 281.61702118 370.88362992 285.3125 365 C289.76387795 357.92038807 294.31794233 350.92983797 299 344 C304.10502863 336.39676587 309.1080174 328.74189906 314 321 C315.10385174 319.27063228 316.20802415 317.5414692 317.3125 315.8125 C319.64215956 312.15380558 321.9489335 308.4818136 324.23999023 304.79882812 C334.67821748 288.029566 345.32945978 271.39984282 356.32739258 254.99194336 C360.31014298 249.04877477 364.19827775 243.06086086 368 237 C369.10336822 235.27032374 370.20757082 233.54117952 371.3125 231.8125 C371.87582031 230.92046875 372.43914062 230.0284375 373.01953125 229.109375 C374.56089444 226.68940439 376.12320119 224.2878856 377.69921875 221.890625 C378.63310885 220.44810848 379.56670359 219.0054007 380.5 217.5625 C380.95802002 216.87583252 381.41604004 216.18916504 381.88793945 215.48168945 C384.33035123 212.00331009 384.33035123 212.00331009 384.71801758 207.95507812 C383.6292218 204.9904142 381.92818024 202.56890671 380.1875 199.9375 C379.3610926 198.67636176 378.53562044 197.41461032 377.7109375 196.15234375 C377.26975586 195.47929199 376.82857422 194.80624023 376.37402344 194.11279297 C373.98109129 190.43325587 371.64992035 186.71494627 369.3125 183 C368.29579381 181.38918347 367.2788606 179.77851022 366.26171875 178.16796875 C364.57095456 175.49001811 362.88126127 172.81141118 361.19384766 170.13134766 C359.3407888 167.18968354 357.48323456 164.2508967 355.625 161.3125 C355.05434814 160.40435547 354.48369629 159.49621094 353.89575195 158.56054688 C351.33833373 154.52373871 348.74340439 150.58725862 345.8359375 146.79296875 C343.64306297 143.93102687 341.78996884 141.0166485 340.05078125 137.84960938 C337.88484572 134.03707973 335.40731527 130.41283768 333 126.75 C328.67689271 120.13622307 324.39369295 113.5012604 320.1875 106.8125 C310.85267708 91.97654718 301.38915353 77.22153 291.875 62.5 C291.46241943 61.8611084 291.04983887 61.2222168 290.62475586 60.56396484 C288.46415968 57.22795138 286.27815229 53.91042296 284.0703125 50.60546875 C278.62854838 42.45927079 273.31676879 34.22809779 268 26 C267.35208496 24.99855957 266.70416992 23.99711914 266.03662109 22.96533203 C264.08154999 19.93863489 262.13350857 16.90753002 260.1875 13.875 C259.26227539 12.44377808 259.26227539 12.44377808 258.31835938 10.98364258 C257.75310547 10.0995874 257.18785156 9.21553223 256.60546875 8.3046875 C255.84979614 7.1288208 255.84979614 7.1288208 255.07885742 5.92919922 C254 4 254 4 254 2 C253.34 2 252.68 2 252 2 C252 29.06 252 56.12 252 84 C196.23 84 140.46 84 83 84 C83 111.72 83 139.44 83 168 C138.44 168 193.88 168 251 168 C251 195.39 251 222.78 251 251 C195.56 251 140.12 251 83 251 C83.33 278.39 83.66 305.78 84 334 C139.11 334.33 194.22 334.66 251 335 C251 362.39 251 389.78 251 418 C168.17 418 85.34 418 0 418 C0 280.06 0 142.12 0 0 Z " fill="#182262" transform="translate(770,234)"/>
<path d="M0 0 C82.83 0 165.66 0 251 0 C251 27.72 251 55.44 251 84 C195.56 84 140.12 84 83 84 C83 111.39 83 138.78 83 167 C138.44 167 193.88 167 251 167 C251 194.72 251 222.44 251 251 C195.89 251 140.78 251 84 251 C84 306.11 84 361.22 84 418 C56.28 418 28.56 418 0 418 C0 280.06 0 142.12 0 0 Z " fill="#192263" transform="translate(201,234)"/>
<path d="M0 0 C0.66 0 1.32 0 2 0 C3.39770508 1.88574219 3.39770508 1.88574219 5.01953125 4.546875 C5.62369873 5.5280127 6.22786621 6.50915039 6.8503418 7.52001953 C7.497854 8.58591309 8.14536621 9.65180664 8.8125 10.75 C10.1677581 12.95145282 11.52455611 15.15195831 12.8828125 17.3515625 C13.91196777 19.0207373 13.91196777 19.0207373 14.96191406 20.72363281 C17.97388423 25.56558774 21.06985579 30.35061261 24.1875 35.125 C24.71512939 35.93420898 25.24275879 36.74341797 25.78637695 37.57714844 C27.86613006 40.75996943 29.95646628 43.93474057 32.06640625 47.09765625 C34.32280058 50.48452693 36.54034552 53.89501714 38.75 57.3125 C39.45129028 58.39688354 39.45129028 58.39688354 40.16674805 59.50317383 C49.54688525 74.02555267 58.84393939 88.60166345 68.125 103.1875 C68.97167236 104.51769165 68.97167236 104.51769165 69.83544922 105.87475586 C72.80944351 110.54920814 75.77733536 115.22742685 78.73828125 119.91015625 C79.66713135 121.37642456 79.66713135 121.37642456 80.61474609 122.87231445 C81.78500416 124.7198676 82.95345665 126.56856635 84.11962891 128.41870117 C86.79979491 132.64654034 89.53919715 136.80716227 92.4296875 140.89453125 C96.36296588 146.46218557 100.03070163 152.18572623 103.6875 157.9375 C104.38375488 159.02853027 105.08000977 160.11956055 105.79736328 161.24365234 C108.99688969 166.26204236 112.18535983 171.28719321 115.35546875 176.32421875 C115.86416504 177.13238037 116.37286133 177.94054199 116.89697266 178.77319336 C117.87130562 180.32353188 118.84368382 181.87510087 119.81396484 183.42797852 C122.13151219 187.11958643 124.49856098 190.75534463 126.99609375 194.328125 C127.70789795 195.35462158 127.70789795 195.35462158 128.43408203 196.40185547 C129.32411116 197.67589291 130.22664977 198.94132361 131.14404297 200.19580078 C132.83813191 202.62378604 133.97977196 204.40664422 134.08203125 207.40625 C132.46311603 211.28697097 130.21852657 214.64524152 127.875 218.125 C126.86688399 219.65084118 125.85907124 221.17688277 124.8515625 222.703125 C124.36075195 223.44111328 123.86994141 224.17910156 123.36425781 224.93945312 C121.62655504 227.56404357 119.93343058 230.21533342 118.25 232.875 C117.70214844 233.73738281 117.15429688 234.59976563 116.58984375 235.48828125 C115.53763356 237.15061823 114.48811132 238.81465993 113.44140625 240.48046875 C109.86262215 246.15331357 106.17407854 251.7431118 102.4375 257.3125 C92.70048634 271.84611782 83.4235854 286.67784921 74.171875 301.5234375 C71.68406566 305.51221061 69.16389736 309.47996413 66.6328125 313.44140625 C65.53954289 315.15454403 64.45103381 316.87072867 63.3671875 318.58984375 C57.74727031 327.49022423 51.89284785 336.23310015 46.00390625 344.95703125 C40.9430618 352.47990814 36.10063575 360.13098782 31.2734375 367.8046875 C27.28775433 374.13886154 23.26681963 380.45051364 19.23876953 386.7578125 C16.3024843 391.36041713 13.38797553 395.97436555 10.515625 400.6171875 C9.96519531 401.50277344 9.41476562 402.38835937 8.84765625 403.30078125 C7.80262195 404.98458957 6.76331185 406.67196748 5.73046875 408.36328125 C5.26769531 409.10707031 4.80492187 409.85085938 4.328125 410.6171875 C3.9249707 411.27315918 3.52181641 411.92913086 3.10644531 412.60498047 C2.74131836 413.06533691 2.37619141 413.52569336 2 414 C1.34 414 0.68 414 0 414 C0 386.94 0 359.88 0 332 C-55.11 332 -110.22 332 -167 332 C-167 304.94 -167 277.88 -167 250 C-111.89 250 -56.78 250 0 250 C0 221.95 0 193.9 0 165 C-55.44 165 -110.88 165 -168 165 C-168 137.61 -168 110.22 -168 82 C-112.56 82 -57.12 82 0 82 C0 54.94 0 27.88 0 0 Z " fill="#FEFEFE" transform="translate(1022,236)"/>
<path d="M0 0 C28.05 0 56.1 0 85 0 C85 109.56 85 219.12 85 332 C139.45 332 193.9 332 250 332 C250 360.05 250 388.1 250 417 C167.5 417 85 417 0 417 C0 279.39 0 141.78 0 0 Z " fill="#172161" transform="translate(486,235)"/>
<path d="M0 0 C27.72 0 55.44 0 84 0 C84 137.61 84 275.22 84 417 C56.28 417 28.56 417 0 417 C0 279.39 0 141.78 0 0 Z " fill="#182262" transform="translate(84,235)"/>
<path d="M0 0 C1.093125 0.61875 2.18625 1.2375 3.3125 1.875 C13.83367993 10.1940725 19.38584261 20.02018215 21.35546875 33.41796875 C21.78499499 44.64701189 17.60348368 55.75509624 10.6875 64.4375 C2.85825109 72.66824886 -5.46765331 78.33556628 -17.04296875 78.81787109 C-25.2030772 78.80204578 -32.92042432 78.41661602 -40 74 C-40.85722656 73.47921875 -41.71445313 72.9584375 -42.59765625 72.421875 C-53.59783428 65.2288278 -59.2894 56.45388024 -62.4609375 43.78515625 C-64.5222714 33.13493109 -62.40965668 22.58105963 -56.9375 13.25 C-44.06388548 -5.44098007 -19.74317018 -11.23542251 0 0 Z " fill="#EB662B" transform="translate(1480,574)"/>
<path d="M0 0 C0.66 0 1.32 0 2 0 C1.38722388 2.96175123 0.74627478 4.38058783 -1 7 C-1.99 6.67 -2.98 6.34 -4 6 C-2.7260411 3.96166576 -1.38938077 1.96147874 0 0 Z " fill="#323875" transform="translate(1239,314)"/>
<path d="M0 0 C0.75 1.75 0.75 1.75 1 4 C-0.9375 6.25 -0.9375 6.25 -3 8 C-3.33 7.34 -3.66 6.68 -4 6 C-2.68 4.02 -1.36 2.04 0 0 Z " fill="#20296C" transform="translate(1039,625)"/>
<path d="M0 0 C0 3 0 3 -2 5.1875 C-2.66 5.785625 -3.32 6.38375 -4 7 C-4.66 6.67 -5.32 6.34 -6 6 C-2.25 1.125 -2.25 1.125 0 0 Z " fill="#EC7D4B" transform="translate(1432,578)"/>
<path d="M0 0 C0.66 0.99 1.32 1.98 2 3 C0.35 4.98 -1.3 6.96 -3 9 C-3.66 8.67 -4.32 8.34 -5 8 C-3.35 5.36 -1.7 2.72 0 0 Z " fill="#3C4276" transform="translate(1103,525)"/>
</svg>
