<?xml version="1.0" encoding="UTF-8"?>
<svg version="1.1" xmlns="http://www.w3.org/2000/svg" width="1080" height="1080">
<path d="M0 0 C356.4 0 712.8 0 1080 0 C1080 356.4 1080 712.8 1080 1080 C723.6 1080 367.2 1080 0 1080 C0 723.6 0 367.2 0 0 Z " fill="#FEFEFE" transform="translate(0,0)"/>
<path d="M0 0 C1.13598633 0.00483398 1.13598633 0.00483398 2.29492188 0.00976562 C3.47344727 0.02233398 3.47344727 0.02233398 4.67578125 0.03515625 C5.47306641 0.03966797 6.27035156 0.04417969 7.09179688 0.04882812 C9.05732382 0.06059775 11.0228121 0.07853277 12.98828125 0.09765625 C12.98828125 0.75765625 12.98828125 1.41765625 12.98828125 2.09765625 C14.18453125 2.36578125 15.38078125 2.63390625 16.61328125 2.91015625 C27.4540054 5.66335603 33.40512193 12.74551281 38.98828125 22.09765625 C42.42414831 30.69893157 43.31372729 40.86903923 40.12890625 49.65625 C34.5182919 61.66527044 27.28149594 69.13688955 14.98828125 74.09765625 C5.14220616 76.55145866 -6.88383979 75.66159573 -16.01171875 71.09765625 C-16.01171875 70.43765625 -16.01171875 69.77765625 -16.01171875 69.09765625 C-16.75808594 68.86046875 -17.50445313 68.62328125 -18.2734375 68.37890625 C-21.44784059 66.89359354 -22.74429512 65.38901346 -24.82421875 62.59765625 C-25.42878906 61.80359375 -26.03335938 61.00953125 -26.65625 60.19140625 C-28.01171875 58.09765625 -28.01171875 58.09765625 -28.01171875 56.09765625 C-29.00171875 55.76765625 -29.99171875 55.43765625 -31.01171875 55.09765625 C-34.64105638 47.27143026 -35.73042149 36.83547925 -33.25 28.5546875 C-32.27928997 26.32550756 -31.18230469 24.22747234 -30.01171875 22.09765625 C-29.57859375 21.08445312 -29.57859375 21.08445312 -29.13671875 20.05078125 C-25.15898047 10.88777699 -18.49629229 5.78023621 -9.4296875 2.0078125 C-6.12706899 0.76466208 -3.51664612 -0.02644095 0 0 Z " fill="#FBFB0B" transform="translate(774.01171875,563.90234375)"/>
<path d="M0 0 C5.61 0 11.22 0 17 0 C19.58790288 8.04098396 21.80583104 16.01272668 23.60449219 24.26147461 C24.39418489 27.79812247 25.38078202 30.78147246 27 34 C27.43473339 36.07169246 27.80654223 38.15727751 28.125 40.25 C28.29257812 41.32765625 28.46015625 42.4053125 28.6328125 43.515625 C28.75398437 44.33546875 28.87515625 45.1553125 29 46 C29.99 46 30.98 46 32 46 C31.95875 45.16210938 31.9175 44.32421875 31.875 43.4609375 C32.01587991 39.56032504 32.87334227 36.35705372 34 32.625 C34.37125 31.37976563 34.7425 30.13453125 35.125 28.8515625 C35.41375 27.91054688 35.7025 26.96953125 36 26 C36.66 26 37.32 26 38 26 C38.103125 24.845 38.20625 23.69 38.3125 22.5 C38.83305805 17.79234462 39.63937589 13.154935 40.5 8.5 C40.63059814 7.78134766 40.76119629 7.06269531 40.89575195 6.32226562 C41.87794481 1.12205519 41.87794481 1.12205519 43 0 C45.18639453 -0.07258946 47.37500389 -0.08373783 49.5625 -0.0625 C51.35880859 -0.04896484 51.35880859 -0.04896484 53.19140625 -0.03515625 C54.11824219 -0.02355469 55.04507813 -0.01195312 56 0 C56.495 3.465 56.495 3.465 57 7 C57.66 7 58.32 7 59 7 C59.14099121 7.64549805 59.28198242 8.29099609 59.42724609 8.95605469 C60.07101511 11.88860448 60.72291665 14.81928829 61.375 17.75 C61.59671875 18.76578125 61.8184375 19.7815625 62.046875 20.828125 C62.26601563 21.8078125 62.48515625 22.7875 62.7109375 23.796875 C62.90993652 24.69760742 63.10893555 25.59833984 63.31396484 26.52636719 C63.97122199 28.89623531 64.87930589 30.82252102 66 33 C66.43473339 35.07169246 66.80654223 37.15727751 67.125 39.25 C67.29257812 40.32765625 67.46015625 41.4053125 67.6328125 42.515625 C67.75398437 43.33546875 67.87515625 44.1553125 68 45 C68.66 45 69.32 45 70 45 C70.226875 43.989375 70.45375 42.97875 70.6875 41.9375 C71.6626948 37.98864783 72.96181217 34.21044375 74.3125 30.375 C77.74973863 20.47772132 79.80862286 10.229535 82 0 C87.61 0 93.22 0 99 0 C97.66438273 9.34932092 94.85048733 17.90215898 91.76611328 26.78515625 C89.92209286 32.11624397 88.15131312 37.46533623 86.5 42.859375 C86.12875 44.06787109 86.12875 44.06787109 85.75 45.30078125 C85.24562373 46.947885 84.74569561 48.59635679 84.25 50.24609375 C82.91964445 54.54896249 81.53084111 58.23010127 79 62 C78.58105469 62.92167969 78.16210938 63.84335937 77.73046875 64.79296875 C76 67 76 67 72.86328125 67.48828125 C71.69152344 67.43027344 70.51976562 67.37226562 69.3125 67.3125 C68.13300781 67.26738281 66.95351563 67.22226562 65.73828125 67.17578125 C64.83464844 67.11777344 63.93101562 67.05976562 63 67 C58.56557064 57.56775067 56.15309043 48.15200182 54 38 C53.34 38 52.68 38 52 38 C51.34 36.02 50.68 34.04 50 32 C46.89949549 35.54211939 45.54448644 39.54951452 44.0625 43.9375 C43.67553955 45.05789673 43.67553955 45.05789673 43.28076172 46.20092773 C41.03573531 52.75648866 38.98418532 59.36061065 37 66 C32.05 66 27.1 66 22 66 C18.13569608 58.98323761 16.01161337 52.94191985 15 45 C14.34 45 13.68 45 13 45 C11.45559772 40.64478557 10.01262036 36.35301954 9.125 31.8125 C8.01298517 26.38663453 5.98809534 21.29820424 4.0234375 16.13671875 C3 13 3 13 3 9 C2.34 9 1.68 9 1 9 C0.67 6.03 0.34 3.06 0 0 Z " fill="#A83E96" transform="translate(627,573)"/>
<path d="M0 0 C6.01261468 4.80814906 8.69809375 8.90745244 10.60546875 16.37109375 C10.60546875 22.31109375 10.60546875 28.25109375 10.60546875 34.37109375 C-4.24453125 34.37109375 -19.09453125 34.37109375 -34.39453125 34.37109375 C-34.39453125 36.35109375 -34.39453125 38.33109375 -34.39453125 40.37109375 C-33.73453125 40.37109375 -33.07453125 40.37109375 -32.39453125 40.37109375 C-30.61147601 43.01001551 -29.40393504 45.34288238 -28.39453125 48.37109375 C-26.97140625 48.34015625 -26.97140625 48.34015625 -25.51953125 48.30859375 C-22.39453125 48.37109375 -22.39453125 48.37109375 -20.39453125 49.37109375 C-17.86216357 49.4706319 -15.36395684 49.51217676 -12.83203125 49.49609375 C-12.11273437 49.49416016 -11.3934375 49.49222656 -10.65234375 49.49023438 C-5.50328582 49.44848526 -0.49677765 49.09998609 4.60546875 48.37109375 C5.65523839 51.52040268 5.7067847 53.75923831 5.66796875 57.05859375 C5.65894531 58.05246094 5.64992188 59.04632812 5.640625 60.0703125 C5.62902344 60.82957031 5.61742187 61.58882812 5.60546875 62.37109375 C-4.32004193 66.09316026 -19.68409088 67.79852505 -29.95703125 64.18359375 C-31.09140625 63.58546875 -32.22578125 62.98734375 -33.39453125 62.37109375 C-34.05453125 62.04238281 -34.71453125 61.71367188 -35.39453125 61.375 C-41.19541274 58.1998963 -44.68366841 53.75528996 -48.39453125 48.37109375 C-49.01328125 47.48421875 -49.63203125 46.59734375 -50.26953125 45.68359375 C-54.20318948 37.59774071 -53.50976117 25.43328964 -51.26953125 16.93359375 C-48.05769172 7.88341041 -41.29717447 1.09478443 -33.01953125 -3.50390625 C-22.85630792 -6.84523995 -8.87445627 -6.0369466 0 0 Z " fill="#A94097" transform="translate(525.39453125,576.62890625)"/>
<path d="M0 0 C0.33 18.48 0.66 36.96 1 56 C10.06309839 47.06257888 10.06309839 47.06257888 18.5 37.71875 C18.995 37.1515625 19.49 36.584375 20 36 C20.53109375 35.27296875 21.0621875 34.5459375 21.609375 33.796875 C25.28485632 31.03425832 28.78781029 31.56872354 33.25 31.75 C34.09046875 31.76804687 34.9309375 31.78609375 35.796875 31.8046875 C37.86507395 31.85169202 39.93268441 31.92343276 42 32 C37.36838996 41.3225997 37.36838996 41.3225997 33 44 C32.34 44 31.68 44 31 44 C30.59793335 44.89211182 30.59793335 44.89211182 30.18774414 45.80224609 C28.99020301 48.01812796 27.79681017 49.42079528 25.99609375 51.1640625 C25.42052734 51.72867188 24.84496094 52.29328125 24.25195312 52.875 C23.65318359 53.4525 23.05441406 54.03 22.4375 54.625 C21.24650616 55.78160151 20.05759995 56.94035778 18.87109375 58.1015625 C18.34443115 58.61025879 17.81776855 59.11895508 17.27514648 59.64306641 C15.8835783 60.99400105 15.8835783 60.99400105 15 63 C15.54011719 63.21527344 16.08023438 63.43054688 16.63671875 63.65234375 C19.8386451 65.47823563 22.25051218 67.95407009 24.8125 70.5625 C25.34294922 71.0989917 25.87339844 71.6354834 26.41992188 72.18823242 C42 88.16066599 42 88.16066599 42 95 C42.99 95.33 43.98 95.66 45 96 C45 96.99 45 97.98 45 99 C31.95974913 100.28969514 31.95974913 100.28969514 26 99 C23.18313292 96.66025699 22.1956286 94.60075885 20.66796875 91.29296875 C18.61918463 87.2481795 15.9926698 84.37555562 12.875 81.125 C12.11908569 80.32316284 12.11908569 80.32316284 11.34790039 79.50512695 C9.91069389 77.99114306 8.45888925 76.49307411 7 75 C6.09507812 74.06929687 5.19015625 73.13859375 4.2578125 72.1796875 C2.19970498 69.97506949 2.19970498 69.97506949 0 69 C0 78.9 0 88.8 0 99 C-2.619375 99.020625 -5.23875 99.04125 -7.9375 99.0625 C-8.7637085 99.071604 -9.58991699 99.08070801 -10.44116211 99.09008789 C-12.29433759 99.09723945 -14.14749308 99.0502852 -16 99 C-17.89977088 97.10022912 -17.12012643 94.31060935 -17.12442017 91.78329468 C-17.11902725 90.44218124 -17.11902725 90.44218124 -17.11352539 89.07397461 C-17.11367142 88.13748581 -17.11381744 87.20099701 -17.1139679 86.23612976 C-17.11326837 83.12484461 -17.10547415 80.01361851 -17.09765625 76.90234375 C-17.09579221 74.75142957 -17.09436824 72.60051497 -17.09336853 70.44960022 C-17.08954225 64.77618242 -17.07971102 59.10279005 -17.06866455 53.42938232 C-17.0584528 47.64498234 -17.05387142 41.86057827 -17.04882812 36.07617188 C-17.03808885 24.71743672 -17.02101111 13.35872047 -17 2 C-15.66961551 1.6550855 -14.33542939 1.32483418 -13 1 C-11.88625 0.7215625 -11.88625 0.7215625 -10.75 0.4375 C-7.2082411 -0.12596164 -3.58629964 0 0 0 Z " fill="#A93F97" transform="translate(923,541)"/>
<path d="M0 0 C0.89009766 -0.020625 1.78019531 -0.04125 2.69726562 -0.0625 C11.86011095 -0.11604475 19.13198526 1.87520389 25.90234375 8.21484375 C28.62157598 11.54830256 29.6361308 15.10813442 30.5625 19.25 C30.82111061 20.16353241 30.82111061 20.16353241 31.08494568 21.09552002 C31.59836881 23.41182165 31.68268622 25.46370633 31.67602539 27.83496094 C31.67594986 28.73559265 31.67587433 29.63622437 31.67579651 30.56414795 C31.67063522 31.52782288 31.66547394 32.4914978 31.66015625 33.484375 C31.6587413 34.47753723 31.65732635 35.47069946 31.65586853 36.49395752 C31.65027588 39.66266912 31.6377247 42.83130979 31.625 46 C31.61998405 48.14973856 31.61542131 50.29947823 31.61132812 52.44921875 C31.60030886 57.71616999 31.583578 62.98307993 31.5625 68.25 C28.91659986 68.27684679 26.27096904 68.29676357 23.625 68.3125 C22.87025391 68.32087891 22.11550781 68.32925781 21.33789062 68.33789062 C19.41255687 68.34652441 17.48714419 68.30224333 15.5625 68.25 C13.44964112 66.13714112 14.37631312 61.4269234 14.3515625 58.5 C14.32346529 56.67577272 14.29480069 54.8515541 14.265625 53.02734375 C14.22456302 50.14860541 14.18768468 47.27002392 14.16113281 44.39111328 C14.13329534 41.6145655 14.08739332 38.83875708 14.0390625 36.0625 C14.03580963 35.21526367 14.03255676 34.36802734 14.02920532 33.49511719 C13.91610327 27.91770765 13.44489198 22.14885741 10.5625 17.25 C4.24767751 12.87801132 4.24767751 12.87801132 -10.4375 14.25 C-10.4375 32.07 -10.4375 49.89 -10.4375 68.25 C-15.7175 68.25 -20.9975 68.25 -26.4375 68.25 C-26.4375 46.8 -26.4375 25.35 -26.4375 3.25 C-17.34490166 0.97685042 -9.28797791 0.05357161 0 0 Z " fill="#A83E96" transform="translate(413.4375,571.75)"/>
<path d="M0 0 C0 0.99 0 1.98 0 3 C0.66 3 1.32 3 2 3 C2.495 7.455 2.495 7.455 3 12 C3.66 12 4.32 12 5 12 C7.78232002 21.56422506 7.3083393 29.3174881 4.625 38.875 C4.40328125 39.71546875 4.1815625 40.5559375 3.953125 41.421875 C2.94954172 45.11742284 2.15108195 47.77337707 0 51 C-0.66 51 -1.32 51 -2 51 C-2.22816406 51.71671875 -2.45632813 52.4334375 -2.69140625 53.171875 C-6.53973794 61.48886646 -16.28048938 68.22010109 -23.30859375 73.80859375 C-26.01222409 76.00995314 -28.56704322 78.31931436 -31.125 80.6875 C-43.78725635 92.16392599 -43.78725635 92.16392599 -51 92 C-55.09635903 90.24441756 -57.63865912 87.760654 -60 84 C-60.65801512 80.13416119 -60.29252187 78.49308926 -58.28515625 75.109375 C-56.03937631 72.0535787 -53.76782794 69.70103129 -50.9375 67.1875 C-49.968125 66.32640625 -48.99875 65.4653125 -48 64.578125 C-45.17883481 62.15368616 -42.32438103 59.78309084 -39.4375 57.4375 C-37.62466467 55.95874432 -35.81216083 54.47958218 -34 53 C-33.10796875 52.28199219 -32.2159375 51.56398438 -31.296875 50.82421875 C-25.24110613 45.72032971 -20.06698123 40.82500037 -18 33 C-17.32396607 25.01675382 -17.62483426 16.99295429 -18 9 C-17.34 9 -16.68 9 -16 9 C-15.9071875 8.071875 -15.9071875 8.071875 -15.8125 7.125 C-15 5 -15 5 -12.625 3.9375 C-11.75875 3.628125 -10.8925 3.31875 -10 3 C-9.54625 2.46375 -9.0925 1.9275 -8.625 1.375 C-5.99891917 -0.84706839 -3.29349183 -0.18642407 0 0 Z " fill="#2FADE2" transform="translate(298,484)"/>
<path d="M0 0 C3.48030236 2.95069113 5.68140143 5.0884086 6.4375 9.625 C5.6436718 15.7488175 1.29455481 20.04869988 -3.25 24 C-6 26 -6 26 -8 26 C-8 26.66 -8 27.32 -8 28 C-9.49109234 29.32981093 -11.04706714 30.5869873 -12.625 31.8125 C-17.44202788 35.6648695 -22.04060652 39.68029471 -26.5625 43.875 C-27.16980957 44.43421143 -27.77711914 44.99342285 -28.40283203 45.56958008 C-29.25723877 46.36658325 -29.25723877 46.36658325 -30.12890625 47.1796875 C-30.63494385 47.65132324 -31.14098145 48.12295898 -31.66235352 48.60888672 C-36.47166498 53.6104302 -36.1127125 59.07520481 -36.1328125 65.59765625 C-36.00672403 67.87837423 -35.58131322 69.80092362 -35 72 C-34.75397561 76.51044707 -34.74341587 80.02411367 -37 84 C-41.19028929 87.77126036 -43.54405753 89.13405054 -49.125 89.0625 C-50.49011719 89.04896484 -50.49011719 89.04896484 -51.8828125 89.03515625 C-52.93082031 89.01775391 -52.93082031 89.01775391 -54 89 C-60.60038695 73.36413189 -62.23986642 59.97490732 -55.6875 43.75 C-48.94154484 32.7565916 -39.83454757 24.29909742 -29.8046875 16.30078125 C-25.92053565 13.11447841 -22.26593227 9.70067162 -18.60546875 6.26171875 C-12.5039195 0.9651715 -8.12941144 -1.96227173 0 0 Z " fill="#8FC656" transform="translate(210,528)"/>
<path d="M0 0 C2.1875 1.9375 2.1875 1.9375 4 4 C5.05736497 4.86051511 6.12060293 5.71383188 7.1875 6.5625 C11.2297281 9.98417283 14.37767813 13.99782586 17.66796875 18.12890625 C19.92342757 20.90572741 22.27041381 23.55104801 24.6875 26.1875 C37.76370124 40.56674927 37.76370124 40.56674927 37.49609375 48.95703125 C36.68280196 52.30625651 34.93242411 53.98484387 32.17578125 55.95703125 C28.80986553 57.57049534 26.41511345 57.93987603 22.7265625 57.3046875 C17.00898967 54.56877156 13.39030335 48.94557284 9.59277344 44.02880859 C6.94297042 40.65359967 4.13015891 37.42278797 1.3125 34.1875 C0.7659375 33.55851807 0.219375 32.92953613 -0.34375 32.28149414 C-10.25636117 19.91635178 -10.25636117 19.91635178 -24.20703125 13.734375 C-27.06957591 13.67248214 -29.4098659 13.70493295 -32 15 C-37.83308102 15.45854202 -43.61215944 15.42981045 -49 13 C-51.8569083 10.3823759 -53.67298255 7.70049071 -54.41015625 3.8671875 C-54.53155224 1.00646459 -54.53877791 -1.27525681 -52.7890625 -3.62890625 C-39.16650518 -14.06890105 -13.04911107 -7.98415974 0 0 Z " fill="#FDFD07" transform="translate(214,483)"/>
<path d="M0 0 C2 1.375 2 1.375 3 3 C3 3.99 3 4.98 3 6 C3.99 6.33 4.98 6.66 6 7 C7.47265625 8.4609375 7.47265625 8.4609375 9.0625 10.375 C11.92860054 13.76001558 14.86737252 17.05228794 17.875 20.3125 C21.28624442 24.02822766 24.46451647 27.83324017 27.5625 31.8125 C31.863326 37.08838146 36.41088059 42.18265684 43.390625 43.42578125 C46.76676921 43.53198446 49.35566295 43.25773482 52.5 42 C56.27104798 40.49158081 59.98713414 40.84263271 64 41 C64 41.66 64 42.32 64 43 C64.721875 43.04125 65.44375 43.0825 66.1875 43.125 C69.38271325 44.11906634 71.02264468 45.52519001 73.046875 48.18359375 C74.86300215 51.64465574 74.5594859 54.14576381 74 58 C69.84011803 63.51285329 63.48498525 63.84161652 57.06103516 64.75244141 C43.37725147 66.39605153 30.63922486 64.64774268 19.46484375 56.171875 C11.86766767 49.47769132 5.51682519 41.53372492 -0.8046875 33.66015625 C-3.03591952 30.95647474 -5.36968202 28.38528594 -7.75 25.8125 C-12.1300178 20.97223515 -16.2316311 16.4227342 -17.6875 9.9375 C-16.69041495 5.6772275 -14.2524348 2.8725884 -11 0 C-7.08681577 -1.30439474 -3.98158936 -0.94562747 0 0 Z " fill="#A73C95" transform="translate(220,563)"/>
<path d="M0 0 C0 7.59 0 15.18 0 23 C1.65 22.67 3.3 22.34 5 22 C13.36361606 21.23739824 19.04215879 22.26781664 25.75390625 27.3203125 C30.819746 31.78801695 31.72936107 36.62124215 32.25 43.12109375 C32.55308024 51.31373135 31.79105498 56.85533252 26.19921875 62.96875 C18.74254979 70.0344868 11.63248258 70.32822546 1.75 70.25 C0.75742187 70.25773438 -0.23515625 70.26546875 -1.2578125 70.2734375 C-2.68480469 70.26957031 -2.68480469 70.26957031 -4.140625 70.265625 C-5.00204102 70.26336914 -5.86345703 70.26111328 -6.75097656 70.25878906 C-9 70 -9 70 -12 68 C-12.36076355 65.21591187 -12.36076355 65.21591187 -12.34057617 61.62255859 C-12.34101425 60.96877731 -12.34145233 60.31499603 -12.34190369 59.6414032 C-12.33981081 57.47677925 -12.3164578 55.3129264 -12.29296875 53.1484375 C-12.28737453 51.64914371 -12.28310361 50.14984444 -12.28010559 48.65054321 C-12.26864298 44.70154723 -12.239164 40.75288148 -12.20599365 36.80401611 C-12.17532305 32.77563953 -12.16160672 28.74720965 -12.14648438 24.71875 C-12.11429532 16.81234833 -12.06308227 8.90621523 -12 1 C-7.89864774 0.35665063 -4.17263102 0 0 0 Z " fill="#707070" transform="translate(634,443)"/>
<path d="M0 0 C2 0 2 0 4.1875 1.875 C13.62380929 11.73257309 17.07518429 21.42171652 17 35 C15.70403735 44.79636282 9.7328766 54.66697533 1.95703125 60.72265625 C-8.1180445 67.29860389 -17.62097806 69.50914981 -29.53515625 67.36328125 C-38.21399594 65.39300203 -38.21399594 65.39300203 -41 64 C-41 63.34 -41 62.68 -41 62 C-41.74765625 61.75894531 -42.4953125 61.51789062 -43.265625 61.26953125 C-46.38490631 59.8212935 -47.6836088 58.40763886 -49.75 55.6875 C-50.34296875 54.92824219 -50.9359375 54.16898438 -51.546875 53.38671875 C-53.07668706 50.87404356 -53.61044366 48.89604387 -54 46 C-52.65452394 45.17318818 -51.2980377 44.36428599 -49.9375 43.5625 C-49.18339844 43.11003906 -48.42929687 42.65757812 -47.65234375 42.19140625 C-44.25383124 40.66482847 -41.74461618 40 -38 40 C-35.72039106 41.8005153 -34.26840545 43.22089468 -32.5 45.4375 C-32.03295654 45.98720459 -31.56591309 46.53690918 -31.0847168 47.10327148 C-30.14728394 48.20838576 -29.21830323 49.32073093 -28.29833984 50.44042969 C-26.54288622 52.54908665 -24.67334473 54.54689942 -22.8125 56.5625 C-20 59.62529274 -20 59.62529274 -20 63 C-16.04 63 -12.08 63 -8 63 C-13.36173864 56.16641154 -18.91547048 49.57533451 -24.6940918 43.09155273 C-25.23718994 42.47481689 -25.78028809 41.85808105 -26.33984375 41.22265625 C-26.82831787 40.67359619 -27.31679199 40.12453613 -27.82006836 39.55883789 C-29 38 -29 38 -30 35 C-22.5 32.5 -22.5 32.5 -15 30 C-14.28752268 28.3523962 -13.62599617 26.68236471 -13 25 C-11.8125 22.6875 -11.8125 22.6875 -10 21 C-6.3125 20.75 -6.3125 20.75 -3 21 C-2.34 19.35 -1.68 17.7 -1 16 C-4.3 15.67 -7.6 15.34 -11 15 C-11.495 12.525 -11.495 12.525 -12 10 C-10.14375 9.938125 -10.14375 9.938125 -8.25 9.875 C-4.51928617 9.42519762 -4.14587655 9.16775803 -1.5 6.125 C0.21636553 3.1269645 0.21636553 3.1269645 0 0 Z " fill="#4C0384" transform="translate(799,571)"/>
<path d="M0 0 C0.71220703 -0.00773437 1.42441406 -0.01546875 2.15820312 -0.0234375 C2.86783203 -0.02085937 3.57746094 -0.01828125 4.30859375 -0.015625 C4.93435303 -0.01336914 5.5601123 -0.01111328 6.20483398 -0.00878906 C9.75618516 0.38102478 13.108784 1.34044995 16.5625 2.25 C16.66433351 8.79690186 16.7341467 15.34359771 16.78222656 21.89111328 C16.80228046 24.11612582 16.82953065 26.34108607 16.86425781 28.56591797 C16.91304934 31.77324365 16.93553162 34.97986951 16.953125 38.1875 C16.97377014 39.17427734 16.99441528 40.16105469 17.01568604 41.17773438 C17.01819577 48.98937513 15.10060506 54.00686576 10.3125 60.125 C4.56942914 64.56282748 -1.49969304 64.42538355 -8.5 64.5 C-9.17264893 64.50942627 -9.84529785 64.51885254 -10.53833008 64.52856445 C-15.22475423 64.49819638 -19.03286566 63.69339123 -23.4375 62.25 C-23.1075 59.28 -22.7775 56.31 -22.4375 53.25 C-21.426875 53.415 -20.41625 53.58 -19.375 53.75 C-15.13424993 54.26102564 -10.8928371 54.46402329 -6.625 54.5625 C-5.33980469 54.59988281 -4.05460938 54.63726563 -2.73046875 54.67578125 C0.59708587 54.57548102 0.59708587 54.57548102 2.46875 52.43359375 C3.8219981 49.73193057 4.22292269 47.2382803 4.5625 44.25 C3.0775 44.745 3.0775 44.745 1.5625 45.25 C-0.89286342 45.39675735 -3.35292552 45.47100698 -5.8125 45.5 C-7.11960937 45.52578125 -8.42671875 45.5515625 -9.7734375 45.578125 C-15.15556792 45.09614317 -17.49603331 43.25715041 -21.125 39.375 C-26.60386266 31.97113154 -26.56433457 23.13996761 -25.4375 14.25 C-23.62977899 8.99117524 -20.15601465 5.17098526 -15.4375 2.25 C-10.14750344 0.41859397 -5.5203923 -0.0596262 0 0 Z " fill="#6D6D6D" transform="translate(826.4375,464.75)"/>
<path d="M0 0 C6.14357755 6.44326426 6.03935477 12.43505068 5.8515625 21.08203125 C5.3243543 27.65788486 3.38518741 32.99515549 -1.4375 37.6875 C-7.82350826 42.5086201 -14.71495848 42.31061512 -22.4375 41.6875 C-23.7575 41.3575 -25.0775 41.0275 -26.4375 40.6875 C-26.4375 46.2975 -26.4375 51.9075 -26.4375 57.6875 C-30.0675 57.6875 -33.6975 57.6875 -37.4375 57.6875 C-37.4375 37.5575 -37.4375 17.4275 -37.4375 -3.3125 C-24.94594608 -8.30912157 -11.07665701 -8.19889808 0 0 Z " fill="#6C6C6C" transform="translate(421.4375,471.3125)"/>
<path d="M0 0 C2.64 0 5.28 0 8 0 C8 6.6 8 13.2 8 20 C16.25 20 24.5 20 33 20 C33 24.29 33 28.58 33 33 C24.75 33 16.5 33 8 33 C8.33 45.54 8.66 58.08 9 71 C10.32 71.66 11.64 72.32 13 73 C13.66 73.33 14.32 73.66 15 74 C17.12318064 74.0972886 19.24959691 74.12977619 21.375 74.125 C22.51710938 74.12757813 23.65921875 74.13015625 24.8359375 74.1328125 C27.43236152 74.0238268 29.53624883 73.76461243 32 73 C33.75747614 77.50353262 34.19294408 81.17639811 34 86 C23.91371014 90.24685889 13.37105805 90.34593261 3 87 C3 86.34 3 85.68 3 85 C2.443125 84.79375 1.88625 84.5875 1.3125 84.375 C-2.82733035 81.91347925 -5.36502874 77.95245689 -8 74 C-8.24723816 70.95053101 -8.24723816 70.95053101 -8.24291992 67.15771484 C-8.24481827 66.46637955 -8.24671661 65.77504425 -8.24867249 65.0627594 C-8.25237598 62.77870326 -8.24168411 60.49496535 -8.23046875 58.2109375 C-8.22927681 56.62578367 -8.22882382 55.04062912 -8.2290802 53.45547485 C-8.22751619 50.13498508 -8.21923138 46.81460325 -8.20581055 43.49414062 C-8.18879312 39.22887972 -8.18499703 34.96373715 -8.18575573 30.69844627 C-8.18548443 27.42661399 -8.18001015 24.15480779 -8.17275429 20.88298416 C-8.16956329 19.30963971 -8.16759921 17.7362923 -8.16686058 16.16294479 C-8.16470312 13.96974345 -8.15597273 11.77667013 -8.14526367 9.58349609 C-8.14145187 8.33345795 -8.13764008 7.0834198 -8.13371277 5.79550171 C-8 3 -8 3 -7 2 C-4.66702567 1.95907063 -2.33294775 1.95758277 0 2 C0 1.34 0 0.68 0 0 Z " fill="#A93F96" transform="translate(574,553)"/>
<path d="M0 0 C2.87472735 1.24988145 4.44101438 2.25468584 6.3125 4.75 C7.31516165 8.03143813 7.35356638 10.58219169 7 14 C1.20057345 23.91343623 -8.83463812 31.82231568 -19 37 C-21.8203125 37.68359375 -21.8203125 37.68359375 -24 38 C-24 38.66 -24 39.32 -24 40 C-36.17196642 43.80798949 -49.00892681 45.1289942 -61 40 C-62.68756133 39.03567924 -64.35666496 38.03789581 -66 37 C-68.64060184 35.91093822 -71.30755676 34.95832725 -74 34 C-74.61251598 29.09987217 -74.15917941 26.70110157 -71.1875 22.6875 C-68.89472409 19.80596188 -66.84066671 17.24256848 -62.984375 16.734375 C-57.93735417 16.76966885 -53.87589774 17.60688636 -49 19 C-38.33573483 20.02313983 -29.60246195 17.29230526 -21 11 C-18.00128047 8.42577453 -15.11455276 5.79635766 -12.25 3.07421875 C-8.44794613 -0.43079966 -5.0158095 -0.53912732 0 0 Z " fill="#8FC657" transform="translate(273,636)"/>
<path d="M0 0 C5.7413407 3.72553909 9.94657181 8.37908003 12.0625 14.9375 C12.91005354 22.63446874 12.79316893 29.57705794 8.0625 35.9375 C6.1673967 38.18551795 4.29803609 39.99355558 2.0625 41.9375 C1.4025 41.9375 0.7425 41.9375 0.0625 41.9375 C-0.2675 42.9275 -0.5975 43.9175 -0.9375 44.9375 C-7.27845145 47.05115048 -14.76937292 47.17335135 -21.01171875 44.73828125 C-25.19480878 42.31392104 -28.0670207 40.51420468 -29.9375 35.9375 C-30.5975 35.9375 -31.2575 35.9375 -31.9375 35.9375 C-35.42768498 28.52085692 -36.2693214 20.79131966 -34.43359375 12.72265625 C-32.8484591 8.58319035 -30.18260397 5.85809357 -26.9375 2.9375 C-26.2259375 2.1021875 -26.2259375 2.1021875 -25.5 1.25 C-19.03874612 -4.17745326 -7.13049075 -3.67401558 0 0 Z " fill="#A73B95" transform="translate(323.9375,571.0625)"/>
<path d="M0 0 C2.84680035 1.71370245 4.91492617 3.91413989 7.125 6.375 C7.72683105 7.01187744 8.32866211 7.64875488 8.94873047 8.30493164 C13.48913584 13.19795999 17.50370589 18.30691933 21 24 C21.40605469 24.5878125 21.81210937 25.175625 22.23046875 25.78125 C27.55409664 33.93005225 27.22218857 43.74346965 27.375 53.125 C27.40110352 54.05513916 27.42720703 54.98527832 27.45410156 55.94360352 C27.47033747 62.47913514 26.11728263 67.26172733 23 73 C22.34 73 21.68 73 21 73 C20.71125 73.94875 20.4225 74.8975 20.125 75.875 C19 79 19 79 17 81 C11.89949817 81.20402007 9.36988599 79.89486281 5.5625 76.5 C2.77436797 73.49075885 1.46610115 71.50959046 1.375 67.375 C1.56296379 64.71382845 2.12385012 62.64845619 3.015625 60.1171875 C5.4837331 52.30151185 4.79072969 43.81487084 1.39453125 36.3984375 C-1.75057489 30.98920732 -5.90966453 26.33046817 -10.07421875 21.6875 C-13.20143707 18.03379259 -15.45955446 15.22090545 -15.8125 10.3125 C-15.51306652 7.03024834 -14.67681898 4.96755586 -12.5625 2.4375 C-8.62129555 -0.7343371 -4.88782249 -1.00753917 0 0 Z " fill="#A83D95" transform="translate(327,498)"/>
<path d="M0 0 C1.24523437 0.02707031 2.49046875 0.05414063 3.7734375 0.08203125 C4.71445313 0.11683594 5.65546875 0.15164063 6.625 0.1875 C6.625 0.8475 6.625 1.5075 6.625 2.1875 C7.470625 2.22875 8.31625 2.27 9.1875 2.3125 C13.83191401 3.49471448 16.49758512 5.6020294 19.625 9.1875 C23.61210492 16.26139582 23.68257854 24.23860326 22.625 32.1875 C19.77521647 39.06497758 14.89537573 43.35608959 8.5 46.9375 C2.9308883 49.11671762 -3.13249075 49.26833642 -8.80078125 47.37890625 C-15.21307129 44.17829861 -21.14571792 38.64606417 -24.375 32.1875 C-24.47313199 29.69667924 -24.51405548 27.24016211 -24.5 24.75 C-24.50386719 24.06873047 -24.50773437 23.38746094 -24.51171875 22.68554688 C-24.5056374 19.58101954 -24.36390312 17.15420935 -23.375 14.1875 C-22.715 13.8575 -22.055 13.5275 -21.375 13.1875 C-20.7253125 11.7953125 -20.7253125 11.7953125 -20.0625 10.375 C-15.93464281 2.57793642 -8.46921718 -0.23969483 0 0 Z " fill="#FDFD06" transform="translate(142.375,485.8125)"/>
<path d="M0 0 C5.70197362 4.34436085 10.29153043 11.6444523 11.44921875 18.76171875 C11.61551893 27.31978205 8.41900178 32.60182215 3 39 C-3.09182414 44.64608091 -8.65092287 45.52168198 -16.7734375 45.375 C-23.19577886 44.62857776 -27.04096196 41.24034476 -31.3125 36.625 C-36.53170315 30.01211317 -37.44532112 24.19720726 -37 16 C-36.34 16 -35.68 16 -35 16 C-35.08378906 15.11699219 -35.16757813 14.23398437 -35.25390625 13.32421875 C-34.79741377 7.34767879 -30.25216253 3.88240927 -26 0 C-18.278059 -4.86196285 -7.90368682 -4.44129191 0 0 Z " fill="#2FADE2" transform="translate(282,445)"/>
<path d="M0 0 C1.36125 0.495 1.36125 0.495 2.75 1 C5 2 5 2 7 5 C6.625 8.6875 6.625 8.6875 6 12 C4.515 12.495 4.515 12.495 3 13 C2.5359375 14.2065625 2.5359375 14.2065625 2.0625 15.4375 C1 18 1 18 -0.6875 19.3125 C-5.52865719 20.75176295 -9.55378211 20.27122188 -14.1875 18.5 C-21.34250273 15.96897863 -28.84605599 15.65680296 -35.875 18.75 C-41.81748347 22.0878235 -46.83823507 26.73654103 -51.8984375 31.2578125 C-58.20265992 36.86460263 -58.20265992 36.86460263 -62.3125 37.5625 C-67.19754548 36.81732357 -69.71503701 34.58190879 -73 31 C-74.79206164 27.41587672 -74.0818592 23.76163687 -73 20 C-71.07751174 17.1646321 -68.63737992 15.16209237 -66 13 C-65.16726562 12.278125 -64.33453125 11.55625 -63.4765625 10.8125 C-44.82747202 -5.00449364 -22.93241843 -12.55822914 0 0 Z " fill="#2EADE2" transform="translate(248,430)"/>
<path d="M0 0 C5.31051932 0.32184966 8.48031237 3.29888517 12 7 C14.80630043 11.39247023 14.53790016 16.93741027 14 22 C13.67257813 22.80824219 13.34515625 23.61648438 13.0078125 24.44921875 C10.96185867 29.62754377 11.20316363 35.72749642 12.51171875 41.1015625 C15.3965211 47.71549959 21.00378171 53.13807636 25.7109375 58.50927734 C32.95812097 66.89020581 32.95812097 66.89020581 33.125 71.3125 C31.75771597 75.7941532 30.14932219 77.33597782 26.32421875 79.890625 C22.49594895 81.7179 19.11199874 82.06723632 15 81 C11.90367351 78.56246638 10.17699513 76.26549269 8 73 C8 72.01 8 71.02 8 70 C7.41992188 69.75894531 6.83984375 69.51789063 6.2421875 69.26953125 C-2.63255717 64.24463226 -7.50096294 52.32949283 -10.640625 43.12109375 C-12.39746179 32.75193751 -11.59280453 22.4661984 -7 13 C-6.56816406 12.08089844 -6.13632813 11.16179688 -5.69140625 10.21484375 C-3.96244069 6.64917293 -2.20010076 3.30015115 0 0 Z " fill="#FDFD08" transform="translate(111,523)"/>
<path d="M0 0 C0 0.66 0 1.32 0 2 C0.7425 2.20625 1.485 2.4125 2.25 2.625 C5.83368332 4.41684166 7.03492182 6.56111318 9 10 C11.01147985 16.03443954 11.1952803 24.0653576 8.6875 30 C8.130625 30.99 7.57375 31.98 7 33 C6.2884375 34.3303125 6.2884375 34.3303125 5.5625 35.6875 C2.76908855 39.82174895 0.33309471 42.45848318 -4.6640625 43.69140625 C-10.8916709 44.51411706 -18.00458992 44.99847003 -24 43 C-24.33 42.34 -24.66 41.68 -25 41 C-25.7425 40.608125 -26.485 40.21625 -27.25 39.8125 C-31.63490569 36.92244853 -34.34610445 32.96168664 -36 28 C-36.97849462 11.96774194 -36.97849462 11.96774194 -33 6 C-23.39253664 -4.28613626 -12.71483955 -5.15964504 0 0 Z " fill="#8EC655" transform="translate(199,616)"/>
<path d="M0 0 C3.17643345 3.06066367 5.59556697 5.78670092 7 10 C7 14.95 7 19.9 7 25 C-3.56 25 -14.12 25 -25 25 C-24.01 26.98 -23.02 28.96 -22 31 C-21.731875 31.76699219 -21.46375 32.53398437 -21.1875 33.32421875 C-20.06655535 35.29599223 -20.06655535 35.29599223 -17.3125 35.64453125 C-10.4255226 35.99375298 -3.83244612 36.00250338 3 35 C3.495 38.96 3.495 38.96 4 43 C-0.31245673 45.87497116 -4.11531737 45.32988239 -9.1875 45.3125 C-10.10853516 45.32861328 -11.02957031 45.34472656 -11.97851562 45.36132812 C-18.92077962 45.36625521 -25.00416852 44.83653341 -30.27734375 39.84375 C-30.82519531 39.0703125 -31.37304688 38.296875 -31.9375 37.5 C-32.50339844 36.7265625 -33.06929687 35.953125 -33.65234375 35.15625 C-36.3464203 30.84572752 -36.21635717 26.67026358 -36.25 21.75 C-36.270625 21.01136719 -36.29125 20.27273438 -36.3125 19.51171875 C-36.35880594 12.94785168 -35.02278458 8.28211593 -30.5625 3.25 C-22.17693351 -4.11293643 -9.929926 -6.28219808 0 0 Z " fill="#6F6F6F" transform="translate(891,468)"/>
<path d="M0 0 C0.66 0.33 1.32 0.66 2 1 C4.58213506 6.68140339 5.42527288 11.24867855 5.29296875 17.4375 C5.28872391 18.20304199 5.28447906 18.96858398 5.28010559 19.75732422 C5.26348328 22.17192687 5.22586506 24.58565511 5.1875 27 C5.17243178 28.64972742 5.15874714 30.29946809 5.14648438 31.94921875 C5.11363417 35.9664762 5.06196973 39.98309052 5 44 C-1.40458485 44.72121814 -7.74203908 45.20527868 -14.1875 45.25 C-14.94224609 45.270625 -15.69699219 45.29125 -16.47460938 45.3125 C-22.75188969 45.355979 -27.45342477 44.1444844 -32.375 40 C-35.31727249 36.37874155 -35.34609941 32.75722356 -35.2734375 28.28125 C-34.83567161 24.62903171 -33.44508644 22.69586454 -31 20 C-25.50235074 16.17524654 -21.67445439 15.45537992 -15.0625 15.75 C-14.28326172 15.76804687 -13.50402344 15.78609375 -12.70117188 15.8046875 C-10.80023869 15.85133617 -8.89994831 15.92306171 -7 16 C-8.485 11.05 -8.485 11.05 -10 6 C-19.405 6.495 -19.405 6.495 -29 7 C-29 4.36 -29 1.72 -29 -1 C-19.63479545 -4.0292092 -8.77546005 -5.10201166 0 0 Z " fill="#707070" transform="translate(604,468)"/>
<path d="M0 0 C0.67740234 -0.020625 1.35480469 -0.04125 2.05273438 -0.0625 C7.21811625 -0.10211942 10.56847448 0.90529103 15.0625 3.25 C19.93604602 8.38004844 20.2056507 12.61337565 20.16015625 19.41796875 C20.1587413 20.21278152 20.15732635 21.0075943 20.15586853 21.82649231 C20.15027378 24.36353325 20.13772228 26.90048575 20.125 29.4375 C20.11998432 31.15820185 20.11542153 32.87890508 20.11132812 34.59960938 C20.10030607 38.8164403 20.08304506 43.03320516 20.0625 47.25 C14.18679922 48.02197859 8.48871015 48.4619505 2.5625 48.5 C1.75941406 48.520625 0.95632813 48.54125 0.12890625 48.5625 C-6.58253194 48.60601013 -12.44570627 47.67949888 -17.4375 42.8125 C-19.64249158 37.575645 -20.07227756 32.83430008 -18.9375 27.25 C-16.36070132 23.22032547 -13.4669675 20.7598225 -8.9375 19.25 C-7.52925107 19.16978001 -6.11752769 19.14234023 -4.70703125 19.15234375 C-3.50336914 19.15717773 -3.50336914 19.15717773 -2.27539062 19.16210938 C-1.44201172 19.17048828 -0.60863281 19.17886719 0.25 19.1875 C1.09498047 19.19201172 1.93996094 19.19652344 2.81054688 19.20117188 C4.89456155 19.21294597 6.97853977 19.2308811 9.0625 19.25 C8.46388258 16.89828869 7.79325648 14.5640622 7.0625 12.25 C4.71397472 11.07573736 3.32475935 11.13491827 0.7109375 11.15234375 C-0.56523438 11.15717773 -0.56523438 11.15717773 -1.8671875 11.16210938 C-2.75664063 11.17048828 -3.64609375 11.17886719 -4.5625 11.1875 C-5.90828125 11.19426758 -5.90828125 11.19426758 -7.28125 11.20117188 C-9.50002831 11.21297389 -11.71877243 11.23090961 -13.9375 11.25 C-13.9375 7.95 -13.9375 4.65 -13.9375 1.25 C-9.28042058 0.34909852 -4.73194543 0.03581416 0 0 Z " fill="#6F6F6F" transform="translate(714.9375,464.75)"/>
<path d="M0 0 C0.77327637 -0.01313232 1.54655273 -0.02626465 2.34326172 -0.03979492 C6.56543195 -0.04577012 9.76947576 0.24437723 13.625 2.1875 C13.01674965 6.53214536 12.36332608 10.86301867 11.625 15.1875 C10.635 15.0225 9.645 14.8575 8.625 14.6875 C1.65776567 13.99077657 -5.37301615 14.1875 -12.375 14.1875 C-12.375 31.6775 -12.375 49.1675 -12.375 67.1875 C-17.655 67.1875 -22.935 67.1875 -28.375 67.1875 C-28.375 46.3975 -28.375 25.6075 -28.375 4.1875 C-18.60376942 0.52328853 -10.28732132 0.11080566 0 0 Z " fill="#A73B94" transform="translate(868.375,571.8125)"/>
<path d="M0 0 C4.44268911 4.19587305 5.92162058 7.53163826 6.11352539 13.57519531 C6.11336802 14.9928484 6.10777532 16.41050802 6.09765625 17.828125 C6.0962413 18.57713074 6.09482635 19.32613647 6.09336853 20.09783936 C6.08778659 22.48193412 6.07523745 24.86593378 6.0625 27.25 C6.05748266 28.86979031 6.05292016 30.48958209 6.04882812 32.109375 C6.03782308 36.07295312 6.02057091 40.03646045 6 44 C2.04 44 -1.92 44 -6 44 C-6.01981934 43.15816162 -6.03963867 42.31632324 -6.06005859 41.44897461 C-6.13859795 38.29720324 -6.22530495 35.14578745 -6.31738281 31.99438477 C-6.35544079 30.63574737 -6.39033221 29.27701715 -6.421875 27.91821289 C-6.46803214 25.95437081 -6.52688497 23.99084037 -6.5859375 22.02734375 C-6.63306885 20.25991821 -6.63306885 20.25991821 -6.68115234 18.45678711 C-7.14389816 12.26309595 -7.14389816 12.26309595 -10 7 C-12.18292774 6.76518307 -14.37203174 6.58636677 -16.5625 6.4375 C-17.76003906 6.35371094 -18.95757812 6.26992188 -20.19140625 6.18359375 C-21.11824219 6.12300781 -22.04507812 6.06242187 -23 6 C-22.99476318 7.11560303 -22.98952637 8.23120605 -22.98413086 9.38061523 C-22.96608225 13.50479333 -22.95456851 17.62896791 -22.94506836 21.75317383 C-22.94002782 23.54094021 -22.93319546 25.32870245 -22.92456055 27.11645508 C-22.9124827 29.68051168 -22.90676906 32.24451397 -22.90234375 34.80859375 C-22.89718246 35.6127623 -22.89202118 36.41693085 -22.88670349 37.24546814 C-22.88650785 39.16401715 -22.93798017 41.08245368 -23 43 C-24 44 -24 44 -26.50390625 44.09765625 C-27.51324219 44.08605469 -28.52257812 44.07445312 -29.5625 44.0625 C-30.57441406 44.05347656 -31.58632813 44.04445313 -32.62890625 44.03515625 C-33.41136719 44.02355469 -34.19382812 44.01195312 -35 44 C-35.07589394 37.62800706 -35.1285335 31.25613009 -35.16479492 24.88378906 C-35.179907 22.71479944 -35.20039735 20.5458405 -35.22631836 18.37695312 C-35.26259534 15.26424604 -35.2797019 12.15194195 -35.29296875 9.0390625 C-35.30845261 8.065065 -35.32393646 7.0910675 -35.33988953 6.08755493 C-35.34011612 5.18677216 -35.34034271 4.28598938 -35.34057617 3.35791016 C-35.34723801 2.56293121 -35.35389984 1.76795227 -35.36076355 0.94888306 C-35.24171158 0.30575165 -35.12265961 -0.33737976 -35 -1 C-26.74597587 -6.50268275 -7.79768825 -6.41930902 0 0 Z " fill="#747474" transform="translate(528,469)"/>
<path d="M0 0 C3.96 0 7.92 0 12 0 C12.01458252 0.9787207 12.02916504 1.95744141 12.04418945 2.96582031 C12.10225106 6.60404626 12.1794826 10.24165836 12.26245117 13.87939453 C12.29566372 15.45253522 12.32370717 17.02579401 12.34643555 18.59912109 C12.38005028 20.86346672 12.43236624 23.12673365 12.48828125 25.390625 C12.49467117 26.09181458 12.5010611 26.79300415 12.50764465 27.51544189 C12.6442381 32.07254122 13.10125648 33.13500864 16 37 C20.29 37.33 24.58 37.66 29 38 C29 25.46 29 12.92 29 0 C32.96 0 36.92 0 41 0 C41 14.85 41 29.7 41 45 C34.19298478 46.70175381 29.1882376 47.33669474 22.375 47.3125 C21.00214844 47.33666992 21.00214844 47.33666992 19.6015625 47.36132812 C13.14504014 47.36599324 8.94639956 46.2916441 3.75 42.25 C-0.14330166 37.24432644 -0.28738793 31.21402495 -0.1953125 25.09765625 C-0.1924826 24.3750914 -0.18965271 23.65252655 -0.18673706 22.9080658 C-0.17564386 20.62603384 -0.15056088 18.34441103 -0.125 16.0625 C-0.11495611 14.50456301 -0.10583274 12.94661979 -0.09765625 11.38867188 C-0.07574033 7.59229301 -0.04128738 3.7962156 0 0 Z " fill="#727272" transform="translate(438,466)"/>
<path d="M0 0 C0.74411133 -0.00644531 1.48822266 -0.01289063 2.25488281 -0.01953125 C3.01897461 -0.00535156 3.78306641 0.00882812 4.5703125 0.0234375 C5.3653418 0.03503906 6.16037109 0.04664063 6.97949219 0.05859375 C13.4835878 0.24007857 19.04574005 0.59946901 24.36083984 4.67578125 C30.97351553 11.7794455 29.34128783 21.36422216 29.0703125 30.3984375 C29.0401803 32.14448536 29.01281022 33.89058319 28.98828125 35.63671875 C28.9225294 39.89186926 28.81919222 44.14459859 28.6953125 48.3984375 C25.0653125 48.3984375 21.4353125 48.3984375 17.6953125 48.3984375 C17.6953125 37.1784375 17.6953125 25.9584375 17.6953125 14.3984375 C17.0353125 14.3984375 16.3753125 14.3984375 15.6953125 14.3984375 C14.0703125 13.0234375 14.0703125 13.0234375 12.6953125 11.3984375 C12.6953125 10.7384375 12.6953125 10.0784375 12.6953125 9.3984375 C6.2603125 9.8934375 6.2603125 9.8934375 -0.3046875 10.3984375 C-0.6346875 22.6084375 -0.9646875 34.8184375 -1.3046875 47.3984375 C-4.6046875 47.3984375 -7.9046875 47.3984375 -11.3046875 47.3984375 C-11.3046875 32.8784375 -11.3046875 18.3584375 -11.3046875 3.3984375 C-3.41585351 0.01750865 -3.41585351 0.01750865 0 0 Z " fill="#6D6D6D" transform="translate(760.3046875,464.6015625)"/>
<path d="M0 0 C1.6874269 0.00015917 3.37485866 0.00585622 5.06225586 0.01586914 C6.39189613 0.01799156 6.39189613 0.01799156 7.74839783 0.02015686 C10.59133215 0.02577324 13.43418892 0.03832848 16.27709961 0.05102539 C18.19962452 0.05603828 20.12215065 0.06060155 22.04467773 0.06469727 C26.7680151 0.07574798 31.49129419 0.09302356 36.21459961 0.11352539 C35.14058853 3.02869831 34.43649785 4.89162715 32.21459961 7.11352539 C29.52620576 7.38344445 26.92318025 7.20089896 24.21459961 7.11352539 C24.70959961 9.09352539 24.70959961 9.09352539 25.21459961 11.11352539 C30.65959961 11.60852539 30.65959961 11.60852539 36.21459961 12.11352539 C35.15209961 15.05102539 35.15209961 15.05102539 33.21459961 18.11352539 C32.10084961 18.23727539 30.98709961 18.36102539 29.83959961 18.48852539 C26.23710385 18.69951758 26.23710385 18.69951758 24.82397461 20.83227539 C23.99815607 22.27484448 23.18178187 23.72285959 22.37475586 25.17602539 C20.70423258 27.96585551 19.23045529 28.90718312 16.21459961 30.11352539 C12.90045565 30.91401862 9.57801451 31.55839866 6.21459961 32.11352539 C11.36731445 38.52092021 16.61034299 44.76681235 22.17163086 50.82446289 C28.21459961 57.59536095 28.21459961 57.59536095 28.21459961 60.11352539 C26.27900648 60.24856677 24.34072761 60.34553668 22.40209961 60.42602539 C20.78368164 60.51303711 20.78368164 60.51303711 19.13256836 60.60180664 C16.21459961 60.11352539 16.21459961 60.11352539 14.68725586 57.98852539 C14.2012793 57.03977539 13.71530273 56.09102539 13.21459961 55.11352539 C11.40274242 52.91216007 9.42748866 50.86778551 7.46459961 48.80102539 C6.39136668 47.64767377 5.31844897 46.49402875 4.24584961 45.34008789 C2.47044994 43.44213264 0.68140458 41.56433451 -1.12915039 39.69946289 C-1.75821289 39.03172852 -2.38727539 38.36399414 -3.03540039 37.67602539 C-3.84750977 36.84264648 -3.84750977 36.84264648 -4.67602539 35.99243164 C-5.78540039 34.11352539 -5.78540039 34.11352539 -5.78540039 28.11352539 C-1.16540039 27.78352539 3.45459961 27.45352539 8.21459961 27.11352539 C8.21459961 26.45352539 8.21459961 25.79352539 8.21459961 25.11352539 C10.52459961 24.45352539 12.83459961 23.79352539 15.21459961 23.11352539 C15.21459961 21.46352539 15.21459961 19.81352539 15.21459961 18.11352539 C7.62459961 18.11352539 0.03459961 18.11352539 -7.78540039 18.11352539 C-6.78540039 16.11352539 -5.78540039 14.11352539 -4.78540039 12.11352539 C1.48459961 12.11352539 7.75459961 12.11352539 14.21459961 12.11352539 C14.21459961 11.12352539 14.21459961 10.13352539 14.21459961 9.11352539 C7.21768231 7.36429607 0.407308 6.57600072 -6.78540039 6.11352539 C-4.48578686 0.13453021 -4.48578686 0.13453021 0 0 Z " fill="#F8F3F3" transform="translate(762.785400390625,573.886474609375)"/>
<path d="M0 0 C1.94326172 -0.02126953 1.94326172 -0.02126953 3.92578125 -0.04296875 C7.5537588 0.17930609 10.3207728 0.86690778 13.6875 2.1875 C13.3575 4.8275 13.0275 7.4675 12.6875 10.1875 C11.55570313 10.17589844 10.42390625 10.16429687 9.2578125 10.15234375 C7.77604331 10.14296546 6.29427235 10.1338653 4.8125 10.125 C4.06613281 10.11662109 3.31976562 10.10824219 2.55078125 10.09960938 C-1.51095578 9.98061916 -1.51095578 9.98061916 -5.3125 11.1875 C-5.3125 12.8375 -5.3125 14.4875 -5.3125 16.1875 C-4.55066406 16.47882813 -3.78882813 16.77015625 -3.00390625 17.0703125 C3.64270943 19.70904382 10.23324148 22.44579307 15.6875 27.1875 C16.59994649 29.92483948 17.00814818 32.01882219 17.1875 34.875 C17.29578125 36.08736328 17.29578125 36.08736328 17.40625 37.32421875 C16.20954934 42.09150996 13.66024554 45.31824738 9.6875 48.1875 C5.75914092 49.18261195 2.08769132 49.04236499 -1.9375 48.8125 C-3.47277344 48.78349609 -3.47277344 48.78349609 -5.0390625 48.75390625 C-9.96082622 48.60650968 -13.7759936 48.21540511 -18.3125 46.1875 C-17.9825 43.5475 -17.6525 40.9075 -17.3125 38.1875 C-16.44625 38.3525 -15.58 38.5175 -14.6875 38.6875 C-8.63297842 39.56315395 -2.41159369 39.46547478 3.6875 39.1875 C5.04368499 38.06215895 5.04368499 38.06215895 4.75 35.125 C4.729375 34.155625 4.70875 33.18625 4.6875 32.1875 C3.85347656 31.919375 3.01945313 31.65125 2.16015625 31.375 C-5.42725128 28.73287871 -12.50953262 25.9333763 -17.3125 19.1875 C-18.43562874 14.92956256 -17.63193581 11.43862359 -16.5625 7.25 C-15.08937576 4.81934501 -13.88880177 4.26788461 -11.3125 3.1875 C-10.9825 2.5275 -10.6525 1.8675 -10.3125 1.1875 C-6.73036361 -0.00654546 -3.77628742 0.018676 0 0 Z " fill="#6E6E6E" transform="translate(952.3125,464.8125)"/>
<path d="M0 0 C1.97610386 2.04424538 3 3.1176825 3 6 C3.99 6.33 4.98 6.66 6 7 C7.73519218 9.05094501 9.34822153 11.09160398 10.9375 13.25 C11.80036722 14.40135207 12.66364316 15.55239796 13.52734375 16.703125 C13.93968262 17.26322266 14.35202148 17.82332031 14.77685547 18.40039062 C15.90818449 19.8799251 17.14038914 21.28083115 18.37890625 22.671875 C20 25 20 25 20.046875 27.14453125 C18.5777805 29.7483368 16.93802109 30.42699307 14.25 31.6875 C13.38890625 32.10386719 12.5278125 32.52023437 11.640625 32.94921875 C1.28515372 37.06996102 -9.61176376 34.95276818 -20 32 C-20.66 31.67 -21.32 31.34 -22 31 C-22 30.34 -22 29.68 -22 29 C-22.74765625 28.75894531 -23.4953125 28.51789062 -24.265625 28.26953125 C-27.38490631 26.8212935 -28.6836088 25.40763886 -30.75 22.6875 C-31.34296875 21.92824219 -31.9359375 21.16898438 -32.546875 20.38671875 C-34.07668706 17.87404356 -34.61044366 15.89604387 -35 13 C-33.65452394 12.17318818 -32.2980377 11.36428599 -30.9375 10.5625 C-30.18339844 10.11003906 -29.42929687 9.65757812 -28.65234375 9.19140625 C-25.25383124 7.66482847 -22.74461618 7 -19 7 C-16.72039106 8.8005153 -15.26840545 10.22089468 -13.5 12.4375 C-13.03295654 12.98720459 -12.56591309 13.53690918 -12.0847168 14.10327148 C-11.14728394 15.20838576 -10.21830323 16.32073093 -9.29833984 17.44042969 C-7.54288622 19.54908665 -5.67334473 21.54689942 -3.8125 23.5625 C-1 26.62529274 -1 26.62529274 -1 30 C2.96 30 6.92 30 11 30 C5.63826136 23.16641154 0.08452952 16.57533451 -5.6940918 10.09155273 C-6.50873901 9.16644897 -6.50873901 9.16644897 -7.33984375 8.22265625 C-7.82831787 7.67359619 -8.31679199 7.12453613 -8.82006836 6.55883789 C-10 5 -10 5 -11 2 C-3.91764706 -0.63529412 -3.91764706 -0.63529412 0 0 Z " fill="#0807F6" transform="translate(780,604)"/>
<path d="M0 0 C3.96 0 7.92 0 12 0 C12.07432823 6.99257092 12.12868714 13.98491026 12.16479492 20.9777832 C12.17985252 23.35510262 12.20030289 25.73239439 12.22631836 28.10961914 C12.26283403 31.53278439 12.27975709 34.95558132 12.29296875 38.37890625 C12.30845261 39.43646622 12.32393646 40.49402618 12.33988953 41.58363342 C12.34158499 49.06985199 11.51076275 53.96065561 6.625 59.875 C1.56006014 63.97518941 -4.71335001 63.37831168 -11 63 C-11.66 62.67 -12.32 62.34 -13 62 C-12.67 59.36 -12.34 56.72 -12 54 C-9.03 54 -6.06 54 -3 54 C-3 53.34 -3 52.68 -3 52 C-2.34 52 -1.68 52 -1 52 C-0.67 34.84 -0.34 17.68 0 0 Z " fill="#727272" transform="translate(547,466)"/>
<path d="M0 0 C3.63 0 7.26 0 11 0 C11 19.14 11 38.28 11 58 C13.64 58.66 16.28 59.32 19 60 C18.67 62.97 18.34 65.94 18 69 C7.08510638 68.80851064 7.08510638 68.80851064 2.8125 65.625 C0.08975672 61.68171662 -0.12333686 58.83168336 -0.11352539 54.15161133 C-0.11344986 52.9505928 -0.11337433 51.74957428 -0.11329651 50.51216125 C-0.10813522 49.21521835 -0.10297394 47.91827545 -0.09765625 46.58203125 C-0.09579077 45.24110466 -0.09436748 43.90017739 -0.09336853 42.55924988 C-0.08955356 39.03290927 -0.07973199 35.50660996 -0.06866455 31.98028564 C-0.0584285 28.38074299 -0.05386621 24.78119365 -0.04882812 21.18164062 C-0.0381088 14.12107526 -0.02052025 7.06054467 0 0 Z " fill="#6E6E6E" transform="translate(910,444)"/>
<path d="M0 0 C1.13598633 0.00483398 1.13598633 0.00483398 2.29492188 0.00976562 C3.47344727 0.02233398 3.47344727 0.02233398 4.67578125 0.03515625 C5.47306641 0.03966797 6.27035156 0.04417969 7.09179688 0.04882812 C9.05732382 0.06059775 11.0228121 0.07853277 12.98828125 0.09765625 C12.98828125 0.75765625 12.98828125 1.41765625 12.98828125 2.09765625 C14.84453125 2.53078125 14.84453125 2.53078125 16.73828125 2.97265625 C22.79031702 4.515122 22.79031702 4.515122 24.98828125 6.09765625 C25.48328125 8.07765625 25.48328125 8.07765625 25.98828125 10.09765625 C12.45828125 10.42765625 -1.07171875 10.75765625 -15.01171875 11.09765625 C-15.67171875 12.41765625 -16.33171875 13.73765625 -17.01171875 15.09765625 C-15.47451172 15.27941406 -15.47451172 15.27941406 -13.90625 15.46484375 C-12.54552896 15.63376084 -11.18485425 15.80305145 -9.82421875 15.97265625 C-8.81391602 16.09060547 -8.81391602 16.09060547 -7.78320312 16.2109375 C-3.90844391 16.70237038 -0.56087152 17.45746526 2.98828125 19.09765625 C2.98828125 20.08765625 2.98828125 21.07765625 2.98828125 22.09765625 C-3.28171875 22.09765625 -9.55171875 22.09765625 -16.01171875 22.09765625 C-16.67171875 23.41765625 -17.33171875 24.73765625 -18.01171875 26.09765625 C-21.01171875 27.09765625 -21.01171875 27.09765625 -23.0546875 26.1015625 C-23.76238281 25.62589844 -24.47007812 25.15023437 -25.19921875 24.66015625 C-25.91464844 24.18707031 -26.63007812 23.71398437 -27.3671875 23.2265625 C-27.90988281 22.85402344 -28.45257812 22.48148438 -29.01171875 22.09765625 C-27.9216278 14.77847414 -23.71889779 10.58607099 -18.01171875 6.09765625 C-12.46470555 2.98069277 -6.45765586 -0.0485538 0 0 Z " fill="#FD8819" transform="translate(774.01171875,563.90234375)"/>
<path d="M0 0 C2 0 2 0 4.1875 1.875 C11.70554992 9.72867714 16.00640818 17.44654443 16.625 28.375 C16.69976563 29.62023437 16.77453125 30.86546875 16.8515625 32.1484375 C16.90054688 33.08945312 16.94953125 34.03046875 17 35 C16.505 33.02 16.505 33.02 16 31 C4.78 31.33 -6.44 31.66 -18 32 C-17.67 31.34 -17.34 30.68 -17 30 C-16.34 30 -15.68 30 -15 30 C-14.731875 29.2575 -14.46375 28.515 -14.1875 27.75 C-12.12844037 22.98165138 -12.12844037 22.98165138 -10 21 C-6.3125 20.75 -6.3125 20.75 -3 21 C-2.34 19.35 -1.68 17.7 -1 16 C-4.3 15.67 -7.6 15.34 -11 15 C-11.33 13.35 -11.66 11.7 -12 10 C-10.7625 9.95875 -9.525 9.9175 -8.25 9.875 C-4.51928617 9.42519762 -4.14587655 9.16775803 -1.5 6.125 C0.21636553 3.1269645 0.21636553 3.1269645 0 0 Z " fill="#980FD1" transform="translate(799,571)"/>
<path d="M0 0 C1.9136632 -0.06103828 3.82789151 -0.10452243 5.7421875 -0.140625 C6.80808105 -0.16672852 7.87397461 -0.19283203 8.97216797 -0.21972656 C13.70282165 0.12357196 15.60636833 1.75391753 19 5 C21.92281781 9.66070948 21.62930057 14.68021496 21 20 C19.93458714 22.95999485 18.63757361 25.28776871 17 28 C16.34 28 15.68 28 15 28 C15 28.66 15 29.32 15 30 C12.87527424 30.05386629 10.75016348 30.09273071 8.625 30.125 C7.44164062 30.14820313 6.25828125 30.17140625 5.0390625 30.1953125 C2 30 2 30 0 28 C-0.22705078 25.20263672 -0.22705078 25.20263672 -0.1953125 21.6796875 C-0.18886719 20.42285156 -0.18242187 19.16601562 -0.17578125 17.87109375 C-0.15902344 16.55238281 -0.14226562 15.23367188 -0.125 13.875 C-0.11496983 12.53516279 -0.10584404 11.19531848 -0.09765625 9.85546875 C-0.07402075 6.57013427 -0.04107234 3.28515535 0 0 Z " fill="#F5F5F5" transform="translate(395,474)"/>
<path d="M0 0 C2.125 1.6875 2.125 1.6875 4.125 4.6875 C4.39970888 7.36518864 4.54078043 9.88375281 4.5625 12.5625 C4.61180664 13.62404297 4.61180664 13.62404297 4.66210938 14.70703125 C4.70363519 18.76146117 4.28057022 20.49272103 1.72265625 23.6953125 C-0.875 25.6875 -0.875 25.6875 -2.875 25.6875 C-2.875 26.3475 -2.875 27.0075 -2.875 27.6875 C-7.495 27.6875 -12.115 27.6875 -16.875 27.6875 C-16.875 18.4475 -16.875 9.2075 -16.875 -0.3125 C-5.01453488 -2.28924419 -5.01453488 -2.28924419 0 0 Z " fill="#F6F6F6" transform="translate(649.875,476.3125)"/>
<path d="M0 0 C3.42949055 2.01698455 6.20893285 4.4178657 8 8 C8.60644601 13.38004242 9.0316689 17.595784 5.75 22.0625 C0.53020748 25.74008109 -3.60677052 27.09693192 -10 26 C-13.13202088 24.33797623 -15.2335182 22.01036237 -17.375 19.1875 C-18.84642784 14.03750258 -18.70719826 10.33862529 -16.25 5.6875 C-11.48214635 -0.0074363 -7.33174279 -1.42811554 0 0 Z " fill="#F6F6F6" transform="translate(1009,428)"/>
<path d="M0 0 C1.75183594 0.02320313 1.75183594 0.02320313 3.5390625 0.046875 C6.375 0.25 6.375 0.25 7.375 1.25 C7.46226223 3.03071246 7.48199041 4.8148314 7.47265625 6.59765625 C7.46943359 7.67724609 7.46621094 8.75683594 7.46289062 9.86914062 C7.45451172 11.00544922 7.44613281 12.14175781 7.4375 13.3125 C7.43298828 14.45267578 7.42847656 15.59285156 7.42382812 16.76757812 C7.41199747 19.59510351 7.3955141 22.4225264 7.375 25.25 C2.78898397 27.14777578 -0.6859686 27.89987255 -5.625 27.25 C-9.48543863 25.57154842 -11.06550938 24.10407153 -12.625 20.25 C-13.53299303 13.21010599 -12.58417594 7.41225074 -8.43359375 1.57421875 C-5.68807952 -0.43599577 -3.34721285 -0.07421758 0 0 Z " fill="#F6F6F6" transform="translate(824.625,473.75)"/>
<path d="M0 0 C2.2890625 2.14453125 2.2890625 2.14453125 4.625 4.8125 C5.40101563 5.68519531 6.17703125 6.55789063 6.9765625 7.45703125 C8.68902838 9.60918431 9.91287813 11.49260602 11 14 C10.34 14 9.68 14 9 14 C9.020625 15.051875 9.04125 16.10375 9.0625 17.1875 C9.01072932 20.3455115 8.67024271 22.94432655 8 26 C6.3743193 25.69106068 4.74947252 25.3777305 3.125 25.0625 C1.76761719 24.80146484 1.76761719 24.80146484 0.3828125 24.53515625 C-2 24 -2 24 -4 23 C-4 22.34 -4 21.68 -4 21 C-4.74765625 20.75894531 -5.4953125 20.51789062 -6.265625 20.26953125 C-9.38490631 18.8212935 -10.6836088 17.40763886 -12.75 14.6875 C-13.34296875 13.92824219 -13.9359375 13.16898438 -14.546875 12.38671875 C-16.07668706 9.87404356 -16.61044366 7.89604387 -17 5 C-15.58671871 4.18162558 -14.16921654 3.37053781 -12.75 2.5625 C-11.56664062 1.88380859 -11.56664062 1.88380859 -10.359375 1.19140625 C-6.67734784 -0.66789554 -3.92593952 -1.66213148 0 0 Z " fill="#0D850A" transform="translate(762,612)"/>
<path d="M0 0 C3.93214761 2.56228391 3.93214761 2.56228391 5.5390625 4.97265625 C5.8690625 7.94265625 6.1990625 10.91265625 6.5390625 13.97265625 C-3.0309375 13.97265625 -12.6009375 13.97265625 -22.4609375 13.97265625 C-22.4609375 7.17747553 -22.4609375 7.17747553 -20.2109375 4.22265625 C-19.79328125 3.6503125 -19.375625 3.07796875 -18.9453125 2.48828125 C-14.06156504 -2.49828194 -6.17494368 -2.57779395 0 0 Z " fill="#F7EEF6" transform="translate(513.4609375,586.02734375)"/>
<path d="M0 0 C6.68708785 0.12197558 12.91975123 1.54650344 18.51538086 5.39160156 C18.84538086 6.71160156 19.17538086 8.03160156 19.51538086 9.39160156 C9.94538086 9.39160156 0.37538086 9.39160156 -9.48461914 9.39160156 C-9.81461914 6.75160156 -10.14461914 4.11160156 -10.48461914 1.39160156 C-8.27004865 -0.82296893 -3.05645557 0.02336057 0 0 Z " fill="#FD0C0B" transform="translate(780.484619140625,564.6083984375)"/>
<path d="M0 0 C1.06605469 0.00644531 2.13210938 0.01289063 3.23046875 0.01953125 C5.8125 0.1875 5.8125 0.1875 6.8125 1.1875 C6.88494053 3.20714199 6.89627188 5.22917124 6.875 7.25 C6.86597656 8.35472656 6.85695313 9.45945312 6.84765625 10.59765625 C6.83605469 11.45230469 6.82445312 12.30695313 6.8125 13.1875 C4.54225032 13.26847324 2.27117925 13.32667704 0 13.375 C-1.89685547 13.42720703 -1.89685547 13.42720703 -3.83203125 13.48046875 C-7.1875 13.1875 -7.1875 13.1875 -9.125 11.9375 C-11.0375335 8.78744482 -10.36475137 5.79161126 -10.1875 2.1875 C-6.73589849 0.07308067 -4.00717844 -0.05368936 0 0 Z " fill="#F3F3F3" transform="translate(591.1875,491.8125)"/>
<path d="M0 0 C0 4.29 0 8.58 0 13 C-1.876875 13.04125 -3.75375 13.0825 -5.6875 13.125 C-6.74324219 13.14820313 -7.79898438 13.17140625 -8.88671875 13.1953125 C-12.02251859 12.99858729 -14.17645373 12.33057654 -17 11 C-17.48828125 5.04296875 -17.48828125 5.04296875 -17 3 C-11.7967316 -1.28504457 -6.41736205 -0.21156139 0 0 Z " fill="#F4F4F4" transform="translate(724,492)"/>
<path d="M0 0 C3.42949055 2.01698455 6.20893285 4.4178657 8 8 C8.60644601 13.38004242 9.0316689 17.595784 5.75 22.0625 C0.53020748 25.74008109 -3.60677052 27.09693192 -10 26 C-13.13202088 24.33797623 -15.2335182 22.01036237 -17.375 19.1875 C-18.84642784 14.03750258 -18.70719826 10.33862529 -16.25 5.6875 C-11.48214635 -0.0074363 -7.33174279 -1.42811554 0 0 Z M-14.18359375 7.15625 C-15.67979374 10.53522796 -15.85345537 13.41548745 -15 17 C-13.08549816 20.68205837 -13.08549816 20.68205837 -10 23 C-6.5088718 23.79551938 -3.49248573 23.78566592 0 23 C2.82424288 20.80977082 4.41508603 19.16982793 6 16 C6.41204834 11.36445612 5.87454146 8.69583902 3 5 C-2.82998933 1.46968663 -10.0242805 1.01148059 -14.18359375 7.15625 Z " fill="#7E7E7E" transform="translate(1009,428)"/>
<path d="M0 0 C3.0625 2.125 3.0625 2.125 5 5 C5 6.98 5 8.96 5 11 C-1.93 11 -8.86 11 -16 11 C-14.85964912 4.15789474 -14.85964912 4.15789474 -11 1 C-7.51610083 -0.74194959 -3.80099861 -0.57670324 0 0 Z " fill="#EBEBEB" transform="translate(882,474)"/>
<path d="M0 0 C4.19077074 1.04769269 5.33791849 1.76747245 8 5 C8 5.99 8 6.98 8 8 C11.96 8 15.92 8 20 8 C20.33 7.34 20.66 6.68 21 6 C21.66 7.32 22.32 8.64 23 10 C15.21252623 12.8379514 7.08784456 14.69594819 -1 12 C-0.67 8.04 -0.34 4.08 0 0 Z " fill="#1116F3" transform="translate(771,626)"/>
<path d="M0 0 C2 2 2 2 2.375 5.9375 C2.2826199 8.76022533 2.19643052 9.72990804 0.5 12.0625 C-3.29686421 13.48632408 -6.03564577 12.77987296 -10 12 C-11 11 -11 11 -11.25 7.125 C-11.19651719 4.63804946 -11.12060023 3.24120047 -10 1 C-6.63044301 -0.68477849 -3.7359887 -0.29650704 0 0 Z " fill="#727272" transform="translate(557,446)"/>
<path d="M0 0 C6.27 0 12.54 0 19 0 C19 1.65 19 3.3 19 5 C16.7438536 6.42053662 15.43956094 7.03663008 12.75 6.8125 C9.08298566 5.72906395 5.56300496 4.38896803 2 3 C2 2.34 2 1.68 2 1 C1.34 0.67 0.68 0.34 0 0 Z " fill="#FD8512" transform="translate(759,592)"/>
<path d="M0 0 C3.39943566 1.40666303 5.06925971 2.8686313 7 6 C7.66671567 9.72805176 7.59880439 13.26301705 7 17 C4.75 20.0625 4.75 20.0625 2 22 C1.071875 22.680625 1.071875 22.680625 0.125 23.375 C-3.06105945 24.31207631 -5.78733047 23.61782106 -9 23 C-9 22.67 -9 22.34 -9 22 C-7.7625 21.7525 -6.525 21.505 -5.25 21.25 C-1.47598893 20.31484681 0.55495822 19.12965347 3 16 C4.3899408 13.2201184 4.18488204 11.0813674 4 8 C2.79255056 4.79523376 2.79255056 4.79523376 0 3 C0 2.01 0 1.02 0 0 Z " fill="#717171" transform="translate(1010,430)"/>
<path d="M0 0 C2.64 0 5.28 0 8 0 C8.94616328 3.42984189 9 6.44175575 9 10 C6.00667261 9.0022242 5.05233685 8.2477975 3 6 C3 7.65 3 9.3 3 11 C2.01 11 1.02 11 0 11 C0 7.37 0 3.74 0 0 Z " fill="#7E7E7E" transform="translate(999,436)"/>
<path d="M0 0 C1.6874269 0.00015917 3.37485866 0.00585622 5.06225586 0.01586914 C6.39189613 0.01799156 6.39189613 0.01799156 7.74839783 0.02015686 C10.59133215 0.02577324 13.43418892 0.03832848 16.27709961 0.05102539 C18.19962452 0.05603828 20.12215065 0.06060155 22.04467773 0.06469727 C26.7680151 0.07574798 31.49129419 0.09302356 36.21459961 0.11352539 C35.88459961 0.77352539 35.55459961 1.43352539 35.21459961 2.11352539 C34.1042334 2.10305176 32.99386719 2.09257813 31.84985352 2.08178711 C27.73872082 2.0456459 23.62760222 2.02264643 19.51635742 2.00366211 C17.73540894 1.99359108 15.95447704 1.97993354 14.17358398 1.96264648 C11.61690178 1.93844626 9.06043776 1.92705355 6.50366211 1.91821289 C5.70465485 1.90789032 4.90564758 1.89756775 4.08242798 1.88693237 C2.12502741 1.88653313 0.16816884 1.99111471 -1.78540039 2.11352539 C-2.44540039 2.77352539 -3.10540039 3.43352539 -3.78540039 4.11352539 C-0.81540039 4.44352539 2.15459961 4.77352539 5.21459961 5.11352539 C5.21459961 5.44352539 5.21459961 5.77352539 5.21459961 6.11352539 C1.25459961 6.11352539 -2.70540039 6.11352539 -6.78540039 6.11352539 C-4.39268546 0.13173807 -4.39268546 0.13173807 0 0 Z " fill="#FEE0D7" transform="translate(762.785400390625,573.886474609375)"/>
<path d="M0 0 C5.61 0 11.22 0 17 0 C17.33 1.98 17.66 3.96 18 6 C17.34 5.01 16.68 4.02 16 3 C12.65386488 2.41312216 12.65386488 2.41312216 8.875 2.3125 C7.59367188 2.24675781 6.31234375 2.18101562 4.9921875 2.11328125 C4.00476563 2.07589844 3.01734375 2.03851562 2 2 C2.32742188 2.93070313 2.65484375 3.86140625 2.9921875 4.8203125 C3.93420142 7.79240294 4.18118608 9.91983656 4 13 C3.67 11.68 3.34 10.36 3 9 C2.34 9 1.68 9 1 9 C0.67 6.03 0.34 3.06 0 0 Z " fill="#BA65AB" transform="translate(627,573)"/>
<path d="M0 0 C0.84046875 0.01804687 1.6809375 0.03609375 2.546875 0.0546875 C4.61507395 0.10169202 6.68268441 0.17343276 8.75 0.25 C8.75 0.58 8.75 0.91 8.75 1.25 C3.14 1.25 -2.47 1.25 -8.25 1.25 C-8.91 2.57 -9.57 3.89 -10.25 5.25 C-11.6875 6.953125 -11.6875 6.953125 -13.25 8.5 C-13.765625 9.02078125 -14.28125 9.5415625 -14.8125 10.078125 C-16.25 11.25 -16.25 11.25 -18.25 11.25 C-18.25 11.91 -18.25 12.57 -18.25 13.25 C-18.91 12.92 -19.57 12.59 -20.25 12.25 C-19.16851833 10.99839762 -18.08472078 9.74879619 -17 8.5 C-16.39671875 7.80390625 -15.7934375 7.1078125 -15.171875 6.390625 C-14.53765625 5.68421875 -13.9034375 4.9778125 -13.25 4.25 C-12.7034375 3.5075 -12.156875 2.765 -11.59375 2 C-7.95114818 -0.71980936 -4.41169031 -0.17922492 0 0 Z " fill="#B962AA" transform="translate(956.25,572.75)"/>
<path d="M0 0 C0.66 0.33 1.32 0.66 2 1 C-0.78358481 3.84137242 -3.57815727 6.67168155 -6.375 9.5 C-7.1690625 10.31082031 -7.963125 11.12164063 -8.78125 11.95703125 C-9.92207031 13.10751953 -9.92207031 13.10751953 -11.0859375 14.28125 C-11.7876709 14.99345703 -12.4894043 15.70566406 -13.21240234 16.43945312 C-15 18 -15 18 -17 18 C-13.619547 10.46782561 -6.15171426 5.25691946 0 0 Z " fill="#E6F2D9" transform="translate(193,562)"/>
<path d="M0 0 C-1.15173355 2.46800047 -2.04783565 4.04783565 -4 6 C-4.37004294 8.22658154 -4.37004294 8.22658154 -4.4140625 10.7890625 C-4.45273437 11.73007812 -4.49140625 12.67109375 -4.53125 13.640625 C-4.5621875 14.62546875 -4.593125 15.6103125 -4.625 16.625 C-4.66367187 17.61757813 -4.70234375 18.61015625 -4.7421875 19.6328125 C-4.8366314 22.08835385 -4.92219875 24.5438841 -5 27 C-5.33 27 -5.66 27 -6 27 C-6.33 19.74 -6.66 12.48 -7 5 C-6.34 5 -5.68 5 -5 5 C-4.87625 4.360625 -4.7525 3.72125 -4.625 3.0625 C-4.41875 2.381875 -4.2125 1.70125 -4 1 C-2 0 -2 0 0 0 Z " fill="#6EC6EB" transform="translate(287,488)"/>
<path d="M0 0 C-0.33 2.64 -0.66 5.28 -1 8 C-4 8 -4 8 -6.1875 6.125 C-8 4 -8 4 -8 2 C-2.25 0 -2.25 0 0 0 Z " fill="#278C33" transform="translate(777,604)"/>
<path d="M0 0 C0.66 0.33 1.32 0.66 2 1 C-2.32893185 6.18419194 -6.76564995 10.72706118 -12 15 C-12 12 -12 12 -9.375 9.08203125 C-8.25750594 7.98449244 -7.13214357 6.89492105 -6 5.8125 C-5.42765625 5.25369141 -4.8553125 4.69488281 -4.265625 4.11914062 C-2.85037212 2.73926907 -1.42602845 1.36873266 0 0 Z " fill="#A2D073" transform="translate(172,551)"/>
<path d="M0 0 C0.66 0 1.32 0 2 0 C1.67 3.3 1.34 6.6 1 10 C-0.10859375 9.94199219 -1.2171875 9.88398438 -2.359375 9.82421875 C-3.82287452 9.77731171 -5.28641963 9.73181255 -6.75 9.6875 C-7.47960937 9.64560547 -8.20921875 9.60371094 -8.9609375 9.56054688 C-11.40735294 9.45226916 -11.40735294 9.45226916 -15 10 C-17.55132034 12.35127774 -17.55132034 12.35127774 -19 15 C-19.1875 12.625 -19.1875 12.625 -19 10 C-15.31912647 7.54608431 -12.55644412 7.77197241 -8.3125 7.875 C-7.2596582 7.88853516 -7.2596582 7.88853516 -6.18554688 7.90234375 C-4.45688475 7.92586296 -2.72839855 7.96173287 -1 8 C-0.67 5.36 -0.34 2.72 0 0 Z " fill="#C8C8C8" transform="translate(965,466)"/>
<path d="M0 0 C0.75 1.75 0.75 1.75 1 4 C-0.9375 6.25 -0.9375 6.25 -3 8 C-3.33 7.34 -3.66 6.68 -4 6 C-4.62648437 6.09539063 -5.25296875 6.19078125 -5.8984375 6.2890625 C-6.71570313 6.39992188 -7.53296875 6.51078125 -8.375 6.625 C-9.18710938 6.74101563 -9.99921875 6.85703125 -10.8359375 6.9765625 C-11.55007812 6.98429688 -12.26421875 6.99203125 -13 7 C-13.66 6.34 -14.32 5.68 -15 5 C-13.98679688 4.90912109 -13.98679688 4.90912109 -12.953125 4.81640625 C-12.06109375 4.73261719 -11.1690625 4.64882813 -10.25 4.5625 C-9.36828125 4.48128906 -8.4865625 4.40007813 -7.578125 4.31640625 C-4.22347104 3.92668305 -4.22347104 3.92668305 -1 3 C-0.67 2.01 -0.34 1.02 0 0 Z " fill="#D2E8BC" transform="translate(171,612)"/>
<path d="M0 0 C0 0.66 0 1.32 0 2 C-0.99 2 -1.98 2 -3 2 C-3.2475 2.5775 -3.495 3.155 -3.75 3.75 C-5.18299988 6.32939979 -6.78424676 8.06121592 -9 10 C-9.66 10 -10.32 10 -11 10 C-11 10.99 -11 11.98 -11 13 C-11.66 13 -12.32 13 -13 13 C-11.56179563 7.72658399 -7.9961885 4.50608991 -4 1 C-2 0 -2 0 0 0 Z " fill="#BC69AD" transform="translate(491,575)"/>
<path d="M0 0 C6.27 0 12.54 0 19 0 C19 0.33 19 0.66 19 1 C17.99839844 1.06058594 16.99679687 1.12117188 15.96484375 1.18359375 C14.62238669 1.26808405 13.27993928 1.35272768 11.9375 1.4375 C10.62652344 1.51871094 9.31554687 1.59992188 7.96484375 1.68359375 C4.26336762 1.97898249 0.66629552 2.43265388 -3 3 C-3.33 4.32 -3.66 5.64 -4 7 C-4 5.35 -4 3.7 -4 2 C-2.68 2 -1.36 2 0 2 C0 1.34 0 0.68 0 0 Z " fill="#C9C9C9" transform="translate(578,464)"/>
<path d="M0 0 C0.66 0 1.32 0 2 0 C2 0.66 2 1.32 2 2 C2.66 2 3.32 2 4 2 C4.33 5.3 4.66 8.6 5 12 C4.34 10.68 3.68 9.36 3 8 C2.34 7.34 1.68 6.68 1 6 C0.34 6.66 -0.32 7.32 -1 8 C-0.67 5.36 -0.34 2.72 0 0 Z " fill="#D097C7" transform="translate(675,599)"/>
<path d="M0 0 C2.31 0 4.62 0 7 0 C5.515 2.475 5.515 2.475 4 5 C2.68 4.67 1.36 4.34 0 4 C0 2.68 0 1.36 0 0 Z " fill="#F91F27" transform="translate(787,581)"/>
<path d="M0 0 C-0.375 1.9375 -0.375 1.9375 -1 4 C-1.99 4.495 -1.99 4.495 -3 5 C-3.99 4.67 -4.98 4.34 -6 4 C-6 2.68 -6 1.36 -6 0 C-3 -1 -3 -1 0 0 Z " fill="#999999" transform="translate(1008,437)"/>
<path d="M0 0 C0 3 0 3 -1.4609375 4.82421875 C-2.09257812 5.43910156 -2.72421875 6.05398438 -3.375 6.6875 C-4.00148437 7.31011719 -4.62796875 7.93273437 -5.2734375 8.57421875 C-7 10 -7 10 -9 10 C-7.61811547 6.78956118 -6.07578097 4.95063635 -3.375 2.75 C-2.74335938 2.22921875 -2.11171875 1.7084375 -1.4609375 1.171875 C-0.73777344 0.59179688 -0.73777344 0.59179688 0 0 Z " fill="#5ABEE8" transform="translate(249,550)"/>
<path d="M0 0 C-1.5830577 4.2742558 -4.50568404 6.26531794 -8 9 C-8 6 -8 6 -6.7578125 4.39453125 C-5.94957031 3.61142578 -5.94957031 3.61142578 -5.125 2.8125 C-4.59132812 2.28269531 -4.05765625 1.75289062 -3.5078125 1.20703125 C-2 0 -2 0 0 0 Z " fill="#A6D278" transform="translate(174,616)"/>
<path d="M0 0 C0.99 0 1.98 0 3 0 C3 0.99 3 1.98 3 3 C-2.94 3 -8.88 3 -15 3 C-15 2.67 -15 2.34 -15 2 C-10.05 2 -5.1 2 0 2 C0 1.34 0 0.68 0 0 Z " fill="#FD722D" transform="translate(774,583)"/>
<path d="M0 0 C-1.5830577 4.2742558 -4.50568404 6.26531794 -8 9 C-8 6 -8 6 -6.7578125 4.39453125 C-5.94957031 3.61142578 -5.94957031 3.61142578 -5.125 2.8125 C-4.59132812 2.28269531 -4.05765625 1.75289063 -3.5078125 1.20703125 C-2 0 -2 0 0 0 Z " fill="#54BCE7" transform="translate(258,445)"/>
<path d="M0 0 C0.66 0.33 1.32 0.66 2 1 C-0.64 3.97 -3.28 6.94 -6 10 C-6.33 9.01 -6.66 8.02 -7 7 C-4.69 4.69 -2.38 2.38 0 0 Z " fill="#57BDE8" transform="translate(182,443)"/>
<path d="M0 0 C0.66 0 1.32 0 2 0 C3.38232443 1.62626404 4.71937515 3.2925002 6 5 C5.4225 5.12375 4.845 5.2475 4.25 5.375 C1.97664233 6.00648824 0.0746471 6.88858191 -2 8 C-1.505 6.2984375 -1.505 6.2984375 -1 4.5625 C0.04504273 1.45623361 0.04504273 1.45623361 0 0 Z " fill="#B932B7" transform="translate(799,571)"/>
<path d="M0 0 C1.62463842 -0.05395478 3.24978541 -0.09277195 4.875 -0.125 C5.77992188 -0.14820313 6.68484375 -0.17140625 7.6171875 -0.1953125 C10 0 10 0 12 2 C11.67 2.66 11.34 3.32 11 4 C2.83035714 3.33035714 2.83035714 3.33035714 0 0 Z " fill="#929292" transform="translate(999,428)"/>
<path d="M0 0 C0 2.31 0 4.62 0 7 C-0.99 7.495 -0.99 7.495 -2 8 C-2 6.02 -2 4.04 -2 2 C-3.65 2.33 -5.3 2.66 -7 3 C-5.40442685 -0.19114631 -3.35905282 0 0 0 Z " fill="#929292" transform="translate(833,507)"/>
<path d="M0 0 C1.98 0.99 1.98 0.99 4 2 C4 5.63 4 9.26 4 13 C3.67 13 3.34 13 3 13 C2.01 8.71 1.02 4.42 0 0 Z " fill="#D7A6CE" transform="translate(605,625)"/>
<path d="M0 0 C2.3125 -0.3125 2.3125 -0.3125 5 0 C6.8125 2.5 6.8125 2.5 8 5 C7.01 6.485 7.01 6.485 6 8 C5.566875 7.236875 5.13375 6.47375 4.6875 5.6875 C3.26313215 3.41906232 1.96739903 1.7800277 0 0 Z " fill="#FEFECD" transform="translate(157,491)"/>
<path d="M0 0 C0 0.99 0 1.98 0 3 C1.32 3.33 2.64 3.66 4 4 C1.1875 5.125 1.1875 5.125 -2 6 C-2.99 5.34 -3.98 4.68 -5 4 C-3.35 2.68 -1.7 1.36 0 0 Z " fill="#C3E7F7" transform="translate(285,483)"/>
<path d="M0 0 C0.99 0.33 1.98 0.66 3 1 C1.70700306 3.88437779 0.34058637 5.87219421 -2 8 C-2.33 7.34 -2.66 6.68 -3 6 C-2.06553465 3.96855359 -1.06775224 1.96466413 0 0 Z " fill="#7D7D7D" transform="translate(1014,444)"/>
<path d="M0 0 C0.66 0.33 1.32 0.66 2 1 C0.38405168 3.04119788 -1.2856382 5.04072937 -3 7 C-3.66 7 -4.32 7 -5 7 C-3.70700306 4.11562221 -2.34058637 2.12780579 0 0 Z " fill="#8F8F8F" transform="translate(809,468)"/>
</svg>
