<?xml version="1.0" encoding="UTF-8"?>
<svg version="1.1" xmlns="http://www.w3.org/2000/svg" width="1080" height="1080">
<path d="M0 0 C356.4 0 712.8 0 1080 0 C1080 356.4 1080 712.8 1080 1080 C723.6 1080 367.2 1080 0 1080 C0 723.6 0 367.2 0 0 Z " fill="#000000" transform="translate(0,0)"/>
<path d="M0 0 C0.86022499 0.00234117 1.72044997 0.00468233 2.60674238 0.00709444 C3.97054132 0.00491428 3.97054132 0.00491428 5.36189175 0.00269008 C8.44875357 -0.0009976 11.53556685 0.00252921 14.62242842 0.00595194 C16.84172164 0.00480121 19.06101467 0.00321402 21.28030729 0.0012247 C27.41016916 -0.00297527 33.54001559 -0.00087494 39.66987753 0.00221092 C45.59177383 0.00423124 51.51366677 0.00158157 57.43556261 -0.00093645 C70.30222851 -0.00621339 83.16888946 -0.00574136 96.03555584 -0.00285754 C107.29510472 -0.00034618 118.55465178 0.00031669 129.81420088 -0.00088018 C130.93266193 -0.00099476 130.93266193 -0.00099476 132.07371816 -0.00111165 C135.10019326 -0.00142297 138.12666835 -0.00174137 141.15314345 -0.00207142 C169.56844413 -0.00513334 197.98374164 -0.00235232 226.39904183 0.00302548 C251.66784166 0.00777141 276.93663645 0.00734679 302.20543623 0.00256449 C330.56735642 -0.00278521 358.92927381 -0.00491623 387.29119444 -0.00182325 C390.31229099 -0.00150251 393.33338753 -0.00118967 396.35448408 -0.00088018 C397.47036563 -0.00076157 397.47036563 -0.00076157 398.60879025 -0.00064055 C409.86378466 0.00049896 421.11877706 -0.00083714 432.37377119 -0.00335974 C445.16575027 -0.00621244 457.95772361 -0.0055182 470.74970198 -0.00007899 C477.28334596 0.00255928 483.81697969 0.00356098 490.35062361 0.00027186 C496.32134111 -0.00268855 502.29203876 -0.0011026 508.26275444 0.00424941 C510.43298351 0.0053747 512.60321424 0.00477998 514.77344227 0.00237362 C517.70296688 -0.00062769 520.63242173 0.00241133 523.56194258 0.00709444 C524.42216756 0.00475328 525.28239255 0.00241211 526.16868496 0 C531.97019214 0.01878525 531.97019214 0.01878525 533.08434248 1.13293558 C533.08434248 30.17293558 533.08434248 59.21293558 533.08434248 89.13293558 C354.88434248 89.13293558 176.68434248 89.13293558 -6.91565752 89.13293558 C-6.91565752 0.02239286 -6.91565752 0.02239286 0 0 Z " fill="#009BDE" transform="translate(435.9156575202942,360.86706441640854)"/>
<path d="M0 0 C0.88473999 -0.0049649 1.76947998 -0.00992981 2.68103027 -0.01504517 C5.62761196 -0.02972434 8.57413959 -0.03648293 11.52075195 -0.04199219 C13.57086692 -0.0477447 15.62098187 -0.05350243 17.6710968 -0.05926514 C21.98467256 -0.06979537 26.29822959 -0.07562288 30.61181641 -0.07910156 C36.10679558 -0.08455073 41.60152248 -0.10849271 47.09642315 -0.13707352 C51.34071028 -0.15582739 55.58493865 -0.16091252 59.82926369 -0.16243744 C61.85240857 -0.16544248 63.87555296 -0.17339729 65.89865685 -0.18662262 C79.70390344 -0.2703286 92.89986434 -0.03989663 105.5715332 6.16113281 C106.3759082 6.42925781 107.1802832 6.69738281 108.0090332 6.97363281 C111.95493933 8.80222346 115.16683597 11.48312985 118.5715332 14.16113281 C120.0874707 15.24394531 120.0874707 15.24394531 121.6340332 16.34863281 C130.7209824 24.15503633 137.24199246 39.33257166 138.42358398 51.05639648 C139.19309897 62.00357261 139.47642199 72.76500032 135.5715332 83.16113281 C135.30469727 83.98484375 135.03786133 84.80855469 134.76293945 85.65722656 C130.0990996 98.94398811 121.15375478 107.63928445 109.3215332 114.53613281 C108.70648926 114.89473389 108.09144531 115.25333496 107.45776367 115.62280273 C104.61611334 117.22088941 102.88506048 118.16113281 99.5715332 118.16113281 C103.1923871 125.00509529 107.04547263 131.65331951 111.1340332 138.22753906 C114.75132858 144.04606866 118.2908448 149.91238607 121.84350586 155.77050781 C125.20751695 161.3080633 128.60113435 166.82532019 132.0324707 172.32128906 C133.14160089 174.10320183 134.25028842 175.88538934 135.35888672 177.66763306 C136.08122697 178.8255461 136.80598372 179.98195533 137.53320312 181.1368103 C138.54927481 182.75059359 139.55669791 184.36981245 140.5637207 185.98925781 C141.43552979 187.37999512 141.43552979 187.37999512 142.32495117 188.79882812 C143.5715332 191.16113281 143.5715332 191.16113281 143.5715332 194.16113281 C137.55773074 194.3593314 131.54583935 194.50426352 125.52954102 194.60058594 C123.48460773 194.64074617 121.43990317 194.69528863 119.39575195 194.76464844 C116.45116788 194.8620374 113.50962471 194.9071307 110.5637207 194.94238281 C109.65411591 194.9836731 108.74451111 195.02496338 107.80734253 195.06750488 C101.57608228 195.07188082 101.57608228 195.07188082 98.7150116 192.47796631 C97.16308099 190.43922444 95.84292508 188.38372014 94.5715332 186.16113281 C93.78951538 184.9879248 93.78951538 184.9879248 92.99169922 183.79101562 C92.6068335 183.15518555 92.22196777 182.51935547 91.82543945 181.86425781 C91.38006836 181.13207031 90.93469727 180.39988281 90.47583008 179.64550781 C90.03303711 178.90816406 89.59024414 178.17082031 89.1340332 177.41113281 C88.69510742 176.68925781 88.25618164 175.96738281 87.80395508 175.22363281 C82.74213896 166.8676189 77.87043839 158.39909103 72.96606445 149.95019531 C72.3750293 148.933125 71.78399414 147.91605469 71.17504883 146.86816406 C69.96789817 144.79086446 68.76219907 142.71272074 67.55786133 140.63378906 C66.40569766 138.65323111 65.24408437 136.67812786 64.07128906 134.7097168 C63.18561001 133.20465353 62.32562968 131.6830605 61.52685547 130.13012695 C60.5848985 128.26600847 60.5848985 128.26600847 58.5715332 126.16113281 C55.74291297 125.56259556 53.70152967 125.31914427 50.8840332 125.34863281 C43.63010463 125.21970424 43.63010463 125.21970424 42.5715332 124.16113281 C42.48305577 121.64019205 42.45626019 119.14682388 42.47387695 116.62597656 C42.4752919 115.87272598 42.47670685 115.1194754 42.47816467 114.34339905 C42.48377944 111.92843721 42.49633437 109.5135668 42.5090332 107.09863281 C42.5140463 105.46517061 42.51860954 103.83170695 42.52270508 102.19824219 C42.53375367 98.18583696 42.55102814 94.17350041 42.5715332 90.16113281 C44.10692749 90.13140381 44.10692749 90.13140381 45.67333984 90.10107422 C49.49600495 90.02460559 53.31830975 89.93595414 57.140625 89.84375 C58.79029185 89.80562982 60.44003703 89.77074831 62.08984375 89.73925781 C64.47074242 89.69323621 66.85110972 89.63530646 69.23168945 89.57519531 C69.96114273 89.5636441 70.69059601 89.5520929 71.44215393 89.54019165 C78.72369136 89.33356156 84.79379387 87.80844489 90.5715332 83.16113281 C96.71903969 76.33434384 97.9396375 69.23908463 97.7590332 60.23144531 C97.33735073 53.3263948 96.82099451 47.11895738 91.5715332 42.16113281 C80.65862411 32.88516008 64.21020712 34.62280127 50.8215332 34.47363281 C48.75640812 34.44040278 46.69130299 34.40590802 44.6262207 34.37011719 C39.60810268 34.2858683 34.59002472 34.21875442 29.5715332 34.16113281 C29.572455 34.97965446 29.57337679 35.7981761 29.57432652 36.64150143 C29.59638003 56.52846435 29.61294392 76.41542517 29.62334538 96.30239773 C29.62850872 105.91945776 29.63555215 115.53650965 29.64697266 125.15356445 C29.65691832 133.5326445 29.66338635 141.91171866 29.6656217 150.29080445 C29.66692901 154.73029406 29.67001612 159.1697668 29.67726326 163.60925102 C29.68402162 167.78290554 29.68615054 171.95653614 29.68464088 176.13019562 C29.6849173 177.66654401 29.68692351 179.20289315 29.69073868 180.73923683 C29.69567307 182.82772899 29.69453246 184.91612938 29.69178772 187.00462341 C29.69270951 188.1762223 29.69363131 189.34782118 29.69458103 190.55492306 C29.5715332 193.16113281 29.5715332 193.16113281 28.5715332 194.16113281 C25.75989941 194.24975273 22.97295065 194.27635636 20.16137695 194.25878906 C19.31934219 194.25737411 18.47730743 194.25595917 17.60975647 194.25450134 C14.90947986 194.24888545 12.20928493 194.2363303 9.5090332 194.22363281 C7.68286252 194.21861986 5.85669055 194.2140566 4.03051758 194.20996094 C-0.45584222 194.19891085 -4.94214064 194.1816356 -9.4284668 194.16113281 C-9.45179276 169.01433066 -9.46944448 143.86753012 -9.48027897 118.72071934 C-9.48544257 107.04549867 -9.49248648 95.37028472 -9.50390625 83.69506836 C-9.51385113 73.52290608 -9.52031976 63.35074866 -9.52255529 53.17858166 C-9.52386273 47.78894032 -9.52695068 42.39931288 -9.53419685 37.00967598 C-9.54095399 31.94301847 -9.54308439 26.87638067 -9.54157448 21.80971909 C-9.54185095 19.94440924 -9.54385788 18.07909877 -9.54767227 16.2137928 C-9.55260474 13.67864173 -9.55146675 11.1435663 -9.54872131 8.6084137 C-9.55163415 7.86037352 -9.554547 7.11233334 -9.55754811 6.34162527 C-9.53504339 -1.27979704 -6.77254232 0.00896977 0 0 Z " fill="#616368" transform="translate(438.428466796875,522.8388671875)"/>
<path d="M0 0 C2 2 2 2 2.22705078 5.25634766 C2.22673382 6.64229295 2.21541759 8.02826301 2.1953125 9.4140625 C2.1924826 10.14370209 2.18965271 10.87334167 2.18673706 11.62509155 C2.17553002 13.95856028 2.1504251 16.29164703 2.125 18.625 C2.11497085 20.20572363 2.10584489 21.78645327 2.09765625 23.3671875 C2.07558905 27.24493914 2.04105615 31.12240478 2 35 C0.55820315 34.85674273 -0.88311694 34.70868164 -2.32421875 34.55859375 C-3.12690186 34.47665771 -3.92958496 34.39472168 -4.7565918 34.31030273 C-7.64884837 33.91025288 -10.23078525 32.92307158 -13 32 C-16.09059135 31.43133119 -19.18634999 30.93767503 -22.29296875 30.46484375 C-25 30 -25 30 -28 29 C-29.37894001 28.89499379 -30.76221289 28.84164338 -32.14501953 28.82299805 C-32.97663605 28.81016281 -33.80825256 28.79732758 -34.66506958 28.78410339 C-35.56192474 28.77671646 -36.45877991 28.76932953 -37.3828125 28.76171875 C-38.31165253 28.753647 -39.24049255 28.74557526 -40.19747925 28.73725891 C-42.1661391 28.72342504 -44.13482288 28.71269977 -46.10351562 28.70483398 C-49.09292107 28.68768403 -52.08120214 28.64379923 -55.0703125 28.59960938 C-56.98697107 28.58947633 -58.90363901 28.58096215 -60.8203125 28.57421875 C-62.14737717 28.54795662 -62.14737717 28.54795662 -63.50125122 28.52116394 C-70.92714805 28.54670681 -77.59718763 30.35301756 -83 35.6875 C-83.66 36.450625 -84.32 37.21375 -85 38 C-85.33 38.33 -85.66 38.66 -86 39 C-86.89607301 48.80108008 -86.89607301 48.80108008 -84.5 58.125 C-79.491872 63.8843472 -72.98079904 66.70604379 -65.8125 68.9375 C-65.04276855 69.18636963 -64.27303711 69.43523926 -63.47998047 69.69165039 C-57.56666216 71.57725369 -51.60100934 73.26384003 -45.625 74.9375 C-3.11188656 86.90793601 -3.11188656 86.90793601 8.9375 105 C12.82594153 111.93873842 14.60964152 119.1009813 15 127 C15.06445312 128.175625 15.12890625 129.35125 15.1953125 130.5625 C15.77787711 146.1674641 12.66300249 159.88663058 2.2734375 172.015625 C0.58833624 173.78536605 -1.1519783 175.40214718 -3 177 C-3.85464844 177.76570313 -3.85464844 177.76570313 -4.7265625 178.546875 C-12.45408761 184.9261936 -22.50431281 189.09888596 -32.3894043 190.59204102 C-34.09069782 190.85790293 -35.78698156 191.15891795 -37.47485352 191.49975586 C-46.59878632 193.27173562 -55.55689051 193.35427069 -64.8125 193.3125 C-65.62681488 193.31100952 -66.44112976 193.30951904 -67.28012085 193.3079834 C-115.85154627 193.14845373 -115.85154627 193.14845373 -125 184 C-125.17495606 181.49079154 -125.23169569 179.09375059 -125.1953125 176.5859375 C-125.1924826 175.85629791 -125.18965271 175.12665833 -125.18673706 174.37490845 C-125.17553002 172.04143972 -125.1504251 169.70835297 -125.125 167.375 C-125.11497085 165.79427637 -125.10584489 164.21354673 -125.09765625 162.6328125 C-125.07558905 158.75506086 -125.04105615 154.87759522 -125 151 C-118.29176108 151.59992381 -112.02645881 152.87692627 -105.5 154.5 C-95.90467395 156.76673241 -86.83631069 157.88480573 -77 158 C-75.732771 158.02852051 -75.732771 158.02852051 -74.43994141 158.05761719 C-51.22836161 159.12405654 -51.22836161 159.12405654 -31.0859375 149.22265625 C-26.7630898 144.37737909 -25.7668839 140.64573373 -25.83984375 134.21484375 C-26.03779287 131.47735228 -26.74775337 129.434924 -28 127 C-28.28875 126.278125 -28.5775 125.55625 -28.875 124.8125 C-30.30705507 122.50530016 -31.54575491 122.14376435 -34 121 C-34.81863525 120.57710693 -35.63727051 120.15421387 -36.48071289 119.71850586 C-47.61173288 114.24251528 -59.39264702 111.1335667 -71.28637695 107.75268555 C-91.80735788 101.8898008 -111.45318931 94.65419335 -123.3125 75.5625 C-125.40083273 71.15379757 -126.76172482 66.70860051 -128 62 C-128.17418457 61.37770508 -128.34836914 60.75541016 -128.52783203 60.11425781 C-131.4591741 46.98839311 -129.47507119 31.02820771 -122.68359375 19.5625 C-116.0089925 9.40347814 -106.48196239 2.1161752 -95 -2 C-94.02957764 -2.35288086 -94.02957764 -2.35288086 -93.03955078 -2.71289062 C-64.73412111 -12.63292801 -27.82768589 -9.88486381 0 0 Z " fill="#606368" transform="translate(725,527)"/>
<path d="M0 0 C56.1 0 112.2 0 170 0 C171.60341134 3.20682268 171.12920982 6.69189368 171.11352539 10.21337891 C171.11364593 11.07598013 171.11376646 11.93858135 171.11389065 12.82732201 C171.11314264 15.62709482 171.10551947 18.42680155 171.09765625 21.2265625 C171.09618648 22.95206673 171.09516599 24.67757141 171.09460449 26.40307617 C171.08935562 32.8103909 171.07539449 39.2176961 171.0625 45.625 C171.041875 59.93875 171.02125 74.2525 171 89 C114.57 89 58.14 89 0 89 C0 59.63 0 30.26 0 0 Z " fill="#009B24" transform="translate(219,361)"/>
<path d="M0 0 C0.9015683 0.00444122 1.8031366 0.00888245 2.73202515 0.01345825 C3.75293243 0.01360931 4.77383972 0.01376038 5.82568359 0.01391602 C6.93092377 0.02423859 8.03616394 0.03456116 9.17489624 0.04519653 C10.30406464 0.04802643 11.43323303 0.05085632 12.59661865 0.05377197 C16.21396345 0.06499441 19.8310634 0.09010281 23.44833374 0.11550903 C25.89624684 0.12553616 28.34416381 0.13466247 30.79208374 0.14285278 C36.80258438 0.16494047 42.81294157 0.19843829 48.82333374 0.24050903 C48.84665971 25.38731119 48.86431143 50.53411173 48.87514591 75.68092251 C48.88030951 87.35614317 48.88735343 99.03135713 48.89877319 110.70657349 C48.90871808 120.87873576 48.9151867 131.05089319 48.91742224 141.22306019 C48.91872968 146.61270153 48.92181762 152.00232897 48.9290638 157.39196587 C48.93582093 162.45862337 48.93795133 167.52526118 48.93644142 172.59192276 C48.93671789 174.45723261 48.93872482 176.32254308 48.94253922 178.18784904 C48.94747168 180.72300011 48.9463337 183.25807554 48.94358826 185.79322815 C48.9465011 186.54126833 48.94941394 187.28930851 48.95241505 188.06001657 C48.93745495 193.12638782 48.93745495 193.12638782 47.82333374 194.24050903 C35.61333374 194.24050903 23.40333374 194.24050903 10.82333374 194.24050903 C10.82333374 153.65050903 10.82333374 113.06050903 10.82333374 71.24050903 C10.16333374 71.24050903 9.50333374 71.24050903 8.82333374 71.24050903 C8.67638062 71.84894653 8.52942749 72.45738403 8.37802124 73.08425903 C6.73103932 79.52074012 4.60464743 85.69896058 2.23373413 91.89700317 C-1.85036042 102.57548369 -5.62068713 113.37501725 -9.17666626 124.24050903 C-9.83666626 124.24050903 -10.49666626 124.24050903 -11.17666626 124.24050903 C-11.27463501 124.81156372 -11.37260376 125.38261841 -11.47354126 125.97097778 C-12.81560715 133.24821437 -14.90467832 140.20396386 -17.17666626 147.24050903 C-17.83666626 147.24050903 -18.49666626 147.24050903 -19.17666626 147.24050903 C-19.38291626 148.51925903 -19.58916626 149.79800903 -19.80166626 151.11550903 C-21.29037046 158.62329065 -23.91013283 165.79482724 -26.41836548 173.01052856 C-26.91939778 174.48394424 -27.40064777 175.96425229 -27.86074829 177.45095825 C-29.77426336 183.57339966 -32.20527196 188.29772043 -35.17666626 194.24050903 C-47.05666626 194.24050903 -58.93666626 194.24050903 -71.17666626 194.24050903 C-70.5003828 190.18280829 -69.907013 187.0830172 -68.57510376 183.32644653 C-68.25307983 182.4099231 -67.93105591 181.49339966 -67.59927368 180.54910278 C-67.25356323 179.58101685 -66.90785278 178.61293091 -66.55166626 177.61550903 C-65.82637934 175.56083089 -65.10111946 173.5061432 -64.37588501 171.45144653 C-64.0089856 170.41729614 -63.64208618 169.38314575 -63.2640686 168.31765747 C-62.23021997 165.39205617 -61.21006123 162.46215058 -60.19619751 159.52957153 C-59.73237671 158.19079956 -59.73237671 158.19079956 -59.25918579 156.82498169 C-58.6793554 155.15065422 -58.10082186 153.47587686 -57.52383423 151.80056763 C-56.33491454 148.38540122 -55.09725772 145.0562484 -53.66494751 141.73269653 C-51.9347426 137.67284565 -50.54349606 133.5585442 -49.17666626 129.36550903 C-48.67666626 127.84727987 -48.17666626 126.3290507 -47.67666626 124.81082153 C-46.92634883 122.52742703 -46.1776676 120.24359319 -45.43545532 117.95755005 C-43.76899923 112.87223117 -41.90964636 107.89737077 -39.92666626 102.92800903 C-37.04007675 95.60305734 -34.37497839 88.22007684 -31.80484009 80.77883911 C-29.81517387 75.02875373 -27.74125028 69.31607077 -25.61416626 63.61550903 C-22.98317848 56.55814153 -20.52687901 49.45805414 -18.21743774 42.28884888 C-17.13803837 38.9698215 -15.99930269 35.73567429 -14.59854126 32.53738403 C-13.40505224 29.77006333 -12.47701299 27.13700197 -11.67666626 24.24050903 C-10.47266908 20.07668544 -8.88501028 16.22664508 -7.17666626 12.24050903 C-6.38269213 9.62947968 -5.6367221 7.01122352 -4.92276001 4.37722778 C-3.92133421 1.50927012 -3.0898438 0.34140987 0 0 Z " fill="#606368" transform="translate(919.1766662597656,522.7594909667969)"/>
<path d="M0 0 C17.16 0 34.32 0 52 0 C58.36382682 15.90956704 58.36382682 15.90956704 60.296875 22.75390625 C61.25182958 25.8044556 62.56315253 28.63524347 63.8984375 31.53515625 C67.0543012 38.59668106 69.70438268 45.82908608 71.875 53.25 C73.65574864 59.22668268 75.94205112 64.88971465 78.3605957 70.62744141 C80.6988304 76.19442863 82.76002377 81.82580001 84.75 87.52734375 C86.1026819 91.28526315 87.56452798 94.98583014 89.0625 98.6875 C89.56663913 99.94261482 90.0705505 101.19782115 90.57421875 102.453125 C91.46702968 104.67414507 92.3646966 106.89322614 93.26953125 109.109375 C93.63433594 110.04265625 93.99914062 110.9759375 94.375 111.9375 C94.69210937 112.73027344 95.00921875 113.52304687 95.3359375 114.33984375 C97.01141991 121.05162918 95.9308559 126.30107653 93.3125 132.5625 C92.75801944 133.95998873 92.20599257 135.35845316 91.65625 136.7578125 C91.3778125 137.46067383 91.099375 138.16353516 90.8125 138.88769531 C89.53757407 142.20219625 88.41778527 145.56331327 87.3125 148.9375 C86.90902344 150.16597656 86.50554687 151.39445313 86.08984375 152.66015625 C85.73019531 153.76230469 85.37054687 154.86445312 85 156 C84.45978704 157.62548385 83.91835556 159.25056394 83.375 160.875 C83.14941406 161.55175781 82.92382812 162.22851562 82.69140625 162.92578125 C80.84570312 168.46289062 80.84570312 168.46289062 79 174 C78.34 174 77.68 174 77 174 C72.64646634 163.88498137 68.93072152 153.59490307 65.33984375 143.19140625 C62.24532121 134.24881156 59.03598185 125.40690753 55.46875 116.640625 C51.80232399 107.55256903 48.40996403 98.3803101 45.375 89.0625 C43.56045076 83.5190227 41.49608694 78.26951687 39 73 C37.78479158 75.43041684 37.86466026 76.99662687 37.84851074 79.71351624 C37.83599525 81.20477776 37.83599525 81.20477776 37.82322693 82.72616577 C37.81904251 83.82079132 37.81485809 84.91541687 37.81054688 86.04321289 C37.80225357 87.19281998 37.79396027 88.34242706 37.78541565 89.52687073 C37.76798601 92.02923756 37.75282723 94.53162097 37.73963928 97.03401375 C37.71867247 100.98727386 37.69164596 104.94045034 37.66296387 108.8936615 C37.59772737 117.99765353 37.54229689 127.10170041 37.48697662 136.20575714 C37.43214796 145.21238445 37.37349792 154.21896567 37.30812073 163.22552299 C37.28143764 167.13268085 37.26068955 171.03984263 37.2401123 174.94703674 C37.22351775 177.32675376 37.20664666 179.70646887 37.18945312 182.08618164 C37.18526871 183.18283142 37.18108429 184.2794812 37.17677307 185.40936279 C37.16425758 186.89639458 37.16425758 186.89639458 37.15148926 188.41346741 C37.14633553 189.28012055 37.14118179 190.1467737 37.13587189 191.03968906 C37 193 37 193 36 194 C24.12 194 12.24 194 0 194 C0 129.98 0 65.96 0 0 Z " fill="#616468" transform="translate(763,523)"/>
<path d="M0 0 C11.034375 -0.020625 22.06875 -0.04125 33.4375 -0.0625 C38.67065063 -0.07615601 38.67065063 -0.07615601 44.00952148 -0.09008789 C46.75504518 -0.09300673 49.50056931 -0.09555536 52.24609375 -0.09765625 C52.9641066 -0.10026962 53.68211945 -0.102883 54.42189026 -0.10557556 C56.52664519 -0.11285571 58.63131842 -0.11390733 60.73608398 -0.11352539 C61.92411118 -0.115746 63.11213837 -0.11796661 64.33616638 -0.12025452 C67 0 67 0 68 1 C68.09516211 3.7388842 68.12554594 6.45247941 68.11352539 9.19165039 C68.11367142 10.05011063 68.11381744 10.90857086 68.1139679 11.79304504 C68.11326847 14.64460738 68.1054747 17.49610525 68.09765625 20.34765625 C68.09579218 22.31920842 68.09436822 24.29076105 68.09336853 26.26231384 C68.08954251 31.46226267 68.07971152 36.66218375 68.06866455 41.86212158 C68.05665806 48.09539466 68.05204859 54.32867699 68.04621124 60.56195831 C68.03649981 70.04132486 68.01734384 79.52063049 68 89 C45.56 89 23.12 89 0 89 C0 59.63 0 30.26 0 0 Z " fill="#868A8D" transform="translate(112,361)"/>
<path d="M0 0 C0.66 0 1.32 0 2 0 C2 40.59 2 81.18 2 123 C1.67 123 1.34 123 1 123 C0.67 84.06 0.34 45.12 0 5 C-0.99 5.495 -0.99 5.495 -2 6 C-1.34 4.02 -0.68 2.04 0 0 Z " fill="#131314" transform="translate(928,594)"/>
<path d="M0 0 C0.66 0.33 1.32 0.66 2 1 C1.360625 1.61875 0.72125 2.2375 0.0625 2.875 C-4.14668062 7.07201536 -8.04656399 11.56422757 -12 16 C-12 11.27513292 -9.00486858 8.47860912 -6 5 C-4.07189418 3.18480127 -2.11072754 1.60817336 0 0 Z " fill="#525356" transform="translate(615,533)"/>
<path d="M0 0 C2 1.75 2 1.75 4 4 C4 5.32 4 6.64 4 8 C4.66 8 5.32 8 6 8 C6 8.99 6 9.98 6 11 C5.34 11 4.68 11 4 11 C3.32880451 9.5437455 2.66318193 8.08492133 2 6.625 C1.62875 5.81289063 1.2575 5.00078125 0.875 4.1640625 C0 2 0 2 0 0 Z " fill="#434648" transform="translate(836,686)"/>
<path d="M0 0 C0.66 0 1.32 0 2 0 C2 3.96 2 7.92 2 12 C1.67 12 1.34 12 1 12 C0.67 9.69 0.34 7.38 0 5 C-0.99 5.495 -0.99 5.495 -2 6 C-1.34 4.02 -0.68 2.04 0 0 Z " fill="#18181A" transform="translate(928,594)"/>
</svg>
