<?xml version="1.0" encoding="UTF-8"?>
<svg version="1.1" xmlns="http://www.w3.org/2000/svg" width="4961" height="3508">
<path d="M0 0 C1637.13 0 3274.26 0 4961 0 C4961 1157.64 4961 2315.28 4961 3508 C3323.87 3508 1686.74 3508 0 3508 C0 2350.36 0 1192.72 0 0 Z " fill="#040404" transform="translate(0,0)"/>
<path d="M0 0 C168.96358971 0 168.96358971 0 198.875 29.25 C215.90373901 46.665178 220.44757295 67.8076963 220.36132812 91.43261719 C220.05780643 111.36561962 213.5914989 129.18708533 200 144 C199.33613281 144.75539063 198.67226562 145.51078125 197.98828125 146.2890625 C181.51678141 164.00886454 157.29995302 171.70242751 134 175 C136.8462626 180.97037464 140.09465006 186.43175189 143.75 191.9375 C144.91623295 193.71297158 146.08155562 195.48904133 147.24609375 197.265625 C147.8582373 198.19826172 148.47038086 199.13089844 149.10107422 200.09179688 C152.37238526 205.10180679 155.59169877 210.14492691 158.8125 215.1875 C159.47950928 216.23091553 160.14651855 217.27433105 160.83374023 218.34936523 C162.1993127 220.48583855 163.5646267 222.62247708 164.9296875 224.75927734 C168.38884012 230.17399337 171.8500823 235.58737131 175.3125 241 C175.98369873 242.04929687 176.65489746 243.09859375 177.34643555 244.1796875 C181.51628775 250.69414861 185.70845027 257.19355957 189.91918945 263.68164062 C194.25783853 270.37717675 198.53167149 277.11363175 202.80908203 283.84838867 C206.34754428 289.41553701 209.90820704 294.9671303 213.5 300.5 C215.3350883 303.33220032 217.16808335 306.16574724 219 309 C219.60505371 309.93569824 220.21010742 310.87139648 220.83349609 311.83544922 C222.78985289 314.86626661 224.73936421 317.90139321 226.6875 320.9375 C227.31269531 321.90429688 227.93789062 322.87109375 228.58203125 323.8671875 C229.15695313 324.76566406 229.731875 325.66414063 230.32421875 326.58984375 C230.84072998 327.39284912 231.35724121 328.19585449 231.8894043 329.02319336 C233 331 233 331 233 333 C195.21284835 336.61339336 195.21284835 336.61339336 185.78369141 331.12939453 C180.94255143 326.05345772 178.64878222 319.79701578 176.30517578 313.27978516 C174.12631792 307.80451832 170.85905295 303.08776576 167.625 298.1875 C166.36427387 296.18836493 165.10911132 294.18571106 163.859375 292.1796875 C163.22837891 291.17131836 162.59738281 290.16294922 161.94726562 289.12402344 C157.88161407 282.60144604 153.86369634 276.04944094 149.84033203 269.50073242 C145.73946687 262.82596249 141.6275914 256.15827438 137.5 249.5 C133.37181302 242.84076488 129.25928097 236.17215408 125.15795898 229.49633789 C119.11722404 219.66445598 113.05328439 209.84790872 106.9375 200.0625 C106.34275879 199.11076904 105.74801758 198.15903809 105.13525391 197.1784668 C101.12082199 190.76544292 97.06216705 184.38340537 93 178 C74.19 178 55.38 178 36 178 C35.67 229.15 35.34 280.3 35 333 C23.45 333 11.9 333 0 333 C0 223.11 0 113.22 0 0 Z " fill="#C4031A" transform="translate(3445,1621)"/>
<path d="M0 0 C11.55 0 23.1 0 35 0 C40.07824879 9.99955391 44.90808662 20.03562124 49.41195679 30.30465698 C51.1243078 34.20811406 52.85035821 38.10552195 54.57421875 42.00390625 C54.93346939 42.81722916 55.29272003 43.63055206 55.66285706 44.46852112 C59.79318684 53.81155149 63.98934896 63.12479822 68.1875 72.4375 C68.95389857 74.13840919 69.72025619 75.83933684 70.48657227 77.5402832 C71.60737047 80.0280401 72.72818077 82.51579151 73.84916687 85.00346375 C78.73415887 95.84579997 83.5945547 106.69914144 88.45556641 117.55224609 C91.13574692 123.53541226 93.81800678 129.51764623 96.5 135.5 C97.58334267 137.91666248 98.66667602 140.33332914 99.75 142.75 C100.554375 144.544375 100.554375 144.544375 101.375 146.375 C107.33333333 159.66666667 113.29166667 172.95833333 119.25 186.25 C119.78592773 187.4455249 120.32185547 188.6410498 120.87402344 189.87280273 C121.96063066 192.29678525 123.04721911 194.72077617 124.13378906 197.14477539 C126.79188033 203.07457775 129.45026509 209.00424811 132.109375 214.93359375 C138.61308459 229.43686613 145.10819007 243.94396157 151.59738159 258.45373535 C155.7967072 267.84337165 159.99908765 277.23161276 164.21020508 286.6159668 C166.28546205 291.24173767 168.35777559 295.86882381 170.4296875 300.49609375 C171.52469002 302.93942027 172.62088025 305.38218206 173.71875 307.82421875 C175.14834927 311.00431217 176.57433367 314.18600401 177.99789429 317.36880493 C178.7946471 319.14764147 179.59515711 320.92479362 180.39575195 322.7019043 C180.86972412 323.76320557 181.34369629 324.82450684 181.83203125 325.91796875 C182.25202393 326.85406982 182.6720166 327.7901709 183.10473633 328.75463867 C184 331 184 331 184 333 C170.8 333 157.6 333 144 333 C137.51548033 318.99343751 131.18209228 304.94038431 125.07861328 290.76416016 C124.53161374 289.49379865 123.98457559 288.22345376 123.4375 286.953125 C123.16348358 286.31672089 122.88946716 285.68031677 122.60714722 285.02462769 C120.44929695 280.02152764 118.26053291 275.0324351 116.0625 270.046875 C115.73748001 269.30864502 115.41246002 268.57041504 115.07759094 267.80981445 C113.16211106 263.45889564 113.16211106 263.45889564 111.23959351 259.11108398 C110.35835882 257.1223221 109.48150945 255.13167902 108.60546875 253.140625 C108.10168701 252.00141602 107.59790527 250.86220703 107.07885742 249.68847656 C106 247 106 247 106 245 C82.99103265 244.99045157 59.98232752 245.01499106 36.97344589 245.0802784 C26.2903507 245.10979395 15.60745481 245.12809149 4.92431641 245.12011719 C-4.38552146 245.11319628 -13.69505099 245.12718372 -23.00481296 245.16643608 C-27.93582827 245.18649214 -32.86635914 245.19597092 -37.79740143 245.18042374 C-42.43678781 245.16612616 -47.07524706 245.1797399 -51.71451378 245.21495247 C-53.41890242 245.22293448 -55.12337431 245.22063585 -56.82773018 245.20739174 C-59.15271904 245.19084978 -61.47458332 245.21102487 -63.79937744 245.24050903 C-65.75173498 245.24327441 -65.75173498 245.24327441 -67.74353409 245.24609566 C-71.24498124 245.70954129 -71.24498124 245.70954129 -73.3544426 248.84773064 C-75.04713611 252.09029507 -76.58351456 255.32391087 -78.00390625 258.6953125 C-78.27987137 259.34487411 -78.55583649 259.99443573 -78.84016418 260.66368103 C-79.43906598 262.07520272 -80.03519939 263.4879016 -80.62884521 264.90164185 C-81.91261884 267.95875525 -83.20980617 271.01012062 -84.50604248 274.06196594 C-85.20599621 275.71034276 -85.90523878 277.35902172 -86.6038208 279.00798035 C-90.72051494 288.71986804 -94.90365313 298.40300142 -99.08859253 308.08563232 C-100.36550738 311.04053318 -101.64100506 313.99604251 -102.91625977 316.95166016 C-103.70192276 318.77118602 -104.4876457 320.59068601 -105.2734375 322.41015625 C-105.63629349 323.2512645 -105.99914948 324.09237274 -106.3730011 324.95896912 C-106.87164925 326.11248619 -106.87164925 326.11248619 -107.38037109 327.28930664 C-107.67044037 327.96095352 -107.96050964 328.6326004 -108.2593689 329.32460022 C-108.80745447 330.56443803 -109.39376645 331.7875329 -110 333 C-122.87 333 -135.74 333 -149 333 C-148.20100138 328.20600828 -147.52040364 325.5102108 -145.515625 321.30859375 C-144.74182495 319.66842285 -144.74182495 319.66842285 -143.95239258 317.99511719 C-143.39060303 316.82110352 -142.82881348 315.64708984 -142.25 314.4375 C-141.04695774 311.89111828 -139.84978651 309.34198748 -138.65234375 306.79296875 C-138.34556198 306.14159943 -138.03878021 305.4902301 -137.72270203 304.81912231 C-134.67234179 298.33189994 -131.73223467 291.79697552 -128.8125 285.25 C-128.00681307 283.44613869 -127.20112515 281.64227781 -126.39538574 279.83843994 C-125.83282728 278.57885883 -125.27041097 277.31921423 -124.70812988 276.05950928 C-120.94723348 267.63629026 -117.16078893 259.22455283 -113.375 250.8125 C-112.99695221 249.97231323 -112.61890442 249.13212646 -112.22940063 248.26647949 C-105.93931506 234.28865941 -99.62570245 220.32155909 -93.30389404 206.35806274 C-87.51890343 193.57966715 -81.75173755 180.79339609 -76 168 C-69.45493012 153.44202153 -62.88555915 138.89521381 -56.30224609 124.35449219 C-50.51780986 111.57728379 -44.7514285 98.7920981 -39 86 C-26.09099502 57.29198331 -13.15441279 28.59654955 0 0 Z " fill="#C5041B" transform="translate(3064,1621)"/>
<path d="M0 0 C11.55 0 23.1 0 35 0 C40.07824879 9.99955391 44.90808662 20.03562124 49.41195679 30.30465698 C51.1243078 34.20811406 52.85035821 38.10552195 54.57421875 42.00390625 C54.93346939 42.81722916 55.29272003 43.63055206 55.66285706 44.46852112 C59.79318684 53.81155149 63.98934896 63.12479822 68.1875 72.4375 C68.95389857 74.13840919 69.72025619 75.83933684 70.48657227 77.5402832 C71.60737047 80.0280401 72.72818077 82.51579151 73.84916687 85.00346375 C78.73415887 95.84579997 83.5945547 106.69914144 88.45556641 117.55224609 C91.13574692 123.53541226 93.81800678 129.51764623 96.5 135.5 C97.58334267 137.91666248 98.66667602 140.33332914 99.75 142.75 C100.554375 144.544375 100.554375 144.544375 101.375 146.375 C107.33333333 159.66666667 113.29166667 172.95833333 119.25 186.25 C119.78592773 187.4455249 120.32185547 188.6410498 120.87402344 189.87280273 C121.96063066 192.29678525 123.04721911 194.72077617 124.13378906 197.14477539 C126.79188033 203.07457775 129.45026509 209.00424811 132.109375 214.93359375 C138.61308459 229.43686613 145.10819007 243.94396157 151.59738159 258.45373535 C155.7967072 267.84337165 159.99908765 277.23161276 164.21020508 286.6159668 C166.28546205 291.24173767 168.35777559 295.86882381 170.4296875 300.49609375 C171.52469002 302.93942027 172.62088025 305.38218206 173.71875 307.82421875 C175.14834927 311.00431217 176.57433367 314.18600401 177.99789429 317.36880493 C178.7946471 319.14764147 179.59515711 320.92479362 180.39575195 322.7019043 C180.86972412 323.76320557 181.34369629 324.82450684 181.83203125 325.91796875 C182.25202393 326.85406982 182.6720166 327.7901709 183.10473633 328.75463867 C184 331 184 331 184 333 C170.8 333 157.6 333 144 333 C137.51548033 318.99343751 131.18209228 304.94038431 125.07861328 290.76416016 C124.53161374 289.49379865 123.98457559 288.22345376 123.4375 286.953125 C123.16348358 286.31672089 122.88946716 285.68031677 122.60714722 285.02462769 C120.44929695 280.02152764 118.26053291 275.0324351 116.0625 270.046875 C115.73748001 269.30864502 115.41246002 268.57041504 115.07759094 267.80981445 C113.16211106 263.45889564 113.16211106 263.45889564 111.23959351 259.11108398 C110.35835882 257.1223221 109.48150945 255.13167902 108.60546875 253.140625 C108.10168701 252.00141602 107.59790527 250.86220703 107.07885742 249.68847656 C106 247 106 247 106 245 C82.99103265 244.99045157 59.98232752 245.01499106 36.97344589 245.0802784 C26.2903507 245.10979395 15.60745481 245.12809149 4.92431641 245.12011719 C-4.38552146 245.11319628 -13.69505099 245.12718372 -23.00481296 245.16643608 C-27.93582827 245.18649214 -32.86635914 245.19597092 -37.79740143 245.18042374 C-42.43678781 245.16612616 -47.07524706 245.1797399 -51.71451378 245.21495247 C-53.41890242 245.22293448 -55.12337431 245.22063585 -56.82773018 245.20739174 C-59.15271904 245.19084978 -61.47458332 245.21102487 -63.79937744 245.24050903 C-65.75173498 245.24327441 -65.75173498 245.24327441 -67.74353409 245.24609566 C-71.24498124 245.70954129 -71.24498124 245.70954129 -73.3544426 248.84773064 C-75.04713611 252.09029507 -76.58351456 255.32391087 -78.00390625 258.6953125 C-78.27987137 259.34487411 -78.55583649 259.99443573 -78.84016418 260.66368103 C-79.43906598 262.07520272 -80.03519939 263.4879016 -80.62884521 264.90164185 C-81.91261884 267.95875525 -83.20980617 271.01012062 -84.50604248 274.06196594 C-85.20599621 275.71034276 -85.90523878 277.35902172 -86.6038208 279.00798035 C-90.72051494 288.71986804 -94.90365313 298.40300142 -99.08859253 308.08563232 C-100.36550738 311.04053318 -101.64100506 313.99604251 -102.91625977 316.95166016 C-103.70192276 318.77118602 -104.4876457 320.59068601 -105.2734375 322.41015625 C-105.63629349 323.2512645 -105.99914948 324.09237274 -106.3730011 324.95896912 C-106.87164925 326.11248619 -106.87164925 326.11248619 -107.38037109 327.28930664 C-107.67044037 327.96095352 -107.96050964 328.6326004 -108.2593689 329.32460022 C-108.80745447 330.56443803 -109.39376645 331.7875329 -110 333 C-122.87 333 -135.74 333 -149 333 C-148.20100138 328.20600828 -147.52040364 325.5102108 -145.515625 321.30859375 C-144.74182495 319.66842285 -144.74182495 319.66842285 -143.95239258 317.99511719 C-143.39060303 316.82110352 -142.82881348 315.64708984 -142.25 314.4375 C-141.04695774 311.89111828 -139.84978651 309.34198748 -138.65234375 306.79296875 C-138.34556198 306.14159943 -138.03878021 305.4902301 -137.72270203 304.81912231 C-134.67234179 298.33189994 -131.73223467 291.79697552 -128.8125 285.25 C-128.00681307 283.44613869 -127.20112515 281.64227781 -126.39538574 279.83843994 C-125.83282728 278.57885883 -125.27041097 277.31921423 -124.70812988 276.05950928 C-120.94723348 267.63629026 -117.16078893 259.22455283 -113.375 250.8125 C-112.99695221 249.97231323 -112.61890442 249.13212646 -112.22940063 248.26647949 C-105.93931506 234.28865941 -99.62570245 220.32155909 -93.30389404 206.35806274 C-87.51890343 193.57966715 -81.75173755 180.79339609 -76 168 C-69.45493012 153.44202153 -62.88555915 138.89521381 -56.30224609 124.35449219 C-50.51780986 111.57728379 -44.7514285 98.7920981 -39 86 C-26.09099502 57.29198331 -13.15441279 28.59654955 0 0 Z " fill="#C5041B" transform="translate(2055,1621)"/>
<path d="M0 0 C161.57037643 0 161.57037643 0 193.25 29.6875 C209.15989086 46.39935284 215.57479839 67.72822541 215.28320312 90.47265625 C214.62519156 113.40336224 207.32153934 132.64941877 191 149 C190.39929687 149.61230469 189.79859375 150.22460938 189.1796875 150.85546875 C164.74835945 173.96475524 127.96080581 177.99584852 95.9609375 178.31640625 C94.42227708 178.33484823 92.88362137 178.35368683 91.3449707 178.3729248 C85.68836933 178.44090536 80.03167832 178.50125576 74.375 178.5625 C61.71125 178.706875 49.0475 178.85125 36 179 C35.67 229.49 35.34 279.98 35 332 C23.45 332 11.9 332 0 332 C0 222.44 0 112.88 0 0 Z " fill="#C40219" transform="translate(1121,1621)"/>
<path d="M0 0 C14.85 0 29.7 0 45 0 C48.96 5.61 52.92 11.22 57 17 C59.16010607 20.00536497 61.32286884 23.00718618 63.5 26 C68.2131358 32.50185602 72.86636363 39.04273459 77.48486328 45.61206055 C81.07395681 50.70904329 84.71423156 55.76681434 88.375 60.8125 C93.58542777 67.9971426 98.68980941 75.25087487 103.76464844 82.53173828 C108.19417512 88.87597153 112.70232196 95.15913413 117.24609375 101.421875 C120.86978554 106.42098265 124.44897885 111.449049 128 116.5 C132.12386145 122.36491143 136.29314288 128.19433732 140.5 134 C145.21040657 140.50058483 149.86297608 147.0386388 154.48046875 153.60546875 C158.11454566 158.7656672 161.79671401 163.8892894 165.5 169 C170.21135076 175.50188787 174.86610019 182.04039812 179.48266602 188.60986328 C183.0883889 193.73219942 186.75403712 198.80837945 190.4375 203.875 C194.92548069 210.05158761 199.28141847 216.30345079 203.5625 222.625 C208.02334376 229.20919739 212.65682078 235.61245737 217.47631836 241.9375 C221.88904533 247.76598595 226.02501856 253.76608018 230.109375 259.828125 C234.94368734 266.99100664 239.96829764 273.95561669 245 281 C245.33 188.27 245.66 95.54 246 0 C257.88 0 269.76 0 282 0 C282 109.56 282 219.12 282 332 C267.15 332 252.3 332 237 332 C229.12868507 321.87973795 229.12868507 321.87973795 226.67578125 318.34375 C226.12841309 317.55782471 225.58104492 316.77189941 225.01708984 315.9621582 C224.4545752 315.149646 223.89206055 314.33713379 223.3125 313.5 C222.08232185 311.73287058 220.85184817 309.96594686 219.62109375 308.19921875 C219.01249512 307.32442871 218.40389648 306.44963867 217.77685547 305.54833984 C215.15797719 301.79238333 212.51833168 298.05127037 209.875 294.3125 C209.38813721 293.62349609 208.90127441 292.93449219 208.3996582 292.22460938 C207.42248998 290.84187009 206.44519578 289.45921982 205.46777344 288.07666016 C202.97679014 284.55232484 200.48855097 281.02605299 198 277.5 C197.00001278 276.08332432 196.00001278 274.66665764 195 273.25 C129 179.75 129 179.75 127.50024414 177.62524414 C126.49955812 176.20767346 125.49874417 174.79019308 124.49780273 173.37280273 C122.00724549 169.84569428 119.51888408 166.31707783 117.03515625 162.78515625 C111.92767914 155.52764888 106.77954977 148.30420414 101.5625 141.125 C96.5362144 134.20307811 91.67796046 127.18062454 86.87304688 120.10375977 C82.6723401 113.93570518 78.33676174 107.87684777 73.94750977 101.84204102 C69.88471399 96.24800098 65.89497194 90.60648748 61.9375 84.9375 C61.35685791 84.10581299 60.77621582 83.27412598 60.17797852 82.41723633 C59.02072924 80.75918723 57.86358303 79.10106619 56.70654297 77.44287109 C53.97954144 73.53924058 51.24219311 69.64296967 48.5 65.75 C48.03198975 65.08347412 47.56397949 64.41694824 47.08178711 63.73022461 C44.19155427 59.63068066 41.20719822 55.62611462 38.11914062 51.67285156 C37 50 37 50 37 48 C36.34 48 35.68 48 35 48 C35 141.72 35 235.44 35 332 C23.45 332 11.9 332 0 332 C0 222.44 0 112.88 0 0 Z " fill="#C5041B" transform="translate(2436,1621)"/>
<path d="M0 0 C11.55 0 23.1 0 35 0 C35 99.66 35 199.32 35 302 C88.46 302 141.92 302 197 302 C197 311.9 197 321.8 197 332 C131.99 332 66.98 332 0 332 C0 222.44 0 112.88 0 0 Z " fill="#C40017" transform="translate(1551,1621)"/>
<path d="M0 0 C12.560625 -0.04125 25.12125 -0.0825 38.0625 -0.125 C41.99808838 -0.14320801 45.93367676 -0.16141602 49.98852539 -0.18017578 C54.87194824 -0.18920898 54.87194824 -0.18920898 57.17308044 -0.19088745 C58.74743284 -0.19391696 60.32178122 -0.20086202 61.89610291 -0.21115112 C85.67289844 -0.35849518 114.54291266 2.14976497 133 19 C133.59941406 19.52078125 134.19882813 20.0415625 134.81640625 20.578125 C144.80267145 29.80948894 149.47017583 42.08229576 150.3828125 55.5078125 C150.99242039 71.14392361 146.79013434 85.97650076 136 97.6875 C130.36664169 102.98836668 123.84419446 106.53448516 117 110 C116.20207031 110.41121094 115.40414062 110.82242187 114.58203125 111.24609375 C97.60818695 118.96693974 77.44313446 119.15716535 59.1796875 119.09765625 C57.66088905 119.09618287 56.14209008 119.0951646 54.62329102 119.09460449 C49.04051952 119.08939747 43.45775894 119.0754363 37.875 119.0625 C25.37625 119.041875 12.8775 119.02125 0 119 C0 79.73 0 40.46 0 0 Z " fill="#FEFEFE" transform="translate(3480,1650)"/>
<path d="M0 0 C17.9746875 -0.0928125 17.9746875 -0.0928125 36.3125 -0.1875 C40.05505127 -0.21481201 43.79760254 -0.24212402 47.65356445 -0.27026367 C52.32849121 -0.28381348 52.32849121 -0.28381348 54.53727722 -0.28633118 C56.03563637 -0.29084978 57.53398673 -0.30120955 59.03227234 -0.31672668 C74.63322166 -0.46980299 90.19784473 1.03273676 105 6.25 C105.87664307 6.55083496 106.75328613 6.85166992 107.65649414 7.16162109 C114.47199302 9.59866676 120.2386377 12.56818285 126 17 C127.0725 17.7425 128.145 18.485 129.25 19.25 C141.61194634 31.61194634 144.34307314 46.61547999 144.45751953 63.36791992 C144.24270837 76.75818493 139.34295223 89.37408236 129.97265625 99.10546875 C109.94158409 117.86919715 83.67363676 120.18551885 57.51953125 120.09765625 C56.0414636 120.0961823 54.56339543 120.09516439 53.08532715 120.09460449 C47.66104337 120.08940411 42.23677083 120.07544302 36.8125 120.0625 C18.5903125 120.0315625 18.5903125 120.0315625 0 120 C0 80.4 0 40.8 0 0 Z " fill="#FEFEFE" transform="translate(1156,1650)"/>
<path d="M0 0 C3.17105544 2.62367087 4.46173043 5.91883058 6 9.625 C6.61899866 11.07846298 7.23884802 12.53156385 7.859375 13.984375 C8.19904297 14.78423828 8.53871094 15.58410156 8.88867188 16.40820312 C10.51466837 20.20028984 12.1906505 23.96981144 13.86230469 27.74194336 C18.73879818 38.7518028 23.48484397 49.81185426 28.15966797 60.90869141 C30.78611345 67.14050459 33.43941669 73.35670381 36.16601562 79.54541016 C38.9388624 85.84221708 41.66865577 92.15753542 44.40002441 98.47241211 C48.77242474 108.58111532 53.17129685 118.67676193 57.625 128.75 C61.4849646 137.49218356 65.27076431 146.26373759 69 155.0625 C69.45713379 156.13918945 69.91426758 157.21587891 70.38525391 158.32519531 C71.02986572 159.85225098 71.02986572 159.85225098 71.6875 161.41015625 C72.25017578 162.74252319 72.25017578 162.74252319 72.82421875 164.10180664 C74.28670802 167.70670907 75.6340352 171.35742721 77 175 C26.84 175 -23.32 175 -75 175 C-74.21171142 171.05855708 -73.41717002 168.35670407 -71.8125 164.78125 C-71.36600098 163.77811768 -70.91950195 162.77498535 -70.45947266 161.74145508 C-69.97784668 160.6717749 -69.4962207 159.60209473 -69 158.5 C-67.98615314 156.22302387 -66.97314353 153.94567477 -65.9609375 151.66796875 C-65.20441895 149.96906494 -65.20441895 149.96906494 -64.43261719 148.23583984 C-62.45871424 143.77740261 -60.53580895 139.29826227 -58.625 134.8125 C-55.02751762 126.38385644 -51.39620194 117.97016067 -47.75 109.5625 C-47.47496643 108.92825104 -47.19993286 108.29400208 -46.91656494 107.64053345 C-45.50777454 104.39192169 -44.09868795 101.14343852 -42.68945312 97.89501953 C-41.03685077 94.08535497 -39.38540219 90.27519119 -37.734375 86.46484375 C-37.46719162 85.84822372 -37.20000824 85.2316037 -36.92472839 84.59629822 C-35.84630692 82.10738131 -34.76793791 79.61844167 -33.68960571 77.12948608 C-30.9735118 70.86037481 -28.25708514 64.59141093 -25.5369873 58.32403564 C-24.17010539 55.17452459 -22.8037849 52.02477008 -21.4375 48.875 C-21.17108704 48.26100342 -20.90467407 47.64700684 -20.63018799 47.0144043 C-17.60944463 40.05097707 -14.60227847 33.08202641 -11.62109375 26.1015625 C-11.34649826 25.45895477 -11.07190277 24.81634705 -10.78898621 24.15426636 C-9.47966493 21.08946196 -8.17257737 18.02375391 -6.86889648 14.95654297 C-6.40427002 13.86744629 -5.93964355 12.77834961 -5.4609375 11.65625 C-4.85451416 10.23022461 -4.85451416 10.23022461 -4.23583984 8.77539062 C-2.91186728 5.8020757 -1.47550496 2.90070253 0 0 Z " fill="#FEFDFD" transform="translate(3080,1660)"/>
<path d="M0 0 C3.17105544 2.62367087 4.46173043 5.91883058 6 9.625 C6.61899866 11.07846298 7.23884802 12.53156385 7.859375 13.984375 C8.19904297 14.78423828 8.53871094 15.58410156 8.88867188 16.40820312 C10.51466837 20.20028984 12.1906505 23.96981144 13.86230469 27.74194336 C18.73879818 38.7518028 23.48484397 49.81185426 28.15966797 60.90869141 C30.78611345 67.14050459 33.43941669 73.35670381 36.16601562 79.54541016 C38.9388624 85.84221708 41.66865577 92.15753542 44.40002441 98.47241211 C48.77242474 108.58111532 53.17129685 118.67676193 57.625 128.75 C61.4849646 137.49218356 65.27076431 146.26373759 69 155.0625 C69.45713379 156.13918945 69.91426758 157.21587891 70.38525391 158.32519531 C71.02986572 159.85225098 71.02986572 159.85225098 71.6875 161.41015625 C72.25017578 162.74252319 72.25017578 162.74252319 72.82421875 164.10180664 C74.28670802 167.70670907 75.6340352 171.35742721 77 175 C26.84 175 -23.32 175 -75 175 C-74.21171142 171.05855708 -73.41717002 168.35670407 -71.8125 164.78125 C-71.36600098 163.77811768 -70.91950195 162.77498535 -70.45947266 161.74145508 C-69.97784668 160.6717749 -69.4962207 159.60209473 -69 158.5 C-67.98615314 156.22302387 -66.97314353 153.94567477 -65.9609375 151.66796875 C-65.20441895 149.96906494 -65.20441895 149.96906494 -64.43261719 148.23583984 C-62.45871424 143.77740261 -60.53580895 139.29826227 -58.625 134.8125 C-55.02751762 126.38385644 -51.39620194 117.97016067 -47.75 109.5625 C-47.47496643 108.92825104 -47.19993286 108.29400208 -46.91656494 107.64053345 C-45.50777454 104.39192169 -44.09868795 101.14343852 -42.68945312 97.89501953 C-41.03685077 94.08535497 -39.38540219 90.27519119 -37.734375 86.46484375 C-37.46719162 85.84822372 -37.20000824 85.2316037 -36.92472839 84.59629822 C-35.84630692 82.10738131 -34.76793791 79.61844167 -33.68960571 77.12948608 C-30.9735118 70.86037481 -28.25708514 64.59141093 -25.5369873 58.32403564 C-24.17010539 55.17452459 -22.8037849 52.02477008 -21.4375 48.875 C-21.17108704 48.26100342 -20.90467407 47.64700684 -20.63018799 47.0144043 C-17.60944463 40.05097707 -14.60227847 33.08202641 -11.62109375 26.1015625 C-11.34649826 25.45895477 -11.07190277 24.81634705 -10.78898621 24.15426636 C-9.47966493 21.08946196 -8.17257737 18.02375391 -6.86889648 14.95654297 C-6.40427002 13.86744629 -5.93964355 12.77834961 -5.4609375 11.65625 C-4.85451416 10.23022461 -4.85451416 10.23022461 -4.23583984 8.77539062 C-2.91186728 5.8020757 -1.47550496 2.90070253 0 0 Z " fill="#FEFDFD" transform="translate(2071,1660)"/>
</svg>
