<?xml version="1.0" encoding="UTF-8"?>
<svg version="1.1" xmlns="http://www.w3.org/2000/svg" width="1080" height="1080">
<path d="M0 0 C356.4 0 712.8 0 1080 0 C1080 356.4 1080 712.8 1080 1080 C723.6 1080 367.2 1080 0 1080 C0 723.6 0 367.2 0 0 Z " fill="#FEFEFE" transform="translate(0,0)"/>
<path d="M0 0 C3.09289632 0.03142988 6.18527913 0.04102066 9.27832031 0.046875 C36.80267143 0.15155756 36.80267143 0.15155756 44.20019531 3.28125 C46.62866996 3.78522079 49.06790493 4.23854712 51.51269531 4.65625 C97.02258075 12.81244444 140.64397416 34.39134805 174.20019531 66.28125 C175.58959542 67.49697509 176.98501122 68.70587611 178.38769531 69.90625 C193.97456325 83.48909206 206.99406219 100.15575753 218.08154297 117.53613281 C219.10766291 119.13689783 220.15861635 120.72167307 221.21191406 122.3046875 C231.80758651 138.68177149 242.42369693 158.84576132 245.20019531 178.28125 C238.27019531 178.28125 231.34019531 178.28125 224.20019531 178.28125 C223.51957031 176.63125 222.83894531 174.98125 222.13769531 173.28125 C221.15940003 170.94755119 220.18015497 168.6142504 219.20019531 166.28125 C218.94850586 165.67120117 218.69681641 165.06115234 218.4375 164.43261719 C208.95479932 141.49521667 195.74759734 121.52755038 180.20019531 102.28125 C175.0765355 103.95511496 170.97257521 107.00673302 166.57519531 110.03125 C159.95671152 114.52231607 153.35610598 118.68753275 146.20019531 122.28125 C146.84546681 125.82068368 147.74153974 129.15611017 148.87207031 132.5703125 C149.20464844 133.58561035 149.53722656 134.6009082 149.87988281 135.64697266 C150.4096875 137.26031494 150.4096875 137.26031494 150.95019531 138.90625 C153.52467681 146.86468539 156.02952006 154.82723753 158.20019531 162.90625 C158.40741211 163.65600098 158.61462891 164.40575195 158.828125 165.17822266 C159.0127832 165.8851123 159.19744141 166.59200195 159.38769531 167.3203125 C159.62552734 168.22064209 159.62552734 168.22064209 159.86816406 169.13916016 C160.33524941 172.15254756 160.20019531 175.23187754 160.20019531 178.28125 C153.27019531 178.28125 146.34019531 178.28125 139.20019531 178.28125 C138.54019531 175.31125 137.88019531 172.34125 137.20019531 169.28125 C134.36982308 157.00511512 130.36154766 145.16041423 126.20019531 133.28125 C120.78750706 133.88457512 116.39322173 135.77889036 111.45019531 137.90625 C81.19052087 150.39065597 44.06740281 158.49855398 11.20019531 157.28125 C11.20019531 164.21125 11.20019531 171.14125 11.20019531 178.28125 C4.27019531 178.28125 -2.65980469 178.28125 -9.79980469 178.28125 C-9.79980469 171.35125 -9.79980469 164.42125 -9.79980469 157.28125 C-12.79042969 157.36375 -15.78105469 157.44625 -18.86230469 157.53125 C-38.4717796 157.72522317 -58.8952481 155.00496532 -77.81005859 149.81982422 C-80.00167179 149.22660965 -82.20171793 148.67603674 -84.40527344 148.12890625 C-93.38243242 145.87323342 -102.18200428 143.2882074 -110.92651367 140.24853516 C-114.53842951 138.99718243 -118.04539563 137.98211619 -121.79980469 137.28125 C-124.89304708 145.30665877 -127.30974529 153.40227587 -129.48730469 161.71875 C-129.79474609 162.87568359 -130.1021875 164.03261719 -130.41894531 165.22460938 C-131.57173692 169.57091122 -132.70921237 173.91888073 -133.79980469 178.28125 C-140.72980469 178.28125 -147.65980469 178.28125 -154.79980469 178.28125 C-154.15476962 172.47593435 -153.56737555 167.75079733 -152.09277344 162.26171875 C-151.75310547 160.99134766 -151.4134375 159.72097656 -151.06347656 158.41210938 C-150.8861499 157.76266357 -150.70882324 157.11321777 -150.52612305 156.4440918 C-149.99171478 154.48491768 -149.46820567 152.52308117 -148.94628906 150.56054688 C-146.82774973 142.70247511 -144.47503604 134.96771645 -141.79980469 127.28125 C-142.29681885 127.03068848 -142.79383301 126.78012695 -143.3059082 126.52197266 C-152.96312492 121.62394785 -162.32642259 116.61181404 -171.1652832 110.33056641 C-174.63091868 107.82819352 -174.63091868 107.82819352 -178.79980469 107.28125 C-180.63596115 109.4076475 -182.24993646 111.49276372 -183.86230469 113.78125 C-184.34836182 114.46123047 -184.83441895 115.14121094 -185.33520508 115.84179688 C-193.08987954 126.81090288 -199.88382392 138.16183736 -206.17480469 150.03125 C-206.92491821 151.43213867 -206.92491821 151.43213867 -207.69018555 152.86132812 C-210.68739655 158.62391048 -212.99493534 164.36123032 -214.92724609 170.56347656 C-215.7663621 173.17708579 -216.78033431 175.73257407 -217.79980469 178.28125 C-225.05980469 178.28125 -232.31980469 178.28125 -239.79980469 178.28125 C-237.72912385 165.85716496 -232.37198972 154.49447786 -226.79980469 143.28125 C-226.43757813 142.54745117 -226.07535156 141.81365234 -225.70214844 141.05761719 C-215.43459592 120.42679767 -202.59521484 101.59382272 -186.97167969 84.640625 C-185.50287656 83.04501872 -184.05531398 81.42963833 -182.62792969 79.796875 C-166.63640085 61.5370442 -146.62646248 46.40606024 -125.62304688 34.33544922 C-123.84036117 33.30469977 -122.07305625 32.2513667 -120.30761719 31.19140625 C-111.76823952 26.11325204 -102.99541627 22.01354705 -93.79980469 18.28125 C-93.16349121 18.02102051 -92.52717773 17.76079102 -91.87158203 17.49267578 C-76.54553792 11.29386287 -60.60889 6.51581133 -44.25952148 3.98852539 C-41.38341295 3.54339662 -38.52390775 3.05016366 -35.66503906 2.50561523 C-23.73244587 0.30928224 -12.11528222 -0.12382275 0 0 Z " fill="#1D244D" transform="translate(539.7998046875,285.71875)"/>
<path d="M0 0 C7.26 0 14.52 0 22 0 C22.99 2.825625 23.98 5.65125 25 8.5625 C28.24456623 17.54513454 32.30409919 25.70682527 37 34 C37.91692446 35.77069986 38.83360763 37.54152471 39.75 39.3125 C46.79249924 52.13444156 55.30647775 64.06261871 65 75 C69.74003083 72.34051705 74.330222 69.54064151 78.875 66.5625 C85.69216585 62.14180297 92.42329395 57.99348754 100 55 C99.71801758 54.14994385 99.43603516 53.2998877 99.14550781 52.42407227 C87.4218742 16.95311937 87.4218742 16.95311937 85 0 C91.93 0 98.86 0 106 0 C108.3125 8.9375 108.3125 8.9375 109.02075195 11.69506836 C110.46173785 17.21498838 112.13692027 22.60913013 114 28 C114.68218115 30.00784484 115.36192502 32.01649872 116.04101562 34.02539062 C116.48150455 35.32822645 116.9243078 36.63028155 117.36914062 37.93164062 C119 42.77464856 119 42.77464856 119 45 C120.12535156 44.55269531 121.25070312 44.10539063 122.41015625 43.64453125 C138.56609883 37.26084266 154.41396834 32.20826691 171.42382812 28.60668945 C173.40144571 28.14095976 175.35989408 27.59322669 177.30639648 27.01098633 C181.20303035 25.94442801 185.07391012 25.26993868 189.06640625 24.7109375 C190.20033058 24.54871201 190.20033058 24.54871201 191.35716248 24.38320923 C192.95103601 24.15714664 194.54528956 23.93374887 196.13989258 23.71289062 C198.5330631 23.37910568 200.92363371 23.02986425 203.31445312 22.6796875 C212.65704343 21.35141219 221.54288426 20.75993961 231 21 C231 14.4 231 7.8 231 1 C237.6 1 244.2 1 251 1 C251 7.6 251 14.2 251 21 C252.84980469 21.03738281 254.69960938 21.07476563 256.60546875 21.11328125 C271.59406719 21.47944567 286.2226364 22.29959522 301 25 C302.00015137 25.18079102 303.00030273 25.36158203 304.03076172 25.54785156 C317.56406687 28.03411127 330.81662943 31.06691543 344 35 C344.99257813 35.27714844 345.98515625 35.55429687 347.0078125 35.83984375 C351.88542625 37.21959687 356.41324607 38.95316879 360.9921875 41.1328125 C362.982395 41.99239629 364.8956868 42.49954729 367 43 C369.80195326 35.00826539 371.97173329 26.87168007 374.125 18.6875 C374.4880255 17.31698952 374.85130502 15.9465463 375.21484375 14.57617188 C376.50042484 9.723216 377.78236316 4.87054736 379 0 C385.93 0 392.86 0 400 0 C399.2907398 7.09260205 398.38924261 13.06071714 396.375 19.75 C396.1157373 20.63453857 395.85647461 21.51907715 395.58935547 22.43041992 C392.5596647 32.67156492 389.29715988 42.84233572 386 53 C386.825 53.2475 387.65 53.495 388.5 53.75 C395.8811337 56.38611918 402.29489522 60.32211529 408.8125 64.625 C409.56208984 65.11484375 410.31167969 65.6046875 411.08398438 66.109375 C414.06511984 68.05950115 417.03595747 70.02397165 420 72 C423.06618106 71.92475629 423.98285249 71.01781068 426.12109375 68.796875 C442.19879111 47.64914491 453.93712879 24.51913365 464 0 C471.26 0 478.52 0 486 0 C472.85311761 43.8229413 445.75291957 87.55057667 409.75 116.375 C406.95420974 118.61769354 404.16787698 120.85625212 401.4453125 123.1875 C393.481221 129.96545021 384.88560975 135.52670597 376 141 C375.24654297 141.46728516 374.49308594 141.93457031 373.71679688 142.41601562 C359.1886999 151.35543189 343.97912714 158.09720732 328 164 C326.9171875 164.41121094 325.834375 164.82242188 324.71875 165.24609375 C264.11051039 187.67996885 194.04417389 181.57528569 135.69360352 155.73486328 C127.54116357 151.97846238 119.74219468 147.52955294 112 143 C111.03835938 142.43796875 110.07671875 141.8759375 109.0859375 141.296875 C94.97317562 132.64570827 81.94976797 122.41629619 70 111 C68.31630659 109.51650184 66.62890799 108.03719634 64.9375 106.5625 C44.58742606 88.22792859 29.46811377 65.0326415 16.26855469 41.26538086 C15.13701067 39.24467322 13.9739197 37.24668602 12.80078125 35.25 C11.12381723 32.2234619 9.82559084 29.30239229 8.625 26.0625 C8.21121094 24.95261719 7.79742187 23.84273437 7.37109375 22.69921875 C6.91863281 21.47847656 6.46617187 20.25773438 6 19 C5.45090195 17.5683637 4.90005763 16.1373962 4.34765625 14.70703125 C3.79411725 13.2630797 3.24072955 11.81907014 2.6875 10.375 C2.28748779 9.34451538 2.28748779 9.34451538 1.87939453 8.29321289 C0.77330842 5.3781924 0 3.14637928 0 0 Z " fill="#1D244D" transform="translate(300,617)"/>
<path d="M0 0 C0.66 0 1.32 0 2 0 C3.67095778 12.19397346 5.25279974 24.37451819 6.26513672 36.64331055 C6.64501693 41.03606651 7.20031599 45.33946287 7.9609375 49.68359375 C9.1766872 56.71472631 9.87371575 63.77578453 10.5625 70.875 C10.81207181 73.41423316 11.06331285 75.95330293 11.31640625 78.4921875 C11.47798218 80.15290283 11.47798218 80.15290283 11.64282227 81.84716797 C11.99118784 84.92221447 12.48892314 87.94861802 13 91 C13.06305204 92.79067806 13.08671114 94.58337579 13.0625 96.375 C13.05347656 97.24898437 13.04445313 98.12296875 13.03515625 99.0234375 C13.01775391 100.00183594 13.01775391 100.00183594 13 101 C6.31006781 100.46048934 0.36539272 99.11293829 -6 97 C-6.2578125 97.8559375 -6.515625 98.711875 -6.78125 99.59375 C-13.60055502 118.65283326 -29.30226146 136.55582638 -43 151 C-43.62165039 151.65564941 -44.24330078 152.31129883 -44.88378906 152.98681641 C-55.19096271 163.76774489 -65.78951546 173.42757079 -78 182 C-78.71091797 182.50192871 -79.42183594 183.00385742 -80.15429688 183.52099609 C-112.68052533 206.2937396 -149.15319268 222.55209296 -187.6875 232.0625 C-188.74490387 232.32537811 -188.74490387 232.32537811 -189.82366943 232.59356689 C-200.1597063 235.1572792 -210.45694187 237.45399478 -221 239 C-222.22074219 239.20238281 -223.44148437 239.40476562 -224.69921875 239.61328125 C-232.19205918 240.80403535 -239.41720424 241.24998228 -247 241 C-244.47163112 238.47163112 -242.49388942 238.1041016 -239.0625 237.0625 C-204.2497273 225.93253882 -169.81241014 209.16563992 -140 188 C-139.30148926 187.505 -138.60297852 187.01 -137.88330078 186.5 C-129.32949282 180.38473399 -121.38297184 173.8680833 -113.76953125 166.6171875 C-111.60492668 164.57165145 -109.4249827 162.63690377 -107.125 160.75 C-103.31904153 157.52885954 -100.20748797 153.80379199 -97 150 C-96.18660156 149.07445312 -95.37320313 148.14890625 -94.53515625 147.1953125 C-77.29392377 127.46406452 -64.2947265 105.02316469 -52 82 C-52.89203125 81.8659375 -53.7840625 81.731875 -54.703125 81.59375 C-57.52340942 81.08583148 -60.04941 80.43123793 -62.75 79.5 C-63.50796875 79.2421875 -64.2659375 78.984375 -65.046875 78.71875 C-67 78 -67 78 -69 77 C-67.63367891 73.99674987 -66.05710378 71.72041297 -63.859375 69.265625 C-63.23611328 68.56888672 -62.61285156 67.87214844 -61.97070312 67.15429688 C-58.76648746 63.65157153 -55.51803381 60.1931568 -52.25 56.75 C-45.76743858 49.89116184 -39.35604061 42.97614213 -33 36 C-26.9551811 29.37948407 -20.87868249 22.79293603 -14.75 16.25 C-10.46483388 11.67418683 -6.22328733 7.07596662 -2.13671875 2.3203125 C-1 1 -1 1 0 0 Z " fill="#158809" transform="translate(856,588)"/>
<path d="M0 0 C-2.78229267 2.78229267 -6.07708403 3.42339892 -9.75 4.5625 C-17.15669667 6.94108258 -24.37072872 9.66062573 -31.5625 12.625 C-32.46516602 12.9969751 -33.36783203 13.3689502 -34.29785156 13.75219727 C-81.45950609 33.36513874 -127.08611118 60.21767241 -159 101 C-159.62777344 101.74894531 -160.25554687 102.49789062 -160.90234375 103.26953125 C-174.60726595 119.72104317 -185.60787344 138.81702452 -195 158 C-189.86810338 160.83604813 -184.6143991 162.43551329 -179 164 C-179.54645104 167.91329453 -181.29935613 169.58718985 -184.125 172.25 C-186.9298502 174.96267202 -189.6538632 177.6572106 -192.1875 180.625 C-195.67610727 184.69368014 -199.33288123 188.59305663 -203 192.5 C-207.25453087 197.0333526 -211.44200049 201.59796548 -215.49609375 206.3125 C-217.65002534 208.72937909 -219.96341644 210.97170802 -222.26953125 213.2421875 C-223.98317154 214.98290563 -225.5907046 216.77689298 -227.1875 218.625 C-230.42274302 222.36529227 -233.72513947 226.03843339 -237.0625 229.6875 C-237.55709717 230.23422363 -238.05169434 230.78094727 -238.5612793 231.34423828 C-241.82130662 234.89424982 -245.23719586 237.98640204 -249 241 C-250.64249234 233.64954112 -251.55610738 226.36828016 -252.25 218.875 C-253.63259242 204.74003692 -255.35535037 190.65361817 -257.125 176.5625 C-257.25910278 175.49054382 -257.39320557 174.41858765 -257.53137207 173.31414795 C-257.91752802 170.23133429 -258.30585452 167.14880436 -258.6953125 164.06640625 C-258.81188202 163.139384 -258.92845154 162.21236176 -259.04855347 161.25724792 C-259.61340637 156.8192982 -260.25573838 152.41207191 -261 148 C-261.11196073 145.32189925 -261.04625299 142.68267314 -261 140 C-254.64549677 141.24702151 -248.31672565 142.57364259 -242 144 C-241.7525 143.154375 -241.505 142.30875 -241.25 141.4375 C-239.88374195 137.68029036 -238.07702905 134.39336132 -236 131 C-235.60627197 130.35135986 -235.21254395 129.70271973 -234.80688477 129.03442383 C-230.54230321 122.10752133 -225.86589833 115.51441053 -221 109 C-220.36707031 108.15179688 -219.73414063 107.30359375 -219.08203125 106.4296875 C-208.06835529 92.19879703 -195.10126771 79.13665764 -181 68 C-180.38866211 67.51225098 -179.77732422 67.02450195 -179.14746094 66.52197266 C-154.96257842 47.28808966 -127.89209781 32.01368077 -99 21 C-98.28730957 20.72752441 -97.57461914 20.45504883 -96.84033203 20.17431641 C-86.07879608 16.11275967 -75.143203 12.83504206 -64 10 C-63.05543945 9.75749512 -62.11087891 9.51499023 -61.13769531 9.26513672 C-48.32758512 6.02037578 -35.52991297 3.44327511 -22.4375 1.625 C-21.2311792 1.45734131 -20.0248584 1.28968262 -18.78198242 1.11694336 C-12.46346528 0.2930979 -6.37084792 -0.17677913 0 0 Z " fill="#FE9B37" transform="translate(472,251)"/>
<path d="M0 0 C26.7922023 0 26.7922023 0 40.125 2.1875 C41.59982395 2.41921493 43.07467803 2.65073821 44.54956055 2.88208008 C66.24940884 6.34751471 86.37700693 12.57364701 107 20 C106.47616925 23.88246938 105.76367086 26.96133194 103.8828125 30.3984375 C103.44630371 31.19967041 103.00979492 32.00090332 102.56005859 32.82641602 C102.08648926 33.66744873 101.61291992 34.50848145 101.125 35.375 C100.63467285 36.25406006 100.1443457 37.13312012 99.63916016 38.03881836 C92.56211553 50.52698982 84.41477384 62.15777322 75 73 C74.17113281 73.97453125 73.34226562 74.9490625 72.48828125 75.953125 C56.22919261 94.66851457 31.9437651 111.36968677 7 115 C4.69 115 2.38 115 0 115 C0 77.05 0 39.1 0 0 Z " fill="#FDFDFD" transform="translate(551,659)"/>
<path d="M0 0 C6.99245508 0.69924551 12.7274709 1.49164788 19.25 3.625 C20.07282471 3.89296387 20.89564941 4.16092773 21.7434082 4.43701172 C43.83700947 11.86671834 63.41304538 26.87189159 78 45 C78.73347656 45.88429688 79.46695313 46.76859375 80.22265625 47.6796875 C87.83993361 57.16808687 93.94150393 67.4681324 100 78 C100.36738281 78.63405762 100.73476563 79.26811523 101.11328125 79.92138672 C106 88.39283491 106 88.39283491 106 92 C95.45672172 96.47798967 84.92696861 100.55340943 74 104 C73.1440625 104.28617187 72.288125 104.57234375 71.40625 104.8671875 C64.44107371 107.11926117 57.29316172 108.34633171 50.10107422 109.62060547 C48.0442448 109.99201064 45.99267114 110.38424301 43.94140625 110.78515625 C29.10659316 113.68059097 15.29855008 115 0 115 C0 77.05 0 39.1 0 0 Z " fill="#FDFDFD" transform="translate(551,307)"/>
<path d="M0 0 C0 37.95 0 75.9 0 115 C-26.31105809 113.80404281 -26.31105809 113.80404281 -34 112.875 C-35.00490479 112.75447266 -36.00980957 112.63394531 -37.04516602 112.50976562 C-59.87664516 109.49405781 -82.51298805 103.20413183 -104 95 C-97.54864044 74.28607594 -83.75315432 54.69393517 -69 39 C-68.13157471 38.07598389 -68.13157471 38.07598389 -67.24560547 37.13330078 C-59.74594945 29.23902884 -52.21659393 21.88907705 -43 16 C-42.14970215 15.44771729 -42.14970215 15.44771729 -41.28222656 14.88427734 C-32.8716735 9.45833043 -24.54484962 5.16830434 -15 2 C-14.31292969 1.75507813 -13.62585938 1.51015625 -12.91796875 1.2578125 C-8.29041497 -0.26729552 -5.25495462 0 0 0 Z " fill="#FCFDFD" transform="translate(530,308)"/>
<path d="M0 0 C0 37.62 0 75.24 0 114 C-6.77416709 114 -10.46112527 113.6468492 -16.5 111.5625 C-17.27754639 111.29663086 -18.05509277 111.03076172 -18.85620117 110.75683594 C-32.42197566 105.89391952 -43.95838555 98.1253012 -55 89 C-56.15628906 88.05640625 -56.15628906 88.05640625 -57.3359375 87.09375 C-62.05511225 83.11590155 -66.04552298 78.72588425 -70 74 C-70.76183594 73.12601563 -71.52367187 72.25203125 -72.30859375 71.3515625 C-81.89982361 60.18922635 -89.52324539 48.15606991 -96.6875 35.3125 C-97.22938965 34.35553223 -97.7712793 33.39856445 -98.32958984 32.41259766 C-98.82281738 31.50944824 -99.31604492 30.60629883 -99.82421875 29.67578125 C-100.26854248 28.87052002 -100.71286621 28.06525879 -101.1706543 27.2355957 C-102.13468768 24.63693402 -102.12267843 23.51737599 -101 21 C-98.375 19.62109375 -98.375 19.62109375 -95 18.4375 C-93.21722656 17.80328125 -93.21722656 17.80328125 -91.3984375 17.15625 C-90.27695312 16.7746875 -89.15546875 16.393125 -88 16 C-87.22914063 15.7215625 -86.45828125 15.443125 -85.6640625 15.15625 C-78.57904389 12.6588488 -71.26991461 10.86965507 -64 9 C-63.31357422 8.82291504 -62.62714844 8.64583008 -61.91992188 8.46337891 C-50.28073951 5.47207643 -38.73317152 2.96767322 -26.8125 1.375 C-25.88630859 1.2409375 -24.96011719 1.106875 -24.00585938 0.96875 C-15.80885573 -0.12791397 -8.48026339 0 0 0 Z " fill="#FCFDFD" transform="translate(530,659)"/>
<path d="M0 0 C0.87891907 -0.01283524 1.75783813 -0.02567047 2.66339111 -0.03889465 C3.62364197 -0.04628159 4.58389282 -0.05366852 5.57324219 -0.0612793 C6.56201355 -0.06935104 7.55078491 -0.07742279 8.56951904 -0.08573914 C10.67458328 -0.09961029 12.7796703 -0.11031879 14.88476562 -0.11816406 C18.06523477 -0.135204 21.24461679 -0.17904046 24.42480469 -0.22338867 C38.85192589 -0.33443379 52.44494612 0.13950348 63.87011719 10.17700195 C73.33397447 20.40475803 75.49253237 31.23486528 75.20214844 44.8449707 C74.67759733 54.72941322 69.94963326 62.13979527 63.19433594 69.1184082 C59.94761305 71.99407704 56.88439424 73.64096763 52.87011719 75.17700195 C52.22312866 75.44011169 51.57614014 75.70322144 50.9095459 75.9743042 C44.70690555 78.29933899 39.10574331 78.58633256 32.52636719 78.50512695 C31.47606323 78.50325378 30.42575928 78.50138062 29.34362793 78.49945068 C27.14181302 78.49276858 24.94000919 78.47893152 22.73828125 78.45825195 C19.35242807 78.42683783 15.96703979 78.4172503 12.58105469 78.41137695 C10.43781978 78.40221646 8.29458964 78.39184375 6.15136719 78.38012695 C5.13482056 78.37587708 4.11827393 78.3716272 3.07092285 78.36724854 C2.13905151 78.35764099 1.20718018 78.34803345 0.24707031 78.33813477 C-0.57627808 78.33130676 -1.39962646 78.32447876 -2.2479248 78.31744385 C-4.12988281 78.17700195 -4.12988281 78.17700195 -5.12988281 77.17700195 C-5.25488281 74.17700195 -5.25488281 74.17700195 -5.12988281 71.17700195 C-2.72618196 68.7733011 1.49156215 69.55239696 4.87011719 69.17700195 C4.87011719 49.37700195 4.87011719 29.57700195 4.87011719 9.17700195 C1.90011719 8.84700195 -1.06988281 8.51700195 -4.12988281 8.17700195 C-5.12988281 7.17700195 -5.12988281 7.17700195 -5.25488281 4.17700195 C-5.06802558 -0.30757171 -4.08486606 0.05183638 0 0 Z " fill="#D40708" transform="translate(651.1298828125,475.822998046875)"/>
<path d="M0 0 C9.24548705 0.26262861 9.24548705 0.26262861 12.86206055 3.22631836 C15.29669503 5.85589612 17.17221829 8.81985327 19.0065918 11.88842773 C21.37199346 15.67234482 24.21913113 19.10338215 26.9675293 22.61303711 C28.06774623 24.05900897 29.16547614 25.50687713 30.26049805 26.95678711 C34.66801887 32.7692654 39.21939876 38.45985264 43.89135742 44.06152344 C44.67961914 45.00664795 45.46788086 45.95177246 46.2800293 46.92553711 C46.30474969 42.28076567 46.32289897 37.63603254 46.33496094 32.99121094 C46.33998944 31.41112603 46.34681307 29.83104577 46.35546875 28.25097656 C46.36759922 25.97972465 46.37327243 23.70853426 46.37768555 21.43725586 C46.38284683 20.730905 46.38800812 20.02455414 46.39332581 19.29679871 C46.39367733 16.2229932 46.2603479 13.86649291 45.2800293 10.92553711 C43.17418492 10.11990073 43.17418492 10.11990073 40.7175293 9.73803711 C39.4780957 9.50020508 39.4780957 9.50020508 38.21362305 9.25756836 C37.57553711 9.14799805 36.93745117 9.03842773 36.2800293 8.92553711 C36.23761206 6.59258936 36.23909992 4.25851144 36.2800293 1.92553711 C38.11036985 0.09519656 41.01214921 0.79510913 43.4675293 0.79272461 C44.72307617 0.79143555 45.97862305 0.79014648 47.2722168 0.78881836 C47.92931641 0.79091309 48.58641602 0.79300781 49.26342773 0.79516602 C51.27164264 0.80051477 53.27963389 0.7952202 55.2878418 0.78881836 C57.17116211 0.79075195 57.17116211 0.79075195 59.0925293 0.79272461 C60.25397461 0.79385254 61.41541992 0.79498047 62.61206055 0.79614258 C65.2800293 0.92553711 65.2800293 0.92553711 66.2800293 1.92553711 C66.32095867 4.25851144 66.32244653 6.59258936 66.2800293 8.92553711 C65.71413086 9.13049805 65.14823242 9.33545898 64.56518555 9.54663086 C63.83170898 9.81604492 63.09823242 10.08545898 62.3425293 10.36303711 C61.24618164 10.76329102 61.24618164 10.76329102 60.12768555 11.17163086 C58.29697251 11.77940659 58.29697251 11.77940659 57.2800293 12.92553711 C57.16153441 14.94453342 57.11261756 16.96763979 57.09057617 18.98999023 C57.07385864 20.28803589 57.05714111 21.58608154 57.03991699 22.92346191 C57.02989403 23.97037453 57.02989403 23.97037453 57.01966858 25.03843689 C56.99870218 27.2147918 56.97167544 29.39099475 56.94299316 31.56726074 C56.88320548 36.18662836 56.83108441 40.8060658 56.7800293 45.42553711 C56.72089127 50.77635136 56.65866972 56.12709054 56.58815002 61.47776794 C56.56148512 63.6276918 56.54072524 65.77762283 56.5201416 67.9276123 C56.50342407 69.22565796 56.48670654 70.52370361 56.46948242 71.86108398 C56.45069031 73.58530579 56.45069031 73.58530579 56.43151855 75.34436035 C56.2800293 77.92553711 56.2800293 77.92553711 55.2800293 78.92553711 C52.18999787 79.35670429 50.25206864 79.60431077 47.2800293 78.92553711 C44.76549808 76.89147991 43.15944608 74.3700039 41.4050293 71.67553711 C40.36744164 70.18791931 39.32704751 68.70225527 38.28393555 67.21850586 C37.77620605 66.48293457 37.26847656 65.74736328 36.74536133 64.98950195 C34.7514111 62.18096226 32.58547751 59.60298649 30.3425293 56.98803711 C24.60490203 50.21393523 19.27599544 43.14202508 13.9152832 36.06860352 C11.06463353 32.33271178 8.17246016 28.62912144 5.2800293 24.92553711 C5.18111853 30.69127396 5.10854085 36.45651651 5.06030273 42.22290039 C5.04019297 44.18425092 5.01290112 46.14554155 4.97827148 48.10668945 C4.92972509 50.92666405 4.90705444 53.74584576 4.8894043 56.56616211 C4.86875916 57.44234192 4.84811401 58.31852173 4.82684326 59.22125244 C4.79981846 64.15683085 4.79981846 64.15683085 7.07006836 68.43237305 C9.98475858 70.40168871 12.87391766 71.13951135 16.2800293 71.92553711 C16.32257286 73.92508457 16.32083713 75.92595347 16.2800293 77.92553711 C14.37152982 79.83403658 10.96524155 79.05613344 8.4362793 79.05834961 C7.75198853 79.05930634 7.06769775 79.06026306 6.3626709 79.06124878 C4.91341053 79.06193041 3.46414711 79.06007734 2.01489258 79.0559082 C-0.21059998 79.05055963 -2.43589071 79.05585371 -4.66137695 79.06225586 C-6.06632532 79.06159507 -7.47127356 79.06031391 -8.8762207 79.05834961 C-10.16334961 79.05722168 -11.45047852 79.05609375 -12.77661133 79.05493164 C-15.7199707 78.92553711 -15.7199707 78.92553711 -16.7199707 77.92553711 C-16.76077853 75.92595347 -16.76251427 73.92508457 -16.7199707 71.92553711 C-16.10508789 71.77858398 -15.49020508 71.63163086 -14.85668945 71.48022461 C-14.04844727 71.25592773 -13.24020508 71.03163086 -12.4074707 70.80053711 C-11.20670898 70.48729492 -11.20670898 70.48729492 -9.98168945 70.16772461 C-6.60814965 68.31489964 -6.09349781 66.5368331 -4.7199707 62.92553711 C-4.25551628 59.01350876 -4.23144367 55.1198001 -4.20825195 51.18334961 C-4.19030075 50.059841 -4.17234955 48.9363324 -4.15385437 47.77877808 C-4.09982456 44.20273552 -4.06587824 40.62682592 -4.0324707 37.05053711 C-3.99929127 34.62083114 -3.96480103 32.1911427 -3.92895508 29.76147461 C-3.84410217 23.81628133 -3.77572115 17.87107069 -3.7199707 11.92553711 C-7.6638598 10.30438753 -11.60613004 9.0548267 -15.7199707 7.92553711 C-15.76251427 5.92598965 -15.76077853 3.92512075 -15.7199707 1.92553711 C-12.6708885 -1.1235451 -4.06425968 0.06140441 0 0 Z " fill="#D40C0C" transform="translate(572.719970703125,475.074462890625)"/>
<path d="M0 0 C20.50524161 -2.6688212 20.50524161 -2.6688212 27.34863281 1.39453125 C31.52006955 5.18787343 34.49812689 9.81901352 37.45703125 14.58349609 C39.96159754 18.50599565 42.87520752 22.09559562 45.75 25.75 C46.72715911 27.03402879 47.70111528 28.32050129 48.671875 29.609375 C53.07498601 35.43651933 57.54212932 41.21472366 62 47 C62.07415168 42.21284377 62.12860204 37.42602173 62.16479492 32.63842773 C62.17988243 31.00978777 62.20035506 29.38118844 62.22631836 27.75268555 C62.26270449 25.41184465 62.2797262 23.07154081 62.29296875 20.73046875 C62.30845261 20.00224411 62.32393646 19.27401947 62.33988953 18.52372742 C62.35292252 14.58123847 62.35292252 14.58123847 60.7121582 11.09106445 C58.01086179 9.36967651 55.08544867 8.75680816 52 8 C51.95758277 5.66705225 51.95907063 3.33297433 52 1 C53.83034055 -0.83034055 56.73211992 -0.13042797 59.1875 -0.1328125 C60.44304687 -0.13410156 61.69859375 -0.13539063 62.9921875 -0.13671875 C63.64928711 -0.13462402 64.30638672 -0.1325293 64.98339844 -0.13037109 C66.99161335 -0.12502234 68.99960459 -0.13031691 71.0078125 -0.13671875 C72.89113281 -0.13478516 72.89113281 -0.13478516 74.8125 -0.1328125 C75.97394531 -0.13168457 77.13539063 -0.13055664 78.33203125 -0.12939453 C81 0 81 0 82 1 C82.04092937 3.33297433 82.04241723 5.66705225 82 8 C81.44570313 8.19335938 80.89140625 8.38671875 80.3203125 8.5859375 C79.23363281 8.97652344 79.23363281 8.97652344 78.125 9.375 C77.40570313 9.63023437 76.68640625 9.88546875 75.9453125 10.1484375 C73.81842006 10.93877783 73.81842006 10.93877783 72 13 C71.66735445 15.8323903 71.66735445 15.8323903 71.68115234 19.19384766 C71.66128265 20.49504547 71.64141296 21.79624329 71.62094116 23.13687134 C71.6090638 24.5626 71.597401 25.98833045 71.5859375 27.4140625 C71.56723326 28.86853138 71.54766041 30.32298933 71.5272522 31.7774353 C71.47584606 35.60784469 71.43626601 39.43828928 71.39910889 43.26885986 C71.35912218 47.17672497 71.3080056 51.08444252 71.2578125 54.9921875 C71.1609529 62.66135723 71.07658053 70.33059813 71 78 C63.31396484 78.28515625 63.31396484 78.28515625 60.48828125 75.71875 C59.77027344 74.6565625 59.05226563 73.594375 58.3125 72.5 C57.46531422 71.29600775 56.61489754 70.09428416 55.76171875 68.89453125 C55.31747559 68.25725098 54.87323242 67.6199707 54.41552734 66.96337891 C51.97495815 63.57823619 49.28814227 60.39826323 46.625 57.1875 C41.68342828 51.16464069 36.9309727 45.02603513 32.30908203 38.75463867 C28.34556395 33.3900134 24.19028759 28.1888551 20 23 C19.92562424 28.44430582 19.87129134 33.88831329 19.83520508 39.33300781 C19.82015529 41.18364619 19.79971067 43.03424911 19.77368164 44.88476562 C19.7371302 47.55087045 19.72023546 50.21650208 19.70703125 52.8828125 C19.69154739 53.70492218 19.67606354 54.52703186 19.66011047 55.37405396 C19.65867377 60.32187244 20.23103568 63.72160025 23 68 C25.21180779 69.33476999 25.21180779 69.33476999 27.6875 69.875 C28.49574219 70.09929687 29.30398438 70.32359375 30.13671875 70.5546875 C30.75160156 70.70164062 31.36648438 70.84859375 32 71 C32.04254356 72.99954746 32.04080783 75.00041636 32 77 C30.09150052 78.90849948 26.68521226 78.13059633 24.15625 78.1328125 C23.47195923 78.13376923 22.78766846 78.13472595 22.0826416 78.13571167 C20.63338123 78.1363933 19.18411782 78.13454023 17.73486328 78.13037109 C15.50937072 78.12502252 13.28407999 78.1303166 11.05859375 78.13671875 C9.65364539 78.13605797 8.24869715 78.1347768 6.84375 78.1328125 C5.55662109 78.13168457 4.26949219 78.13055664 2.94335938 78.12939453 C0 78 0 78 -1 77 C-1.04080783 75.00041636 -1.04254356 72.99954746 -1 71 C-0.37351562 70.81824219 0.25296875 70.63648438 0.8984375 70.44921875 C1.71570313 70.19785156 2.53296875 69.94648437 3.375 69.6875 C4.18710937 69.44386719 4.99921875 69.20023438 5.8359375 68.94921875 C8.33184629 68.08631815 8.33184629 68.08631815 10 65 C10.31042481 62.52926603 10.31042481 62.52926603 10.2746582 59.73413086 C10.28419022 58.65969223 10.29372223 57.5852536 10.30354309 56.47825623 C10.30263168 55.31883011 10.30172028 54.15940399 10.30078125 52.96484375 C10.30506638 51.77524551 10.3093515 50.58564728 10.31376648 49.36000061 C10.31951256 46.84409217 10.32000801 44.32816712 10.31567383 41.81225586 C10.31250976 37.94942136 10.33598497 34.08734935 10.36132812 30.22460938 C10.36360055 27.78385514 10.36430488 25.34309883 10.36328125 22.90234375 C10.372491 21.7408934 10.38170074 20.57944305 10.39118958 19.38279724 C10.38496078 18.31151077 10.37873199 17.2402243 10.37231445 16.13647461 C10.37294388 15.19066025 10.3735733 14.24484589 10.3742218 13.27037048 C10.25072861 12.52114822 10.12723541 11.77192596 10 11 C6.55549263 8.70366176 4.06187717 8.45983515 0 8 C0 5.36 0 2.72 0 0 Z " fill="#D40909" transform="translate(310,476)"/>
<path d="M0 0 C2.64 0 5.28 0 8 0 C10.65300921 5.92886562 13.25120826 11.87811311 15.79296875 17.85546875 C16.14048691 18.67219055 16.48800507 19.48891235 16.84605408 20.3303833 C17.58218439 22.06101704 18.31800334 23.79178326 19.05352783 25.52267456 C20.19818338 28.21260586 21.34757268 30.90047852 22.49755859 33.58813477 C25.73793603 41.17881824 28.96188379 48.75965981 31.87109375 56.484375 C32.26466064 57.51667236 32.65822754 58.54896973 33.0637207 59.61254883 C33.74994046 61.4391531 34.41296195 63.27471564 35.04760742 65.11987305 C35.87671636 67.31452012 36.5753081 69.13698799 38 71 C41.61845195 72.18690627 41.61845195 72.18690627 45 72 C45.04241723 74.33294775 45.04092937 76.66702567 45 79 C44 80 44 80 40.58178711 80.11352539 C39.06363012 80.11336628 37.54546771 80.10767226 36.02734375 80.09765625 C35.22970108 80.0962413 34.43205841 80.09482635 33.61024475 80.09336853 C31.05262565 80.08775316 28.49509282 80.07519812 25.9375 80.0625 C24.20768355 80.05748698 22.47786574 80.05292373 20.74804688 80.04882812 C16.49866447 80.03777875 12.24934688 80.02050386 8 80 C8 77.36 8 74.72 8 72 C10.97 72 13.94 72 17 72 C16.54464901 70.43662827 16.08557224 68.87434151 15.625 67.3125 C15.36976563 66.44238281 15.11453125 65.57226562 14.8515625 64.67578125 C14.02382686 62.07486881 13.01369191 59.53422977 12 57 C3.09 56.67 -5.82 56.34 -15 56 C-16.96520693 62.5521889 -16.96520693 62.5521889 -17 69 C-14.24072656 71.75927344 -11.78845948 71.51783243 -8 72 C-7 73 -7 73 -6.875 76 C-7 79 -7 79 -8 80 C-10.13353174 80.10003289 -12.27037542 80.13081048 -14.40625 80.1328125 C-15.70691406 80.13410156 -17.00757813 80.13539063 -18.34765625 80.13671875 C-19.02844238 80.13462402 -19.70922852 80.1325293 -20.41064453 80.13037109 C-22.49128515 80.1250224 -24.57170989 80.1303168 -26.65234375 80.13671875 C-28.60333984 80.13478516 -28.60333984 80.13478516 -30.59375 80.1328125 C-31.79708984 80.13168457 -33.00042969 80.13055664 -34.24023438 80.12939453 C-37 80 -37 80 -38 79 C-38.04080783 77.00041636 -38.04254356 74.99954746 -38 73 C-36.4221875 72.505 -36.4221875 72.505 -34.8125 72 C-28.89857883 69.45244193 -26.50101722 63.45511002 -24.1484375 57.7578125 C-23.55035746 56.21621396 -22.95955956 54.67177598 -22.375 53.125 C-21.68862211 51.36103397 -20.9996824 49.59806328 -20.30859375 47.8359375 C-19.9410498 46.8984668 -19.57350586 45.96099609 -19.19482422 44.99511719 C-17.02142979 39.54697603 -14.72895999 34.14931375 -12.4375 28.75 C-11.97029541 27.64881836 -11.50309082 26.54763672 -11.02172852 25.41308594 C-7.4067413 16.916055 -3.73726923 8.44393252 0 0 Z " fill="#D40A0B" transform="translate(261,474)"/>
<path d="M0 0 C2.31 0 4.62 0 7 0 C10.50371529 5.45022378 12.52976029 11.06397801 14.55859375 17.20703125 C15.93211659 21.07654251 17.80390135 24.64626806 19.66870117 28.2980957 C21.98470743 32.99848839 23.94548002 37.84311013 25.9375 42.6875 C26.37497559 43.73317139 26.81245117 44.77884277 27.26318359 45.85620117 C29.1832102 50.46717954 31.063292 55.0689118 32.69921875 59.7890625 C34.74512986 66.45382571 34.74512986 66.45382571 39.140625 71.5703125 C41.55023892 72.59746179 41.55023892 72.59746179 45 73 C45.04254356 74.99954746 45.04080783 77.00041636 45 79 C43.21169552 80.78830448 40.80418848 80.12848711 38.42358398 80.13894653 C37.64442627 80.1369223 36.86526855 80.13489807 36.0625 80.1328125 C34.86959351 80.13424759 34.86959351 80.13424759 33.65258789 80.13571167 C31.9679354 80.13639343 30.28328029 80.13453943 28.59863281 80.13037109 C26.01100803 80.12502275 23.42355684 80.13031619 20.8359375 80.13671875 C19.20312461 80.13605797 17.57031184 80.1347768 15.9375 80.1328125 C15.15834229 80.13483673 14.37918457 80.13686096 13.57641602 80.13894653 C8.11495105 80.11495105 8.11495105 80.11495105 7 79 C6.875 76 6.875 76 7 73 C8 72 8 72 10.06640625 71.90234375 C10.89011719 71.91394531 11.71382812 71.92554688 12.5625 71.9375 C13.80193359 71.95103516 13.80193359 71.95103516 15.06640625 71.96484375 C16.02353516 71.98224609 16.02353516 71.98224609 17 72 C16.6390625 71.01257813 16.278125 70.02515625 15.90625 69.0078125 C15.43733319 67.71360209 14.96859231 66.41932794 14.5 65.125 C14.26152344 64.47402344 14.02304687 63.82304688 13.77734375 63.15234375 C12 58.2265625 12 58.2265625 12 56 C-1.365 56.495 -1.365 56.495 -15 57 C-16.84685787 60.69371573 -17.25768025 61.82758638 -17.1875 65.6875 C-17.18105469 66.47511719 -17.17460938 67.26273438 -17.16796875 68.07421875 C-17.20733669 70.00699364 -17.20733669 70.00699364 -16 71 C-14.67218122 71.20604085 -13.33704105 71.3662959 -12 71.5 C-8.11111111 71.88888889 -8.11111111 71.88888889 -7 73 C-6.875 76 -6.875 76 -7 79 C-8 80 -8 80 -10.86743164 80.11352539 C-12.11903076 80.10828857 -13.37062988 80.10305176 -14.66015625 80.09765625 C-15.65685585 80.09553383 -15.65685585 80.09553383 -16.6736908 80.09336853 C-18.80333899 80.08775518 -20.93288339 80.07520054 -23.0625 80.0625 C-24.50325369 80.05748671 -25.94400903 80.05292351 -27.38476562 80.04882812 C-30.92321102 80.03778145 -34.46159539 80.02050792 -38 80 C-38 77.69 -38 75.38 -38 73 C-36.30729167 72.4140625 -34.61458333 71.828125 -32.921875 71.2421875 C-28.04175176 68.08796151 -26.21581433 62.37640285 -24.375 57.125 C-20.70063592 46.91666337 -16.45521572 36.95040261 -12.24047852 26.95605469 C-11.38518319 24.9178898 -10.53714194 22.87667077 -9.69506836 20.83300781 C-7.51489936 15.54411733 -5.29437079 10.34249177 -2.6875 5.25 C-1.91986328 3.74179687 -1.91986328 3.74179687 -1.13671875 2.203125 C-0.76160156 1.47609375 -0.38648438 0.7490625 0 0 Z " fill="#D40B0B" transform="translate(817,474)"/>
<path d="M0 0 C19.14 0 38.28 0 58 0 C58 8.99758842 58 8.99758842 55.9375 12.05859375 C55.47843262 12.76145508 55.01936523 13.46431641 54.54638672 14.18847656 C53.78092529 15.30174316 53.78092529 15.30174316 53 16.4375 C51.89799152 18.10777875 50.79645413 19.77836839 49.6953125 21.44921875 C49.10008789 22.33915527 48.50486328 23.2290918 47.89160156 24.14599609 C45.18470974 28.23009075 42.56488436 32.36798457 39.93774414 36.50366211 C34.34701645 45.3023254 28.72145238 54.07385209 22.82958984 62.67480469 C21.16686815 65.12304687 19.9429953 67.17101409 19 70 C22.23016726 69.91874075 25.45849888 69.80593395 28.6875 69.6875 C29.59951172 69.66494141 30.51152344 69.64238281 31.45117188 69.61914062 C36.40821124 69.42085905 39.99362888 69.22501385 44 66 C44.55429687 65.55398438 45.10859375 65.10796875 45.6796875 64.6484375 C47.43539978 62.45639435 48.20368564 60.27287199 49.125 57.625 C49.45757812 56.68914063 49.79015625 55.75328125 50.1328125 54.7890625 C50.93750152 52.20100862 51.52496007 49.66604041 52 47 C54.31 47 56.62 47 59 47 C59 57.23 59 67.46 59 78 C50.94083309 78.02094499 42.88176421 78.04098314 34.82259369 78.05175018 C31.06994976 78.05704008 27.31732825 78.06411391 23.56469727 78.07543945 C19.95318313 78.08627141 16.34169079 78.09227749 12.73016167 78.09487724 C11.34939671 78.09673094 9.968633 78.10035049 8.58787727 78.10573006 C6.66024048 78.11294447 4.73258193 78.11340809 2.80493164 78.11352539 C1.70572891 78.115746 0.60652618 78.11796661 -0.52598572 78.12025452 C-3 78 -3 78 -4 77 C-4.46857944 71.56843836 -3.75677882 68.81484504 -0.5625 64.4375 C0.17355469 63.3959375 0.90960938 62.354375 1.66796875 61.28125 C2.0551709 60.74113281 2.44237305 60.20101562 2.84130859 59.64453125 C4.7300701 56.96381117 6.48445444 54.20040128 8.25 51.4375 C8.61810791 50.86354492 8.98621582 50.28958984 9.36547852 49.69824219 C13.07179882 43.91253788 16.72813353 38.09523553 20.390625 32.28173828 C25.52540433 24.14344219 30.75322406 16.0664016 36 8 C33.29020876 8.08750996 30.58349252 8.19444893 27.875 8.3125 C26.73417969 8.34633789 26.73417969 8.34633789 25.5703125 8.38085938 C20.70480147 8.61155171 17.22892356 9.3577225 13 12 C8.67494129 16.94292424 7.46783446 22.75058357 6 29 C4.00045254 29.04254356 1.99958364 29.04080783 0 29 C-1 28 -1 28 -1.1328125 25.5859375 C-1.11185934 16.97418888 -0.57586322 8.6379483 0 0 Z " fill="#D40A0A" transform="translate(403,476)"/>
<path d="M0 0 C0.84477905 0.00202423 1.68955811 0.00404846 2.55993652 0.00613403 C3.42179565 0.00517731 4.28365479 0.00422058 5.17163086 0.00323486 C6.99751864 0.00255304 8.82340884 0.00440749 10.64929199 0.00857544 C13.45419731 0.01392367 16.25894248 0.00863054 19.06384277 0.00222778 C20.83337438 0.00288856 22.60290588 0.00416973 24.37243652 0.00613403 C25.21721558 0.0041098 26.06199463 0.00208557 26.93237305 0 C32.85123621 0.02399622 32.85123621 0.02399622 33.96618652 1.13894653 C34.09118652 4.13894653 34.09118652 4.13894653 33.96618652 7.13894653 C33.63618652 7.46894653 33.30618652 7.79894653 32.96618652 8.13894653 C29.66618652 8.13894653 26.36618652 8.13894653 22.96618652 8.13894653 C22.96618652 28.59894653 22.96618652 49.05894653 22.96618652 70.13894653 C26.26618652 70.13894653 29.56618652 70.13894653 32.96618652 70.13894653 C33.96618652 71.13894653 33.96618652 71.13894653 34.09118652 74.13894653 C33.96618652 77.13894653 33.96618652 77.13894653 32.96618652 78.13894653 C30.09354596 78.24001527 27.24545024 78.27864325 24.37243652 78.27175903 C23.51057739 78.27271576 22.64871826 78.27367249 21.76074219 78.2746582 C19.9348544 78.27534003 18.10896421 78.27348558 16.28308105 78.26931763 C13.47817574 78.26396939 10.67343057 78.26926253 7.86853027 78.27566528 C6.09899867 78.2750045 4.32946716 78.27372334 2.55993652 78.27175903 C1.71515747 78.27378326 0.87037842 78.2758075 0 78.27789307 C-5.91886316 78.25389685 -5.91886316 78.25389685 -7.03381348 77.13894653 C-7.15881348 74.13894653 -7.15881348 74.13894653 -7.03381348 71.13894653 C-6.53881348 70.64394653 -6.53881348 70.64394653 -6.03381348 70.13894653 C-2.73381348 70.13894653 0.56618652 70.13894653 3.96618652 70.13894653 C3.63618652 50.00894653 3.30618652 29.87894653 2.96618652 9.13894653 C-0.00381348 8.80894653 -2.97381348 8.47894653 -6.03381348 8.13894653 C-7.03381348 7.13894653 -7.03381348 7.13894653 -7.15881348 4.13894653 C-6.93951212 -1.124286 -4.70314485 0.01906746 0 0 Z " fill="#D3090A" transform="translate(515.0338134765625,475.8610534667969)"/>
<path d="M0 0 C0.84477905 0.00202423 1.68955811 0.00404846 2.55993652 0.00613403 C3.42179565 0.00517731 4.28365479 0.00422058 5.17163086 0.00323486 C6.99751864 0.00255304 8.82340884 0.00440749 10.64929199 0.00857544 C13.45419731 0.01392367 16.25894248 0.00863054 19.06384277 0.00222778 C20.83337438 0.00288856 22.60290588 0.00416973 24.37243652 0.00613403 C25.21721558 0.0041098 26.06199463 0.00208557 26.93237305 0 C32.85123621 0.02399622 32.85123621 0.02399622 33.96618652 1.13894653 C34.09118652 4.13894653 34.09118652 4.13894653 33.96618652 7.13894653 C33.63618652 7.46894653 33.30618652 7.79894653 32.96618652 8.13894653 C29.66618652 8.13894653 26.36618652 8.13894653 22.96618652 8.13894653 C22.96618652 28.59894653 22.96618652 49.05894653 22.96618652 70.13894653 C26.26618652 70.13894653 29.56618652 70.13894653 32.96618652 70.13894653 C33.96618652 71.13894653 33.96618652 71.13894653 34.09118652 74.13894653 C33.96618652 77.13894653 33.96618652 77.13894653 32.96618652 78.13894653 C30.09354596 78.24001527 27.24545024 78.27864325 24.37243652 78.27175903 C23.51057739 78.27271576 22.64871826 78.27367249 21.76074219 78.2746582 C19.9348544 78.27534003 18.10896421 78.27348558 16.28308105 78.26931763 C13.47817574 78.26396939 10.67343057 78.26926253 7.86853027 78.27566528 C6.09899867 78.2750045 4.32946716 78.27372334 2.55993652 78.27175903 C1.71515747 78.27378326 0.87037842 78.2758075 0 78.27789307 C-5.91886316 78.25389685 -5.91886316 78.25389685 -7.03381348 77.13894653 C-7.15881348 74.13894653 -7.15881348 74.13894653 -7.03381348 71.13894653 C-6.53881348 70.64394653 -6.53881348 70.64394653 -6.03381348 70.13894653 C-2.73381348 70.13894653 0.56618652 70.13894653 3.96618652 70.13894653 C3.96618652 49.67894653 3.96618652 29.21894653 3.96618652 8.13894653 C0.66618652 8.13894653 -2.63381348 8.13894653 -6.03381348 8.13894653 C-7.03381348 7.13894653 -7.03381348 7.13894653 -7.15881348 4.13894653 C-6.93951212 -1.124286 -4.70314485 0.01906746 0 0 Z " fill="#D40808" transform="translate(742.0338134765625,475.8610534667969)"/>
<path d="M0 0 C0.99 0.495 0.99 0.495 2 1 C1.21238281 1.74121094 0.42476563 2.48242188 -0.38671875 3.24609375 C-19.02824411 21.12738944 -32.99902251 42.72870146 -44 66 C-44.66238976 67.33546323 -45.32667508 68.67001662 -46 70 C-51.80794301 69.51677914 -55.9890997 67.09173694 -60.9375 64.25 C-61.71029297 63.81945312 -62.48308594 63.38890625 -63.27929688 62.9453125 C-68.08276223 60.23295844 -72.56678617 57.28211303 -77 54 C-67.3046131 31.36024017 -29.47528723 13.94207493 -8.75 3.9375 C-7.91476807 3.53055908 -7.07953613 3.12361816 -6.21899414 2.7043457 C-5.05098267 2.15266724 -5.05098267 2.15266724 -3.859375 1.58984375 C-3.16295898 1.25847412 -2.46654297 0.92710449 -1.74902344 0.58569336 C-1.1718457 0.39241455 -0.59466797 0.19913574 0 0 Z " fill="#F8F8F9" transform="translate(454,323)"/>
<path d="M0 0 C16.43243243 0 16.43243243 0 22.75 5.3125 C29.49608559 13.37032446 29.22883534 21.73255188 29.3125 31.75 C29.34150391 32.89210938 29.37050781 34.03421875 29.40039062 35.2109375 C29.46488418 43.84315139 28.18251452 50.14748242 22.625 56.875 C14.68080511 63.30601491 11.14279614 62 0 62 C0 41.54 0 21.08 0 0 Z " fill="#FDFAFA" transform="translate(676,484)"/>
<path d="M0 0 C4.8723615 0.58430641 8.51224279 2.71593189 12.6875 5.125 C13.39068359 5.52517334 14.09386719 5.92534668 14.81835938 6.33764648 C20.43969008 9.57918606 25.80086467 13.11314642 31 17 C27.11449891 21.97829828 22.85573856 25.97474985 18 30 C17.23018799 30.64630371 17.23018799 30.64630371 16.44482422 31.30566406 C-0.80031519 45.73031358 -19.63668206 56.88442794 -40 66.37890625 C-41.0828125 66.88466187 -41.0828125 66.88466187 -42.1875 67.40063477 C-44 68 -44 68 -46 67 C-45.16597656 66.12859375 -44.33195313 65.2571875 -43.47265625 64.359375 C-25.34681312 45.24981234 -11.5309376 23.58866931 0 0 Z " fill="#F9F9F9" transform="translate(677,689)"/>
<path d="M0 0 C2.58825709 1.13001981 3.04393142 2.26616862 4.2434082 4.79956055 C4.65461914 5.63616211 5.06583008 6.47276367 5.48950195 7.3347168 C5.92649414 8.24608398 6.36348633 9.15745117 6.8137207 10.09643555 C15.18637962 26.77293701 25.42886932 42.00115262 37.9387207 55.84643555 C38.74954102 56.76553711 39.56036133 57.68463867 40.39575195 58.6315918 C42.23278574 60.71313446 44.07947609 62.78475169 45.9387207 64.84643555 C42.9387207 65.84643555 42.9387207 65.84643555 40.44262695 64.8425293 C39.47196289 64.32819336 38.50129883 63.81385742 37.5012207 63.28393555 C36.42485352 62.72061523 35.34848633 62.15729492 34.23950195 61.5769043 C33.15024414 61.00584961 32.06098633 60.43479492 30.9387207 59.84643555 C29.02266709 58.92848814 27.10600834 58.01180269 25.1887207 57.09643555 C6.91270524 47.91083403 -16.49815535 34.19112146 -28.0612793 16.84643555 C-21.93953368 12.17558182 -15.67252472 7.82990423 -9.1237793 3.78393555 C-8.48561279 3.37796143 -7.84744629 2.9719873 -7.18994141 2.55371094 C-2.6510687 -0.19750352 -2.6510687 -0.19750352 0 0 Z " fill="#F8F8F8" transform="translate(408.061279296875,691.153564453125)"/>
<path d="M0 0 C26.98856407 11.46101472 53.6920469 26.44445934 74 48 C70.36233435 51.8916159 66.63941473 54.75690386 62.125 57.5625 C61.53847656 57.93568359 60.95195313 58.30886719 60.34765625 58.69335938 C58.57539443 59.81319514 56.78948221 60.90793956 55 62 C54.37319336 62.39687012 53.74638672 62.79374023 53.10058594 63.20263672 C51.44658316 64.21476821 49.72599207 65.11620888 48 66 C45 65 45 65 43.96362305 63.47558594 C43.64949463 62.81848633 43.33536621 62.16138672 43.01171875 61.484375 C42.64232178 60.73800781 42.2729248 59.99164063 41.89233398 59.22265625 C41.49473877 58.40667969 41.09714355 57.59070313 40.6875 56.75 C32.93503753 41.45297867 23.41354515 26.83252644 12 14 C11.5663916 13.50757813 11.1327832 13.01515625 10.68603516 12.5078125 C5.91988902 6.52283561 5.91988902 6.52283561 0 2 C0 1.34 0 0.68 0 0 Z " fill="#F9FAFA" transform="translate(630,323)"/>
<path d="M0 0 C4.66125 -0.103125 9.3225 -0.20625 14.125 -0.3125 C15.58437988 -0.35802002 17.04375977 -0.40354004 18.54736328 -0.45043945 C29.23629154 -0.56525469 29.23629154 -0.56525469 32.890625 2.234375 C35.63566727 5.83343042 35.76233231 7.55275885 35.46484375 11.90625 C34.78906297 14.95010292 33.57862209 16.30547691 31 18 C30.01 18 29.02 18 28 18 C28 18.66 28 19.32 28 20 C28.763125 20.0825 29.52625 20.165 30.3125 20.25 C33 21 33 21 34.8125 22.625 C36.49873258 25.99746516 36.45033738 28.26863315 36 32 C34.29979606 35.33743737 33.11904397 37.42386578 29.75512695 39.15576172 C26.56907859 40.13204486 23.93592026 40.22688076 20.60546875 40.1953125 C19.52160889 40.19031738 18.43774902 40.18532227 17.32104492 40.18017578 C15.9569751 40.16196777 14.59290527 40.14375977 13.1875 40.125 C8.835625 40.08375 4.48375 40.0425 0 40 C0 26.8 0 13.6 0 0 Z " fill="#D30909" transform="translate(266,567)"/>
<path d="M0 0 C3.63 0 7.26 0 11 0 C11.33 4.95 11.66 9.9 12 15 C12.99 14.01 13.98 13.02 15 12 C20.14936313 11.10270124 24.73594246 11.4356886 29.5 13.5625 C33.66511802 17.62349007 35.14074875 21.77060496 35.375 27.5 C35.1524274 33.18043981 33.67213492 37.45021642 29.4375 41.375 C25.3064188 44.12905414 21.9163141 44.56401309 17 44 C14 42.5 14 42.5 12 41 C11.67 41.66 11.34 42.32 11 43 C7.37 43 3.74 43 0 43 C0 28.81 0 14.62 0 0 Z " fill="#D30F10" transform="translate(728,564)"/>
<path d="M0 0 C3.68536678 0.60263859 5.65225216 2.02130445 8.484375 4.40625 C9.0825 3.74625 9.680625 3.08625 10.296875 2.40625 C14.92065718 -0.49494666 19.15929503 -0.53723264 24.484375 0.40625 C27.89749167 2.93195633 29.15075268 4.40538304 30.484375 8.40625 C30.56647292 10.17938851 30.59183794 11.95545775 30.58203125 13.73046875 C30.57880859 14.75849609 30.57558594 15.78652344 30.57226562 16.84570312 C30.55969727 18.45348633 30.55969727 18.45348633 30.546875 20.09375 C30.54236328 21.17720703 30.53785156 22.26066406 30.53320312 23.37695312 C30.52141257 26.05340894 30.50347708 28.72983639 30.484375 31.40625 C26.854375 31.40625 23.224375 31.40625 19.484375 31.40625 C19.42378906 29.90191406 19.36320313 28.39757812 19.30078125 26.84765625 C19.21639457 24.88801011 19.13174565 22.92837524 19.046875 20.96875 C19.00755859 19.97552734 18.96824219 18.98230469 18.92773438 17.95898438 C18.88583984 17.01474609 18.84394531 16.07050781 18.80078125 15.09765625 C18.74579468 13.78583374 18.74579468 13.78583374 18.68969727 12.44750977 C18.70256434 10.4135098 18.70256434 10.4135098 17.484375 9.40625 C15.48479136 9.36544217 13.48392246 9.36370644 11.484375 9.40625 C9.86802012 12.27598884 9.2110332 14.45089203 9.0703125 17.734375 C9.03164063 18.53359375 8.99296875 19.3328125 8.953125 20.15625 C8.90671875 21.39375 8.90671875 21.39375 8.859375 22.65625 C8.82070313 23.49671875 8.78203125 24.3371875 8.7421875 25.203125 C8.64821664 27.27048382 8.56521936 29.33833627 8.484375 31.40625 C5.184375 31.40625 1.884375 31.40625 -1.515625 31.40625 C-1.57621094 29.90191406 -1.63679687 28.39757812 -1.69921875 26.84765625 C-1.78360543 24.88801011 -1.86825435 22.92837524 -1.953125 20.96875 C-1.99244141 19.97552734 -2.03175781 18.98230469 -2.07226562 17.95898438 C-2.11416016 17.01474609 -2.15605469 16.07050781 -2.19921875 15.09765625 C-2.23587646 14.22310791 -2.27253418 13.34855957 -2.31030273 12.44750977 C-2.29743566 10.4135098 -2.29743566 10.4135098 -3.515625 9.40625 C-6.47367073 9.07284529 -6.47367073 9.07284529 -9.515625 9.40625 C-11.56690344 12.48316766 -11.78823372 13.34269999 -11.9296875 16.85546875 C-11.98769531 18.12680664 -11.98769531 18.12680664 -12.046875 19.42382812 C-12.09328125 20.74543945 -12.09328125 20.74543945 -12.140625 22.09375 C-12.19863281 23.43276367 -12.19863281 23.43276367 -12.2578125 24.79882812 C-12.35202151 27.00096378 -12.43490994 29.20357847 -12.515625 31.40625 C-15.815625 31.40625 -19.115625 31.40625 -22.515625 31.40625 C-22.515625 21.50625 -22.515625 11.60625 -22.515625 1.40625 C-19.215625 1.40625 -15.915625 1.40625 -12.515625 1.40625 C-12.185625 2.39625 -11.855625 3.38625 -11.515625 4.40625 C-11.061875 3.74625 -10.608125 3.08625 -10.140625 2.40625 C-6.67131647 -0.23703269 -4.26869851 -0.15155143 0 0 Z " fill="#D20E0E" transform="translate(692.515625,575.59375)"/>
<path d="M0 0 C0.68191406 -0.01160156 1.36382813 -0.02320313 2.06640625 -0.03515625 C7.6845342 -0.00305266 12.52319637 1.08237931 16.8671875 4.91015625 C20.30155472 9.54063068 21.25029409 11.61147197 21.125 17.375 C17.495 17.375 13.865 17.375 10.125 17.375 C9.135 15.065 8.145 12.755 7.125 10.375 C5.18818839 10.29392417 3.2504066 10.23577525 1.3125 10.1875 C0.23355469 10.15269531 -0.84539063 10.11789062 -1.95703125 10.08203125 C-4.85327259 10.12540195 -4.85327259 10.12540195 -6.69921875 11.69921875 C-9.73945161 16.03230812 -9.34328648 21.31266167 -8.875 26.375 C-7.18096911 30.15865532 -7.18096911 30.15865532 -3.875 32.375 C0.47154271 32.88685155 3.96421764 33.18754765 7.625 30.625 C9.39687192 28.24046544 9.39687192 28.24046544 10.125 24.375 C13.755 24.375 17.385 24.375 21.125 24.375 C21.71698755 29.11090037 21.3253448 31.66760957 18.5625 35.625 C14.48722083 40.48145278 11.05031147 42.09955351 4.84765625 42.68359375 C-3.17759365 42.96623329 -9.34275877 42.52275804 -15.39453125 36.984375 C-20.59248306 31.29209348 -21.28582038 25.46638236 -21.125 18.05859375 C-20.52953287 11.66662623 -17.75326323 7.55636848 -12.875 3.375 C-8.68753645 0.25699656 -5.07355329 -0.08534949 0 0 Z " fill="#D30C0C" transform="translate(570.875,565.625)"/>
<path d="M0 0 C3.63 0 7.26 0 11 0 C11.33 4.62 11.66 9.24 12 14 C13.32 13.01 14.64 12.02 16 11 C18.5859375 10.4609375 18.5859375 10.4609375 21.375 10.375 C22.74785156 10.29378906 22.74785156 10.29378906 24.1484375 10.2109375 C27.83226994 11.23029935 29.4950036 12.70000848 31.83544922 15.68261719 C34.17638804 20.34093821 33.61052748 25.34950253 33.375 30.4375 C33.33439453 32.1071582 33.33439453 32.1071582 33.29296875 33.81054688 C33.22265136 36.54120557 33.11504572 39.27085985 33 42 C29.37 42 25.74 42 22 42 C21.93941406 40.49566406 21.87882813 38.99132812 21.81640625 37.44140625 C21.73201957 35.48176011 21.64737065 33.52212524 21.5625 31.5625 C21.52318359 30.56927734 21.48386719 29.57605469 21.44335938 28.55273438 C21.40146484 27.60849609 21.35957031 26.66425781 21.31640625 25.69140625 C21.27974854 24.81685791 21.24309082 23.94230957 21.20532227 23.04125977 C21.21818934 21.0072598 21.21818934 21.0072598 20 20 C17.04182893 19.74994614 17.04182893 19.74994614 14 20 C11.56085508 22.43914492 11.71337477 23.21446431 11.5859375 26.5703125 C11.52792969 27.91416016 11.52792969 27.91416016 11.46875 29.28515625 C11.42234375 30.69087891 11.42234375 30.69087891 11.375 32.125 C11.31699219 33.54232422 11.31699219 33.54232422 11.2578125 34.98828125 C11.1633918 37.3251935 11.08060102 39.6625703 11 42 C7.37 42 3.74 42 0 42 C0 28.14 0 14.28 0 0 Z " fill="#D30C0D" transform="translate(597,565)"/>
<path d="M0 0 C3.85691439 2.2280516 6.9918943 4.9837886 9 9 C9 12.3 9 15.6 9 19 C1.74 19 -5.52 19 -13 19 C-12.01 20.65 -11.02 22.3 -10 24 C-6.95746492 24.58345476 -6.95746492 24.58345476 -4 24 C-3.34 23.34 -2.68 22.68 -2 22 C0.6015625 21.8046875 0.6015625 21.8046875 3.625 21.875 C5.12933594 21.90207031 5.12933594 21.90207031 6.6640625 21.9296875 C7.43492187 21.95289063 8.20578125 21.97609375 9 22 C7.39877778 26.71647139 5.73570294 28.59537933 1.484375 31.046875 C-3.28260366 32.87571587 -8.00338269 32.76004883 -13 32 C-18.01791684 29.58064724 -21.49958655 26.0008269 -24 21 C-24.77700439 15.15771382 -24.82732719 10.34924569 -21.3125 5.4375 C-16.04855015 -1.10503198 -7.79236169 -1.26590713 0 0 Z " fill="#D41415" transform="translate(455,576)"/>
<path d="M0 0 C3.69518688 2.23017592 5.48190014 5.32922192 6.859375 9.30859375 C6.859375 11.94859375 6.859375 14.58859375 6.859375 17.30859375 C-0.400625 17.30859375 -7.660625 17.30859375 -15.140625 17.30859375 C-14.150625 19.28859375 -13.160625 21.26859375 -12.140625 23.30859375 C-7.3508929 23.54287688 -7.3508929 23.54287688 -3.140625 21.30859375 C-0.66015625 21.11328125 -0.66015625 21.11328125 2.046875 21.18359375 C2.94792969 21.20164062 3.84898437 21.2196875 4.77734375 21.23828125 C5.46441406 21.26148438 6.15148437 21.2846875 6.859375 21.30859375 C6.01157718 25.01770922 4.48717868 26.94063465 1.484375 29.12109375 C-3.82373119 32.1819725 -9.183799 32.2063126 -15.140625 31.30859375 C-20.03011639 29.03847275 -22.90326248 26.21358081 -25.140625 21.30859375 C-25.88367758 15.35659095 -26.00812944 10.1721218 -23.453125 4.68359375 C-17.18837388 -1.75047497 -8.52028221 -2.75198896 0 0 Z " fill="#D30C0D" transform="translate(792.140625,576.69140625)"/>
<path d="M0 0 C1.30453125 -0.04898438 2.6090625 -0.09796875 3.953125 -0.1484375 C7.55423716 0.34801212 9.94633631 0.8970497 12.62890625 3.44042969 C15.24927589 7.9621651 14.63591883 13.61297158 14.625 18.6875 C14.645625 19.90501953 14.66625 21.12253906 14.6875 22.37695312 C14.73455933 25.37698568 14.75444446 28.37467407 14.75 31.375 C11.78 31.375 8.81 31.375 5.75 31.375 C5.42 30.055 5.09 28.735 4.75 27.375 C3.96625 28.014375 3.1825 28.65375 2.375 29.3125 C-1.72573011 32.53450223 -4.02996028 32.64500205 -9.25 32.375 C-12.19413861 31.47540209 -13.09757178 30.57097914 -15 28.125 C-16.51562024 24.79063546 -16.92818179 22.99196953 -16.25 19.375 C-11.27647701 13.08495621 -3.80075883 12.64725114 3.75 11.375 C3.75 10.385 3.75 9.395 3.75 8.375 C0.78 8.375 -2.19 8.375 -5.25 8.375 C-5.25 9.365 -5.25 10.355 -5.25 11.375 C-8.55 11.375 -11.85 11.375 -15.25 11.375 C-14.83534283 6.53733301 -12.8301385 4.51853624 -9.25 1.375 C-6.21909721 -0.14045139 -3.36990957 0.08589966 0 0 Z " fill="#D30707" transform="translate(650.25,575.625)"/>
<path d="M0 0 C3.09713602 0.42165223 5.02359752 1.31446607 7.41015625 3.328125 C9.70771547 6.77446382 9.64659601 8.03880891 9.60546875 12.08984375 C9.59902344 13.20810547 9.59257812 14.32636719 9.5859375 15.47851562 C9.56917969 16.64576172 9.55242187 17.81300781 9.53515625 19.015625 C9.52613281 20.19447266 9.51710938 21.37332031 9.5078125 22.58789062 C9.48422048 25.50150526 9.45130165 28.41471392 9.41015625 31.328125 C6.11015625 31.328125 2.81015625 31.328125 -0.58984375 31.328125 C-0.63882812 29.90757812 -0.6878125 28.48703125 -0.73828125 27.0234375 C-0.81330311 25.16664644 -0.88885119 23.30987659 -0.96484375 21.453125 C-0.99578125 20.51597656 -1.02671875 19.57882812 -1.05859375 18.61328125 C-1.09726562 17.71738281 -1.1359375 16.82148437 -1.17578125 15.8984375 C-1.20720215 15.07102051 -1.23862305 14.24360352 -1.27099609 13.39111328 C-1.41583512 11.10826415 -1.41583512 11.10826415 -3.58984375 9.328125 C-6.58984375 8.91145833 -6.58984375 8.91145833 -9.58984375 9.328125 C-11.64112219 12.40504266 -11.86245247 13.26457499 -12.00390625 16.77734375 C-12.06191406 18.04868164 -12.06191406 18.04868164 -12.12109375 19.34570312 C-12.1675 20.66731445 -12.1675 20.66731445 -12.21484375 22.015625 C-12.27285156 23.35463867 -12.27285156 23.35463867 -12.33203125 24.72070312 C-12.42624026 26.92283878 -12.50912869 29.12545347 -12.58984375 31.328125 C-15.88984375 31.328125 -19.18984375 31.328125 -22.58984375 31.328125 C-22.58984375 21.428125 -22.58984375 11.528125 -22.58984375 1.328125 C-19.28984375 1.328125 -15.98984375 1.328125 -12.58984375 1.328125 C-12.25984375 2.318125 -11.92984375 3.308125 -11.58984375 4.328125 C-11.13609375 3.668125 -10.68234375 3.008125 -10.21484375 2.328125 C-6.72636767 -0.32976154 -4.28646382 -0.17676139 0 0 Z " fill="#D10C0D" transform="translate(417.58984375,575.671875)"/>
<path d="M0 0 C3.3 0 6.6 0 10 0 C10.06058594 1.34835937 10.12117188 2.69671875 10.18359375 4.0859375 C10.26799422 5.8489696 10.35264247 7.61198984 10.4375 9.375 C10.47681641 10.26445313 10.51613281 11.15390625 10.55664062 12.0703125 C10.61948242 13.34648438 10.61948242 13.34648438 10.68359375 14.6484375 C10.72025146 15.43395996 10.75690918 16.21948242 10.79467773 17.02880859 C10.890891 19.07523496 10.890891 19.07523496 12 21 C15.41642759 21.25015873 15.41642759 21.25015873 19 21 C21.0140956 17.9788566 21.26836596 17.19339983 21.4140625 13.76953125 C21.45273437 12.96708984 21.49140625 12.16464844 21.53125 11.33789062 C21.57765625 10.08782227 21.57765625 10.08782227 21.625 8.8125 C21.66367187 7.96751953 21.70234375 7.12253906 21.7421875 6.25195312 C21.83636279 4.16832476 21.91926675 2.08419247 22 0 C25.3 0 28.6 0 32 0 C32 9.9 32 19.8 32 30 C28.7 30 25.4 30 22 30 C21.67 28.68 21.34 27.36 21 26 C20.38125 26.639375 19.7625 27.27875 19.125 27.9375 C15.91470426 31.05337528 13.59215453 31.3963311 9.10546875 31.35546875 C5.34430885 30.72046773 3.59708952 28.72377681 1 26 C-0.01973129 22.94080612 -0.11533602 20.87581975 -0.09765625 17.67578125 C-0.09443359 16.64775391 -0.09121094 15.61972656 -0.08789062 14.56054688 C-0.07951172 13.48869141 -0.07113281 12.41683594 -0.0625 11.3125 C-0.05798828 10.22904297 -0.05347656 9.14558594 -0.04882812 8.02929688 C-0.03703757 5.35284106 -0.01910208 2.67641361 0 0 Z " fill="#D30808" transform="translate(307,577)"/>
<path d="M0 0 C3.70382535 2.04662312 5.64916715 3.47375072 8 7 C8 7.99 8 8.98 8 10 C6.37581255 10.08090971 4.75048255 10.13914995 3.125 10.1875 C2.22007812 10.22230469 1.31515625 10.25710938 0.3828125 10.29296875 C-0.79667969 10.14794922 -0.79667969 10.14794922 -2 10 C-2.66 9.01 -3.32 8.02 -4 7 C-7.08365871 6.7497843 -7.08365871 6.7497843 -10 7 C-10 8.32 -10 9.64 -10 11 C-8.67935547 11.14695312 -8.67935547 11.14695312 -7.33203125 11.296875 C-6.17058594 11.44640625 -5.00914062 11.5959375 -3.8125 11.75 C-2.08966797 11.95882812 -2.08966797 11.95882812 -0.33203125 12.171875 C3.43709528 13.10863329 5.31533156 14.21131304 8 17 C8.99267149 20.10001879 8.81168318 22.85962576 8 26 C5.84208283 28.78758297 3.14747766 30.42626117 0 32 C-13.77276685 32.98920425 -13.77276685 32.98920425 -19 29 C-21.216452 26.04473066 -22 24.71253164 -22 21 C-18.7 21 -15.4 21 -12 21 C-11.67 21.99 -11.34 22.98 -11 24 C-8.03 24.33 -5.06 24.66 -2 25 C-2.33 23.68 -2.66 22.36 -3 21 C-3.80824219 20.90203125 -4.61648438 20.8040625 -5.44921875 20.703125 C-16.19409428 19.1996201 -16.19409428 19.1996201 -20 15 C-21.63262584 11.73474833 -21.64556831 8.51700235 -21 5 C-16.20690204 -1.97177886 -7.74652124 -1.2000487 0 0 Z " fill="#D31112" transform="translate(489,576)"/>
<path d="M0 0 C5.72068727 3.12215998 5.72068727 3.12215998 6.875 6.75 C6.91625 7.4925 6.9575 8.235 7 9 C5.54207116 9.05399736 4.08357288 9.09279177 2.625 9.125 C1.81289063 9.14820313 1.00078125 9.17140625 0.1640625 9.1953125 C-2 9 -2 9 -4 7 C-7.58343976 6.83322718 -7.58343976 6.83322718 -11 7 C-11.33 8.32 -11.66 9.64 -12 11 C-11.20335937 11.03738281 -10.40671875 11.07476563 -9.5859375 11.11328125 C-2.69509481 11.54081529 2.89151251 11.89151251 8 17 C8.34835745 20.69258893 8.28580202 23.30137284 6.875 26.75 C3.7805302 30.46336376 0.98500887 31.80122682 -3.84765625 32.28515625 C-9.56075149 32.447983 -14.1986844 32.44709838 -19 29 C-21.88092425 26.02304494 -22 25.33178252 -22 21 C-20.54257537 20.91903197 -19.08387193 20.86082226 -17.625 20.8125 C-16.81289063 20.77769531 -16.00078125 20.74289062 -15.1640625 20.70703125 C-14.44992187 20.80371094 -13.73578125 20.90039062 -13 21 C-12.34 21.99 -11.68 22.98 -11 24 C-9.02252878 24.36297936 -9.02252878 24.36297936 -6.875 24.1875 C-5.59625 24.125625 -4.3175 24.06375 -3 24 C-2.67 23.01 -2.34 22.02 -2 21 C-3.30324219 20.85304688 -3.30324219 20.85304688 -4.6328125 20.703125 C-17.46687697 19.03785489 -17.46687697 19.03785489 -21 15 C-21.85308032 11.4743324 -21.80447073 8.53168354 -21 5 C-16.35235444 -2.04188721 -7.69325122 -1.1917964 0 0 Z " fill="#D30E0F" transform="translate(366,576)"/>
<path d="M0 0 C3.01952405 1.49809462 5.2022653 3.12502349 7 6 C7 6.99 7 7.98 7 9 C5.5629191 9.05422947 4.12524538 9.09289723 2.6875 9.125 C1.88699219 9.14820313 1.08648438 9.17140625 0.26171875 9.1953125 C-2 9 -2 9 -5 7 C-8.12521833 6.83300768 -8.12521833 6.83300768 -11 7 C-11.33 8.32 -11.66 9.64 -12 11 C-10.44539062 11.16435547 -10.44539062 11.16435547 -8.859375 11.33203125 C-7.48950736 11.49153639 -6.11971963 11.65172884 -4.75 11.8125 C-3.72712891 11.91788086 -3.72712891 11.91788086 -2.68359375 12.02539062 C1.29699513 12.5084718 4.2691348 12.93812084 7 16 C7.76611543 19.37428781 7.55897244 22.59585787 7 26 C4.83246184 29.09648309 2.45549174 30.57715046 -1 32 C-12.85501453 33.31722384 -12.85501453 33.31722384 -17.6875 30.1875 C-20 28 -20 28 -22 25 C-22 23.68 -22 22.36 -22 21 C-20.54257537 20.91903197 -19.08387193 20.86082226 -17.625 20.8125 C-16.81289063 20.77769531 -16.00078125 20.74289062 -15.1640625 20.70703125 C-14.44992187 20.80371094 -13.73578125 20.90039062 -13 21 C-12.34 21.99 -11.68 22.98 -11 24 C-9.02252878 24.36297936 -9.02252878 24.36297936 -6.875 24.1875 C-5.59625 24.125625 -4.3175 24.06375 -3 24 C-2.67 23.01 -2.34 22.02 -2 21 C-3.10859375 20.82984375 -4.2171875 20.6596875 -5.359375 20.484375 C-6.82305768 20.24042789 -8.28659196 19.99558924 -9.75 19.75 C-10.84441406 19.58564453 -10.84441406 19.58564453 -11.9609375 19.41796875 C-16.44350956 18.6437063 -19.22018629 17.8817859 -22 14 C-22.71277298 9.9825523 -22.96114835 7.69994148 -20.953125 4.1484375 C-15.48830606 -1.79525733 -7.44248148 -1.24994475 0 0 Z " fill="#D31011" transform="translate(523,576)"/>
<path d="M0 0 C0.71353638 0.00202423 1.42707275 0.00404846 2.16223145 0.00613403 C2.89091431 0.00517731 3.61959717 0.00422058 4.37036133 0.00323486 C5.91377855 0.00255318 7.45719861 0.00440666 9.00061035 0.00857544 C11.37095544 0.01392391 13.74111104 0.00863011 16.1114502 0.00222778 C17.60754437 0.00288857 19.10363842 0.00416973 20.59973145 0.00613403 C21.31326782 0.0041098 22.0268042 0.00208557 22.76196289 0 C27.76602953 0.02399462 27.76602953 0.02399462 28.88098145 1.13894653 C28.97949315 2.97010536 29.01070774 4.80514587 29.00598145 6.63894653 C29.00984863 8.13941528 29.00984863 8.13941528 29.01379395 9.67019653 C28.88098145 12.13894653 28.88098145 12.13894653 27.88098145 13.13894653 C25.44437699 13.23977417 23.03673444 13.27867257 20.59973145 13.27175903 C19.87104858 13.27271576 19.14236572 13.27367249 18.39160156 13.2746582 C16.84818435 13.27533989 15.30476428 13.27348641 13.76135254 13.26931763 C11.39100745 13.26396916 9.02085185 13.26926295 6.6505127 13.27566528 C5.15441852 13.2750045 3.65832447 13.27372333 2.16223145 13.27175903 C1.09192688 13.27479538 1.09192688 13.27479538 0 13.27789307 C-5.00406664 13.25389845 -5.00406664 13.25389845 -6.11901855 12.13894653 C-6.21753026 10.3077877 -6.24874485 8.4727472 -6.24401855 6.63894653 C-6.24659668 5.63863403 -6.2491748 4.63832153 -6.25183105 3.60769653 C-6.01231563 -0.84447262 -3.950356 0.01894205 0 0 Z " fill="#D41515" transform="translate(474.1190185546875,521.8610534667969)"/>
<path d="M0 0 C0 3.63 0 7.26 0 11 C-2.31119792 11.1953125 -4.62239583 11.390625 -6.93359375 11.5859375 C-7.95646484 11.79089844 -7.95646484 11.79089844 -9 12 C-10.6498007 15.29960141 -10.38258361 18.99127884 -10.5625 22.625 C-10.60568359 23.42679688 -10.64886719 24.22859375 -10.69335938 25.0546875 C-10.79951457 27.0362511 -10.90026855 29.01810271 -11 31 C-14.3 31 -17.6 31 -21 31 C-21 21.1 -21 11.2 -21 1 C-17.7 1 -14.4 1 -11 1 C-10.67 1.66 -10.34 2.32 -10 3 C-9.649375 2.505 -9.29875 2.01 -8.9375 1.5 C-6.05625711 -0.73063966 -3.52990974 -0.19980621 0 0 Z " fill="#D30D0E" transform="translate(825,576)"/>
<path d="M0 0 C0.33 0 0.66 0 1 0 C1.33 4.62 1.66 9.24 2 14 C3.32 13.01 4.64 12.02 6 11 C8.5859375 10.4609375 8.5859375 10.4609375 11.375 10.375 C12.74785156 10.29378906 12.74785156 10.29378906 14.1484375 10.2109375 C17.83226994 11.23029935 19.4950036 12.70000848 21.83544922 15.68261719 C24.17638804 20.34093821 23.61052748 25.34950253 23.375 30.4375 C23.34792969 31.55060547 23.32085938 32.66371094 23.29296875 33.81054688 C23.22265136 36.54120557 23.11504572 39.27085985 23 42 C19.37 42 15.74 42 12 42 C11.67 35.07 11.34 28.14 11 21 C8.69 20.34 6.38 19.68 4 19 C3.67 18.34 3.34 17.68 3 17 C2.01 16.67 1.02 16.34 0 16 C0 10.72 0 5.44 0 0 Z " fill="#D30F10" transform="translate(607,565)"/>
<path d="M0 0 C2.3125 0.375 2.3125 0.375 5 2 C6.0635157 4.56191028 6.75763142 7.09342502 7.421875 9.78515625 C7.78976173 11.95829361 7.78976173 11.95829361 9 13 C10.32781878 13.20604085 11.66295895 13.3662959 13 13.5 C16.88888889 13.88888889 16.88888889 13.88888889 18 15 C18.125 18 18.125 18 18 21 C17 22 17 22 14.13256836 22.11352539 C12.88096924 22.10828857 11.62937012 22.10305176 10.33984375 22.09765625 C9.34314415 22.09553383 9.34314415 22.09553383 8.3263092 22.09336853 C6.19666101 22.08775518 4.06711661 22.07520054 1.9375 22.0625 C0.49674631 22.05748671 -0.94400903 22.05292351 -2.38476562 22.04882812 C-5.92321102 22.03778145 -9.46159539 22.02050792 -13 22 C-13 19.69 -13 17.38 -13 15 C-11.39125 14.443125 -11.39125 14.443125 -9.75 13.875 C-5.70911886 12.1361966 -4.07340995 9.91644101 -2 6 C-0.75675853 2.7750792 -0.75675853 2.7750792 0 0 Z " fill="#D40708" transform="translate(792,532)"/>
<path d="M0 0 C3.63 0 7.26 0 11 0 C11 10.23 11 20.46 11 31 C7.37 31 3.74 31 0 31 C0 20.77 0 10.54 0 0 Z " fill="#D41717" transform="translate(378,576)"/>
<path d="M0 0 C0.66 0 1.32 0 2 0 C2.20086443 3.71599191 2.1519437 4.77208445 0 8 C0.66 8 1.32 8 2 8 C1.39009109 11.55780196 0.4216319 14.6828589 -1 18 C-0.01 18.33 0.98 18.66 2 19 C-3.38147883 23.56255814 -5.63716467 25.38083631 -13 25 C-15.94413861 24.10040209 -16.84757178 23.19597914 -18.75 20.75 C-20.26562024 17.41563546 -20.67818179 15.61696953 -20 12 C-15.02647701 5.70995621 -7.55075883 5.27225114 0 4 C0 2.68 0 1.36 0 0 Z " fill="#D21011" transform="translate(654,583)"/>
<path d="M0 0 C2.64 0 5.28 0 8 0 C9.73052187 3.72387044 10.20493549 6.43165465 9.9765625 10.51953125 C9.925 11.54111328 9.8734375 12.56269531 9.8203125 13.61523438 C9.75585938 14.67033203 9.69140625 15.72542969 9.625 16.8125 C9.56828125 17.88693359 9.5115625 18.96136719 9.453125 20.06835938 C9.31207992 22.71295466 9.16071024 25.35653894 9 28 C6.03 28 3.06 28 0 28 C0 18.76 0 9.52 0 0 Z " fill="#D40102" transform="translate(671,578)"/>
<path d="M0 0 C2.64 0 5.28 0 8 0 C8.66 1.32 9.32 2.64 10 4 C10.99 4 11.98 4 13 4 C12.35546875 4.97066406 11.7109375 5.94132813 11.046875 6.94140625 C8.59360787 11.23462372 8.34173839 15.07119541 8.25 19.9375 C8.22035156 20.71673828 8.19070313 21.49597656 8.16015625 22.29882812 C8.09022299 24.19868177 8.04275949 26.0993406 8 28 C5.36 28 2.72 28 0 28 C0 18.76 0 9.52 0 0 Z " fill="#D50102" transform="translate(396,578)"/>
<path d="M0 0 C2.34847961 2.12798646 3.62551811 3.98065494 4.82421875 6.90625 C5.13037109 7.65003906 5.43652344 8.39382813 5.75195312 9.16015625 C6.06068359 9.93230469 6.36941406 10.70445312 6.6875 11.5 C7.00783203 12.27214844 7.32816406 13.04429687 7.65820312 13.83984375 C10 19.60196229 10 19.60196229 10 23 C3.73 23 -2.54 23 -9 23 C-6.81966188 14.88429701 -3.65987185 7.55662861 0 0 Z " fill="#F8EBEA" transform="translate(259,499)"/>
<path d="M0 0 C2.64 0 5.28 0 8 0 C8 9.24 8 18.48 8 28 C5.36 28 2.72 28 0 28 C-0.33 25.69 -0.66 23.38 -1 21 C-1.66 21 -2.32 21 -3 21 C-2.68289063 20.34644531 -2.36578125 19.69289063 -2.0390625 19.01953125 C-0.7271334 15.20704555 -0.54673638 11.69110429 -0.375 7.6875 C-0.33632813 6.94693359 -0.29765625 6.20636719 -0.2578125 5.44335938 C-0.16418295 3.62928691 -0.08103149 1.81467884 0 0 Z " fill="#D60202" transform="translate(330,578)"/>
<path d="M0 0 C2.07539966 2.07539966 2.66322649 3.33238 3.69140625 6.02734375 C3.99626953 6.81947266 4.30113281 7.61160156 4.61523438 8.42773438 C4.92783203 9.25595703 5.24042969 10.08417969 5.5625 10.9375 C5.87896484 11.76185547 6.19542969 12.58621094 6.52148438 13.43554688 C7.73602262 16.6098496 8.92507876 19.77523628 10 23 C3.73 23 -2.54 23 -9 23 C-7.8743619 16.24617143 -7.8743619 16.24617143 -6.40625 12.94921875 C-6.09816406 12.25119141 -5.79007813 11.55316406 -5.47265625 10.83398438 C-5.15167969 10.12564453 -4.83070313 9.41730469 -4.5 8.6875 C-4.01853516 7.59598633 -4.01853516 7.59598633 -3.52734375 6.48242188 C-1.15334821 1.15334821 -1.15334821 1.15334821 0 0 Z " fill="#F8EBEB" transform="translate(815,499)"/>
<path d="M0 0 C0.77528479 3.42573937 1.11918778 6.57239245 1.09765625 10.08203125 C1.09443359 11.01337891 1.09121094 11.94472656 1.08789062 12.90429688 C1.07951172 13.86400391 1.07113281 14.82371094 1.0625 15.8125 C1.05798828 16.79154297 1.05347656 17.77058594 1.04882812 18.77929688 C1.03708702 21.18622431 1.01915289 23.59312013 1 26 C-1.97 26 -4.94 26 -8 26 C-8.0540485 22.60395258 -8.09369798 19.20876927 -8.125 15.8125 C-8.14175781 14.85279297 -8.15851562 13.89308594 -8.17578125 12.90429688 C-8.18222656 11.97294922 -8.18867187 11.04160156 -8.1953125 10.08203125 C-8.20578613 9.22843018 -8.21625977 8.3748291 -8.22705078 7.49536133 C-7.96858573 4.65474704 -7.26446882 2.55085361 -6 0 C-3.50907189 -1.24546405 -2.58919267 -0.7767578 0 0 Z " fill="#D40202" transform="translate(721,580)"/>
<path d="M0 0 C0.66 0.33 1.32 0.66 2 1 C2.29216602 5.96682232 2.24708889 9.10349334 -1 13 C-6.3782096 16.9991815 -12.58537094 16.65114204 -19 16 C-23.19838027 14.52688412 -25.84476099 12.95127152 -28 9 C-28 7.68 -28 6.36 -28 5 C-26.54257537 4.91903197 -25.08387193 4.86082226 -23.625 4.8125 C-22.81289063 4.77769531 -22.00078125 4.74289062 -21.1640625 4.70703125 C-20.44992187 4.80371094 -19.73578125 4.90039062 -19 5 C-18.01 6.485 -18.01 6.485 -17 8 C-12.1472189 8.32351874 -7.78003652 7.9560073 -3 7 C-3 7.99 -3 8.98 -3 10 C-2.34 10 -1.68 10 -1 10 C-0.67 6.7 -0.34 3.4 0 0 Z " fill="#D31919" transform="translate(372,592)"/>
<path d="M0 0 C1.33333333 2 2.66666667 4 4 6 C8.05445642 6.43132515 9.54970958 6.30019361 13 4 C15.48046875 3.8046875 15.48046875 3.8046875 18.1875 3.875 C19.08855469 3.89304687 19.98960937 3.91109375 20.91796875 3.9296875 C21.60503906 3.95289063 22.29210937 3.97609375 23 4 C22.15220218 7.70911547 20.62780368 9.6320409 17.625 11.8125 C12.3235373 14.86954783 6.94994913 14.91087704 1 14 C-2.42436879 12.70269105 -4.44449872 10.9090021 -6.375 7.75 C-6.58125 7.1725 -6.7875 6.595 -7 6 C-5.68 5.67 -4.36 5.34 -3 5 C-3 4.01 -3 3.02 -3 2 C-2.34 2 -1.68 2 -1 2 C-0.67 1.34 -0.34 0.68 0 0 Z " fill="#D20F10" transform="translate(776,594)"/>
<path d="M0 0 C6.35528749 -0.01043561 6.35528749 -0.01043561 9.00390625 1.99609375 C10.31102795 5.39461017 10.38540029 7.81821367 9.94140625 11.43359375 C8.31640625 14.37109375 8.31640625 14.37109375 5.94140625 16.43359375 C2.35129232 17.10674011 0.69041293 16.8869399 -2.43359375 14.99609375 C-4.78367469 11.29019689 -4.737479 7.72004366 -4.05859375 3.43359375 C-2.05859375 0.43359375 -2.05859375 0.43359375 0 0 Z " fill="#F9F0EF" transform="translate(743.05859375,583.56640625)"/>
<path d="M0 0 C-2.8971614 2.8971614 -6.48953193 3.60495972 -10.3125 4.8125 C-17.17641712 7.03034822 -23.89816215 9.42880753 -30.59375 12.1171875 C-33 13 -33 13 -35 13 C-35.1875 10.625 -35.1875 10.625 -35 8 C-34.01 7.34 -33.02 6.68 -32 6 C-37.1693489 6.40556131 -37.1693489 6.40556131 -42 8 C-44.00800456 7.71887936 -46.01014051 7.38932033 -48 7 C-48 6.67 -48 6.34 -48 6 C-38.92953106 3.95042288 -29.84873767 2.48461242 -20.625 1.3125 C-19.61566406 1.18125732 -18.60632813 1.05001465 -17.56640625 0.91479492 C-11.66110765 0.18976197 -5.94905398 -0.12932726 0 0 Z " fill="#FA9D3C" transform="translate(472,251)"/>
<path d="M0 0 C0.97066406 -0.01675781 1.94132813 -0.03351562 2.94140625 -0.05078125 C3.76511719 0.06910156 4.58882812 0.18898438 5.4375 0.3125 C6.0975 1.3025 6.7575 2.2925 7.4375 3.3125 C6.1175 3.6425 4.7975 3.9725 3.4375 4.3125 C2.69234101 7.69886309 2.26979437 10.93193103 2.12109375 14.39453125 C2.07919922 15.32587891 2.03730469 16.25722656 1.99414062 17.21679688 C1.95482422 18.17650391 1.91550781 19.13621094 1.875 20.125 C1.83181641 21.10404297 1.78863281 22.08308594 1.74414062 23.09179688 C1.63847834 25.49854898 1.53752535 27.90550703 1.4375 30.3125 C4.4075 30.3125 7.3775 30.3125 10.4375 30.3125 C9.9425 17.9375 9.9425 17.9375 9.4375 5.3125 C11.67163013 8.66369519 11.67597762 9.7302755 11.6328125 13.63671875 C11.62636719 14.66474609 11.61992188 15.69277344 11.61328125 16.75195312 C11.59652344 17.82380859 11.57976563 18.89566406 11.5625 20 C11.55347656 21.08345703 11.54445313 22.16691406 11.53515625 23.28320312 C11.51157452 25.95972948 11.47570336 28.63614241 11.4375 31.3125 C7.8075 31.3125 4.1775 31.3125 0.4375 31.3125 C0.37691406 29.80816406 0.31632813 28.30382812 0.25390625 26.75390625 C0.16951957 24.79426011 0.08487065 22.83462524 0 20.875 C-0.03931641 19.88177734 -0.07863281 18.88855469 -0.11914062 17.86523438 C-0.18198242 16.44887695 -0.18198242 16.44887695 -0.24609375 15.00390625 C-0.28275146 14.12935791 -0.31940918 13.25480957 -0.35717773 12.35375977 C-0.34431066 10.3197598 -0.34431066 10.3197598 -1.5625 9.3125 C-4.52067107 9.06244614 -4.52067107 9.06244614 -7.5625 9.3125 C-8.2225 9.9725 -8.8825 10.6325 -9.5625 11.3125 C-9.5625 10.6525 -9.5625 9.9925 -9.5625 9.3125 C-10.2225 8.9825 -10.8825 8.6525 -11.5625 8.3125 C-12.1875 6.25 -12.1875 6.25 -12.5625 4.3125 C-11.6653125 3.879375 -11.6653125 3.879375 -10.75 3.4375 C-4.09780157 0.01636938 -4.09780157 0.01636938 0 0 Z " fill="#D42727" transform="translate(711.5625,575.6875)"/>
<path d="M0 0 C0.33 0 0.66 0 1 0 C1.33 2.31 1.66 4.62 2 7 C4.475 7.495 4.475 7.495 7 8 C7.33 7.01 7.66 6.02 8 5 C13.03356296 6.23631371 18.02426068 7.5487427 23 9 C23 10.32 23 11.64 23 13 C20.03 13 17.06 13 14 13 C13.505 11.02 13.505 11.02 13 9 C11.3954444 9.14148989 9.79136233 9.28835686 8.1875 9.4375 C6.84751953 9.55931641 6.84751953 9.55931641 5.48046875 9.68359375 C2.87256441 9.93489767 2.87256441 9.93489767 0 11 C-2.84042412 11.02954379 -5.66508848 10.93409401 -8.50390625 10.83984375 C-11.17566478 10.73541217 -11.17566478 10.73541217 -13 13 C-18.20844327 13.55408971 -18.20844327 13.55408971 -20.875 11.6875 C-22 10 -22 10 -22 7 C-14.74 7 -7.48 7 0 7 C0 4.69 0 2.38 0 0 Z " fill="#F8EEED" transform="translate(464,588)"/>
<path d="M0 0 C0.99 0.66 1.98 1.32 3 2 C6.04195427 2.33340471 6.04195427 2.33340471 9 2 C9.66 1.34 10.32 0.68 11 0 C13.6015625 -0.1953125 13.6015625 -0.1953125 16.625 -0.125 C18.12933594 -0.09792969 18.12933594 -0.09792969 19.6640625 -0.0703125 C20.43492187 -0.04710937 21.20578125 -0.02390625 22 0 C20.39910509 4.71550728 18.73346177 6.58835645 14.4921875 9.05078125 C9.82346765 10.82899273 4.8903854 10.83835178 0 10 C-2.359375 8.46875 -2.359375 8.46875 -4 7 C-3.525625 6.401875 -3.05125 5.80375 -2.5625 5.1875 C-0.83534256 2.99617076 -0.83534256 2.99617076 0 0 Z " fill="#D21213" transform="translate(442,598)"/>
<path d="M0 0 C2.12472576 -0.05386629 4.24983652 -0.09273071 6.375 -0.125 C7.55835938 -0.14820313 8.74171875 -0.17140625 9.9609375 -0.1953125 C13 0 13 0 15 2 C15.3125 4.5 15.3125 4.5 15 7 C11.47320901 9.35119399 9.97120515 9.21443452 5.8125 9.125 C4.72582031 9.10695313 3.63914062 9.08890625 2.51953125 9.0703125 C1.27236328 9.03550781 1.27236328 9.03550781 0 9 C0 6.03 0 3.06 0 0 Z " fill="#F9ECEB" transform="translate(276,590)"/>
<path d="M0 0 C1.05960938 0.00676758 1.05960938 0.00676758 2.140625 0.01367188 C3.88545275 0.02546125 5.630237 0.04339676 7.375 0.0625 C7.375 0.3925 7.375 0.7225 7.375 1.0625 C4.735 1.3925 2.095 1.7225 -0.625 2.0625 C-0.955 3.3825 -1.285 4.7025 -1.625 6.0625 C-0.305 6.3925 1.015 6.7225 2.375 7.0625 C-0.265 7.3925 -2.905 7.7225 -5.625 8.0625 C-5.625 9.0525 -5.625 10.0425 -5.625 11.0625 C-8.925 11.0625 -12.225 11.0625 -15.625 11.0625 C-15.21034283 6.22483301 -13.2051385 4.20603624 -9.625 1.0625 C-6.55966836 -0.47016582 -3.35745728 -0.04026471 0 0 Z " fill="#D2191A" transform="translate(650.625,575.9375)"/>
<path d="M0 0 C2.14576637 -0.02685938 4.29162645 -0.04633088 6.4375 -0.0625 C7.63246094 -0.07410156 8.82742188 -0.08570313 10.05859375 -0.09765625 C13 0 13 0 14 1 C14.1875 3.4375 14.1875 3.4375 14 6 C12 8 12 8 9.1796875 8.1953125 C8.08914063 8.17210937 6.99859375 8.14890625 5.875 8.125 C4.77929688 8.10695313 3.68359375 8.08890625 2.5546875 8.0703125 C1.71164062 8.04710937 0.86859375 8.02390625 0 8 C0 5.36 0 2.72 0 0 Z " fill="#F8ECEC" transform="translate(276,575)"/>
<path d="M0 0 C3.3 0 6.6 0 10 0 C10 9.9 10 19.8 10 30 C6.7 30 3.4 30 0 30 C-0.33 28.68 -0.66 27.36 -1 26 C-2.32 27.32 -3.64 28.64 -5 30 C-5.66 29.01 -6.32 28.02 -7 27 C-5.68 27 -4.36 27 -3 27 C-3 26.01 -3 25.02 -3 24 C-5.64 23.67 -8.28 23.34 -11 23 C-10.67 22.34 -10.34 21.68 -10 21 C-2.61195219 20.63665339 -2.61195219 20.63665339 0 22.1875 C1.30894168 24.55995679 1.21620175 26.3335118 1 29 C3.64 29 6.28 29 9 29 C9 19.76 9 10.52 9 1 C6.36 1 3.72 1 1 1 C1 6.28 1 11.56 1 17 C0.67 17 0.34 17 0 17 C0 11.39 0 5.78 0 0 Z " fill="#C70C0D" transform="translate(329,577)"/>
<path d="M0 0 C0.5775 0.20625 1.155 0.4125 1.75 0.625 C0.76 1.12 0.76 1.12 -0.25 1.625 C-0.25 2.945 -0.25 4.265 -0.25 5.625 C0.74 5.955 1.73 6.285 2.75 6.625 C-5.98952546 8.07296872 -14.38911833 8.91711698 -23.25 8.625 C-20.54857091 5.92357091 -17.4354847 5.23765147 -13.875 4.125 C-8.79052899 2.55388042 -8.79052899 2.55388042 -3.9140625 0.4453125 C-2.25 -0.375 -2.25 -0.375 0 0 Z " fill="#248D19" transform="translate(632.25,820.375)"/>
<path d="M0 0 C7.26 0 14.52 0 22 0 C22 0.33 22 0.66 22 1 C18.7 1 15.4 1 12 1 C12 1.66 12 2.32 12 3 C15.3 3 18.6 3 22 3 C22 3.33 22 3.66 22 4 C21.31292969 4.04898438 20.62585938 4.09796875 19.91796875 4.1484375 C19.01691406 4.22320313 18.11585938 4.29796875 17.1875 4.375 C16.29417969 4.44460938 15.40085937 4.51421875 14.48046875 4.5859375 C11.75601501 4.86645036 11.75601501 4.86645036 9 7 C6 7.375 6 7.375 3 7 C1.125 5.1875 1.125 5.1875 0 3 C0 2.01 0 1.02 0 0 Z " fill="#F0CECC" transform="translate(777,594)"/>
<path d="M0 0 C6.875 0.875 6.875 0.875 8 2 C8.09823996 3.47648876 8.12973519 4.95775417 8.125 6.4375 C8.12757813 7.24058594 8.13015625 8.04367187 8.1328125 8.87109375 C8 11 8 11 7 13 C6.34 13 5.68 13 5 13 C5 12.01 5 11.02 5 10 C3.35 10.33 1.7 10.66 0 11 C-2.21538462 4.6 -2.21538462 4.6 -1.125 1.5625 C-0.75375 1.046875 -0.3825 0.53125 0 0 Z " fill="#D30506" transform="translate(364,589)"/>
<path d="M0 0 C1.64510941 0.00015915 3.29022379 0.00585551 4.93530273 0.01586914 C6.23164894 0.01799156 6.23164894 0.01799156 7.55418396 0.02015686 C10.32578941 0.025773 13.09731528 0.0383282 15.86889648 0.05102539 C17.74324428 0.05603831 19.61759334 0.06060158 21.49194336 0.06469727 C26.09679192 0.07574767 30.70158069 0.09302309 35.30639648 0.11352539 C35.30639648 0.44352539 35.30639648 0.77352539 35.30639648 1.11352539 C24.41639648 1.11352539 13.52639648 1.11352539 2.30639648 1.11352539 C2.30639648 1.77352539 2.30639648 2.43352539 2.30639648 3.11352539 C1.64639648 3.11352539 0.98639648 3.11352539 0.30639648 3.11352539 C0.30639648 4.10352539 0.30639648 5.09352539 0.30639648 6.11352539 C1.62639648 6.11352539 2.94639648 6.11352539 4.30639648 6.11352539 C4.30639648 6.77352539 4.30639648 7.43352539 4.30639648 8.11352539 C-1.84594727 8.21118164 -1.84594727 8.21118164 -3.69360352 8.11352539 C-4.69360352 7.11352539 -4.69360352 7.11352539 -4.81860352 4.11352539 C-4.6353327 -0.28497427 -4.53629438 0.13942606 0 0 Z " fill="#D43132" transform="translate(739.693603515625,475.886474609375)"/>
<path d="M0 0 C0.94875 0.04125 1.8975 0.0825 2.875 0.125 C3.535 1.445 4.195 2.765 4.875 4.125 C6.793125 4.063125 6.793125 4.063125 8.75 4 C10.9296875 3.9296875 10.9296875 3.9296875 12.875 4.125 C13.535 4.785 14.195 5.445 14.875 6.125 C13.885 6.125 12.895 6.125 11.875 6.125 C11.875 6.785 11.875 7.445 11.875 8.125 C9.41268571 7.89734077 6.95782721 7.64410517 4.5 7.375 C3.80132812 7.313125 3.10265625 7.25125 2.3828125 7.1875 C0.3515625 6.953125 0.3515625 6.953125 -3.125 6.125 C-4.6015625 4.046875 -4.6015625 4.046875 -5.125 2.125 C-3.125 0.125 -3.125 0.125 0 0 Z " fill="#F6E6E5" transform="translate(482.125,581.875)"/>
<path d="M0 0 C0.68449219 0.29648437 1.36898438 0.59296875 2.07421875 0.8984375 C5.28952332 2.10900611 8.45971785 2.8799373 11.8125 3.625 C12.97394531 3.88539063 14.13539063 4.14578125 15.33203125 4.4140625 C16.21246094 4.60742188 17.09289062 4.80078125 18 5 C17.67 6.32 17.34 7.64 17 9 C14.36 9 11.72 9 9 9 C8.34 7.68 7.68 6.36 7 5 C4.03 5 1.06 5 -2 5 C-0.68 4.67 0.64 4.34 2 4 C2 3.34 2 2.68 2 2 C1.34 2 0.68 2 0 2 C0 1.34 0 0.68 0 0 Z " fill="#F9EFEE" transform="translate(346,592)"/>
<path d="M0 0 C4.62 0 9.24 0 14 0 C14 0.33 14 0.66 14 1 C16.64 1.33 19.28 1.66 22 2 C22 2.33 22 2.66 22 3 C20.84371094 3.07347656 20.84371094 3.07347656 19.6640625 3.1484375 C18.66117187 3.22320313 17.65828125 3.29796875 16.625 3.375 C15.62726563 3.44460938 14.62953125 3.51421875 13.6015625 3.5859375 C10.84491121 3.76363964 10.84491121 3.76363964 9 6 C3.79155673 6.55408971 3.79155673 6.55408971 1.125 4.6875 C0 3 0 3 0 0 Z " fill="#F5E6E5" transform="translate(442,595)"/>
<path d="M0 0 C3.375 -0.125 3.375 -0.125 7 0 C7.66 0.66 8.32 1.32 9 2 C11.20250992 2.46006346 11.20250992 2.46006346 13.625 2.625 C14.85089844 2.73714844 14.85089844 2.73714844 16.1015625 2.8515625 C16.72804688 2.90054688 17.35453125 2.94953125 18 3 C16.4140625 5.01171875 16.4140625 5.01171875 14 7 C10.8359375 7.20703125 10.8359375 7.20703125 7.375 6.8125 C6.22773438 6.69519531 5.08046875 6.57789063 3.8984375 6.45703125 C1 6 1 6 -1 5 C-0.67 3.35 -0.34 1.7 0 0 Z " fill="#F2D4D3" transform="translate(355,582)"/>
<path d="M0 0 C1.958964 0.30852185 3.91715713 0.6219418 5.875 0.9375 C7.51082031 1.19853516 7.51082031 1.19853516 9.1796875 1.46484375 C12 2 12 2 14 3 C13.67 4.32 13.34 5.64 13 7 C10.36 7 7.72 7 5 7 C4.34 5.68 3.68 4.36 3 3 C0.03 3 -2.94 3 -6 3 C-6 2.67 -6 2.34 -6 2 C-4.02 2 -2.04 2 0 2 C0 1.34 0 0.68 0 0 Z " fill="#F9EEEC" transform="translate(507,594)"/>
<path d="M0 0 C5.625 -0.25 5.625 -0.25 9 2 C11.27912938 2.45394552 11.27912938 2.45394552 13.6875 2.625 C14.49574219 2.69976563 15.30398438 2.77453125 16.13671875 2.8515625 C16.75160156 2.90054688 17.36648438 2.94953125 18 3 C18 3.33 18 3.66 18 4 C15.36 4.33 12.72 4.66 10 5 C10.99 5.66 11.98 6.32 13 7 C11.0412957 6.85923685 9.08303907 6.7122324 7.125 6.5625 C6.03445313 6.48128906 4.94390625 6.40007813 3.8203125 6.31640625 C1 6 1 6 -1 5 C-0.67 3.35 -0.34 1.7 0 0 Z " fill="#F1D1CF" transform="translate(512,582)"/>
<path d="M0 0 C3.63 0 7.26 0 11 0 C11 1.98 11 3.96 11 6 C7.37 6 3.74 6 0 6 C0 4.02 0 2.04 0 0 Z " fill="#CF1314" transform="translate(378,567)"/>
<path d="M0 0 C-0.6 5.4 -0.6 5.4 -2.25 7.875 C-4.60754239 9.39056296 -6.25272018 9.28918735 -9 9 C-10 8 -10 8 -10.0625 5.4375 C-10.041875 4.633125 -10.02125 3.82875 -10 3 C-8.70990357 2.49596232 -7.41786211 1.99690074 -6.125 1.5 C-5.04605469 1.08234375 -5.04605469 1.08234375 -3.9453125 0.65625 C-2 0 -2 0 0 0 Z " fill="#F5E2E1" transform="translate(655,592)"/>
<path d="M0 0 C3.96930989 -0.02465881 7.93859034 -0.04284023 11.90795898 -0.05493164 C13.25920386 -0.05997057 14.61044326 -0.06680177 15.96166992 -0.07543945 C17.90020434 -0.08752419 19.838778 -0.09269828 21.77734375 -0.09765625 C23.52905884 -0.10551147 23.52905884 -0.10551147 25.31616211 -0.11352539 C28 0 28 0 29 1 C29.04092937 3.33297433 29.04241723 5.66705225 29 8 C27.02 8.33 25.04 8.66 23 9 C23.99 6.36 24.98 3.72 26 1 C17.42 1 8.84 1 0 1 C0 0.67 0 0.34 0 0 Z " fill="#D53638" transform="translate(363,476)"/>
<path d="M0 0 C0.33 1.32 0.66 2.64 1 4 C-0.4117783 4.53394179 -1.82970244 5.05165104 -3.25 5.5625 C-4.03890625 5.85253906 -4.8278125 6.14257812 -5.640625 6.44140625 C-8.19103452 7.04522837 -9.55322229 6.8473932 -12 6 C-11.01 6 -10.02 6 -9 6 C-9 4.35 -9 2.7 -9 1 C-6.04335481 -0.4783226 -3.25770263 -0.06032783 0 0 Z " fill="#F4DDDC" transform="translate(654,583)"/>
<path d="M0 0 C1.91015625 0.23046875 1.91015625 0.23046875 3.91015625 2.23046875 C3.91015625 3.22046875 3.91015625 4.21046875 3.91015625 5.23046875 C-0.04984375 5.23046875 -4.00984375 5.23046875 -8.08984375 5.23046875 C-6.61379594 -0.67372249 -5.84549858 0.11669779 0 0 Z " fill="#F8EDEC" transform="translate(785.08984375,582.76953125)"/>
<path d="M0 0 C3.63 0.66 7.26 1.32 11 2 C10.125 4.5 10.125 4.5 8 7 C4.63291991 7.46087248 1.37885612 7.28526928 -2 7 C-2 6.34 -2 5.68 -2 5 C-1.01 5 -0.02 5 1 5 C0.67 3.35 0.34 1.7 0 0 Z " fill="#D20505" transform="translate(476,600)"/>
<path d="M0 0 C3.625 0.1875 3.625 0.1875 6.625 2.1875 C6.625 3.1775 6.625 4.1675 6.625 5.1875 C2.665 5.1875 -1.295 5.1875 -5.375 5.1875 C-4.13556338 0.22975352 -4.13556338 0.22975352 0 0 Z " fill="#F9EFEE" transform="translate(447.375,582.8125)"/>
<path d="M0 0 C0 4.16144701 -2.27323286 5.83636339 -5 8.6875 C-5.49604736 9.21698242 -5.99209473 9.74646484 -6.50317383 10.29199219 C-10.57717378 14.61852635 -14.74326905 18.85304148 -19 23 C-19.66 22.67 -20.32 22.34 -21 22 C-20.14277344 21.154375 -19.28554688 20.30875 -18.40234375 19.4375 C-12.37659109 13.4680957 -6.47009707 7.49118185 -1 1 C-0.67 0.67 -0.34 0.34 0 0 Z " fill="#E5E6EA" transform="translate(738,704)"/>
<path d="M0 0 C1.65 0 3.3 0 5 0 C5.04254356 1.99954746 5.04080783 4.00041636 5 6 C4 7 4 7 1.13256836 7.11352539 C-0.11903076 7.10828857 -1.37062988 7.10305176 -2.66015625 7.09765625 C-3.65685585 7.09553383 -3.65685585 7.09553383 -4.6736908 7.09336853 C-6.80333899 7.08775518 -8.93288339 7.07520054 -11.0625 7.0625 C-12.50325369 7.05748671 -13.94400903 7.05292351 -15.38476562 7.04882812 C-18.92321102 7.03778145 -22.46159539 7.02050792 -26 7 C-26 6.67 -26 6.34 -26 6 C-16.43 6 -6.86 6 3 6 C3 4.68 3 3.36 3 2 C2.01 1.67 1.02 1.34 0 1 C0 0.67 0 0.34 0 0 Z " fill="#C8282A" transform="translate(805,547)"/>
<path d="M0 0 C1.43655854 -0.08131463 2.8744483 -0.13933559 4.3125 -0.1875 C5.51326172 -0.23970703 5.51326172 -0.23970703 6.73828125 -0.29296875 C9 0 9 0 10.78125 1.34375 C12.44546615 3.60537707 12.22189312 5.26331821 12 8 C14.97 8 17.94 8 21 8 C21 8.33 21 8.66 21 9 C17.7 9 14.4 9 11 9 C10.67 7.68 10.34 6.36 10 5 C8.68 6.32 7.36 7.64 6 9 C5.34 8.01 4.68 7.02 4 6 C5.32 6 6.64 6 8 6 C8 5.01 8 4.02 8 3 C5.36 2.67 2.72 2.34 0 2 C0 1.34 0 0.68 0 0 Z " fill="#CE2425" transform="translate(318,598)"/>
<path d="M0 0 C0.66 0.99 1.32 1.98 2 3 C-1.46222615 4.06723961 -4.64039266 4.10173486 -8.25 4.0625 C-9.32765625 4.05347656 -10.4053125 4.04445313 -11.515625 4.03515625 C-12.33546875 4.02355469 -13.1553125 4.01195312 -14 4 C-11.97803833 1.97803833 -10.74135514 1.32448642 -8.125 0.3125 C-7.44695313 0.04050781 -6.76890625 -0.23148438 -6.0703125 -0.51171875 C-3.61377534 -1.09109072 -2.32778403 -0.95935869 0 0 Z " fill="#2F9024" transform="translate(623,825)"/>
<path d="M0 0 C0.33 0 0.66 0 1 0 C1.33 4.62 1.66 9.24 2 14 C3.32 13.01 4.64 12.02 6 11 C8.796875 10.70703125 8.796875 10.70703125 11.75 10.8125 C12.73484375 10.83957031 13.7196875 10.86664062 14.734375 10.89453125 C15.48203125 10.92933594 16.2296875 10.96414063 17 11 C17 11.33 17 11.66 17 12 C16.24074219 12.10957031 15.48148438 12.21914063 14.69921875 12.33203125 C13.70535156 12.49058594 12.71148438 12.64914062 11.6875 12.8125 C10.70136719 12.96332031 9.71523438 13.11414063 8.69921875 13.26953125 C5.87300731 14.03436705 4.8040872 14.75258762 3 17 C2.01 16.67 1.02 16.34 0 16 C0 10.72 0 5.44 0 0 Z " fill="#D65153" transform="translate(607,565)"/>
<path d="M0 0 C0.66 0.99 1.32 1.98 2 3 C2.66 2.01 3.32 1.02 4 0 C4 3.63 4 7.26 4 11 C2.35 11.66 0.7 12.32 -1 13 C-0.67 8.71 -0.34 4.42 0 0 Z " fill="#F3D5D4" transform="translate(763,587)"/>
<path d="M0 0 C3.38576908 3.38576908 3.05034928 7.72094372 3.09765625 12.3046875 C3.09108958 13.82815592 3.07928311 15.35160988 3.0625 16.875 C3.05798828 17.65875 3.05347656 18.4425 3.04882812 19.25 C3.03714093 21.16670014 3.01920908 23.08336048 3 25 C2.67 25 2.34 25 2 25 C2 19.72 2 14.44 2 9 C1.01 9.33 0.02 9.66 -1 10 C-1.125 3.375 -1.125 3.375 0 0 Z " fill="#D53F40" transform="translate(723,500)"/>
<path d="M0 0 C0.66 0.33 1.32 0.66 2 1 C0.23000902 2.93827536 -1.54095761 4.87564344 -3.3125 6.8125 C-3.81201172 7.35970703 -4.31152344 7.90691406 -4.82617188 8.47070312 C-7.16943128 11.03121837 -9.51144854 13.57939534 -12 16 C-12.66 15.67 -13.32 15.34 -14 15 C-9.38 10.05 -4.76 5.1 0 0 Z " fill="#FBF0DD" transform="translate(255,458)"/>
<path d="M0 0 C2.97 0.495 2.97 0.495 6 1 C5.01 1.495 5.01 1.495 4 2 C3.30772968 4.80980673 3.30772968 4.80980673 2.875 8.0625 C2.70742187 9.16722656 2.53984375 10.27195312 2.3671875 11.41015625 C2.24601563 12.26480469 2.12484375 13.11945313 2 14 C1.67 14 1.34 14 1 14 C0.04738513 9.23692563 -0.08333357 4.8333472 0 0 Z " fill="#F7B165" transform="translate(211,391)"/>
<path d="M0 0 C1.5 1.3125 1.5 1.3125 3 3 C3 3.99 3 4.98 3 6 C-0.3 6 -3.6 6 -7 6 C-7.66 4.68 -8.32 3.36 -9 2 C-7.9171875 2.2165625 -7.9171875 2.2165625 -6.8125 2.4375 C-5.4203125 2.7159375 -5.4203125 2.7159375 -4 3 C-2.33333333 3.33333333 -0.66666667 3.66666667 1 4 C0.67 2.68 0.34 1.36 0 0 Z " fill="#D23A3B" transform="translate(494,580)"/>
<path d="M0 0 C0 3 0 3 -1.6796875 4.97265625 C-2.40414063 5.66230469 -3.12859375 6.35195313 -3.875 7.0625 C-4.95394531 8.10083984 -4.95394531 8.10083984 -6.0546875 9.16015625 C-7.01761719 10.07087891 -7.01761719 10.07087891 -8 11 C-8.66 11.66 -9.32 12.32 -10 13 C-10.33 12.01 -10.66 11.02 -11 10 C-5.555 5.05 -5.555 5.05 0 0 Z " fill="#FBEFDD" transform="translate(345,318)"/>
<path d="M0 0 C-6.38279006 2.79247065 -12.07566192 4.73108452 -19 3 C-19 2.67 -19 2.34 -19 2 C-16.58525383 1.46839543 -14.16891893 0.94945234 -11.75 0.4375 C-11.06808594 0.28603516 -10.38617188 0.13457031 -9.68359375 -0.02148438 C-6.18230962 -0.75233495 -3.39701827 -1.32203546 0 0 Z " fill="#F7B470" transform="translate(443,255)"/>
<path d="M0 0 C0.68707555 2.49064888 1 4.37886292 1 7 C-1.31 7.66 -3.62 8.32 -6 9 C-4.47291037 5.56404834 -2.40072955 2.88087546 0 0 Z " fill="#2B8F20" transform="translate(793,656)"/>
<path d="M0 0 C1.051875 0.4640625 1.051875 0.4640625 2.125 0.9375 C5.08936657 2.03302678 7.87698108 2.56422992 11 3 C10.01 3.33 9.02 3.66 8 4 C7.67 4.99 7.34 5.98 7 7 C7 6.34 7 5.68 7 5 C4.03 5 1.06 5 -2 5 C-0.68 4.67 0.64 4.34 2 4 C2 3.34 2 2.68 2 2 C1.34 2 0.68 2 0 2 C0 1.34 0 0.68 0 0 Z " fill="#F6E0DF" transform="translate(346,592)"/>
<path d="M0 0 C0.33 0 0.66 0 1 0 C1.01417969 0.68707031 1.02835937 1.37414062 1.04296875 2.08203125 C1.18718531 4.80655483 1.39045348 7.33859968 2 10 C4.38987933 12.1386077 4.38987933 12.1386077 7 13 C7 13.33 7 13.66 7 14 C5.00045254 14.04254356 2.99958364 14.04080783 1 14 C0 13 0 13 -0.09765625 10.05859375 C-0.08605469 8.86363281 -0.07445312 7.66867187 -0.0625 6.4375 C-0.05347656 5.23996094 -0.04445313 4.04242188 -0.03515625 2.80859375 C-0.02355469 1.88175781 -0.01195312 0.95492188 0 0 Z " fill="#D23434" transform="translate(402,491)"/>
<path d="M0 0 C-2.84522309 2.84522309 -5.02453791 2.67939822 -9 3 C-11.70713463 2.80157128 -14.31416093 2.42407985 -17 2 C-17 1.67 -17 1.34 -17 1 C-11.27959989 0.1679418 -5.77759884 -0.12036664 0 0 Z " fill="#F5A95C" transform="translate(472,251)"/>
<path d="M0 0 C0 4.13781054 -1.71509607 5.20919996 -4.5 8.1875 C-5.3353125 9.08855469 -6.170625 9.98960937 -7.03125 10.91796875 C-7.6809375 11.60503906 -8.330625 12.29210937 -9 13 C-9.66 12.67 -10.32 12.34 -11 12 C-7.37 8.04 -3.74 4.08 0 0 Z " fill="#F7AA59" transform="translate(271,337)"/>
<path d="M0 0 C0.33 0.66 0.66 1.32 1 2 C-0.4510074 3.83913695 -1.91101659 5.6711753 -3.375 7.5 C-4.18710937 8.5209375 -4.99921875 9.541875 -5.8359375 10.59375 C-6.55007813 11.3878125 -7.26421875 12.181875 -8 13 C-8.66 13 -9.32 13 -10 13 C-8.48446596 9.52224821 -6.4226544 7.0442016 -3.875 4.25 C-3.15054687 3.45078125 -2.42609375 2.6515625 -1.6796875 1.828125 C-0.84824219 0.92320312 -0.84824219 0.92320312 0 0 Z " fill="#373C5D" transform="translate(358,364)"/>
<path d="M0 0 C0.6875 1.8125 0.6875 1.8125 1 4 C-0.4375 5.75 -0.4375 5.75 -2 7 C-2.99 6.67 -3.98 6.34 -5 6 C-5 5.01 -5 4.02 -5 3 C-4.34 3 -3.68 3 -3 3 C-3 2.34 -3 1.68 -3 1 C-2.01 0.67 -1.02 0.34 0 0 Z " fill="#D40405" transform="translate(441,598)"/>
<path d="M0 0 C0.33 0.99 0.66 1.98 1 3 C-0.375 5.0625 -0.375 5.0625 -2 7 C-2.33 7.66 -2.66 8.32 -3 9 C-5.5625 9.625 -5.5625 9.625 -8 10 C-7.59007812 9.52949219 -7.18015625 9.05898438 -6.7578125 8.57421875 C-6.21898437 7.95160156 -5.68015625 7.32898438 -5.125 6.6875 C-4.59132813 6.07261719 -4.05765625 5.45773437 -3.5078125 4.82421875 C-1.8359553 2.86501788 -1.8359553 2.86501788 0 0 Z " fill="#E1E3E7" transform="translate(639,747)"/>
<path d="M0 0 C2.64 0.33 5.28 0.66 8 1 C7.01 1.33 6.02 1.66 5 2 C4.67 2.99 4.34 3.98 4 5 C3.67 4.34 3.34 3.68 3 3 C0.03 3 -2.94 3 -6 3 C-6 2.67 -6 2.34 -6 2 C-4.02 2 -2.04 2 0 2 C0 1.34 0 0.68 0 0 Z " fill="#F5DEDE" transform="translate(507,594)"/>
<path d="M0 0 C0.33 0.66 0.66 1.32 1 2 C-1.31 4.64 -3.62 7.28 -6 10 C-6.66 9.67 -7.32 9.34 -8 9 C-5.36 6.03 -2.72 3.06 0 0 Z " fill="#33922A" transform="translate(767,729)"/>
<path d="M0 0 C0.33 0.66 0.66 1.32 1 2 C1.99 2.33 2.98 2.66 4 3 C2.68 3.99 1.36 4.98 0 6 C-0.66 5.67 -1.32 5.34 -2 5 C-2 4.34 -2 3.68 -2 3 C-2.99 2.67 -3.98 2.34 -5 2 C-3.35 1.34 -1.7 0.68 0 0 Z " fill="#D2181A" transform="translate(652,599)"/>
<path d="M0 0 C0 0.66 0 1.32 0 2 C1.32 2.33 2.64 2.66 4 3 C0.04 3 -3.92 3 -8 3 C-5.36657694 0.36657694 -3.69534435 0 0 0 Z " fill="#479C40" transform="translate(617,826)"/>
<path d="M0 0 C0.99 0.33 1.98 0.66 3 1 C3.33 2.98 3.66 4.96 4 7 C2.35 7 0.7 7 -1 7 C-0.67 4.69 -0.34 2.38 0 0 Z " fill="#EFCECC" transform="translate(306,547)"/>
<path d="M0 0 C0.99 0 1.98 0 3 0 C2.67 2.64 2.34 5.28 2 8 C-1.3 8 -4.6 8 -8 8 C-8 7.67 -8 7.34 -8 7 C-5.03 7 -2.06 7 1 7 C0.67 4.69 0.34 2.38 0 0 Z " fill="#D44647" transform="translate(277,539)"/>
<path d="M0 0 C1.98 1.65 3.96 3.3 6 5 C5.01 5.33 4.02 5.66 3 6 C0.3125 4.5625 0.3125 4.5625 -2 3 C-1.34 2.01 -0.68 1.02 0 0 Z " fill="#E4E6E9" transform="translate(448,751)"/>
<path d="M0 0 C0.66 0.33 1.32 0.66 2 1 C1.07038578 2.15224028 0.1309875 3.29659176 -0.8125 4.4375 C-1.59560547 5.39462891 -1.59560547 5.39462891 -2.39453125 6.37109375 C-4 8 -4 8 -7 9 C-5.64978174 4.58110387 -3.73884332 2.65654657 0 0 Z " fill="#CE2E2E" transform="translate(559,568)"/>
<path d="M0 0 C0.33 0.99 0.66 1.98 1 3 C-0.98 4.98 -2.96 6.96 -5 9 C-5.66 8.67 -6.32 8.34 -7 8 C-4.69 5.36 -2.38 2.72 0 0 Z " fill="#FAEDD6" transform="translate(273,438)"/>
<path d="M0 0 C0 3 0 3 -1.3125 4.38671875 C-2.875 5.59114583 -4.4375 6.79557292 -6 8 C-6.66 7.67 -7.32 7.34 -8 7 C-5.36 4.69 -2.72 2.38 0 0 Z " fill="#F7AB5B" transform="translate(283,326)"/>
<path d="M0 0 C0.66 0.33 1.32 0.66 2 1 C2 1.66 2 2.32 2 3 C4.31 3 6.62 3 9 3 C9 3.33 9 3.66 9 4 C7.72125 4.144375 6.4425 4.28875 5.125 4.4375 C2.74307106 4.70642746 1.15547309 4.92226346 -1 6 C-0.67 4.02 -0.34 2.04 0 0 Z " fill="#D33133" transform="translate(565,571)"/>
<path d="M0 0 C-0.33 0.99 -0.66 1.98 -1 3 C-3.5625 4.1875 -3.5625 4.1875 -6 5 C-6.66 4.34 -7.32 3.68 -8 3 C-2.25 0 -2.25 0 0 0 Z " fill="#F8A650" transform="translate(354,281)"/>
<path d="M0 0 C1.65 0 3.3 0 5 0 C5 1.98 5 3.96 5 6 C4.34 6 3.68 6 3 6 C3 4.68 3 3.36 3 2 C2.01 1.67 1.02 1.34 0 1 C0 0.67 0 0.34 0 0 Z " fill="#CC1E1E" transform="translate(805,547)"/>
</svg>
