<?xml version="1.0" encoding="UTF-8"?>
<svg version="1.1" xmlns="http://www.w3.org/2000/svg" width="1080" height="1080">
<path d="M0 0 C356.4 0 712.8 0 1080 0 C1080 356.4 1080 712.8 1080 1080 C723.6 1080 367.2 1080 0 1080 C0 723.6 0 367.2 0 0 Z " fill="#FEFEFE" transform="translate(0,0)"/>
<path d="M0 0 C4.95 0 9.9 0 15 0 C15.11214844 2.32417969 15.11214844 2.32417969 15.2265625 4.6953125 C17.16457233 38.10543544 28.3110033 66.28955659 51 91 C52.24330078 92.44826172 52.24330078 92.44826172 53.51171875 93.92578125 C55.7626473 96.25398886 55.7626473 96.25398886 58.36328125 95.9921875 C61.66062747 94.75140833 64.93870086 93.48716003 68.1875 92.125 C73.33642437 90.01141574 78.4434953 88.14471512 83.8125 86.65234375 C85.93114291 86.02053417 87.90182389 85.23277481 89.9375 84.375 C94.79380668 82.47037048 99.83437899 82.27537318 105 82 C105 81.34 105 80.68 105 80 C104.31679687 79.93039062 103.63359375 79.86078125 102.9296875 79.7890625 C99.09293214 78.75569639 96.27573121 76.70125666 93.125 74.375 C92.50004639 73.91697998 91.87509277 73.45895996 91.23120117 72.98706055 C72.44266759 59.01169201 59.29000539 36.80739728 55.75 13.6875 C55.11763016 8.99378938 55 4.80204646 55 0 C59.95 0 64.9 0 70 0 C70.0825 2.02125 70.165 4.0425 70.25 6.125 C71.85152888 27.37194981 82.13600289 45.96885899 98.18359375 59.8359375 C112.43818707 70.78884277 128.31537326 75.44300921 146 77 C146 81.62 146 86.24 146 91 C144.33195313 91.09796875 142.66390625 91.1959375 140.9453125 91.296875 C127.59988291 92.15254259 114.90589221 93.48618202 102 97 C101.12408203 97.23267578 100.24816406 97.46535156 99.34570312 97.70507812 C96.5386913 98.45531227 93.73715149 99.22276939 90.9375 100 C90.08051514 100.23686523 89.22353027 100.47373047 88.34057617 100.71777344 C82.65396051 102.35441729 77.34351374 104.46076356 72 107 C72 107.66 72 108.32 72 109 C79.42223532 114.34542544 87.55725862 118.5282185 96 122 C96.7024585 122.30848877 97.40491699 122.61697754 98.12866211 122.93481445 C104.68914949 125.72339878 111.19790286 127.34972924 118.1875 128.6875 C119.27796631 128.90172607 120.36843262 129.11595215 121.49194336 129.33666992 C129.70977677 130.89261217 137.64625599 131.73619756 146 132 C146 136.62 146 141.24 146 146 C144.40414062 146.15855469 142.80828125 146.31710937 141.1640625 146.48046875 C128.01918036 147.86774555 115.52536996 149.71524543 103 154 C102.3488623 154.22026855 101.69772461 154.44053711 101.02685547 154.66748047 C92.01966325 157.79400018 84.08435493 162.06961568 76.046875 167.14453125 C73 169 73 169 70 170 C70 170.66 70 171.32 70 172 C70.95712891 172.14308594 70.95712891 172.14308594 71.93359375 172.2890625 C76.13355319 173.26281106 80.04231115 174.83325401 84.0625 176.375 C94.62971765 180.33595043 104.90092486 182.98972173 116.08984375 184.5703125 C117.85190521 184.83048265 119.60947346 185.13147864 121.35058594 185.50708008 C124.03117595 186.00580024 126.57795583 186.20494556 129.30078125 186.31640625 C130.27724609 186.35830078 131.25371094 186.40019531 132.25976562 186.44335938 C133.26716797 186.48267578 134.27457031 186.52199219 135.3125 186.5625 C136.85260742 186.62727539 136.85260742 186.62727539 138.42382812 186.69335938 C140.94907489 186.79906738 143.47452067 186.90000208 146 187 C146 191.95 146 196.9 146 202 C144.20369141 202.11214844 144.20369141 202.11214844 142.37109375 202.2265625 C121.40834741 203.81028944 103.45351702 211.89103471 88.7734375 227.34375 C76.15550501 242.34885891 71.73290626 258.96083259 70 278 C65.38 278 60.76 278 56 278 C54.82532029 254.03653399 63.72202338 233.71058657 79.75 215.90234375 C86.66040888 208.50721822 94.29190626 203.10119101 103 198 C102.46375 197.84144531 101.9275 197.68289063 101.375 197.51953125 C99.66424837 197.01024499 97.95476117 196.49670444 96.24609375 195.98046875 C94.5428944 195.46602466 92.83940263 194.95248872 91.13330078 194.44775391 C82.4255119 191.8683866 74.18299613 188.99571049 66 185 C61.61020831 182.76346245 61.61020831 182.76346245 56.8125 182 C54.15425079 183.46662026 52.81253931 185.58328092 51 188 C50.23429687 188.75410156 49.46859375 189.50820313 48.6796875 190.28515625 C45.90592181 193.09531246 43.45287295 196.05431877 41.0625 199.1875 C40.62719971 199.75774902 40.19189941 200.32799805 39.7434082 200.91552734 C22.83062701 223.37580134 15.99874126 250.35074588 14 278 C9.38 278 4.76 278 0 278 C-0.16356679 269.83983447 0.28733184 262.22204846 1.6875 254.1875 C1.86829102 253.13997559 2.04908203 252.09245117 2.23535156 251.01318359 C3.74969498 242.6507574 5.81686946 234.90235625 9 227 C9.2676416 226.3184082 9.5352832 225.63681641 9.81103516 224.93457031 C16.542772 207.98929484 25.64303503 192.56611141 38.50390625 179.56640625 C40.55204719 177.4605712 42.31640968 175.39784076 44 173 C43.29746094 172.75121094 42.59492188 172.50242187 41.87109375 172.24609375 C38.6232472 170.83648416 35.96717541 169.08808071 33.0625 167.0625 C32.50691406 166.67787598 31.95132813 166.29325195 31.37890625 165.89697266 C28.22634664 163.68296804 25.19027158 161.37302662 22.21484375 158.92578125 C21.59407959 158.41845459 20.97331543 157.91112793 20.33374023 157.38842773 C19.13032689 156.39522319 17.93789707 155.38852689 16.75805664 154.36743164 C13.39119249 151.58439684 13.39119249 151.58439684 9.16796875 151.078125 C6.86967774 151.81303995 6.86967774 151.81303995 5.8125 153.875 C5.544375 154.57625 5.27625 155.2775 5 156 C4.34 156.99 3.68 157.98 3 159 C2.34 159 1.68 159 1 159 C0.77441406 159.51046875 0.54882812 160.0209375 0.31640625 160.546875 C-1.14517109 163.27052654 -2.84489188 165.70662232 -4.62963867 168.22607422 C-23.0841674 194.29321397 -33.26583949 221.68473051 -39 253 C-39.19980469 254.03253906 -39.39960937 255.06507813 -39.60546875 256.12890625 C-40.18754387 260.36479942 -40.36641336 264.60609748 -40.5625 268.875 C-40.60568359 269.75414062 -40.64886719 270.63328125 -40.69335938 271.5390625 C-40.79869339 273.69255797 -40.89977649 275.84626064 -41 278 C-45.62 278 -50.24 278 -55 278 C-55.79365399 248.2379752 -49.21501375 218.66303783 -36 192 C-35.47792969 190.89527344 -34.95585938 189.79054688 -34.41796875 188.65234375 C-27.09051253 173.43114078 -18.17638346 160.1440748 -6.8515625 147.625 C-6.21992188 146.92375 -5.58828125 146.2225 -4.9375 145.5 C-4.38964844 144.9121875 -3.84179688 144.324375 -3.27734375 143.71875 C-1.80738589 141.74082506 -1.32194109 140.43886097 -1 138 C-2.8185991 135.62206706 -4.63519335 133.53533775 -6.6875 131.375 C-24.79389759 111.41914381 -38.16134928 86.70858175 -46 61 C-46.34804687 59.89398438 -46.69609375 58.78796875 -47.0546875 57.6484375 C-52.70555418 38.94363074 -55.23817231 20.5301297 -55 1 C-50.38 1 -45.76 1 -41 1 C-40.89042969 2.46308594 -40.78085938 3.92617188 -40.66796875 5.43359375 C-39.72691088 17.4343706 -38.55486895 29.22896216 -36 41 C-35.84724609 41.72541992 -35.69449219 42.45083984 -35.53710938 43.19824219 C-32.49536471 57.23752981 -27.14225249 70.050675 -21 83 C-20.65565918 83.72735352 -20.31131836 84.45470703 -19.95654297 85.20410156 C-13.73579412 98.10100741 -1.65444066 122.42240482 12 128 C12.48726563 127.53851562 12.97453125 127.07703125 13.4765625 126.6015625 C22.48283509 118.31579172 32.51515565 111.29090661 43 105 C42.13890625 104.00613281 41.2778125 103.01226562 40.390625 101.98828125 C15.52356131 72.93054885 -0.45084631 38.77278273 0 0 Z " fill="#FE665B" transform="translate(138,401)"/>
<path d="M0 0 C6.72525156 -0.25397215 13.44926505 -0.42882941 20.17822266 -0.54931641 C22.46580199 -0.59954658 24.75306119 -0.66774792 27.03955078 -0.75439453 C30.33185657 -0.87601382 33.61991743 -0.93246228 36.9140625 -0.9765625 C38.44252304 -1.05398178 38.44252304 -1.05398178 40.00186157 -1.13296509 C42.98166778 -1.13530822 45.19996107 -1.03155757 48 0 C50.7218669 3.03515729 52.34477681 6.29994385 54 10 C54.6084375 11.05445313 55.216875 12.10890625 55.84375 13.1953125 C56.3903125 14.16210938 56.936875 15.12890625 57.5 16.125 C65.1697138 29.6233099 73.04647958 43.00517082 80.9375 56.375 C85.99240859 64.94029163 90.95155474 73.56087243 95.91186523 82.18115234 C96.52747314 83.25059082 97.14308105 84.3200293 97.77734375 85.421875 C98.32640381 86.37674805 98.87546387 87.33162109 99.44116211 88.31542969 C100.93713677 90.89173938 102.46050016 93.44950693 104 96 C108.16291587 91.28669862 110.97687599 85.9104514 114 80.4375 C118.8025913 71.83180331 123.72919211 63.32292487 128.86523438 54.91186523 C131.8695486 49.97036325 134.68098726 44.95238842 137.4309082 39.86523438 C140.15149696 34.89731316 143.0153054 30.01374621 145.875 25.125 C146.44863281 24.13886719 147.02226563 23.15273438 147.61328125 22.13671875 C148.78923269 20.12267274 149.9925519 18.12437536 151.22167969 16.14233398 C153.10763034 13.00301752 153.10763034 13.00301752 154.34863281 9.37524414 C156.13777434 5.19763853 157.4580098 2.88809291 161 0 C169.05189366 -2.18522031 177.76462271 -1.21270983 186 -0.8125 C188.32405792 -0.74725022 190.64829073 -0.68794166 192.97265625 -0.63476562 C198.6522673 -0.49190136 204.32532424 -0.27480839 210 0 C209.154375 0.969375 208.30875 1.93875 207.4375 2.9375 C206.62061801 3.91456532 206.62061801 3.91456532 205.78723335 4.91136932 C204.62592643 6.26851793 203.41932942 7.58860521 202.16489983 8.86017609 C196.08106581 15.51891624 195.99712235 21.68547691 196.09423828 30.37304688 C196.08473669 31.80805121 196.07226392 33.24303845 196.05706787 34.67799377 C196.02532201 38.55233933 196.03745704 42.42537123 196.05972147 46.29973793 C196.07753097 50.36746198 196.06098398 54.43507881 196.05001831 58.50280762 C196.03730806 65.33199107 196.05399982 72.16064341 196.08740234 78.98974609 C196.12549463 86.86829617 196.11315294 94.74557798 196.07461751 102.62409735 C196.04277944 109.40663882 196.03840387 116.18880004 196.05668819 122.97139215 C196.06756235 127.01437809 196.06916596 131.05676924 196.04593277 135.09971619 C196.02560448 138.90229643 196.03992541 142.70325303 196.08019257 146.5056591 C196.08939252 147.89510855 196.08688555 149.28469634 196.07135391 150.67408943 C195.97521866 160.15293946 197.40923537 165.21424098 204 172 C205.98 174.31 207.96 176.62 210 179 C192.51 179 175.02 179 157 179 C156.67 131.48 156.34 83.96 156 35 C152.04 41.93 148.08 48.86 144 56 C141.67360111 60.00445711 139.34381627 64.00586431 137 68 C132.57669077 75.55653769 128.19936584 83.1364392 123.875 90.75 C119.39695824 98.63177186 114.77400636 106.41624111 110.08422852 114.17358398 C107.09214649 119.13621895 104.23361852 124.14096789 101.51171875 129.2578125 C98.19310788 135.27761827 94.56754696 141.12543934 91 147 C88.29393145 143.73961914 85.99185661 140.48574908 83.890625 136.80859375 C83.30869385 135.79506836 82.7267627 134.78154297 82.12719727 133.73730469 C81.19798462 132.10390137 81.19798462 132.10390137 80.25 130.4375 C79.59894287 129.30086914 78.94788574 128.16423828 78.27709961 126.99316406 C76.53671404 123.95460983 74.80149777 120.91313405 73.06732178 117.87103271 C71.29407792 114.76250693 69.51595686 111.65677402 67.73828125 108.55078125 C65.07422489 103.8947093 62.41268674 99.23721265 59.75390625 94.578125 C58.83182373 92.96260742 58.83182373 92.96260742 57.89111328 91.31445312 C56.59195155 89.03748183 55.29345403 86.76014101 53.99560547 84.48242188 C49.70799111 76.96219137 45.37427117 69.47021651 41 62 C37.22722684 55.55699926 33.47751359 49.10212609 29.77734375 42.6171875 C29.2291095 41.65703735 29.2291095 41.65703735 28.6697998 40.67749023 C27.77964831 39.1184514 26.88979295 37.55924349 26 36 C25.99918285 37.10352735 25.99918285 37.10352735 25.99834919 38.22934818 C25.98337359 56.14073816 25.94089533 74.05187033 25.86790943 91.96312046 C25.83327503 100.62493765 25.80790595 109.28659596 25.80444336 117.94848633 C25.8014013 125.49933335 25.78087845 133.04989729 25.73947543 140.60063499 C25.71816546 144.59776389 25.70553435 148.59449054 25.71384621 152.59167671 C25.72139931 156.35691835 25.70551383 160.12134583 25.67193985 163.88643837 C25.66372154 165.26543529 25.66393912 166.64451341 25.67340279 168.02350235 C25.74563966 179.70992123 25.74563966 179.70992123 22.83378601 184.25083923 C19.84451922 187.15083767 17.91379638 187.85177255 14 189 C14.00129882 188.11577866 14.00259764 187.23155731 14.00393581 186.32054138 C14.03315024 164.79534254 14.02376486 143.27046145 13.97153378 121.74530029 C13.94720369 111.33580577 13.93588922 100.92660225 13.95532227 90.51708984 C13.97222905 81.44304274 13.96460601 72.36940269 13.92765242 63.2954092 C13.90894244 58.49162073 13.90243132 53.68852051 13.92530632 48.88473511 C13.94646401 44.36013749 13.93474362 39.83679888 13.89815521 35.31231117 C13.89048204 33.65474898 13.89466744 31.99708134 13.91181374 30.33959007 C14.24782961 20.07485085 14.24782961 20.07485085 9.65943909 11.23193359 C8.46023669 10.13172595 7.24269703 9.05083174 6 8 C4.83119176 6.51783222 3.67756305 5.02301294 2.5625 3.5 C2.06878906 2.8296875 1.57507813 2.159375 1.06640625 1.46875 C0.71449219 0.9840625 0.36257813 0.499375 0 0 Z " fill="#160972" transform="translate(420,429)"/>
<path d="M0 0 C21.45 0 42.9 0 65 0 C58.71466451 8.38044732 58.71466451 8.38044732 55.17445374 11.52590942 C50.15478675 17.23671943 51.08280878 24.42947823 51.20874023 31.58544922 C51.21067732 33.16331405 51.20944234 34.74118546 51.20529175 36.31904602 C51.2028269 39.70731915 51.22202351 43.09452126 51.25808525 46.48260117 C51.31449366 51.85673578 51.31820911 57.23014026 51.31446838 62.60452271 C51.31411378 73.05942601 51.36381525 83.51377748 51.42158508 93.96849823 C51.49424838 107.2388153 51.55346304 120.50885572 51.54887158 133.77939808 C51.54887852 138.23808997 51.56181007 142.69595245 51.60561943 147.15444565 C52.01663564 189.44341584 52.01663564 189.44341584 39 207 C38.45085937 207.76441406 37.90171875 208.52882813 37.3359375 209.31640625 C30.08584891 218.43300701 19.12959029 224.03359618 8 227 C6.205625 227.5878125 6.205625 227.5878125 4.375 228.1875 C0.80119918 229.04785946 -2.3378626 229.149475 -6 229 C-4.28789818 225.40019618 -2.23326502 222.04373542 -0.1875 218.625 C10.62530048 200.10593377 13.30713475 179.96846896 13.29052734 158.88842773 C13.29653051 157.33931664 13.30334007 155.79020849 13.31088257 154.24110413 C13.32834707 150.08468085 13.33322896 145.92834016 13.33451414 141.77188373 C13.33594507 139.16981911 13.34023183 136.56777491 13.34550858 133.96571541 C13.36392895 124.8748353 13.37218741 115.78401339 13.37060547 106.69311523 C13.36939935 98.23530949 13.39061385 89.77775695 13.4220928 81.32001537 C13.44824003 74.03389239 13.45897374 66.7478524 13.45769465 59.46168286 C13.45718548 55.11998308 13.46284651 50.77850997 13.48405075 46.43685722 C13.50341244 42.36298652 13.50357216 38.2895598 13.48901749 34.21567345 C13.4869272 32.72333375 13.49164344 31.23096631 13.5037384 29.73867416 C13.51919999 27.69879944 13.50747975 25.6587731 13.49447632 23.61888123 C13.49611062 21.90868128 13.49611062 21.90868128 13.49777794 20.16393185 C12.54653805 14.11774549 8.29482528 10.04295729 4.25 5.6875 C0 1.1016129 0 1.1016129 0 0 Z " fill="#140771" transform="translate(347,429)"/>
<path d="M0 0 C21.45 0 42.9 0 65 0 C59 7 59 7 56.91242409 9.14803696 C50.96348028 15.63926491 51.02299285 21.88582232 51.15771484 30.34472656 C51.15477313 31.77635598 51.14878868 33.20798185 51.14001465 34.6395874 C51.1252705 38.50345164 51.1538899 42.36587052 51.19144773 46.2295351 C51.2242031 50.28171994 51.21935577 54.3338766 51.21939087 58.38616943 C51.22494375 65.18510152 51.25717997 71.98348286 51.30712891 78.78222656 C51.3646729 86.63781028 51.38744525 94.49286988 51.3900131 102.34865212 C51.39293836 110.72561708 51.41874663 119.10238984 51.45257998 127.47928143 C51.46093118 129.88880101 51.4652832 132.29830135 51.468853 134.70783234 C51.47576569 138.49356723 51.49820952 142.27890962 51.53262329 146.06449127 C51.54296927 147.45239422 51.54828658 148.84034524 51.54817581 150.22828674 C51.54894498 152.12443593 51.57004404 154.02054426 51.59213257 155.91656494 C51.59845892 156.97692081 51.60478527 158.03727669 51.61130333 159.12976456 C52.40081829 164.95974458 56.291051 168.58928967 60.1875 172.75 C65 177.89985694 65 177.89985694 65 179 C43.55 179 22.1 179 0 179 C6.69130435 170.07826087 6.69130435 170.07826087 9.3125 167.125 C12.61979545 163.39235684 13.12685144 161.33350422 13.14717102 156.29510498 C13.15432632 155.08097427 13.16148163 153.86684357 13.16885376 152.61592102 C13.17169416 151.26315333 13.17440587 149.91038537 13.17700195 148.55761719 C13.18326578 147.13850233 13.18991251 145.71938912 13.19691467 144.30027771 C13.2143331 140.4385519 13.22487896 136.57683849 13.2331202 132.71508312 C13.23826914 130.30254844 13.24434496 127.89001762 13.25063133 125.47748566 C13.26968675 117.92976438 13.28391649 110.38205291 13.2922433 102.8343122 C13.30201459 94.12091951 13.32832963 85.40778094 13.36874419 76.6944778 C13.39890576 69.96063927 13.41371225 63.22687357 13.41702431 56.4929688 C13.41937499 52.47075081 13.42833714 48.44880417 13.45348549 44.42665863 C13.47677184 40.64106302 13.48099745 36.85591731 13.47072411 33.07026863 C13.47022875 31.68274756 13.47654939 30.2952043 13.49028015 28.90775108 C13.57760415 19.55887255 13.07300415 15.28879245 6.640625 8.515625 C5.85171875 7.76796875 5.0628125 7.0203125 4.25 6.25 C2.79631569 4.87134456 1.36908683 3.46269961 0 2 C0 1.34 0 0.68 0 0 Z " fill="#130771" transform="translate(638,429)"/>
<path d="M0 0 C2.24617249 1.05130135 4.04436579 2.31983645 6.01953125 3.82421875 C17.99998204 12.39932786 31.07472683 18.87245343 44.89453125 23.88671875 C42.19754179 25.26325974 39.47918212 26.51827719 36.69140625 27.69921875 C23.52130885 33.37768264 10.99840129 39.6791453 -0.10546875 48.88671875 C-13.21900765 44.01597573 -24.51814788 33.7807013 -35.10546875 24.88671875 C-31.53314271 20.27246429 -27.84999509 16.88478524 -23.10546875 13.51171875 C-22.12839966 12.80934082 -22.12839966 12.80934082 -21.1315918 12.09277344 C-3.83760622 -0.20647603 -3.83760622 -0.20647603 0 0 Z " fill="#FFFCFC" transform="translate(194.10546875,516.11328125)"/>
<path d="M0 0 C2.64 0 5.28 0 8 0 C8.33 4.29 8.66 8.58 9 13 C9.99 12.34 10.98 11.68 12 11 C19.09170306 10.32459971 19.09170306 10.32459971 22.4375 12.8125 C25.36242485 16.90739479 25.51716261 21.12389536 25 26 C23.24348793 30.65475698 22.09736494 31.9269763 18 35 C13.05 35 8.1 35 3 35 C3 24.11 3 13.22 3 2 C2.01 2 1.02 2 0 2 C0 1.34 0 0.68 0 0 Z " fill="#2A1E7E" transform="translate(779,574)"/>
<path d="M0 0 C0.66 0 1.32 0 2 0 C2 1.98 2 3.96 2 6 C2.9075 6 3.815 6 4.75 6 C8.83333333 6 12.91666667 6 17 6 C17 12.93 17 19.86 17 27 C18.32 27 19.64 27 21 27 C21 27.66 21 28.32 21 29 C17.5638936 29.25477428 14.12642199 29.47439003 10.6875 29.6875 C9.71103516 29.76033203 8.73457031 29.83316406 7.72851562 29.90820312 C6.79072266 29.96298828 5.85292969 30.01777344 4.88671875 30.07421875 C3.59060669 30.16062622 3.59060669 30.16062622 2.26831055 30.2487793 C0 30 0 30 -1.78710938 28.75976562 C-3.28745417 26.58293686 -3.34884834 25.39587193 -3.29296875 22.76953125 C-3.28330078 21.96708984 -3.27363281 21.16464844 -3.26367188 20.33789062 C-3.23853516 19.50451172 -3.21339844 18.67113281 -3.1875 17.8125 C-3.17396484 16.96751953 -3.16042969 16.12253906 -3.14648438 15.25195312 C-3.11115799 13.16769616 -3.05735139 11.08376723 -3 9 C-3.99 9 -4.98 9 -6 9 C-6 8.01 -6 7.02 -6 6 C-4.68 6 -3.36 6 -2 6 C-1.34 4.02 -0.68 2.04 0 0 Z " fill="#F3F2F8" transform="translate(794,529)"/>
<path d="M0 0 C3.3 0 6.6 0 10 0 C12.97 6.93 15.94 13.86 19 21 C19.66 21 20.32 21 21 21 C23.97 14.07 26.94 7.14 30 0 C33.3 0 36.6 0 40 0 C39.01 0.66 38.02 1.32 37 2 C36.48853802 4.90613434 36.48853802 4.90613434 36.48828125 8.3203125 C36.45283203 9.57714844 36.41738281 10.83398438 36.38085938 12.12890625 C36.35830078 13.44761719 36.33574219 14.76632812 36.3125 16.125 C36.27933471 17.46487759 36.24484578 18.80472311 36.20898438 20.14453125 C36.12626673 23.4296033 36.05719307 26.71440032 36 30 C37.32 30 38.64 30 40 30 C40 30.66 40 31.32 40 32 C35.71 32 31.42 32 27 32 C27 31.34 27 30.68 27 30 C28.32 30 29.64 30 31 30 C30.67 22.74 30.34 15.48 30 8 C26.37 15.92 22.74 23.84 19 32 C16.09482818 30.54741409 15.83380634 28.63150015 14.6171875 25.65234375 C14.17246094 24.57275391 13.72773437 23.49316406 13.26953125 22.38085938 C12.80933594 21.24455078 12.34914063 20.10824219 11.875 18.9375 C11.17310547 17.22723633 11.17310547 17.22723633 10.45703125 15.48242188 C9.29865912 12.6574123 8.14855839 9.82901374 7 7 C7 14.26 7 21.52 7 29 C8.32 29.33 9.64 29.66 11 30 C11 30.66 11 31.32 11 32 C7.04 32 3.08 32 -1 32 C-1 31.34 -1 30.68 -1 30 C0.32 29.67 1.64 29.34 3 29 C3.08674429 24.54178834 3.14030513 20.08379196 3.1875 15.625 C3.21263672 14.35398437 3.23777344 13.08296875 3.26367188 11.7734375 C3.27333984 10.56171875 3.28300781 9.35 3.29296875 8.1015625 C3.3086792 6.98088379 3.32438965 5.86020508 3.34057617 4.70556641 C3.17199097 3.36631104 3.17199097 3.36631104 3 2 C2.01 1.34 1.02 0.68 0 0 Z " fill="#2F2381" transform="translate(857,476)"/>
<path d="M0 0 C0.33 0 0.66 0 1 0 C1 1.98 1 3.96 1 6 C2.98 6 4.96 6 7 6 C7 6.66 7 7.32 7 8 C7.66 8 8.32 8 9 8 C9 7.34 9 6.68 9 6 C11.64 6 14.28 6 17 6 C17 12.93 17 19.86 17 27 C17.99 27 18.98 27 20 27 C20 27.66 20 28.32 20 29 C18.20866022 29.05391993 16.41686101 29.09275571 14.625 29.125 C13.62726562 29.14820313 12.62953125 29.17140625 11.6015625 29.1953125 C9 29 9 29 7 27 C6.67 27.66 6.34 28.32 6 29 C3.36 29 0.72 29 -2 29 C-3.17426264 26.65147472 -3.11508173 25.26225935 -3.09765625 22.6484375 C-3.09443359 21.79765625 -3.09121094 20.946875 -3.08789062 20.0703125 C-3.07951172 19.18085938 -3.07113281 18.29140625 -3.0625 17.375 C-3.05798828 16.4778125 -3.05347656 15.580625 -3.04882812 14.65625 C-3.03702591 12.43743352 -3.02056155 10.21874982 -3 8 C-4.32 8 -5.64 8 -7 8 C-7 7.34 -7 6.68 -7 6 C-6.401875 5.938125 -5.80375 5.87625 -5.1875 5.8125 C-2.13562809 4.67894758 -1.5029108 2.79112005 0 0 Z " fill="#F2F1F7" transform="translate(948,479)"/>
<path d="M0 0 C2.99442466 1.24767694 4.41890772 2.05005836 6.1015625 4.80078125 C7.72044424 8.76352221 7.56476279 12.80170309 7 17 C4.94892412 20.39488422 3.29515379 21.80323081 0 24 C-4.47208083 24.72022276 -7.98669453 24.58211165 -11.9375 22.3125 C-15.51521436 18.30112329 -16.61573003 14.50688865 -16.4296875 9.0703125 C-15.74617611 5.77703035 -14.29194991 3.69388138 -11.98046875 1.2890625 C-8.20014241 -1.17150494 -4.29993018 -0.78963659 0 0 Z " fill="#4A4092" transform="translate(905,585)"/>
<path d="M0 0 C2.93942819 1.83853969 4.54353689 3.86801225 6 7 C6.92756507 11.09543562 6.23087921 14.38817009 4.75 18.3125 C2.93461459 21.1004133 1.98413664 22.54825785 -1 24 C-5.9011857 24.55335968 -8.00795724 24.5327637 -12.375 22.1875 C-15.12379325 19.89683896 -16.82691798 18.32621291 -17.30078125 14.6953125 C-17.34061135 5.95924309 -17.34061135 5.95924309 -14 2 C-9.52201424 -0.98532384 -5.23792788 -0.96252521 0 0 Z " fill="#312683" transform="translate(935,535)"/>
<path d="M0 0 C2.89640118 -0.08120751 5.79050912 -0.14059421 8.6875 -0.1875 C9.50412109 -0.21263672 10.32074219 -0.23777344 11.16210938 -0.26367188 C15.97464115 -0.32212368 19.07377272 -0.10044334 23 3 C25 5 25 5 25.375 8.8125 C25.29807471 12.06703154 24.97936065 13.03344999 23.1875 15.9375 C20.0097497 18.93366457 17.50484674 19.12325865 13.3125 19.0625 C11.889375 19.041875 10.46625 19.02125 9 19 C9 22.63 9 26.26 9 30 C10.65 30.33 12.3 30.66 14 31 C14 31.33 14 31.66 14 32 C9.38 32 4.76 32 0 32 C0.99 31.34 1.98 30.68 3 30 C3.51146198 27.09386566 3.51146198 27.09386566 3.51171875 23.6796875 C3.54716797 22.42285156 3.58261719 21.16601562 3.61914062 19.87109375 C3.64169922 18.55238281 3.66425781 17.23367188 3.6875 15.875 C3.72066529 14.53512241 3.75515422 13.19527689 3.79101562 11.85546875 C3.87373327 8.5703967 3.94280693 5.28559968 4 2 C2.68 2 1.36 2 0 2 C0 1.34 0 0.68 0 0 Z " fill="#221679" transform="translate(864,576)"/>
<path d="M0 0 C3.06303578 -0.08115993 6.12390815 -0.14057409 9.1875 -0.1875 C10.48397461 -0.22520508 10.48397461 -0.22520508 11.80664062 -0.26367188 C16.69054544 -0.31980871 20.07963204 -0.26570457 24 3 C26.33909307 6.5086396 26.41291057 7.87089433 26 12 C24.33237678 15.49406769 23.25993978 16.82670681 20 19 C17.51953125 19.1953125 17.51953125 19.1953125 14.8125 19.125 C13.91144531 19.10695313 13.01039063 19.08890625 12.08203125 19.0703125 C11.39496094 19.04710937 10.70789063 19.02390625 10 19 C10.08693141 20.79258558 10.19510504 22.58415144 10.3125 24.375 C10.39951172 25.87160156 10.39951172 25.87160156 10.48828125 27.3984375 C10.65714844 28.25695312 10.82601562 29.11546875 11 30 C11.99 30.66 12.98 31.32 14 32 C9.71 32 5.42 32 1 32 C2.32 31.34 3.64 30.68 5 30 C5 20.76 5 11.52 5 2 C3.35 2 1.7 2 0 2 C0 1.34 0 0.68 0 0 Z " fill="#281D7D" transform="translate(725,576)"/>
<path d="M0 0 C2.31 0 4.62 0 7 0 C7 0.66 7 1.32 7 2 C7.495 1.67 7.99 1.34 8.5 1 C12.78824706 -0.71529882 17.21175294 -0.71529882 21.5 1 C21.995 1.33 22.49 1.66 23 2 C23.66 1.34 24.32 0.68 25 0 C31.71545261 -0.54156876 31.71545261 -0.54156876 35.2421875 0.9453125 C38.10797627 4.29510116 37.4207571 7.94155902 37.25 12.1875 C37.23195313 13.03248047 37.21390625 13.87746094 37.1953125 14.74804688 C37.14820586 16.83251573 37.07646233 18.91640144 37 21 C37.99 21 38.98 21 40 21 C40 21.66 40 22.32 40 23 C36.37 23 32.74 23 29 23 C29 22.34 29 21.68 29 21 C29.99 21 30.98 21 32 21 C31.67 15.39 31.34 9.78 31 4 C26.11785113 2.41074435 26.11785113 2.41074435 23 5 C22.61605333 7.77262255 22.39657752 10.34323528 22.3125 13.125 C22.27833984 13.87910156 22.24417969 14.63320313 22.20898438 15.41015625 C22.12645722 17.27291201 22.06155289 19.13643326 22 21 C22.99 21 23.98 21 25 21 C25 21.66 25 22.32 25 23 C21.37 23 17.74 23 14 23 C14 22.34 14 21.68 14 21 C15.32 21 16.64 21 18 21 C17.85978195 18.35375716 17.71310224 15.70815422 17.5625 13.0625 C17.52318359 12.30775391 17.48386719 11.55300781 17.44335938 10.77539062 C17.55961976 7.08055813 17.55961976 7.08055813 16 4 C13.36 4 10.72 4 8 4 C7.67 9.61 7.34 15.22 7 21 C8.32 21 9.64 21 11 21 C11 21.66 11 22.32 11 23 C7.04 23 3.08 23 -1 23 C-1 22.34 -1 21.68 -1 21 C0.32 21 1.64 21 3 21 C2.67 15.06 2.34 9.12 2 3 C1.34 2.67 0.68 2.34 0 2 C0 1.34 0 0.68 0 0 Z " fill="#25197B" transform="translate(763,485)"/>
<path d="M0 0 C1.92447529 1.54844527 2.87859917 2.46620652 3.43237305 4.90112305 C3.45855713 5.59761963 3.48474121 6.29411621 3.51171875 7.01171875 C3.56489258 8.14770508 3.56489258 8.14770508 3.61914062 9.30664062 C3.64169922 10.09232422 3.66425781 10.87800781 3.6875 11.6875 C3.73874023 12.88342773 3.73874023 12.88342773 3.79101562 14.10351562 C3.87338104 16.06851904 3.93837067 18.03423696 4 20 C4.66 20.33 5.32 20.66 6 21 C6 21.66 6 22.32 6 23 C0.49128368 24.12678288 0.49128368 24.12678288 -1.9375 23.5 C-4.23067159 22.79176504 -4.23067159 22.79176504 -7.5 23.6875 C-11 24 -11 24 -13.4375 22.4375 C-15.42236225 19.34111489 -15.53852618 17.61581862 -15 14 C-12.82547364 11.21990934 -10.64216902 10.32587753 -7.3125 9.3125 C-6.50425781 9.06113281 -5.69601562 8.80976563 -4.86328125 8.55078125 C-4.24839844 8.36902344 -3.63351562 8.18726563 -3 8 C-3 6.35 -3 4.7 -3 3 C-5.37374861 2.66574265 -5.37374861 2.66574265 -8 3 C-9.63676257 4.9600281 -9.63676257 4.9600281 -11 7 C-11.99 7 -12.98 7 -14 7 C-13.69054606 4.13755104 -13.31514492 2.39393114 -11.5 0.125 C-7.69603284 -1.58678522 -3.96986806 -1.15513656 0 0 Z " fill="#372C86" transform="translate(754,485)"/>
<path d="M0 0 C0.86625 -0.01675781 1.7325 -0.03351563 2.625 -0.05078125 C5.51022215 0.39054385 6.20336513 1.06352088 8 3.3125 C8.37852852 6.98495463 8.4847393 10.55494952 8.52734375 14.24023438 C8.58687567 16.26957245 8.7846657 18.29374092 9 20.3125 C9.99 20.9725 10.98 21.6325 12 22.3125 C11 23.3125 11 23.3125 8.1875 23.375 C7.135625 23.354375 6.08375 23.33375 5 23.3125 C1.0552924 23.17281394 1.0552924 23.17281394 -2.5 24.0625 C-6 24.3125 -6 24.3125 -8.4375 22.75 C-10.42236225 19.65361489 -10.53852618 17.92831862 -10 14.3125 C-8.30352414 11.51830447 -6.69649386 11.20765242 -3.5625 10.125 C0 9.3125 0 9.3125 4 9.3125 C3.34 7.0025 2.68 4.6925 2 2.3125 C-0.44480079 2.50078772 -0.44480079 2.50078772 -3 3.3125 C-4.36020151 5.28008273 -4.36020151 5.28008273 -5 7.3125 C-6.32 6.9825 -7.64 6.6525 -9 6.3125 C-8.6875 4.4375 -8.6875 4.4375 -8 2.3125 C-4.78169935 0.16696623 -3.73213493 0.01666132 0 0 Z " fill="#2F2481" transform="translate(909,484.6875)"/>
<path d="M0 0 C2.625 1.5625 2.625 1.5625 4 4 C4 6.31 4 8.62 4 11 C-0.95 11 -5.9 11 -11 11 C-9.68 13.97 -8.36 16.94 -7 20 C-2.78099043 20.4361141 -2.78099043 20.4361141 0.75 18.5 C1.1625 18.005 1.575 17.51 2 17 C2.66 17 3.32 17 4 17 C2.60478153 20.37177797 1.23717239 22.25017709 -2 24 C-6.18594945 24.5327572 -8.2354463 24.49271238 -11.8125 22.1875 C-15.11462251 18.88537749 -16.30427459 16.79172412 -16.375 12.1875 C-16.28729757 7.1884614 -15.26415428 4.74417697 -12 1 C-8.29695733 -0.85152133 -4.04231745 -0.45639068 0 0 Z " fill="#2F2381" transform="translate(819,485)"/>
<path d="M0 0 C2.31 0 4.62 0 7 0 C7.33 0.66 7.66 1.32 8 2 C8.99 1.34 9.98 0.68 11 0 C17.99075297 -0.665786 17.99075297 -0.665786 21.23828125 1.4765625 C23.81945688 5.17376751 23.43935306 8.35846568 23.25 12.75 C23.23195313 13.54277344 23.21390625 14.33554687 23.1953125 15.15234375 C23.14833082 17.10208348 23.07659044 19.05119878 23 21 C23.99 21 24.98 21 26 21 C26 21.66 26 22.32 26 23 C22.04 23 18.08 23 14 23 C14 22.34 14 21.68 14 21 C14.99 21 15.98 21 17 21 C16.67 15.39 16.34 9.78 16 4 C10.52174919 3.5527864 10.52174919 3.5527864 8 5 C7.68758545 7.71446979 7.48663408 10.33909361 7.375 13.0625 C7.31699219 14.20041992 7.31699219 14.20041992 7.2578125 15.36132812 C7.16326438 17.24047195 7.08053244 19.12020336 7 21 C8.32 21 9.64 21 11 21 C11 21.66 11 22.32 11 23 C7.04 23 3.08 23 -1 23 C-1 22.34 -1 21.68 -1 21 C0.32 21 1.64 21 3 21 C3 15.06 3 9.12 3 3 C1.68 3 0.36 3 -1 3 C-0.67 2.01 -0.34 1.02 0 0 Z " fill="#3C3289" transform="translate(742,535)"/>
<path d="M0 0 C3.0625 2.125 3.0625 2.125 5 5 C5 6.98 5 8.96 5 11 C0.05 11 -4.9 11 -10 11 C-9.690625 12.299375 -9.38125 13.59875 -9.0625 14.9375 C-8.80146484 16.03384766 -8.80146484 16.03384766 -8.53515625 17.15234375 C-8.16112431 18.99969898 -8.16112431 18.99969898 -7 20 C-3.54187831 20.33338596 -3.54187831 20.33338596 0 20 C0.66 19.01 1.32 18.02 2 17 C2.66 17 3.32 17 4 17 C3.69611836 19.93752254 3.19330344 20.84080893 0.875 22.75 C-2.76643236 24.33323146 -5.06433283 24.56223817 -9 24 C-11.875 21.5625 -11.875 21.5625 -14 19 C-14.33 18.67 -14.66 18.34 -15 18 C-15.51249688 12.52216448 -15.96124183 7.63411112 -13.125 2.8125 C-9.0840484 -0.63419402 -5.1543083 -0.78203298 0 0 Z " fill="#2A1E7E" transform="translate(886,535)"/>
<path d="M0 0 C2.31 0 4.62 0 7 0 C7 0.66 7 1.32 7 2 C7.495 1.67 7.99 1.34 8.5 1 C11.93199088 -0.37279635 15.36868233 -0.83690524 19 0 C21.234375 1.4765625 21.234375 1.4765625 23 4 C23.47999419 6.9343744 23.37776336 9.78687282 23.25 12.75 C23.23195313 13.54277344 23.21390625 14.33554687 23.1953125 15.15234375 C23.14833082 17.10208348 23.07659044 19.05119878 23 21 C23.99 21 24.98 21 26 21 C26 21.66 26 22.32 26 23 C22.37 23 18.74 23 15 23 C15 22.34 15 21.68 15 21 C15.99 21 16.98 21 18 21 C17.67 15.39 17.34 9.78 17 4 C14.03 4 11.06 4 8 4 C8 9.61 8 15.22 8 21 C8.99 21 9.98 21 11 21 C11 21.66 11 22.32 11 23 C7.37 23 3.74 23 0 23 C0 22.34 0 21.68 0 21 C0.99 21 1.98 21 3 21 C2.67 15.06 2.34 9.12 2 3 C1.34 2.67 0.68 2.34 0 2 C0 1.34 0 0.68 0 0 Z " fill="#322783" transform="translate(971,485)"/>
<path d="M0 0 C2.64 0 5.28 0 8 0 C8.02505615 0.57032959 8.0501123 1.14065918 8.07592773 1.72827148 C8.19156549 4.29826157 8.31443624 6.86785527 8.4375 9.4375 C8.47681641 10.33533203 8.51613281 11.23316406 8.55664062 12.15820312 C8.61948242 13.43920898 8.61948242 13.43920898 8.68359375 14.74609375 C8.72025146 15.53685303 8.75690918 16.3276123 8.79467773 17.14233398 C8.80563257 19.01401441 8.80563257 19.01401441 10 20 C12.45809998 20.2500773 12.45809998 20.2500773 15 20 C17.93447357 17.06552643 17.46158423 13.81740544 17.625 9.875 C17.66367187 9.12089844 17.70234375 8.36679687 17.7421875 7.58984375 C17.83651031 5.72696816 17.91934662 3.86351745 18 2 C17.01 2 16.02 2 15 2 C15 1.34 15 0.68 15 0 C17.64 0 20.28 0 23 0 C23 6.93 23 13.86 23 21 C23.99 21 24.98 21 26 21 C26 21.66 26 22.32 26 23 C22 23 18 23 14 23 C13.67 23.33 13.34 23.66 13 24 C10.1875 24.375 10.1875 24.375 7 24 C4.65311587 21.8798274 3.18743253 20.18308678 2.68237305 16.99511719 C2.60672648 14.7130702 2.65057678 12.46849802 2.75 10.1875 C2.76804687 9.39923828 2.78609375 8.61097656 2.8046875 7.79882812 C2.85155952 5.86535739 2.9232959 3.93251715 3 2 C2.01 2 1.02 2 0 2 C0 1.34 0 0.68 0 0 Z " fill="#2C217F" transform="translate(830,535)"/>
<path d="M0 0 C2.64 0 5.28 0 8 0 C8.02505615 0.57032959 8.0501123 1.14065918 8.07592773 1.72827148 C8.19156549 4.29826157 8.31443624 6.86785527 8.4375 9.4375 C8.47681641 10.33533203 8.51613281 11.23316406 8.55664062 12.15820312 C8.61948242 13.43920898 8.61948242 13.43920898 8.68359375 14.74609375 C8.72025146 15.53685303 8.75690918 16.3276123 8.79467773 17.14233398 C8.80563257 19.01401441 8.80563257 19.01401441 10 20 C13.465 19.505 13.465 19.505 17 19 C17 13.72 17 8.44 17 3 C16.34 2.67 15.68 2.34 15 2 C15 1.34 15 0.68 15 0 C17.64 0 20.28 0 23 0 C23.01981934 0.62567871 23.03963867 1.25135742 23.06005859 1.89599609 C23.15514226 4.72276519 23.26488746 7.54877815 23.375 10.375 C23.4059375 11.35984375 23.436875 12.3446875 23.46875 13.359375 C23.50742187 14.30039062 23.54609375 15.24140625 23.5859375 16.2109375 C23.63306885 17.51490479 23.63306885 17.51490479 23.68115234 18.84521484 C23.81229433 21.20961794 23.81229433 21.20961794 26 23 C22.33333333 23 18.66666667 23 15 23 C14.05833984 23.19529297 14.05833984 23.19529297 13.09765625 23.39453125 C12.42605469 23.53246094 11.75445313 23.67039062 11.0625 23.8125 C10.39347656 23.96332031 9.72445312 24.11414063 9.03515625 24.26953125 C7 24 7 24 4.78515625 22.02734375 C2.5620434 18.25729461 2.40564771 15.01003183 2.375 10.75 C2.32912023 8.14402903 2.20793918 5.60221029 2 3 C1.34 2.67 0.68 2.34 0 2 C0 1.34 0 0.68 0 0 Z " fill="#2D2280" transform="translate(753,585)"/>
<path d="M0 0 C3.63 0 7.26 0 11 0 C11 0.66 11 1.32 11 2 C10.01 2 9.02 2 8 2 C8.3609375 2.83144531 8.721875 3.66289063 9.09375 4.51953125 C9.5578125 5.60621094 10.021875 6.69289063 10.5 7.8125 C10.9640625 8.89144531 11.428125 9.97039063 11.90625 11.08203125 C13 14 13 14 13 17 C13.66 17 14.32 17 15 17 C15.12117187 16.41992188 15.24234375 15.83984375 15.3671875 15.2421875 C16.33735474 10.71971558 17.43397783 6.36249034 19 2 C18.01 2 17.02 2 16 2 C16 1.34 16 0.68 16 0 C18.97 0 21.94 0 25 0 C25 0.66 25 1.32 25 2 C24.401875 2.53238281 23.80375 3.06476562 23.1875 3.61328125 C20.24758917 6.82093396 19.30807005 10.09472182 18 14.1875 C17.48557772 15.71568921 16.96866894 17.24304377 16.44921875 18.76953125 C16.20220215 19.49994629 15.95518555 20.23036133 15.70068359 20.98291016 C11.93358192 31.8274377 11.93358192 31.8274377 8 35 C5.3125 34.6875 5.3125 34.6875 3 34 C3 32.68 3 31.36 3 30 C4.98 30 6.96 30 9 30 C10.5244437 26.9511126 10.51809195 24.29643119 10 21 C8.57359168 16.88599608 6.82722898 12.94987822 5 9 C4.69320312 8.31679688 4.38640625 7.63359375 4.0703125 6.9296875 C2.68980489 3.87080809 2.68980489 3.87080809 0 2 C0 1.34 0 0.68 0 0 Z " fill="#291E7E" transform="translate(960,585)"/>
<path d="M0 0 C3 0.4375 3 0.4375 6 2.4375 C6.30471206 5.01560299 6.41857771 7.30149418 6.375 9.875 C6.38660156 10.55626953 6.39820313 11.23753906 6.41015625 11.93945312 C6.39285166 14.88411814 6.35856223 16.93081377 4.62890625 19.375 C3 20.4375 3 20.4375 0.5625 21 C-2 20.4375 -2 20.4375 -4.3125 18 C-6.40875011 13.5745831 -6.71610444 10.24689281 -6 5.4375 C-4.57855831 1.56801984 -4.12973083 0.60225241 0 0 Z " fill="#F1F1F7" transform="translate(929,536.5625)"/>
<path d="M0 0 C3.5625 0.375 3.5625 0.375 5.5 1.875 C6.99778509 5.39920021 7.11436883 8.6409265 6.5625 12.375 C4.40625 17.53125 4.40625 17.53125 2.5625 19.375 C-0.375 19.625 -0.375 19.625 -3.4375 19.375 C-5.89812979 15.68405532 -5.70566777 13.70455805 -5.6875 9.3125 C-5.69265625 8.06339844 -5.6978125 6.81429687 -5.703125 5.52734375 C-5.32304318 1.01666691 -4.46736483 0.48734889 0 0 Z " fill="#F3F3F8" transform="translate(792.4375,587.625)"/>
<path d="M0 0 C4.62 0 9.24 0 14 0 C14 0.66 14 1.32 14 2 C12.68 2 11.36 2 10 2 C10 11.24 10 20.48 10 30 C11.32 30 12.64 30 14 30 C14 30.66 14 31.32 14 32 C9.38 32 4.76 32 0 32 C0 31.34 0 30.68 0 30 C1.65 30 3.3 30 5 30 C5 20.76 5 11.52 5 2 C3.35 2 1.7 2 0 2 C0 1.34 0 0.68 0 0 Z " fill="#322783" transform="translate(725,526)"/>
<path d="M0 0 C2 2 2 2 2.1953125 5.6953125 C2.182009 7.17200108 2.15814835 8.64862358 2.125 10.125 C2.11597656 10.87910156 2.10695313 11.63320313 2.09765625 12.41015625 C2.0740687 14.27357254 2.03819719 16.13682593 2 18 C0.68 18 -0.64 18 -2 18 C-2.33 18.66 -2.66 19.32 -3 20 C-3.66 20 -4.32 20 -5 20 C-5 19.34 -5 18.68 -5 18 C-6.32 18 -7.64 18 -9 18 C-9.0809723 15.56183415 -9.14046972 13.12635616 -9.1875 10.6875 C-9.21263672 9.99720703 -9.23777344 9.30691406 -9.26367188 8.59570312 C-9.33750433 3.50126383 -9.33750433 3.50126383 -7.6796875 1.0390625 C-5.0850561 -0.56598855 -2.97066924 -0.31602864 0 0 Z " fill="#ECEBF3" transform="translate(779,488)"/>
<path d="M0 0 C4.29 0 8.58 0 13 0 C12.01 0.66 11.02 1.32 10 2 C9.53774072 4.92392971 9.53774072 4.92392971 9.59375 8.36328125 C9.57183594 9.64267578 9.54992187 10.92207031 9.52734375 12.24023438 C9.51654859 13.59764393 9.50745041 14.95506797 9.5 16.3125 C9.48537917 18.95537357 9.4513808 21.59547498 9.40625 24.23828125 C9.39916016 25.41430908 9.39207031 26.59033691 9.38476562 27.80200195 C8.9597 31.33495535 8.21861297 33.23086351 6 36 C2.3125 36.8125 2.3125 36.8125 -1 37 C-0.525625 36.566875 -0.05125 36.13375 0.4375 35.6875 C4.5475903 31.24860248 3.22394111 24.14377823 3.24023438 18.4934082 C3.2499826 16.44116321 3.28104024 14.38990251 3.3125 12.33789062 C3.31765625 11.04947266 3.3228125 9.76105469 3.328125 8.43359375 C3.3374707 7.24822021 3.34681641 6.06284668 3.35644531 4.84155273 C3.23881836 3.90384033 3.12119141 2.96612793 3 2 C2.01 1.34 1.02 0.68 0 0 Z " fill="#22167A" transform="translate(726,476)"/>
<path d="M0 0 C3.20752745 3.20752745 3.16943852 6.59597233 3.25 11 C3.28867187 12.2684375 3.28867187 12.2684375 3.328125 13.5625 C2.92998908 16.5200811 2.045869 17.85670866 0 20 C-2.5 20.5 -2.5 20.5 -5 20 C-7.38375508 17.63335321 -7.97028802 16.23332641 -8.3984375 12.87109375 C-8.39070312 11.73800781 -8.38296875 10.60492187 -8.375 9.4375 C-8.38273438 8.30183594 -8.39046875 7.16617188 -8.3984375 5.99609375 C-8 3 -8 3 -6.63671875 1.1171875 C-4.32527881 -0.46054955 -2.73393303 -0.35050424 0 0 Z " fill="#FAFAFC" transform="translate(903,587)"/>
<path d="M0 0 C0.88945313 0.00644531 1.77890625 0.01289062 2.6953125 0.01953125 C4.875 0.1875 4.875 0.1875 5.875 1.1875 C5.91580783 3.18708364 5.91754356 5.18795254 5.875 7.1875 C5.215 7.1875 4.555 7.1875 3.875 7.1875 C3.215 5.8675 2.555 4.5475 1.875 3.1875 C-0.105 3.1875 -2.085 3.1875 -4.125 3.1875 C-4.125 4.5075 -4.125 5.8275 -4.125 7.1875 C-3.41472656 7.53683594 -2.70445312 7.88617187 -1.97265625 8.24609375 C-1.05355469 8.70113281 -0.13445313 9.15617188 0.8125 9.625 C1.72902344 10.07746094 2.64554688 10.52992188 3.58984375 10.99609375 C5.875 12.1875 5.875 12.1875 6.875 13.1875 C7.25 16.5 7.25 16.5 6.875 20.1875 C4.12641738 23.43582492 2.54873507 24.11658052 -1.6875 24.5625 C-4.76360283 24.22692515 -6.55612198 23.83158193 -9.125 22.1875 C-9.125 19.8775 -9.125 17.5675 -9.125 15.1875 C-7.1004262 17.12004772 -5.70394208 18.81908688 -4.125 21.1875 C-1.54119823 21.43780977 -1.54119823 21.43780977 0.875 21.1875 C1.205 19.5375 1.535 17.8875 1.875 16.1875 C1.24851562 15.93355469 0.62203125 15.67960938 -0.0234375 15.41796875 C-0.84070313 15.07378906 -1.65796875 14.72960937 -2.5 14.375 C-3.31210937 14.03855469 -4.12421875 13.70210937 -4.9609375 13.35546875 C-7.125 12.1875 -7.125 12.1875 -9.125 9.1875 C-8.9375 5.625 -8.9375 5.625 -8.125 2.1875 C-4.84237969 -0.00091354 -3.80709102 -0.06104665 0 0 Z " fill="#25197B" transform="translate(779.125,534.8125)"/>
<path d="M0 0 C2.3046875 1.5390625 2.3046875 1.5390625 4 3 C3.67 4.32 3.34 5.64 3 7 C1.125 6.6875 1.125 6.6875 -1 6 C-1.66 5.01 -2.32 4.02 -3 3 C-5.5 2.5 -5.5 2.5 -8 3 C-10.70347553 7.0552133 -10.52468074 10.24456026 -10 15 C-9.09819664 18.09355658 -9.09819664 18.09355658 -7 20 C-4 20.66666667 -4 20.66666667 -1 20 C0.7511573 18.5833253 0.7511573 18.5833253 2 17 C2.66 17 3.32 17 4 17 C3.00456145 19.624338 2.02807645 20.97605244 -0.125 22.8125 C-4.07607535 24.4444659 -6.93524837 24.14730893 -11 23 C-14 21.6875 -14 21.6875 -16 19 C-16.94393837 14.04252216 -17.00858873 9.35075738 -14.99609375 4.66015625 C-11.16791866 -0.67311332 -6.23474027 -1.41979234 0 0 Z " fill="#2C207F" transform="translate(847,585)"/>
<path d="M0 0 C0.33 1.32 0.66 2.64 1 4 C-1.38564077 3.42415568 -3.66682784 2.77772405 -6 2 C-6.33 4.97 -6.66 7.94 -7 11 C-5.35 11 -3.7 11 -2 11 C-2 11.66 -2 12.32 -2 13 C-3.65 13 -5.3 13 -7 13 C-7 19.27 -7 25.54 -7 32 C-5.68 32 -4.36 32 -3 32 C-3 32.66 -3 33.32 -3 34 C-6.96 34 -10.92 34 -15 34 C-15 33.34 -15 32.68 -15 32 C-13.68 32 -12.36 32 -11 32 C-11 25.73 -11 19.46 -11 13 C-11.99 13 -12.98 13 -14 13 C-14 12.34 -14 11.68 -14 11 C-13.01 11 -12.02 11 -11 11 C-11.103125 9.7625 -11.20625 8.525 -11.3125 7.25 C-11.30640554 3.81882161 -11.18089494 3.21813802 -8.875 0.4375 C-5.38987838 -1.30506081 -3.69310412 -1.03063371 0 0 Z " fill="#1F1378" transform="translate(919,524)"/>
<path d="M0 0 C2.64 0 5.28 0 8 0 C8.01981934 0.95890137 8.03963867 1.91780273 8.06005859 2.90576172 C8.13604145 6.45811553 8.2247693 10.01005576 8.31738281 13.56201172 C8.35570301 15.10034021 8.39055056 16.63875925 8.421875 18.17724609 C8.46746059 20.38672276 8.5254634 22.59557448 8.5859375 24.8046875 C8.59748871 25.49432587 8.60903992 26.18396423 8.62094116 26.89450073 C8.64951022 30.8920154 8.64951022 30.8920154 11 34 C7.37 34 3.74 34 0 34 C0.66 33.34 1.32 32.68 2 32 C2.37322427 28.89243985 2.37322427 28.89243985 2.4140625 25.2421875 C2.43342865 24.57913605 2.4527948 23.91608459 2.4727478 23.23294067 C2.53255954 21.11375823 2.57893388 18.9945215 2.625 16.875 C2.66317845 15.43877831 2.70223011 14.00257955 2.7421875 12.56640625 C2.83826125 9.04448064 2.92228642 5.52238392 3 2 C2.01 2 1.02 2 0 2 C0 1.34 0 0.68 0 0 Z " fill="#2A1E7E" transform="translate(913,574)"/>
<path d="M0 0 C2.64 0 5.28 0 8 0 C8.01981934 0.95890137 8.03963867 1.91780273 8.06005859 2.90576172 C8.13604145 6.45811553 8.2247693 10.01005576 8.31738281 13.56201172 C8.35570301 15.10034021 8.39055056 16.63875925 8.421875 18.17724609 C8.46746059 20.38672276 8.5254634 22.59557448 8.5859375 24.8046875 C8.59748871 25.49432587 8.60903992 26.18396423 8.62094116 26.89450073 C8.64951022 30.8920154 8.64951022 30.8920154 11 34 C7.37 34 3.74 34 0 34 C0.66 33.34 1.32 32.68 2 32 C2.37322427 28.89243985 2.37322427 28.89243985 2.4140625 25.2421875 C2.43342865 24.57913605 2.4527948 23.91608459 2.4727478 23.23294067 C2.53255954 21.11375823 2.57893388 18.9945215 2.625 16.875 C2.66317845 15.43877831 2.70223011 14.00257955 2.7421875 12.56640625 C2.83826125 9.04448064 2.92228642 5.52238392 3 2 C2.01 2 1.02 2 0 2 C0 1.34 0 0.68 0 0 Z " fill="#2D2280" transform="translate(805,574)"/>
<path d="M0 0 C0.86625 0.00386719 1.7325 0.00773438 2.625 0.01171875 C5 0.3125 5 0.3125 8 2.3125 C7.67 3.9625 7.34 5.6125 7 7.3125 C4 6.3125 4 6.3125 2 3.3125 C-0.5 2.8125 -0.5 2.8125 -3 3.3125 C-5.70347553 7.3677133 -5.52468074 10.55706026 -5 15.3125 C-4.09819664 18.40605658 -4.09819664 18.40605658 -2 20.3125 C1 20.97916667 1 20.97916667 4 20.3125 C5.87890434 18.93743901 5.87890434 18.93743901 7 17.3125 C7.66 17.6425 8.32 17.9725 9 18.3125 C5.18823529 24.03014706 5.18823529 24.03014706 2.02734375 24.78125 C-1.68655022 24.83678486 -5.03288909 24.62025293 -8 22.3125 C-11.17726097 18.567871 -11.45800419 15.19195336 -11.29296875 10.4609375 C-10.41553231 4.0264036 -6.35560867 -0.12295076 0 0 Z " fill="#221679" transform="translate(950,584.6875)"/>
<path d="M0 0 C1.33417969 0.02320313 1.33417969 0.02320313 2.6953125 0.046875 C4.875 0.25 4.875 0.25 5.875 1.25 C5.91580783 3.24958364 5.91754356 5.25045254 5.875 7.25 C3.875 6.25 3.875 6.25 2.875 3.25 C0.895 3.25 -1.085 3.25 -3.125 3.25 C-3.125 4.57 -3.125 5.89 -3.125 7.25 C-2.41472656 7.52972656 -1.70445312 7.80945313 -0.97265625 8.09765625 C1.82157482 9.3164583 4.34877229 10.54020121 6.875 12.25 C8.25 15.8125 8.25 15.8125 7.875 19.25 C6.5625 21.6875 6.5625 21.6875 3.875 23.25 C-0.16764583 23.70569277 -4.42160955 24.10169522 -8.125 22.25 C-8.125 19.94 -8.125 17.63 -8.125 15.25 C-5.37116077 16.62691962 -4.61016899 18.61720042 -3.125 21.25 C-1.145 20.92 0.835 20.59 2.875 20.25 C2.875 18.93 2.875 17.61 2.875 16.25 C1.80958984 15.74339844 1.80958984 15.74339844 0.72265625 15.2265625 C-0.19644531 14.78054688 -1.11554687 14.33453125 -2.0625 13.875 C-3.43728516 13.21371094 -3.43728516 13.21371094 -4.83984375 12.5390625 C-7.125 11.25 -7.125 11.25 -8.125 9.25 C-8.58120574 3.88958256 -8.58120574 3.88958256 -6.9296875 1.57421875 C-4.51740138 -0.19583535 -2.96202149 -0.08635631 0 0 Z " fill="#23177A" transform="translate(835.125,484.75)"/>
<path d="M0 0 C0.66 0 1.32 0 2 0 C2 1.98 2 3.96 2 6 C3.98 6 5.96 6 8 6 C8 6.99 8 7.98 8 9 C6.02 9 4.04 9 2 9 C2.33 14.61 2.66 20.22 3 26 C4.65 26.33 6.3 26.66 8 27 C6.22510401 29.24197388 5.37824511 29.94326323 2.5 30.375 C-0.47972463 29.92804131 -1.17141594 29.33727064 -3 27 C-3.34057617 25.00708008 -3.34057617 25.00708008 -3.29296875 22.76953125 C-3.28330078 21.96708984 -3.27363281 21.16464844 -3.26367188 20.33789062 C-3.23853516 19.50451172 -3.21339844 18.67113281 -3.1875 17.8125 C-3.17396484 16.96751953 -3.16042969 16.12253906 -3.14648438 15.25195312 C-3.11115799 13.16769616 -3.05735139 11.08376723 -3 9 C-3.99 9 -4.98 9 -6 9 C-6 8.01 -6 7.02 -6 6 C-4.68 6 -3.36 6 -2 6 C-1.34 4.02 -0.68 2.04 0 0 Z " fill="#312582" transform="translate(794,529)"/>
<path d="M0 0 C0.66 0 1.32 0 2 0 C2 1.98 2 3.96 2 6 C3.98 6 5.96 6 8 6 C7.67 6.99 7.34 7.98 7 9 C5.35 9 3.7 9 2 9 C2.33 14.61 2.66 20.22 3 26 C4.65 26.33 6.3 26.66 8 27 C6.22510401 29.24197388 5.37824511 29.94326323 2.5 30.375 C-0.48408259 29.92738761 -1.1763428 29.34927842 -3 27 C-3.34057617 24.9152832 -3.34057617 24.9152832 -3.29296875 22.55078125 C-3.28330078 21.70322266 -3.27363281 20.85566406 -3.26367188 19.98242188 C-3.23853516 19.10134766 -3.21339844 18.22027344 -3.1875 17.3125 C-3.17396484 16.41982422 -3.16042969 15.52714844 -3.14648438 14.60742188 C-3.11114079 12.40433834 -3.06180493 10.20247418 -3 8 C-3.99 8 -4.98 8 -6 8 C-6 7.34 -6 6.68 -6 6 C-4.68 6 -3.36 6 -2 6 C-1.855625 5.38125 -1.71125 4.7625 -1.5625 4.125 C-1 2 -1 2 0 0 Z " fill="#332783" transform="translate(821,529)"/>
<path d="M0 0 C0.5775 0.226875 1.155 0.45375 1.75 0.6875 C1.42 2.3375 1.09 3.9875 0.75 5.6875 C-1.56 5.3575 -3.87 5.0275 -6.25 4.6875 C-6.25 10.2975 -6.25 15.9075 -6.25 21.6875 C-4.93 21.6875 -3.61 21.6875 -2.25 21.6875 C-2.25 22.3475 -2.25 23.0075 -2.25 23.6875 C-6.21 23.6875 -10.17 23.6875 -14.25 23.6875 C-14.25 23.0275 -14.25 22.3675 -14.25 21.6875 C-13.26 21.6875 -12.27 21.6875 -11.25 21.6875 C-11.58 15.7475 -11.91 9.8075 -12.25 3.6875 C-12.91 3.3575 -13.57 3.0275 -14.25 2.6875 C-14.25 2.0275 -14.25 1.3675 -14.25 0.6875 C-11.61 0.6875 -8.97 0.6875 -6.25 0.6875 C-6.25 1.3475 -6.25 2.0075 -6.25 2.6875 C-5.38375 1.9140625 -5.38375 1.9140625 -4.5 1.125 C-2.25 -0.3125 -2.25 -0.3125 0 0 Z " fill="#261A7C" transform="translate(937.25,484.3125)"/>
<path d="M0 0 C3.3 0 6.6 0 10 0 C9.01 0.66 8.02 1.32 7 2 C6.48853802 4.90613434 6.48853802 4.90613434 6.48828125 8.3203125 C6.45283203 9.57714844 6.41738281 10.83398438 6.38085938 12.12890625 C6.34702148 14.10697266 6.34702148 14.10697266 6.3125 16.125 C6.27933471 17.46487759 6.24484578 18.80472311 6.20898438 20.14453125 C6.12626673 23.4296033 6.05719307 26.71440032 6 30 C7.32 30 8.64 30 10 30 C10 30.66 10 31.32 10 32 C5.71 32 1.42 32 -3 32 C-3 31.34 -3 30.68 -3 30 C-1.68 29.67 -0.36 29.34 1 29 C1.33 20.75 1.66 12.5 2 4 C1.34 4 0.68 4 0 4 C0 2.68 0 1.36 0 0 Z " fill="#1C0F75" transform="translate(887,476)"/>
<path d="M0 0 C2.96858157 2.20740681 3.82865791 3.48597373 5 7 C5.42703124 13.51222648 4.81184759 17.75556047 0.375 22.875 C-3.3155694 24.62316445 -6.98503847 24.2316324 -11 24 C-9 22 -9 22 -6 21.1875 C-2.89989906 20.29621708 -2.89989906 20.29621708 -1.625 17.875 C-0.79706488 14.06649844 -0.74805562 10.90513793 -1 7 C-1.66 6.01 -2.32 5.02 -3 4 C-7.65145592 3.61975225 -7.65145592 3.61975225 -12 5 C-9.48130783 -0.57710409 -5.88324975 -0.86209996 0 0 Z " fill="#291D7E" transform="translate(799,585)"/>
<path d="M0 0 C2.31 0 4.62 0 7 0 C7.33 0.66 7.66 1.32 8 2 C8.99 1.34 9.98 0.68 11 0 C13.6875 0.375 13.6875 0.375 16 1 C15.67 2.32 15.34 3.64 15 5 C12.69 5 10.38 5 8 5 C7.67 10.28 7.34 15.56 7 21 C8.32 21 9.64 21 11 21 C11 21.66 11 22.32 11 23 C7.04 23 3.08 23 -1 23 C-1 22.34 -1 21.68 -1 21 C0.32 21 1.64 21 3 21 C3 15.06 3 9.12 3 3 C1.68 3 0.36 3 -1 3 C-0.67 2.01 -0.34 1.02 0 0 Z " fill="#25197B" transform="translate(943,535)"/>
<path d="M0 0 C0.33 0 0.66 0 1 0 C1 1.98 1 3.96 1 6 C2.98 6 4.96 6 7 6 C7 6.66 7 7.32 7 8 C5.02 8 3.04 8 1 8 C1.33 14.27 1.66 20.54 2 27 C3.65 27 5.3 27 7 27 C5.18887927 29.28773145 4.39279457 29.95209822 1.4375 30.3125 C-1 30 -1 30 -3 28 C-3.22705078 25.93701172 -3.22705078 25.93701172 -3.1953125 23.4296875 C-3.18886719 22.53378906 -3.18242188 21.63789062 -3.17578125 20.71484375 C-3.15902344 19.77769531 -3.14226563 18.84054687 -3.125 17.875 C-3.11597656 16.93011719 -3.10695313 15.98523438 -3.09765625 15.01171875 C-3.07404522 12.67422708 -3.04111516 10.33723877 -3 8 C-4.32 8 -5.64 8 -7 8 C-7 7.34 -7 6.68 -7 6 C-6.401875 5.938125 -5.80375 5.87625 -5.1875 5.8125 C-2.13562809 4.67894758 -1.5029108 2.79112005 0 0 Z " fill="#25197B" transform="translate(863,529)"/>
<path d="M0 0 C7 0 7 0 10 2 C10.3984375 4.53125 10.3984375 4.53125 10.375 7.5 C10.38273438 8.4796875 10.39046875 9.459375 10.3984375 10.46875 C10.26695312 11.3040625 10.13546875 12.139375 10 13 C7 15 7 15 0 15 C0 10.05 0 5.1 0 0 Z " fill="#F8F8FB" transform="translate(873,578)"/>
<path d="M0 0 C0.33 0 0.66 0 1 0 C1 1.98 1 3.96 1 6 C2.98 6 4.96 6 7 6 C7 6.66 7 7.32 7 8 C5.02 8 3.04 8 1 8 C1.33 13.61 1.66 19.22 2 25 C4.475 25.99 4.475 25.99 7 27 C6.67 27.66 6.34 28.32 6 29 C3.36 29 0.72 29 -2 29 C-3.17426264 26.65147472 -3.11508173 25.26225935 -3.09765625 22.6484375 C-3.09443359 21.79765625 -3.09121094 20.946875 -3.08789062 20.0703125 C-3.07951172 19.18085938 -3.07113281 18.29140625 -3.0625 17.375 C-3.05798828 16.4778125 -3.05347656 15.580625 -3.04882812 14.65625 C-3.03702591 12.43743352 -3.02056155 10.21874982 -3 8 C-4.32 8 -5.64 8 -7 8 C-7 7.34 -7 6.68 -7 6 C-6.401875 5.938125 -5.80375 5.87625 -5.1875 5.8125 C-2.13562809 4.67894758 -1.5029108 2.79112005 0 0 Z " fill="#1E1177" transform="translate(948,479)"/>
<path d="M0 0 C7 0 7 0 8.9140625 1.21875 C10.27581985 3.45242393 10.40107113 4.89288695 10.375 7.5 C10.38273438 8.2734375 10.39046875 9.046875 10.3984375 9.84375 C10 12 10 12 8.9140625 13.78125 C7 15 7 15 0 15 C0 10.05 0 5.1 0 0 Z " fill="#FAF9FC" transform="translate(735,578)"/>
<path d="M0 0 C0.86625 -0.01675781 1.7325 -0.03351563 2.625 -0.05078125 C5.51022215 0.39054385 6.20336513 1.06352088 8 3.3125 C8.37852852 6.98495463 8.4847393 10.55494952 8.52734375 14.24023438 C8.58687567 16.26957245 8.7846657 18.29374092 9 20.3125 C9.99 20.9725 10.98 21.6325 12 22.3125 C11 23.3125 11 23.3125 8.125 23.5625 C5 23.3125 5 23.3125 3.25390625 22.12109375 C2 20.3125 2 20.3125 2.14453125 17.83203125 C2.36496094 16.93871094 2.58539062 16.04539062 2.8125 15.125 C3.02519531 14.22394531 3.23789062 13.32289063 3.45703125 12.39453125 C3.72580078 11.36392578 3.72580078 11.36392578 4 10.3125 C3.01 9.9825 2.02 9.6525 1 9.3125 C1.99 9.3125 2.98 9.3125 4 9.3125 C3.34 7.0025 2.68 4.6925 2 2.3125 C-0.44480079 2.50078772 -0.44480079 2.50078772 -3 3.3125 C-4.36020151 5.28008273 -4.36020151 5.28008273 -5 7.3125 C-6.32 6.9825 -7.64 6.6525 -9 6.3125 C-8.6875 4.4375 -8.6875 4.4375 -8 2.3125 C-4.78169935 0.16696623 -3.73213493 0.01666132 0 0 Z " fill="#190D74" transform="translate(909,484.6875)"/>
<path d="M0 0 C3.06303578 -0.08115993 6.12390815 -0.14057409 9.1875 -0.1875 C10.48397461 -0.22520508 10.48397461 -0.22520508 11.80664062 -0.26367188 C16.69054544 -0.31980871 20.07963204 -0.26570457 24 3 C26.33909307 6.5086396 26.41291057 7.87089433 26 12 C24.33237678 15.49406769 23.25993978 16.82670681 20 19 C17.26009592 18.96856707 14.71582146 18.44521663 12 18 C12 17.67 12 17.34 12 17 C15.465 16.505 15.465 16.505 19 16 C19.05391993 14.20866022 19.09275571 12.41686101 19.125 10.625 C19.14820313 9.62726562 19.17140625 8.62953125 19.1953125 7.6015625 C19.27216848 4.83737827 19.27216848 4.83737827 17 3 C14.0139857 2.53339671 14.0139857 2.53339671 10.625 2.375 C8.91183594 2.26285156 8.91183594 2.26285156 7.1640625 2.1484375 C4.77815324 2.03650595 2.38853338 2 0 2 C0 1.34 0 0.68 0 0 Z " fill="#302582" transform="translate(725,576)"/>
<path d="M0 0 C2.64 0 5.28 0 8 0 C8 6.93 8 13.86 8 21 C8.99 21 9.98 21 11 21 C11 21.66 11 22.32 11 23 C7.37 23 3.74 23 0 23 C0 22.34 0 21.68 0 21 C0.99 21 1.98 21 3 21 C3 14.73 3 8.46 3 2 C2.01 2 1.02 2 0 2 C0 1.34 0 0.68 0 0 Z " fill="#2C217F" transform="translate(957,485)"/>
<path d="M0 0 C2.64 0 5.28 0 8 0 C8.01981934 0.62567871 8.03963867 1.25135742 8.06005859 1.89599609 C8.15514226 4.72276519 8.26488746 7.54877815 8.375 10.375 C8.4059375 11.35984375 8.436875 12.3446875 8.46875 13.359375 C8.50742187 14.30039062 8.54609375 15.24140625 8.5859375 16.2109375 C8.6173584 17.08024902 8.6487793 17.94956055 8.68115234 18.84521484 C8.81229433 21.20961794 8.81229433 21.20961794 11 23 C7.37 23 3.74 23 0 23 C0.66 22.34 1.32 21.68 2 21 C2.36831081 19.06742145 2.36831081 19.06742145 2.4140625 16.8671875 C2.45273437 16.06152344 2.49140625 15.25585938 2.53125 14.42578125 C2.5621875 13.58402344 2.593125 12.74226562 2.625 11.875 C2.66367187 11.02550781 2.70234375 10.17601562 2.7421875 9.30078125 C2.83656494 7.20088316 2.91937586 5.10047109 3 3 C2.01 3 1.02 3 0 3 C0 2.01 0 1.02 0 0 Z " fill="#342984" transform="translate(819,585)"/>
<path d="M0 0 C2.89640118 -0.08120751 5.79050912 -0.14059421 8.6875 -0.1875 C9.50412109 -0.21263672 10.32074219 -0.23777344 11.16210938 -0.26367188 C15.97464115 -0.32212368 19.07377272 -0.10044334 23 3 C25 5 25 5 25.375 8.8125 C25.27971026 11.89540327 24.94024913 13.11233163 23.4375 15.9375 C20.274699 18.61371623 18.10335951 18.92539346 14 19 C13.01 18.34 12.02 17.68 11 17 C13.31 16.34 15.62 15.68 18 15 C18.33 11.37 18.66 7.74 19 4 C12.50346094 2.32347379 6.69954272 1.74824265 0 2 C0 1.34 0 0.68 0 0 Z " fill="#302482" transform="translate(864,576)"/>
<path d="M0 0 C2.31 0 4.62 0 7 0 C7 0.99 7 1.98 7 3 C7.66 3.33 8.32 3.66 9 4 C8.67 9.61 8.34 15.22 8 21 C8.99 21 9.98 21 11 21 C11 21.66 11 22.32 11 23 C7.37 23 3.74 23 0 23 C0 22.34 0 21.68 0 21 C0.99 21 1.98 21 3 21 C2.67 15.06 2.34 9.12 2 3 C1.34 2.67 0.68 2.34 0 2 C0 1.34 0 0.68 0 0 Z " fill="#271B7C" transform="translate(971,485)"/>
<path d="M0 0 C2.64 0 5.28 0 8 0 C8 7.26 8 14.52 8 22 C8.99 22.33 9.98 22.66 11 23 C7.37 23 3.74 23 0 23 C0.66 22.34 1.32 21.68 2 21 C2.36831081 19.06742145 2.36831081 19.06742145 2.4140625 16.8671875 C2.45273437 16.06152344 2.49140625 15.25585938 2.53125 14.42578125 C2.5621875 13.58402344 2.593125 12.74226562 2.625 11.875 C2.66367187 11.02550781 2.70234375 10.17601562 2.7421875 9.30078125 C2.83656494 7.20088316 2.91937586 5.10047109 3 3 C2.01 3 1.02 3 0 3 C0 2.01 0 1.02 0 0 Z " fill="#302582" transform="translate(927,585)"/>
<path d="M0 0 C2.31 0 4.62 0 7 0 C7.33 0.66 7.66 1.32 8 2 C8.99 1.67 9.98 1.34 11 1 C13.1875 1.9375 13.1875 1.9375 15 3 C12.69 3.66 10.38 4.32 8 5 C7.67 10.28 7.34 15.56 7 21 C8.32 21 9.64 21 11 21 C11 21.66 11 22.32 11 23 C7.04 23 3.08 23 -1 23 C-1 22.34 -1 21.68 -1 21 C0.32 21 1.64 21 3 21 C3 15.06 3 9.12 3 3 C1.68 3 0.36 3 -1 3 C-0.67 2.01 -0.34 1.02 0 0 Z " fill="#2E2381" transform="translate(742,535)"/>
<path d="M0 0 C0 6.93 0 13.86 0 21 C1.32 21 2.64 21 4 21 C4 21.66 4 22.32 4 23 C0.04 23 -3.92 23 -8 23 C-8 22.34 -8 21.68 -8 21 C-6.68 21 -5.36 21 -4 21 C-4.11358476 18.04081802 -4.24033086 15.08323217 -4.375 12.125 C-4.42140625 10.86236328 -4.42140625 10.86236328 -4.46875 9.57421875 C-4.50742187 8.76855469 -4.54609375 7.96289062 -4.5859375 7.1328125 C-4.6173584 6.38918457 -4.6487793 5.64555664 -4.68115234 4.87939453 C-4.85419551 2.75989026 -4.85419551 2.75989026 -7 1 C-5 0 -5 0 0 0 Z " fill="#211579" transform="translate(811,535)"/>
<path d="M0 0 C0.86445012 2.92329317 1.01162118 5.28262913 0.8125 8.3125 C0.72216219 13.27286716 2.23967783 15.94577681 5 20 C1.40653943 19.75499132 -0.55416683 19.363706 -3.375 17.0625 C-5.67356968 12.73058022 -5.98049834 8.8052522 -5 4 C-2.5 1.375 -2.5 1.375 0 0 Z " fill="#281C7D" transform="translate(923,538)"/>
<path d="M0 0 C0.33 0 0.66 0 1 0 C1.03738281 1.02480469 1.07476563 2.04960938 1.11328125 3.10546875 C1.17897079 4.46618062 1.24541709 5.82685611 1.3125 7.1875 C1.33505859 7.86103516 1.35761719 8.53457031 1.38085938 9.22851562 C1.61595554 13.60985323 2.42442686 16.44391376 5 20 C2.75 20.3125 2.75 20.3125 0 20 C-2.56722976 17.84907777 -3.8074675 16.18300524 -4.3515625 12.83984375 C-4.52672334 8.07069176 -4.02325921 4.86977179 -1 1 C-0.67 0.67 -0.34 0.34 0 0 Z " fill="#281C7D" transform="translate(894,588)"/>
<path d="M0 0 C3.84667969 0.78076172 3.84667969 0.78076172 5.2265625 2.75390625 C6.61689195 6.79147914 6.58423756 10.79484826 6 15 C4 18.125 4 18.125 2 20 C1.01 19.67 0.02 19.34 -1 19 C-0.67 18.34 -0.34 17.68 0 17 C0.07194869 14.11629667 0.09291708 11.25760336 0.0625 8.375 C0.05798828 7.57320312 0.05347656 6.77140625 0.04882812 5.9453125 C0.03703168 3.96350994 0.01909605 1.98174567 0 0 Z " fill="#25197B" transform="translate(906,587)"/>
<path d="M0 0 C0.25 7.625 0.25 7.625 -2 11 C-4.5 11.3125 -4.5 11.3125 -7 11 C-9 9 -9 9 -9.4375 6.5625 C-9 4 -9 4 -6.625 2.25 C-5.75875 1.8375 -4.8925 1.425 -4 1 C-2 0 -2 0 0 0 Z " fill="#E6E5F0" transform="translate(913,495)"/>
<path d="M0 0 C0 3.3 0 6.6 0 10 C-2.31 10.33 -4.62 10.66 -7 11 C-7.33 8.69 -7.66 6.38 -8 4 C-2.95652174 0 -2.95652174 0 0 0 Z " fill="#EEEEF5" transform="translate(752,495)"/>
<path d="M0 0 C3.0625 0.1875 3.0625 0.1875 5.0625 2.1875 C5.0625 3.8375 5.0625 5.4875 5.0625 7.1875 C1.7625 7.1875 -1.5375 7.1875 -4.9375 7.1875 C-3.9041362 0.24920018 -3.9041362 0.24920018 0 0 Z " fill="#EBEAF2" transform="translate(880.9375,536.8125)"/>
<path d="M0 0 C1.32 0 2.64 0 4 0 C4 2.97 4 5.94 4 9 C4.99 9 5.98 9 7 9 C7 9.99 7 10.98 7 12 C3.77060081 12.35882213 2.38790237 12.27258004 -0.3125 10.375 C-2.4591452 7.35379564 -2.47383353 5.63272373 -2 2 C-1.34 1.34 -0.68 0.68 0 0 Z " fill="#281C7D" transform="translate(741,497)"/>
<path d="M0 0 C2.375 0.75 2.375 0.75 3.375 1.75 C3.41580783 3.74958364 3.41754356 5.75045254 3.375 7.75 C0.405 7.75 -2.565 7.75 -5.625 7.75 C-5.85232116 4.94637237 -5.96581872 3.28813483 -4.4375 0.875 C-2.625 -0.25 -2.625 -0.25 0 0 Z " fill="#ECEBF3" transform="translate(814.625,486.25)"/>
<path d="M0 0 C2.97 0 5.94 0 9 0 C9 0.66 9 1.32 9 2 C8.39671875 2.54140625 7.7934375 3.0828125 7.171875 3.640625 C4.3854245 6.66763238 3.40915926 9.8934261 2.25 13.75 C2.02957031 14.44738281 1.80914063 15.14476562 1.58203125 15.86328125 C1.04364258 17.57208008 0.52028943 19.28560368 0 21 C-0.33 20.34 -0.66 19.68 -1 19 C-1.66 19 -2.32 19 -3 19 C-3 18.34 -3 17.68 -3 17 C-2.34 17 -1.68 17 -1 17 C-0.87882813 16.41992188 -0.75765625 15.83984375 -0.6328125 15.2421875 C0.33735474 10.71971558 1.43397783 6.36249034 3 2 C2.01 2 1.02 2 0 2 C0 1.34 0 0.68 0 0 Z " fill="#4B4192" transform="translate(976,585)"/>
<path d="M0 0 C0.66 0.33 1.32 0.66 2 1 C1.99214478 1.97610229 1.99214478 1.97610229 1.98413086 2.97192383 C1.96335062 5.91877274 1.9503365 8.86560623 1.9375 11.8125 C1.92912109 12.83666016 1.92074219 13.86082031 1.91210938 14.91601562 C1.90888672 15.89892578 1.90566406 16.88183594 1.90234375 17.89453125 C1.89710693 18.80050049 1.89187012 19.70646973 1.88647461 20.63989258 C1.90079019 23.15284039 1.90079019 23.15284039 3 26 C5.01508358 26.73323796 5.01508358 26.73323796 7 27 C7 27.66 7 28.32 7 29 C3.04 29 -0.92 29 -5 29 C-5 28.34 -5 27.68 -5 27 C-3.68 26.67 -2.36 26.34 -1 26 C-0.67 17.42 -0.34 8.84 0 0 Z " fill="#22167A" transform="translate(861,479)"/>
<path d="M0 0 C2.86724686 0.57344937 3.8614515 0.8614515 6 3 C6 4.98 6 6.96 6 9 C1.38 9 -3.24 9 -8 9 C-8 8.67 -8 8.34 -8 8 C-5.03 8 -2.06 8 1 8 C0.67 5.36 0.34 2.72 0 0 Z " fill="#211579" transform="translate(817,486)"/>
<path d="M0 0 C1.58246707 -0.08153933 3.16616273 -0.13943557 4.75 -0.1875 C6.07257812 -0.23970703 6.07257812 -0.23970703 7.421875 -0.29296875 C10.44671583 0.05076316 11.75583602 1.00227459 14 3 C13.67 4.32 13.34 5.64 13 7 C11.125 6.6875 11.125 6.6875 9 6 C8.34 5.01 7.68 4.02 7 3 C3.44327821 1.7811879 3.44327821 1.7811879 0 1 C0 0.67 0 0.34 0 0 Z " fill="#40368C" transform="translate(837,585)"/>
<path d="M0 0 C0.66 0.99 1.32 1.98 2 3 C1.15931158 6.66845855 0.29596833 9.92476068 -3 12 C-5.6875 11.6875 -5.6875 11.6875 -8 11 C-8 9.68 -8 8.36 -8 7 C-6.02 7 -4.04 7 -2 7 C-1.34 4.69 -0.68 2.38 0 0 Z " fill="#382D87" transform="translate(971,608)"/>
<path d="M0 0 C0.33 1.32 0.66 2.64 1 4 C-1.38564077 3.42415568 -3.66682784 2.77772405 -6 2 C-6.33 4.97 -6.66 7.94 -7 11 C-7.33 11 -7.66 11 -8 11 C-8.33 8.69 -8.66 6.38 -9 4 C-9.66 4.99 -10.32 5.98 -11 7 C-10.67694236 4.01171686 -10.34810879 2.38678755 -8.3125 0.125 C-5.21105827 -1.38380949 -3.27921467 -0.81980367 0 0 Z " fill="#342984" transform="translate(919,524)"/>
<path d="M0 0 C2.0245738 1.93254772 3.42105792 3.63158688 5 6 C7.80561762 6.28056176 9.46578263 6.26710868 12 5 C12.33 5.99 12.66 6.98 13 8 C9.97562661 9.5121867 7.33758466 9.17263369 4 9 C1.5625 8 1.5625 8 0 7 C0 4.69 0 2.38 0 0 Z " fill="#42388D" transform="translate(770,550)"/>
<path d="M0 0 C1.60379341 -0.05416188 3.20811406 -0.09286638 4.8125 -0.125 C5.70582031 -0.14820313 6.59914063 -0.17140625 7.51953125 -0.1953125 C10 0 10 0 13 2 C12.67 3.65 12.34 5.3 12 7 C9 6 9 6 7 3 C3.44327821 1.7811879 3.44327821 1.7811879 0 1 C0 0.67 0 0.34 0 0 Z " fill="#392E87" transform="translate(945,585)"/>
<path d="M0 0 C2.29293284 3.43939927 2.27019638 4.82562681 2.25 8.875 C2.25515625 9.90367187 2.2603125 10.93234375 2.265625 11.9921875 C1.99679588 15.036282 1.28164154 17.2434535 0 20 C-2.97 20 -5.94 20 -9 20 C-6 18 -6 18 -3.375 17 C-0.84860062 16.23952738 -0.84860062 16.23952738 0 14 C0.07116382 11.62597499 0.08409085 9.24999323 0.0625 6.875 C0.05347656 5.59367188 0.04445313 4.31234375 0.03515625 2.9921875 C0.02355469 2.00476563 0.01195312 1.01734375 0 0 Z " fill="#6E66A7" transform="translate(905,589)"/>
<path d="M0 0 C4.875 0.875 4.875 0.875 6 2 C6.04092937 4.33297433 6.04241723 6.66705225 6 9 C4.68 9 3.36 9 2 9 C1.34 6.03 0.68 3.06 0 0 Z " fill="#201478" transform="translate(884,536)"/>
<path d="M0 0 C0.9075 0.00257813 1.815 0.00515625 2.75 0.0078125 C4.11125 0.00394531 4.11125 0.00394531 5.5 0 C7.75 0.1328125 7.75 0.1328125 8.75 1.1328125 C8.79080783 3.13239614 8.79254356 5.13326504 8.75 7.1328125 C6.75 6.1328125 6.75 6.1328125 5.75 3.1328125 C3.8628125 3.0709375 3.8628125 3.0709375 1.9375 3.0078125 C1.22980469 2.98460937 0.52210938 2.96140625 -0.20703125 2.9375 C-2.56359719 3.00026788 -2.56359719 3.00026788 -5.25 5.1328125 C-2.84771705 0.16809441 -2.84771705 0.16809441 0 0 Z " fill="#3C3189" transform="translate(832.25,484.8671875)"/>
<path d="M0 0 C0.66 0.66 1.32 1.32 2 2 C2.99 1.34 3.98 0.68 5 0 C7.6875 0.375 7.6875 0.375 10 1 C9.67 2.32 9.34 3.64 9 5 C6.36 5 3.72 5 1 5 C0.67 3.35 0.34 1.7 0 0 Z " fill="#342984" transform="translate(949,535)"/>
<path d="M0 0 C0.86625 0.3403125 0.86625 0.3403125 1.75 0.6875 C1.42 2.3375 1.09 3.9875 0.75 5.6875 C-1.89 5.0275 -4.53 4.3675 -7.25 3.6875 C-6.92 2.6975 -6.59 1.7075 -6.25 0.6875 C-6.25 1.3475 -6.25 2.0075 -6.25 2.6875 C-5.6725 2.171875 -5.095 1.65625 -4.5 1.125 C-2.25 -0.3125 -2.25 -0.3125 0 0 Z " fill="#453B8F" transform="translate(937.25,484.3125)"/>
<path d="M0 0 C0.66 0 1.32 0 2 0 C0.54600704 3.83325416 -1.3080115 5.28279605 -5 7 C-7.8125 7.1875 -7.8125 7.1875 -10 7 C-10 6.01 -10 5.02 -10 4 C-8.906875 3.896875 -7.81375 3.79375 -6.6875 3.6875 C-3.01463192 3.00272798 -2.24762314 2.72080696 0 0 Z " fill="#392E87" transform="translate(849,602)"/>
<path d="M0 0 C1.64574566 -0.02688151 3.29161413 -0.04634123 4.9375 -0.0625 C5.85402344 -0.07410156 6.77054688 -0.08570313 7.71484375 -0.09765625 C10 0 10 0 11 1 C11.04080783 2.99958364 11.04254356 5.00045254 11 7 C10.34 7 9.68 7 9 7 C8.814375 6.38125 8.62875 5.7625 8.4375 5.125 C6.28562767 1.94397134 3.62466237 1.80548053 0 1 C0 0.67 0 0.34 0 0 Z " fill="#3D338A" transform="translate(774,535)"/>
<path d="M0 0 C1.65 0.33 3.3 0.66 5 1 C4.67 2.65 4.34 4.3 4 6 C2.35 5.67 0.7 5.34 -1 5 C-0.67 3.35 -0.34 1.7 0 0 Z " fill="#3A3088" transform="translate(807,525)"/>
<path d="M0 0 C2.97 0 5.94 0 9 0 C9 0.66 9 1.32 9 2 C7.04072937 3.7143618 5.04119788 5.38405168 3 7 C3 5.35 3 3.7 3 2 C2.01 2 1.02 2 0 2 C0 1.34 0 0.68 0 0 Z " fill="#3B3089" transform="translate(976,585)"/>
<path d="M0 0 C2.0625 0.4375 2.0625 0.4375 4 1 C3.67 2.65 3.34 4.3 3 6 C1.35 5.67 -0.3 5.34 -2 5 C-1.125 1.125 -1.125 1.125 0 0 Z " fill="#332884" transform="translate(931,575)"/>
<path d="M0 0 C2.0625 0.4375 2.0625 0.4375 4 1 C3.67 2.65 3.34 4.3 3 6 C1.35 5.67 -0.3 5.34 -2 5 C-1.125 1.125 -1.125 1.125 0 0 Z " fill="#342984" transform="translate(823,575)"/>
<path d="M0 0 C1.11346788 2.80033839 1.03510273 3.90143703 0.00390625 6.796875 C-0.47175781 7.77140625 -0.94742188 8.7459375 -1.4375 9.75 C-1.91058594 10.73484375 -2.38367188 11.7196875 -2.87109375 12.734375 C-3.24363281 13.48203125 -3.61617187 14.2296875 -4 15 C-4.66 14.67 -5.32 14.34 -6 14 C-4.50829734 9.0276578 -2.39542583 4.58154261 0 0 Z " fill="#362B85" transform="translate(885,482)"/>
<path d="M0 0 C0.99 0.33 1.98 0.66 3 1 C2.01 2.98 1.02 4.96 0 7 C-1.32 6.67 -2.64 6.34 -4 6 C-3.6875 4.125 -3.6875 4.125 -3 2 C-2.01 1.34 -1.02 0.68 0 0 Z " fill="#2A1E7E" transform="translate(904,485)"/>
<path d="M0 0 C-2.57455698 2.57455698 -4.47595722 2.41265954 -8 3 C-8.66 3.66 -9.32 4.32 -10 5 C-12.125 4.625 -12.125 4.625 -14 4 C-9.57391359 -0.5688634 -5.97980322 -0.46900417 0 0 Z " fill="#372D86" transform="translate(886,535)"/>
<path d="M0 0 C0.66 0 1.32 0 2 0 C0.60478153 3.37177797 -0.76282761 5.25017709 -4 7 C-7.75 7.1875 -7.75 7.1875 -11 7 C-8.45316295 3.88719916 -5.75704438 3.19905672 -2 2 C-1.34 1.34 -0.68 0.68 0 0 Z " fill="#4B4293" transform="translate(821,502)"/>
<path d="M0 0 C0.66 0.33 1.32 0.66 2 1 C-0.81865285 5.22797927 -0.81865285 5.22797927 -3 7 C-5.85646479 7.53855713 -8.06501905 7.29847264 -11 7 C-8.13017926 4.66162754 -5.42632591 3.35249707 -2 2 C-1.34 1.34 -0.68 0.68 0 0 Z " fill="#4F4695" transform="translate(957,602)"/>
<path d="M0 0 C0 0.33 0 0.66 0 1 C-0.61488281 1.19335938 -1.22976563 1.38671875 -1.86328125 1.5859375 C-3.07564453 1.97652344 -3.07564453 1.97652344 -4.3125 2.375 C-5.51326172 2.75785156 -5.51326172 2.75785156 -6.73828125 3.1484375 C-9.22724528 3.98831811 -9.22724528 3.98831811 -12 6 C-9.63080135 -0.92534991 -6.93648635 -1.30877101 0 0 Z " fill="#392E87" transform="translate(931,536)"/>
<path d="M0 0 C1.98 0.495 1.98 0.495 4 1 C3.67 2.65 3.34 4.3 3 6 C1.68 5.67 0.36 5.34 -1 5 C-0.67 3.35 -0.34 1.7 0 0 Z " fill="#261B7C" transform="translate(961,475)"/>
<path d="M0 0 C1.125 3.75 1.125 3.75 0 6 C-2.97 6 -5.94 6 -9 6 C-7 4 -7 4 -3.9375 3 C-0.87849194 2.34247444 -0.87849194 2.34247444 0 0 Z " fill="#564D99" transform="translate(797,603)"/>
<path d="M0 0 C0.99 0 1.98 0 3 0 C2.67 1.65 2.34 3.3 2 5 C0.68 5.33 -0.64 5.66 -2 6 C-1.125 1.125 -1.125 1.125 0 0 Z " fill="#221679" transform="translate(742,486)"/>
<path d="M0 0 C0.66 0 1.32 0 2 0 C1.8125 1.875 1.8125 1.875 1 4 C-1.3125 5.375 -1.3125 5.375 -4 6 C-6.3125 5.125 -6.3125 5.125 -8 4 C-6.865625 3.71125 -5.73125 3.4225 -4.5625 3.125 C-3.386875 2.75375 -2.21125 2.3825 -1 2 C-0.67 1.34 -0.34 0.68 0 0 Z " fill="#3A3088" transform="translate(888,552)"/>
<path d="M0 0 C3.01327566 1.50663783 3.61056618 4.03166411 5 7 C4.01 7.33 3.02 7.66 2 8 C1.34 7.67 0.68 7.34 0 7 C0 4.69 0 2.38 0 0 Z " fill="#2F2481" transform="translate(827,500)"/>
</svg>
