<?xml version="1.0" encoding="UTF-8"?>
<svg version="1.1" xmlns="http://www.w3.org/2000/svg" width="1080" height="1080">
<path d="M0 0 C356.4 0 712.8 0 1080 0 C1080 356.4 1080 712.8 1080 1080 C723.6 1080 367.2 1080 0 1080 C0 723.6 0 367.2 0 0 Z " fill="#FEFEFE" transform="translate(0,0)"/>
<path d="M0 0 C13.37395721 11.64320981 21.07649258 27.04620141 22.40234375 44.66796875 C23.01331942 63.16831199 16.3201943 79.23458771 4.1875 92.8125 C-7.51267043 104.37616844 -22.74509502 109.6490574 -37.88037109 115.09667969 C-50.93235213 119.84716992 -62.36863054 125.45892461 -72.8125 134.8125 C-73.74449219 135.58787109 -73.74449219 135.58787109 -74.6953125 136.37890625 C-83.64911571 144.38914724 -88.87412332 156.4681512 -91.54296875 167.95703125 C-91.79691406 169.04371094 -92.05085938 170.13039063 -92.3125 171.25 C-92.63734375 172.76400391 -92.63734375 172.76400391 -92.96875 174.30859375 C-93.8125 176.8125 -93.8125 176.8125 -96.8125 178.8125 C-99.375 178.625 -99.375 178.625 -101.8125 177.8125 C-104.05101304 174.45473044 -104.06640909 173.35255991 -104.07992554 169.42755127 C-104.08845551 168.30919388 -104.09698547 167.19083649 -104.10577393 166.03858948 C-104.10486755 164.81059128 -104.10396118 163.58259308 -104.10302734 162.31738281 C-104.10974457 161.0243071 -104.11646179 159.73123138 -104.12338257 158.39897156 C-104.1410737 154.84658359 -104.14573975 151.29429196 -104.14701414 147.7418642 C-104.14843661 145.51702438 -104.15270841 143.29220895 -104.15800858 141.06737518 C-104.17653179 133.2888789 -104.18467791 125.51045119 -104.18310547 117.73193359 C-104.18190924 110.51172235 -104.20290289 103.29181257 -104.2345928 96.07167745 C-104.26089395 89.85485931 -104.27146674 83.6381386 -104.27019465 77.42126536 C-104.26968828 73.71680421 -104.27518681 70.01260982 -104.29655075 66.30820465 C-104.43000955 41.41999034 -102.65986091 21.78950985 -84.89453125 2.7578125 C-61.25907714 -20.03510197 -25.40864022 -19.55329715 0 0 Z " fill="#F26523" transform="translate(157.8125,458.1875)"/>
<path d="M0 0 C8.91547308 6.3020597 15.14322228 15.79551034 17.45703125 26.4609375 C18.86158355 39.71006489 16.4520935 51.63980727 8.30078125 62.3125 C1.16179052 70.6312392 -9.11650858 76.77345034 -20.171875 77.796875 C-34.38903914 77.93805836 -45.66663669 75.24605862 -56.54296875 65.4609375 C-66.16770389 55.294811 -68.1140054 43.76334835 -67.88671875 30.31640625 C-67.39842507 19.80791935 -62.08921301 10.74202267 -54.58203125 3.59375 C-38.76611751 -9.70988864 -17.54752633 -10.62016187 0 0 Z " fill="#F16725" transform="translate(647.54296875,559.5390625)"/>
<path d="M0 0 C0.88207626 -0.00287018 1.76415253 -0.00574036 2.67295837 -0.00869751 C4.54329061 -0.01074007 6.41364411 -0.00519683 8.28393555 0.00732422 C11.11752564 0.02324191 13.94966012 0.00755201 16.78320312 -0.01171875 C18.60547186 -0.00973374 20.42773969 -0.00588475 22.25 0 C23.08580093 -0.00607269 23.92160187 -0.01214539 24.7827301 -0.0184021 C34.46993959 0.09463531 42.24737947 2.41576038 49.23828125 9.24609375 C54.56418383 15.4371746 54.64241433 22.0855922 54.4296875 30.05859375 C53.63666296 37.85211082 50.00036719 42.11590051 44.0625 46.98828125 C41.84403006 48.57415778 39.71973647 49.65878017 37.08984375 50.3984375 C37.87359375 51.4503125 38.65734375 52.5021875 39.46484375 53.5859375 C40.00238281 54.30910156 40.53992188 55.03226562 41.09375 55.77734375 C42.59605332 57.75003559 44.12073054 59.68630822 45.6796875 61.61328125 C46.12844238 62.17571533 46.57719727 62.73814941 47.03955078 63.31762695 C47.93369854 64.43683341 48.83678375 65.54896976 49.74951172 66.65307617 C52.54206015 70.17526269 53.91222642 72.88188262 54.08984375 77.3984375 C52.52734375 80.2734375 52.52734375 80.2734375 50.08984375 82.3984375 C47.15234375 82.9609375 47.15234375 82.9609375 44.08984375 82.3984375 C40.03497091 79.5958048 37.17533361 76.20361192 34.27734375 72.2734375 C33.40986617 71.11772927 32.54136244 69.96279063 31.671875 68.80859375 C31.24213379 68.23641113 30.81239258 67.66422852 30.36962891 67.07470703 C27.83309699 63.75234378 25.15402127 60.54312617 22.48828125 57.32421875 C21.08984375 55.3984375 21.08984375 55.3984375 21.08984375 53.3984375 C14.81984375 53.3984375 8.54984375 53.3984375 2.08984375 53.3984375 C2.13625 55.15671875 2.18265625 56.915 2.23046875 58.7265625 C2.26798541 61.0338372 2.30438568 63.34113024 2.33984375 65.6484375 C2.37335938 66.80730469 2.406875 67.96617187 2.44140625 69.16015625 C2.45429688 70.27519531 2.4671875 71.39023437 2.48046875 72.5390625 C2.50141602 73.56547852 2.52236328 74.59189453 2.54394531 75.64941406 C1.96979241 79.12519991 0.84876503 80.27475318 -1.91015625 82.3984375 C-4.91015625 82.8984375 -4.91015625 82.8984375 -7.91015625 82.3984375 C-10.06629944 80.82289124 -10.06629944 80.82289124 -11.91015625 78.3984375 C-12.41136169 75.09031677 -12.41136169 75.09031677 -12.41186523 71.10717773 C-12.41726822 70.37989471 -12.4226712 69.65261169 -12.42823792 68.90328979 C-12.44072511 66.50412045 -12.42423719 64.10615109 -12.40625 61.70703125 C-12.40640497 60.0384159 -12.40789367 58.36980019 -12.41065979 56.70118713 C-12.41204371 53.20663513 -12.39948587 49.7124936 -12.37670898 46.21801758 C-12.34830209 41.73644831 -12.35106759 37.25555992 -12.3637991 32.77394009 C-12.37074975 29.32955599 -12.36297445 25.88532961 -12.35054207 22.44096565 C-12.34602312 20.78833686 -12.34569464 19.13569117 -12.34960747 17.48306084 C-12.35251431 15.17512085 -12.33604011 12.86812365 -12.31420898 10.56030273 C-12.308806 9.24666245 -12.30340302 7.93302216 -12.2978363 6.57957458 C-11.91015625 3.3984375 -11.91015625 3.3984375 -10.63150024 1.4750824 C-7.45480444 -0.5118379 -3.6372462 -0.02598664 0 0 Z " fill="#F16624" transform="translate(472.91015625,443.6015625)"/>
<path d="M0 0 C0.79566376 -0.00287018 1.59132751 -0.00574036 2.41110229 -0.00869751 C4.09731761 -0.01073926 5.78355654 -0.00520162 7.46972656 0.00732422 C10.02464345 0.02325022 12.57794764 0.00754647 15.1328125 -0.01171875 C27.12971225 -0.02827899 36.72970504 0.80344255 45.9296875 9.3984375 C51.66068018 16.78840174 52.79316194 23.2254233 51.9296875 32.3984375 C50.21528525 41.07400326 46.24788955 46.49150466 38.9296875 51.3984375 C30.85829545 55.6025927 22.417998 55.53527494 13.5546875 55.4609375 C12.53246094 55.45642578 11.51023438 55.45191406 10.45703125 55.44726562 C7.94785556 55.4355405 5.4388026 55.41912926 2.9296875 55.3984375 C2.95063477 56.07422852 2.97158203 56.75001953 2.99316406 57.44628906 C3.07640393 60.51352004 3.12837216 63.58051332 3.1796875 66.6484375 C3.22996094 68.24365234 3.22996094 68.24365234 3.28125 69.87109375 C3.29414063 70.89589844 3.30703125 71.92070313 3.3203125 72.9765625 C3.34125977 73.91918945 3.36220703 74.86181641 3.38378906 75.83300781 C2.79229548 79.17462855 1.56917979 80.3333178 -1.0703125 82.3984375 C-4.0703125 82.8984375 -4.0703125 82.8984375 -7.0703125 82.3984375 C-9.22645569 80.82289124 -9.22645569 80.82289124 -11.0703125 78.3984375 C-11.57151794 75.09031677 -11.57151794 75.09031677 -11.57202148 71.10717773 C-11.57742447 70.37989471 -11.58282745 69.65261169 -11.58839417 68.90328979 C-11.60088136 66.50412045 -11.58439344 64.10615109 -11.56640625 61.70703125 C-11.56656122 60.0384159 -11.56804992 58.36980019 -11.57081604 56.70118713 C-11.57219996 53.20663513 -11.55964212 49.7124936 -11.53686523 46.21801758 C-11.50845834 41.73644831 -11.51122384 37.25555992 -11.52395535 32.77394009 C-11.530906 29.32955599 -11.5231307 25.88532961 -11.51069832 22.44096565 C-11.50617937 20.78833686 -11.50585089 19.13569117 -11.50976372 17.48306084 C-11.51267056 15.17512085 -11.49619636 12.86812365 -11.47436523 10.56030273 C-11.46896225 9.24666245 -11.46355927 7.93302216 -11.45799255 6.57957458 C-11.0703125 3.3984375 -11.0703125 3.3984375 -9.7696991 1.4750824 C-6.80005944 -0.40633022 -3.40659978 -0.0270205 0 0 Z " fill="#F16624" transform="translate(231.0703125,443.6015625)"/>
<path d="M0 0 C9.65204557 1.76954169 15.03946933 11.79300199 20.47265625 19.23046875 C23.83159947 23.8272918 27.30803151 28.32606335 30.8125 32.8125 C31.34117676 33.49094971 31.86985352 34.16939941 32.41455078 34.8684082 C37.8409994 41.82273155 43.29828425 48.75298158 48.75 55.6875 C48.75364563 55.05745056 48.75729126 54.42740112 48.76104736 53.77825928 C48.80283712 47.22435536 48.87215799 40.67115405 48.95751953 34.11767578 C48.98575635 31.67145818 49.00695731 29.22514888 49.02099609 26.77880859 C49.04238731 23.26351886 49.08902038 19.74933488 49.140625 16.234375 C49.14246796 14.5919986 49.14246796 14.5919986 49.14434814 12.91644287 C49.16406677 11.89568665 49.1837854 10.87493042 49.20410156 9.82324219 C49.21742523 8.47755157 49.21742523 8.47755157 49.23101807 7.10467529 C49.92066323 3.89263044 51.16766969 2.66401938 53.75 0.6875 C57.11928679 0.74661029 59.58350735 0.92048176 62.43959045 2.79847717 C64.47452556 5.7319409 64.13951666 8.31517558 64.15405273 11.84936523 C64.16091599 12.57489594 64.16777924 13.30042664 64.17485046 14.04794312 C64.19315954 16.44752546 64.18927522 18.84645651 64.18359375 21.24609375 C64.18815377 22.91374424 64.19345881 24.58139284 64.19947815 26.2490387 C64.20841742 29.74528636 64.20597714 33.24130571 64.19604492 36.73754883 C64.18455707 41.21801448 64.2047592 45.6976918 64.23396206 50.17805386 C64.2523093 53.6224722 64.25203454 57.06670114 64.24632454 60.51115608 C64.24617113 62.16297575 64.25223199 63.81480809 64.26461601 65.46658134 C64.27949619 67.77697031 64.26887252 70.08589701 64.25170898 72.39624023 C64.25154282 73.71067612 64.25137665 75.025112 64.25120544 76.37937927 C63.6690874 80.22154979 62.83960509 81.40625697 59.75 83.6875 C56.9375 84.3125 56.9375 84.3125 53.75 83.6875 C48.55250547 80.15727172 44.80200396 75.49653841 41.1875 70.4375 C40.14480642 69.01316694 39.10047007 67.59003534 38.0546875 66.16796875 C37.51553711 65.43239746 36.97638672 64.69682617 36.42089844 63.93896484 C33.11642437 59.48632606 29.68113806 55.13484455 26.26147461 50.77050781 C20.02433603 42.79412141 13.89308808 34.73637316 7.75 26.6875 C7.74635437 27.3278569 7.74270874 27.96821381 7.73895264 28.62797546 C7.69712802 35.29556513 7.62778228 41.96246642 7.54248047 48.62963867 C7.51426248 51.11752435 7.49305213 53.60549982 7.47900391 56.09350586 C7.45758679 59.67087807 7.4109398 63.24716973 7.359375 66.82421875 C7.35814636 67.93584885 7.35691772 69.04747894 7.35565186 70.1927948 C7.20979306 77.8908691 7.20979306 77.8908691 4.89941406 81.89379883 C2.75 83.6875 2.75 83.6875 -0.25 84.25 C-3.98103854 83.55043027 -4.96180741 82.68851008 -7.25 79.6875 C-7.75793457 76.3861084 -7.75793457 76.3861084 -7.76757812 72.41210938 C-7.7745874 71.68643265 -7.78159668 70.96075592 -7.78881836 70.21308899 C-7.80639717 67.81875127 -7.79477706 65.42559934 -7.78125 63.03125 C-7.78394497 61.36502862 -7.78782744 59.69880877 -7.79284668 58.03259277 C-7.79874153 54.54224662 -7.7901795 51.05231021 -7.77148438 47.56201172 C-7.74869445 43.08938737 -7.76181766 38.6177231 -7.78577423 34.14513397 C-7.80023277 30.70498427 -7.79562605 27.26506197 -7.78526306 23.8249054 C-7.78259591 22.1758869 -7.78586515 20.52684773 -7.79518127 18.87785339 C-7.80534829 16.57231008 -7.78984614 14.26831843 -7.76757812 11.96289062 C-7.76439575 10.65147095 -7.76121338 9.34005127 -7.75793457 7.9888916 C-7.25 4.6875 -7.25 4.6875 -5.42077637 2.27575684 C-3.25 0.6875 -3.25 0.6875 0 0 Z " fill="#F16624" transform="translate(378.25,442.3125)"/>
<path d="M0 0 C3.01077043 1.0472245 4.05435215 1.44930091 5.875 4 C6.26268005 7.18113708 6.26268005 7.18113708 6.27905273 11.16186523 C6.28591599 11.88739594 6.29277924 12.61292664 6.29985046 13.36044312 C6.31815954 15.76002546 6.31427522 18.15895651 6.30859375 20.55859375 C6.31315377 22.22624424 6.31845881 23.89389284 6.32447815 25.5615387 C6.33341742 29.05778636 6.33097714 32.55380571 6.32104492 36.05004883 C6.30955707 40.53051448 6.3297592 45.0101918 6.35896206 49.49055386 C6.3773093 52.9349722 6.37703454 56.37920114 6.37132454 59.82365608 C6.37117113 61.47547575 6.37723199 63.12730809 6.38961601 64.77908134 C6.40449619 67.08947031 6.39387252 69.39839701 6.37670898 71.70874023 C6.37654282 73.02317612 6.37637665 74.337612 6.37620544 75.69187927 C5.7940874 79.53404979 4.96460509 80.71875697 1.875 83 C-0.9375 83.625 -0.9375 83.625 -4.125 83 C-9.39296205 79.43347694 -13.15731023 74.68480732 -16.8125 69.5625 C-17.85595577 68.13516859 -18.90158502 66.70942395 -19.94921875 65.28515625 C-20.47563965 64.56859863 -21.00206055 63.85204102 -21.54443359 63.11376953 C-23.99009468 59.84306615 -26.55260666 56.67135126 -29.125 53.5 C-34.89387955 46.36555867 -40.40949787 39.05455703 -45.87329102 31.68481445 C-47.28449202 29.78532193 -48.70472266 27.89271234 -50.125 26 C-50.12864563 26.65510559 -50.13229126 27.31021118 -50.13604736 27.98516846 C-50.17783113 34.79857971 -50.24714798 41.61131475 -50.33251953 48.42431641 C-50.36075956 50.96754191 -50.3819589 53.51085567 -50.39599609 56.05419922 C-50.41738277 59.70846853 -50.46401391 63.36167314 -50.515625 67.015625 C-50.51746796 68.72362274 -50.51746796 68.72362274 -50.51934814 70.46612549 C-50.54892609 72.05732208 -50.54892609 72.05732208 -50.57910156 73.68066406 C-50.58798401 74.61332092 -50.59686646 75.54597778 -50.60601807 76.50689697 C-51.28306152 79.75930129 -52.54643216 80.96578105 -55.125 83 C-58.125 83.5 -58.125 83.5 -61.125 83 C-64.20107954 80.74263371 -65.04069266 79.54893842 -65.62620544 75.73657227 C-65.62637161 74.44291748 -65.62653778 73.1492627 -65.62670898 71.81640625 C-65.63481346 70.74252151 -65.63481346 70.74252151 -65.64308167 69.64694214 C-65.65556914 67.28503834 -65.63907924 64.92435354 -65.62109375 62.5625 C-65.62124874 60.91870052 -65.62273771 59.27490067 -65.62550354 57.63110352 C-65.62688753 54.18782373 -65.61432983 50.74496049 -65.59155273 47.30175781 C-65.56316782 42.88978577 -65.56590528 38.4785058 -65.57864285 34.06648254 C-65.58560037 30.67266944 -65.57780995 27.27901609 -65.56538582 23.88522339 C-65.56087202 22.25854098 -65.5605339 20.63184142 -65.56445122 19.00515747 C-65.56736424 16.73094578 -65.55085348 14.4576852 -65.52905273 12.18359375 C-65.52364975 10.88993896 -65.51824677 9.59628418 -65.51268005 8.26342773 C-65.10348829 4.81891796 -64.56095541 3.41690881 -62.125 1 C-58.63501908 -0.19692486 -55.65427281 0.00337856 -52.125 1 C-48.47696919 3.83803399 -45.87188128 7.30675503 -43.125 11 C-42.39539063 11.95003906 -41.66578125 12.90007813 -40.9140625 13.87890625 C-39.40231556 15.87069914 -37.90535762 17.8737863 -36.421875 19.88671875 C-29.97010999 28.63171316 -23.22784492 37.16731994 -16.5625 45.75 C-15.94221924 46.54937988 -15.32193848 47.34875977 -14.68286133 48.17236328 C-14.10560303 48.91470215 -13.52834473 49.65704102 -12.93359375 50.421875 C-12.15713501 51.42105957 -12.15713501 51.42105957 -11.36499023 52.44042969 C-10.21312345 53.94968225 -10.21312345 53.94968225 -9.125 55 C-9.12357498 54.38469925 -9.12214996 53.7693985 -9.12068176 53.13545227 C-9.10098484 46.72730007 -9.0467112 40.32010042 -8.97241211 33.91235352 C-8.94922486 31.52147253 -8.93483472 29.1304893 -8.92944336 26.73950195 C-8.92015962 23.3009463 -8.87917832 19.86400056 -8.83203125 16.42578125 C-8.83793022 14.82395744 -8.83793022 14.82395744 -8.84394836 13.18977356 C-8.69858919 5.78487701 -8.69858919 5.78487701 -5.77612305 1.78588867 C-3.125 0 -3.125 0 0 0 Z " fill="#F16624" transform="translate(828.125,553)"/>
<path d="M0 0 C1.60670311 -0.00911659 1.60670311 -0.00911659 3.24586487 -0.01841736 C4.39699265 0.00111496 5.54812042 0.02064728 6.73413086 0.04077148 C7.91994247 0.04310287 9.10575409 0.04543427 10.32749939 0.0478363 C12.83331499 0.05757725 15.33910844 0.07937196 17.84472656 0.11230469 C21.68774881 0.16172089 25.52949145 0.17378528 29.37280273 0.17944336 C31.80575911 0.19352868 34.23870434 0.20973283 36.67163086 0.22827148 C37.82478287 0.23363419 38.97793488 0.23899689 40.16603088 0.24452209 C41.23401413 0.26050949 42.30199738 0.27649689 43.40234375 0.29296875 C44.81321007 0.30892845 44.81321007 0.30892845 46.25257874 0.32521057 C48.63647461 0.59936523 48.63647461 0.59936523 51.63647461 2.59936523 C51.99975586 4.47436523 51.99975586 4.47436523 51.94897461 6.59936523 C51.94510742 7.30061523 51.94124023 8.00186523 51.93725586 8.72436523 C51.63647461 10.59936523 51.63647461 10.59936523 49.63647461 12.59936523 C47.72555542 12.83987427 47.72555542 12.83987427 45.37036133 12.82641602 C44.4895993 12.82626495 43.60883728 12.82611389 42.7013855 12.82595825 C41.74926178 12.81563568 40.79713806 12.80531311 39.81616211 12.79467773 C38.35546799 12.79043289 38.35546799 12.79043289 36.86526489 12.78610229 C33.74721112 12.77488436 30.62944193 12.74977693 27.51147461 12.72436523 C25.40080167 12.71433752 23.29012423 12.70521131 21.17944336 12.69702148 C15.99825525 12.67663916 10.81768443 12.63749352 5.63647461 12.59936523 C5.63647461 19.85936523 5.63647461 27.11936523 5.63647461 34.59936523 C8.34479492 34.56456055 11.05311523 34.52975586 13.84350586 34.49389648 C16.46467026 34.47050466 19.08582307 34.45228597 21.70703125 34.43457031 C23.52967528 34.41947763 25.35228297 34.39900128 27.17480469 34.37304688 C29.79362961 34.33668421 32.41197468 34.31964399 35.03100586 34.30639648 C35.84672562 34.29091263 36.66244537 34.27542877 37.50288391 34.25947571 C43.19931679 34.25777858 43.19931679 34.25777858 45.34843445 35.9370575 C46.63647461 37.59936523 46.63647461 37.59936523 47.07397461 40.53686523 C46.63647461 43.59936523 46.63647461 43.59936523 45.1394043 45.76635742 C41.60514849 48.35465167 38.35911151 48.10011581 34.15209961 47.98999023 C32.9287088 47.98150055 32.9287088 47.98150055 31.68060303 47.97283936 C29.08195689 47.95049251 26.48470219 47.90030145 23.88647461 47.84936523 C22.12217164 47.82929795 20.35784701 47.81104757 18.59350586 47.79467773 C14.2735314 47.75403828 9.95655565 47.67575174 5.63647461 47.59936523 C5.63647461 54.52936523 5.63647461 61.45936523 5.63647461 68.59936523 C8.6103418 68.55295898 11.58420898 68.50655273 14.64819336 68.45874023 C17.53416233 68.42752924 20.42011238 68.40325022 23.30615234 68.37963867 C25.30916789 68.35954532 27.31212493 68.33226558 29.31494141 68.29760742 C32.19700569 68.24898912 35.07829327 68.22637372 37.96069336 68.20874023 C38.85358566 68.18809509 39.74647797 68.16744995 40.66642761 68.1461792 C44.82270934 68.14468518 47.07033694 68.26172431 50.70996094 70.43237305 C52.63647461 72.59936523 52.63647461 72.59936523 53.13647461 75.66186523 C52.57974857 78.93263069 52.23538737 79.66253459 49.63647461 81.59936523 C47.21461487 81.99377441 47.21461487 81.99377441 44.31054688 82.01928711 C43.22254288 82.03519897 42.13453888 82.05111084 41.01356506 82.06750488 C39.83853928 82.0677063 38.66351349 82.06790771 37.45288086 82.06811523 C36.24582993 82.07572876 35.03877899 82.08334229 33.79515076 82.09118652 C31.24057079 82.10199987 28.68594656 82.10483566 26.13134766 82.1003418 C22.21759472 82.09936986 18.3058035 82.14097421 14.39233398 82.18530273 C11.91252038 82.19050971 9.43269993 82.19319793 6.95288086 82.19311523 C5.19337852 82.21770813 5.19337852 82.21770813 3.39833069 82.24279785 C1.76159645 82.22883972 1.76159645 82.22883972 0.09179688 82.21459961 C-0.86734116 82.21665405 -1.82647919 82.2187085 -2.81468201 82.2208252 C-5.36352539 81.59936523 -5.36352539 81.59936523 -7.6721344 79.4987793 C-9.74902497 75.93853465 -9.87051413 73.70339214 -9.88110352 69.59350586 C-9.88811279 68.90830368 -9.89512207 68.2231015 -9.90234375 67.51713562 C-9.91988085 65.26287742 -9.90831771 63.00988513 -9.89477539 60.75561523 C-9.89747157 59.18289958 -9.90135505 57.61018555 -9.90637207 56.03747559 C-9.91226126 52.74560636 -9.90372333 49.45417207 -9.88500977 46.16235352 C-9.86221999 41.94878773 -9.87534626 37.73624112 -9.89929962 33.52271271 C-9.91377361 30.2763912 -9.9091444 27.03031019 -9.89878845 23.78398132 C-9.89612556 22.23068622 -9.89937554 20.67736909 -9.90870667 19.12409973 C-9.91889939 16.9505555 -9.90333655 14.77864738 -9.88110352 12.60522461 C-9.87792114 11.37010132 -9.87473877 10.13497803 -9.87145996 8.86242676 C-8.91612937 2.72521404 -6.18947399 -0.03333922 0 0 Z " fill="#F16826" transform="translate(304.363525390625,443.400634765625)"/>
<path d="M0 0 C4.57635661 1.24809726 4.57635661 1.24809726 6.4375 3.9375 C6.77807617 7.1237793 6.77807617 7.1237793 6.73046875 11.01171875 C6.72297607 12.26299561 6.7154834 13.51427246 6.70776367 14.8034668 C6.68045166 16.39457275 6.65313965 17.98567871 6.625 19.625 C6.5321875 27.2046875 6.5321875 27.2046875 6.4375 34.9375 C19.3075 34.9375 32.1775 34.9375 45.4375 34.9375 C45.27944832 24.91509137 45.27944832 24.91509137 45.07714844 14.89355469 C45.0671582 13.64477539 45.05716797 12.39599609 45.046875 11.109375 C45.02592773 9.8315918 45.00498047 8.55380859 44.98339844 7.23730469 C45.4375 3.9375 45.4375 3.9375 47.27441406 1.51660156 C50.19942501 -0.61872246 51.89043715 -0.57978 55.4375 -0.0625 C57.59265137 1.01148987 57.59265137 1.01148987 59.4375 2.9375 C59.84121761 5.49611249 59.98496789 7.63079118 59.95507812 10.19116211 C59.9620874 10.92644638 59.96909668 11.66173065 59.97631836 12.41929626 C59.99393313 14.8515289 59.98226304 17.28259914 59.96875 19.71484375 C59.97144423 21.40491459 59.97532607 23.09498391 59.98034668 24.78504944 C59.98624665 28.32844794 59.97766408 31.87144327 59.95898438 35.41479492 C59.93621162 39.95582454 59.94930359 44.49590767 59.97327423 49.03690243 C59.98773381 52.52766541 59.98312526 56.01820432 59.97276306 59.50897408 C59.9700953 61.18311233 59.97336731 62.85727095 59.98268127 64.53138542 C59.992848 66.87295196 59.97734553 69.21299055 59.95507812 71.55444336 C59.96317505 72.24600525 59.97127197 72.93756714 59.97961426 73.65008545 C59.92109298 76.97396332 59.62601 78.68917864 57.59265137 81.36769104 C55.4375 82.9375 55.4375 82.9375 52.4375 83.4375 C48.6799904 82.8112484 47.72719246 81.95025324 45.4375 78.9375 C44.98339844 75.63769531 44.98339844 75.63769531 45.046875 71.765625 C45.05686523 70.5168457 45.06685547 69.26806641 45.07714844 67.98144531 C45.13177246 65.60844238 45.13177246 65.60844238 45.1875 63.1875 C45.31125 55.63875 45.31125 55.63875 45.4375 47.9375 C32.5675 47.9375 19.6975 47.9375 6.4375 47.9375 C6.59541325 57.58578317 6.59541325 57.58578317 6.79785156 67.2331543 C6.81283691 69.0416687 6.81283691 69.0416687 6.828125 70.88671875 C6.84907227 72.11737061 6.87001953 73.34802246 6.89160156 74.6159668 C6.35263236 78.55826573 5.27304542 80.19188553 2.4375 82.9375 C-0.5625 83.5 -0.5625 83.5 -3.5625 82.9375 C-6.65774717 80.66765208 -7.48025955 79.47203328 -8.07043457 75.6361084 C-8.07361694 74.32468872 -8.07679932 73.01326904 -8.08007812 71.66210938 C-8.0870874 70.93643265 -8.09409668 70.21075592 -8.10131836 69.46308899 C-8.11889717 67.06875127 -8.10727706 64.67559934 -8.09375 62.28125 C-8.09644497 60.61502862 -8.10032744 58.94880877 -8.10534668 57.28259277 C-8.11124153 53.79224662 -8.1026795 50.30231021 -8.08398438 46.81201172 C-8.06119445 42.33938737 -8.07431766 37.8677231 -8.09827423 33.39513397 C-8.11273277 29.95498427 -8.10812605 26.51506197 -8.09776306 23.0749054 C-8.09509591 21.4258869 -8.09836515 19.77684773 -8.10768127 18.12785339 C-8.11784829 15.82231008 -8.10234614 13.51831843 -8.08007812 11.21289062 C-8.07689575 9.90147095 -8.07371338 8.59005127 -8.07043457 7.2388916 C-7.5625 3.9375 -7.5625 3.9375 -5.75280762 1.47888184 C-3.5625 -0.0625 -3.5625 -0.0625 0 0 Z " fill="#F16623" transform="translate(652.5625,443.0625)"/>
<path d="M0 0 C2.93937253 1.02239045 3.99776846 1.60029962 5.875 4 C6.25354004 6.07777405 6.25354004 6.07777405 6.25976562 8.49633789 C6.26987671 9.40480972 6.27998779 10.31328156 6.29040527 11.24928284 C6.28738403 12.23049606 6.28436279 13.21170929 6.28125 14.22265625 C6.29208618 15.23790878 6.30292236 16.25316132 6.31408691 17.29917908 C6.34840775 20.55368343 6.36394035 23.80783842 6.375 27.0625 C6.38964951 31.32455104 6.42356 35.58583152 6.46875 39.84765625 C6.46572876 40.81469986 6.46270752 41.78174347 6.45959473 42.77809143 C6.54287304 50.44230918 7.43147551 58.29509733 12.3125 64.5 C16.82523191 68.90266527 19.94734124 69.29362976 26.25 69.3125 C27.53648437 69.32925781 28.82296875 69.34601563 30.1484375 69.36328125 C35.32305389 68.85883751 38.60144896 67.37968029 42.125 63.5625 C44.91196757 59.48158321 46.1251258 56.84570692 46.09863281 51.85180664 C46.09913635 50.82716812 46.09963989 49.8025296 46.10015869 48.74684143 C46.09288757 47.64573532 46.08561646 46.54462921 46.078125 45.41015625 C46.08867121 43.07616628 46.10042722 40.74218152 46.11328125 38.40820312 C46.12360853 34.72997138 46.12494554 31.05246686 46.10498047 27.37426758 C46.09023646 23.8231018 46.1126475 20.27370782 46.140625 16.72265625 C46.12525696 15.62357437 46.10988892 14.52449249 46.09405518 13.3921051 C46.1885 5.98910327 46.1885 5.98910327 48.14758301 3.16647339 C50.80021925 0.81525438 52.50913702 0.00717378 56.0625 -0.0625 C59.32299887 1.16924402 60.10333814 2.05845674 61.875 5 C62.25595093 7.31192017 62.25595093 7.31192017 62.26318359 9.88525391 C62.27264008 10.85371246 62.28209656 11.82217102 62.2918396 12.81997681 C62.28576691 13.86165009 62.27969421 14.90332336 62.2734375 15.9765625 C62.27630768 17.05698822 62.27917786 18.13741394 62.28213501 19.25057983 C62.2841765 21.53864058 62.27864074 23.82671874 62.26611328 26.11474609 C62.25015503 29.59122596 62.26591122 33.06652657 62.28515625 36.54296875 C62.283172 38.77083587 62.27932459 40.99870227 62.2734375 43.2265625 C62.27951019 44.25609039 62.28558289 45.28561829 62.2918396 46.34634399 C62.18743698 57.24724537 59.56537816 66.79910651 52.08984375 74.9453125 C43.58521894 83.02724224 32.96774009 84.43919489 21.5859375 84.34375 C13.82523572 83.62486394 6.11885434 80.32416403 0.40625 74.93359375 C-9.47520081 62.45574133 -8.39716525 48.486981 -8.47509766 33.4597168 C-8.49171259 31.10968155 -8.51907438 28.75969796 -8.55712891 26.40991211 C-8.61181116 23.01129109 -8.63375146 19.61384495 -8.6484375 16.21484375 C-8.67110687 15.16578354 -8.69377625 14.11672333 -8.71713257 13.03587341 C-8.69606477 5.78203784 -8.69606477 5.78203784 -5.78759766 1.79907227 C-3.125 0 -3.125 0 0 0 Z " fill="#F16827" transform="translate(684.125,553)"/>
<path d="M0 0 C8.33737001 4.33231563 13.17709032 11.24137234 16.08984375 20.0859375 C17.52620136 29.45540869 15.83241653 37.49146989 10.58203125 45.33984375 C5.69557153 51.51041962 -0.28913332 54.46476563 -7.91015625 56.0859375 C-16.52664798 56.66037028 -23.05884162 54.44783591 -29.91015625 49.0859375 C-36.82346376 42.45998018 -39.05419502 36.12439537 -39.34765625 26.6484375 C-39.14494512 17.77321552 -36.80549203 11.18399762 -30.72265625 4.66015625 C-21.95222173 -2.95726856 -10.73713746 -4.23272327 0 0 Z " fill="#FEFDFC" transform="translate(633.91015625,567.9140625)"/>
<path d="M0 0 C1.29067383 -0.0309375 1.29067383 -0.0309375 2.60742188 -0.0625 C10.88686034 -0.11241372 17.68015034 1.90628437 24.75 6.25 C25.57371094 6.745 26.39742188 7.24 27.24609375 7.75 C29.3125 9.25 29.3125 9.25 31.3125 12.25 C31.125 15.8125 31.125 15.8125 30.3125 19.25 C26.44712576 21.82691616 24.92405472 21.83559425 20.3125 21.25 C17.66625832 19.86701878 15.21562839 18.33150689 12.7421875 16.66015625 C6.96592098 13.30769288 -0.20295221 13.64365267 -6.6875 14.25 C-14.52211095 16.61322691 -19.65853563 22.30350971 -23.6875 29.25 C-27.20152833 38.38647367 -26.27552004 47.30324874 -22.6875 56.25 C-19.29566125 62.78243018 -14.01448552 66.91920579 -7.25 69.625 C2.12950014 71.27052634 8.81709533 69.75873432 17.3125 65.25 C18.18003906 64.53070312 19.04757812 63.81140625 19.94140625 63.0703125 C22.3125 61.25 22.3125 61.25 26 61.375 C29.3125 62.25 29.3125 62.25 31.3125 64.25 C31.86600109 68.440794 31.91168025 70.46357592 29.3125 73.875 C28.3225 74.65875 27.3325 75.4425 26.3125 76.25 C25.7659375 76.683125 25.219375 77.11625 24.65625 77.5625 C15.23389248 84.26994095 2.54529485 85.54706039 -8.6875 84.25 C-20.43659922 81.47367176 -28.51690059 74.74538322 -35.6875 65.25 C-42.07557666 54.79109017 -43.41437701 42.94642855 -41.03515625 30.96484375 C-37.41055963 18.90878204 -30.31763893 10.25121125 -19.4765625 3.96875 C-12.89756591 0.54473691 -7.34849477 0.0430681 0 0 Z " fill="#F16726" transform="translate(258.6875,552.75)"/>
<path d="M0 0 C2.30798486 1.68629175 4.50878876 3.41113251 6.53125 5.43359375 C6.9846913 11.55505124 6.9846913 11.55505124 5.53125 14.37109375 C2.24680723 16.11595397 -0.90782204 16.15629131 -4.46875 15.43359375 C-6.38471089 14.35135643 -7.97273644 13.16363597 -9.6328125 11.72265625 C-15.74181343 7.43335773 -23.34371945 7.62983002 -30.46875 8.43359375 C-37.29107859 10.52415682 -42.71183782 14.32422254 -46.46875 20.43359375 C-49.13573077 25.68441201 -50.02179827 29.88028183 -49.96875 35.74609375 C-49.96230469 36.4922998 -49.95585938 37.23850586 -49.94921875 38.00732422 C-49.66671863 46.57339702 -46.87406709 52.4476112 -40.65625 58.37109375 C-35.20153963 62.7103005 -29.69012771 65.04795396 -22.59765625 64.71484375 C-16.16233129 63.86467238 -10.98533656 61.98969833 -5.71875 58.18359375 C-1.86682039 55.44096542 -1.86682039 55.44096542 1.90625 55.37109375 C6.05098684 57.04872533 6.05098684 57.04872533 7.53125 59.43359375 C8.21875 62.18359375 8.21875 62.18359375 7.53125 65.43359375 C0.84107406 73.42031542 -8.32727944 77.27497723 -18.46875 78.43359375 C-31.06411821 79.31666385 -41.26119121 77.06837995 -51.46875 69.43359375 C-58.9195187 62.73964569 -64.72727858 53.50530794 -65.66162109 43.33398438 C-66.18082932 28.87167533 -65.31160653 18.40171191 -55.40625 7.05859375 C-41.7644365 -7.59450658 -17.05797947 -10.82318001 0 0 Z " fill="#F16725" transform="translate(912.46875,558.56640625)"/>
<path d="M0 0 C3.52049791 2.59846274 4.53185711 3.84420692 5.28125 8.265625 C4.65625 11.578125 4.65625 11.578125 3.59375 13.515625 C0.40403818 15.2648218 -1.75350238 15.04897715 -5.34375 14.578125 C-7.46385093 13.45351351 -9.40090162 12.16462401 -11.390625 10.82421875 C-17.60163473 6.86159455 -25.22047229 6.70699804 -32.34375 7.578125 C-40.07278478 10.00632106 -45.61186931 14.3740481 -49.37109375 21.53515625 C-52.68194962 29.75889502 -52.72420729 39.69415957 -49.78125 48.015625 C-46.60101654 54.76392527 -42.224367 59.00978847 -35.40625 62.015625 C-27.28001396 64.85919477 -20.23784284 63.93158459 -12.34375 60.578125 C-10.73326239 59.53558713 -9.14867515 58.45185242 -7.59375 57.328125 C-3.74182039 54.58549667 -3.74182039 54.58549667 0.03125 54.515625 C4.17598684 56.19325658 4.17598684 56.19325658 5.65625 58.578125 C6.34375 61.328125 6.34375 61.328125 5.65625 64.578125 C-0.99279536 72.51574504 -10.92006343 77.00446244 -21.10546875 77.9140625 C-34.34020702 78.04575144 -45.11055754 75.56985564 -55.34375 66.578125 C-65.29814064 56.12697015 -67.85460976 45.23461269 -67.6171875 31.20703125 C-67.12272155 19.18563386 -61.67928561 10.36427129 -53.03125 2.328125 C-37.9529759 -9.91870849 -16.230912 -9.84675328 0 0 Z " fill="#F16725" transform="translate(569.34375,559.421875)"/>
<path d="M0 0 C6.61423896 2.5647049 10.58649657 10.15983889 14.4375 15.875 C14.90647705 16.56400391 15.3754541 17.25300781 15.85864258 17.96289062 C19.9670779 24.01050742 24.03104128 30.08833037 28.0625 36.1875 C32.16148852 32.36128589 35.21770525 28.28586232 38.3125 23.625 C52.16951427 3.14696717 52.16951427 3.14696717 57.0625 0.1875 C60.56239972 0.25892652 62.35513143 0.52728934 64.9375 2.9375 C66.29110746 5.64471492 66.33069723 7.18509522 66.0625 10.1875 C64.98364258 12.21362305 64.98364258 12.21362305 63.45703125 14.19921875 C62.89145508 14.94880859 62.32587891 15.69839844 61.74316406 16.47070312 C61.12666992 17.26412109 60.51017578 18.05753906 59.875 18.875 C58.59411129 20.56569391 57.31418795 22.25711956 56.03515625 23.94921875 C55.37789551 24.81208496 54.72063477 25.67495117 54.04345703 26.56396484 C50.90153356 30.72505797 47.85600539 34.95417001 44.8125 39.1875 C44.26440674 39.94635498 43.71631348 40.70520996 43.15161133 41.48706055 C38.08191216 48.35210109 38.08191216 48.35210109 36.7890625 56.68359375 C36.7684375 57.96427734 36.7478125 59.24496094 36.7265625 60.56445312 C36.70396498 62.59651067 36.68749072 64.62822295 36.68164062 66.66040039 C36.67210396 68.62662291 36.63714483 70.59267009 36.6015625 72.55859375 C36.58923584 74.3209436 36.58923584 74.3209436 36.57666016 76.11889648 C35.96137086 79.79105751 35.00306416 80.97055639 32.0625 83.1875 C28.27962607 83.91188011 26.65776641 83.5562875 23.3828125 81.52734375 C19.14433377 77.06215754 20.73332983 69.87170472 20.875 64.1875 C20.82681979 53.40503326 20.49127979 46.72735037 12.88671875 38.94921875 C11.95472656 38.03785156 11.02273438 37.12648438 10.0625 36.1875 C8.25311959 33.88082405 6.59533505 31.47954263 4.9375 29.0625 C2.57393101 25.68610567 0.19338091 22.35513805 -2.34375 19.10546875 C-8.43518979 11.26595734 -8.43518979 11.26595734 -8.75 7.25 C-7.9375 4.1875 -7.9375 4.1875 -5.8125 1.6875 C-2.9375 0.1875 -2.9375 0.1875 0 0 Z " fill="#F16827" transform="translate(406.9375,552.8125)"/>
<path d="M0 0 C1.78216164 -0.01902626 1.78216164 -0.01902626 3.60032654 -0.03843689 C4.88472122 -0.03550125 6.16911591 -0.03256561 7.49243164 -0.02954102 C8.8104628 -0.03478287 10.12849396 -0.04002472 11.48646545 -0.04542542 C14.27655604 -0.05435998 17.06636047 -0.05193011 19.85644531 -0.04199219 C23.42897424 -0.03050626 27.00051419 -0.05070459 30.57291317 -0.07990932 C33.98363843 -0.10268793 37.3941321 -0.09580413 40.80493164 -0.09204102 C42.72848732 -0.10889198 42.72848732 -0.10889198 44.69090271 -0.12608337 C45.88216263 -0.11670242 47.07342255 -0.10732147 48.30078125 -0.09765625 C49.34874374 -0.09749008 50.39670624 -0.09732391 51.47642517 -0.09715271 C54.93102209 0.53507658 56.14523062 1.6036576 58.21508789 4.40405273 C58.00080218 10.61833845 58.00080218 10.61833845 55.21508789 13.40405273 C52.87670898 13.63110352 52.87670898 13.63110352 49.98852539 13.59936523 C48.44165039 13.58969727 48.44165039 13.58969727 46.86352539 13.57983398 C45.78329102 13.56307617 44.70305664 13.54631836 43.59008789 13.52905273 C42.50211914 13.5200293 41.41415039 13.51100586 40.29321289 13.50170898 C37.60028637 13.47808682 34.90779534 13.44514829 32.21508789 13.40405273 C32.23174248 14.59009346 32.23174248 14.59009346 32.24873352 15.8000946 C32.3490092 23.25956721 32.42508936 30.71871206 32.47414875 38.17868328 C32.50021909 42.01378366 32.53556823 45.84832616 32.59228516 49.68310547 C32.64669953 53.38546525 32.67652772 57.08728922 32.68947411 60.79001808 C32.69869736 62.20105231 32.71670905 63.61205791 32.74373817 65.02286339 C32.78014194 67.00209206 32.78213122 68.98186243 32.78271484 70.96142578 C32.79936943 72.65020088 32.79936943 72.65020088 32.81636047 74.37309265 C32.02044672 78.38522109 30.36114417 79.8780294 27.21508789 82.40405273 C24.15258789 82.96655273 24.15258789 82.96655273 21.21508789 82.40405273 C18.33766387 80.22269952 17.32192843 79.05899161 16.73406982 75.4553833 C16.74295227 74.30954773 16.75183472 73.16371216 16.76098633 71.9831543 C16.76143951 70.03158417 16.76143951 70.03158417 16.76190186 68.04058838 C16.78232703 66.62527858 16.80319099 65.20997506 16.82446289 63.79467773 C16.83192644 62.34308654 16.83761884 60.89148525 16.84161377 59.43988037 C16.85686146 55.62559016 16.89613481 51.81191252 16.94042969 47.99786377 C16.98140166 44.10339647 16.99962884 40.20882985 17.01977539 36.31420898 C17.06263076 28.67721144 17.1308705 21.04071803 17.21508789 13.40405273 C16.19354614 13.42761841 16.19354614 13.42761841 15.15136719 13.45166016 C12.06852508 13.51398495 8.98581545 13.55303532 5.90258789 13.59155273 C4.83073242 13.61668945 3.75887695 13.64182617 2.65454102 13.66772461 C1.62651367 13.67739258 0.59848633 13.68706055 -0.46069336 13.69702148 C-1.40855713 13.71273193 -2.3564209 13.72844238 -3.33300781 13.74462891 C-5.78491211 13.40405273 -5.78491211 13.40405273 -7.59423828 12.10449219 C-9.58440652 9.26226914 -9.1430633 6.74679719 -8.78491211 3.40405273 C-6.39822214 -0.0746627 -4.03768261 0.02083291 0 0 Z " fill="#F16927" transform="translate(335.784912109375,553.595947265625)"/>
<path d="M0 0 C1.8170343 -0.01418472 1.8170343 -0.01418472 3.67077637 -0.02865601 C4.98018188 -0.02258331 6.2895874 -0.01651062 7.63867188 -0.01025391 C8.99483395 -0.01227492 10.35099497 -0.01518658 11.70715332 -0.01895142 C14.54852654 -0.02337356 17.38961672 -0.01694764 20.23095703 -0.00292969 C23.87294291 0.01416263 27.51426557 0.00432079 31.15622711 -0.01364708 C33.95637 -0.02448816 36.75635567 -0.0210372 39.5565033 -0.0132637 C41.55236237 -0.01028939 43.54822756 -0.0193998 45.54406738 -0.02865601 C46.75542358 -0.01919952 47.96677979 -0.00974304 49.21484375 0 C50.28279175 0.00238678 51.35073975 0.00477356 52.4510498 0.00723267 C55.10742188 0.38818359 55.10742188 0.38818359 56.94836426 1.72885132 C58.78695678 4.36102064 58.55256551 6.27217812 58.10742188 9.38818359 C56.78320312 11.56396484 56.78320312 11.56396484 54.10742188 13.38818359 C50.34767948 13.88843319 46.64164456 13.76304373 42.85742188 13.63818359 C41.82617188 13.62013672 40.79492188 13.60208984 39.73242188 13.58349609 C37.18981123 13.53641071 34.64909026 13.4706641 32.10742188 13.38818359 C32.12407646 14.57422432 32.12407646 14.57422432 32.1410675 15.78422546 C32.24134318 23.24369807 32.31742335 30.70284292 32.36648273 38.16281414 C32.39255307 41.99791452 32.42790222 45.83245702 32.48461914 49.66723633 C32.53903352 53.36959611 32.5688617 57.07142008 32.58180809 60.77414894 C32.59103135 62.18518317 32.60904303 63.59618877 32.63607216 65.00699425 C32.67247592 66.98622292 32.67446521 68.96599329 32.67504883 70.94555664 C32.69170341 72.63433174 32.69170341 72.63433174 32.70869446 74.35722351 C31.91281085 78.36919998 30.25098493 79.85953867 27.10742188 82.38818359 C24.04492188 83.01318359 24.04492188 83.01318359 21.10742188 82.38818359 C18.44560794 79.74960616 17.21860671 78.0887743 16.62640381 74.35722351 C16.63528625 73.23137344 16.6441687 72.10552338 16.65332031 70.94555664 C16.6537735 69.02413094 16.6537735 69.02413094 16.65423584 67.06388855 C16.67465935 65.67588675 16.69552328 64.28789137 16.71679688 62.89990234 C16.72426285 61.47216078 16.7299541 60.04440894 16.73394775 58.61665344 C16.7491764 54.86977548 16.78843311 51.12352368 16.83276367 47.37689209 C16.87377691 43.54936187 16.89197161 39.72172987 16.91210938 35.89404297 C16.9549311 28.39180525 17.02314752 20.89008236 17.10742188 13.38818359 C16.46192383 13.40389404 15.81642578 13.41960449 15.15136719 13.43579102 C12.22014158 13.49824162 9.28905608 13.53720589 6.35742188 13.57568359 C5.34164062 13.60082031 4.32585938 13.62595703 3.27929688 13.65185547 C2.29960938 13.66152344 1.31992187 13.67119141 0.31054688 13.68115234 C-1.04055176 13.70471802 -1.04055176 13.70471802 -2.41894531 13.72875977 C-5.41628404 13.31607841 -6.76135554 12.51726639 -8.89257812 10.38818359 C-9.63238306 4.46974412 -9.63238306 4.46974412 -7.73352051 1.69369507 C-5.11684773 -0.16192865 -3.19122266 0.00713213 0 0 Z " fill="#F16826" transform="translate(576.892578125,443.61181640625)"/>
<path d="M0 0 C2.82714391 2.19111531 3.89056061 3.33776742 4.48101807 6.91070557 C4.47213562 8.03877625 4.46325317 9.16684692 4.45410156 10.32910156 C4.45379944 11.61012756 4.45349731 12.89115356 4.45318604 14.21099854 C4.43276095 15.60421371 4.41189699 16.9974225 4.390625 18.390625 C4.38316131 19.81979582 4.37746898 21.2489769 4.37347412 22.67816162 C4.3582275 26.43327262 4.31895516 30.18776125 4.2746582 33.94262695 C4.23368387 37.77676983 4.21545856 41.61101362 4.1953125 45.4453125 C4.15245903 52.9638249 4.08422067 60.48182512 4 68 C5.12494873 67.98428955 6.24989746 67.9685791 7.40893555 67.95239258 C11.59278165 67.89798784 15.77659662 67.86361164 19.96069336 67.83520508 C21.76966617 67.82014245 23.5786026 67.79968823 25.38745117 67.77368164 C27.99146515 67.7371868 30.5949952 67.72024843 33.19921875 67.70703125 C34.40731453 67.68380547 34.40731453 67.68380547 35.63981628 67.66011047 C40.28514417 67.65872622 43.19255723 68.05179658 47 71 C47.99 71.99 47.99 71.99 49 73 C48.78284397 75.82302844 48.38432599 77.51085783 46.625 79.75 C43.69200706 82.00614841 40.9668798 82.12864564 37.40844727 82.14526367 C36.01669029 82.15483345 36.01669029 82.15483345 34.59681702 82.16459656 C33.59678146 82.16570938 32.59674591 82.1668222 31.56640625 82.16796875 C30.53692368 82.17129715 29.5074411 82.17462555 28.44676208 82.17805481 C26.2687932 82.18311897 24.09081656 82.18546329 21.9128418 82.18530273 C18.57913448 82.18748909 15.24575812 82.20565 11.91210938 82.22460938 C9.79687613 82.2275434 7.68164132 82.22952814 5.56640625 82.23046875 C4.56839493 82.23765427 3.57038361 82.24483978 2.54212952 82.25224304 C1.61113937 82.24916641 0.68014923 82.24608978 -0.27905273 82.24291992 C-1.50458107 82.24505745 -1.50458107 82.24505745 -2.75486755 82.24723816 C-5.32641033 81.96405509 -6.85444857 81.44778698 -9 80 C-11.49907112 76.57652331 -11.26550173 73.12998721 -11.29052734 69 C-11.29724457 68.30358398 -11.30396179 67.60716797 -11.31088257 66.88964844 C-11.32984411 64.59302595 -11.33378538 62.29669583 -11.3359375 60 C-11.34236533 58.40104045 -11.34909368 56.80208208 -11.35610962 55.203125 C-11.36807674 51.85413891 -11.37179089 48.50525596 -11.37060547 45.15625 C-11.37040199 40.86528763 -11.39773588 36.57498543 -11.43214989 32.28417969 C-11.45438456 28.983042 -11.45844412 25.68206428 -11.45738602 22.38085938 C-11.45974594 20.79880492 -11.46859151 19.21674631 -11.48405075 17.63476562 C-11.50364816 15.42270548 -11.49789959 13.2120833 -11.48583984 11 C-11.48868988 9.741875 -11.49153992 8.48375 -11.49447632 7.1875 C-10.91163343 3.43037023 -9.96062499 2.29682765 -7 0 C-4.23382717 -1.38308641 -2.92591209 -0.90563946 0 0 Z " fill="#F16C2D" transform="translate(977,554)"/>
<path d="M0 0 C4.57082222 1.24658788 4.57082222 1.24658788 6.4375 3.9375 C6.82518005 7.11863708 6.82518005 7.11863708 6.84155273 11.09936523 C6.84841599 11.82489594 6.85527924 12.55042664 6.86235046 13.29794312 C6.88065954 15.69752546 6.87677522 18.09645651 6.87109375 20.49609375 C6.87565377 22.16374424 6.88095881 23.83139284 6.88697815 25.4990387 C6.89591742 28.99528636 6.89347714 32.49130571 6.88354492 35.98754883 C6.87205707 40.46801448 6.8922592 44.9476918 6.92146206 49.42805386 C6.9398093 52.8724722 6.93953454 56.31670114 6.93382454 59.76115608 C6.93367113 61.41297575 6.93973199 63.06480809 6.95211601 64.71658134 C6.96699619 67.02697031 6.95637252 69.33589701 6.93920898 71.64624023 C6.93904282 72.96067612 6.93887665 74.275112 6.93870544 75.62937927 C6.4375 78.9375 6.4375 78.9375 4.59364319 81.36195374 C2.4375 82.9375 2.4375 82.9375 -0.5625 83.4375 C-4.32370822 82.81063196 -5.2678166 81.95188162 -7.5625 78.9375 C-8.07043457 75.6361084 -8.07043457 75.6361084 -8.08007812 71.66210938 C-8.0870874 70.93643265 -8.09409668 70.21075592 -8.10131836 69.46308899 C-8.11889717 67.06875127 -8.10727706 64.67559934 -8.09375 62.28125 C-8.09644497 60.61502862 -8.10032744 58.94880877 -8.10534668 57.28259277 C-8.11124153 53.79224662 -8.1026795 50.30231021 -8.08398438 46.81201172 C-8.06119445 42.33938737 -8.07431766 37.8677231 -8.09827423 33.39513397 C-8.11273277 29.95498427 -8.10812605 26.51506197 -8.09776306 23.0749054 C-8.09509591 21.4258869 -8.09836515 19.77684773 -8.10768127 18.12785339 C-8.11784829 15.82231008 -8.10234614 13.51831843 -8.08007812 11.21289062 C-8.07689575 9.90147095 -8.07371338 8.59005127 -8.07043457 7.2388916 C-7.5625 3.9375 -7.5625 3.9375 -5.75280762 1.47888184 C-3.5625 -0.0625 -3.5625 -0.0625 0 0 Z " fill="#F06522" transform="translate(551.5625,443.0625)"/>
<path d="M0 0 C3.01427428 1.04844323 4.05626174 1.44288077 5.875 4 C6.17607418 6.50519503 6.29528184 8.76338775 6.27905273 11.26953125 C6.28591599 12.00642181 6.29277924 12.74331238 6.29985046 13.50253296 C6.3181586 15.93938438 6.31427585 18.37559454 6.30859375 20.8125 C6.31315332 22.50496633 6.31845821 24.19743081 6.32447815 25.88989258 C6.33341687 29.43741375 6.33097718 32.98470988 6.32104492 36.53222656 C6.30954819 41.08228802 6.32977314 45.63157423 6.35896206 50.18153381 C6.37729141 53.6765233 6.37703828 57.17132584 6.37132454 60.66635132 C6.37117095 62.34411711 6.37724589 64.02189528 6.38961601 65.69961548 C6.4044651 68.04373095 6.39389603 70.38639915 6.37670898 72.73046875 C6.39121094 73.7732045 6.39121094 73.7732045 6.40600586 74.83700562 C6.35733591 78.00077684 6.26436319 79.59390411 4.03114319 81.9230957 C1.0349832 83.41955363 -0.82164078 83.55055987 -4.125 83 C-6.95622523 80.26373387 -8.03550034 78.58064789 -8.6396637 74.66101074 C-8.64586227 73.39035767 -8.65206085 72.11970459 -8.65844727 70.81054688 C-8.67137062 69.75348289 -8.67137062 69.75348289 -8.68455505 68.67506409 C-8.70717598 66.35591439 -8.70048467 64.03797679 -8.69140625 61.71875 C-8.6966433 60.10119265 -8.70292008 58.48363836 -8.71018982 56.86608887 C-8.72058656 53.48007816 -8.71604285 50.09448791 -8.70141602 46.70849609 C-8.6842214 42.37372335 -8.70773418 38.04027529 -8.74290562 33.70565033 C-8.76488633 30.36667126 -8.76343677 27.02800893 -8.7551403 23.6889801 C-8.75432129 22.09101406 -8.76117535 20.49302465 -8.77591133 18.89512634 C-8.79337324 16.65907792 -8.77880639 14.42540675 -8.75610352 12.18945312 C-8.75514175 10.91880005 -8.75417999 9.64814697 -8.75318909 8.33898926 C-7.80099157 3.27781047 -5.33919168 0 0 0 Z " fill="#F16725" transform="translate(942.125,553)"/>
<path d="M0 0 C3.40190002 1.18326957 4.12255394 1.90065279 5.875 5 C6.26268005 8.21873474 6.26268005 8.21873474 6.27905273 12.07592773 C6.28591599 12.78049103 6.29277924 13.48505432 6.29985046 14.21096802 C6.31812195 16.53538276 6.31428063 18.85912274 6.30859375 21.18359375 C6.31315555 22.80257893 6.31846112 24.42156217 6.32447815 26.0405426 C6.33341001 29.43246328 6.33098554 32.82414852 6.32104492 36.21606445 C6.30955746 40.5585289 6.32976225 44.90017991 6.35896206 49.2425375 C6.3773267 52.58577113 6.37703108 55.92880995 6.37132454 59.27208138 C6.37117134 60.87283532 6.37721441 62.47360248 6.38961601 64.0743084 C6.40452933 66.31494729 6.39384847 68.55408515 6.37670898 70.79467773 C6.37654282 72.06834702 6.37637665 73.3420163 6.37620544 74.65428162 C5.78725627 78.58571953 4.71447094 80.25959556 1.875 83 C-1.42808289 83.55051381 -3.28418495 83.42072616 -6.27915955 81.92210388 C-8.95824989 79.13232325 -8.6929664 76.41511507 -8.65844727 72.74633789 C-8.66706284 72.01105362 -8.67567841 71.27576935 -8.68455505 70.51820374 C-8.70727026 68.08599713 -8.70046626 65.65493766 -8.69140625 63.22265625 C-8.69663977 61.53258419 -8.70291524 59.84251507 -8.71018982 58.15245056 C-8.72060449 54.60906234 -8.71601803 51.06607543 -8.70141602 47.52270508 C-8.68423425 42.98153348 -8.70770926 38.44162784 -8.74290562 33.90059757 C-8.76486712 30.40982171 -8.76344113 26.91934928 -8.7551403 23.42852592 C-8.75431993 21.75437469 -8.76119975 20.08020137 -8.77591133 18.40611458 C-8.79333372 16.06430442 -8.7788374 13.724775 -8.75610352 11.38305664 C-8.76779572 10.69149475 -8.77948792 9.99993286 -8.79153442 9.28741455 C-8.71928847 5.62977994 -8.34070748 4.22650233 -5.78086853 1.53855896 C-3.125 0 -3.125 0 0 0 Z " fill="#F16624" transform="translate(313.125,553)"/>
<path d="M0 0 C4.50101609 -0.13539153 8.99792821 -0.23433903 13.5 -0.3125 C15.40265625 -0.3753418 15.40265625 -0.3753418 17.34375 -0.43945312 C24.03103262 -0.52652712 29.00137137 -0.39511758 34.56445312 3.52661133 C37.42566092 6.46324212 37.98031134 8.79655047 38.375 12.875 C38.26237839 17.19484309 36.7885869 19.66918786 34 23 C29.78095929 26.70764184 26.30901101 27.12351648 20.80078125 27.09765625 C19.71192627 27.09515869 18.62307129 27.09266113 17.5012207 27.09008789 C16.11894287 27.08098389 14.73666504 27.07187988 13.3125 27.0625 C8.919375 27.041875 4.52625 27.02125 0 27 C0 18.09 0 9.18 0 0 Z " fill="#FEFDFC" transform="translate(475,457)"/>
<path d="M0 0 C3.63 -0.0825 7.26 -0.165 11 -0.25 C12.12792969 -0.28641602 13.25585938 -0.32283203 14.41796875 -0.36035156 C21.10581519 -0.43345567 25.31070494 0.43102092 31 4 C33.91096205 7.09289717 34.23406255 9.82559761 34.4375 13.9375 C34.25999706 18.71587919 33.38133642 21.44959676 30 25 C23.79068894 29.38427707 17.88144426 29.49988113 10.5 29.25 C7.035 29.1675 3.57 29.085 0 29 C0 19.43 0 9.86 0 0 Z " fill="#FEFEFD" transform="translate(234,457)"/>
</svg>
