<?xml version="1.0" encoding="UTF-8"?>
<svg version="1.1" xmlns="http://www.w3.org/2000/svg" width="1080" height="1080">
<path d="M0 0 C356.4 0 712.8 0 1080 0 C1080 356.4 1080 712.8 1080 1080 C723.6 1080 367.2 1080 0 1080 C0 723.6 0 367.2 0 0 Z " fill="#FEFEFE" transform="translate(0,0)"/>
<path d="M0 0 C1.99064818 1.74380781 3.45370067 3.53772122 4.953125 5.7109375 C4.47061279 6.0095166 3.98810059 6.3080957 3.4909668 6.61572266 C-0.08786745 8.8400421 -3.64151163 11.0914745 -7.15234375 13.421875 C-8.51302083 14.30989583 -9.87369792 15.19791667 -11.234375 16.0859375 C-12.26208008 16.78009766 -12.26208008 16.78009766 -13.31054688 17.48828125 C-18.36417811 20.74711948 -18.36417811 20.74711948 -21.84765625 20.5625 C-22.57339844 20.28148437 -23.29914063 20.00046875 -24.046875 19.7109375 C-25.531875 19.2159375 -25.531875 19.2159375 -27.046875 18.7109375 C-27.046875 18.0509375 -27.046875 17.3909375 -27.046875 16.7109375 C-30.05249093 16.29636979 -33.02568133 15.97329353 -36.046875 15.7109375 C-37.11035156 15.6078125 -38.17382812 15.5046875 -39.26953125 15.3984375 C-49.86961787 14.82481387 -58.15947088 17.77081466 -66.3046875 24.60546875 C-75.81560642 34.7133934 -77.5466317 45.90843264 -77.3203125 59.18359375 C-76.90883101 69.02859401 -72.76000764 76.62398773 -66.046875 83.7109375 C-65.056875 84.3709375 -64.066875 85.0309375 -63.046875 85.7109375 C-63.046875 86.3709375 -63.046875 87.0309375 -63.046875 87.7109375 C-61.3838166 88.38655498 -59.71592895 89.05027031 -58.046875 89.7109375 C-56.933125 90.2471875 -55.819375 90.7834375 -54.671875 91.3359375 C-44.29420447 95.120276 -33.92192327 92.93254816 -24.0703125 88.90234375 C-18.62884646 86.7580968 -18.62884646 86.7580968 -16.046875 86.7109375 C-13.356557 87.9798605 -11.01491228 89.65963936 -8.609375 91.3984375 C-7.96677734 91.84638672 -7.32417969 92.29433594 -6.66210938 92.75585938 C-5.39338927 93.64074335 -4.12846663 94.53110057 -2.86767578 95.42724609 C-0.29467421 97.24125015 2.32570558 98.9769219 4.953125 100.7109375 C4.85546875 102.4140625 4.85546875 102.4140625 3.953125 104.7109375 C1.82986425 106.45576674 -0.20152613 107.96182605 -2.484375 109.4609375 C-3.08314453 109.87214844 -3.68191406 110.28335938 -4.29882812 110.70703125 C-8.75478873 113.7109375 -8.75478873 113.7109375 -11.046875 113.7109375 C-11.046875 114.3709375 -11.046875 115.0309375 -11.046875 115.7109375 C-13.44148088 116.52721196 -15.83744026 117.33905395 -18.234375 118.1484375 C-19.24467773 118.49358398 -19.24467773 118.49358398 -20.27539062 118.84570312 C-37.56592085 124.66544257 -58.34497749 123.46084092 -75.109375 116.42578125 C-90.15965504 108.9215444 -103.2303715 94.29073551 -108.59765625 78.34765625 C-114.40680886 59.33876301 -113.92386051 38.86533255 -104.984375 20.8359375 C-95.13654535 4.11998631 -79.87093828 -6.58553296 -61.484375 -12.2265625 C-40.41468328 -16.87049455 -17.45260859 -12.64423683 0 0 Z " fill="#262223" transform="translate(353.046875,449.2890625)"/>
<path d="M0 0 C0.33 0.66 0.66 1.32 1 2 C5.20237208 3.12563538 9.37897027 3.90166479 13.67578125 4.58203125 C21.80568485 5.87794633 29.66557273 7.58950674 37.5625 9.9375 C38.38274658 10.17823242 39.20299316 10.41896484 40.0480957 10.66699219 C45.33971381 12.2928571 50.11390745 14.4156039 55 17 C56.39025391 17.66902344 56.39025391 17.66902344 57.80859375 18.3515625 C86.80998335 32.39978391 113.15986014 52.49715356 133 78 C133.5775 78.72316406 134.155 79.44632813 134.75 80.19140625 C136 82 136 82 136 84 C130.48682029 84.24903175 124.97697556 84.4294749 119.45947266 84.54931641 C117.5871473 84.59930959 115.71520651 84.66733455 113.84423828 84.75439453 C97.41640914 85.49912279 97.41640914 85.49912279 92.62451172 81.83496094 C90.16458274 79.34653857 88.1109521 76.78236749 86 74 C83.93857062 72.30425576 83.93857062 72.30425576 81.875 71 C80.92625 70.34 79.9775 69.68 79 69 C79 68.34 79 67.68 79 67 C78.2884375 66.75121094 77.576875 66.50242187 76.84375 66.24609375 C73.68674379 64.86273526 71.24956656 63.13626017 68.5 61.0625 C62.64334338 55.9974071 62.64334338 55.9974071 55.5859375 54.15234375 C52.53530597 55.15232418 49.59634509 56.34694974 46.625 57.5625 C37.8453333 60.74420694 28.38109537 61.85317638 19.375 58.6875 C9.20082679 53.6004134 1.48860935 45.65622536 -2.9375 35 C-6.10343706 23.96838081 -5.1082822 10.2165644 0 0 Z " fill="#B9CAC5" transform="translate(279,483)"/>
<path d="M0 0 C0 11.22 0 22.44 0 34 C3.63 31.69 7.26 29.38 11 27 C14.77531439 27.9438286 16.1895736 28.70407213 19.1875 30.9375 C27.95370366 36.86214656 37.64367089 36.75399398 48 36 C53.41441526 34.81095619 53.41441526 34.81095619 57.5625 31.3125 C58.7690625 30.1678125 58.7690625 30.1678125 60 29 C63.3125 29.1875 63.3125 29.1875 66 30 C66 30.66 66 31.32 66 32 C66.84949219 32.25007812 67.69898438 32.50015625 68.57421875 32.7578125 C72.2969386 34.10766987 75.42716802 35.82445606 78.8125 37.875 C79.39708984 38.21402344 79.98167969 38.55304687 80.58398438 38.90234375 C84.79032593 41.46611624 84.79032593 41.46611624 85.88671875 44.2578125 C85.94279297 45.12019531 85.94279297 45.12019531 86 46 C71.89823359 59.71005068 56.71032385 65.60989039 37.21313477 65.33886719 C30.67457695 65.13975528 24.38224649 64.47789484 18 63 C17.10539062 62.82855469 16.21078125 62.65710938 15.2890625 62.48046875 C5.13096648 60.22473109 -4.55410919 54.23315108 -12 47 C-12 46.34 -12 45.68 -12 45 C-15.78039714 47.11675189 -18.87122643 49.51257693 -22.0625 52.4375 C-22.89910156 53.19933594 -23.73570312 53.96117187 -24.59765625 54.74609375 C-26.99183638 56.8633442 -26.99183638 56.8633442 -28.5925293 59.11645508 C-32.20791536 61.9450428 -35.45920408 61.50130364 -39.921875 61.390625 C-40.78186096 61.38496521 -41.64184692 61.37930542 -42.52789307 61.37347412 C-45.26916649 61.35111951 -48.00912304 61.30092602 -50.75 61.25 C-52.61065818 61.22993376 -54.47133689 61.21168321 -56.33203125 61.1953125 C-60.88852666 61.15125784 -65.44404022 61.08223754 -70 61 C-67.71792046 50.88877353 -56.98225725 42.35604499 -50 35 C-49.28585938 34.24332031 -48.57171875 33.48664062 -47.8359375 32.70703125 C-37.86083087 22.42405096 -15.26469515 0 0 0 Z " fill="#272224" transform="translate(160,506)"/>
<path d="M0 0 C1.85569809 1.60827168 3.63457288 3.23787202 5.3515625 4.9921875 C1.70238398 9.27947374 -2.88422837 11.51424362 -7.7734375 14.1171875 C-9.40268845 14.99173066 -11.03037065 15.86920448 -12.65625 16.75 C-13.37441895 17.1330127 -14.09258789 17.51602539 -14.83251953 17.91064453 C-16.80435953 18.98431878 -16.80435953 18.98431878 -18.6484375 20.9921875 C-23.26839739 20.67719023 -26.57411276 19.07269375 -30.6484375 16.9921875 C-39.28700855 14.80275656 -49.10115246 14.75622878 -57.26171875 18.51953125 C-65.13857762 23.37972077 -71.86012318 29.50836015 -74.2109375 38.5546875 C-75.93932653 43.59917176 -75.93932653 43.59917176 -78.953125 45.26953125 C-81.50538053 45.97007617 -84.05223474 46.48488351 -86.6484375 46.9921875 C-88.33340048 47.96104122 -90.00022506 48.96205473 -91.6484375 49.9921875 C-93.24518612 50.63590291 -94.85044587 51.25867094 -96.4609375 51.8671875 C-100.68606173 53.49660761 -104.3161612 55.49563887 -108.0546875 58.0390625 C-109.6484375 58.9921875 -109.6484375 58.9921875 -111.6484375 58.9921875 C-112.1077359 40.08440318 -108.71908002 23.51864008 -95.6484375 8.9921875 C-94.98199219 8.24582031 -94.31554687 7.49945313 -93.62890625 6.73046875 C-70.27373276 -18.01538057 -26.99209209 -20.46303146 0 0 Z " fill="#272425" transform="translate(240.6484375,449.0078125)"/>
<path d="M0 0 C10.56 0 21.12 0 32 0 C32 25.08 32 50.16 32 76 C29.69 77.32 27.38 78.64 25 80 C22.81171296 81.57209069 20.67852336 83.15103696 18.5625 84.8125 C18.00264404 85.24828369 17.44278809 85.68406738 16.8659668 86.13305664 C8.65733404 92.31623683 8.65733404 92.31623683 2 100 C1.34 100 0.68 100 0 100 C0 67 0 34 0 0 Z " fill="#2B2728" transform="translate(88,439)"/>
<path d="M0 0 C-0.144375 0.64582031 -0.28875 1.29164063 -0.4375 1.95703125 C-2.34750843 11.65297683 -2.18512578 21.16776424 -2 31 C-2.68400879 31.10546143 -3.36801758 31.21092285 -4.07275391 31.31958008 C-21.22767262 33.94259171 -21.22767262 33.94259171 -38.23046875 37.38671875 C-41.14094078 38.03120974 -44.05625372 38.5333617 -47 39 C-47 39.66 -47 40.32 -47 41 C-47.67804688 41.15855469 -48.35609375 41.31710937 -49.0546875 41.48046875 C-56.39891388 43.32161137 -64.50801695 45.50801695 -70 51 C-70.61617187 51.15339844 -71.23234375 51.30679688 -71.8671875 51.46484375 C-74.35090048 52.08804646 -76.00088204 53.14507527 -78.125 54.5625 C-81.78470255 57 -81.78470255 57 -84 57 C-84.495 39.675 -84.495 39.675 -85 22 C-76.55719468 17.77859734 -68.77357773 14.15363624 -60 11 C-58.86046875 10.5771875 -57.7209375 10.154375 -56.546875 9.71875 C-38.88711676 3.44991807 -18.7914994 -0.67112498 0 0 Z " fill="#BFC3D1" transform="translate(244,483)"/>
<path d="M0 0 C7.2192482 3.66945213 12.62515639 8.48399484 16.390625 15.6875 C18.12338875 25.6990239 17.15966498 34.07586377 11.953125 42.9375 C9.87165479 45.45345186 7.70503377 47.19884634 4.953125 48.9375 C4.35757813 49.34742188 3.76203125 49.75734375 3.1484375 50.1796875 C-2.61313357 53.64619291 -8.48269418 53.68898553 -15.046875 52.9375 C-17.77060013 52.23768892 -19.53681267 51.3431349 -22.046875 49.9375 C-23.0575 49.40125 -24.068125 48.865 -25.109375 48.3125 C-31.27403919 43.32830342 -35.31460814 36.40271122 -36.3671875 28.546875 C-36.89065352 20.58108768 -34.59233022 14.44956034 -30.046875 7.9375 C-21.7736409 -0.39379189 -11.4813002 -4.00373546 0 0 Z " fill="#F9F9F9" transform="translate(529.046875,514.0625)"/>
<path d="M0 0 C1.0828125 -0.01417969 2.165625 -0.02835938 3.28125 -0.04296875 C6.65198705 0.19838257 9.3530049 0.98841904 12.5 2.1875 C12.5 2.8475 12.5 3.5075 12.5 4.1875 C13.2425 4.414375 13.985 4.64125 14.75 4.875 C19.95467068 7.35904737 22.2559891 12.05833223 24.5 17.1875 C27.04987915 25.76436623 25.47075316 33.35629237 21.5 41.1875 C18.12232095 46.49528137 12.79755854 51.13827683 6.75 53.0625 C5.6775 53.10375 4.605 53.145 3.5 53.1875 C2.13488281 53.27837891 2.13488281 53.27837891 0.7421875 53.37109375 C-7.17067585 53.69831742 -12.43484036 52.81025007 -18.40234375 47.4921875 C-24.17587184 41.46232941 -27.62457679 34.53481116 -27.9375 26.125 C-27.47317668 16.85304368 -24.23771982 10.53679251 -17.5 4.1875 C-12.2058231 0.18458576 -6.47056305 0.03851526 0 0 Z " fill="#F9F9F9" transform="translate(833.5,513.8125)"/>
<path d="M0 0 C6.36822725 4.02016581 12.22858279 8.76716246 14.09765625 16.32421875 C15.14058965 25.02447897 15.23793943 32.84938807 9.94140625 40.26953125 C4.56239941 46.26393294 -1.1416845 49.9033568 -9.3046875 50.625 C-18.25881766 50.6546822 -23.79848846 50.34853415 -30.58984375 44.19921875 C-37.37142525 36.83723163 -38.588927 29.83701447 -38.28125 19.921875 C-37.57937483 13.25767882 -35.59061159 8.57707392 -30.65234375 4.01171875 C-29.42735812 3.08197278 -28.17666426 2.18510468 -26.90234375 1.32421875 C-26.30550781 0.91042969 -25.70867188 0.49664062 -25.09375 0.0703125 C-17.35044159 -4.54991518 -7.88464679 -4.07826558 0 0 Z " fill="#F9F9F9" transform="translate(834.90234375,440.67578125)"/>
<path d="M0 0 C0.24843695 4.8559869 0.42917659 9.70823499 0.54931641 14.5690918 C0.59941163 16.21948695 0.6675171 17.86944245 0.75439453 19.51831055 C1.02712863 24.83020813 1.12296883 29.78052061 0 35 C-2.45475622 37.6727808 -4.54263837 39.02103369 -7.83447266 40.51342773 C-8.90640869 41.24928101 -8.90640869 41.24928101 -10 42 C-10.41407967 45.11596669 -10.41407967 45.11596669 -10 48 C-10.99 47.505 -10.99 47.505 -12 47 C-12 46.34 -12 45.68 -12 45 C-15.78039714 47.11675189 -18.87122643 49.51257693 -22.0625 52.4375 C-22.89910156 53.19933594 -23.73570312 53.96117187 -24.59765625 54.74609375 C-26.99183638 56.8633442 -26.99183638 56.8633442 -28.5925293 59.11645508 C-32.20791536 61.9450428 -35.45920408 61.50130364 -39.921875 61.390625 C-40.78186096 61.38496521 -41.64184692 61.37930542 -42.52789307 61.37347412 C-45.26916649 61.35111951 -48.00912304 61.30092602 -50.75 61.25 C-52.61065818 61.22993376 -54.47133689 61.21168321 -56.33203125 61.1953125 C-60.88852666 61.15125784 -65.44404022 61.08223754 -70 61 C-67.71792046 50.88877353 -56.98225725 42.35604499 -50 35 C-49.28585938 34.24332031 -48.57171875 33.48664062 -47.8359375 32.70703125 C-37.86083087 22.42405096 -15.26469515 0 0 0 Z " fill="#C4274C" transform="translate(160,506)"/>
<path d="M0 0 C26.39516011 10.32405946 50.8502221 32.95538966 68 55 C68.5775 55.72316406 69.155 56.44632813 69.75 57.19140625 C71 59 71 59 71 61 C65.48682029 61.24903175 59.97697556 61.4294749 54.45947266 61.54931641 C52.5871473 61.59930959 50.71520651 61.66733455 48.84423828 61.75439453 C32.41640914 62.49912279 32.41640914 62.49912279 27.62451172 58.83496094 C25.16458274 56.34653857 23.1109521 53.78236749 21 51 C18.93857062 49.30425576 18.93857062 49.30425576 16.875 48 C15.92625 47.34 14.9775 46.68 14 46 C14 45.34 14 44.68 14 44 C13.27353271 43.72164307 12.54706543 43.44328613 11.79858398 43.15649414 C6.93503388 41.14666802 3.12923351 39.37765451 0 35 C-1.12932022 28.98585513 -0.85114872 23.14953864 -0.5625 17.0625 C-0.51731068 15.40831187 -0.47625383 13.75400538 -0.43945312 12.09960938 C-0.34070837 8.06346583 -0.18570079 4.03304017 0 0 Z " fill="#449CCB" transform="translate(344,506)"/>
<path d="M0 0 C25 0 25 0 28 1 C28 1.66 28 2.32 28 3 C29.0209375 3.309375 29.0209375 3.309375 30.0625 3.625 C35.22164986 6.03992121 39.59576404 9.29782814 41.9375 14.625 C44.48048212 22.86994825 43.76601037 31.33347888 40 39 C36.73075647 44.72117619 30.7986342 47.30534058 25 50 C16.90901413 52.02274647 8.33999734 51 0 51 C0 34.17 0 17.34 0 0 Z " fill="#F7F7F7" transform="translate(170,590)"/>
<path d="M0 0 C25.99472296 0 25.99472296 0 29.484375 3.48046875 C31.78841041 6.58807206 32.93725778 8.60960398 33.5625 12.5 C32.76645005 17.45319969 31.33521963 21.2998401 27.17578125 24.328125 C25.49338727 25.29729314 23.74985449 26.1587238 22 27 C23.45071344 30.92630901 25.30366377 34.40230622 27.4375 38 C28.03433594 39.010625 28.63117187 40.02125 29.24609375 41.0625 C30.38517862 42.97027689 31.54309453 44.86698084 32.72265625 46.75 C34 49 34 49 34 51 C31.69 51 29.38 51 27 51 C26.60167969 50.00613281 26.20335937 49.01226563 25.79296875 47.98828125 C24.00409703 43.81214391 21.71304334 40.03526086 19.3125 36.1875 C15 29.26744186 15 29.26744186 15 27 C12.03 27 9.06 27 6 27 C6 34.92 6 42.84 6 51 C4.02 51 2.04 51 0 51 C0 34.17 0 17.34 0 0 Z " fill="#403D3E" transform="translate(632,590)"/>
<path d="M0 0 C22.59375 0 22.59375 0 29.9375 5 C32.60709497 8.88304724 32.77042711 11.62168398 32.55078125 16.265625 C31.81242336 19.93123153 30.37392348 22.02037034 27.8984375 24.7578125 C25.35358142 26.42296524 22.98876551 26.65675242 20 27 C20.35827881 27.54938232 20.71655762 28.09876465 21.08569336 28.66479492 C22.71111818 31.16717349 24.32437475 33.67717683 25.9375 36.1875 C26.50146484 37.05181641 27.06542969 37.91613281 27.64648438 38.80664062 C28.18466797 39.64775391 28.72285156 40.48886719 29.27734375 41.35546875 C29.77484131 42.12528076 30.27233887 42.89509277 30.78491211 43.68823242 C32.07390996 46.14061753 32.5927765 48.27181353 33 51 C30.71484375 51.3046875 30.71484375 51.3046875 28 51 C26.19140625 48.9453125 26.19140625 48.9453125 24.5625 46.125 C23.9746875 45.12855469 23.386875 44.13210938 22.78125 43.10546875 C22.1934375 42.08066406 21.605625 41.05585938 21 40 C19.85541187 38.14506441 18.70967496 36.2908369 17.5625 34.4375 C15 30.25587467 15 30.25587467 15 28 C12.03 28 9.06 28 6 28 C6 35.92 6 43.84 6 52 C4.02 52 2.04 52 0 52 C0 34.84 0 17.68 0 0 Z " fill="#3C393A" transform="translate(600,439)"/>
<path d="M0 0 C4.13911362 1.60757662 7.96381284 3.54594309 11.8125 5.75 C12.39064453 6.07226562 12.96878906 6.39453125 13.56445312 6.7265625 C14.7630639 7.4099693 15.94495186 8.12340536 17.10986328 8.86279297 C19.00319214 10.06474497 19.00319214 10.06474497 21.21435547 10.92236328 C23.98912645 12.34817624 25.28235976 13.36333507 27 16 C28.36683537 22.30932773 27.74662474 28.97322676 27.5 35.375 C27.45984736 37.17830694 27.42334968 38.98169922 27.390625 40.78515625 C27.30270412 45.19221621 27.16480863 49.59517238 27 54 C23.35383816 53.20762772 21.20039836 51.88135884 18.25 49.5625 C17.45078125 48.94503906 16.6515625 48.32757812 15.828125 47.69140625 C15.22484375 47.13324219 14.6215625 46.57507813 14 46 C14 45.34 14 44.68 14 44 C13.27353271 43.72164307 12.54706543 43.44328613 11.79858398 43.15649414 C6.93503388 41.14666802 3.12923351 39.37765451 0 35 C-1.12932022 28.98585513 -0.85114872 23.14953864 -0.5625 17.0625 C-0.51731068 15.40831187 -0.47625383 13.75400538 -0.43945312 12.09960938 C-0.34070837 8.06346583 -0.18570079 4.03304017 0 0 Z " fill="#02B2CC" transform="translate(344,506)"/>
<path d="M0 0 C1.98 0 3.96 0 6 0 C7.0854163 2.45743129 8.16835346 4.9159097 9.25 7.375 C9.55035156 8.05433594 9.85070312 8.73367188 10.16015625 9.43359375 C11.82670621 13.22765429 13.42129448 17.03774972 14.9375 20.89453125 C17.36820304 27.02680054 20.16977917 32.98115671 22.99609375 38.93945312 C23.38410156 39.78056641 23.77210938 40.62167969 24.171875 41.48828125 C24.5234668 42.23634033 24.87505859 42.98439941 25.23730469 43.75512695 C26.09744957 46.2868274 26.13681106 48.34417001 26 51 C24.35 51 22.7 51 21 51 C18.525 45.06 18.525 45.06 16 39 C7.09 38.67 -1.82 38.34 -11 38 C-13.16705358 44.45135388 -13.16705358 44.45135388 -15 51 C-16.98 51 -18.96 51 -21 51 C-18.931746 44.40800321 -16.44150292 38.08327355 -13.6875 31.75 C-13.29159668 30.8319458 -12.89569336 29.9138916 -12.48779297 28.96801758 C-9.82783873 22.82679559 -7.0592368 16.74720517 -4.21875 10.6875 C-2.62798465 7.17965846 -1.2815362 3.63101924 0 0 Z " fill="#393536" transform="translate(929,439)"/>
<path d="M0 0 C2.625 -0.1875 2.625 -0.1875 5 0 C9.86475931 9.21035459 9.86475931 9.21035459 11.375 14.1875 C12.67416497 18.35657177 14.44220484 22.25011558 16.3125 26.1875 C18.76013584 31.34499503 21.16176876 36.51395675 23.4375 41.75 C23.93121094 42.87921875 24.42492187 44.0084375 24.93359375 45.171875 C26 48 26 48 26 51 C24.35 51 22.7 51 21 51 C20.15930585 49.39967863 19.32768495 47.79458829 18.5 46.1875 C18.0359375 45.29417969 17.571875 44.40085937 17.09375 43.48046875 C16 41 16 41 16 38 C2.635 38.495 2.635 38.495 -11 39 C-12.65 42.96 -14.3 46.92 -16 51 C-17.65 51 -19.3 51 -21 51 C-20.43728543 46.94845506 -19.55589867 43.50249049 -17.9375 39.75 C-17.49277344 38.71359375 -17.04804687 37.6771875 -16.58984375 36.609375 C-14.39329584 31.62261759 -12.18285943 26.64213443 -9.95629883 21.66870117 C-7.53393979 16.24734067 -5.22394399 10.79449013 -3.0078125 5.28515625 C-2 3 -2 3 0 0 Z " fill="#3A3637" transform="translate(713,439)"/>
<path d="M0 0 C8 0 8 0 10.21484375 2.16796875 C10.78332031 3.16441406 11.35179687 4.16085937 11.9375 5.1875 C12.93136719 6.83878906 12.93136719 6.83878906 13.9453125 8.5234375 C14.45046387 9.3892041 14.45046387 9.3892041 14.96582031 10.27246094 C21.16765216 20.63227259 28.900773 30.31923591 36 40 C36.33 26.8 36.66 13.6 37 0 C38.98 0 40.96 0 43 0 C43 16.83 43 33.66 43 51 C36 51 36 51 34.27832031 49.69335938 C33.88225586 49.08298828 33.48619141 48.47261719 33.078125 47.84375 C32.6155127 47.15861328 32.15290039 46.47347656 31.67626953 45.76757812 C31.20560059 45.01927734 30.73493164 44.27097656 30.25 43.5 C29.48792236 42.3543457 29.48792236 42.3543457 28.71044922 41.18554688 C27.65101876 39.5919746 26.60082382 37.99222696 25.55957031 36.38671875 C23.15491385 32.70670598 20.63402307 29.10922708 18.125 25.5 C14.36056722 20.03632438 10.6808995 14.52134925 7 9 C6.67 22.86 6.34 36.72 6 51 C4.02 51 2.04 51 0 51 C0 34.17 0 17.34 0 0 Z " fill="#3F3C3C" transform="translate(223,590)"/>
<path d="M0 0 C7 0 7 0 8.95288086 1.64550781 C9.45182861 2.40702148 9.95077637 3.16853516 10.46484375 3.953125 C11.03332031 4.79447998 11.60179687 5.63583496 12.1875 6.50268555 C12.765 7.40929932 13.3425 8.31591309 13.9375 9.25 C14.54722656 10.16499268 15.15695312 11.07998535 15.78515625 12.02270508 C17.54390211 14.66900952 19.27274909 17.33308278 21 20 C21.82066666 21.23024152 22.64433503 22.45849297 23.47265625 23.68359375 C25.33512477 26.44320511 27.1693999 29.21919433 29 32 C30.98 34.97 32.96 37.94 35 41 C35.33 27.47 35.66 13.94 36 0 C37.98 0 39.96 0 42 0 C42 17.16 42 34.32 42 52 C35 52 35 52 33.26245117 50.58569336 C32.86002197 49.92706299 32.45759277 49.26843262 32.04296875 48.58984375 C31.5752002 47.85435303 31.10743164 47.1188623 30.62548828 46.36108398 C29.91368408 45.16140991 29.91368408 45.16140991 29.1875 43.9375 C28.14750259 42.28101942 27.10713205 40.62477305 26.06640625 38.96875 C25.55352051 38.1334375 25.04063477 37.298125 24.51220703 36.4375 C22.30386886 32.87791842 19.9680258 29.40923647 17.625 25.9375 C16.86640832 24.80130109 16.10857642 23.66459448 15.3515625 22.52734375 C14.18753906 20.78130859 14.18753906 20.78130859 13 19 C11.02 16.03 9.04 13.06 7 10 C6.67 23.53 6.34 37.06 6 51 C4.02 51 2.04 51 0 51 C0 34.17 0 17.34 0 0 Z " fill="#403D3E" transform="translate(859,439)"/>
<path d="M0 0 C15.61878652 -0.79417559 29.71165394 5.4684663 43.609375 11.9296875 C46.35018275 13.15678117 49.12199958 14.14437825 52 15 C52 15.66 52 16.32 52 17 C52.99 17.33 53.98 17.66 55 18 C53.98354061 20.74972828 53.2003519 21.8703003 50.70703125 23.484375 C41.38965723 27.5583685 31.20836551 29.15700821 21.375 25.6875 C12.27193892 21.13596946 6.0013553 14.94059482 1 6 C0.296875 2.68359375 0.296875 2.68359375 0 0 Z " fill="#F8F9F8" transform="translate(277,516)"/>
<path d="M0 0 C0.33 0.66 0.66 1.32 1 2 C5.34147235 3.16289438 9.70166981 3.95667266 14.1328125 4.6875 C14.87080078 4.81133057 15.60878906 4.93516113 16.36914062 5.06274414 C17.84298564 5.30758744 19.3182415 5.54412254 20.79492188 5.77124023 C25.59641066 6.56392842 29.59430962 7.92435322 34 10 C32.52472051 13.4184127 30.6037974 15.64159275 27.97265625 18.2578125 C27.18052734 19.04800781 26.38839844 19.83820313 25.57226562 20.65234375 C24.74404297 21.46832031 23.91582031 22.28429687 23.0625 23.125 C22.23814453 23.94871094 21.41378906 24.77242188 20.56445312 25.62109375 C12.19383823 33.93051 12.19383823 33.93051 7.64453125 34.1953125 C5.74767578 34.16050781 5.74767578 34.16050781 3.8125 34.125 C2.54019531 34.10695313 1.26789063 34.08890625 -0.04296875 34.0703125 C-1.01878906 34.04710937 -1.99460937 34.02390625 -3 34 C-5.98134717 23.28447665 -4.96297138 9.92594276 0 0 Z " fill="#6CB448" transform="translate(279,483)"/>
<path d="M0 0 C2.31 0 4.62 0 7 0 C8.89721926 1.97668395 9.98292598 3.48189654 11.3125 5.8125 C12.14726056 7.16559502 12.9847477 8.51700986 13.82421875 9.8671875 C14.3042334 10.65319336 14.78424805 11.43919922 15.27880859 12.24902344 C18.05651099 16.68861927 20.98507553 21.02636016 23.90161133 25.37548828 C27.61202037 30.90966898 31.30408578 36.45612867 35 42 C35.33 28.14 35.66 14.28 36 0 C37.65 0 39.3 0 41 0 C41 17.16 41 34.32 41 52 C39.02 52 37.04 52 35 52 C32.796875 49.68359375 32.796875 49.68359375 30.75 46.4375 C30.37431885 45.85685791 29.9986377 45.27621582 29.61157227 44.67797852 C28.80802568 43.43502083 28.01275962 42.18667777 27.22509766 40.93359375 C25.59873987 38.36668389 23.90415746 35.84851141 22.20800781 33.32739258 C20.94286733 31.44548396 19.68679488 29.5578452 18.43359375 27.66796875 C16.12793895 24.19159548 13.81488508 20.72023459 11.5 17.25 C9.66666667 14.5 7.83333333 11.75 6 9 C5.67 23.19 5.34 37.38 5 52 C3.35 52 1.7 52 0 52 C0 34.84 0 17.68 0 0 Z " fill="#363233" transform="translate(556,514)"/>
<path d="M0 0 C7 0 7 0 9.30859375 2.21875 C10.36240234 3.84296875 10.36240234 3.84296875 11.4375 5.5 C11.83582031 6.0978833 12.23414063 6.6957666 12.64453125 7.31176758 C13.56733141 8.70194008 14.47907102 10.09948974 15.38232422 11.50244141 C17.26698195 14.41219822 19.19585353 17.29014146 21.12890625 20.16796875 C24.59111083 25.32663422 28.03357772 30.4978872 31.46289062 35.6784668 C32.63876077 37.45441171 33.81852101 39.22778152 35 41 C35.33 27.47 35.66 13.94 36 0 C37.65 0 39.3 0 41 0 C41 16.83 41 33.66 41 51 C38.69 51 36.38 51 34 51 C33.70432129 50.443125 33.40864258 49.88625 33.10400391 49.3125 C30.18754533 43.92756907 26.98276492 38.94254121 23.375 34 C17.21424437 25.54848452 11.70175851 16.8118086 6 8 C5.67 22.19 5.34 36.38 5 51 C3.35 51 1.7 51 0 51 C0 34.17 0 17.34 0 0 Z " fill="#343031" transform="translate(696,515)"/>
<path d="M0 0 C7.2192482 3.66945213 12.62515639 8.48399484 16.390625 15.6875 C18.12338875 25.6990239 17.15966498 34.07586377 11.953125 42.9375 C9.87165479 45.45345186 7.70503377 47.19884634 4.953125 48.9375 C4.35757813 49.34742188 3.76203125 49.75734375 3.1484375 50.1796875 C-2.61313357 53.64619291 -8.48269418 53.68898553 -15.046875 52.9375 C-17.77060013 52.23768892 -19.53681267 51.3431349 -22.046875 49.9375 C-23.0575 49.40125 -24.068125 48.865 -25.109375 48.3125 C-31.27403919 43.32830342 -35.31460814 36.40271122 -36.3671875 28.546875 C-36.89065352 20.58108768 -34.59233022 14.44956034 -30.046875 7.9375 C-21.7736409 -0.39379189 -11.4813002 -4.00373546 0 0 Z M-25.921875 10.75 C-30.07152484 16.97447476 -30.96469223 23.60615508 -30.046875 30.9375 C-28.14264802 37.1311455 -25.13823824 42.68428806 -19.828125 46.5546875 C-16.4790224 48.21983121 -14.20593354 48.27374701 -10.484375 48.1875 C-8.81181641 48.16429687 -8.81181641 48.16429687 -7.10546875 48.140625 C-4.58723153 47.97338575 -2.44953221 47.66593397 -0.046875 46.9375 C-0.046875 46.2775 -0.046875 45.6175 -0.046875 44.9375 C0.695625 44.710625 1.438125 44.48375 2.203125 44.25 C6.48226759 42.20768194 8.37716992 38.80143262 10.953125 34.9375 C11.20267968 32.14016612 11.32334327 29.48481227 11.328125 26.6875 C11.36486328 25.57955078 11.36486328 25.57955078 11.40234375 24.44921875 C11.43218785 18.80868401 10.1482411 15.58921314 6.953125 10.9375 C4.65009631 8.6283334 4.65009631 8.6283334 1.953125 6.9375 C1.086875 6.36 0.220625 5.7825 -0.671875 5.1875 C-9.86071162 1.78422718 -19.22783643 3.49163841 -25.921875 10.75 Z " fill="#413E3F" transform="translate(529.046875,514.0625)"/>
<path d="M0 0 C1.65 0 3.3 0 5 0 C5 16.83 5 33.66 5 51 C-2 51 -2 51 -3.77069092 49.62225342 C-4.19022034 48.97701721 -4.60974976 48.33178101 -5.04199219 47.66699219 C-5.53229919 46.93913513 -6.0226062 46.21127808 -6.527771 45.46136475 C-7.02907532 44.66458313 -7.53037964 43.86780151 -8.046875 43.046875 C-8.58475647 42.23510803 -9.12263794 41.42334106 -9.67681885 40.5869751 C-11.39106535 37.98902184 -13.07069298 35.37064202 -14.75 32.75 C-15.89488054 30.99982497 -17.0419922 29.25110727 -18.19140625 27.50390625 C-20.72783098 23.6445877 -23.24201095 19.7717547 -25.73724365 15.88568115 C-27.08511283 13.87290053 -28.54655809 11.93792254 -30 10 C-30.33 23.53 -30.66 37.06 -31 51 C-32.65 51 -34.3 51 -36 51 C-36 34.5 -36 18 -36 1 C-29 1 -29 1 -27.23071289 2.37011719 C-26.8155542 3.00594727 -26.40039551 3.64177734 -25.97265625 4.296875 C-25.49473633 5.00239502 -25.01681641 5.70791504 -24.52441406 6.43481445 C-24.04198242 7.19882568 -23.55955078 7.96283691 -23.0625 8.75 C-22.54526367 9.52625732 -22.02802734 10.30251465 -21.49511719 11.10229492 C-19.97627053 13.38883491 -18.48783317 15.69321394 -17 18 C-16.24703603 19.12867606 -15.49094556 20.25527846 -14.73046875 21.37890625 C-12.7997396 24.23882261 -10.8994285 27.11920011 -9 30 C-5.04 35.94 -5.04 35.94 -1 42 C-0.67 28.14 -0.34 14.28 0 0 Z " fill="#333030" transform="translate(679,439)"/>
<path d="M0 0 C2.31 0 4.62 0 7 0 C9.13131285 2.29258429 10.53732727 4.17767822 12.125 6.8125 C13.06404376 8.2754208 14.00419775 9.73762939 14.9453125 11.19921875 C15.43547852 11.97700684 15.92564453 12.75479492 16.43066406 13.55615234 C19.69787934 18.64402181 23.2174741 23.56518872 26.67236328 28.52661133 C29.46081507 32.58069746 31.80152806 36.58931568 34 41 C34.99 41.495 34.99 41.495 36 42 C36 28.14 36 14.28 36 0 C37.65 0 39.3 0 41 0 C41 16.83 41 33.66 41 51 C35 51 35 51 33.0859375 49.2265625 C32.52132812 48.36804688 31.95671875 47.50953125 31.375 46.625 C30.70082031 45.62339844 30.02664063 44.62179687 29.33203125 43.58984375 C28.96416504 43.02249512 28.59629883 42.45514648 28.21728516 41.87060547 C26.8800359 39.81565084 25.51080908 37.78440049 24.13671875 35.75390625 C17.9555579 26.58711327 11.98012987 17.30242424 6 8 C5.67 22.19 5.34 36.38 5 51 C3.35 51 1.7 51 0 51 C0 34.17 0 17.34 0 0 Z " fill="#312D2E" transform="translate(869,515)"/>
<path d="M0 0 C7 0 7 0 8.95288086 1.64550781 C9.45182861 2.40702148 9.95077637 3.16853516 10.46484375 3.953125 C11.03332031 4.79447998 11.60179687 5.63583496 12.1875 6.50268555 C12.765 7.40929932 13.3425 8.31591309 13.9375 9.25 C14.54722656 10.16499268 15.15695312 11.07998535 15.78515625 12.02270508 C17.54390211 14.66900952 19.27274909 17.33308278 21 20 C21.82066666 21.23024152 22.64433503 22.45849297 23.47265625 23.68359375 C25.33512477 26.44320511 27.1693999 29.21919433 29 32 C30.98 34.97 32.96 37.94 35 41 C35.33 27.47 35.66 13.94 36 0 C37.65 0 39.3 0 41 0 C41 16.5 41 33 41 50 C34 50 34 50 32.31869507 48.7563324 C31.94072784 48.17343948 31.56276062 47.59054657 31.17333984 46.98999023 C30.72952972 46.33187851 30.2857196 45.67376678 29.82846069 44.99571228 C29.37717804 44.27396317 28.92589539 43.55221405 28.4609375 42.80859375 C27.72781845 41.70149803 27.72781845 41.70149803 26.97988892 40.57203674 C25.42168159 38.20815814 23.89816903 35.82407094 22.375 33.4375 C21.34340685 31.85724565 20.30957484 30.27845043 19.2734375 28.70117188 C16.97015948 25.19171894 14.68914263 21.66887396 12.42733765 18.1325531 C10.35680048 15.03901004 8.16366906 12.02913668 6 9 C5.67 22.86 5.34 36.72 5 51 C3.35 51 1.7 51 0 51 C0 34.17 0 17.34 0 0 Z " fill="#312D2E" transform="translate(538,590)"/>
<path d="M0 0 C7 0 7 0 9.14355469 1.97338867 C9.73040039 2.8832251 10.31724609 3.79306152 10.921875 4.73046875 C11.59025391 5.7364209 12.25863281 6.74237305 12.94726562 7.77880859 C13.96336914 9.37329834 13.96336914 9.37329834 15 11 C16.37795616 13.03928404 17.75816308 15.07704905 19.140625 17.11328125 C20.51281851 19.17809334 21.88260362 21.24450795 23.25 23.3125 C24.29027344 24.87967773 24.29027344 24.87967773 25.3515625 26.47851562 C26.63683709 28.41504525 27.92115124 30.35221298 29.20410156 32.2902832 C31.13064568 35.19712294 33.06559176 38.09838764 35 41 C35.33 27.47 35.66 13.94 36 0 C37.65 0 39.3 0 41 0 C41 16.5 41 33 41 50 C34 50 34 50 32.07885742 48.31030273 C31.59263916 47.52598877 31.1064209 46.7416748 30.60546875 45.93359375 C30.04714355 45.06226807 29.48881836 44.19094238 28.91357422 43.29321289 C28.05916748 41.87963501 28.05916748 41.87963501 27.1875 40.4375 C25.96499401 38.5077173 24.74233675 36.57803042 23.51953125 34.6484375 C22.92479004 33.6903418 22.33004883 32.73224609 21.71728516 31.74511719 C19.3506937 27.96206994 16.87077929 24.26099538 14.375 20.5625 C13.61121284 19.41848001 12.84814579 18.27397878 12.0859375 17.12890625 C11.39757812 16.09636719 10.70921875 15.06382812 10 14 C8.68 12.02 7.36 10.04 6 8 C5.67 21.86 5.34 35.72 5 50 C3.35 50 1.7 50 0 50 C0 33.5 0 17 0 0 Z " fill="#312D2E" transform="translate(465,440)"/>
<path d="M0 0 C1.0828125 -0.01417969 2.165625 -0.02835938 3.28125 -0.04296875 C6.65198705 0.19838257 9.3530049 0.98841904 12.5 2.1875 C12.5 2.8475 12.5 3.5075 12.5 4.1875 C13.2425 4.414375 13.985 4.64125 14.75 4.875 C19.95467068 7.35904737 22.2559891 12.05833223 24.5 17.1875 C27.04987915 25.76436623 25.47075316 33.35629237 21.5 41.1875 C18.12232095 46.49528137 12.79755854 51.13827683 6.75 53.0625 C5.6775 53.10375 4.605 53.145 3.5 53.1875 C2.13488281 53.27837891 2.13488281 53.27837891 0.7421875 53.37109375 C-7.17067585 53.69831742 -12.43484036 52.81025007 -18.40234375 47.4921875 C-24.17587184 41.46232941 -27.62457679 34.53481116 -27.9375 26.125 C-27.47317668 16.85304368 -24.23771982 10.53679251 -17.5 4.1875 C-12.2058231 0.18458576 -6.47056305 0.03851526 0 0 Z M-19.37109375 13.40625 C-23.08820205 19.27130669 -22.14010944 27.95996404 -21.14453125 34.53515625 C-19.34116954 40.62301489 -15.00177481 45.18232889 -9.5 48.1875 C-2.49458641 49.67349682 3.78824891 49.07583662 10.125 45.6875 C15.64784434 41.86957313 17.4477458 37.3442626 19.5 31.1875 C20.18894086 23.99298901 20.44535897 17.80160707 15.99609375 11.83984375 C11.80762874 7.21394114 8.30229786 4.54765554 1.984375 3.94921875 C-7.61228496 3.68873798 -13.21666308 6.02764102 -19.37109375 13.40625 Z " fill="#3A3637" transform="translate(833.5,513.8125)"/>
<path d="M0 0 C6.36822725 4.02016581 12.22858279 8.76716246 14.09765625 16.32421875 C15.14058965 25.02447897 15.23793943 32.84938807 9.94140625 40.26953125 C4.56239941 46.26393294 -1.1416845 49.9033568 -9.3046875 50.625 C-18.25881766 50.6546822 -23.79848846 50.34853415 -30.58984375 44.19921875 C-37.37142525 36.83723163 -38.588927 29.83701447 -38.28125 19.921875 C-37.57937483 13.25767882 -35.59061159 8.57707392 -30.65234375 4.01171875 C-29.42735812 3.08197278 -28.17666426 2.18510468 -26.90234375 1.32421875 C-26.30550781 0.91042969 -25.70867188 0.49664062 -25.09375 0.0703125 C-17.35044159 -4.54991518 -7.88464679 -4.07826558 0 0 Z M-29.5625 10.26953125 C-33.70393173 16.52205491 -33.8637519 23.03970312 -32.90234375 30.32421875 C-31.36433518 36.35483131 -27.30008059 40.87369968 -22.59375 44.8046875 C-17.50166745 47.67960784 -12.52455096 47.36794534 -6.90234375 46.32421875 C0.85662279 43.69986242 4.65872091 38.85367009 8.41015625 31.88671875 C10.25207301 25.02139264 9.12896781 18.6479661 6.09765625 12.32421875 C3.00379971 7.60585936 -0.42533668 4.01711184 -5.90234375 2.32421875 C-15.94196815 1.02278596 -22.88526434 2.44538217 -29.5625 10.26953125 Z " fill="#363233" transform="translate(834.90234375,440.67578125)"/>
<path d="M0 0 C25 0 25 0 28 1 C28 1.66 28 2.32 28 3 C29.0209375 3.309375 29.0209375 3.309375 30.0625 3.625 C35.22164986 6.03992121 39.59576404 9.29782814 41.9375 14.625 C44.48048212 22.86994825 43.76601037 31.33347888 40 39 C36.73075647 44.72117619 30.7986342 47.30534058 25 50 C16.90901413 52.02274647 8.33999734 51 0 51 C0 34.17 0 17.34 0 0 Z M5 5 C5 18.53 5 32.06 5 46 C20.75967423 47.51318679 20.75967423 47.51318679 31.40625 40.82421875 C31.9321875 40.22222656 32.458125 39.62023437 33 39 C33.5259375 38.53207031 34.051875 38.06414063 34.59375 37.58203125 C38.53594493 33.14706195 38.53965469 27.72689276 38.44921875 22.078125 C37.53423223 15.80847821 33.82507777 11.69774676 29.3125 7.5 C21.54244774 2.4599661 15.99494132 5 5 5 Z " fill="#343031" transform="translate(170,590)"/>
<path d="M0 0 C-0.144375 0.64582031 -0.28875 1.29164063 -0.4375 1.95703125 C-2.34750843 11.65297683 -2.18512578 21.16776424 -2 31 C-2.89460938 31.06058594 -3.78921875 31.12117187 -4.7109375 31.18359375 C-5.92007813 31.26738281 -7.12921875 31.35117187 -8.375 31.4375 C-10.15003906 31.55931641 -10.15003906 31.55931641 -11.9609375 31.68359375 C-16.64960538 32.02916326 -21.32400617 32.51527156 -26 33 C-26.02473868 29.06731133 -26.04287835 25.13465287 -26.05493164 21.2019043 C-26.06242729 19.20685232 -26.07513345 17.21182214 -26.08789062 15.21679688 C-26.09111328 13.96318359 -26.09433594 12.70957031 -26.09765625 11.41796875 C-26.10289307 10.26063232 -26.10812988 9.1032959 -26.11352539 7.91088867 C-26 5 -26 5 -25 2 C-8.29157175 -0.29612756 -8.29157175 -0.29612756 0 0 Z " fill="#52B087" transform="translate(244,483)"/>
<path d="M0 0 C10.56 0 21.12 0 32 0 C32 1.65 32 3.3 32 5 C23.42 5 14.84 5 6 5 C6 10.61 6 16.22 6 22 C13.92 22 21.84 22 30 22 C30 23.65 30 25.3 30 27 C22.08 27 14.16 27 6 27 C6 33.27 6 39.54 6 46 C14.91 46 23.82 46 33 46 C33 47.65 33 49.3 33 51 C22.11 51 11.22 51 0 51 C0 34.17 0 17.34 0 0 Z " fill="#423E3F" transform="translate(497,590)"/>
<path d="M0 0 C10.56 0 21.12 0 32 0 C32 1.65 32 3.3 32 5 C23.09 5 14.18 5 5 5 C5 10.61 5 16.22 5 22 C13.25 22 21.5 22 30 22 C30 23.65 30 25.3 30 27 C21.75 27 13.5 27 5 27 C5 33.27 5 39.54 5 46 C14.24 46 23.48 46 33 46 C33 47.65 33 49.3 33 51 C22.11 51 11.22 51 0 51 C0 34.17 0 17.34 0 0 Z " fill="#3B3738" transform="translate(279,590)"/>
<path d="M0 0 C10.56 0 21.12 0 32 0 C32 1.65 32 3.3 32 5 C23.09 5 14.18 5 5 5 C5 10.61 5 16.22 5 22 C13.25 22 21.5 22 30 22 C30 23.65 30 25.3 30 27 C21.75 27 13.5 27 5 27 C5 33.27 5 39.54 5 46 C13.91 46 22.82 46 32 46 C32 47.65 32 49.3 32 51 C21.44 51 10.88 51 0 51 C0 34.17 0 17.34 0 0 Z " fill="#3B3839" transform="translate(675,590)"/>
<path d="M0 0 C10.23 0 20.46 0 31 0 C31 1.65 31 3.3 31 5 C22.42 5 13.84 5 5 5 C5 10.94 5 16.88 5 23 C13.25 23 21.5 23 30 23 C30 24.32 30 25.64 30 27 C21.75 27 13.5 27 5 27 C5 33.6 5 40.2 5 47 C13.91 47 22.82 47 32 47 C32 48.65 32 50.3 32 52 C21.44 52 10.88 52 0 52 C0 34.84 0 17.68 0 0 Z " fill="#3E3A3B" transform="translate(655,514)"/>
<path d="M0 0 C0 0.66 0 1.32 0 2 C0.804375 2.2475 1.60875 2.495 2.4375 2.75 C5 4 5 4 5.8125 6.125 C5.874375 6.74375 5.93625 7.3625 6 8 C4.02 8.99 4.02 8.99 2 10 C0.2925002 8.71937515 -1.37373596 7.38232443 -3 6 C-3 5.34 -3 4.68 -3 4 C-11.41952655 3.5742936 -17.8331776 3.26719276 -25 8 C-29.08748147 11.71861119 -30.7067794 15.58171826 -31.36328125 20.99609375 C-31.71085901 29.42733706 -30.15023591 36.22393487 -24.5234375 42.69921875 C-20.21528317 46.37771975 -13.83560729 46.42679191 -8.43359375 46.328125 C-4.5482262 45.80425522 -2.20823977 44.22612556 1 42 C1.99 41.34 2.98 40.68 4 40 C4.99 40.33 5.98 40.66 7 41 C6.61222896 43.39805772 6.31265274 44.69575191 4.546875 46.4140625 C3.95390625 46.81367187 3.3609375 47.21328125 2.75 47.625 C2.16734375 48.02976562 1.5846875 48.43453125 0.984375 48.8515625 C-5.47231846 52.58831029 -11.97507329 53.03994135 -19.24609375 51.53515625 C-27.35760154 48.86294413 -32.13842811 43.5400529 -36.0546875 36.1484375 C-38.74226847 30.04029894 -39.09315838 22.95411003 -37.31640625 16.52734375 C-33.93254601 8.34149097 -28.9542099 2.82980477 -21 -1 C-14.00504672 -3.1599958 -6.80668175 -2.36754148 0 0 Z " fill="#413E3F" transform="translate(482,515)"/>
<path d="M0 0 C1.91796875 1.31640625 1.91796875 1.31640625 4.60546875 3.94140625 C4.60546875 4.60140625 4.60546875 5.26140625 4.60546875 5.94140625 C3.94546875 5.94140625 3.28546875 5.94140625 2.60546875 5.94140625 C2.60546875 6.60140625 2.60546875 7.26140625 2.60546875 7.94140625 C0.45895929 7.48143994 -1.29385156 6.99767477 -3.21875 5.921875 C-5.77465881 4.77010999 -7.66249076 4.64155123 -10.45703125 4.62890625 C-11.31425781 4.61214844 -12.17148438 4.59539063 -13.0546875 4.578125 C-15.4281798 4.77077651 -15.4281798 4.77077651 -17.171875 6.18359375 C-18.69546174 8.37405393 -18.85870051 9.72295276 -18.89453125 12.37890625 C-18.92546875 13.14074219 -18.95640625 13.90257812 -18.98828125 14.6875 C-18.0894595 18.09947467 -16.32087311 19.05990591 -13.39453125 20.94140625 C-9.8615877 22.33353979 -6.29192884 23.45407468 -2.671875 24.59765625 C0.67777904 25.97105433 2.35960065 27.14080334 4.60546875 29.94140625 C6.37985552 35.26456656 6.4103745 40.08662343 4.16796875 45.25390625 C-0.30216521 49.94209553 -5.55082078 52.10967751 -12.01953125 52.44140625 C-16.7115643 52.22813202 -19.54589441 50.5584793 -23.39453125 47.94140625 C-24.38453125 47.28140625 -25.37453125 46.62140625 -26.39453125 45.94140625 C-25.73453125 44.62140625 -25.07453125 43.30140625 -24.39453125 41.94140625 C-23.07453125 41.94140625 -21.75453125 41.94140625 -20.39453125 41.94140625 C-19.87890625 42.60140625 -19.36328125 43.26140625 -18.83203125 43.94140625 C-14.8905144 47.17547136 -10.30501472 46.39871845 -5.39453125 45.94140625 C-2.37158333 45.26367489 -2.37158333 45.26367489 -1.20703125 43.25390625 C-0.15155356 40.24985436 0.00109026 38.10637836 -0.39453125 34.94140625 C-3.46899829 30.98302994 -7.18350838 29.70403456 -11.76953125 28.12890625 C-16.89705333 26.20139134 -21.33573908 24.4664033 -24.57421875 19.86328125 C-26.6619343 14.97206196 -25.9118131 10.55410849 -24.33203125 5.62890625 C-18.84243483 -1.98569523 -8.54437008 -3.77736426 0 0 Z " fill="#393536" transform="translate(113.39453125,590.05859375)"/>
<path d="M0 0 C10.23 0 20.46 0 31 0 C31 1.32 31 2.64 31 4 C22.42 4 13.84 4 5 4 C5 9.61 5 15.22 5 21 C12.92 21 20.84 21 29 21 C29 22.65 29 24.3 29 26 C21.08 26 13.16 26 5 26 C5 32.6 5 39.2 5 46 C13.91 46 22.82 46 32 46 C32 47.32 32 48.64 32 50 C21.44 50 10.88 50 0 50 C0 33.5 0 17 0 0 Z " fill="#343031" transform="translate(560,440)"/>
<path d="M0 0 C0.515625 0.433125 1.03125 0.86625 1.5625 1.3125 C1.2325 2.6325 0.9025 3.9525 0.5625 5.3125 C-2.4375 5.3125 -2.4375 5.3125 -4.9375 3.3125 C-9.35572794 0.20541701 -14.26954279 0.82353753 -19.4375 1.3125 C-25.04529056 2.30743058 -27.74659917 3.98887332 -31.4375 8.3125 C-35.14496185 13.87369277 -35.00760381 20.79258547 -34.4375 27.3125 C-32.74399373 32.66041454 -30.40592241 36.43426901 -26.4375 40.3125 C-20.83391728 42.7780764 -14.4682804 43.32183563 -8.4375 42.3125 C-5.11998211 40.66570901 -2.28350764 38.67363227 0.5625 36.3125 C1.5525 36.9725 2.5425 37.6325 3.5625 38.3125 C2.04910052 42.55001854 -0.62741209 44.11437236 -4.4375 46.3125 C-11.27421126 49.42009603 -18.5208988 49.24747794 -25.5625 46.875 C-32.35007551 43.84998603 -37.40193103 38.26296528 -40.4375 31.5 C-42.76674355 23.71014574 -42.3323794 16.39603094 -39 9 C-35.70868917 3.04280558 -31.13473753 -2.03711924 -24.55859375 -4.34765625 C-15.41164875 -5.81318887 -7.6565434 -5.30068389 0 0 Z " fill="#3C393A" transform="translate(485.4375,593.6875)"/>
<path d="M0 0 C0 11.55 0 23.1 0 35 C-2.475 35.495 -2.475 35.495 -5 36 C-6.95703125 34.59375 -6.95703125 34.59375 -8.8125 32.5 C-13.96626794 26.94754435 -19.24906194 21.58643584 -26 18 C-26 20.97 -26 23.94 -26 27 C-26.33 27 -26.66 27 -27 27 C-27 24.03 -27 21.06 -27 18 C-28.32 18.99 -29.64 19.98 -31 21 C-31.66 20.67 -32.32 20.34 -33 20 C-10.19197708 0 -10.19197708 0 0 0 Z " fill="#CB484D" transform="translate(160,506)"/>
<path d="M0 0 C-0.33 9.9 -0.66 19.8 -1 30 C2.3 29.34 5.6 28.68 9 28 C11.66569325 27.92795424 14.33516044 27.90130224 17 28 C13.46440421 30.12135748 10.03238853 30.6439865 6 31 C5.13391113 31.13317627 4.26782227 31.26635254 3.37548828 31.40356445 C-1.51096863 31.85752208 -4.75273388 31.83722895 -8.91113281 29.04589844 C-11.80257258 26.3410686 -14.49083243 23.51267293 -17.125 20.5625 C-18.06212865 19.55646483 -19.00221806 18.55317915 -19.9453125 17.55273438 C-21.65743647 15.72986983 -23.3558452 13.89395451 -25.03564453 12.04125977 C-26.83610937 9.9426203 -26.83610937 9.9426203 -29 9 C-29 8.01 -29 7.02 -29 6 C-24.33762763 4.65105519 -19.67060736 3.32006378 -15 2 C-14.18660156 1.76539063 -13.37320313 1.53078125 -12.53515625 1.2890625 C-8.02360092 0.05620184 -4.90553848 0 0 0 Z " fill="#82C99F" transform="translate(219,486)"/>
<path d="M0 0 C1.2065625 0.0309375 1.2065625 0.0309375 2.4375 0.0625 C0.09880881 9.87137956 -3.76185794 19.14897046 -7.55322266 28.4621582 C-10.20330607 35.0251874 -12.51488604 41.64104713 -14.65234375 48.38671875 C-15.5625 51.0625 -15.5625 51.0625 -16.5625 52.0625 C-18.56208364 52.10330783 -20.56295254 52.10504356 -22.5625 52.0625 C-22.98660156 50.81597656 -23.41070313 49.56945312 -23.84765625 48.28515625 C-26.76753783 39.78178889 -29.75757128 31.34961901 -33.25 23.0625 C-40.5625 5.70695983 -40.5625 5.70695983 -40.5625 1.0625 C-38.9125 1.0625 -37.2625 1.0625 -35.5625 1.0625 C-32.32857224 8.57622151 -29.40106237 16.15049451 -26.6875 23.8671875 C-25.36583533 27.6210823 -23.9739092 31.3415121 -22.5625 35.0625 C-21.99943132 36.56228662 -21.43692711 38.06228529 -20.875 39.5625 C-20.441875 40.7175 -20.00875 41.8725 -19.5625 43.0625 C-16.32152959 35.61974052 -13.47196413 28.11201542 -10.80541992 20.44946289 C-3.70673542 0.09040818 -3.70673542 0.09040818 0 0 Z " fill="#393637" transform="translate(645.5625,513.9375)"/>
<path d="M0 0 C0 12.54 0 25.08 0 38 C-3.97535941 37.00616015 -5.60623307 36.03333643 -8.75 33.5625 C-9.54921875 32.94503906 -10.3484375 32.32757812 -11.171875 31.69140625 C-11.77515625 31.13324219 -12.3784375 30.57507813 -13 30 C-13 29.34 -13 28.68 -13 28 C-13.99 27.690625 -13.99 27.690625 -15 27.375 C-19.11606263 25.48847129 -22.4587703 22.79432021 -26 20 C-25.11054688 19.84917969 -25.11054688 19.84917969 -24.203125 19.6953125 C-21.59675263 18.87273398 -20.59286163 17.86994244 -18.75 15.875 C-15.03518758 11.99314034 -11.08720294 8.48322356 -7 5 C-6.10667969 4.23236328 -6.10667969 4.23236328 -5.1953125 3.44921875 C-1.13397887 0 -1.13397887 0 0 0 Z " fill="#0592BB" transform="translate(371,522)"/>
<path d="M0 0 C13.2 0 26.4 0 40 0 C40 1.65 40 3.3 40 5 C34.39 5 28.78 5 23 5 C23 20.18 23 35.36 23 51 C21.02 51 19.04 51 17 51 C17 35.82 17 20.64 17 5 C11.39 5 5.78 5 0 5 C0 3.35 0 1.7 0 0 Z " fill="#464344" transform="translate(586,590)"/>
<path d="M0 0 C3.13671875 -0.54296875 3.13671875 -0.54296875 7 0 C9.50843354 2.55659795 11.10276936 5.55982632 12.8125 8.6875 C13.52696289 9.91243164 13.52696289 9.91243164 14.25585938 11.16210938 C16.46959437 15.00734526 18.52106112 18.8025492 20 23 C20.66 23 21.32 23 22 23 C22.21527344 22.35546875 22.43054688 21.7109375 22.65234375 21.046875 C24.52187066 16.8201185 27.02518455 13.10308083 29.5625 9.25 C30.06974609 8.47011719 30.57699219 7.69023438 31.09960938 6.88671875 C34.83828712 1.16171288 34.83828712 1.16171288 36 0 C37.99958364 -0.04080783 40.00045254 -0.04254356 42 0 C40.47171566 3.2093504 38.6864228 6.17084154 36.77734375 9.16796875 C35.84631836 10.63073242 35.84631836 10.63073242 34.89648438 12.12304688 C34.25001953 13.13431641 33.60355469 14.14558594 32.9375 15.1875 C32.28716797 16.21037109 31.63683594 17.23324219 30.96679688 18.28710938 C26.1334707 25.8665293 26.1334707 25.8665293 25 27 C24.84235595 28.77869726 24.74899323 30.56318476 24.68359375 32.34765625 C24.64169922 33.42724609 24.59980469 34.50683594 24.55664062 35.61914062 C24.51732422 36.75544922 24.47800781 37.89175781 24.4375 39.0625 C24.39431641 40.20267578 24.35113281 41.34285156 24.30664062 42.51757812 C24.20017161 45.34492195 24.09815793 48.17235738 24 51 C22.02 51 20.04 51 18 51 C18.05349609 50.39865234 18.10699219 49.79730469 18.16210938 49.17773438 C19.46945061 30.57975105 13.94783264 19.62488176 2.56640625 5.1628418 C1 3 1 3 0 0 Z " fill="#3C3839" transform="translate(314,590)"/>
<path d="M0 0 C3.39427951 0.73982366 4.8758378 1.55491179 7.25 4.125 C10.40997003 7.43447399 13.73532585 10.4355285 17.19921875 13.421875 C19.2242219 15.19649815 21.13545857 17.05776935 23 19 C22.4946875 19.29132812 21.989375 19.58265625 21.46875 19.8828125 C19.46497803 21.1470972 17.70261567 22.34859082 16 24 C15.4136018 27.21276343 15.4136018 27.21276343 16 30 C15.34 29.67 14.68 29.34 14 29 C14 28.34 14 27.68 14 27 C10.3397193 29.05728543 7.33536674 31.34544238 4.25 34.1875 C0.1009009 38 0.1009009 38 -1 38 C-1.02497729 34.0347593 -1.0429894 30.06954995 -1.05493164 26.10424805 C-1.06235104 24.10268542 -1.07506659 22.10114467 -1.08789062 20.09960938 C-1.10499609 13.30874075 -0.93798004 6.72834499 0 0 Z " fill="#AA2963" transform="translate(134,524)"/>
<path d="M0 0 C0.99 0.33 1.98 0.66 3 1 C2.67 12.55 2.34 24.1 2 36 C-0.31 34.68 -2.62 33.36 -5 32 C-8.82324656 32.12688235 -8.82324656 32.12688235 -12 33 C-11.67 31.68 -11.34 30.36 -11 29 C-11.66 28.67 -12.32 28.34 -13 28 C-13 27.34 -13 26.68 -13 26 C-15.64 25.34 -18.28 24.68 -21 24 C-21 20 -21 20 -19.75 18.32421875 C-19.1725 17.78410156 -18.595 17.24398437 -18 16.6875 C-17.36191406 16.08421875 -16.72382813 15.4809375 -16.06640625 14.859375 C-13.38262352 12.44447787 -10.66869243 10.06749426 -7.93359375 7.7109375 C-5.16155106 5.25809972 -2.58428299 2.64889006 0 0 Z " fill="#94BDD0" transform="translate(342,505)"/>
<path d="M0 0 C7.18739816 2.8475787 12.94988389 10.52018562 17.05078125 16.8125 C17.05078125 17.4725 17.05078125 18.1325 17.05078125 18.8125 C3.85078125 18.8125 -9.34921875 18.8125 -22.94921875 18.8125 C-21.91390549 14.67124696 -21.81636397 14.30406828 -18.640625 12.015625 C-17.97611328 11.53222656 -17.31160156 11.04882812 -16.62695312 10.55078125 C-15.92892578 10.05964844 -15.23089844 9.56851563 -14.51171875 9.0625 C-13.81755859 8.55589844 -13.12339844 8.04929687 -12.40820312 7.52734375 C-7.23645974 3.8125 -7.23645974 3.8125 -4.94921875 3.8125 C-4.94921875 3.1525 -4.94921875 2.4925 -4.94921875 1.8125 C-1.94921875 -0.1875 -1.94921875 -0.1875 0 0 Z " fill="#2A82C3" transform="translate(397.94921875,548.1875)"/>
<path d="M0 0 C12.87 0 25.74 0 39 0 C39 1.65 39 3.3 39 5 C33.39 5 27.78 5 22 5 C22 20.51 22 36.02 22 52 C20.35 52 18.7 52 17 52 C17 36.82 17 21.64 17 6 C11.39 6 5.78 6 0 6 C0 4.02 0 2.04 0 0 Z " fill="#433F40" transform="translate(744,514)"/>
<path d="M0 0 C4.70686179 1.17671545 5.94548966 2.65998488 9.25 6.125 C13.13785567 10.15527754 17.08925263 13.9270224 21.44140625 17.46484375 C23.16923835 19.16669341 24.03948531 20.78747114 25 23 C24.44570312 23.26554688 23.89140625 23.53109375 23.3203125 23.8046875 C22.59585938 24.15789063 21.87140625 24.51109375 21.125 24.875 C20.40570313 25.22304688 19.68640625 25.57109375 18.9453125 25.9296875 C16.84864981 26.96557543 16.84864981 26.96557543 15 29 C14.38382813 29.15339844 13.76765625 29.30679688 13.1328125 29.46484375 C10.64909952 30.08804646 8.99911796 31.14507527 6.875 32.5625 C3.21529745 35 3.21529745 35 1 35 C0.505 17.675 0.505 17.675 0 0 Z " fill="#C291A1" transform="translate(159,505)"/>
<path d="M0 0 C2.6796875 -0.4765625 2.6796875 -0.4765625 6 0 C8.1912585 2.24756493 9.60823819 4.89291484 11.125 7.625 C11.96028449 9.05506911 12.79621294 10.48476231 13.6328125 11.9140625 C14.02758789 12.6040332 14.42236328 13.29400391 14.82910156 14.00488281 C16.44127151 16.75189133 18.20114483 19.37217932 20 22 C22.49446891 19.07807514 24.61309176 16.07885779 26.5859375 12.79296875 C27.04226562 12.04208984 27.49859375 11.29121094 27.96875 10.51757812 C28.91284433 8.95326627 29.84240758 7.38009961 30.7578125 5.79882812 C32.06377604 3.68030581 33.2701581 1.7905077 35 0 C38.3515625 -0.51171875 38.3515625 -0.51171875 41 0 C39.66394757 3.754245 37.99076212 6.56523481 35.55859375 9.7109375 C25.41254201 23.48802698 21.56416524 33.85387979 23 51 C21.35 51 19.7 51 18 51 C18.0220752 50.38181396 18.04415039 49.76362793 18.06689453 49.12670898 C18.41886604 35.08043846 17.44238759 25.47158331 8.296875 14.56201172 C6.35278806 12.22047026 4.61969362 9.74190872 2.875 7.25 C2.31554687 6.49203125 1.75609375 5.7340625 1.1796875 4.953125 C0 3 0 3 0 0 Z " fill="#353233" transform="translate(123,590)"/>
<path d="M0 0 C4.65723245 2.70691128 8.93045432 5.80967199 13.26171875 9.00390625 C15.53910574 10.66402715 17.84709955 12.2442887 20.1875 13.8125 C21.5796875 14.8953125 21.5796875 14.8953125 23 16 C23 16.99 23 17.98 23 19 C10.13 19 -2.74 19 -16 19 C-15 15 -15 15 -13 12 C-12.01 12 -11.02 12 -10 12 C-9.75507812 11.42765625 -9.51015625 10.8553125 -9.2578125 10.265625 C-7.78889901 7.61975598 -6.04651756 5.85146861 -3.875 3.75 C-3.15054688 3.04359375 -2.42609375 2.3371875 -1.6796875 1.609375 C-1.12539062 1.07828125 -0.57109375 0.5471875 0 0 Z " fill="#AA2E3F" transform="translate(106,548)"/>
<path d="M0 0 C0.33 0.66 0.66 1.32 1 2 C1.58974609 2.28294922 2.17949219 2.56589844 2.78710938 2.85742188 C5.5331839 4.27529795 7.25553656 6.06396246 9.40625 8.28125 C10.23253906 9.12300781 11.05882812 9.96476562 11.91015625 10.83203125 C14.5 13.5 14.5 13.5 17.08984375 16.16796875 C17.91613281 17.00972656 18.74242187 17.85148437 19.59375 18.71875 C20.34333984 19.49154297 21.09292969 20.26433594 21.86523438 21.06054688 C23.85284501 22.86630841 25.54420166 23.95705054 28 25 C25.79204578 25.48091058 23.583619 25.95965179 21.375 26.4375 C20.14523438 26.70433594 18.91546875 26.97117187 17.6484375 27.24609375 C14.43982928 27.90911451 11.23552432 28.48729384 8 29 C8 29.66 8 30.32 8 31 C4.04 31.495 4.04 31.495 0 32 C0 21.44 0 10.88 0 0 Z " fill="#A2C7BD" transform="translate(189,493)"/>
<path d="M0 0 C0.99 0.33 1.98 0.66 3 1 C3 11.56 3 22.12 3 33 C-7.00075131 30.77761082 -7.00075131 30.77761082 -10.625 28.9375 C-14.48677149 27.1118119 -17.75426461 26.36133918 -22 26 C-20.91286132 22.73858395 -20.31971975 22.20884837 -17.75 20.125 C-13.67095424 16.6563224 -9.81498352 13.0035858 -6 9.25 C-5.41186523 8.68297363 -4.82373047 8.11594727 -4.21777344 7.53173828 C-2.75232827 6.07882937 -1.36891227 4.54419981 0 3 C0 2.01 0 1.02 0 0 Z " fill="#94BE97" transform="translate(312,492)"/>
<path d="M0 0 C15.69578193 -0.91967472 15.69578193 -0.91967472 21.35546875 3.4453125 C27.87737637 9.61091638 30.97188597 14.44404643 31.4375 23.625 C31.28816546 31.12906058 29.20777218 38.13695844 24.35546875 43.98046875 C19.59308081 48.33434485 14.22089523 51.13206868 7.6875 51.25 C4 51 4 51 2 50 C2 49.34 2 48.68 2 48 C4.64 48 7.28 48 10 48 C10 47.34 10 46.68 10 46 C11.32 46 12.64 46 14 46 C14 45.34 14 44.68 14 44 C14.9075 43.4225 15.815 42.845 16.75 42.25 C20.62046953 39.57044417 23.44963487 36.83557685 24.38183594 32.03271484 C24.53693191 29.86187803 24.54616629 27.73808622 24.5 25.5625 C24.52320313 24.47485352 24.52320313 24.47485352 24.546875 23.36523438 C24.50702132 17.82059133 23.21915149 14.52797606 20 10 C14.08346139 4.78929407 7.75812643 3.0330133 0 3 C0 2.01 0 1.02 0 0 Z " fill="#3A3637" transform="translate(515,515)"/>
<path d="M0 0 C12.54 0 25.08 0 38 0 C38 1.32 38 2.64 38 4 C32.72 4 27.44 4 22 4 C22 19.18 22 34.36 22 50 C20.35 50 18.7 50 17 50 C17 34.82 17 19.64 17 4 C11.39 4 5.78 4 0 4 C0 2.68 0 1.36 0 0 Z " fill="#2D292A" transform="translate(735,440)"/>
<path d="M0 0 C12.54 0 25.08 0 38 0 C38 1.32 38 2.64 38 4 C32.39 4 26.78 4 21 4 C21 19.18 21 34.36 21 50 C19.35 50 17.7 50 16 50 C16 34.82 16 19.64 16 4 C10.72 4 5.44 4 0 4 C0 2.68 0 1.36 0 0 Z " fill="#302D2D" transform="translate(514,440)"/>
<path d="M0 0 C3.526875 -0.12375 3.526875 -0.12375 7.125 -0.25 C7.85348145 -0.28641602 8.58196289 -0.32283203 9.33251953 -0.36035156 C14.39465169 -0.44547556 17.09432104 0.88970247 21 4 C22.82494235 5.82494235 22.40198167 8.35400841 22.62109375 10.796875 C21.80488447 13.69210792 20.20036203 15.20457348 17.84692383 17.01416016 C14.52630141 18.78662193 11.29596582 18.52654496 7.625 18.3125 C5.10875 18.209375 2.5925 18.10625 0 18 C0 12.06 0 6.12 0 0 Z " fill="#F2F2F2" transform="translate(605,444)"/>
<path d="M0 0 C3.526875 -0.12375 3.526875 -0.12375 7.125 -0.25 C7.85348145 -0.28641602 8.58196289 -0.32283203 9.33251953 -0.36035156 C14.37149143 -0.4450861 17.2339887 0.69607598 21 4 C21.99929347 6.75074331 21.6859897 9.1746526 21 12 C18.7874809 15.00270449 16.43791385 16.6342534 13 18 C9.765625 18.1953125 9.765625 18.1953125 6.25 18.125 C3.15625 18.063125 3.15625 18.063125 0 18 C0 12.06 0 6.12 0 0 Z " fill="#F6F6F6" transform="translate(638,595)"/>
<path d="M0 0 C1.98 0 3.96 0 6 0 C6 17.16 6 34.32 6 52 C4.02 52 2.04 52 0 52 C0 34.84 0 17.68 0 0 Z " fill="#636060" transform="translate(790,514)"/>
<path d="M0 0 C0.66 0 1.32 0 2 0 C3.11180729 2.45511419 4.21443503 4.91374371 5.3125 7.375 C5.62123047 8.05433594 5.92996094 8.73367188 6.24804688 9.43359375 C8.69421361 14.94390619 10.23308934 20.11029781 12 26 C5.07 26 -1.86 26 -9 26 C-8.29173971 21.75043824 -7.77819253 19.02710257 -6.1875 15.25 C-5.65962891 13.97769531 -5.65962891 13.97769531 -5.12109375 12.6796875 C-4.75113281 11.79539062 -4.38117187 10.91109375 -4 10 C-3.24692003 8.12623492 -2.49679143 6.25128025 -1.75 4.375 C-1.16666667 2.91666667 -0.58333333 1.45833333 0 0 Z " fill="#EEEEEE" transform="translate(714,446)"/>
<path d="M0 0 C3.69422994 3.35576197 5.20912587 7.37446718 7.1875 11.875 C7.55552734 12.67808594 7.92355469 13.48117187 8.30273438 14.30859375 C8.65013672 15.09105469 8.99753906 15.87351562 9.35546875 16.6796875 C9.82956177 17.74292236 9.82956177 17.74292236 10.31323242 18.82763672 C11 21 11 21 11 26 C4.07 26 -2.86 26 -10 26 C-8.08612848 20.25838543 -6.14773582 14.65297329 -3.875 9.0625 C-3.47861328 8.07540039 -3.47861328 8.07540039 -3.07421875 7.06835938 C-2.10990845 4.67716352 -1.15357874 2.30715749 0 0 Z " fill="#EFEFEF" transform="translate(931,446)"/>
<path d="M0 0 C1.32 0 2.64 0 4 0 C4 15.18 4 30.36 4 46 C11.92 46 19.84 46 28 46 C28 47.32 28 48.64 28 50 C18.76 50 9.52 50 0 50 C0 33.5 0 17 0 0 Z " fill="#282526" transform="translate(964,440)"/>
<path d="M0 0 C0.33 0.66 0.66 1.32 1 2 C2.65 2.33 4.3 2.66 6 3 C6 12.57 6 22.14 6 32 C3.03 32 0.06 32 -3 32 C-6.27777124 25.44445752 -4.62373825 12.8372781 -2.5625 6 C-1.81137399 3.90991023 -0.99278849 1.98557698 0 0 Z " fill="#489645" transform="translate(279,483)"/>
<path d="M0 0 C1.48354838 2.96709677 0.29263204 5.18068623 -0.453125 8.26953125 C-1.42638201 13.12886448 -1.68244282 18.06115012 -2 23 C-7.52981341 18.45326453 -12.54606882 13.50318104 -17.546875 8.390625 C-19.95535698 5.89727164 -19.95535698 5.89727164 -23 4 C-23 3.34 -23 2.68 -23 2 C-15.41 1.34 -7.82 0.68 0 0 Z " fill="#249769" transform="translate(243,484)"/>
<path d="M0 0 C1.65 0 3.3 0 5 0 C5 16.5 5 33 5 50 C3.35 50 1.7 50 0 50 C0 33.5 0 17 0 0 Z " fill="#2F2B2C" transform="translate(781,440)"/>
<path d="M0 0 C1.65 0 3.3 0 5 0 C5 16.5 5 33 5 50 C3.35 50 1.7 50 0 50 C0 33.5 0 17 0 0 Z " fill="#2E2A2B" transform="translate(447,440)"/>
<path d="M0 0 C0.99 0 1.98 0 3 0 C3 15.84 3 31.68 3 48 C2.01 48 1.02 48 0 48 C0 32.16 0 16.32 0 0 Z " fill="#242021" transform="translate(792,516)"/>
<path d="M0 0 C2.125 0.375 2.125 0.375 4 1 C3.61256127 3.45552385 3.30405354 4.71075932 1.4765625 6.44921875 C0.86554688 6.85785156 0.25453125 7.26648438 -0.375 7.6875 C-1.28378906 8.31205078 -1.28378906 8.31205078 -2.2109375 8.94921875 C-8.20545454 12.47001588 -15.45520503 11.09079916 -22 10 C-22 9.01 -22 8.02 -22 7 C-21.14277344 6.97421875 -20.28554688 6.9484375 -19.40234375 6.921875 C-11.32545356 6.52121754 -5.88379487 5.88379487 0 0 Z " fill="#383435" transform="translate(485,555)"/>
<path d="M0 0 C8.89959434 -0.3945633 14.50544011 0.00362674 22 5 C22 5.99 22 6.98 22 8 C20.02 8.99 20.02 8.99 18 10 C16.2925002 8.71937515 14.62626404 7.38232443 13 6 C13 5.34 13 4.68 13 4 C8.71 3.67 4.42 3.34 0 3 C0 2.01 0 1.02 0 0 Z " fill="#363233" transform="translate(466,515)"/>
<path d="M0 0 C5.28 0 10.56 0 16 0 C15.67 0.99 15.34 1.98 15 3 C10.05 3 5.1 3 0 3 C0 2.01 0 1.02 0 0 Z " fill="#393536" transform="translate(825,562)"/>
<path d="M0 0 C2.0625 0.4375 2.0625 0.4375 4 1 C3.61479436 3.53910197 3.29902057 4.72751123 1.37109375 6.484375 C0.73300781 6.90203125 0.09492188 7.3196875 -0.5625 7.75 C-1.20316406 8.17796875 -1.84382813 8.6059375 -2.50390625 9.046875 C-3.24447266 9.51867187 -3.24447266 9.51867187 -4 10 C-4.66 9.67 -5.32 9.34 -6 9 C-6 6 -6 6 -3.5625 3.375 C-2.716875 2.59125 -1.87125 1.8075 -1 1 C-0.67 0.67 -0.34 0.34 0 0 Z " fill="#413E3E" transform="translate(485,555)"/>
<path d="M0 0 C4.29 0 8.58 0 13 0 C13 1.32 13 2.64 13 4 C8.71 3.67 4.42 3.34 0 3 C0 2.01 0 1.02 0 0 Z " fill="#2D292A" transform="translate(515,515)"/>
<path d="M0 0 C-1.58667578 3.90285767 -4.13350481 6.33520982 -7.125 9.25 C-8.03507812 10.14203125 -8.94515625 11.0340625 -9.8828125 11.953125 C-10.58148438 12.62859375 -11.28015625 13.3040625 -12 14 C-12.66 13.67 -13.32 13.34 -14 13 C-12.56354149 11.39490066 -11.12579294 9.79095576 -9.6875 8.1875 C-8.88699219 7.29417969 -8.08648437 6.40085937 -7.26171875 5.48046875 C-2.26456693 0 -2.26456693 0 0 0 Z " fill="#474344" transform="translate(267,450)"/>
<path d="M0 0 C-1 2 -2 4 -3 6 C-3.66 6 -4.32 6 -5 6 C-5 8.97 -5 11.94 -5 15 C-5.33 15 -5.66 15 -6 15 C-6 12.03 -6 9.06 -6 6 C-7.32 6.99 -8.64 7.98 -10 9 C-10.66 8.67 -11.32 8.34 -12 8 C-10.37982158 6.66081194 -8.75370657 5.3288031 -7.125 4 C-6.22007812 3.2575 -5.31515625 2.515 -4.3828125 1.75 C-2 0 -2 0 0 0 Z " fill="#C9526D" transform="translate(139,518)"/>
<path d="M0 0 C0.33 0.66 0.66 1.32 1 2 C1.99 2 2.98 2 4 2 C3.82374165 4.37948772 3.30280227 5.70225849 1.59765625 7.37890625 C0.09350908 8.62115486 -1.45129851 9.81376056 -3 11 C-2.44894091 7.0507432 -1.61064629 3.65079826 0 0 Z " fill="#15865B" transform="translate(279,483)"/>
<path d="M0 0 C0 0.99 0 1.98 0 3 C-2.64 3.33 -5.28 3.66 -8 4 C-8 3.34 -8 2.68 -8 2 C-8.99 1.67 -9.98 1.34 -11 1 C-3.57142857 -1.42857143 -3.57142857 -1.42857143 0 0 Z " fill="#2E2A2B" transform="translate(481,637)"/>
<path d="M0 0 C8.91 0 17.82 0 27 0 C26.67 0.66 26.34 1.32 26 2 C25.2886792 1.99476318 24.5773584 1.98952637 23.84448242 1.98413086 C20.62549725 1.96335982 17.40652617 1.95033942 14.1875 1.9375 C13.06794922 1.92912109 11.94839844 1.92074219 10.79492188 1.91210938 C9.72177734 1.90888672 8.64863281 1.90566406 7.54296875 1.90234375 C6.55321045 1.89710693 5.56345215 1.89187012 4.54370117 1.88647461 C1.87607266 1.88930041 1.87607266 1.88930041 -1 3 C-0.67 2.01 -0.34 1.02 0 0 Z " fill="#D4D4D4" transform="translate(702,477)"/>
<path d="M0 0 C-0.33 0.99 -0.66 1.98 -1 3 C-8.75 3.125 -8.75 3.125 -11 2 C-11 1.34 -11 0.68 -11 0 C-3.375 -1.125 -3.375 -1.125 0 0 Z " fill="#2B2728" transform="translate(528,563)"/>
<path d="M0 0 C0.33 0.66 0.66 1.32 1 2 C0.54109375 2.51949219 0.0821875 3.03898438 -0.390625 3.57421875 C-3.68382608 7.31712166 -6.92952189 11.06978801 -10 15 C-10.66 14.67 -11.32 14.34 -12 14 C-10.5645497 12.22750476 -9.12656197 10.45706424 -7.6875 8.6875 C-6.88699219 7.70136719 -6.08648437 6.71523438 -5.26171875 5.69921875 C-3.57311644 3.68397834 -1.90369301 1.80511991 0 0 Z " fill="#BD5766" transform="translate(106,545)"/>
<path d="M0 0 C0.66 0 1.32 0 2 0 C0.59155282 3.21524305 -1.10344786 5.32183868 -3.625 7.75 C-4.57246094 8.67039062 -4.57246094 8.67039062 -5.5390625 9.609375 C-6.02117187 10.06828125 -6.50328125 10.5271875 -7 11 C-7.33 10.34 -7.66 9.68 -8 9 C-6.85459775 7.68712379 -5.70866567 6.37470979 -4.5625 5.0625 C-3.92441406 4.33160156 -3.28632813 3.60070312 -2.62890625 2.84765625 C-1.77458541 1.87860647 -0.91348825 0.91348825 0 0 Z " fill="#D8D7D8" transform="translate(289,471)"/>
<path d="M0 0 C-1.55603771 3.81936528 -3.95604931 6.26044438 -7 9 C-7.66 9 -8.32 9 -9 9 C-7.45665977 5.21180126 -4.44676575 0 0 0 Z " fill="#504C4D" transform="translate(819,517)"/>
<path d="M0 0 C-1.38188453 3.21043882 -2.92421903 5.04936365 -5.625 7.25 C-6.57246094 8.03117188 -6.57246094 8.03117188 -7.5390625 8.828125 C-8.02117187 9.21484375 -8.50328125 9.6015625 -9 10 C-7.6834994 5.81113445 -4.97532335 0 0 0 Z " fill="#524F50" transform="translate(456,518)"/>
<path d="M0 0 C0.94875 0.04125 1.8975 0.0825 2.875 0.125 C2.545 0.785 2.215 1.445 1.875 2.125 C1.2975 2.24875 0.72 2.3725 0.125 2.5 C-2.9120374 3.3436215 -4.76188705 5.09009718 -7.125 7.125 C-4.56730769 0.18269231 -4.56730769 0.18269231 0 0 Z " fill="#535051" transform="translate(353.125,589.875)"/>
<path d="M0 0 C0.66 0.33 1.32 0.66 2 1 C-1.96 4.465 -1.96 4.465 -6 8 C-6 5 -6 5 -4.6875 3.61328125 C-3.125 2.40885417 -1.5625 1.20442708 0 0 Z " fill="#514E4F" transform="translate(808,442)"/>
<path d="M0 0 C-1.28519565 2.86697492 -2.57129254 4.97607712 -5 7 C-5.66 7 -6.32 7 -7 7 C-3.86206897 0 -3.86206897 0 0 0 Z " fill="#D5D4D4" transform="translate(822,521)"/>
<path d="M0 0 C-1.28519565 2.86697492 -2.57129254 4.97607712 -5 7 C-5.66 7 -6.32 7 -7 7 C-3.86206897 0 -3.86206897 0 0 0 Z " fill="#CBCACB" transform="translate(460,521)"/>
<path d="M0 0 C-1.49097658 3.7952131 -3.75700849 5.61042731 -7 8 C-4.18918919 0 -4.18918919 0 0 0 Z " fill="#C7C6C6" transform="translate(459,597)"/>
<path d="M0 0 C-0.33 0.66 -0.66 1.32 -1 2 C-3.97 2 -6.94 2 -10 2 C-6.16991045 -0.55339303 -4.41711378 -1.47237126 0 0 Z " fill="#252122" transform="translate(841,563)"/>
<path d="M0 0 C4.455 0.99 4.455 0.99 9 2 C9 2.33 9 2.66 9 3 C6.03 3 3.06 3 0 3 C0 2.01 0 1.02 0 0 Z " fill="#262223" transform="translate(463,562)"/>
</svg>
