<?xml version="1.0" encoding="UTF-8"?>
<svg version="1.1" xmlns="http://www.w3.org/2000/svg" width="1080" height="1080">
<path d="M0 0 C356.4 0 712.8 0 1080 0 C1080 356.4 1080 712.8 1080 1080 C723.6 1080 367.2 1080 0 1080 C0 723.6 0 367.2 0 0 Z " fill="#FEFEFE" transform="translate(0,0)"/>
<path d="M0 0 C6.6 0 13.2 0 20 0 C20 44.22 20 88.44 20 134 C13.73 134 7.46 134 1 134 C0.67 129.71 0.34 125.42 0 121 C-0.9075 122.03125 -1.815 123.0625 -2.75 124.125 C-10.69861788 132.08977361 -21.62100265 136.03229841 -32.6875 136.25 C-49.00701269 135.92222966 -61.42441518 131.60950667 -72.95288086 119.75415039 C-83.57507426 108.12732462 -86.80773889 93.16935944 -86.28515625 77.796875 C-85.88996854 72.53492356 -84.88095538 67.92119346 -83 63 C-82.69449219 62.18402344 -82.38898438 61.36804688 -82.07421875 60.52734375 C-77.4573825 49.93380311 -68.23504772 40.31096978 -58 35 C-57.22914063 34.59007812 -56.45828125 34.18015625 -55.6640625 33.7578125 C-43.12762835 28.16463419 -27.6191228 30.03163713 -15.0625 34.625 C-10 37 -10 37 -1 45 C-0.67 30.15 -0.34 15.3 0 0 Z " fill="#252122" transform="translate(431,476)"/>
<path d="M0 0 C1.02287109 0.40025391 1.02287109 0.40025391 2.06640625 0.80859375 C8.00046735 3.42143866 12.3002829 7.59401522 17 12 C17.495 5.565 17.495 5.565 18 -1 C24.27 -1 30.54 -1 37 -1 C37 32 37 65 37 99 C30.73 99 24.46 99 18 99 C17.67 94.71 17.34 90.42 17 86 C15.88625 87.216875 14.7725 88.43375 13.625 89.6875 C4.43067595 98.83334783 -7.72288142 102.24674566 -20.4375 102.4375 C-34.41304352 102.35124072 -46.68296672 96.76261559 -56.86328125 87.29296875 C-68.1246257 75.20812562 -71.53834723 60.69024131 -71.27734375 44.65625 C-70.74639555 31.68103815 -64.43519283 18.90984801 -55 10 C-39.70874903 -2.33755634 -18.75816461 -7.83568901 0 0 Z " fill="#272324" transform="translate(815,510)"/>
<path d="M0 0 C2.55743361 2.2045261 4.73109807 4.4844783 7 7 C7.33 3.04 7.66 -0.92 8 -5 C14.27 -5 20.54 -5 27 -5 C27 27.67 27 60.34 27 94 C20.73 94 14.46 94 8 94 C7.67 89.71 7.34 85.42 7 81 C6.38125 81.86625 5.7625 82.7325 5.125 83.625 C-1.27925141 91.23116975 -12.21248992 96.17655876 -21.99951172 97.21142578 C-37.69311976 98.21913962 -51.07671755 95.05300647 -63.5078125 84.96484375 C-73.15005699 75.95996797 -79.76872654 63.97380568 -80.43359375 50.66796875 C-80.45712867 48.84129698 -80.45794163 47.01420901 -80.4375 45.1875 C-80.42920166 44.22481201 -80.42090332 43.26212402 -80.41235352 42.27026367 C-80.07192929 27.86462482 -75.09912558 16.35048218 -65.3125 5.75 C-47.54511606 -10.9540849 -20.49773673 -13.09770635 0 0 Z " fill="#252122" transform="translate(299,515)"/>
<path d="M0 0 C14.04053163 -0.50626917 25.65351557 4.04183616 36.3125 13.109375 C45.5057751 21.84995094 50.5828191 31.79690801 53.0625 44.1953125 C53.0625 50.1353125 53.0625 56.0753125 53.0625 62.1953125 C25.6725 62.1953125 -1.7175 62.1953125 -29.9375 62.1953125 C-25.09500856 74.3015411 -21.52256343 80.65002299 -9.9375 86.1953125 C-1.4845707 89.47504907 6.97095706 89.36626609 15.4375 86.1328125 C21.21379247 83.44687465 26.27848568 79.83444316 29.140625 73.99609375 C31.93972305 71.37336163 34.35402839 71.78708004 38.08007812 71.84375 C38.96115234 71.87726563 39.84222656 71.91078125 40.75 71.9453125 C41.64267578 71.96335937 42.53535156 71.98140625 43.45507812 72 C45.65863504 72.04713491 47.86002601 72.11290593 50.0625 72.1953125 C43.99449381 86.38160683 35.77345084 97.00787395 21.0625 103.1953125 C7.87909545 108.43666605 -6.75656873 107.47742093 -19.66796875 102.046875 C-30.81822193 96.60542563 -39.61787359 87.36481747 -44.9375 76.1953125 C-45.34871094 75.36386719 -45.75992187 74.53242187 -46.18359375 73.67578125 C-51.54025877 60.71969526 -50.87978262 44.27309402 -45.56274414 31.41918945 C-43.09024965 26.00719736 -40.0012645 21.50970564 -35.9375 17.1953125 C-35.39351563 16.57398438 -34.84953125 15.95265625 -34.2890625 15.3125 C-25.02201384 5.26232047 -13.32798497 0.88616921 0 0 Z " fill="#262223" transform="translate(518.9375,505.8046875)"/>
<path d="M0 0 C0 33.33 0 66.66 0 101 C-5.94 101 -11.88 101 -18 101 C-18 75.92 -18 50.84 -18 25 C-30.66438293 34.47472363 -30.66438293 34.47472363 -43.1875 44.125 C-44.71073895 45.31405648 -46.2341775 46.50285731 -47.7578125 47.69140625 C-48.48129883 48.25617676 -49.20478516 48.82094727 -49.95019531 49.40283203 C-53.82587253 52.42268438 -57.7180683 55.42030162 -61.62890625 58.39453125 C-64.26024238 60.40672947 -66.83328862 62.48317859 -69.40234375 64.57421875 C-70.16409912 65.18322021 -70.92585449 65.79222168 -71.71069336 66.41967773 C-73.21147173 67.61956421 -74.70111506 68.83354212 -76.17797852 70.06274414 C-78.07427744 71.56400871 -79.8463453 72.89950611 -82 74 C-86.15637653 73.3958755 -88.85492145 70.68482315 -92 68 C-96.48217541 64.24595429 -101.03646086 60.62596604 -105.6809082 57.07519531 C-112.68534282 51.71665578 -119.63662618 46.29006095 -126.59472656 40.87158203 C-129.1007466 38.92160745 -131.60873164 36.97418369 -134.1171875 35.02734375 C-134.94516846 34.38442383 -135.77314941 33.74150391 -136.6262207 33.07910156 C-138.22591727 31.83704835 -139.82600263 30.59549569 -141.42651367 29.35449219 C-142.14299072 28.79793945 -142.85946777 28.24138672 -143.59765625 27.66796875 C-144.23195557 27.17578857 -144.86625488 26.6836084 -145.51977539 26.17651367 C-147 25 -147 25 -148 24 C-148.08713831 22.29227642 -148.10700007 20.58101351 -148.09765625 18.87109375 C-148.09443359 17.83662109 -148.09121094 16.80214844 -148.08789062 15.73632812 C-148.07951172 14.64771484 -148.07113281 13.55910156 -148.0625 12.4375 C-148.05798828 11.34501953 -148.05347656 10.25253906 -148.04882812 9.12695312 C-148.03699826 6.41791505 -148.02051543 3.70898401 -148 1 C-145.2472495 2.29814634 -142.86779487 3.73274267 -140.453125 5.58203125 C-139.78128174 6.09523926 -139.10943848 6.60844727 -138.41723633 7.13720703 C-137.70204834 7.69005371 -136.98686035 8.24290039 -136.25 8.8125 C-135.50065186 9.3885498 -134.75130371 9.96459961 -133.97924805 10.55810547 C-128.1844431 15.03416821 -122.48550314 19.62059224 -116.81811523 24.25634766 C-111.39967508 28.68785046 -105.9302275 33.04677293 -100.3984375 37.3359375 C-98.03254896 39.1736404 -95.71491719 41.0581421 -93.4140625 42.9765625 C-92.83035889 43.45262939 -92.24665527 43.92869629 -91.64526367 44.41918945 C-90.53465 45.32530414 -89.43504929 46.24514658 -88.34887695 47.18041992 C-86.69722922 48.57649712 -86.69722922 48.57649712 -84 50 C-79.08728654 49.25710187 -75.20740086 45.11963133 -71.5 42 C-70.06622164 40.81375222 -68.63131165 39.62887096 -67.1953125 38.4453125 C-66.48536133 37.85911133 -65.77541016 37.27291016 -65.04394531 36.66894531 C-62.19834196 34.34542112 -59.29750005 32.10056478 -56.375 29.875 C-51.91208239 26.46865474 -47.47401481 23.03516024 -43.0625 19.5625 C-42.48822266 19.11052246 -41.91394531 18.65854492 -41.32226562 18.19287109 C-40.15137054 17.27087298 -38.98063633 16.34867053 -37.81005859 15.42626953 C-34.66637589 12.94914594 -31.52090837 10.47429602 -28.375 8 C-27.79500244 7.54310791 -27.21500488 7.08621582 -26.61743164 6.61547852 C-16.22718016 -1.55736926 -17.50661205 0 0 0 Z " fill="#282425" transform="translate(726,509)"/>
<path d="M0 0 C5.94 0 11.88 0 18 0 C18.33 26.4 18.66 52.8 19 80 C28.1053683 68.0492041 37.16451704 56.13632035 46.01171875 44.00390625 C46.7864856 42.98055176 46.7864856 42.98055176 47.5769043 41.93652344 C49.00740828 40.05445747 49.00740828 40.05445747 50.10473633 38.14941406 C51.1875 36.48828125 51.1875 36.48828125 54 34 C57.8005463 33.28396602 61.46307106 33.43289798 65.3125 33.625 C66.33923828 33.65207031 67.36597656 33.67914063 68.42382812 33.70703125 C70.95137576 33.77756746 73.47460043 33.87606571 76 34 C72.09869999 40.0259269 67.95947002 45.75271805 63.5 51.375 C62.27990329 52.93775159 61.06120052 54.50159228 59.84375 56.06640625 C57.88669021 58.58082456 55.92697984 61.09282844 53.95703125 63.59716797 C51.95291882 66.15527433 49.97431494 68.73135881 48 71.3125 C47.37029297 72.10640137 46.74058594 72.90030273 46.09179688 73.71826172 C42.83349854 77.7221206 42.83349854 77.7221206 42.25390625 82.578125 C44.70123092 85.97262454 47.24478213 89.23394747 49.9375 92.4375 C51.12204066 93.87031145 52.30561845 95.30391941 53.48828125 96.73828125 C54.37700928 97.81263428 54.37700928 97.81263428 55.28369141 98.90869141 C59.14764095 103.61688369 62.8701117 108.43744431 66.61767578 113.23828125 C68.08929265 115.11380003 69.57272858 116.97950263 71.05859375 118.84375 C71.56116699 119.47651855 72.06374023 120.10928711 72.58154297 120.76123047 C73.54265565 121.97078111 74.50637395 123.1782676 75.47314453 124.38330078 C77.66969429 127.15535149 79.48599788 129.81068525 81 133 C61.9397425 135.03024298 61.9397425 135.03024298 56.02441406 131.98193359 C52.68372278 129.20215615 50.45028905 125.65527656 48.22021484 121.96337891 C46.08903354 118.53421523 43.57525743 115.39198591 41.125 112.1875 C40.12800683 110.84311446 39.13192301 109.4980541 38.13671875 108.15234375 C33.40937419 101.82965209 28.3719713 95.75287822 23.34350586 89.66894531 C21.85074074 87.81458544 20.42832747 85.90443663 19 84 C18.67 100.17 18.34 116.34 18 133 C12.06 133 6.12 133 0 133 C0 89.11 0 45.22 0 0 Z " fill="#242021" transform="translate(933,476)"/>
<path d="M0 0 C0 48.18 0 96.36 0 146 C-5.94 146 -11.88 146 -18 146 C-18 111.35 -18 76.7 -18 41 C-28.5637986 49.10834846 -28.5637986 49.10834846 -38.9375 57.4375 C-45.64778603 62.9221334 -52.42988832 68.30568114 -59.26025391 73.63964844 C-61.67825314 75.53034332 -64.09043584 77.42839439 -66.50268555 79.32641602 C-68.81022791 81.14150836 -71.1199756 82.95378306 -73.4296875 84.76611328 C-74.90292085 85.92371921 -76.37343311 87.08478577 -77.84375 88.24609375 C-78.6584375 88.88675781 -79.473125 89.52742187 -80.3125 90.1875 C-81.35857422 91.01314453 -81.35857422 91.01314453 -82.42578125 91.85546875 C-84 93 -84 93 -85 93 C-87.04804903 72.86125511 -87.04804903 72.86125511 -83.90136719 66.92871094 C-81.05053226 63.5800171 -77.50489048 61.30939438 -73.74853516 59.07958984 C-71.07764109 57.43051227 -68.76014327 55.40806713 -66.375 53.375 C-64.58380634 51.91608574 -62.79214249 50.45774856 -61 49 C-59.16620121 47.50056908 -57.33287057 46.00056542 -55.5 44.5 C-52.8210008 42.30774854 -50.14175792 40.11580532 -47.4609375 37.92578125 C-41.79659175 33.29676154 -36.14564812 28.65179622 -30.5 24 C-17.15741225 13.00828399 -17.15741225 13.00828399 -11 8 C-10.05769531 7.23300781 -9.11539063 6.46601563 -8.14453125 5.67578125 C-7.23058594 4.93714844 -6.31664062 4.19851563 -5.375 3.4375 C-4.55773437 2.77621094 -3.74046875 2.11492187 -2.8984375 1.43359375 C-1 0 -1 0 0 0 Z " fill="#EF482E" transform="translate(150,464)"/>
<path d="M0 0 C5.13498081 3.1901708 9.24021261 6.71565499 12.6640625 11.7109375 C13.07785156 12.3090625 13.49164063 12.9071875 13.91796875 13.5234375 C18.58450619 21.84841021 17.96225623 33.14992492 15.8515625 42.19140625 C11.99967474 52.52997998 5.03406717 60.27470986 -4.9765625 64.87109375 C-12.76212014 67.64244291 -22.43985313 68.31683982 -30.1484375 65.0859375 C-31.56728922 64.33630652 -32.96454318 63.54422281 -34.3359375 62.7109375 C-35.02300781 62.31003906 -35.71007812 61.90914062 -36.41796875 61.49609375 C-44.40372904 56.2282404 -49.25027148 47.9333375 -51.3359375 38.7109375 C-51.54402039 36.03558607 -51.67093582 33.50488093 -51.6484375 30.8359375 C-51.64279785 30.13339844 -51.6371582 29.43085937 -51.63134766 28.70703125 C-51.38712442 18.24170292 -47.82494664 11.53628298 -40.7421875 4.01953125 C-29.53995175 -6.52219532 -13.1872273 -7.27723245 0 0 Z " fill="#FDFDFD" transform="translate(415.3359375,528.2890625)"/>
<path d="M0 0 C1.03125 0.5775 2.0625 1.155 3.125 1.75 C11.83464559 8.56624437 16.84644912 17.01621367 18.4453125 28.08203125 C18.83999736 38.12018297 16.30189474 46.81852995 9.6875 54.4375 C2.09199309 62.15671223 -5.3560195 66.92215274 -16.5 67.375 C-26.95775963 66.93312283 -36.05068881 62.40489181 -43.25 54.875 C-50.80279718 45.19138574 -52.31174455 34.84247884 -51 23 C-48.76169565 13.52159388 -43.01636813 5.73643653 -35.0390625 0.25390625 C-24.69769804 -6.10543856 -10.41116061 -6.46209969 0 0 Z " fill="#FDFDFD" transform="translate(814,528)"/>
<path d="M0 0 C7.84979499 5.33596336 13.16152169 12.58804624 16.2265625 21.65234375 C18.18725758 33.13945949 16.54056072 43.32587767 10.046875 53.06640625 C4.25360564 60.32858514 -4.1178807 65.62456367 -13.4140625 66.7578125 C-22.19945234 67.69962984 -29.94065802 66.00134936 -37.15625 60.76953125 C-42.29305675 56.35675513 -46.41372399 51.84386501 -49.4140625 45.7578125 C-49.73117188 45.14550781 -50.04828125 44.53320312 -50.375 43.90234375 C-54.02537674 35.78109274 -53.29815099 26.40134142 -50.44921875 18.1328125 C-46.37931246 8.79506524 -39.80553442 1.33193857 -30.3515625 -2.6796875 C-19.75796217 -6.03970755 -9.66206838 -5.56928874 0 0 Z " fill="#FCFCFC" transform="translate(289.4140625,528.2421875)"/>
<path d="M0 0 C0 6.27 0 12.54 0 19 C-1.69125 19.4125 -3.3825 19.825 -5.125 20.25 C-12.84287903 22.39715352 -16.95188731 25.2392663 -21.01953125 32.09765625 C-22.99116798 35.92310282 -23.14786306 39.06360026 -23.20532227 43.30737305 C-23.22526749 44.60849533 -23.24521271 45.90961761 -23.26576233 47.25016785 C-23.28274546 48.6706836 -23.29962431 50.0912006 -23.31640625 51.51171875 C-23.33698137 52.96475306 -23.35797799 54.41778146 -23.37937927 55.87080383 C-23.43454234 59.6929953 -23.48397698 63.51524026 -23.53222656 67.33752441 C-23.58248372 71.23873652 -23.63814778 75.13987105 -23.69335938 79.04101562 C-23.80087044 86.69394652 -23.90183127 94.34694252 -24 102 C-30.27 102 -36.54 102 -43 102 C-43 69 -43 36 -43 2 C-37.39 2 -31.78 2 -26 2 C-26 4.97 -26 7.94 -26 11 C-25.34 11 -24.68 11 -24 11 C-23.74734375 10.39414062 -23.4946875 9.78828125 -23.234375 9.1640625 C-20.70111907 4.72284799 -15.54424387 2.67560669 -11 0.6875 C-8 0 -8 0 0 0 Z " fill="#262223" transform="translate(212,507)"/>
<path d="M0 0 C0 6.27 0 12.54 0 19 C-1.65 19.350625 -3.3 19.70125 -5 20.0625 C-11.57651943 21.88225763 -16.40496916 24.76955688 -20.02485657 30.67073059 C-23.713957 37.87279902 -23.60455828 44.94014257 -23.609375 52.87890625 C-23.62438205 54.30095784 -23.64111444 55.72299216 -23.65948486 57.14500427 C-23.70288834 60.8586616 -23.72309674 64.57208394 -23.73822021 68.28594971 C-23.75788971 72.0872573 -23.79984805 75.88831468 -23.83984375 79.68945312 C-23.91485287 87.12626602 -23.96325628 94.56288156 -24 102 C-29.94 102 -35.88 102 -42 102 C-42 69 -42 36 -42 2 C-36.39 2 -30.78 2 -25 2 C-24.67 4.31 -24.34 6.62 -24 9 C-23.34773437 8.51789062 -22.69546875 8.03578125 -22.0234375 7.5390625 C-14.10896415 1.81916288 -10.08236038 0 0 0 Z " fill="#252122" transform="translate(913,507)"/>
<path d="M0 0 C8.39225644 6.88684137 10.65624451 12.43744513 11.75 23.375 C-9.37 23.375 -30.49 23.375 -52.25 23.375 C-51.16358794 13.5972915 -49.07780082 7.47071998 -41.6875 0.9375 C-40.55792006 0.06195223 -39.41352432 -0.79509284 -38.25 -1.625 C-37.0434375 -2.49125 -37.0434375 -2.49125 -35.8125 -3.375 C-23.80194257 -9.2338085 -10.89753208 -7.40527277 0 0 Z " fill="#FCFCFC" transform="translate(541.25,529.625)"/>
</svg>
