<?xml version="1.0" encoding="UTF-8"?>
<svg version="1.1" xmlns="http://www.w3.org/2000/svg" width="1080" height="1080">
<path d="M0 0 C356.4 0 712.8 0 1080 0 C1080 356.4 1080 712.8 1080 1080 C723.6 1080 367.2 1080 0 1080 C0 723.6 0 367.2 0 0 Z " fill="#01906F" transform="translate(0,0)"/>
<path d="M0 0 C6.27 0 12.54 0 19 0 C19 11.55 19 23.1 19 35 C21.31 33.68 23.62 32.36 26 31 C34.35409299 28.6076334 43.77768655 29.02654986 51.65234375 32.67578125 C61.14690796 38.03128419 67.35794684 44.86748588 70.48828125 55.3984375 C72.78108081 67.05496046 70.77738168 77.65187945 64.30859375 87.6015625 C59.11285865 94.08809609 52.30427381 98.99529879 43.95947266 100.32519531 C34.67084153 101.24544422 26.87518867 100.41782021 19 95 C18.67 96.32 18.34 97.64 18 99 C12.06 99 6.12 99 0 99 C0 66.33 0 33.66 0 0 Z " fill="#F9FBFB" transform="translate(239,471)"/>
<path d="M0 0 C0 -1.32 0 -2.64 0 -4 C5.94 -4 11.88 -4 18 -4 C18 18.11 18 40.22 18 63 C12.06 63 6.12 63 0 63 C0 61.35 0 59.7 0 58 C-0.680625 58.433125 -1.36125 58.86625 -2.0625 59.3125 C-10.7225764 64.28743751 -18.29123338 65.44516107 -28 64 C-37.97990815 60.77153936 -45.07577636 55.07105893 -49.875 45.8125 C-53.92558346 37.29554471 -54.41582016 27.19724711 -52.31640625 18.0078125 C-48.66917169 8.29194283 -42.24394058 0.64951379 -32.9453125 -4.03515625 C-21.62772371 -8.49171594 -9.9445864 -6.62972427 0 0 Z " fill="#F9FBFA" transform="translate(371,507)"/>
<path d="M0 0 C0 -1.32 0 -2.64 0 -4 C5.61 -4 11.22 -4 17 -4 C17 18.11 17 40.22 17 63 C11.39 63 5.78 63 0 63 C-0.33 61.35 -0.66 59.7 -1 58 C-1.54269531 58.34933594 -2.08539063 58.69867187 -2.64453125 59.05859375 C-3.35996094 59.51363281 -4.07539063 59.96867188 -4.8125 60.4375 C-5.52019531 60.88996094 -6.22789062 61.34242188 -6.95703125 61.80859375 C-13.00676229 65.33663958 -21.2021079 64.88962457 -28 64 C-37.94269103 60.87196237 -45.07600553 55.03795261 -49.875 45.875 C-53.92939919 37.47084804 -54.43485038 27.1329605 -52.31640625 18.078125 C-48.6645526 8.31964471 -42.28763909 0.6715292 -32.9453125 -4.03515625 C-21.62772371 -8.49171594 -9.9445864 -6.62972427 0 0 Z " fill="#FBFDFC" transform="translate(206,507)"/>
<path d="M0 0 C2.19294441 1.5513214 4.04281575 3.14582545 6 5 C6.33 2.36 6.66 -0.28 7 -3 C9.64 -3 12.28 -3 15 -3 C15.06986493 6.18034698 15.12299496 15.36060082 15.15543652 24.54115677 C15.17101587 28.80520344 15.19211068 33.06906667 15.22631836 37.33300781 C15.25919041 41.45681278 15.27691096 45.58044259 15.28463173 49.70436859 C15.29012575 51.26865135 15.30085244 52.83292578 15.31719017 54.39713287 C15.44008514 66.66407671 15.27586967 78.41847495 6.890625 88.16015625 C0.43105928 94.44622123 -7.07935802 96.0951166 -15.8125 96.3125 C-25.73885341 96.12322631 -32.36032474 94.03603172 -40.1875 87.9140625 C-42.27620277 85.70832035 -43.19738715 83.92245503 -44 81 C-42.625 78.6875 -42.625 78.6875 -41 77 C-36.71181167 77.47646537 -34.94800383 80.05199617 -32 83 C-26.71505289 86.58903125 -22.9117626 87.68965574 -16.5625 87.5625 C-15.81403809 87.55516846 -15.06557617 87.54783691 -14.29443359 87.5402832 C-8.46682999 87.33347264 -4.29359589 86.11953119 0 82 C0.51820313 81.55269531 1.03640625 81.10539063 1.5703125 80.64453125 C4.52109939 77.2503201 5.25698069 73.29372482 5.6328125 68.91796875 C5.71660156 67.98662109 5.80039062 67.05527344 5.88671875 66.09570312 C5.96535156 65.13599609 6.04398438 64.17628906 6.125 63.1875 C6.21136719 62.20845703 6.29773438 61.22941406 6.38671875 60.22070312 C6.59801179 57.81431022 6.80220763 55.40753388 7 53 C6.34 53 5.68 53 5 53 C5 53.66 5 54.32 5 55 C2.91796875 56.47265625 2.91796875 56.47265625 0.1875 58.0625 C-0.70582031 58.58972656 -1.59914063 59.11695313 -2.51953125 59.66015625 C-9.97603719 63.68784371 -20.47155722 63.27583076 -28.5078125 61.01171875 C-37.10497913 57.10891293 -42.36750778 51.03951636 -46.6875 42.76953125 C-48.26761257 38.23141034 -48.49757096 34.39141751 -48.4375 29.625 C-48.42505249 28.35982544 -48.42505249 28.35982544 -48.41235352 27.0690918 C-48.12895509 16.66604979 -44.45825844 10.19133129 -37 3 C-26.62522206 -6.06355323 -11.88838437 -6.70462037 0 0 Z " fill="#F3F8F7" transform="translate(905,509)"/>
<path d="M0 0 C2.77638212 1.72353006 5.22069851 3.4186031 7.64453125 5.609375 C8.76408203 6.58197266 8.76408203 6.58197266 9.90625 7.57421875 C12.71407103 12.47686355 12.26133776 17.43872207 12.20703125 22.984375 C12.24280273 24.65113281 12.24280273 24.65113281 12.27929688 26.3515625 C12.26657309 33.4768799 11.56915525 37.365431 6.64453125 42.609375 C0.46317807 47.8140982 -6.66060902 50.18627653 -14.69921875 49.98046875 C-21.36885308 49.0486816 -26.695171 45.93283404 -30.85546875 40.671875 C-36.22944331 33.06395171 -36.10840268 24.58666412 -35.35546875 15.609375 C-33.54048665 8.23457432 -27.73684032 3.46930325 -21.578125 -0.55078125 C-15.06037888 -3.01355 -6.37143305 -2.64054734 0 0 Z " fill="#049170" transform="translate(900.35546875,514.390625)"/>
<path d="M0 0 C2.64 0 5.28 0 8 0 C8.33 13.86 8.66 27.72 9 42 C11.97 40.02 14.94 38.04 18 36 C26.92852809 32.42858877 36.60107804 32.86928011 45.46875 36.625 C54.22819678 41.383218 60.13201134 48.41488001 63 58 C64.64917116 68.18474621 63.50645882 78.13071597 58 87 C53.38885366 93.11411421 47.4463717 97.95553019 40 100 C30.11115334 101.36544514 20.26318406 101.20175547 12 95 C10.97520897 94.02542145 9.96613008 93.03275974 9 92 C8.67 94.31 8.34 96.62 8 99 C5.36 99 2.72 99 0 99 C0 66.33 0 33.66 0 0 Z M13 48 C12.10152344 48.61875 11.20304687 49.2375 10.27734375 49.875 C6.58738521 54.93840794 7.19800111 60.21237981 7.25 66.3125 C7.21390625 67.51068359 7.1778125 68.70886719 7.140625 69.94335938 C7.140625 75.8627088 7.33303868 80.03627574 11.24609375 84.66796875 C16.60898534 89.80269566 22.4600189 93.19556214 30 93.5625 C37.52040672 93.10206694 43.77862246 90.76905868 48.9375 85.1875 C55.17743331 77.13739735 56.18384943 70.13600606 55 60 C52.63171677 52.13729968 48.01774707 47.2474408 41.26171875 42.875 C31.67430102 39.16587812 20.61090063 41.51455602 13 48 Z " fill="#F6FAF8" transform="translate(469,471)"/>
<path d="M0 0 C6.27 0 12.54 0 19 0 C19 32.67 19 65.34 19 99 C12.73 99 6.46 99 0 99 C0 66.33 0 33.66 0 0 Z " fill="#F5FAF8" transform="translate(404,471)"/>
<path d="M0 0 C1.66796875 1.37109375 1.66796875 1.37109375 3.98046875 3.62109375 C4.31046875 0.98109375 4.64046875 -1.65890625 4.98046875 -4.37890625 C7.29046875 -4.37890625 9.60046875 -4.37890625 11.98046875 -4.37890625 C11.98046875 16.74109375 11.98046875 37.86109375 11.98046875 59.62109375 C9.67046875 59.62109375 7.36046875 59.62109375 4.98046875 59.62109375 C4.48546875 55.66109375 4.48546875 55.66109375 3.98046875 51.62109375 C3.54476562 52.01941406 3.1090625 52.41773438 2.66015625 52.828125 C1.76683594 53.62283203 1.76683594 53.62283203 0.85546875 54.43359375 C-0.01464844 55.21669922 -0.01464844 55.21669922 -0.90234375 56.015625 C-8.76149183 61.97523729 -17.55674974 61.895775 -27.01953125 60.62109375 C-36.11688718 57.92448336 -42.76533797 52.59044217 -47.29296875 44.28515625 C-51.83536658 34.58826443 -52.3453951 25.06257507 -48.93359375 14.875 C-45.70691648 6.91862057 -39.30019144 0.94842757 -32.01953125 -3.37890625 C-21.67793378 -7.63721109 -9.23655611 -6.30658473 0 0 Z M-37.9296875 11.10546875 C-42.38158547 18.22008584 -43.88327748 24.24755392 -43.01953125 32.62109375 C-41.10817359 39.70558247 -38.06081295 45.90529482 -31.828125 50.09375 C-24.92931769 53.96960575 -19.08944538 54.91327576 -11.4140625 52.95703125 C-4.93924064 50.70406752 0.83529965 46.91143196 3.98046875 40.62109375 C4.36036569 36.23287114 4.39805293 31.83597234 4.48046875 27.43359375 C4.53460937 26.21349609 4.58875 24.99339844 4.64453125 23.73632812 C4.8519438 17.20995171 4.8519438 17.20995171 2.52954102 11.2824707 C-3.60913447 4.98952827 -10.23590512 2.42174524 -18.95703125 1.99609375 C-27.07473576 2.27631656 -32.90943598 4.57606186 -37.9296875 11.10546875 Z " fill="#F4F9F7" transform="translate(591.01953125,510.37890625)"/>
<path d="M0 0 C2.64 0 5.28 0 8 0 C8 20.13 8 40.26 8 61 C14.74641679 55.94100487 14.74641679 55.94100487 21.3125 50.6875 C22.23675781 49.92695312 23.16101563 49.16640625 24.11328125 48.3828125 C25.06589844 47.59648438 26.01851562 46.81015625 27 46 C28.9988061 44.35271692 30.99877101 42.70683874 33 41.0625 C33.886875 40.33160156 34.77375 39.60070312 35.6875 38.84765625 C39.8490889 35.52260295 41.89517321 34.76118652 47.1875 34.875 C48.27417969 34.89304687 49.36085938 34.91109375 50.48046875 34.9296875 C51.31191406 34.95289063 52.14335938 34.97609375 53 35 C48.89908472 39.27781751 44.46903465 43.01291282 39.875 46.75 C38.36065458 47.98695161 36.84633169 49.22393082 35.33203125 50.4609375 C34.59549316 51.06131836 33.85895508 51.66169922 33.10009766 52.28027344 C31.22754183 53.8136707 29.36647997 55.35923174 27.51171875 56.9140625 C26.53847656 57.72617187 25.56523438 58.53828125 24.5625 59.375 C23.71816406 60.08398438 22.87382813 60.79296875 22.00390625 61.5234375 C20 63 20 63 18 63 C19.0828125 64.3303125 19.0828125 64.3303125 20.1875 65.6875 C20.59355469 66.18636719 20.99960937 66.68523437 21.41796875 67.19921875 C23.50670664 69.57676978 25.75562093 71.76852651 28 74 C28.91434814 74.90911133 29.82869629 75.81822266 30.77075195 76.75488281 C31.25087234 77.23177551 31.73099274 77.70866821 32.22566223 78.20001221 C34.36264094 80.32356083 36.49691053 82.44982403 38.63110352 84.57617188 C39.76011164 85.70009807 40.89000755 86.82313312 42.02075195 87.9453125 C43.65808693 89.57059957 45.29224233 91.1990238 46.92578125 92.828125 C47.43506668 93.33224915 47.94435211 93.83637329 48.46907043 94.35577393 C49.66517605 95.55168499 50.83551998 96.77327338 52 98 C52 98.33 52 98.66 52 99 C42.86064411 100.01229053 42.86064411 100.01229053 38.81338501 97.81036377 C36.77597901 96.07574804 34.96131955 94.2535185 33.14453125 92.2890625 C32.47201828 91.60572845 31.79950531 90.92239441 31.10661316 90.21835327 C28.98141104 88.04513528 26.89811582 85.83616242 24.8125 83.625 C23.37159825 82.14603914 21.92825942 80.66944848 20.48242188 79.1953125 C17.86433861 76.50129854 15.24848651 73.8058186 12.67114258 71.07275391 C11.89484245 70.25334824 11.89484245 70.25334824 11.1028595 69.41738892 C10 68 10 68 10 66 C9.34 66 8.68 66 8 66 C8 76.89 8 87.78 8 99 C5.36 99 2.72 99 0 99 C0 66.33 0 33.66 0 0 Z " fill="#F2F8F6" transform="translate(693,471)"/>
<path d="M0 0 C6.43223768 5.24908155 9.6904476 10.00566215 11.36328125 18.18359375 C11.9820532 25.39325779 11.74166243 32.64480787 11.61328125 39.87109375 C11.59318368 41.8443829 11.57493868 43.81769183 11.55859375 45.79101562 C11.51486055 50.58903649 11.44601323 55.38609336 11.36328125 60.18359375 C8.72328125 60.18359375 6.08328125 60.18359375 3.36328125 60.18359375 C3.3492627 58.44456787 3.3492627 58.44456787 3.33496094 56.67041016 C3.2947849 52.32758577 3.22895219 47.98544941 3.15576172 43.64306641 C3.12771109 41.77141221 3.10641823 39.89964306 3.09228516 38.02783203 C3.48713139 21.57208296 3.48713139 21.57208296 -4.13671875 7.68359375 C-4.96171875 7.18859375 -5.78671875 6.69359375 -6.63671875 6.18359375 C-7.21808594 5.82910156 -7.79945313 5.47460938 -8.3984375 5.109375 C-13.9401148 2.81726764 -22.00321106 3.17266919 -27.57421875 5.37109375 C-32.10907376 8.05498753 -35.67177524 10.73617848 -38.63671875 15.18359375 C-38.96275555 17.30167656 -38.96275555 17.30167656 -38.95556641 19.6550293 C-38.9754361 20.55573654 -38.99530579 21.45644379 -39.01577759 22.38444519 C-39.0331044 23.83769951 -39.0331044 23.83769951 -39.05078125 25.3203125 C-39.0701474 26.31488968 -39.08951355 27.30946686 -39.10946655 28.33418274 C-39.16928034 31.51306565 -39.21565514 34.69198473 -39.26171875 37.87109375 C-39.29989685 40.02540648 -39.33894848 42.17970392 -39.37890625 44.33398438 C-39.47498326 49.61705184 -39.56002549 54.90021128 -39.63671875 60.18359375 C-42.27671875 60.18359375 -44.91671875 60.18359375 -47.63671875 60.18359375 C-47.63671875 39.06359375 -47.63671875 17.94359375 -47.63671875 -3.81640625 C-44.99671875 -3.81640625 -42.35671875 -3.81640625 -39.63671875 -3.81640625 C-39.30671875 -1.50640625 -38.97671875 0.80359375 -38.63671875 3.18359375 C-38.14042969 2.77367187 -37.64414062 2.36375 -37.1328125 1.94140625 C-26.37515333 -6.59123423 -11.59188867 -7.98552331 0 0 Z " fill="#F3F8F7" transform="translate(666.63671875,509.81640625)"/>
<path d="M0 0 C6.98895636 5.79377653 10.37905957 11.3350403 11.5859375 20.30078125 C11.71580968 23.4136507 11.70264389 26.52160315 11.68359375 29.63671875 C11.6821788 30.51607086 11.68076385 31.39542297 11.67930603 32.30142212 C11.67373627 35.09291067 11.6611894 37.88431719 11.6484375 40.67578125 C11.64341859 42.57551967 11.63885637 44.47525935 11.63476562 46.375 C11.62377675 51.01695839 11.60653307 55.65885594 11.5859375 60.30078125 C8.9459375 60.30078125 6.3059375 60.30078125 3.5859375 60.30078125 C3.57191895 58.56175537 3.57191895 58.56175537 3.55761719 56.78759766 C3.51744115 52.44477327 3.45160844 48.10263691 3.37841797 43.76025391 C3.35036734 41.88859971 3.32907448 40.01683056 3.31494141 38.14501953 C3.65187764 22.22813527 3.65187764 22.22813527 -3.10620117 8.328125 C-7.05871601 4.4472864 -10.92398151 3.86314111 -16.3515625 3.67578125 C-24.21570015 4.05426916 -29.93512631 5.56716658 -35.49267578 11.24023438 C-39.34494031 15.81586988 -39.27427417 20.03882328 -39.21875 25.828125 C-39.23245636 26.81704239 -39.24616272 27.80595978 -39.26028442 28.82484436 C-39.29747963 31.96312386 -39.29387647 35.09981323 -39.2890625 38.23828125 C-39.30719654 40.37437358 -39.32800144 42.51044501 -39.3515625 44.64648438 C-39.40331464 49.86473862 -39.42163574 55.08229381 -39.4140625 60.30078125 C-42.0540625 60.30078125 -44.6940625 60.30078125 -47.4140625 60.30078125 C-47.4140625 39.18078125 -47.4140625 18.06078125 -47.4140625 -3.69921875 C-44.7740625 -3.69921875 -42.1340625 -3.69921875 -39.4140625 -3.69921875 C-39.0840625 -1.38921875 -38.7540625 0.92078125 -38.4140625 3.30078125 C-37.91777344 2.89085937 -37.42148437 2.4809375 -36.91015625 2.05859375 C-26.36488904 -6.30558403 -11.40842206 -8.03019999 0 0 Z " fill="#F4F9F7" transform="translate(833.4140625,509.69921875)"/>
<path d="M0 0 C20 0 20 0 25 3 C27.47682859 6.71524288 27.43538538 9.69638294 27 14 C26 17 26 17 25 19 C25.804375 19.78375 26.60875 20.5675 27.4375 21.375 C31.14827192 25.17627856 31.39691214 27.52851246 31.35546875 32.67578125 C30.7532279 36.61350991 28.84960759 38.2829323 26 41 C22.64880481 43.23413013 21.5822245 43.23847762 17.67578125 43.1953125 C16.74934814 43.19031738 15.82291504 43.18532227 14.8684082 43.18017578 C13.6949585 43.16196777 12.52150879 43.14375977 11.3125 43.125 C7.579375 43.08375 3.84625 43.0425 0 43 C0 28.81 0 14.62 0 0 Z " fill="#F4F8F7" transform="translate(310,634)"/>
<path d="M0 0 C4.34813854 1.44706051 8.05862383 3.43148508 11 7 C11.68622499 10.59143636 11.55545404 14.22519464 11.5625 17.875 C11.59923828 18.86886719 11.63597656 19.86273437 11.67382812 20.88671875 C11.71679808 28.01973167 11.71679808 28.01973167 9.72338867 30.74584961 C8.140625 32.08203125 8.140625 32.08203125 5 34 C4.071875 34.598125 3.14375 35.19625 2.1875 35.8125 C-2.75367388 37.65332949 -7.184724 38.08978426 -12.1796875 36.15625 C-17.31160318 33.29012351 -20.91611707 29.53772592 -23 24 C-24.01008946 17.80348964 -23.27180335 12.41892429 -20 7 C-14.42948764 -0.0922814 -8.78534237 -1.50942795 0 0 Z " fill="#059171" transform="translate(359,518)"/>
<path d="M0 0 C2.66453423 1.52911172 4.01753991 2.47538179 5.82421875 5.046875 C6.47736056 8.69812723 6.47323701 12.28316152 6.44921875 15.984375 C6.48144531 16.97373047 6.51367188 17.96308594 6.546875 18.98242188 C6.55636194 26.03596184 6.55636194 26.03596184 4.56298828 28.78833008 C-0.43214438 33.04952536 -6.49721936 35.76157555 -13.12890625 35.453125 C-18.66845968 34.35367165 -22.86616806 30.95002209 -26.17578125 26.484375 C-29.09069882 21.27704769 -29.05008462 15.8401562 -28.17578125 10.046875 C-25.856047 5.13974485 -22.45801194 2.2357702 -18.17578125 -0.953125 C-11.94182917 -3.03110903 -6.06721451 -2.28951491 0 0 Z " fill="#059170" transform="translate(199.17578125,519.953125)"/>
<path d="M0 0 C5.71010735 2.75308747 9.5105811 7.19488698 12 13 C13.02474892 19.34265648 12.15984406 24.08606595 8.4296875 29.3125 C5.11563192 33.22417216 1.05260727 36.45489156 -4.078125 37.37109375 C-11.14224006 37.58708288 -15.21521505 35.06967923 -20.57641602 30.72143555 C-23.42221948 27.28021445 -22.55424913 22.39895004 -22.5625 18.125 C-22.59923828 17.13113281 -22.63597656 16.13726563 -22.67382812 15.11328125 C-22.71662298 8.00933612 -22.71662298 8.00933612 -20.76513672 5.26074219 C-19.21484375 3.9296875 -19.21484375 3.9296875 -16 2 C-15.33742188 1.57460938 -14.67484375 1.14921875 -13.9921875 0.7109375 C-9.52022772 -0.88493834 -4.65704972 -0.50565821 0 0 Z " fill="#059171" transform="translate(280,518)"/>
<path d="M0 0 C1.98 0 3.96 0 6 0 C6 14.52 6 29.04 6 44 C4.02 44 2.04 44 0 44 C0 43.34 0 42.68 0 42 C-0.845625 42.495 -1.69125 42.99 -2.5625 43.5 C-6.48083062 45.209817 -8.76813363 45.5289833 -13 45 C-17.78329567 42.56145711 -20.70128911 39.86265764 -23 35 C-23.88744573 29.50944794 -23.937566 24.65470293 -20.75 19.9375 C-18.79897767 17.47463539 -16.93380658 16.14032993 -14 15 C-11.5625 14.734375 -11.5625 14.734375 -9 14.75 C-7.7315625 14.74226562 -7.7315625 14.74226562 -6.4375 14.734375 C-4 15 -4 15 0 17 C0 11.39 0 5.78 0 0 Z " fill="#F0F6F5" transform="translate(910,633)"/>
<path d="M0 0 C1.98 0 3.96 0 6 0 C6.33 5.28 6.66 10.56 7 16 C7.66 15.67 8.32 15.34 9 15 C13.9252115 14.45964406 17.86941718 14.45564531 22.375 16.625 C26.57471416 20.42474138 28.76315342 23.16443904 29.5 28.875 C29.21721246 33.48797179 27.88042626 37.3632607 25 41 C21.52100719 43.635152 18.17540118 44.83544383 13.875 45.4375 C10.46867184 44.91914571 7.97776149 43.70157799 5 42 C5 42.66 5 43.32 5 44 C3.35 44 1.7 44 0 44 C0 29.48 0 14.96 0 0 Z " fill="#F0F6F4" transform="translate(260,633)"/>
<path d="M0 0 C1.40765625 0.00580078 1.40765625 0.00580078 2.84375 0.01171875 C5.52087334 0.3148636 7.19965635 0.95073996 9.5 2.3125 C9.5 1.6525 9.5 0.9925 9.5 0.3125 C11.48 0.3125 13.46 0.3125 15.5 0.3125 C15.5 9.8825 15.5 19.4525 15.5 29.3125 C13.52 29.3125 11.54 29.3125 9.5 29.3125 C9.17 28.6525 8.84 27.9925 8.5 27.3125 C7.819375 27.8075 7.13875 28.3025 6.4375 28.8125 C2.75859625 30.69108915 0.5908775 30.81488846 -3.5 30.3125 C-8.97206279 27.26077268 -12.70041508 24.4034028 -14.5 18.3125 C-15.23748614 12.7286764 -13.93572662 9.66392996 -10.984375 5.109375 C-7.66315767 1.08895402 -5.22987044 -0.09339054 0 0 Z " fill="#EEF5F3" transform="translate(358.5,647.6875)"/>
<path d="M0 0 C0.639375 0.33 1.27875 0.66 1.9375 1 C1.9375 0.34 1.9375 -0.32 1.9375 -1 C3.9175 -1 5.8975 -1 7.9375 -1 C7.9375 8.57 7.9375 18.14 7.9375 28 C5.9575 28 3.9775 28 1.9375 28 C1.9375 27.34 1.9375 26.68 1.9375 26 C1.091875 26.495 0.24625 26.99 -0.625 27.5 C-4.54333062 29.209817 -6.83063363 29.5289833 -11.0625 29 C-15.84579567 26.56145711 -18.76378911 23.86265764 -21.0625 19 C-21.94994573 13.50944794 -22.000066 8.65470293 -18.8125 3.9375 C-14.0371457 -2.09064787 -6.90609978 -2.25505299 0 0 Z " fill="#F0F6F4" transform="translate(245.0625,649)"/>
<path d="M0 0 C1.29550781 -0.02126953 1.29550781 -0.02126953 2.6171875 -0.04296875 C5.2491288 0.19890748 6.86480544 0.85766459 9.125 2.1875 C9.125 1.5275 9.125 0.8675 9.125 0.1875 C11.105 0.1875 13.085 0.1875 15.125 0.1875 C15.125 9.7575 15.125 19.3275 15.125 29.1875 C13.145 29.1875 11.165 29.1875 9.125 29.1875 C9.125 28.5275 9.125 27.8675 9.125 27.1875 C8.279375 27.6825 7.43375 28.1775 6.5625 28.6875 C2.64416938 30.397317 0.35686637 30.7164833 -3.875 30.1875 C-8.96143801 27.44864877 -12.04504027 24.6773792 -13.875 19.1875 C-14.58400035 14.65150909 -14.86906405 10.78528882 -12.3828125 6.7890625 C-8.42109835 2.23555703 -6.1372342 0.04552844 0 0 Z " fill="#F0F6F4" transform="translate(623.875,647.8125)"/>
<path d="M0 0 C2.30859375 1.0234375 2.30859375 1.0234375 4 2 C4 1.34 4 0.68 4 0 C5.98 0 7.96 0 10 0 C10 9.57 10 19.14 10 29 C7 29 4 29 1 29 C0.33484375 29.11859375 -0.3303125 29.2371875 -1.015625 29.359375 C-6.00789677 30.23214979 -9.24466778 30.19915234 -13.4921875 27.28515625 C-16.78178543 24.48132796 -18.69416193 21.93592345 -19.37890625 17.6015625 C-19.71267668 10.43088165 -17.61831256 6.92634934 -12.875 1.625 C-8.69883723 -0.73543983 -4.70064062 -0.65732536 0 0 Z " fill="#F0F6F4" transform="translate(691,648)"/>
<path d="M0 0 C1.98 0 3.96 0 6 0 C8.4234806 5.96215419 10.84428098 11.92539131 13.26318359 17.8894043 C14.08710413 19.91993094 14.91164754 21.95020495 15.73681641 23.98022461 C16.91991778 26.89110848 18.10080677 29.8028811 19.28125 32.71484375 C19.65310425 33.6283812 20.0249585 34.54191864 20.40808105 35.48313904 C20.74843384 36.32393509 21.08878662 37.16473114 21.43945312 38.03100586 C21.7414563 38.77491074 22.04345947 39.51881561 22.35461426 40.28526306 C23 42 23 42 23 43 C20.69 43 18.38 43 16 43 C14.68 39.7 13.36 36.4 12 33 C6.06 33 0.12 33 -6 33 C-7.98 37.95 -7.98 37.95 -10 43 C-12.31 43 -14.62 43 -17 43 C-11.73896662 28.50441015 -5.86231934 14.25986488 0 0 Z " fill="#F0F6F4" transform="translate(476,634)"/>
<path d="M0 0 C1.65 0 3.3 0 5 0 C8.78991385 7.15768383 11.81672097 14.6133094 14.85595703 22.1105957 C15.75586959 24.32695598 16.6647961 26.53948077 17.57421875 28.75195312 C18.14898544 30.16383956 18.72322351 31.57594134 19.296875 32.98828125 C19.70459137 33.97735222 19.70459137 33.97735222 20.12054443 34.98640442 C21.26478697 37.82951775 22 39.902529 22 43 C20.02 43 18.04 43 16 43 C15.32880451 41.5437455 14.66318193 40.08492133 14 38.625 C13.62875 37.81289063 13.2575 37.00078125 12.875 36.1640625 C12 34 12 34 12 32 C5.73 32 -0.54 32 -7 32 C-7.495 34.475 -7.495 34.475 -8 37 C-8.95394836 39.02237052 -9.94535351 41.0282696 -11 43 C-12.98 43 -14.96 43 -17 43 C-15.05161601 36.98761617 -12.93596631 31.06960829 -10.625 25.1875 C-10.32118408 24.41067871 -10.01736816 23.63385742 -9.7043457 22.83349609 C-3.12957939 6.08922686 -3.12957939 6.08922686 0 0 Z " fill="#F2F7F5" transform="translate(178,634)"/>
<path d="M0 0 C1.98 0 3.96 0 6 0 C6 0.66 6 1.32 6 2 C6.556875 1.67644531 7.11375 1.35289062 7.6875 1.01953125 C10.29841041 -0.1315627 12.15735817 -0.29950011 15 -0.3125 C16.2684375 -0.33763672 16.2684375 -0.33763672 17.5625 -0.36328125 C20.46096377 0.06870133 21.71791834 1.23679164 24 3 C26.39263407 2.33228817 28.22097385 1.77902615 30 0 C34.57657703 -0.62551831 39.1097668 -1.03700294 43.25 1.234375 C46.19265263 3.71110763 47.76687687 5.30063062 49 9 C49.08106686 10.55421729 49.10756898 12.11167027 49.09765625 13.66796875 C49.09443359 14.56064453 49.09121094 15.45332031 49.08789062 16.37304688 C49.07532227 17.76620117 49.07532227 17.76620117 49.0625 19.1875 C49.05798828 20.12787109 49.05347656 21.06824219 49.04882812 22.03710938 C49.03704626 24.35813712 49.02059558 26.67903644 49 29 C47.02 29 45.04 29 43 29 C42.98598145 28.16807129 42.98598145 28.16807129 42.97167969 27.31933594 C42.91784278 24.79533519 42.83422746 22.27316186 42.75 19.75 C42.73582031 18.87730469 42.72164062 18.00460937 42.70703125 17.10546875 C42.53717549 11.91533257 42.53717549 11.91533257 40.14453125 7.4140625 C37.25023742 5.50562103 35.40094308 5.56583705 32 6 C28.81345218 7.61399973 28.81345218 7.61399973 28.56762695 10.15478516 C28.54144287 11.02409668 28.51525879 11.8934082 28.48828125 12.7890625 C28.45283203 13.73007812 28.41738281 14.67109375 28.38085938 15.640625 C28.35830078 16.62546875 28.33574219 17.6103125 28.3125 18.625 C28.27833984 19.61757813 28.24417969 20.61015625 28.20898438 21.6328125 C28.12634343 24.08842906 28.05724873 26.54368141 28 29 C26.02 29 24.04 29 22 29 C21.67 22.07 21.34 15.14 21 8 C16.43112384 5.71556192 14.86213388 5.93917079 10 7 C6.83096637 8.60672068 6.83096637 8.60672068 6.56762695 11.06298828 C6.54144287 11.89040527 6.51525879 12.71782227 6.48828125 13.5703125 C6.45283203 14.46621094 6.41738281 15.36210938 6.38085938 16.28515625 C6.35830078 17.22230469 6.33574219 18.15945313 6.3125 19.125 C6.27833984 20.06988281 6.24417969 21.01476562 6.20898438 21.98828125 C6.12635888 24.32540253 6.05726012 26.66214191 6 29 C4.02 29 2.04 29 0 29 C0 19.43 0 9.86 0 0 Z " fill="#EDF5F3" transform="translate(764,648)"/>
<path d="M0 0 C4.2246404 2.30298981 7.2977841 5.47161703 9 10 C9 11.98 9 13.96 9 16 C1.74 16 -5.52 16 -13 16 C-10.66151858 21.91731018 -10.66151858 21.91731018 -7 24 C-2.53555468 23.71654315 1.14324813 23.41046992 5 21 C7 23 7 23 7.0625 24.9375 C5.65051473 27.67841259 3.7882672 28.41265028 0.9609375 29.45703125 C-3.7574474 30.76351631 -7.46471653 30.52768218 -11.75 28.25 C-15.75662352 25.47618371 -17.47285805 23.58142585 -19 19 C-19.63836339 13.7836592 -19.78078986 9.42163956 -16.6875 5 C-12.11935976 -0.70674576 -6.92894538 -1.12100093 0 0 Z " fill="#EFF5F4" transform="translate(874,648)"/>
<path d="M0 0 C2.64 0 5.28 0 8 0 C8 21.12 8 42.24 8 64 C5.36 64 2.72 64 0 64 C0 42.88 0 21.76 0 0 Z " fill="#F7FAF9" transform="translate(760,506)"/>
<path d="M0 0 C1.98 0 3.96 0 6 0 C6.33 7.92 6.66 15.84 7 24 C9.64 21.36 12.28 18.72 15 16 C15.66 16 16.32 16 17 16 C17 15.34 17 14.68 17 14 C19.97 14 22.94 14 26 14 C22.13242719 18.95532767 17.81123996 22.96476648 13 27 C16.53668866 31.98763785 20.24384571 36.43733391 24.6796875 40.65234375 C26 42 26 42 26 43 C19.07677961 43.71619521 19.07677961 43.71619521 16.30859375 41.875 C14.75796749 40.32032511 13.37108676 38.714824 12 37 C11.26716797 36.14148438 11.26716797 36.14148438 10.51953125 35.265625 C9.32566504 33.86107651 8.15985538 32.43276253 7 31 C6.67 34.96 6.34 38.92 6 43 C4.02 43 2.04 43 0 43 C0 28.81 0 14.62 0 0 Z " fill="#EEF6F4" transform="translate(415,634)"/>
<path d="M0 0 C2.31 0 4.62 0 7 0 C7 12.54 7 25.08 7 38 C13.27 38 19.54 38 26 38 C26 39.98 26 41.96 26 44 C17.42 44 8.84 44 0 44 C0 29.48 0 14.96 0 0 Z " fill="#E4F0ED" transform="translate(722,633)"/>
<path d="M0 0 C1.98 0 3.96 0 6 0 C6.05607422 1.86205078 6.05607422 1.86205078 6.11328125 3.76171875 C6.1789595 5.40367511 6.2454062 7.04560087 6.3125 8.6875 C6.33505859 9.50412109 6.35761719 10.32074219 6.38085938 11.16210938 C6.5921796 15.90720907 7.02749618 19.08713305 10 23 C11.45922693 22.88590407 12.91740598 22.75834456 14.375 22.625 C15.59316406 22.52058594 15.59316406 22.52058594 16.8359375 22.4140625 C19.20334191 22.17107412 19.20334191 22.17107412 21 20 C21.36952049 17.87139338 21.36952049 17.87139338 21.4140625 15.4296875 C21.45273437 14.53378906 21.49140625 13.63789062 21.53125 12.71484375 C21.5621875 11.77769531 21.593125 10.84054687 21.625 9.875 C21.66367187 8.93011719 21.70234375 7.98523438 21.7421875 7.01171875 C21.83661346 4.67467625 21.92218394 2.33764499 22 0 C23.65 0 25.3 0 27 0 C27 9.57 27 19.14 27 29 C25.35 29 23.7 29 22 29 C21.67 28.34 21.34 27.68 21 27 C20.360625 27.515625 19.72125 28.03125 19.0625 28.5625 C14.80043972 30.56305891 11.44724316 30.55536272 7 29 C3.18666845 25.96360502 0.9690823 22.76542033 0 18 C-0.07766084 16.55901569 -0.10796367 15.11491371 -0.09765625 13.671875 C-0.09282227 12.47304688 -0.09282227 12.47304688 -0.08789062 11.25 C-0.07951172 10.425 -0.07113281 9.6 -0.0625 8.75 C-0.05798828 7.90953125 -0.05347656 7.0690625 -0.04882812 6.203125 C-0.03707961 4.13538599 -0.01914522 2.06768376 0 0 Z " fill="#F2F8F6" transform="translate(502,648)"/>
<path d="M0 0 C1.65 0 3.3 0 5 0 C5.33 0.66 5.66 1.32 6 2 C6.99 1.34 7.98 0.68 9 0 C13.18331003 -0.60321137 16.91169214 -0.45950776 20.8125 1.1875 C26.74286026 6.10122708 26.74286026 6.10122708 27.3215332 10.37426758 C27.39355597 13.19689816 27.3485435 15.9907447 27.25 18.8125 C27.23195313 19.79154297 27.21390625 20.77058594 27.1953125 21.77929688 C27.14832887 24.18720771 27.08265694 26.59309335 27 29 C25.02 29 23.04 29 21 29 C20.98598145 28.11477661 20.98598145 28.11477661 20.97167969 27.21166992 C20.91797343 24.53609795 20.83433148 21.86227447 20.75 19.1875 C20.73582031 18.25873047 20.72164063 17.32996094 20.70703125 16.37304688 C20.67480469 15.48037109 20.64257812 14.58769531 20.609375 13.66796875 C20.58842773 12.84578857 20.56748047 12.0236084 20.54589844 11.17651367 C20.16660925 8.84458584 20.16660925 8.84458584 18.14941406 7.23168945 C15.22601331 5.55647855 13.32010626 5.58498672 10 6 C7.77896232 7.15854908 7.77896232 7.15854908 6 9 C5.3625747 11.20554477 5.3625747 11.20554477 5.390625 13.66796875 C5.35839844 14.56064453 5.32617188 15.45332031 5.29296875 16.37304688 C5.27169922 17.76620117 5.27169922 17.76620117 5.25 19.1875 C5.22035156 20.12787109 5.19070313 21.06824219 5.16015625 22.03710938 C5.08946438 24.35815916 5.03676835 26.67820535 5 29 C3.35 29 1.7 29 0 29 C0 19.43 0 9.86 0 0 Z " fill="#F4F8F7" transform="translate(381,648)"/>
<path d="M0 0 C2.31 0 4.62 0 7 0 C7 3.3 7 6.6 7 10 C9.64 10 12.28 10 15 10 C15 11.65 15 13.3 15 15 C12.03 15 9.06 15 6 15 C6.33 20.61 6.66 26.22 7 32 C9.31 32.66 11.62 33.32 14 34 C14 35.98 14 37.96 14 40 C9.92325579 40.31974464 7.67970704 40.43803342 4.1875 38.1875 C0.13562783 34.13562783 0.13562783 34.13562783 -0.22705078 31.09887695 C-0.21134033 30.05413208 -0.21134033 30.05413208 -0.1953125 28.98828125 C-0.18886719 28.23095703 -0.18242188 27.47363281 -0.17578125 26.69335938 C-0.15902344 25.90767578 -0.14226563 25.12199219 -0.125 24.3125 C-0.11597656 23.51521484 -0.10695313 22.71792969 -0.09765625 21.89648438 C-0.07411585 19.930861 -0.03824547 17.96539225 0 16 C-2.31 16 -4.62 16 -7 16 C-7 14.02 -7 12.04 -7 10 C-4.69 10 -2.38 10 0 10 C0 6.7 0 3.4 0 0 Z " fill="#E6F1EE" transform="translate(569,638)"/>
<path d="M0 0 C2.3046875 1.02734375 2.3046875 1.02734375 4 2 C3.34 3.65 2.68 5.3 2 7 C-1.3 6.67 -4.6 6.34 -8 6 C-8.33 7.32 -8.66 8.64 -9 10 C-8.25234375 10.24234375 -7.5046875 10.4846875 -6.734375 10.734375 C-5.74953125 11.06953125 -4.7646875 11.4046875 -3.75 11.75 C-2.77546875 12.07484375 -1.8009375 12.3996875 -0.796875 12.734375 C2.23656954 14.10705102 3.94157904 15.39266679 6 18 C6 22.02004887 5.63123872 24.20043095 3.125 27.375 C-0.85889509 30.42150801 -5.15697878 30.54723404 -10 30 C-13.5 28.5 -13.5 28.5 -16 27 C-15.67 25.68 -15.34 24.36 -15 23 C-11 23 -11 23 -9 24 C-5.62177584 24.14375422 -3.22609045 24.07536348 0 23 C-0.62250249 21.01032242 -0.62250249 21.01032242 -2 19 C-4.52501227 17.79494843 -4.52501227 17.79494843 -7.4375 17 C-11.61736872 15.75327484 -13.78222379 14.84463179 -16 11 C-16.5625 8.0625 -16.5625 8.0625 -16 5 C-11.48010821 -0.47144795 -6.88830197 -1.07984932 0 0 Z " fill="#EDF5F2" transform="translate(553,648)"/>
<path d="M0 0 C1.98 0 3.96 0 6 0 C6 3.3 6 6.6 6 10 C8.64 10 11.28 10 14 10 C14 11.65 14 13.3 14 15 C11.36 15 8.72 15 6 15 C6.33 20.61 6.66 26.22 7 32 C9.31 32.66 11.62 33.32 14 34 C14 35.98 14 37.96 14 40 C8.01345291 40.59865471 8.01345291 40.59865471 5.234375 38.95703125 C3.06489524 37.16141815 1.26928036 35.53856072 0 33 C-0.07194869 30.11629667 -0.09291708 27.25760336 -0.0625 24.375 C-0.05798828 23.57320312 -0.05347656 22.77140625 -0.04882812 21.9453125 C-0.03703168 19.96350994 -0.01909605 17.98174567 0 16 C-2.31 16 -4.62 16 -7 16 C-7 14.02 -7 12.04 -7 10 C-4.69 10 -2.38 10 0 10 C0 6.7 0 3.4 0 0 Z " fill="#EBF4F1" transform="translate(837,638)"/>
<path d="M0 0 C1.81640625 1.7890625 1.81640625 1.7890625 2.3828125 4.34765625 C2.37234166 12.06466181 2.37234166 12.06466181 -0.24609375 15.4765625 C-3.95184797 17.13232502 -6.16519662 17.43487632 -10.18359375 16.7890625 C-13.76671199 14.21856463 -14.97061942 12.53447265 -16.18359375 8.2890625 C-16.18359375 4.3464273 -15.67894921 2.8006984 -13.18359375 -0.2109375 C-9.15764704 -3.37418134 -4.27060785 -2.36831562 0 0 Z " fill="#0D9373" transform="translate(366.18359375,655.2109375)"/>
<path d="M0 0 C2.19140625 1.20703125 2.19140625 1.20703125 4 3 C4.82370515 6.72087499 4.63938281 10.25344108 4 14 C1.35068232 17.45214122 -0.2384253 17.87760407 -4.5 18.5625 C-8.98948597 17.84097547 -10.35102251 16.66182182 -13 13 C-14.125 9.5625 -14.125 9.5625 -14 6 C-10.3411575 -0.41373567 -7.0063266 -1.44958481 0 0 Z " fill="#0C9373" transform="translate(906,654)"/>
<path d="M0 0 C2.40076539 1.71954135 2.9314135 2.62563205 3.46875 5.55859375 C3.55256436 13.27999189 3.55256436 13.27999189 0.9375 16.6875 C-2.76825422 18.34326252 -4.98160287 18.64581382 -9 18 C-12.07858499 15.96944394 -13.645391 14.4855968 -14.515625 10.83984375 C-14.75526106 7.5775255 -14.68096853 5.09450214 -12.92578125 2.2734375 C-8.67895259 -1.89194513 -5.30107769 -1.39044661 0 0 Z " fill="#0A9272" transform="translate(630,654)"/>
<path d="M0 0 C2.40076539 1.71954135 2.9314135 2.62563205 3.46875 5.55859375 C3.55256436 13.27999189 3.55256436 13.27999189 0.9375 16.6875 C-2.76825422 18.34326252 -4.98160287 18.64581382 -9 18 C-12.07858499 15.96944394 -13.645391 14.4855968 -14.515625 10.83984375 C-14.75526106 7.5775255 -14.68096853 5.09450214 -12.92578125 2.2734375 C-8.67895259 -1.89194513 -5.30107769 -1.39044661 0 0 Z " fill="#0A9272" transform="translate(244,654)"/>
<path d="M0 0 C0.99 0.66 1.98 1.32 3 2 C3.46875 4.93359375 3.46875 4.93359375 3.5 8.4375 C3.5309375 9.59121094 3.561875 10.74492188 3.59375 11.93359375 C3 15 3 15 0.6875 16.875 C-2.8908211 18.37290186 -5.15729617 18.6175774 -9 18 C-12.70216842 14.77044883 -13.79732736 13.28359339 -14.5625 8.4375 C-13.91429589 4.47625263 -12.81200626 2.81200626 -10 0 C-6.80429821 -1.59785089 -3.38635924 -0.77115111 0 0 Z " fill="#0A9372" transform="translate(692,654)"/>
<path d="M0 0 C3.66182182 2.64897749 4.84097547 4.01051403 5.5625 8.5 C4.91877781 12.50538252 3.84054174 14.15945826 1 17 C-2.05693322 18.52846661 -4.62984547 18.23242445 -8 18 C-10.19140625 16.890625 -10.19140625 16.890625 -12 15 C-12.56640625 11.96875 -12.56640625 11.96875 -12.5625 8.5 C-12.58441406 7.3553125 -12.60632813 6.210625 -12.62890625 5.03125 C-12 2 -12 2 -9.68359375 0.09375 C-5.96791473 -1.42064611 -3.83840477 -1.09668708 0 0 Z " fill="#0A9272" transform="translate(278,654)"/>
<path d="M0 0 C1.98 0 3.96 0 6 0 C6 14.52 6 29.04 6 44 C4.02 44 2.04 44 0 44 C0 29.48 0 14.96 0 0 Z " fill="#EDF5F2" transform="translate(646,633)"/>
<path d="M0 0 C2.41854446 -0.13536629 4.82949783 -0.23420279 7.25 -0.3125 C8.27287109 -0.3753418 8.27287109 -0.3753418 9.31640625 -0.43945312 C13.12573125 -0.53191247 14.66251455 -0.31523367 17.48828125 2.32421875 C19 5 19 5 18.9375 8.125 C17.93983064 11.18451937 17.60434904 12.19495321 15 14 C12.35003674 14.2172101 9.94923442 14.28351554 7.3125 14.1875 C6.2596582 14.16719727 6.2596582 14.16719727 5.18554688 14.14648438 C3.45670171 14.11120182 1.72825235 14.05739583 0 14 C0 9.38 0 4.76 0 0 Z " fill="#0D9373" transform="translate(316,657)"/>
<path d="M0 0 C1.98 0 3.96 0 6 0 C6.33 0.66 6.66 1.32 7 2 C7.99 1.34 8.98 0.68 10 0 C13.1875 -0.125 13.1875 -0.125 16 0 C16 1.65 16 3.3 16 5 C14.88625 5.45375 13.7725 5.9075 12.625 6.375 C9.03800992 7.72465986 9.03800992 7.72465986 7 10 C6.63105418 12.03060659 6.63105418 12.03060659 6.5859375 14.3515625 C6.54726563 15.20234375 6.50859375 16.053125 6.46875 16.9296875 C6.4378125 17.81914063 6.406875 18.70859375 6.375 19.625 C6.31699219 20.97078125 6.31699219 20.97078125 6.2578125 22.34375 C6.16340643 24.5622927 6.07783252 26.78082403 6 29 C4.02 29 2.04 29 0 29 C0 19.43 0 9.86 0 0 Z " fill="#EFF5F4" transform="translate(590,648)"/>
<path d="M0 0 C1.98 0 3.96 0 6 0 C6.33 0.66 6.66 1.32 7 2 C7.99 1.34 8.98 0.68 10 0 C13.1875 -0.125 13.1875 -0.125 16 0 C16 1.65 16 3.3 16 5 C14.88625 5.45375 13.7725 5.9075 12.625 6.375 C9.03800992 7.72465986 9.03800992 7.72465986 7 10 C6.63105418 12.03060659 6.63105418 12.03060659 6.5859375 14.3515625 C6.54726562 15.20234375 6.50859375 16.053125 6.46875 16.9296875 C6.4378125 17.81914063 6.406875 18.70859375 6.375 19.625 C6.31699219 20.97078125 6.31699219 20.97078125 6.2578125 22.34375 C6.16340643 24.5622927 6.07783252 26.78082403 6 29 C4.02 29 2.04 29 0 29 C0 19.43 0 9.86 0 0 Z " fill="#F3F8F7" transform="translate(204,648)"/>
<path d="M0 0 C1.98 0 3.96 0 6 0 C6 9.57 6 19.14 6 29 C4.02 29 2.04 29 0 29 C0 19.43 0 9.86 0 0 Z " fill="#F1F7F6" transform="translate(820,648)"/>
<path d="M0 0 C1.98 0 3.96 0 6 0 C6 9.57 6 19.14 6 29 C4.02 29 2.04 29 0 29 C0 19.43 0 9.86 0 0 Z " fill="#EFF5F3" transform="translate(659,648)"/>
<path d="M0 0 C10.35114504 -0.36968375 10.35114504 -0.36968375 13.32421875 1.32421875 C15 3 15 3 15.5625 6 C15 9 15 9 13.125 10.875 C8.62627878 12.49453964 4.77034961 12.19081398 0 12 C0 8.04 0 4.08 0 0 Z " fill="#1E9A7B" transform="translate(316,639)"/>
<path d="M0 0 C1.65 0 3.3 0 5 0 C5 9.57 5 19.14 5 29 C3.35 29 1.7 29 0 29 C0 19.43 0 9.86 0 0 Z " fill="#FBFCFB" transform="translate(752,648)"/>
<path d="M0 0 C2 2 2 2 2.375 5.4375 C2 9 2 9 0.375 11 C-2.83596428 12.35198496 -4.69946166 12.00451167 -8 11 C-10.31282587 7.53076119 -10.42478586 6.07794425 -10 2 C-7.65131237 -2.28290097 -4.2151329 -0.99630414 0 0 Z " fill="#F0F6F4" transform="translate(768,482)"/>
<path d="M0 0 C2.74515677 2.38333095 3.89080018 4.68909319 5.1875 8.0625 C5.53167969 8.94035156 5.87585938 9.81820312 6.23046875 10.72265625 C7 13 7 13 7 15 C3.04 15 -0.92 15 -5 15 C-4.43174347 9.45949887 -2.37113483 4.96284034 0 0 Z " fill="#139576" transform="translate(180,645)"/>
<path d="M0 0 C0.66 0 1.32 0 2 0 C2.84026396 1.76755526 3.67198722 3.53917263 4.5 5.3125 C4.9640625 6.29863281 5.428125 7.28476562 5.90625 8.30078125 C7 11 7 11 7 14 C3.04 14 -0.92 14 -5 14 C-4.23539233 10.17696167 -3.52385218 7.61606762 -1.9375 4.1875 C-1.39416016 3.00220703 -1.39416016 3.00220703 -0.83984375 1.79296875 C-0.56269531 1.20128906 -0.28554688 0.60960937 0 0 Z " fill="#129475" transform="translate(478,646)"/>
<path d="M0 0 C2.375 1.3125 2.375 1.3125 4 3 C4 3.99 4 4.98 4 6 C-0.95 6 -5.9 6 -11 6 C-7.43591355 0.05985591 -6.61750269 -0.52940022 0 0 Z " fill="#129373" transform="translate(872,653)"/>
<path d="M0 0 C1.67542976 0.28604898 3.34385343 0.61781233 5 1 C5.625 2.875 5.625 2.875 6 5 C5.34 5.66 4.68 6.32 4 7 C1.375 6.625 1.375 6.625 -1 6 C-1.042721 4.33388095 -1.04063832 2.66617115 -1 1 C-0.67 0.67 -0.34 0.34 0 0 Z " fill="#E5F0ED" transform="translate(821,638)"/>
<path d="M0 0 C0.625 1.875 0.625 1.875 1 4 C0.34 4.66 -0.32 5.32 -1 6 C-3.125 5.625 -3.125 5.625 -5 5 C-5.33 3.35 -5.66 1.7 -6 0 C-3.50907189 -1.24546405 -2.58919267 -0.7767578 0 0 Z " fill="#EAF3F0" transform="translate(757,639)"/>
<path d="M0 0 C1.67542976 0.28604898 3.34385343 0.61781233 5 1 C5 2.65 5 4.3 5 6 C3.34385343 6.38218767 1.67542976 6.71395102 0 7 C-1 6 -1 6 -1.125 3.5 C-1 1 -1 1 0 0 Z " fill="#E9F2F0" transform="translate(660,638)"/>
<path d="M0 0 C0.78375 0.185625 1.5675 0.37125 2.375 0.5625 C4.97089775 1.25962266 4.97089775 1.25962266 7 0 C6.34 1.65 5.68 3.3 5 5 C3.02 5 1.04 5 -1 5 C-0.67 3.35 -0.34 1.7 0 0 Z " fill="#199577" transform="translate(751,643)"/>
<path d="M0 0 C1.4540625 0.0309375 1.4540625 0.0309375 2.9375 0.0625 C2.298125 0.31 1.65875 0.5575 1 0.8125 C-1.24991541 1.87812433 -1.24991541 1.87812433 -1.8125 4.1875 C-1.895 4.80625 -1.9775 5.425 -2.0625 6.0625 C-3.0525 5.7325 -4.0425 5.4025 -5.0625 5.0625 C-3.9375 0.08035714 -3.9375 0.08035714 0 0 Z " fill="#26997C" transform="translate(548.0625,652.9375)"/>
</svg>
