<?xml version="1.0" encoding="UTF-8"?>
<svg version="1.1" xmlns="http://www.w3.org/2000/svg" width="1080" height="1080">
<path d="M0 0 C356.4 0 712.8 0 1080 0 C1080 356.4 1080 712.8 1080 1080 C723.6 1080 367.2 1080 0 1080 C0 723.6 0 367.2 0 0 Z " fill="#FEFEFE" transform="translate(0,0)"/>
<path d="M0 0 C28 0 28 0 36 3 C36 3.66 36 4.32 36 5 C36.99 5.33 37.98 5.66 39 6 C42.22928077 10.70304649 41.56202951 16.56218199 41 22 C38.51815903 27.93483711 33.70825116 30.50952748 28 33 C27.34 33 26.68 33 26 33 C29.34402635 38.91557245 32.71531654 44.73021259 36.6875 50.25 C39.62543707 54.33929079 41.88592521 58.43359845 44 63 C40.79164063 63.56287007 39.07019053 63.84470851 36 63 C32.98285797 60.10667158 31.06325627 56.61069847 29 53 C28.48856445 52.10933838 28.48856445 52.10933838 27.96679688 51.20068359 C25.0874925 46.18019053 25.0874925 46.18019053 23.75195312 43.73583984 C22.09803135 40.73662689 20.46335187 38.36451368 18 36 C18 35.34 18 34.68 18 34 C14.37 34 10.74 34 7 34 C7 43.57 7 53.14 7 63 C4.69 63 2.38 63 0 63 C0 42.21 0 21.42 0 0 Z " fill="#BB1D2D" transform="translate(724,515)"/>
<path d="M0 0 C2.64 0 5.28 0 8 0 C13.58099848 11.91792472 19.09462812 23.85509363 24.32836914 35.93041992 C25.76635031 39.23497715 27.23081961 42.51993478 28.78125 45.7734375 C29.3278125 46.92070313 29.874375 48.06796875 30.4375 49.25 C30.93121094 50.26578125 31.42492187 51.2815625 31.93359375 52.328125 C33 55 33 55 33 59 C33.66 59 34.32 59 35 59 C35.495 60.98 35.495 60.98 36 63 C33.36 63 30.72 63 28 63 C26.9932996 60.73192796 25.99448234 58.46092246 25 56.1875 C24.71382813 55.54490234 24.42765625 54.90230469 24.1328125 54.24023438 C22.86288959 51.32243531 22 49.21734286 22 46 C4.675 46.495 4.675 46.495 -13 47 C-14.65 50.96 -16.3 54.92 -18 59 C-18.66 60.32 -19.32 61.64 -20 63 C-22.31 63 -24.62 63 -27 63 C-24.91190335 54.82162145 -21.30393475 47.57068989 -17.5 40.0625 C-15.10742241 35.33449036 -12.93424997 30.59069066 -11.03125 25.64453125 C-9.72690424 22.2996749 -8.34075231 18.99169718 -6.9375 15.6875 C-6.45152344 14.53636719 -5.96554687 13.38523437 -5.46484375 12.19921875 C-4.1450822 9.31685953 -2.64899848 6.70094578 -1 4 C-0.30420546 1.80869466 -0.30420546 1.80869466 0 0 Z " fill="#B40E1F" transform="translate(458,515)"/>
<path d="M0 0 C1.134375 0.020625 2.26875 0.04125 3.4375 0.0625 C3.4375 1.0525 3.4375 2.0425 3.4375 3.0625 C4.0975 3.0625 4.7575 3.0625 5.4375 3.0625 C5.88480469 4.08988281 6.33210937 5.11726562 6.79296875 6.17578125 C7.40360178 7.57554005 8.01428142 8.97527852 8.625 10.375 C8.91697266 11.04595703 9.20894531 11.71691406 9.50976562 12.40820312 C11.25781612 16.41180265 13.04059117 20.39730959 14.85546875 24.37109375 C17.49239436 30.15585246 20.03588222 35.9788718 22.5625 41.8125 C22.99175781 42.80121094 23.42101562 43.78992188 23.86328125 44.80859375 C24.68861929 46.7106805 25.51197208 48.61363033 26.33300781 50.51757812 C27.01478032 52.08848808 27.70508708 53.65576342 28.40917969 55.21679688 C29.6715094 58.03743045 30.4375 59.92913396 30.4375 63.0625 C28.1275 63.0625 25.8175 63.0625 23.4375 63.0625 C22.4307996 60.79442796 21.43198234 58.52342246 20.4375 56.25 C20.15132812 55.60740234 19.86515625 54.96480469 19.5703125 54.30273438 C18.30038959 51.38493531 17.4375 49.27984286 17.4375 46.0625 C0.1125 46.5575 0.1125 46.5575 -17.5625 47.0625 C-19.5425 52.3425 -21.5225 57.6225 -23.5625 63.0625 C-26.2025 63.0625 -28.8425 63.0625 -31.5625 63.0625 C-30.44992041 58.51946669 -29.0668465 55.03533793 -26.62890625 50.99609375 C-24.98495504 48.0153031 -23.83918554 44.86443966 -22.609375 41.6953125 C-21.2302906 38.22701815 -19.68028224 34.85132245 -18.12109375 31.4609375 C-16.03892111 26.92086182 -13.9879621 22.36696737 -11.9375 17.8125 C-11.55311768 16.96059082 -11.16873535 16.10868164 -10.77270508 15.23095703 C-9.09563214 11.50679897 -7.43476051 7.78075771 -5.8515625 4.015625 C-4.13034061 0.07246212 -4.13034061 0.07246212 0 0 Z " fill="#B71123" transform="translate(654.5625,514.9375)"/>
<path d="M0 0 C27 0 27 0 37 5 C40.11670555 9.52664378 41.75892452 13.44331313 41.453125 18.98046875 C40.35172646 23.88928809 37.54704482 27.74563933 33.6875 30.875 C24.71470287 34.63105461 16.60795135 34.16013252 7 34 C7 43.57 7 53.14 7 63 C4.69 63 2.38 63 0 63 C0 42.21 0 21.42 0 0 Z " fill="#C00319" transform="translate(281,515)"/>
<path d="M0 0 C9 0 9 0 10.98828125 1.84375 C11.64376953 3.15859375 11.64376953 3.15859375 12.3125 4.5 C15.10256535 9.52211764 18.13575075 14.018231 21.625 18.5625 C26.15891754 24.53019583 30.61356041 30.54796648 35 36.625 C35.80945068 37.74370483 35.80945068 37.74370483 36.63525391 38.88500977 C38.0994874 40.91692737 39.5540479 42.95504037 41 45 C41.41636719 45.5887793 41.83273437 46.17755859 42.26171875 46.78417969 C45 50.7546875 45 50.7546875 45 53 C45.66 53 46.32 53 47 53 C47 35.51 47 18.02 47 0 C48.98 0 50.96 0 53 0 C53 20.79 53 41.58 53 63 C44 63 44 63 42.03710938 61.36743164 C41.64330078 60.61840576 41.24949219 59.86937988 40.84375 59.09765625 C40.37582031 58.27410645 39.90789063 57.45055664 39.42578125 56.60205078 C38.95527344 55.74337402 38.48476563 54.88469727 38 54 C36.94524513 52.40321832 35.87218397 50.81837955 34.78125 49.24609375 C34.24113281 48.45396484 33.70101562 47.66183594 33.14453125 46.84570312 C32.60183594 46.05099609 32.05914063 45.25628906 31.5 44.4375 C30.95730469 43.63892578 30.41460938 42.84035156 29.85546875 42.01757812 C26.78218133 37.51766922 23.62225359 33.1089398 20.33056641 28.76635742 C18.64410727 26.52754424 17.03366222 24.24135824 15.4375 21.9375 C12.65833822 17.93204141 9.83472106 13.96860948 7 10 C6.67 27.49 6.34 44.98 6 63 C4.02 63 2.04 63 0 63 C0 42.21 0 21.42 0 0 Z " fill="#AF1122" transform="translate(532,515)"/>
<path d="M0 0 C2.31 0 4.62 0 7 0 C7 18.81 7 37.62 7 57 C16.9 57 26.8 57 37 57 C37 58.98 37 60.96 37 63 C24.79 63 12.58 63 0 63 C0 42.21 0 21.42 0 0 Z " fill="#BC0317" transform="translate(363,515)"/>
<path d="M0 0 C3.7434375 -0.061875 3.7434375 -0.061875 7.5625 -0.125 C8.33408447 -0.14320801 9.10566895 -0.16141602 9.90063477 -0.18017578 C16.53838712 -0.23262138 22.54999733 0.99264509 28 5 C29.24051319 8.72153956 29.6710646 12.13949356 29 16 C26.13040566 19.77146684 23.49687805 21.66050441 19 23 C15.72345295 23.23526934 12.47021071 23.18815592 9.1875 23.125 C6.155625 23.08375 3.12375 23.0425 0 23 C0 15.41 0 7.82 0 0 Z " fill="#FDF8F8" transform="translate(730,520)"/>
<path d="M0 0 C19.70149254 -0.49253731 19.70149254 -0.49253731 26 4.625 C27.59419946 8.41122371 27.77703123 11.97094916 27 16 C24.41821825 19.3706595 21.88103756 21.36649676 18 23 C15.89355469 23.22705078 15.89355469 23.22705078 13.671875 23.1953125 C12.9509668 23.19031738 12.23005859 23.18532227 11.48730469 23.18017578 C10.58399414 23.16196777 9.68068359 23.14375977 8.75 23.125 C4.41875 23.063125 4.41875 23.063125 0 23 C0 15.41 0 7.82 0 0 Z " fill="#FDF5F6" transform="translate(288,520)"/>
<path d="M0 0 C3 1 3 1 4.140625 3.16015625 C4.50671875 4.11792969 4.8728125 5.07570313 5.25 6.0625 C7.57673325 11.97155122 10.07885955 17.77339201 12.67675781 23.56665039 C14.07454507 26.72265322 15.15912581 29.63650323 16 33 C6.43 33 -3.14 33 -13 33 C-9.66104182 21.8701394 -9.66104182 21.8701394 -7.625 18.1875 C-4.550797 12.32876055 -2.28403098 6.20090114 0 0 Z " fill="#FBEEEF" transform="translate(653,523)"/>
<path d="M0 0 C0.66 0 1.32 0 2 0 C7.859375 13.18359375 7.859375 13.18359375 8.92773438 15.59326172 C9.64199329 17.19644123 10.3620454 18.79705237 11.08789062 20.39501953 C11.43529297 21.16313965 11.78269531 21.93125977 12.140625 22.72265625 C12.45032227 23.40207275 12.76001953 24.08148926 13.07910156 24.78149414 C14.19373389 27.46671789 15.08060717 30.2418215 16 33 C6.43 33 -3.14 33 -13 33 C-12.17403879 28.04423274 -11.34584284 25.13614533 -9.25 20.75 C-8.44755859 19.05810547 -8.44755859 19.05810547 -7.62890625 17.33203125 C-5.79058542 13.57162917 -3.91470971 9.83308369 -1.98046875 6.12109375 C-1.03928473 4.08498648 -0.46174277 2.18955443 0 0 Z " fill="#FAEDEF" transform="translate(461,523)"/>
<path d="M0 0 C0.33 0 0.66 0 1 0 C1 20.46 1 40.92 1 62 C2.65 62 4.3 62 6 62 C5.99476318 61.12674072 5.98952637 60.25348145 5.98413086 59.35375977 C5.96712249 56.12410727 5.95456631 52.89447755 5.94506836 49.66479492 C5.9400292 48.26504772 5.93319784 46.8653058 5.92456055 45.46557617 C5.9124768 43.45754223 5.90730193 41.44947043 5.90234375 39.44140625 C5.89710693 38.23170166 5.89187012 37.02199707 5.88647461 35.77563477 C6 33 6 33 7 32 C9.69235776 31.76321284 12.36498156 31.57801975 15.0625 31.4375 C15.82111328 31.39431641 16.57972656 31.35113281 17.36132812 31.30664062 C19.24065438 31.20026367 21.12030244 31.09960066 23 31 C21.85660156 30.93941406 20.71320313 30.87882813 19.53515625 30.81640625 C18.04425695 30.73201572 16.55337225 30.64736698 15.0625 30.5625 C14.30775391 30.52318359 13.55300781 30.48386719 12.77539062 30.44335938 C7.11328125 30.11328125 7.11328125 30.11328125 6 29 C5.91273777 27.21928754 5.89300959 25.4351686 5.90234375 23.65234375 C5.90556641 22.57275391 5.90878906 21.49316406 5.91210938 20.38085938 C5.92048828 19.24455078 5.92886719 18.10824219 5.9375 16.9375 C5.94201172 15.79732422 5.94652344 14.65714844 5.95117188 13.48242188 C5.96300253 10.65489649 5.9794859 7.8274736 6 5 C6.33 5 6.66 5 7 5 C7 12.59 7 20.18 7 28 C9.825625 27.9175 12.65125 27.835 15.5625 27.75 C16.8764978 27.72631348 16.8764978 27.72631348 18.21704102 27.70214844 C23.87202505 27.45947267 27.34592805 26.25356935 32 23 C33.16983345 20.6603331 33.1661241 19.16608473 33.1875 16.5625 C33.20167969 15.78003906 33.21585937 14.99757813 33.23046875 14.19140625 C33.14086064 11.70794013 33.14086064 11.70794013 31 9 C28.94996045 7.80767387 28.94996045 7.80767387 27 7 C29 6 29 6 32.125 6.9375 C33.07375 7.288125 34.0225 7.63875 35 8 C31.94939053 4.480066 29.41032896 3.34227403 25 2 C24.34 1.34 23.68 0.68 23 0 C28.73704697 0.44131131 33.45124209 2.54829547 38 6 C40.90822422 10.67078435 42.10898792 15.54833975 41 21 C38.82241895 26.00037129 36.13879377 29.84887703 31 32 C23.15129957 34.81368506 15.24530791 34.1374218 7 34 C7 43.57 7 53.14 7 63 C4.69 63 2.38 63 0 63 C0 42.21 0 21.42 0 0 Z " fill="#B23140" transform="translate(281,515)"/>
<path d="M0 0 C2.64 0 5.28 0 8 0 C9.17133058 2.45620851 10.33721722 4.91474917 11.5 7.375 C11.83386719 8.07367187 12.16773438 8.77234375 12.51171875 9.4921875 C15 14.7734375 15 14.7734375 15 17 C14.01 17.33 13.02 17.66 12 18 C12 15.69 12 13.38 12 11 C11.34 11 10.68 11 10 11 C7 4.25 7 4.25 7 2 C5.35 2 3.7 2 2 2 C2 3.32 2 4.64 2 6 C3.32 6 4.64 6 6 6 C6.66 8.97 7.32 11.94 8 15 C5.64046906 12.64046906 5.50858587 11.22104383 5 8 C4.34 8 3.68 8 3 8 C2.87544434 8.7230835 2.75088867 9.44616699 2.62255859 10.19116211 C1.58138781 14.8886797 -0.47012951 19.158994 -2.375 23.5625 C-2.77460938 24.50802734 -3.17421875 25.45355469 -3.5859375 26.42773438 C-3.9778125 27.33974609 -4.3696875 28.25175781 -4.7734375 29.19140625 C-5.12841309 30.01842041 -5.48338867 30.84543457 -5.84912109 31.69750977 C-7.01622778 34.03246588 -8.37140464 35.96615495 -10 38 C-9.67 35.03 -9.34 32.06 -9 29 C-9.66 29 -10.32 29 -11 29 C-11.20496094 29.98742187 -11.40992188 30.97484375 -11.62109375 31.9921875 C-11.89050781 33.27351562 -12.15992188 34.55484375 -12.4375 35.875 C-12.70433594 37.15117188 -12.97117187 38.42734375 -13.24609375 39.7421875 C-14 43 -14 43 -15 45 C-14.87625 46.7325 -14.87625 46.7325 -14.75 48.5 C-14.62776204 54.04145429 -17.30806977 58.30835017 -20 63 C-22.31 63 -24.62 63 -27 63 C-24.91190335 54.82162145 -21.30393475 47.57068989 -17.5 40.0625 C-15.10742241 35.33449036 -12.93424997 30.59069066 -11.03125 25.64453125 C-9.72690424 22.2996749 -8.34075231 18.99169718 -6.9375 15.6875 C-6.45152344 14.53636719 -5.96554687 13.38523437 -5.46484375 12.19921875 C-4.1450822 9.31685953 -2.64899848 6.70094578 -1 4 C-0.30420546 1.80869466 -0.30420546 1.80869466 0 0 Z " fill="#B80B1D" transform="translate(458,515)"/>
<path d="M0 0 C10.23 0.33 20.46 0.66 31 1 C31.33 2.32 31.66 3.64 32 5 C22.95971078 5.1723784 14.01134307 4.6331684 5 4 C5.00523682 4.73186523 5.01047363 5.46373047 5.01586914 6.21777344 C5.12819084 24.51341492 4.79525832 42.71963385 4 61 C2.68 61 1.36 61 0 61 C0 40.87 0 20.74 0 0 Z " fill="#BF0414" transform="translate(725,516)"/>
<path d="M0 0 C2.31 0 4.62 0 7 0 C7 18.81 7 37.62 7 57 C16.9 57 26.8 57 37 57 C37 58.98 37 60.96 37 63 C24.79 63 12.58 63 0 63 C0 42.21 0 21.42 0 0 Z M1 1 C1 21.13 1 41.26 1 62 C12.55 62 24.1 62 36 62 C36 61.01 36 60.02 36 59 C34.75911621 58.96241577 34.75911621 58.96241577 33.49316406 58.92407227 C29.74528808 58.80803651 25.99765875 58.685344 22.25 58.5625 C20.94804687 58.52318359 19.64609375 58.48386719 18.3046875 58.44335938 C17.05429687 58.40146484 15.80390625 58.35957031 14.515625 58.31640625 C13.36352539 58.27974854 12.21142578 58.24309082 11.02441406 58.20532227 C8 58 8 58 4 57 C4 42.48 4 27.96 4 13 C3.34 13 2.68 13 2 13 C2 9.37 2 5.74 2 2 C2.99 2 3.98 2 5 2 C5 19.82 5 37.64 5 56 C5.33 56 5.66 56 6 56 C6 37.85 6 19.7 6 1 C4.35 1 2.7 1 1 1 Z " fill="#A91D2E" transform="translate(363,515)"/>
<path d="M0 0 C2.31 0 4.62 0 7 0 C8.0625 1.875 8.0625 1.875 9 4 C8.67 4.66 8.34 5.32 8 6 C7.01 6.33 6.02 6.66 5 7 C4.2283821 10.41799762 3.87742734 13.5643815 3.88647461 17.06567383 C3.88655014 18.04631302 3.88662567 19.02695221 3.88670349 20.03730774 C3.89186478 21.0833165 3.89702606 22.12932526 3.90234375 23.20703125 C3.9037587 24.28756271 3.90517365 25.36809418 3.90663147 26.48136902 C3.9122192 29.92510776 3.9247695 33.36878098 3.9375 36.8125 C3.94251658 39.15038968 3.94707921 41.48828039 3.95117188 43.82617188 C3.96218462 49.55080353 3.97891059 55.27539708 4 61 C2.68 61 1.36 61 0 61 C0 40.87 0 20.74 0 0 Z " fill="#C10113" transform="translate(533,516)"/>
<path d="M0 0 C9.24 0 18.48 0 28 0 C28.66 0.66 29.32 1.32 30 2 C27.22909705 2.02743468 24.45847612 2.04704436 21.6875 2.0625 C20.53797852 2.07506836 20.53797852 2.07506836 19.36523438 2.08789062 C13.12150111 2.11379823 7.294029 1.57218445 1 1 C1 21.13 1 41.26 1 62 C2.32 62 3.64 62 5 62 C4.99476318 61.18321777 4.98952637 60.36643555 4.98413086 59.52490234 C4.96328651 55.80827612 4.95031608 52.09166222 4.9375 48.375 C4.92912109 47.08980469 4.92074219 45.80460938 4.91210938 44.48046875 C4.90888672 43.23652344 4.90566406 41.99257813 4.90234375 40.7109375 C4.89710693 39.56931152 4.89187012 38.42768555 4.88647461 37.25146484 C5 34 5 34 6 28 C11.61 28 17.22 28 23 28 C23 28.33 23 28.66 23 29 C22.08476563 29.06058594 21.16953125 29.12117187 20.2265625 29.18359375 C19.03804687 29.26738281 17.84953125 29.35117187 16.625 29.4375 C14.84996094 29.55931641 14.84996094 29.55931641 13.0390625 29.68359375 C10.08481099 29.81084936 10.08481099 29.81084936 8 31 C11.3 31.33 14.6 31.66 18 32 C18 32.33 18 32.66 18 33 C14.37 33 10.74 33 7 33 C7 42.9 7 52.8 7 63 C4.69 63 2.38 63 0 63 C0 42.21 0 21.42 0 0 Z " fill="#B42A39" transform="translate(724,515)"/>
<path d="M0 0 C22 0 22 0 25 2 C25.969375 2.28875 26.93875 2.5775 27.9375 2.875 C31.21269164 4.07813162 32.74078469 5.3932131 35 8 C31 8 31 8 27.3125 7.0625 C20.02673743 5.33305131 12.45276015 5.32514912 5 5 C5 4.01 5 3.02 5 2 C3.68 2 2.36 2 1 2 C1 21.8 1 41.6 1 62 C0.67 62 0.34 62 0 62 C0 41.54 0 21.08 0 0 Z " fill="#B2071B" transform="translate(282,515)"/>
<path d="M0 0 C1.35439668 2.70879335 1.06501451 5.00933268 1 8 C0.01 8.33 -0.98 8.66 -2 9 C-2 10.32 -2 11.64 -2 13 C-1.34 13 -0.68 13 0 13 C0 13.66 0 14.32 0 15 C-0.66 15 -1.32 15 -2 15 C-1.80994385 15.57975586 -1.6198877 16.15951172 -1.42407227 16.75683594 C-0.9356604 19.34032946 -1.2587533 20.4711308 -2.21484375 22.890625 C-2.48876953 23.59960938 -2.76269531 24.30859375 -3.04492188 25.0390625 C-3.33947266 25.76867187 -3.63402344 26.49828125 -3.9375 27.25 C-4.37352539 28.36761719 -4.37352539 28.36761719 -4.81835938 29.5078125 C-5.53573722 31.34241814 -6.26657439 33.17175065 -7 35 C-9.64 35 -12.28 35 -15 35 C-13.88742041 30.45696669 -12.5043465 26.97283793 -10.06640625 22.93359375 C-8.43596371 19.97729683 -7.29651064 16.85600365 -6.08203125 13.7109375 C-4.22729109 9.06404339 -2.10497612 4.53777639 0 0 Z " fill="#BA0F20" transform="translate(638,543)"/>
<path d="M0 0 C0.66 0 1.32 0 2 0 C2 19.14 2 38.28 2 58 C0.02 58 -1.96 58 -4 58 C-4 57.34 -4 56.68 -4 56 C-4.66 56 -5.32 56 -6 56 C-6.33 53.69 -6.66 51.38 -7 49 C-5.515 48.505 -5.515 48.505 -4 48 C-2.68 48.66 -1.36 49.32 0 50 C0 33.5 0 17 0 0 Z " fill="#C30216" transform="translate(581,519)"/>
<path d="M0 0 C2.61161107 2.61161107 3.51446632 5.28018526 4.9375 8.6875 C5.44152344 9.88761719 5.94554687 11.08773437 6.46484375 12.32421875 C7.22474609 14.14373047 7.22474609 14.14373047 8 16 C8.28375488 16.63115723 8.56750977 17.26231445 8.85986328 17.91259766 C10.15109098 20.79606151 11 22.80116932 11 26 C8.69 26 6.38 26 4 26 C2.96724659 23.73392948 1.94866449 21.46318061 0.9375 19.1875 C0.49567383 18.22360352 0.49567383 18.22360352 0.04492188 17.24023438 C-2.11328125 12.33984375 -2.11328125 12.33984375 -1 9 C-0.34 8.67 0.32 8.34 1 8 C0.67 5.36 0.34 2.72 0 0 Z " fill="#B61B2C" transform="translate(674,552)"/>
<path d="M0 0 C0.33 0 0.66 0 1 0 C1 18.81 1 37.62 1 57 C0.01 57 -0.98 57 -2 57 C-2 42.48 -2 27.96 -2 13 C-2.66 13 -3.32 13 -4 13 C-4 9.37 -4 5.74 -4 2 C-3.01 2 -2.02 2 -1 2 C-0.67 1.34 -0.34 0.68 0 0 Z " fill="#CB2B3E" transform="translate(369,515)"/>
<path d="M0 0 C2.64 0 5.28 0 8 0 C9.17133058 2.45620851 10.33721722 4.91474917 11.5 7.375 C11.83386719 8.07367187 12.16773438 8.77234375 12.51171875 9.4921875 C15 14.7734375 15 14.7734375 15 17 C14.01 17.33 13.02 17.66 12 18 C12 15.69 12 13.38 12 11 C11.34 11 10.68 11 10 11 C7 4.25 7 4.25 7 2 C5.35 2 3.7 2 2 2 C2 3.32 2 4.64 2 6 C3.32 6 4.64 6 6 6 C6.66 8.97 7.32 11.94 8 15 C5.64046906 12.64046906 5.50858587 11.22104383 5 8 C4.34 8 3.68 8 3 8 C2.8453125 9.11375 2.8453125 9.11375 2.6875 10.25 C1.95746496 13.17014018 0.93210602 14.73187554 -1 17 C-1 15.02 -1 13.04 -1 11 C-1.99 11.33 -2.98 11.66 -4 12 C-4 13.65 -4 15.3 -4 17 C-4.99 17.33 -5.98 17.66 -7 18 C-5.44516618 12.9385197 -3.83249802 8.50624684 -1 4 C-0.30420546 1.80869466 -0.30420546 1.80869466 0 0 Z " fill="#B62131" transform="translate(458,515)"/>
<path d="M0 0 C0.66 0 1.32 0 2 0 C2 20.79 2 41.58 2 63 C1.34 63 0.68 63 0 63 C-0.1538391 55.22889321 -0.30202014 47.45770102 -0.4429636 39.68635082 C-0.50858624 36.07786843 -0.57616286 32.46944461 -0.64819336 28.86108398 C-0.71762513 25.37931406 -0.78193941 21.89748388 -0.84269524 18.41555214 C-0.87851449 16.43957995 -0.91964329 14.46370633 -0.96083069 12.48783875 C-0.98092697 11.28682022 -1.00102325 10.0858017 -1.02172852 8.84838867 C-1.04171402 7.78915695 -1.06169952 6.72992523 -1.08229065 5.63859558 C-1 3 -1 3 0 0 Z " fill="#FFE2E8" transform="translate(361,515)"/>
<path d="M0 0 C0.66 0 1.32 0 2 0 C1.85769192 1.41702513 1.71099254 2.8336096 1.5625 4.25 C1.48128906 5.03890625 1.40007812 5.8278125 1.31640625 6.640625 C1.02334935 8.82588881 0.55243725 10.86888974 0 13 C0.89307861 12.98952637 1.78615723 12.97905273 2.70629883 12.96826172 C6.02175477 12.93416408 9.33702421 12.90909363 12.65258789 12.89013672 C14.08718812 12.880083 15.52176789 12.86643806 16.95629883 12.84912109 C19.01909438 12.82484451 21.08161885 12.81351081 23.14453125 12.8046875 C24.38565674 12.79421387 25.62678223 12.78374023 26.90551758 12.77294922 C30 13 30 13 33 15 C6.83792049 16.14984709 6.83792049 16.14984709 -5 16 C-3.35 10.72 -1.7 5.44 0 0 Z " fill="#C10215" transform="translate(447,544)"/>
<path d="M0 0 C1.32 0 2.64 0 4 0 C4.66 2.97 5.32 5.94 6 9 C2 10 2 10 0 9 C-1.73868744 8.84733388 -3.48247501 8.75067404 -5.2265625 8.68359375 C-6.2578125 8.64169922 -7.2890625 8.59980469 -8.3515625 8.55664062 C-9.43179688 8.51732422 -10.51203125 8.47800781 -11.625 8.4375 C-12.71296875 8.39431641 -13.8009375 8.35113281 -14.921875 8.30664062 C-17.6144517 8.2003547 -20.30712253 8.09831943 -23 8 C-23 7.34 -23 6.68 -23 6 C-25.31 6 -27.62 6 -30 6 C-30 5.67 -30 5.34 -30 5 C-14.655 4.505 -14.655 4.505 1 4 C0.67 2.68 0.34 1.36 0 0 Z " fill="#BD0215" transform="translate(670,552)"/>
<path d="M0 0 C1.65 0 3.3 0 5 0 C5.99 2.97 6.98 5.94 8 9 C8.66 9 9.32 9 10 9 C10.33 10.98 10.66 12.96 11 15 C11.99 15 12.98 15 14 15 C15.35439668 17.70879335 15.06501451 20.00933268 15 23 C13.02 23.99 13.02 23.99 11 25 C7.55629555 18.08630327 5.11332019 11.66030756 4 4 C2.68 4 1.36 4 0 4 C0 2.68 0 1.36 0 0 Z " fill="#B40C1C" transform="translate(460,517)"/>
<path d="M0 0 C4.76501045 4.50191172 10.02548363 10.45502954 10.9375 17.125 C10.958125 18.07375 10.97875 19.0225 11 20 C10.01 20 9.02 20 8 20 C7.67 19.34 7.34 18.68 7 18 C6.01 17.67 5.02 17.34 4 17 C2.46484375 14.93359375 2.46484375 14.93359375 0.9375 12.4375 C-0.51834591 9.99046857 -0.51834591 9.99046857 -2 8 C-2.66 8 -3.32 8 -4 8 C-3.67 7.01 -3.34 6.02 -3 5 C-2.01 5 -1.02 5 0 5 C0 3.35 0 1.7 0 0 Z " fill="#B81327" transform="translate(541,517)"/>
<path d="M0 0 C3.1212587 4.68188806 2.57914155 9.51987304 2 15 C0.1389157 19.1516496 -0.96432494 20.51386681 -5.0625 22.4375 C-8 23 -8 23 -11 22 C-10.05125 21.4225 -9.1025 20.845 -8.125 20.25 C-4.61052821 17.73226242 -4.61052821 17.73226242 -3 14 C-2.97406436 10.71318188 -2.97406436 10.71318188 -3.375 7.25 C-3.48585938 6.07953125 -3.59671875 4.9090625 -3.7109375 3.703125 C-3.80632813 2.81109375 -3.90171875 1.9190625 -4 1 C-2 0 -2 0 0 0 Z " fill="#BA091B" transform="translate(763,522)"/>
<path d="M0 0 C0.33 0 0.66 0 1 0 C1 7.59 1 15.18 1 23 C8.92 22.67 16.84 22.34 25 22 C23 27 23 27 21 28 C19.47851674 28.08372659 17.95344222 28.10730027 16.4296875 28.09765625 C15.53378906 28.09443359 14.63789063 28.09121094 13.71484375 28.08789062 C12.77769531 28.07951172 11.84054687 28.07113281 10.875 28.0625 C9.93011719 28.05798828 8.98523438 28.05347656 8.01171875 28.04882812 C5.67441613 28.03702357 3.33723939 28.02055759 1 28 C1 27.67 1 27.34 1 27 C6.28 26.67 11.56 26.34 17 26 C11.7796934 25.71082605 11.7796934 25.71082605 6.55883789 25.43188477 C1.11111111 25.11111111 1.11111111 25.11111111 0 24 C-0.08726223 22.21928754 -0.10699041 20.4351686 -0.09765625 18.65234375 C-0.09443359 17.57275391 -0.09121094 16.49316406 -0.08789062 15.38085938 C-0.07951172 14.24455078 -0.07113281 13.10824219 -0.0625 11.9375 C-0.05798828 10.79732422 -0.05347656 9.65714844 -0.04882812 8.48242188 C-0.03699747 5.65489649 -0.0205141 2.8274736 0 0 Z " fill="#B62031" transform="translate(287,520)"/>
<path d="M0 0 C11.55 0 23.1 0 35 0 C35.66 2.31 36.32 4.62 37 7 C36.01 6.67 35.02 6.34 34 6 C34 4.68 34 3.36 34 2 C22.78 2 11.56 2 0 2 C0.33 3.65 0.66 5.3 1 7 C-0.98 7.99 -0.98 7.99 -3 9 C-2.01 6.03 -1.02 3.06 0 0 Z " fill="#F5BCC1" transform="translate(637,561)"/>
<path d="M0 0 C1.47583955 0.0001591 2.95168467 0.00585225 4.42749023 0.01586914 C5.20293686 0.01728409 5.97838348 0.01869904 6.77732849 0.02015686 C9.26361893 0.02577194 11.74982059 0.03832693 14.23608398 0.05102539 C15.91772331 0.05603845 17.59936405 0.06060169 19.28100586 0.06469727 C23.41189965 0.07574626 27.54272674 0.09302094 31.67358398 0.11352539 C31.34358398 1.10352539 31.01358398 2.09352539 30.67358398 3.11352539 C29.25094238 3.08210449 29.25094238 3.08210449 27.79956055 3.05004883 C24.27341974 2.98178979 20.74798299 2.9316861 17.22143555 2.89379883 C15.69658313 2.8737094 14.17180751 2.84643223 12.6472168 2.81176758 C10.452688 2.76312744 8.2591793 2.74053143 6.06420898 2.72290039 C4.74453125 2.70195313 3.42485352 2.68100586 2.06518555 2.65942383 C-1.81964442 3.17956375 -2.95972005 4.0736359 -5.32641602 7.11352539 C-4.28875435 0.1463685 -4.28875435 0.1463685 0 0 Z " fill="#F5B7BD" transform="translate(448.326416015625,560.886474609375)"/>
<path d="M0 0 C0.19294408 4.82360189 -0.24252386 8.49646738 -2 13 C-4.64 13 -7.28 13 -10 13 C-8.83059623 8.03003399 -7.65027746 4.76089192 -4 1 C-1 0 -1 0 0 0 Z " fill="#B51E2D" transform="translate(633,565)"/>
<path d="M0 0 C1.58493084 3.16986168 1.2940042 6.54032261 1 10 C0 12.5 0 12.5 -1 14 C-1.99 14 -2.98 14 -4 14 C-4.33 15.32 -4.66 16.64 -5 18 C-3.68 17.67 -2.36 17.34 -1 17 C-1.75 21.75 -1.75 21.75 -4 24 C-4 22.35 -4 20.7 -4 19 C-4.66 19 -5.32 19 -6 19 C-6 19.99 -6 20.98 -6 22 C-6.66 22 -7.32 22 -8 22 C-8.33 23.98 -8.66 25.96 -9 28 C-9.66 27.67 -10.32 27.34 -11 27 C-9.12256629 20.97244968 -6.87101576 15.31999156 -4.20703125 9.59765625 C-2.73342948 6.42631264 -1.36011307 3.22132043 0 0 Z " fill="#B22030" transform="translate(650,516)"/>
<path d="M0 0 C5.73704697 0.44131131 10.45124209 2.54829547 15 6 C18.15957825 11.07447416 18.30447263 15.21502012 18 21 C17.67 21 17.34 21 17 21 C16.57682292 18.98177083 16.15364583 16.96354167 15.73046875 14.9453125 C15.07691162 12.62953451 15.07691162 12.62953451 12 11 C12 13.64 12 16.28 12 19 C11.67 19 11.34 19 11 19 C10.91363281 18.38511719 10.82726562 17.77023437 10.73828125 17.13671875 C9.92508804 11.79246389 9.92508804 11.79246389 6.375 7.9375 C5.59125 7.628125 4.8075 7.31875 4 7 C6 6 6 6 9.125 6.9375 C10.07375 7.288125 11.0225 7.63875 12 8 C8.94939053 4.480066 6.41032896 3.34227403 2 2 C1.34 1.34 0.68 0.68 0 0 Z " fill="#B32131" transform="translate(304,515)"/>
<path d="M0 0 C0.66 0 1.32 0 2 0 C1.38029501 9.80843419 1.38029501 9.80843419 -2 14 C-2.66 14 -3.32 14 -4 14 C-4.33 16.31 -4.66 18.62 -5 21 C-5.99 21 -6.98 21 -8 21 C-8 19.68 -8 18.36 -8 17 C-7.34 16.67 -6.68 16.34 -6 16 C-6.061875 15.113125 -6.12375 14.22625 -6.1875 13.3125 C-5.97850701 9.62029058 -5.07917352 7.99400987 -3 5 C-2.67 4.34 -2.34 3.68 -2 3 C-1.34 3 -0.68 3 0 3 C0 2.01 0 1.02 0 0 Z " fill="#BC0517" transform="translate(644,535)"/>
<path d="M0 0 C2.51625 -0.020625 5.0325 -0.04125 7.625 -0.0625 C8.79603271 -0.07615601 8.79603271 -0.07615601 9.99072266 -0.09008789 C14.10618477 -0.10628227 17.945321 0.18778512 22 1 C22 1.33 22 1.66 22 2 C15.4 2 8.8 2 2 2 C2.020625 3.98 2.04125 5.96 2.0625 8 C2.06808419 13.10953575 1.79101615 17.95727206 1 23 C0.67 23 0.34 23 0 23 C0 15.41 0 7.82 0 0 Z " fill="#F2BCC1" transform="translate(730,520)"/>
<path d="M0 0 C5.625 5.625 5.625 5.625 7 9 C6.34 9 5.68 9 5 9 C4.01 8.01 3.02 7.02 2 6 C1.67 21.84 1.34 37.68 1 54 C0.67 54 0.34 54 0 54 C0 36.18 0 18.36 0 0 Z " fill="#F9B6BB" transform="translate(538,524)"/>
<path d="M0 0 C2.42992214 2.42992214 3.37961094 4.72618469 4.75 7.875 C5.21921875 8.92429687 5.6884375 9.97359375 6.171875 11.0546875 C7 14 7 14 5 18 C4.01 15.03 3.02 12.06 2 9 C0.84058962 12.47823115 1.29179116 14.45895578 2 18 C-1.55007718 14.0949151 -2.81819916 11.02265357 -4 6 C-3.34 6 -2.68 6 -2 6 C-1.67 5.01 -1.34 4.02 -1 3 C-0.67 2.01 -0.34 1.02 0 0 Z " fill="#B81F2F" transform="translate(475,536)"/>
<path d="M0 0 C1.32 0 2.64 0 4 0 C4 1.65 4 3.3 4 5 C4.66 5 5.32 5 6 5 C7.25664978 7.90600261 8 9.79604584 8 13 C5.6875 12.8125 5.6875 12.8125 3 12 C0.5606666 8.8637142 -0.57370295 5.94324775 -1 2 C-0.67 1.34 -0.34 0.68 0 0 Z " fill="#B8091B" transform="translate(744,546)"/>
<path d="M0 0 C1.32 0 2.64 0 4 0 C3.49396008 2.16874252 3.00016187 3.99967627 2 6 C1.34 6 0.68 6 0 6 C-0.15855469 6.62648438 -0.31710937 7.25296875 -0.48046875 7.8984375 C-2.40994854 14.65694683 -2.40994854 14.65694683 -5.6875 16.5625 C-6.450625 16.706875 -7.21375 16.85125 -8 17 C-7.67 15.68 -7.34 14.36 -7 13 C-6.01 13 -5.02 13 -4 13 C-3.87882813 12.31292969 -3.75765625 11.62585938 -3.6328125 10.91796875 C-3.38144531 9.56638672 -3.38144531 9.56638672 -3.125 8.1875 C-2.96257813 7.29417969 -2.80015625 6.40085937 -2.6328125 5.48046875 C-2 3 -2 3 0 0 Z " fill="#B30917" transform="translate(653,517)"/>
<path d="M0 0 C3.9589232 0.10950024 7.91686326 0.24021668 11.875 0.375 C13.56689453 0.42140625 13.56689453 0.42140625 15.29296875 0.46875 C16.90751953 0.52675781 16.90751953 0.52675781 18.5546875 0.5859375 C19.54968262 0.6173584 20.54467773 0.6487793 21.56982422 0.68115234 C24 1 24 1 26 3 C22.96865616 4.01044795 21.25604057 4.05032949 18.11328125 3.87890625 C17.17548828 3.83056641 16.23769531 3.78222656 15.27148438 3.73242188 C13.80678711 3.64831055 13.80678711 3.64831055 12.3125 3.5625 C11.32443359 3.51029297 10.33636719 3.45808594 9.31835938 3.40429688 C6.87858324 3.27464694 4.43921895 3.13968258 2 3 C2 2.34 2 1.68 2 1 C1.34 0.67 0.68 0.34 0 0 Z " fill="#C40218" transform="translate(728,516)"/>
<path d="M0 0 C3.16115776 1.36983503 3.9927092 1.9890638 6 5 C5.65911305 8.92019991 4.91756367 12.54838539 3 16 C0.375 17.3125 0.375 17.3125 -2 18 C-0.125 13.25 -0.125 13.25 1 11 C1.09499503 9.50243129 1.12987198 8.00057068 1.125 6.5 C1.12757813 5.7059375 1.13015625 4.911875 1.1328125 4.09375 C1.13277996 1.94081466 1.13277996 1.94081466 0 0 Z " fill="#C40117" transform="translate(315,525)"/>
<path d="M0 0 C1.35439668 2.70879335 1.06501451 5.00933268 1 8 C0.01 8.33 -0.98 8.66 -2 9 C-1.896875 9.721875 -1.79375 10.44375 -1.6875 11.1875 C-2.12449065 15.12041589 -4.10082197 16.46321923 -7 19 C-7 15.06190705 -5.53411472 11.95806192 -4.0625 8.375 C-3.78470703 7.68148437 -3.50691406 6.98796875 -3.22070312 6.2734375 C-1.14043257 1.14043257 -1.14043257 1.14043257 0 0 Z " fill="#B72032" transform="translate(638,543)"/>
<path d="M0 0 C2.64 0 5.28 0 8 0 C9.17133058 2.45620851 10.33721722 4.91474917 11.5 7.375 C11.83386719 8.07367187 12.16773438 8.77234375 12.51171875 9.4921875 C15 14.7734375 15 14.7734375 15 17 C14.01 17.33 13.02 17.66 12 18 C12 15.69 12 13.38 12 11 C11.34 11 10.68 11 10 11 C7 4.375 7 4.375 7 1 C4.69 1.33 2.38 1.66 0 2 C0 1.34 0 0.68 0 0 Z " fill="#B22A39" transform="translate(458,515)"/>
<path d="M0 0 C2.475 0.495 2.475 0.495 5 1 C5 1.99 5 2.98 5 4 C-4.04028922 4.1723784 -12.98865693 3.6331684 -22 3 C-22 2.67 -22 2.34 -22 2 C-14.74 2 -7.48 2 0 2 C0 1.34 0 0.68 0 0 Z " fill="#AE0E1E" transform="translate(752,517)"/>
<path d="M0 0 C4 4.625 4 4.625 4 8 C4.66 8 5.32 8 6 8 C6 9.32 6 10.64 6 12 C4.35 12 2.7 12 1 12 C0.63597631 10.56496445 0.28413409 9.12683494 -0.0625 7.6875 C-0.25972656 6.88699219 -0.45695313 6.08648438 -0.66015625 5.26171875 C-1 3 -1 3 0 0 Z " fill="#BD0517" transform="translate(678,565)"/>
<path d="M0 0 C1.65 1.65 3.3 3.3 5 5 C4.67 5.66 4.34 6.32 4 7 C2.91052075 10.14061025 2.91052075 10.14061025 2 14 C-0.31 10.37 -2.62 6.74 -5 3 C-4.01 3.33 -3.02 3.66 -2 4 C-2 4.66 -2 5.32 -2 6 C-1.01 6 -0.02 6 1 6 C0.67 4.02 0.34 2.04 0 0 Z " fill="#B51F2F" transform="translate(551,531)"/>
<path d="M0 0 C2.94366879 4.41550318 5 7.61090125 5 13 C5.66 13 6.32 13 7 13 C7.33 14.32 7.66 15.64 8 17 C5.36 17 2.72 17 0 17 C0.33 16.34 0.66 15.68 1 15 C1.66 15.33 2.32 15.66 3 16 C3.33 14.02 3.66 12.04 4 10 C3.34 10 2.68 10 2 10 C0.68373308 6.38026598 0 3.90432869 0 0 Z " fill="#B52C3B" transform="translate(486,561)"/>
<path d="M0 0 C-6.78743178 2.81552726 -12.68889006 3.3689719 -20 3 C-18.12185976 0.5136364 -17.12901564 0.02354914 -14.00390625 -0.546875 C-12.86824219 -0.61390625 -11.73257813 -0.6809375 -10.5625 -0.75 C-9.42941406 -0.82734375 -8.29632812 -0.9046875 -7.12890625 -0.984375 C-4.47565486 -0.99762469 -2.50003608 -0.81082251 0 0 Z " fill="#BB0419" transform="translate(751,544)"/>
<path d="M0 0 C1.11196276 3.33588828 1.09809194 4.70572419 0 8 C-2.0625 9.3125 -2.0625 9.3125 -4 10 C-4 11.65 -4 13.3 -4 15 C-4.99 15.495 -4.99 15.495 -6 16 C-6 13.36 -6 10.72 -6 8 C-5.34 7.67 -4.68 7.34 -4 7 C-3.855625 6.195625 -3.71125 5.39125 -3.5625 4.5625 C-3 2 -3 2 0 0 Z " fill="#C20216" transform="translate(457,525)"/>
<path d="M0 0 C2 1 2 1 3.1875 4.25 C3.95061988 7.77209175 4.0252106 9.61680501 3 13 C-0.64775386 9.11690718 -1.58525633 6.28798182 -2 1 C-1.34 0.67 -0.68 0.34 0 0 Z " fill="#C10515" transform="translate(484,559)"/>
<path d="M0 0 C0.66 0.66 1.32 1.32 2 2 C1.07000343 4.41979691 0.13138275 6.83562379 -0.8125 9.25 C-1.07353516 9.93191406 -1.33457031 10.61382813 -1.60351562 11.31640625 C-3.0299188 14.94404889 -4.42909871 18.00447537 -7 21 C-6.49775354 15.97753538 -5.32134845 12.44925119 -3 8 C-2.30092586 5.26427415 -2.30092586 5.26427415 -2 3 C-1.34 3 -0.68 3 0 3 C0 2.01 0 1.02 0 0 Z " fill="#AE1524" transform="translate(455,532)"/>
<path d="M0 0 C5.61 0 11.22 0 17 0 C17 0.33 17 0.66 17 1 C16.08476563 1.06058594 15.16953125 1.12117187 14.2265625 1.18359375 C13.03804687 1.26738281 11.84953125 1.35117187 10.625 1.4375 C9.44164062 1.51871094 8.25828125 1.59992187 7.0390625 1.68359375 C4.08481099 1.81084936 4.08481099 1.81084936 2 3 C5.3 3.33 8.6 3.66 12 4 C12 4.33 12 4.66 12 5 C6.06 5.495 6.06 5.495 0 6 C0 4.02 0 2.04 0 0 Z " fill="#A91929" transform="translate(730,543)"/>
<path d="M0 0 C0.33 0 0.66 0 1 0 C1.05391993 1.79133978 1.09275571 3.58313899 1.125 5.375 C1.14820313 6.37273438 1.17140625 7.37046875 1.1953125 8.3984375 C1 11 1 11 -1 13 C-1 12.34 -1 11.68 -1 11 C-1.66 11 -2.32 11 -3 11 C-3 11.66 -3 12.32 -3 13 C-3.66 13 -4.32 13 -5 13 C-3.58192622 8.52761347 -1.88695626 4.28853694 0 0 Z " fill="#BD2333" transform="translate(450,533)"/>
<path d="M0 0 C0 0.66 0 1.32 0 2 C-0.78842285 1.76228882 -0.78842285 1.76228882 -1.59277344 1.51977539 C-4.58978574 0.87265174 -7.45054208 0.78111912 -10.515625 0.68359375 C-11.76601563 0.64169922 -13.01640625 0.59980469 -14.3046875 0.55664062 C-15.60664062 0.51732422 -16.90859375 0.47800781 -18.25 0.4375 C-19.56742188 0.39431641 -20.88484375 0.35113281 -22.2421875 0.30664062 C-25.49468788 0.20058083 -28.74726392 0.09851976 -32 0 C-32 -0.33 -32 -0.66 -32 -1 C-27.41735239 -1.22582973 -22.83395534 -1.42764772 -18.25 -1.625 C-16.94804688 -1.68945312 -15.64609375 -1.75390625 -14.3046875 -1.8203125 C-13.05429687 -1.871875 -11.80390625 -1.9234375 -10.515625 -1.9765625 C-8.78747559 -2.05511475 -8.78747559 -2.05511475 -7.02441406 -2.13525391 C-4.05202941 -2.00232679 -2.4876472 -1.56412152 0 0 Z " fill="#FCC6CC" transform="translate(756,515)"/>
<path d="M0 0 C3.68006822 3.38168431 5.9785845 6.42521756 8 11 C5.50638429 9.79618552 3.31856917 8.54571278 1 7 C0.67 7.66 0.34 8.32 0 9 C-1.10844919 5.67465243 -0.84454356 3.37817425 0 0 Z " fill="#B92030" transform="translate(561,545)"/>
<path d="M0 0 C2.14210449 1.76956458 2.96060573 2.87575652 3.8125 5.5625 C3.874375 6.366875 3.93625 7.17125 4 8 C3.34 8.66 2.68 9.32 2 10 C1.67 10.66 1.34 11.32 1 12 C0.34 12 -0.32 12 -1 12 C-1.66 10.02 -2.32 8.04 -3 6 C-1.68 6.33 -0.36 6.66 1 7 C0.67 4.69 0.34 2.38 0 0 Z " fill="#B61828" transform="translate(670,544)"/>
<path d="M0 0 C0.66 0 1.32 0 2 0 C2.144375 0.763125 2.28875 1.52625 2.4375 2.3125 C2.9632594 5.08172908 2.9632594 5.08172908 4 8 C1.69 8 -0.62 8 -3 8 C-1.125 1.125 -1.125 1.125 0 0 Z " fill="#B31C2D" transform="translate(434,570)"/>
<path d="M0 0 C0.66 0 1.32 0 2 0 C1.67 2.64 1.34 5.28 1 8 C-0.98 8 -2.96 8 -5 8 C-5 7.34 -5 6.68 -5 6 C-4.34 6 -3.68 6 -3 6 C-3 5.01 -3 4.02 -3 3 C-2.34 3 -1.68 3 -1 3 C-0.67 2.01 -0.34 1.02 0 0 Z " fill="#BA0315" transform="translate(629,569)"/>
<path d="M0 0 C1.58493084 3.16986168 1.2940042 6.54032261 1 10 C0 12.5 0 12.5 -1 14 C-1.66 14 -2.32 14 -3 14 C-3.34615998 8.34605369 -2.43425238 4.96993194 0 0 Z " fill="#C22536" transform="translate(650,516)"/>
<path d="M0 0 C2.31 0.33 4.62 0.66 7 1 C6.67 2.98 6.34 4.96 6 7 C4.125 6.875 4.125 6.875 2 6 C0.75 2.9375 0.75 2.9375 0 0 Z " fill="#B91121" transform="translate(483,570)"/>
<path d="M0 0 C0.33 0.66 0.66 1.32 1 2 C2.32 1.34 3.64 0.68 5 0 C5.6875 2.75 5.6875 2.75 6 6 C4.5625 8.375 4.5625 8.375 3 10 C1.66666667 7.33333333 0.33333333 4.66666667 -1 2 C-0.67 1.34 -0.34 0.68 0 0 Z " fill="#C12133" transform="translate(437,562)"/>
<path d="M0 0 C-1.01454452 2.5363613 -1.6853556 3.79351461 -4 5.3125 C-4.66 5.539375 -5.32 5.76625 -6 6 C-6.66 5.67 -7.32 5.34 -8 5 C-8.33 5.99 -8.66 6.98 -9 8 C-9.33 6.68 -9.66 5.36 -10 4 C-8.71086513 3.32845067 -7.41859796 2.66291141 -6.125 2 C-5.40570312 1.62875 -4.68640625 1.2575 -3.9453125 0.875 C-2 0 -2 0 0 0 Z " fill="#F7D5D7" transform="translate(760,544)"/>
<path d="M0 0 C1.32 0 2.64 0 4 0 C4.66 2.97 5.32 5.94 6 9 C5.01 8.67 4.02 8.34 3 8 C2.67 7.34 2.34 6.68 2 6 C1.01 6 0.02 6 -1 6 C-1 5.34 -1 4.68 -1 4 C-0.34 4 0.32 4 1 4 C0.67 2.68 0.34 1.36 0 0 Z " fill="#C40317" transform="translate(670,552)"/>
<path d="M0 0 C0.66 0.33 1.32 0.66 2 1 C2 4.63 2 8.26 2 12 C-0.5 10.1875 -0.5 10.1875 -3 8 C-3 7.01 -3 6.02 -3 5 C-2.01 5 -1.02 5 0 5 C0 3.35 0 1.7 0 0 Z " fill="#BB172B" transform="translate(541,517)"/>
<path d="M0 0 C2.91387197 0.2913872 3.82565583 0.79452294 5.75 3.0625 C6.1625 3.701875 6.575 4.34125 7 5 C6.67 5.66 6.34 6.32 6 7 C4.02 5.68 2.04 4.36 0 3 C0.33 4.98 0.66 6.96 1 9 C-1 7 -1 7 -1.1875 3.9375 C-1 1 -1 1 0 0 Z " fill="#BB2030" transform="translate(757,565)"/>
<path d="M0 0 C2.35953094 2.35953094 2.49141413 3.77895617 3 7 C1.35 6.67 -0.3 6.34 -2 6 C-2.33 6.99 -2.66 7.98 -3 9 C-3.66 7.02 -4.32 5.04 -5 3 C-4.34 2.67 -3.68 2.34 -3 2 C-3 2.99 -3 3.98 -3 5 C-2.34 5 -1.68 5 -1 5 C-0.67 3.35 -0.34 1.7 0 0 Z " fill="#B82231" transform="translate(667,536)"/>
<path d="M0 0 C2.31 0 4.62 0 7 0 C7.33 1.98 7.66 3.96 8 6 C7.34 4.68 6.68 3.36 6 2 C3.11424181 2.39803561 2.17810487 2.79009069 0.25 5.0625 C-0.1625 5.701875 -0.575 6.34125 -1 7 C-0.67 4.69 -0.34 2.38 0 0 Z " fill="#A80F22" transform="translate(651,515)"/>
<path d="M0 0 C1.32 0 2.64 0 4 0 C3.42655063 2.86724686 3.1385485 3.8614515 1 6 C0.67 5.67 0.34 5.34 0 5 C-0.99 5.99 -1.98 6.98 -3 8 C-2.45276317 4.62537285 -1.9451 2.91765 0 0 Z " fill="#CC071C" transform="translate(653,517)"/>
<path d="M0 0 C1.65 0 3.3 0 5 0 C5.33 1.98 5.66 3.96 6 6 C5.34 6 4.68 6 4 6 C4 5.34 4 4.68 4 4 C2.68 4 1.36 4 0 4 C0 2.68 0 1.36 0 0 Z " fill="#CA0115" transform="translate(460,517)"/>
<path d="M0 0 C0.99 0 1.98 0 3 0 C4.25664978 2.90600261 5 4.79604584 5 8 C3.68 7.67 2.36 7.34 1 7 C0.67 4.69 0.34 2.38 0 0 Z " fill="#C30115" transform="translate(747,551)"/>
<path d="M0 0 C2.76223278 2.76223278 2.57856291 5.20706617 3 9 C2.01 9 1.02 9 0 9 C-1.125 3.375 -1.125 3.375 0 0 Z " fill="#B80516" transform="translate(543,520)"/>
<path d="M0 0 C0.99 0 1.98 0 3 0 C6.34821429 6.96428571 6.34821429 6.96428571 5 11 C4.16426177 9.35538655 3.33147118 7.70927487 2.5 6.0625 C2.0359375 5.14597656 1.571875 4.22945312 1.09375 3.28515625 C0 1 0 1 0 0 Z " fill="#FDDCDE" transform="translate(678,560)"/>
<path d="M0 0 C2 1 2 1 2.6328125 2.84765625 C2.79523438 3.57855469 2.95765625 4.30945313 3.125 5.0625 C3.29257812 5.79597656 3.46015625 6.52945313 3.6328125 7.28515625 C3.75398438 7.85105469 3.87515625 8.41695312 4 9 C2.0625 8.3125 2.0625 8.3125 0 7 C-0.93580311 4.12060581 -1.37245106 2.74490212 0 0 Z " fill="#C70215" transform="translate(476,544)"/>
<path d="M0 0 C0.33 0 0.66 0 1 0 C1 2.31 1 4.62 1 7 C0.01 7.495 0.01 7.495 -1 8 C-1.33 8.99 -1.66 9.98 -2 11 C-2.66 11 -3.32 11 -4 11 C-3.52269162 9.5410574 -3.04308958 8.08286504 -2.5625 6.625 C-2.29566406 5.81289063 -2.02882813 5.00078125 -1.75390625 4.1640625 C-1 2 -1 2 0 0 Z " fill="#F8C7CE" transform="translate(455,537)"/>
<path d="M0 0 C0.99 0.33 1.98 0.66 3 1 C3.6875 3.0625 3.6875 3.0625 4 5 C2.02 5.66 0.04 6.32 -2 7 C-1.34 4.69 -0.68 2.38 0 0 Z " fill="#F5BDC4" transform="translate(653,523)"/>
<path d="M0 0 C1.97566188 1.97566188 2.89579072 3.52337094 4.125 6 C4.47820313 6.70125 4.83140625 7.4025 5.1953125 8.125 C6 10 6 10 6 12 C5.34 12 4.68 12 4 12 C3.13353333 10.56988027 2.28218171 9.13059381 1.4375 7.6875 C0.72400391 6.48673828 0.72400391 6.48673828 -0.00390625 5.26171875 C-1 3 -1 3 0 0 Z " fill="#B53440" transform="translate(678,561)"/>
<path d="M0 0 C-0.33 1.65 -0.66 3.3 -1 5 C-3 5 -3 5 -4.625 3.625 C-6 2 -6 2 -6 0 C-3 -1 -3 -1 0 0 Z " fill="#BB0719" transform="translate(667,536)"/>
<path d="M0 0 C0.66 0 1.32 0 2 0 C2.33 1.65 2.66 3.3 3 5 C2.01 5.33 1.02 5.66 0 6 C-0.33 6.99 -0.66 7.98 -1 9 C-1.66 9 -2.32 9 -3 9 C-2.01 6.03 -1.02 3.06 0 0 Z " fill="#FBD2D9" transform="translate(461,523)"/>
<path d="M0 0 C1.35439668 2.70879335 1.06501451 5.00933268 1 8 C-0.32 8.33 -1.64 8.66 -3 9 C-2.44271087 5.65626525 -1.64826111 2.96687001 0 0 Z " fill="#C33344" transform="translate(638,543)"/>
<path d="M0 0 C0.66 1.32 1.32 2.64 2 4 C1.01 4.33 0.02 4.66 -1 5 C-1.33 6.65 -1.66 8.3 -2 10 C-2.66 10 -3.32 10 -4 10 C-3.52449439 8.51965236 -3.04448784 7.04074979 -2.5625 5.5625 C-2.29566406 4.73878906 -2.02882813 3.91507813 -1.75390625 3.06640625 C-1 1 -1 1 0 0 Z " fill="#F2B4BD" transform="translate(646,540)"/>
<path d="M0 0 C0.99 0.495 0.99 0.495 2 1 C2 1.66 2 2.32 2 3 C2.66 3 3.32 3 4 3 C3.67 5.31 3.34 7.62 3 10 C1.11608215 6.73454239 0.50712033 3.71888239 0 0 Z " fill="#C20215" transform="translate(466,523)"/>
<path d="M0 0 C4 4.875 4 4.875 4 6 C1.36 6 -1.28 6 -4 6 C-4.33 5.34 -4.66 4.68 -5 4 C-3.35 4 -1.7 4 0 4 C0 2.68 0 1.36 0 0 Z " fill="#B13040" transform="translate(764,572)"/>
<path d="M0 0 C0.6875 1.625 0.6875 1.625 1 4 C-0.4375 7.25 -0.4375 7.25 -2 10 C-2.66 10 -3.32 10 -4 10 C-2.99806563 6.20696275 -2.18975773 3.28463659 0 0 Z " fill="#AC182A" transform="translate(445,546)"/>
<path d="M0 0 C0.66 0 1.32 0 2 0 C1.34 1.98 0.68 3.96 0 6 C2.31 6 4.62 6 7 6 C7 6.33 7 6.66 7 7 C4.03 7 1.06 7 -2 7 C-1.34 4.69 -0.68 2.38 0 0 Z " fill="#FDEDEF" transform="translate(451,548)"/>
<path d="M0 0 C0.99 0 1.98 0 3 0 C4.2077558 3.62326739 3.54311128 4.64146369 2 8 C-0.1519437 4.77208445 -0.20086443 3.71599191 0 0 Z " fill="#BD0D21" transform="translate(665,542)"/>
<path d="M0 0 C2.475 0.495 2.475 0.495 5 1 C5.33 2.32 5.66 3.64 6 5 C4.35 5 2.7 5 1 5 C0.67 3.35 0.34 1.7 0 0 Z " fill="#C31A2B" transform="translate(469,531)"/>
<path d="M0 0 C1.65 0 3.3 0 5 0 C5 0.66 5 1.32 5 2 C1.53846154 5 1.53846154 5 -1 5 C-0.67 3.35 -0.34 1.7 0 0 Z " fill="#F9DDDE" transform="translate(753,536)"/>
<path d="M0 0 C0.99 0 1.98 0 3 0 C3.33 1.98 3.66 3.96 4 6 C3.01 6 2.02 6 1 6 C0.67 4.02 0.34 2.04 0 0 Z " fill="#C20216" transform="translate(548,531)"/>
</svg>
