<?xml version="1.0" encoding="UTF-8"?>
<svg version="1.1" xmlns="http://www.w3.org/2000/svg" width="3240" height="3240">
<path d="M0 0 C1069.2 0 2138.4 0 3240 0 C3240 1069.2 3240 2138.4 3240 3240 C2170.8 3240 1101.6 3240 0 3240 C0 2170.8 0 1101.6 0 0 Z " fill="#FEFEFE" transform="translate(0,0)"/>
<path d="M0 0 C1.13276367 0.00077545 2.26552734 0.0015509 3.43261719 0.00234985 C27.60106631 0.05069912 51.65738727 1.11983544 75.75 3 C77.40224075 3.12722443 77.40224075 3.12722443 79.08786011 3.25701904 C95.25833004 4.51171325 111.38579339 6.03369247 127.5 7.875 C128.87328964 8.03107727 128.87328964 8.03107727 130.27432251 8.19030762 C138.55614671 9.14014984 146.80303873 10.10584779 154.98901367 11.70361328 C158.9332156 12.43451697 162.89492789 13.03077915 166.859375 13.640625 C177.00918885 15.21943607 187.09957985 17.06816393 197.1875 19 C198.09480865 19.17329834 199.00211731 19.34659668 199.93692017 19.52514648 C235.6910545 26.37464837 271.05223469 34.72806196 305.71679688 45.89404297 C308.74139821 46.86801364 311.76913045 47.83155094 314.79882812 48.78955078 C340.16651159 56.8149087 365.20253615 65.43938083 389.9375 75.25 C390.91148743 75.63578217 390.91148743 75.63578217 391.90515137 76.02935791 C435.15962098 93.19819541 478.20103663 113.01492975 518.28662109 136.69580078 C521.27608103 138.44850864 524.28656807 140.16131891 527.30078125 141.87109375 C541.4588622 149.91889962 555.33039352 158.30284856 568.9375 167.25 C569.60084351 167.68606567 570.26418701 168.12213135 570.94763184 168.57141113 C607.73998472 192.78024306 607.73998472 192.78024306 622.9375 204.25 C623.77764648 204.88341309 624.61779297 205.51682617 625.48339844 206.16943359 C630.87284471 210.24190991 636.24204032 214.34014391 641.59912109 218.45507812 C643.65281703 220.03147952 645.71004185 221.60305632 647.76953125 223.171875 C653.69371794 227.69195527 659.52704598 232.3062822 665.2734375 237.05078125 C667.02176712 238.49405042 668.7767961 239.92925015 670.5390625 241.35546875 C681.22319334 250.00677823 691.57351967 259.05251045 701.7578125 268.28515625 C703.7358952 270.06826664 705.736058 271.82014769 707.75 273.5625 C716.26906814 280.99732311 724.54372832 288.69231388 732.42578125 296.80078125 C734.45736637 298.78181371 736.51627948 300.63472542 738.6640625 302.484375 C743.31359283 306.51910935 747.65958444 310.82499581 752 315.1875 C752.76376953 315.94740234 753.52753906 316.70730469 754.31445312 317.49023438 C758.51551758 321.69848628 762.53233449 326.0003559 766.41186523 330.50610352 C768.32399614 332.6917894 770.3536588 334.72836302 772.4375 336.75 C775.80850065 340.08120807 778.9826403 343.50111628 782.06640625 347.09765625 C784.26829829 349.63052162 786.53945826 352.09332522 788.8125 354.5625 C792.95995258 359.10524685 796.86982695 363.79119962 800.73046875 368.578125 C802.85373338 371.1485905 805.05561849 373.60919363 807.3125 376.0625 C811.2690862 380.40859469 814.89846064 384.93886768 818.49511719 389.58081055 C822.25809604 394.42476935 826.14318994 399.15701032 830.0625 403.875 C835.11406848 409.97652619 840.01052917 416.15084172 844.68701172 422.54736328 C846.12610453 424.50679969 847.58034996 426.45454663 849.03515625 428.40234375 C863.76503784 448.17624141 877.62542893 468.49838724 890.9375 489.25 C891.46827148 490.0745166 891.99904297 490.8990332 892.54589844 491.74853516 C903.97619112 509.53180915 914.75098053 527.72646879 924.9375 546.25 C925.63214355 547.51191162 925.63214355 547.51191162 926.34082031 548.79931641 C967.5028911 623.76643628 1000.24893795 702.79438549 1022.21240234 785.53466797 C1022.91713731 788.17374619 1023.63868299 790.80772252 1024.36328125 793.44140625 C1028.15523933 807.40299808 1031.23606151 821.49525027 1034.22216797 835.64672852 C1034.38746002 836.42697891 1034.55275208 837.20722931 1034.72305298 838.01112366 C1035.03254011 839.47460176 1035.33981763 840.93854973 1035.64437866 842.40306091 C1036.32651592 845.63193657 1037.0949536 848.77355055 1038.04589844 851.93554688 C1038.9375 855.25 1038.9375 855.25 1038.9375 860.25 C917.4975 860.25 796.0575 860.25 670.9375 860.25 C665.9875 845.73 661.0375 831.21 655.9375 816.25 C648.25331313 796.57273643 640.11309921 777.26609691 630.9375 758.25 C630.65197266 757.65703125 630.36644531 757.0640625 630.07226562 756.453125 C621.91687694 739.53560099 613.27114461 723.05860222 603.56787109 706.96386719 C602.01224477 704.37441793 600.48081723 701.77234481 598.95703125 699.1640625 C581.15513615 668.83490789 560.4736289 640.22930884 537.9375 613.25 C537.51936035 612.74694336 537.1012207 612.24388672 536.67041016 611.72558594 C530.81082823 604.68382641 524.79742947 597.82023517 518.5703125 591.1015625 C516.08039466 588.40476721 513.62957228 585.67758788 511.1875 582.9375 C508.09723642 579.48982159 504.91222045 576.19177426 501.60546875 572.953125 C499.85120086 571.1618819 498.24242511 569.29027262 496.625 567.375 C493.26305824 563.47514756 489.54494883 560.13923961 485.68359375 556.7421875 C482.62240898 553.96404258 479.71474309 551.06696232 476.8125 548.125 C472.34855183 543.616979 467.78164443 539.34496216 462.9375 535.25 C461.37789948 533.90132074 459.81830519 532.55263427 458.25878906 531.20385742 C425.10471476 502.61974367 389.73677316 477.34631102 351.9375 455.25 C351.12168457 454.76998535 350.30586914 454.2899707 349.46533203 453.79541016 C298.62907218 423.95089091 243.68990036 400.30276043 186.72802734 385.00683594 C184.1936923 384.31948348 181.66797272 383.60897504 179.14453125 382.8828125 C151.89060275 375.0524262 124.01896117 370.2013711 96 366.0625 C95.15061859 365.93594025 94.30123718 365.80938049 93.42611694 365.6789856 C63.02409472 361.17172722 33.01369485 360.06115332 2.32421875 360.06469727 C-1.16574322 360.06477817 -4.65557294 360.05787869 -8.14550781 360.04418945 C-29.87748 359.96035688 -51.40151899 360.33658226 -73.0625 362.25 C-73.89865845 362.32334564 -74.73481689 362.39669128 -75.59631348 362.47225952 C-80.07553647 362.87881552 -84.53703242 363.37671308 -89 363.9375 C-89.97978821 364.05863663 -89.97978821 364.05863663 -90.97937012 364.18222046 C-118.02575713 367.55842563 -144.74438966 372.77710279 -171.14501953 379.51708984 C-174.37742357 380.32911302 -177.6205667 381.07369695 -180.87304688 381.80004883 C-227.14239813 392.19936765 -271.48809861 410.70325155 -314.0625 431.25 C-315.00754395 431.7032666 -315.95258789 432.1565332 -316.92626953 432.62353516 C-362.75120747 454.68425523 -405.58996506 483.28103001 -445.0625 515.25 C-446.33480469 516.27673828 -446.33480469 516.27673828 -447.6328125 517.32421875 C-458.87116787 526.44923908 -469.83885317 535.86461607 -480.43164062 545.73242188 C-482.19489822 547.37320169 -483.96475708 549.00670835 -485.734375 550.640625 C-493.16266274 557.52537949 -500.45099595 564.53790738 -507.625 571.6875 C-508.36250488 572.4204126 -509.10000977 573.1533252 -509.85986328 573.90844727 C-513.88886857 577.94892205 -517.74063845 582.08584111 -521.46557617 586.40795898 C-523.72871538 589.01847501 -526.0826279 591.53437154 -528.4375 594.0625 C-532.65203226 598.62950211 -536.66546613 603.31279362 -540.5625 608.15625 C-542.46154647 610.50632 -544.37708696 612.83643622 -546.3125 615.15625 C-554.20987135 624.63375401 -561.80853301 634.27088078 -569.0625 644.25 C-569.52269531 644.88244629 -569.98289062 645.51489258 -570.45703125 646.16650391 C-584.94996553 666.18614516 -598.71714366 686.83768811 -611.0625 708.25 C-611.83327881 709.57161133 -611.83327881 709.57161133 -612.61962891 710.91992188 C-633.10842689 746.14952927 -649.88793608 782.82532587 -664.1875 820.9375 C-664.46430603 821.67189301 -664.74111206 822.40628601 -665.02630615 823.16293335 C-665.81965536 825.27637729 -666.60293417 827.3932716 -667.3828125 829.51171875 C-667.82898926 830.71787842 -668.27516602 831.92403809 -668.73486328 833.16674805 C-670.45151641 838.44645081 -671.71599779 843.86399118 -673.0625 849.25 C-733.1225 849.25 -793.1825 849.25 -855.0625 849.25 C-855.05089844 866.76835938 -855.03929687 884.28671875 -855.02734375 902.3359375 C-855.02223725 913.40104181 -855.01738224 924.46614528 -855.01367188 935.53125 C-855.01171389 941.34114586 -855.00969338 947.1510417 -855.00756836 952.9609375 C-855.00730461 953.6891512 -855.00704086 954.41736491 -855.00676912 955.16764569 C-855.00241535 966.93656923 -854.99452907 978.7054879 -854.9853472 990.47440855 C-854.97600809 1002.54521037 -854.97044384 1014.61600963 -854.96841151 1026.6868149 C-854.96703682 1034.14000233 -854.96268913 1041.593176 -854.95458353 1049.0463592 C-854.94869142 1054.7536529 -854.94804169 1060.46093773 -854.94939232 1066.16823387 C-854.949116 1068.51527809 -854.94711107 1070.8623228 -854.94329453 1073.20936394 C-854.93835683 1076.40101928 -854.93950203 1079.59261465 -854.94224548 1082.78427124 C-854.93787622 1084.19378337 -854.93787622 1084.19378337 -854.93341869 1085.63177049 C-854.93540974 1086.48221771 -854.93740079 1087.33266494 -854.93945217 1088.20888329 C-854.93907245 1088.94630017 -854.93869273 1089.68371705 -854.9383015 1090.4434799 C-855.0625 1092.25 -855.0625 1092.25 -856.0625 1094.25 C-924.7025 1094.25 -993.3425 1094.25 -1064.0625 1094.25 C-1064.0625 1093.26 -1064.0625 1092.27 -1064.0625 1091.25 C-1078.5825 1091.25 -1093.1025 1091.25 -1108.0625 1091.25 C-1108.0625 1010.73 -1108.0625 930.21 -1108.0625 847.25 C-1024.9025 847.25 -941.7425 847.25 -856.0625 847.25 C-856.0625 754.85 -856.0625 662.45 -856.0625 567.25 C-884.4425 567.25 -912.8225 567.25 -942.0625 567.25 C-940.6054346 562.87880381 -939.26288488 559.47714666 -937.12109375 555.50390625 C-936.54246582 554.42753906 -935.96383789 553.35117188 -935.36767578 552.2421875 C-934.75134277 551.11039063 -934.13500977 549.97859375 -933.5 548.8125 C-933.18270935 548.22742676 -932.8654187 547.64235352 -932.53851318 547.03955078 C-928.00926696 538.69050993 -923.37454679 530.43399543 -918.36376953 522.36328125 C-916.846692 519.89952456 -915.35940361 517.4187394 -913.87109375 514.9375 C-905.54808625 501.1438712 -896.8031734 487.65854741 -887.875 474.25 C-887.06677292 473.03316528 -887.06677292 473.03316528 -886.24221802 471.79174805 C-878.88147743 460.72338658 -871.28204935 449.85800113 -863.4359436 439.12835693 C-862.26077276 437.52116294 -861.09023984 435.91057948 -859.9206543 434.29931641 C-852.68557435 424.33222711 -845.23976576 414.58305421 -837.48291016 405.01757812 C-835.603431 402.67872816 -833.76405561 400.30990033 -831.92407227 397.93994141 C-827.23971934 391.91084237 -822.39751393 386.05288503 -817.39575195 380.28442383 C-814.4374454 376.87047776 -811.56550432 373.40890692 -808.75 369.875 C-804.2809822 364.3602157 -799.44367867 359.22177291 -794.5534668 354.08251953 C-793.94543213 353.4429834 -793.33739746 352.80344727 -792.7109375 352.14453125 C-792.17645996 351.58612549 -791.64198242 351.02771973 -791.09130859 350.45239258 C-789.27921392 348.48525587 -787.51788847 346.48678277 -785.76245117 344.46923828 C-774.98822776 332.11869225 -763.44520549 320.46893483 -751.84399414 308.90112305 C-749.5985842 306.66114814 -747.35867161 304.41577304 -745.11914062 302.16992188 C-743.66438354 300.71582458 -742.20931682 299.26203697 -740.75390625 297.80859375 C-740.09854385 297.15120712 -739.44318146 296.4938205 -738.76795959 295.81651306 C-734.94011871 292.00777339 -731.0065457 288.37748688 -726.91136169 284.85731506 C-723.71307005 282.07686786 -720.64614426 279.15618281 -717.5625 276.25 C-712.4764614 271.48343463 -707.36523137 266.77577439 -702.0625 262.25 C-701.01798748 261.3518435 -699.97374263 260.45337566 -698.9296875 259.5546875 C-695.91219199 256.95963291 -692.88837898 254.37206905 -689.86181641 251.78759766 C-688.7016774 250.79620614 -687.54242905 249.80377096 -686.38427734 248.81005859 C-678.74311213 242.25424697 -670.95502001 235.92973896 -663.00048828 229.75830078 C-660.93047094 228.1472442 -658.8691458 226.52548605 -656.80859375 224.90234375 C-647.13702775 217.30257422 -637.29842338 209.98927932 -627.28613281 202.84570312 C-625.10497865 201.28048314 -622.93730405 199.6983872 -620.7734375 198.109375 C-602.43127862 184.66690504 -583.40001841 172.20893107 -564.0625 160.25 C-563.19367187 159.71197754 -562.32484375 159.17395508 -561.4296875 158.61962891 C-537.86500742 144.06373945 -513.92905722 130.46277049 -489.2578125 117.89257812 C-485.75264442 116.09071605 -482.27998623 114.23513704 -478.81176758 112.36352539 C-435.39193026 89.01269851 -388.64222341 71.114895 -342.0625 55.25 C-341.36898437 55.01367859 -340.67546875 54.77735718 -339.9609375 54.53387451 C-284.70797421 35.75650027 -226.73524016 20.42280129 -168.83154297 12.75244141 C-165.93310388 12.36605796 -163.03689634 11.96943362 -160.14111328 11.56396484 C-106.93561546 4.11454662 -53.76528297 -0.06099685 0 0 Z " fill="#006B76" transform="translate(1475.0625,557.75)"/>
<path d="M0 0 C49.5 0 99 0 150 0 C151.14078307 10.26704767 152.24579597 20.40543545 152.9375 30.6875 C155.44322527 64.72525222 161.29056742 98.77081679 169 132 C169.19916016 132.8775293 169.39832031 133.75505859 169.60351562 134.65917969 C173.03988261 149.70952236 177.66613109 164.40173067 182.38677979 179.09136963 C182.99570782 180.98664071 183.6021111 182.88272235 184.20849609 184.77880859 C198.55148853 229.41753638 216.98445889 272.94818243 240.56884766 313.51660156 C241.84716455 315.7347932 243.09517516 317.96518398 244.32421875 320.2109375 C253.7774848 337.4785868 264.67681543 353.91008452 276 370 C276.3904248 370.55993652 276.78084961 371.11987305 277.18310547 371.69677734 C287.80072265 386.92178602 299.03900326 401.80453134 311 416 C311.87775338 417.05195884 312.75534829 418.10404993 313.6328125 419.15625 C318.86740525 425.40967458 324.22244162 431.51919982 329.7421875 437.5234375 C331.6626858 439.63000484 333.52681807 441.76789513 335.375 443.9375 C338.91147735 448.01869542 342.74651778 451.77699833 346.58837891 455.56689453 C349.43571804 458.38915487 352.1572764 461.24999391 354.75 464.3125 C357.49708394 467.53390059 360.47249168 470.22137159 363.69921875 472.953125 C366.58674903 475.52199744 369.28667958 478.24947026 372 481 C375.88411875 484.92753693 379.81107624 488.71708657 384.01953125 492.30078125 C386.32669952 494.28030432 388.56646782 496.3264212 390.8125 498.375 C400.46482972 507.07238081 410.73512197 515.04377432 421 523 C421.79792969 523.61858887 422.59585938 524.23717773 423.41796875 524.87451172 C434.71415912 533.60940628 446.09106467 542.11829069 458 550 C459.32717041 550.88002686 459.32717041 550.88002686 460.68115234 551.77783203 C471.65775204 559.03813485 482.65698211 566.24986269 494.04003906 572.86035156 C495.4196027 573.66251936 496.79630607 574.4696164 498.17089844 575.28027344 C532.75381359 595.66338834 568.97086582 613.09067695 606.70068359 626.80078125 C609.88492094 627.95817165 613.06228412 629.13271361 616.23828125 630.3125 C618.15853617 631.02169495 620.07909093 631.73007879 622 632.4375 C622.82910889 632.74357178 623.65821777 633.04964355 624.51245117 633.36499023 C636.94482713 637.88209935 649.70059829 641.39727499 662.4375 644.9375 C663.62661484 645.268069 663.62661484 645.268069 664.8397522 645.60531616 C677.48666679 649.11088295 690.14512723 652.34102374 703 655 C703.9684082 655.20431641 704.93681641 655.40863281 705.93457031 655.61914062 C771.03821107 669.31428209 838.62902507 674.98615821 905 669 C906.35089198 668.88080121 907.70180413 668.76183082 909.05273438 668.64306641 C917.2448915 667.91895383 925.43093382 667.14336033 933.61474609 666.33056641 C936.37367928 666.06115955 939.13263126 665.81040634 941.89453125 665.57421875 C955.78413369 664.3148991 969.45160041 661.42826083 983.12353516 658.75390625 C986.53151358 658.09111261 989.94219799 657.44732349 993.35546875 656.8125 C1018.18597625 652.12322303 1043.03309016 646.26704642 1066.83959961 637.73974609 C1069.11009658 636.96230166 1071.39493178 636.27973847 1073.69921875 635.609375 C1113.29419413 623.89979254 1152.96221511 606.02400228 1189 586 C1190.02738281 585.43087891 1191.05476563 584.86175781 1192.11328125 584.27539062 C1230.07687845 563.14801387 1265.83486813 538.81488943 1299.359375 511.171875 C1301.13224795 509.71371323 1302.91367308 508.26589273 1304.703125 506.828125 C1310.76115704 501.94708204 1316.53274078 496.84053521 1322.23046875 491.55078125 C1324.45227318 489.5044649 1326.70033738 487.51935577 1329 485.5625 C1333.06837041 482.04505475 1336.80796256 478.22179666 1340.58251953 474.39599609 C1343.25738444 471.69754183 1345.94919867 469.11729639 1348.875 466.6875 C1354.78529869 461.64420794 1359.88193381 455.73209771 1365.13134766 450.02148438 C1366.97435204 448.02774563 1368.83327725 446.050395 1370.69921875 444.078125 C1376.61145094 437.82217684 1382.35548954 431.53197043 1387.73046875 424.80078125 C1389.89950114 422.12402356 1392.12806714 419.51518629 1394.38574219 416.91357422 C1400.54190091 409.81791362 1406.38177678 402.5287711 1412 395 C1412.53383301 394.28682617 1413.06766602 393.57365234 1413.61767578 392.83886719 C1421.66764055 382.06468346 1429.52909982 371.18439981 1437 360 C1437.50354004 359.2467041 1438.00708008 358.4934082 1438.52587891 357.71728516 C1451.21252217 338.65415001 1462.73069072 318.95927837 1473.52050781 298.76660156 C1474.50250694 296.9302956 1475.48880231 295.09628034 1476.47949219 293.26464844 C1493.5424364 261.69201534 1507.38458865 228.31582842 1518.828125 194.3125 C1520 191 1520 191 1521 190 C1522.96515581 189.90224122 1524.9338892 189.87628722 1526.90147495 189.87695217 C1528.19232236 189.87496112 1529.48316978 189.87297007 1530.81313378 189.87091869 C1532.26438449 189.87377229 1533.71563502 189.8767179 1535.16688538 189.87974548 C1536.69392475 189.87930992 1538.22096405 189.87843528 1539.74800295 189.87715632 C1543.96433536 189.87490851 1548.18064262 189.87893652 1552.39697182 189.88393438 C1556.9361923 189.88823462 1561.47541124 189.88679276 1566.01463318 189.8860321 C1573.88583274 189.8855066 1581.75702403 189.88865618 1589.62822151 189.89426994 C1601.00878924 189.90238134 1612.38935296 189.90499979 1623.76992326 189.90625793 C1642.23211582 189.90844902 1660.69430398 189.91511064 1679.15649414 189.92456055 C1697.09562152 189.9337332 1715.0347477 189.94081475 1732.97387695 189.94506836 C1734.07880259 189.94533108 1735.18372823 189.94559381 1736.32213647 189.94586449 C1741.86497219 189.94716949 1747.40780792 189.9484332 1752.95064366 189.94967639 C1798.96709883 189.96005077 1844.98354919 189.97767063 1891 190 C1890.69073571 192.06341146 1890.37915179 194.12647534 1890.06660461 196.18939209 C1889.8933431 197.338298 1889.72008158 198.4872039 1889.54156971 199.67092514 C1888.82891202 204.05169232 1887.86170869 208.33528537 1886.79296875 212.640625 C1886.58569656 213.49195007 1886.37842438 214.34327515 1886.16487122 215.22039795 C1885.72968917 217.00224086 1885.2918244 218.78343065 1884.85131836 220.56396484 C1884.19250716 223.22973933 1883.54385067 225.89783218 1882.89648438 228.56640625 C1880.40144135 238.77908198 1877.66281716 248.88354031 1874.61703491 258.94503784 C1873.99613869 261.01285965 1873.39067622 263.08458581 1872.7902832 265.15844727 C1869.6789689 275.89845815 1866.33400961 286.55466677 1862.875 297.1875 C1862.59309814 298.05439453 1862.31119629 298.92128906 1862.02075195 299.81445312 C1853.15846482 327.00042006 1843.0237851 353.62277909 1832 380 C1831.60874939 380.93878998 1831.60874939 380.93878998 1831.20959473 381.89654541 C1822.81410544 402.02611575 1813.54220427 421.65709274 1803.87548828 441.20214844 C1802.28796244 444.41229458 1800.71699266 447.63019265 1799.15234375 450.8515625 C1793.40638731 462.61368632 1787.02507415 473.97114048 1780.51806641 485.32666016 C1778.75666807 488.42851152 1777.04789947 491.55651287 1775.34448242 494.69042969 C1764.60141711 514.39473938 1752.35858147 533.27970558 1740 552 C1739.55994629 552.6703125 1739.11989258 553.340625 1738.66650391 554.03125 C1732.00274123 564.18165703 1725.06051971 574.12221789 1718 584 C1717.18861572 585.13671143 1717.18861572 585.13671143 1716.36083984 586.29638672 C1709.41867615 596.00888785 1702.35958852 605.59932117 1695 615 C1694.08459343 616.17444644 1693.16923018 617.34892665 1692.25390625 618.5234375 C1687.29965345 624.86677333 1682.28521429 631.15403627 1677.16796875 637.3671875 C1675.72685627 639.11729526 1674.29190597 640.87249612 1672.86328125 642.6328125 C1663.88278551 653.6931717 1654.5805869 664.45609997 1645 675 C1643.54110676 676.62449734 1642.08278358 678.2495068 1640.625 679.875 C1639.08430441 681.58420917 1637.5425873 683.29249794 1636 685 C1634.700625 686.44052734 1634.700625 686.44052734 1633.375 687.91015625 C1627.97949239 693.86162314 1622.45390934 699.6247142 1616.703125 705.234375 C1614.61146628 707.37439577 1612.65018774 709.52995596 1610.69921875 711.79296875 C1606.84142621 716.24362325 1602.73715487 720.41039053 1598.5625 724.5625 C1597.49418945 725.63661133 1597.49418945 725.63661133 1596.40429688 726.73242188 C1592.31053447 730.81874783 1588.11107944 734.71184695 1583.73022461 738.48803711 C1581.72533353 740.24001827 1579.84905277 742.08490963 1578 744 C1574.85356943 747.18919759 1571.59393415 750.16474822 1568.19921875 753.0859375 C1565.59608118 755.35154569 1563.04841276 757.67303552 1560.5 760 C1556.04679008 764.05723366 1551.55829899 768.06150415 1547 772 C1546.51192871 772.42506836 1546.02385742 772.85013672 1545.52099609 773.28808594 C1538.61505635 779.30060712 1531.62897332 785.16336931 1524.39648438 790.77978516 C1519.83249032 794.32716096 1515.34761426 797.9633222 1510.875 801.625 C1504.93275579 806.47397265 1498.91477811 811.1836901 1492.73193359 815.72460938 C1490.72864261 817.19982676 1488.73355691 818.68583544 1486.73828125 820.171875 C1462.53631895 838.15635344 1437.64007149 855.13104711 1412 871 C1410.95424805 871.6487207 1409.90849609 872.29744141 1408.83105469 872.96582031 C1393.74410696 882.30040899 1378.51402212 891.17631617 1362.83203125 899.48681641 C1359.14377612 901.45748928 1355.48693893 903.48272753 1351.82836914 905.5078125 C1306.35121059 930.60998834 1258.34716131 950.83633498 1209.5078125 968.37744141 C1205.88015533 969.68063232 1202.25864733 970.99987592 1198.63922119 972.32572937 C1183.1109233 978.00792431 1167.52655993 983.08942961 1151.53369141 987.32275391 C1148.21598726 988.20956363 1144.92167006 989.16299593 1141.625 990.125 C1129.1975629 993.68875035 1116.66244421 996.8762905 1104.11230469 999.9765625 C1101.54388286 1000.6127377 1098.98056792 1001.2628663 1096.41821289 1001.92358398 C1085.88404982 1004.62445515 1075.29061029 1006.88362868 1064.625 1009 C1063.75414764 1009.17397308 1062.88329529 1009.34794617 1061.98605347 1009.52719116 C1048.22786115 1012.26933113 1034.46340205 1014.61450311 1020.57617188 1016.61181641 C1016.96976754 1017.15523783 1013.39674531 1017.82527653 1009.8125 1018.5 C987.78593795 1022.49563039 965.57492079 1024.51871239 943.26538086 1026.04882812 C942.43546127 1026.10609573 941.60554169 1026.16336334 940.75047302 1026.22236633 C939.20050286 1026.32821206 937.65035029 1026.43143581 936.09999084 1026.53141785 C932.8818843 1026.74815469 929.71402557 1027.04150432 926.52124023 1027.50488281 C922.4503013 1028.07729245 918.41956562 1028.33140561 914.31640625 1028.53515625 C913.48115921 1028.57826935 912.64591217 1028.62138245 911.78535461 1028.665802 C909.04465128 1028.80387913 906.30369417 1028.93454836 903.5625 1029.0625 C902.13783417 1029.12928452 902.13783417 1029.12928452 900.68438721 1029.19741821 C880.44613973 1030.12402064 860.25459226 1030.2898785 840 1030 C839.13532104 1029.98797546 838.27064209 1029.97595093 837.37976074 1029.96356201 C754.23292412 1028.76647667 672.08354842 1017.6384044 591.49357605 997.36737061 C587.92637124 996.47250624 584.3548405 995.60821548 580.76953125 994.7890625 C517.06700365 980.01923249 454.9033311 954.94308762 396 927 C395.36455261 926.69924561 394.72910522 926.39849121 394.07440186 926.08862305 C377.67817973 918.32710983 361.44040472 910.38194564 345.62597656 901.47705078 C342.93141832 899.9614244 340.22808384 898.46238283 337.5234375 896.96484375 C302.40918807 877.42706402 268.68296567 855.66136021 235.94628906 832.38037109 C234.12238516 831.08679951 232.29278199 829.80182239 230.4609375 828.51953125 C221.45713409 822.19176891 212.77875857 815.4743268 204.12939453 808.67236328 C202.2038263 807.16007913 200.27326081 805.65457092 198.33984375 804.15234375 C181.48448777 791.03198143 165.03263556 777.35650472 149.21484375 763 C147.22587498 761.20396471 145.21436806 759.44046697 143.1875 757.6875 C135.18340421 750.70623998 127.38374678 743.48977909 119.94311523 735.91064453 C118.16200932 734.15930204 116.33369593 732.5370589 114.4296875 730.921875 C109.19691908 726.37208754 104.32820398 721.47414918 99.4375 716.5625 C98.53064453 715.65951172 97.62378906 714.75652344 96.68945312 713.82617188 C92.12476569 709.25486415 87.71082307 704.62492538 83.50415039 699.72241211 C81.44600618 697.36561818 79.24107756 695.18210184 77 693 C73.47245353 689.5095856 70.12615526 685.95355686 66.90234375 682.18359375 C64.99285302 679.99179638 63.02934178 677.85615136 61.05200195 675.72558594 C56.21733314 670.51456566 51.63009404 665.17787398 47.171875 659.63671875 C45.06243651 657.07579972 42.87112352 654.62876545 40.625 652.1875 C36.10226551 647.21797891 31.98635969 641.98892712 27.87109375 636.68359375 C25.52172534 633.6558922 23.12762101 630.66787527 20.71655273 627.68920898 C13.53483215 618.80501293 6.67964999 609.68801561 -0.12841797 600.515625 C-1.91181265 598.11853411 -3.70640487 595.73027173 -5.50390625 593.34375 C-14.19913167 581.74353442 -22.27273416 569.777392 -30.23876953 557.66748047 C-31.73883708 555.39554562 -33.25134987 553.13346118 -34.77734375 550.87890625 C-47.02778827 532.77746693 -58.13496279 513.95659902 -69 495 C-69.57363281 493.99984863 -70.14726563 492.99969727 -70.73828125 491.96923828 C-80.30663075 475.22732652 -89.33936895 458.22580649 -98 441 C-98.46212891 440.0808783 -98.46212891 440.0808783 -98.93359375 439.14318848 C-120.23233983 396.68832185 -137.76798006 352.75600272 -153.0625 307.8125 C-153.41835175 306.7677652 -153.77420349 305.7230304 -154.14083862 304.64663696 C-158.48434309 291.85716995 -162.63605776 279.02614274 -166.40036011 266.05331421 C-166.97243616 264.09438535 -167.56779869 262.14230175 -168.16430664 260.19067383 C-169 257 -169 257 -169 253 C-113.23 253 -57.46 253 0 253 C0 294.91 0 336.82 0 380 C42.24 380 84.48 380 128 380 C128 337.76 128 295.52 128 252 C85.76 252 43.52 252 0 252 C0 168.84 0 85.68 0 0 Z " fill="#006B76" transform="translate(619,1652)"/>
<path d="M0 0 C1.03844559 -0.00044186 1.03844559 -0.00044186 2.09786987 -0.00089264 C49.87285097 -0.004164 96.01279599 5.4485176 142.5625 16.25 C144.08157959 16.59683838 144.08157959 16.59683838 145.63134766 16.95068359 C203.87040818 30.44620462 260.84198495 56.04275107 311.5625 87.25 C312.55830078 87.86020996 313.55410156 88.47041992 314.58007812 89.09912109 C326.93915688 96.70614653 338.78494069 104.81902649 350.3515625 113.58154297 C352.50471971 115.20639681 354.67122261 116.8113244 356.84375 118.41015625 C364.31185414 123.92117496 371.53449312 129.62143364 378.5625 135.68359375 C381.29035122 138.01718522 384.06689767 140.26438282 386.875 142.5 C393.12138473 147.57747063 398.90998557 153.12375188 404.75 158.65625 C407.83147477 161.57329825 410.95580704 164.42864529 414.125 167.25 C420.10719705 172.60196559 425.57504221 178.20205793 430.8125 184.28125 C432.50048286 186.18023071 434.25019734 187.97005988 436.0625 189.75 C439.77463359 193.41296626 443.16930882 197.29234601 446.5625 201.25 C447.46965539 202.2933138 448.37724081 203.33625379 449.28515625 204.37890625 C455.84752438 211.94151063 462.15546539 219.66072467 468.27294922 227.58691406 C469.47460643 229.13664692 470.69179504 230.67430223 471.91015625 232.2109375 C489.4306109 254.49906177 504.74485809 278.51928588 518.5625 303.25 C519.12308105 304.2507959 519.68366211 305.2515918 520.26123047 306.28271484 C559.5625 376.88833707 559.5625 376.88833707 559.5625 396.25 C517.3225 396.25 475.0825 396.25 431.5625 396.25 C427.9325 388.66 424.3025 381.07 420.5625 373.25 C409.11531547 351.46342299 396.32396471 330.93519011 381.5625 311.25 C381.10359375 310.63801758 380.6446875 310.02603516 380.171875 309.39550781 C369.11301747 294.71812705 357.57875753 279.85338359 344.35546875 267.0390625 C342.49317862 265.18082964 340.77657621 263.24526175 339.0625 261.25 C333.72653428 255.0670556 327.93199949 249.46421121 321.73828125 244.1484375 C319.25597802 241.98254995 316.85194855 239.74123043 314.4375 237.5 C308.64397725 232.21790547 302.54050498 227.41261822 296.33447266 222.62792969 C294.62965286 221.30221972 292.94305628 219.95688029 291.26171875 218.6015625 C252.6731033 187.57059885 208.10570373 164.20110341 161.66625977 147.39379883 C159.3906907 146.55520518 157.12410487 145.69212709 154.86303711 144.81518555 C145.45546194 141.16990675 136.01407817 138.21671952 126.25 135.6875 C125.15523849 135.40043686 125.15523849 135.40043686 124.0383606 135.10757446 C111.04154906 131.71106265 97.99229959 128.96311634 84.734375 126.77636719 C80.65264975 126.09901192 76.58037018 125.37136 72.5078125 124.64111328 C49.35879636 120.82268565 26.22563137 119.89140317 2.79541016 119.93432617 C0.06021686 119.93895879 -2.67453172 119.93200259 -5.40966797 119.91381836 C-39.91339864 119.68690832 -74.00236604 123.71206654 -107.60742188 131.58789062 C-109.48196923 132.02644932 -111.35827957 132.45754487 -113.23632812 132.88085938 C-140.86827778 139.12157073 -167.68765636 148.47842323 -193.4375 160.25 C-195.16081543 161.03648926 -195.16081543 161.03648926 -196.91894531 161.83886719 C-221.87310458 173.33475607 -245.92106255 186.44949435 -268.4375 202.25 C-269.0572168 202.67974121 -269.67693359 203.10948242 -270.31542969 203.55224609 C-283.31475309 212.57282081 -295.59821682 222.40967307 -307.59765625 232.71337891 C-308.95631052 233.84811484 -310.33757017 234.95591108 -311.73046875 236.04833984 C-319.70681492 242.35849614 -326.85521425 249.36225029 -334.01757812 256.56933594 C-336.05900377 258.62148541 -338.11091139 260.66271421 -340.1640625 262.703125 C-346.62149426 269.15391231 -352.81187997 275.62089254 -358.47167969 282.7902832 C-360.4147625 285.22154989 -362.44741388 287.52806679 -364.5390625 289.83203125 C-368.58091154 294.33286314 -372.21778821 299.07582689 -375.8125 303.9375 C-376.79174438 305.25548584 -376.79174438 305.25548584 -377.79077148 306.60009766 C-379.6781812 309.14629604 -381.55840082 311.69766584 -383.4375 314.25 C-383.90978027 314.88599121 -384.38206055 315.52198242 -384.86865234 316.17724609 C-429.62823293 376.51736609 -456.95053063 447.55671337 -468.80078125 521.35610962 C-469.10942061 523.27798806 -469.42370151 525.198958 -469.73828125 527.11987305 C-472.97405042 547.90025229 -473.8119802 568.61603386 -473.75 589.625 C-473.74884186 590.8469104 -473.74768372 592.0688208 -473.74649048 593.32775879 C-473.71009547 612.80305895 -472.96771356 631.93216218 -470.4375 651.25 C-470.32003418 652.18875977 -470.20256836 653.12751953 -470.08154297 654.09472656 C-469.34902141 659.84187532 -468.43771078 665.54398473 -467.4375 671.25 C-467.17864014 672.7673877 -467.17864014 672.7673877 -466.91455078 674.31542969 C-462.86813775 697.88291023 -457.26807196 720.37499856 -449.5625 743 C-449.27198761 743.85515198 -448.98147522 744.71030396 -448.68215942 745.59136963 C-442.59892841 763.41710908 -435.88657014 780.90546288 -427.5625 797.8125 C-426.94967509 799.06529288 -426.33696571 800.31814228 -425.72436523 801.57104492 C-423.97566421 805.1375304 -422.20844457 808.69450832 -420.4375 812.25 C-419.76050049 813.61801758 -419.76050049 813.61801758 -419.06982422 815.01367188 C-401.69716584 849.9107149 -378.20165375 881.1715422 -352.4375 910.25 C-351.51517578 911.29849121 -351.51517578 911.29849121 -350.57421875 912.36816406 C-344.81321509 918.85336169 -338.81367901 925.06005058 -332.68164062 931.19116211 C-331.0660932 932.80890192 -329.45874966 934.43450636 -327.8515625 936.06054688 C-322.15159411 941.7911181 -316.33890025 947.14231187 -310.00341797 952.18041992 C-307.53981568 954.16747573 -305.18781571 956.23348654 -302.84375 958.359375 C-298.40189726 962.34757492 -293.73313257 965.94959756 -288.9375 969.5 C-288.06367676 970.14912354 -287.18985352 970.79824707 -286.28955078 971.46704102 C-283.67694219 973.40122564 -281.05808385 975.32664039 -278.4375 977.25 C-277.72561523 977.7764209 -277.01373047 978.3028418 -276.28027344 978.84521484 C-242.96093454 1003.40100013 -206.01210992 1022.46372831 -167.4375 1037.25 C-166.67195801 1037.5485791 -165.90641602 1037.8471582 -165.11767578 1038.15478516 C-143.15658495 1046.70530535 -120.49723304 1052.42290574 -97.53491211 1057.55126953 C-95.75344877 1057.95314137 -93.97401417 1058.36487202 -92.20141602 1058.80419922 C-84.81799344 1060.60310539 -77.25819737 1061.45116251 -69.73168945 1062.42724609 C-67.30008041 1062.74348684 -64.86976765 1063.06851043 -62.43945312 1063.39453125 C-42.70549767 1066.00814502 -23.22560988 1067.58878517 -3.30664062 1067.51074219 C-0.07142308 1067.50002955 3.16323664 1067.51071205 6.3984375 1067.5234375 C34.30547285 1067.542321 62.18070657 1064.65177793 89.5625 1059.25 C91.06393555 1058.95851074 91.06393555 1058.95851074 92.59570312 1058.66113281 C108.88026873 1055.46254961 124.68205815 1051.43016164 140.45263672 1046.26464844 C143.46331063 1045.2823623 146.48198048 1044.32982621 149.50390625 1043.3828125 C206.77731225 1025.18044895 259.63022437 994.84632945 305.5625 956.25 C306.07280762 955.82460937 306.58311523 955.39921875 307.10888672 954.9609375 C322.46335916 942.13883108 337.73712354 928.53409775 350.765625 913.32421875 C352.7371243 911.04842282 354.77384395 908.84077333 356.8125 906.625 C361.89595586 900.99011842 366.52474456 895.0418747 371.1640625 889.04248047 C372.5096244 887.31777456 373.87493706 885.61139457 375.25 883.91015625 C390.75706564 864.65698585 404.2260755 843.59632831 416.015625 821.88671875 C419.45213762 815.63036831 423.02104303 809.4475497 426.5625 803.25 C469.1325 803.25 511.7025 803.25 555.5625 803.25 C551.52926915 814.6774874 547.38329519 825.61966368 542.3125 836.5625 C541.64386478 838.01615014 540.97532768 839.46984541 540.30688477 840.92358398 C538.40847786 845.04012313 536.49077633 849.14737738 534.5625 853.25 C534.08731934 854.26126953 533.61213867 855.27253906 533.12255859 856.31445312 C526.90143606 869.42316141 519.70295251 881.91440713 512.2734375 894.37060547 C510.6865627 897.04121069 509.1209846 899.72291625 507.5625 902.41015625 C492.84442563 927.62155713 475.14942171 950.79473417 456.5625 973.25 C456.08039063 973.83265625 455.59828125 974.4153125 455.1015625 975.015625 C446.86976909 984.93016071 438.36739674 994.58832405 429.1640625 1003.6171875 C427.42390423 1005.39130008 425.80649786 1007.23986551 424.1875 1009.125 C418.54019093 1015.65667514 412.40068545 1021.63107271 405.84765625 1027.24609375 C403.49814644 1029.30643312 401.21294537 1031.42385924 398.9296875 1033.55688477 C393.63634549 1038.49861961 388.26634382 1043.25679526 382.61328125 1047.7890625 C380.29696366 1049.65753891 378.00797949 1051.54615179 375.73046875 1053.4609375 C365.67447412 1061.89290199 355.31892009 1069.7348357 344.5625 1077.25 C343.79147949 1077.79011719 343.02045898 1078.33023438 342.22607422 1078.88671875 C316.77596399 1096.65905366 290.25868069 1112.24132471 262.5625 1126.25 C261.66402344 1126.70729492 260.76554687 1127.16458984 259.83984375 1127.63574219 C236.5310194 1139.41738594 212.12758634 1148.57606341 187.375 1156.8125 C186.63013336 1157.06039276 185.88526672 1157.30828552 185.11782837 1157.56369019 C126.17445324 1177.09104861 65.75823296 1186.69654259 3.67431641 1186.51074219 C-0.16728604 1186.49934851 -4.0086114 1186.50614687 -7.85020447 1186.51760483 C-33.58446774 1186.58302686 -58.95108775 1185.27613617 -84.4375 1181.5 C-85.33293518 1181.36961334 -86.22837036 1181.23922668 -87.15093994 1181.10488892 C-101.2324394 1179.04408686 -115.09641755 1176.54463598 -128.91748047 1173.11572266 C-132.14790311 1172.3212242 -135.38371725 1171.55840457 -138.6237793 1170.80467224 C-180.94951802 1160.92691887 -221.28357445 1146.09602453 -260.4375 1127.25 C-261.35466797 1126.81333008 -262.27183594 1126.37666016 -263.21679688 1125.92675781 C-277.41723943 1119.14902955 -290.94288088 1111.3289846 -304.4375 1103.25 C-305.28151367 1102.74791016 -306.12552734 1102.24582031 -306.99511719 1101.72851562 C-317.77169017 1095.3089886 -328.20806087 1088.50851292 -338.4375 1081.25 C-339.17000977 1080.73147461 -339.90251953 1080.21294922 -340.65722656 1079.67871094 C-350.80664551 1072.47491934 -360.74350047 1065.05563794 -370.4375 1057.25 C-371.3553125 1056.51523438 -372.273125 1055.78046875 -373.21875 1055.0234375 C-378.49673457 1050.75447939 -383.67189998 1046.3701211 -388.8125 1041.9375 C-389.65832642 1041.21071045 -389.65832642 1041.21071045 -390.52124023 1040.46923828 C-401.42378049 1031.01135676 -411.81196664 1021.04171727 -421.99658203 1010.82128906 C-423.82860995 1008.9838424 -425.66600605 1007.1518835 -427.50390625 1005.3203125 C-433.36133791 999.46653409 -439.1043448 993.59252232 -444.4375 987.25 C-445.40992092 986.13147405 -446.38385235 985.0142593 -447.359375 983.8984375 C-453.79186266 976.47202168 -459.96842506 968.89204116 -465.97607422 961.11914062 C-467.47479963 959.20229436 -469.00159757 957.3109383 -470.53515625 955.421875 C-517.41936643 897.18109672 -553.47843662 824.86631262 -571.86279297 752.44970703 C-572.63808108 749.48227038 -573.53995428 746.5574672 -574.4375 743.625 C-588.3337077 695.19008518 -592.8436726 644.45212412 -592.69824219 594.26708984 C-592.68680922 590.2852524 -592.6936592 586.30368124 -592.70512009 582.32185268 C-592.74860118 564.52968198 -592.36561046 546.95835917 -590.4375 529.25 C-590.28954526 527.8035986 -590.14205122 526.35714997 -589.99511719 524.91064453 C-589.59600667 521.16395953 -589.15604317 517.42609447 -588.6875 513.6875 C-588.60546326 513.03143768 -588.52342651 512.37537537 -588.43890381 511.69943237 C-584.38266165 479.66179235 -577.01952769 448.0683774 -567.4375 417.25 C-567.0873584 416.12029785 -566.7372168 414.9905957 -566.37646484 413.82666016 C-556.20875936 381.38174801 -542.72711919 350.5839956 -527.4375 320.25 C-526.94765625 319.27450195 -526.4578125 318.29900391 -525.953125 317.29394531 C-514.80702516 295.2230285 -501.32954635 274.66014633 -487.4375 254.25 C-486.85403809 253.39148437 -486.27057617 252.53296875 -485.66943359 251.6484375 C-478.86110664 241.67872947 -471.55029185 232.24220617 -463.84179688 222.95410156 C-462.00546602 220.72573067 -460.22108756 218.45820181 -458.4375 216.1875 C-444.86564454 199.21559725 -429.82847748 183.56307804 -414.5 168.1875 C-414.00945129 167.69427246 -413.51890259 167.20104492 -413.01348877 166.69287109 C-407.33443247 160.99025222 -401.55552109 155.48153052 -395.4375 150.25 C-393.82981627 148.79554483 -392.22510285 147.33779105 -390.625 145.875 C-364.37829584 122.2489955 -335.03168828 102.1216742 -304.93457031 83.77246094 C-303.39033279 82.83094107 -301.84768209 81.8868063 -300.30761719 80.93847656 C-230.29212075 37.90270089 -149.10341075 12.85515286 -67.875 3 C-67.20154541 2.91673462 -66.52809082 2.83346924 -65.83422852 2.74768066 C-43.97015669 0.07808957 -21.999322 0.00431257 0 0 Z " fill="#274F91" transform="translate(1461.4375,1024.75)"/>
<path d="M0 0 C85.14 0 170.28 0 258 0 C258 79.86 258 159.72 258 242 C172.86 242 87.72 242 0 242 C0 162.14 0 82.28 0 0 Z " fill="#C6333D" transform="translate(281,1140)"/>
<path d="M0 0 C83.49 0 166.98 0 253 0 C253.020625 40.38375 253.04125 80.7675 253.0625 122.375 C253.071604 135.14751465 253.08070801 147.9200293 253.09008789 161.07958984 C253.09460449 176.62231445 253.09460449 176.62231445 253.09544373 183.88809204 C253.09637904 188.98550784 253.10005891 194.08291577 253.10557556 199.18032837 C253.11258944 205.67073079 253.11449683 212.16112245 253.11307228 218.6515286 C253.11337042 221.04079118 253.11537125 223.43005426 253.11921513 225.81931376 C253.12414655 229.03234319 253.12300561 232.24531288 253.12025452 235.45834351 C253.12316718 236.40553064 253.12607985 237.35271778 253.12908077 238.32860756 C253.1270899 239.18629108 253.12509903 240.04397461 253.12304783 240.92764854 C253.12342755 241.67114095 253.12380727 242.41463336 253.1241985 243.18065584 C253 245 253 245 252 247 C183.36 247 114.72 247 44 247 C44 246.01 44 245.02 44 244 C29.48 244 14.96 244 0 244 C0 163.48 0 82.96 0 0 Z " fill="#55508B" transform="translate(367,1405)"/>
<path d="M0 0 C83.49 0 166.98 0 253 0 C253 72.93 253 145.86 253 221 C169.51 221 86.02 221 0 221 C0 148.07 0 75.14 0 0 Z " fill="#B9DC77" transform="translate(57,1417)"/>
<path d="M0 0 C83.16 0 166.32 0 252 0 C252 72.93 252 145.86 252 221 C168.84 221 85.68 221 0 221 C0 148.07 0 75.14 0 0 Z " fill="#B7394D" transform="translate(287,1664)"/>
<path d="M0 0 C1.43661437 0.00138269 1.43661437 0.00138269 2.90225124 0.00279331 C3.99517766 0.00141582 5.08810408 0.00003832 6.21414948 -0.00138092 C7.42843848 0.00221719 8.64272749 0.0058153 9.89381313 0.00952244 C11.18251781 0.0094019 12.47122248 0.00928137 13.79897881 0.00915718 C17.29624909 0.0089307 20.7934854 0.01474157 24.29074764 0.02176762 C27.56814387 0.02744747 30.84553854 0.02772991 34.12293911 0.02844334 C43.71836193 0.03369815 53.31377839 0.0476592 62.90919399 0.06054783 C84.33856899 0.08117283 105.76794399 0.10179783 127.84669399 0.12304783 C127.84669399 43.35304783 127.84669399 86.58304783 127.84669399 131.12304783 C84.61669399 131.12304783 41.38669399 131.12304783 -3.15330601 131.12304783 C-3.17393101 109.69367283 -3.19455601 88.26429783 -3.21580601 66.18554783 C-3.22491001 59.40773777 -3.23401402 52.62992771 -3.2433939 45.64672947 C-3.2479105 37.39929295 -3.2479105 37.39929295 -3.24874973 33.54393101 C-3.25028994 30.83895667 -3.25344726 28.13402822 -3.25888157 25.42906284 C-3.26698304 21.34275524 -3.2672136 17.25648257 -3.2668314 13.17016697 C-3.27042951 11.95587796 -3.27402761 10.74158895 -3.27773476 9.49050331 C-3.27635726 8.39757689 -3.27497976 7.30465048 -3.27356052 6.17860508 C-3.27448232 5.22086217 -3.27540411 4.26311926 -3.27635384 3.27635384 C-3.10989913 0.36343849 -2.91291535 0.1664547 0 0 Z " fill="#FBFDFD" transform="translate(781.1533060073853,931.8769521713257)"/>
<path d="M0 0 C14.21272804 12.1424616 23.67291711 28.36110116 25.625 47.125 C26.82769834 69.62408392 23.27650983 90.32435549 8.1875 107.9765625 C-5.22580527 122.13071893 -23.08427654 130.45998751 -42.6171875 131.36328125 C-62.56632959 131.84507185 -81.84826555 127.49912334 -96.9375 113.6875 C-108.97653922 102.087291 -115.42961399 89.33143175 -119.375 73.125 C-119.66503906 71.98804688 -119.66503906 71.98804688 -119.9609375 70.828125 C-123.22119028 49.54421062 -118.14004492 29.70892184 -106.27734375 11.9921875 C-95.53489345 -2.00614157 -79.16788409 -11.79360835 -61.69921875 -14.4296875 C-39.40048017 -17.0122216 -18.15475714 -13.87167136 0 0 Z " fill="#295192" transform="translate(2373.375,1564.875)"/>
<path d="M0 0 C82.47132353 0 82.47132353 0 96.8125 13.25 C106.7625326 24.17833317 109.69254739 36.73256452 109.34765625 51.29296875 C108.26363767 62.85177365 103.71897904 73.97198625 95.0625 81.875 C86.26994681 89 86.26994681 89 81 89 C83.85550752 94.18022658 86.9963771 99.0049236 90.4375 103.8125 C90.95465576 104.54025635 91.47181152 105.2680127 92.00463867 106.01782227 C95.91467943 111.50970288 99.86212653 116.97459614 103.8125 122.4375 C105.87551898 125.29129214 107.93797436 128.14549006 110 131 C110.4125 131.56992676 110.825 132.13985352 111.25 132.72705078 C112.27581347 134.14778462 113.2945419 135.57362725 114.3125 137 C115.11107422 138.11375 115.11107422 138.11375 115.92578125 139.25 C117 141 117 141 117 143 C94.31872183 145.34335554 94.31872183 145.34335554 87.85107422 141.83398438 C84.35256113 138.61422479 82.30596576 134.5285415 80.21630859 130.31054688 C77.55137028 125.24812691 74.02860017 120.67698537 70.72045898 116.02075195 C68.14687212 112.34264393 65.83569187 108.85478286 64.078125 104.71484375 C62.08252397 100.43463089 60.37870109 97.1346752 56 95 C45.40746905 92.98182115 34.74934119 93.73782095 24 94 C24 110.17 24 126.34 24 143 C16.08 143 8.16 143 0 143 C0 95.81 0 48.62 0 0 Z " fill="#036C77" transform="translate(1915,1551)"/>
<path d="M0 0 C9 0 9 0 12.1875 3.0625 C12.74050781 3.78824219 13.29351563 4.51398438 13.86328125 5.26171875 C16.65684998 8.84177667 19.7541498 12.0804949 22.875 15.375 C27.57458739 20.38370595 32.22234842 25.43072235 36.80078125 30.55078125 C40.69597083 34.88876325 44.6484373 39.17452574 48.59277344 43.46777344 C50.89708552 45.97677112 53.19841091 48.48850468 55.5 51 C56.41665192 52.00001352 57.3333186 53.00001351 58.25 54 C60.08333333 56 61.91666667 58 63.75 60 C64.20383057 60.49508057 64.65766113 60.99016113 65.12524414 61.50024414 C66.04112649 62.49940331 66.9569794 63.49858947 67.87280273 64.49780273 C70.17622769 67.01089055 72.48017602 69.52349478 74.78515625 72.03515625 C75.25050781 72.54240234 75.71585938 73.04964844 76.1953125 73.57226562 C77.4646816 74.95587794 78.73428419 76.33927605 80.00390625 77.72265625 C84.34611944 82.47248267 88.67101391 87.23811531 93 92 C93 61.64 93 31.28 93 0 C100.92 0 108.84 0 117 0 C117 47.19 117 94.38 117 143 C108 143 108 143 105.1015625 140.796875 C103.87566406 139.28867188 103.87566406 139.28867188 102.625 137.75 C101.69078994 136.64004745 100.75587403 135.53068866 99.8203125 134.421875 C99.35399414 133.85146484 98.88767578 133.28105469 98.40722656 132.69335938 C96.20144466 130.03907359 93.84976519 127.5263952 91.5 125 C90.58253666 124.00073087 89.66587136 123.00072845 88.75 122 C88.29625 121.505 87.8425 121.01 87.375 120.5 C75 107 62.625 93.5 50.25 80 C49.79592773 79.50467773 49.34185547 79.00935547 48.87402344 78.49902344 C47.96049397 77.50238681 47.04708185 76.50564259 46.13378906 75.50878906 C43.79509062 72.95641939 41.45417086 70.4061452 39.109375 67.859375 C38.63048828 67.33859375 38.15160156 66.8178125 37.65820312 66.28125 C36.34047349 64.84837894 35.02183272 63.41634596 33.703125 61.984375 C30.42343758 58.36344843 27.21708036 54.67666326 24 51 C24 81.36 24 111.72 24 143 C16.08 143 8.16 143 0 143 C0 95.81 0 48.62 0 0 Z " fill="#295192" transform="translate(2579,1551)"/>
<path d="M0 0 C9 0 9 0 12.1171875 2.421875 C13.0619633 3.50961139 13.9804151 4.62062424 14.875 5.75 C15.90198614 6.95212851 16.92933792 8.15394475 17.95703125 9.35546875 C18.71814209 10.27271729 18.71814209 10.27271729 19.49462891 11.20849609 C21.76324142 13.90831423 24.16195287 16.48040611 26.5625 19.0625 C27.46828828 20.05001109 28.3732365 21.03829338 29.27734375 22.02734375 C31.12187893 24.04204145 32.96835422 26.05493407 34.81640625 28.06640625 C39.04523476 32.67073948 43.26403086 37.28276595 47.4375 41.9375 C51.89643915 46.90512383 56.42438331 51.80683252 60.95703125 56.70703125 C64.74128129 60.79892436 68.50614273 64.9084605 72.26953125 69.01953125 C74.13885919 71.06143328 76.01159841 73.10013497 77.88671875 75.13671875 C78.36616943 75.65806396 78.84562012 76.17940918 79.33959961 76.71655273 C80.65811922 78.15010331 81.97746622 79.58289276 83.296875 81.015625 C86.57656242 84.63655157 89.78291964 88.32333674 93 92 C93.33 61.97 93.66 31.94 94 1 C101.59 1 109.18 1 117 1 C117 47.86 117 94.72 117 143 C109 143 109 143 106.05859375 140.875 C105.19363281 139.92625 104.32867188 138.9775 103.4375 138 C102.96481689 137.49307617 102.49213379 136.98615234 102.00512695 136.46386719 C100.64732475 134.99665098 99.32263945 133.49899137 98 132 C97.41734375 131.34515625 96.8346875 130.6903125 96.234375 130.015625 C95.17041589 128.80120703 94.11486075 127.57939114 93.06640625 126.3515625 C90.15787838 123.04166878 87.13916839 119.83858003 84.125 116.625 C79.44918346 111.63656509 74.82288887 106.61300903 70.265625 101.515625 C67.0699394 97.96731202 63.82624735 94.46422274 60.58374023 90.95874023 C55.82747852 85.81661162 51.09332215 80.65452188 46.36328125 75.48828125 C44.9826018 73.98100655 43.60084325 72.47472835 42.21875 70.96875 C41.75283447 70.46093994 41.28691895 69.95312988 40.80688477 69.42993164 C39.53672471 68.0456406 38.26641554 66.66148637 36.99609375 65.27734375 C32.65388056 60.52751733 28.32898609 55.76188469 24 51 C24 81.36 24 111.72 24 143 C16.08 143 8.16 143 0 143 C0 95.81 0 48.62 0 0 Z " fill="#295092" transform="translate(2426,1551)"/>
<path d="M0 0 C1.61467163 -0.00954712 1.61467163 -0.00954712 3.26196289 -0.01928711 C17.25754727 0.20235515 31.75787154 4.02788363 42.23046875 13.8125 C50.11031427 22.56338242 53.75 30.7707274 53.75 42.5 C46.49 42.5 39.23 42.5 31.75 42.5 C30.43 39.53 29.11 36.56 27.75 33.5 C24.55295729 28.08962003 19.46751686 25.7055703 13.75 23.5 C2.05268417 20.95017639 -10.24356153 21.42352671 -20.6875 27.5 C-24.96569407 30.77459026 -24.96569407 30.77459026 -27.25 35.5 C-27.394238 37.26691554 -27.4705801 39.0399511 -27.5 40.8125 C-27.52578125 41.73675781 -27.5515625 42.66101562 -27.578125 43.61328125 C-27.17115114 47.19368224 -26.09580376 49.4057262 -24.25 52.5 C-15.9447679 58.89346169 -5.54600932 60.06676934 4.5 61.5 C22.50174735 64.09360902 41.92138621 68.35322961 53.75 83.5 C58.81609419 92.44650676 60.23687195 102.4701321 58.0625 112.5625 C54.29455533 125.48495812 47.29536696 133.06847764 35.75 139.5 C19.11004961 148.09365859 -2.71357807 149.1707855 -20.49609375 143.81640625 C-33.06829633 139.40763177 -43.99076812 132.34996861 -50.25 120.25 C-50.9429557 118.6779945 -51.61340356 117.09566095 -52.25 115.5 C-52.683125 114.46875 -53.11625 113.4375 -53.5625 112.375 C-54.25 109.5 -54.25 109.5 -54.25 101.5 C-46.66 101.5 -39.07 101.5 -31.25 101.5 C-30.59 104.14 -29.93 106.78 -29.25 109.5 C-25.49895698 116.7520165 -19.75392142 119.62204816 -12.25 122.5 C0.74625234 125.47569364 15.23438997 124.65816281 26.6875 117.6875 C30.35573827 115.04325757 32.44042918 112.95254078 33.75 108.5 C34.49443968 103.28892223 34.27570552 98.57819756 31.23828125 94.05859375 C22.75777818 85.17743699 6.23935444 83.7698341 -5.375 82.5625 C-17.4297205 81.1926454 -28.21853982 77.44785958 -38.25 70.5 C-39.1575 69.901875 -40.065 69.30375 -41 68.6875 C-49.23927943 60.67708945 -52.31242326 51.4098737 -52.75 40.125 C-52.5179584 30.12703386 -49.31123166 21.54031297 -42.30078125 14.3046875 C-29.84224054 3.34117167 -16.15673307 0.08151269 0 0 Z " fill="#026C77" transform="translate(1599.25,1549.5)"/>
<path d="M0 0 C9.88811195 6.61931461 16.31979094 15.98475645 19.8359375 27.2734375 C20.06023438 27.97726562 20.28453125 28.68109375 20.515625 29.40625 C24.33486607 43.58452851 21.64526783 59.31607184 15.0859375 72.2734375 C8.44078105 83.223215 -1.8496048 90.23051379 -14.14770508 93.85864258 C-26.9487261 96.49200433 -42.91759029 94.63238642 -54.04296875 87.7734375 C-64.71645095 80.22533959 -71.89018748 70.66600715 -74.71875 57.73828125 C-76.27919641 45.59691313 -77.23257995 31.2420001 -71.1640625 20.2734375 C-70.72835937 19.42007812 -70.29265625 18.56671875 -69.84375 17.6875 C-62.97982872 5.19741373 -53.05891206 -1.36456248 -39.7265625 -5.89453125 C-26.14940305 -9.06551257 -12.14421338 -6.62684237 0 0 Z " fill="#FDFEFE" transform="translate(2353.1640625,1578.7265625)"/>
<path d="M0 0 C8.91143431 6.17991284 15.10895985 13.29527096 20.25390625 22.765625 C20.59639404 23.3954126 20.93888184 24.0252002 21.29174805 24.67407227 C23.25024877 28.4618376 24.35430826 31.84114203 24.81640625 36.078125 C3.34053486 37.88377505 3.34053486 37.88377505 -2.3125 33.83984375 C-4.21341092 31.00191816 -5.70554192 28.15315236 -7.18359375 25.078125 C-13.86956041 17.22373698 -25.16547726 12.94609019 -35.22241211 11.85742188 C-49.58861307 11.04563607 -61.71307236 13.90895625 -73.18359375 23.078125 C-84.71801633 34.80878539 -87.59460696 48.12314236 -87.54931641 63.94384766 C-87.33429454 76.9220938 -84.12732697 88.50798974 -75.1484375 98.296875 C-63.82188127 109.00416625 -51.14127139 111.80518923 -36.02734375 111.453125 C-25.37196931 110.86674433 -15.76398783 106.62732404 -8.18359375 99.078125 C-4.29224003 94.65535293 -1.84423364 90.39940478 0.81640625 85.078125 C8.73640625 85.078125 16.65640625 85.078125 24.81640625 85.078125 C22.8121384 99.10799997 15.83931536 111.00172166 4.81640625 120.078125 C-1.79219333 124.88159784 -8.5197328 128.31861193 -16.18359375 131.078125 C-16.99828125 131.41972656 -17.81296875 131.76132813 -18.65234375 132.11328125 C-35.1682689 138.40870334 -55.93569906 136.35360609 -71.9375 129.53515625 C-89.0137966 121.74173307 -100.88060774 109.08533661 -107.87109375 91.765625 C-115.32731256 71.05657857 -116.07368855 48.6677285 -106.75415039 28.37695312 C-103.62856713 22.00999225 -99.88310899 16.37440408 -95.18359375 11.078125 C-94.68730469 10.48902344 -94.19101563 9.89992188 -93.6796875 9.29296875 C-84.0653797 -1.28517943 -71.70193864 -6.44128965 -58.18359375 -9.921875 C-57.55662598 -10.10145752 -56.9296582 -10.28104004 -56.28369141 -10.46606445 C-37.19507571 -14.60910625 -16.43203281 -9.9197057 0 0 Z " fill="#295092" transform="translate(2212.18359375,1560.921875)"/>
<path d="M0 0 C1.0621875 0.4228125 2.124375 0.845625 3.21875 1.28125 C18.37201096 7.99867496 28.43137544 20.72965773 35.15234375 35.5546875 C36 38 36 38 36 42 C32.12629549 42.26246434 28.25487619 42.42153564 24.375 42.5625 C23.28058594 42.63791016 22.18617188 42.71332031 21.05859375 42.79101562 C13.07975537 43.00862031 13.07975537 43.00862031 9.88769531 40.02685547 C6 34.32330247 6 34.32330247 6 31 C5.41476563 30.72929688 4.82953125 30.45859375 4.2265625 30.1796875 C2.0210893 29.01117363 0.29945354 27.70550865 -1.625 26.125 C-12.09438518 18.12130179 -24.26464121 17.09347916 -37 18 C-40.84189196 18.63564149 -44.36067571 19.62554255 -48 21 C-48.69222656 21.25523438 -49.38445313 21.51046875 -50.09765625 21.7734375 C-60.47228834 26.26979892 -67.66019894 34.76841606 -72 45 C-73.17685838 48.29891011 -74.15793092 51.60143344 -75 55 C-75.18433594 55.61230469 -75.36867188 56.22460938 -75.55859375 56.85546875 C-78.59329176 71.59926705 -74.5401065 87.34270039 -67 100 C-61.71491991 108.00312128 -52.28141286 113.32556754 -43.29296875 116.34765625 C-30.99472699 118.78396274 -18.02417405 117.84191702 -6.8125 112.125 C-5.82894531 111.63257813 -4.84539063 111.14015625 -3.83203125 110.6328125 C1.3796753 107.62799411 4.56973384 104.58706883 7.6875 99.4375 C8.26886719 98.48746094 8.85023438 97.53742188 9.44921875 96.55859375 C9.96097656 95.71425781 10.47273438 94.86992188 11 94 C11.99 92.515 11.99 92.515 13 91 C15.43017578 90.65942383 15.43017578 90.65942383 18.4453125 90.70703125 C19.52167969 90.71669922 20.59804687 90.72636719 21.70703125 90.73632812 C22.83496094 90.76146484 23.96289062 90.78660156 25.125 90.8125 C26.26066406 90.82603516 27.39632812 90.83957031 28.56640625 90.85351562 C31.37807387 90.88895681 34.18880417 90.93836483 37 91 C34.96822913 105.22239606 26.97482233 117.26494489 16.125 126.4375 C-0.52729664 138.75812446 -21.70913464 143.29734273 -42.13427734 140.73193359 C-57.39554426 138.1413656 -71.29336519 131.18514363 -82 120 C-82.62003906 119.41089844 -83.24007812 118.82179688 -83.87890625 118.21484375 C-97.92970207 103.91257955 -101.30166131 83.47610331 -101.31469727 64.33642578 C-101.06926815 45.11743785 -94.4491063 28.00577461 -81 14 C-60.19648518 -6.2579681 -26.39935176 -11.1781039 0 0 Z " fill="#295092" transform="translate(2942,1555)"/>
<path d="M0 0 C8.95722345 7.33431188 15.71403968 17.90988391 19 29 C19 29.99 19 30.98 19 32 C-2.62226338 33.64015302 -2.62226338 33.64015302 -7.87109375 30.01953125 C-9.51138795 27.41944859 -10.73924268 24.79986366 -12 22 C-18.5731285 14.37982448 -29.03321254 9.1960145 -39 8 C-54.10861956 7.02972168 -66.11715528 9.30537135 -78.15234375 18.67578125 C-86.91062483 26.52629423 -92.18960552 38.34866798 -93 50 C-93.73657704 66.13922134 -92.27081877 80.31724621 -81.75 93.375 C-77.74496853 97.60838853 -73.18406958 100.40412516 -68 103 C-67.20207031 103.41507813 -66.40414063 103.83015625 -65.58203125 104.2578125 C-54.09788981 109.35000545 -39.40647723 108.47833836 -27.79296875 104.25390625 C-16.64033051 99.24691761 -10.00463083 91.50810395 -4 81 C3.92 81 11.84 81 20 81 C16.9661532 96.169234 8.17862077 109.63389287 -4.375 118.71875 C-21.32164558 129.36471966 -41.64347474 133.84846392 -61.4375 130.1875 C-62.96402894 129.81423407 -64.48534025 129.41883635 -66 129 C-67.18916016 128.70802734 -67.18916016 128.70802734 -68.40234375 128.41015625 C-86.67241503 123.53236471 -100.2136335 112.30925436 -109.6796875 96.12890625 C-116.28530851 83.75569079 -118.72011966 71.57520574 -118.5625 57.625 C-118.55857239 56.94812134 -118.55464478 56.27124268 -118.55059814 55.57385254 C-118.46371098 44.94099714 -117.54863659 35.7077481 -113 26 C-112.53078125 24.98550781 -112.0615625 23.97101563 -111.578125 22.92578125 C-103.09945163 6.21914797 -89.44254581 -5.84067276 -71.83984375 -12.12890625 C-47.48549566 -19.063363 -20.17373661 -15.70375415 0 0 Z " fill="#026C77" transform="translate(1259,1565)"/>
<path d="M0 0 C28.71 0 57.42 0 87 0 C87 7.26 87 14.52 87 22 C66.21 22 45.42 22 24 22 C24 34.21 24 46.42 24 59 C43.8 59 63.6 59 84 59 C84 66.26 84 73.52 84 81 C64.2 81 44.4 81 24 81 C24 94.2 24 107.4 24 121 C45.45 121 66.9 121 89 121 C89 128.26 89 135.52 89 143 C59.63 143 30.26 143 0 143 C0 95.81 0 48.62 0 0 Z " fill="#2B5293" transform="translate(2731,1551)"/>
<path d="M0 0 C7.92 0 15.84 0 24 0 C24.01458252 2.85052002 24.02916504 5.70104004 24.04418945 8.63793945 C24.09466252 18.08560156 24.16127984 27.53310105 24.23571491 36.98060322 C24.28032737 42.70523466 24.31960353 48.42979643 24.34643555 54.15454102 C24.37255961 59.68546558 24.41302612 65.21612071 24.46318626 70.74687767 C24.47979356 72.85060446 24.49134587 74.95437778 24.49761391 77.05816078 C24.01987003 95.74222426 24.01987003 95.74222426 31.33984375 112.43359375 C40.06457929 120.66563834 48.95269636 121.44837144 60.30078125 121.28125 C65.57875078 121.07366024 69.63015601 120.0290964 74 117 C74.85078125 116.45666016 74.85078125 116.45666016 75.71875 115.90234375 C81.85546256 111.46525992 84.49134451 104.18372265 86 97 C86.29150597 93.76619294 86.31089737 90.54657712 86.31884766 87.30102539 C86.32889328 86.35390686 86.3389389 85.40678833 86.34928894 84.43096924 C86.38002576 81.31987073 86.39712968 78.20885791 86.4140625 75.09765625 C86.43278178 72.93288948 86.45235576 70.76812995 86.4727478 68.6033783 C86.5239946 62.92024001 86.56366026 57.23707809 86.60089111 51.55383301 C86.64097747 45.74872018 86.69204868 39.94370504 86.7421875 34.13867188 C86.83885863 22.75917651 86.92227583 11.37964057 87 0 C94.92 0 102.84 0 111 0 C111.06796107 12.57035821 111.12292284 25.14059303 111.15543652 37.7110939 C111.17104679 43.54900222 111.19219996 49.38677756 111.22631836 55.22460938 C111.25907765 60.86563156 111.27688785 66.50652639 111.28463173 72.14763641 C111.2901456 74.29245761 111.30091234 76.43727237 111.31719017 78.58203888 C111.45628813 97.68099119 109.66926217 115.56921208 95.96484375 130.16796875 C83.83793357 141.56769207 68.70453088 145.57649771 52.37109375 145.27734375 C38.34449597 144.64816585 23.69615341 139.44561455 14 129 C0.21776552 112.35392459 -0.30137216 94.49966419 -0.1953125 73.92578125 C-0.19157682 71.78916049 -0.18873247 69.65253801 -0.18673706 67.51591492 C-0.17914431 61.92480643 -0.15953374 56.33380382 -0.1373291 50.74273682 C-0.11677626 45.02446932 -0.10771526 39.30618451 -0.09765625 33.58789062 C-0.07628332 22.39187337 -0.04113719 11.1959621 0 0 Z " fill="#036C77" transform="translate(1408,1551)"/>
<path d="M0 0 C28.38 0 56.76 0 86 0 C86 6.93 86 13.86 86 21 C65.21 21 44.42 21 23 21 C23 33.21 23 45.42 23 58 C42.8 58 62.6 58 83 58 C83 65.26 83 72.52 83 80 C63.53 80 44.06 80 24 80 C24 93.2 24 106.4 24 120 C45.12 120 66.24 120 88 120 C88 127.26 88 134.52 88 142 C58.96 142 29.92 142 0 142 C0 95.14 0 48.28 0 0 Z " fill="#026C77" transform="translate(1798,1552)"/>
<path d="M0 0 C35.31 0 70.62 0 107 0 C107 7.26 107 14.52 107 22 C93.14 22 79.28 22 65 22 C65 61.93 65 101.86 65 143 C57.08 143 49.16 143 41 143 C41 103.07 41 63.14 41 22 C27.47 22 13.94 22 0 22 C0 14.74 0 7.48 0 0 Z " fill="#056E78" transform="translate(1670,1551)"/>
<path d="M0 0 C34.98 0 69.96 0 106 0 C106 7.26 106 14.52 106 22 C92.47 22 78.94 22 65 22 C65 61.93 65 101.86 65 143 C57.08 143 49.16 143 41 143 C41 103.07 41 63.14 41 22 C27.47 22 13.94 22 0 22 C0 14.74 0 7.48 0 0 Z " fill="#295192" transform="translate(2989,1551)"/>
<path d="M0 0 C7.92 0 15.84 0 24 0 C24 39.93 24 79.86 24 121 C44.13 121 64.26 121 85 121 C85 128.26 85 135.52 85 143 C56.95 143 28.9 143 0 143 C0 95.81 0 48.62 0 0 Z " fill="#026C77" transform="translate(1303,1551)"/>
<path d="M0 0 C6.3525 -0.103125 12.705 -0.20625 19.25 -0.3125 C22.2185498 -0.38078003 22.2185498 -0.38078003 25.24707031 -0.45043945 C35.65282461 -0.59011703 45.69737648 -0.46973849 54.00634766 6.74121094 C60.37873631 13.4315192 61.67705537 20.32058077 61.484375 29.34765625 C60.57786647 36.18302296 57.73976018 42.25524936 52.85546875 47.1484375 C46.0352444 51.57085384 39.13072064 52.43887964 31.15234375 52.29296875 C30.35542114 52.28994751 29.55849854 52.28692627 28.73742676 52.28381348 C25.80398318 52.26829853 22.87072645 52.22641682 19.9375 52.1875 C13.358125 52.125625 6.77875 52.06375 0 52 C0 34.84 0 17.68 0 0 Z " fill="#FCFDFD" transform="translate(1939,1572)"/>
</svg>
