<?xml version="1.0" encoding="UTF-8"?>
<svg version="1.1" xmlns="http://www.w3.org/2000/svg" width="500" height="500">
<path d="M0 0 C165 0 330 0 500 0 C500 165 500 330 500 500 C335 500 170 500 0 500 C0 335 0 170 0 0 Z " fill="#FEFEFE" transform="translate(0,0)"/>
<path d="M0 0 C1.36177444 -0.00596161 1.36177444 -0.00596161 2.75105947 -0.01204365 C5.7997283 -0.02168486 8.84793521 -0.00983745 11.89659119 0.00190735 C14.07947971 -0.00051999 16.26236713 -0.00423875 18.44525146 -0.00915527 C24.37897025 -0.01857518 30.31252441 -0.00912981 36.24623036 0.00417686 C42.44816065 0.01547562 48.65008265 0.0113851 54.85202026 0.00942993 C65.93451561 0.0084899 77.01693926 0.02193932 88.09941541 0.04159132 C98.15161605 0.05908543 108.20375237 0.06377912 118.25596619 0.05854797 C131.16996346 0.0518636 144.08391469 0.05513115 156.99790764 0.06765175 C161.932867 0.07230434 166.86780583 0.07316874 171.8027668 0.0710659 C177.60985801 0.06918673 183.41685182 0.07725832 189.22392082 0.0931263 C191.35929842 0.09738038 193.49468589 0.0982122 195.63006592 0.0954361 C198.53660707 0.09222985 201.44285432 0.10125669 204.34936523 0.11352539 C205.20168875 0.10974607 206.05401227 0.10596674 206.93216377 0.10207289 C210.84091013 0.1314189 212.78426275 0.15626977 216.1111908 2.3742218 C217.31600544 5.98866575 217.27449408 9.30732829 217.28819275 13.07099915 C217.29476395 13.85344498 217.30133514 14.63589081 217.30810547 15.44204712 C217.32781687 18.03141883 217.33949506 20.62073265 217.34947205 23.2101593 C217.35354757 24.09480488 217.3576231 24.97945045 217.36182213 25.89090347 C217.38267176 30.57153845 217.39697934 35.25214419 217.40635681 39.93281555 C217.41743047 44.76732946 217.45184438 49.60138426 217.49152851 54.4357357 C217.51766586 58.15380207 217.52604598 61.87175844 217.52963829 65.5899086 C217.53451022 67.37210319 217.54614148 69.15429268 217.56467628 70.93639755 C217.58901127 73.43085487 217.58811364 75.92411585 217.5811615 78.4186554 C217.60037659 79.52073586 217.60037659 79.52073586 217.61997986 80.64508057 C217.58665497 83.92814967 217.22248399 86.17097383 215.63862991 89.06346989 C211.96823181 92.41919046 209.00213622 92.06918172 204.18441772 92.00241089 C202.81651796 92.01305247 202.81651796 92.01305247 201.42098385 92.02390903 C198.35822796 92.04154352 195.29673197 92.02335632 192.23399353 92.00532532 C190.04124878 92.010462 187.84850816 92.01774138 185.65577698 92.02700806 C179.69510393 92.04556092 173.73487676 92.03255913 167.77422214 92.01291776 C161.54425943 91.99656422 155.31432569 92.00533946 149.08435059 92.01043701 C138.62228073 92.01496131 128.16037808 91.99917041 117.698349 91.97114563 C106.93004436 91.94230075 96.16199418 91.9352277 85.3936615 91.95063782 C72.42127304 91.96917661 59.4490438 91.96747142 46.47665596 91.94842339 C41.51934228 91.94153857 36.56212311 91.94259998 31.60481071 91.94996834 C25.77135094 91.95761066 19.93825916 91.94557207 14.10486221 91.91811943 C11.95981629 91.91121326 9.81473613 91.91116135 7.66969109 91.91833496 C4.7497055 91.92697736 1.83086932 91.91116227 -1.08901978 91.8888855 C-2.37334148 91.90124665 -2.37334148 91.90124665 -3.68360907 91.91385752 C-9.37331249 91.8333016 -9.37331249 91.8333016 -11.91456604 89.57016754 C-13.40954503 86.20048238 -13.31411929 82.87567547 -13.29286194 79.25679016 C-13.29972519 78.44172501 -13.30658844 77.62665985 -13.31365967 76.78689575 C-13.33194488 74.09577464 -13.32808865 71.40523538 -13.32240295 68.71406555 C-13.32696314 66.84366668 -13.33226822 64.9732695 -13.33828735 63.10287476 C-13.34722123 59.18470955 -13.34479125 55.26674815 -13.33485413 51.34858704 C-13.32334967 46.32215608 -13.34359702 41.29642609 -13.37277126 36.27008724 C-13.39109438 32.40880858 -13.39084885 28.54769923 -13.38513374 24.68638802 C-13.38498013 22.8327848 -13.39105753 20.9791704 -13.40342522 19.12560844 C-13.41826457 16.53737388 -13.40771202 13.95045172 -13.39051819 11.36225891 C-13.40018616 10.59386688 -13.40985413 9.82547485 -13.41981506 9.03379822 C-13.34825092 3.90246954 -13.34825092 3.90246954 -11.41303444 1.67743492 C-7.69901657 -0.24004722 -4.08306741 -0.03541931 0 0 Z " fill="#ED3C3E" transform="translate(219.88880920410156,191.6257781982422)"/>
<path d="M0 0 C1.22783203 0.04640625 1.22783203 0.04640625 2.48046875 0.09375 C5.08746857 0.54790072 6.6482576 0.9585934 8.8125 2.5 C11.50917674 6.96894323 12.174315 10.24326979 12.10546875 15.4296875 C12.0909668 17.36328125 12.0909668 17.36328125 12.07617188 19.3359375 C12.05111188 20.68229786 12.02571712 22.02865203 12 23.375 C11.98493504 24.74477705 11.97124982 26.11457002 11.95898438 27.484375 C11.92371379 30.82332358 11.87441896 34.16145675 11.8125 37.5 C13.7925 36.84 15.7725 36.18 17.8125 35.5 C18.1425 27.91 18.4725 20.32 18.8125 12.5 C21.4525 12.5 24.0925 12.5 26.8125 12.5 C26.98265625 13.36882812 27.1528125 14.23765625 27.328125 15.1328125 C28.97801314 22.97855716 30.22742338 28.73650344 36.8125 33.8125 C45.51520148 38.70776958 56.54277879 37.0138227 65.8125 34.5 C64.8225 32.025 64.8225 32.025 63.8125 29.5 C62.9771875 29.65726563 62.141875 29.81453125 61.28125 29.9765625 C54.71284611 30.96774056 46.8649757 32.05275272 40.5390625 29.62890625 C38.9375 28.4375 38.9375 28.4375 36.8125 25.5 C36.3175 22.035 36.3175 22.035 35.8125 18.5 C46.7025 18.5 57.5925 18.5 68.8125 18.5 C68.8125 15.86 68.8125 13.22 68.8125 10.5 C71.1225 10.5 73.4325 10.5 75.8125 10.5 C76.77468017 13.3320775 77.7323208 16.16556127 78.6875 19 C78.95691406 19.79148438 79.22632813 20.58296875 79.50390625 21.3984375 C81.18210035 26.39208823 82.60121968 31.37263863 83.8125 36.5 C87.18650578 36.91725678 87.18650578 36.91725678 90.8125 36.5 C93.49185631 32.94879293 94.74713648 29.09876248 96.07421875 24.88671875 C96.66879883 23.0159668 96.66879883 23.0159668 97.27539062 21.10742188 C97.68373294 19.80082474 98.09193432 18.49418356 98.5 17.1875 C98.9193356 15.86114263 99.3392518 14.53496867 99.75976562 13.20898438 C100.78306618 9.97441366 101.80041691 6.73809464 102.8125 3.5 C104.8125 4.5 104.8125 4.5 105.671875 6.80859375 C105.96578125 7.84113281 106.2596875 8.87367188 106.5625 9.9375 C108.50126362 16.54692145 110.6517997 23.0651109 112.88183594 29.58178711 C114.8125 35.28743364 114.8125 35.28743364 114.8125 37.5 C118.22386476 37.5615942 118.22386476 37.5615942 121.8125 36.5 C123.34923801 33.97535899 124.0488052 32.28724279 124.8125 29.5 C125.06644531 28.58605469 125.32039062 27.67210937 125.58203125 26.73046875 C126.09519265 24.84213593 126.59117653 22.94901521 127.06640625 21.05078125 C127.76074594 18.67693927 128.63090349 16.66541506 129.8125 14.5 C130.4725 14.5 131.1325 14.5 131.8125 14.5 C131.8125 12.52 131.8125 10.54 131.8125 8.5 C134.7825 8.5 137.7525 8.5 140.8125 8.5 C141.1425 9.49 141.4725 10.48 141.8125 11.5 C146.52723778 15.34603806 151.28024912 16.70013691 157.125 18.125 C160.053483 18.84966768 162.92020661 19.63142568 165.8125 20.5 C167.16689668 23.20879335 166.87751451 25.50933268 166.8125 28.5 C163.61792649 30.38414642 161.29747371 30.73819737 157.609375 30.6953125 C156.13984375 30.68564453 156.13984375 30.68564453 154.640625 30.67578125 C153.62484375 30.65902344 152.6090625 30.64226562 151.5625 30.625 C150.53125 30.61597656 149.5 30.60695312 148.4375 30.59765625 C145.89559713 30.57412011 143.3541672 30.54124023 140.8125 30.5 C140.4825 32.15 140.1525 33.8 139.8125 35.5 C150.19922973 37.19579261 161.85753768 38.87180011 170.8125 32.5 C173.51941705 29.4649718 173.8125 28.0778818 173.8125 24 C172.59009187 19.72157155 171.33549826 18.19846675 167.8125 15.5 C163.83069135 13.53462009 159.68343894 12.44125818 155.375 11.4375 C154.199375 11.128125 153.02375 10.81875 151.8125 10.5 C151.4825 9.84 151.1525 9.18 150.8125 8.5 C153.88845183 6.96202409 157.14418609 7.28051668 160.5234375 7.21875 C161.67025497 7.19113586 161.67025497 7.19113586 162.84024048 7.16296387 C165.28924794 7.10415098 167.73832609 7.05138463 170.1875 7 C173.40378942 6.93222864 176.61986333 6.85849629 179.8359375 6.78125 C180.57460052 6.76767456 181.31326355 6.75409912 182.0743103 6.7401123 C185.47503235 6.65818979 188.53770392 6.40175136 191.8125 5.5 C191.91397154 12.52908999 191.98399565 19.55799089 192.03222656 26.58764648 C192.05233418 28.97866881 192.0796243 31.36964201 192.11425781 33.76049805 C192.16281151 37.19852831 192.18547774 40.63590804 192.203125 44.07421875 C192.22377014 45.14210129 192.24441528 46.20998383 192.26568604 47.31022644 C192.26598816 48.31088638 192.26629028 49.31154633 192.26660156 50.3425293 C192.27548401 51.21967087 192.28436646 52.09681244 192.29351807 53.00053406 C191.60919985 56.55638819 190.45475915 58.00910899 187.8125 60.5 C184.84415261 61.24894606 181.93385334 61.17043438 178.88572693 61.12818909 C177.97379375 61.13528347 177.06186057 61.14237786 176.12229306 61.14968723 C173.05953717 61.16732171 169.99804117 61.14913452 166.93530273 61.13110352 C164.74255799 61.1362402 162.54981736 61.14351957 160.35708618 61.15278625 C154.39641313 61.17133912 148.43618597 61.15833733 142.47553134 61.13869596 C136.24556863 61.12234242 130.0156349 61.13111766 123.78565979 61.13621521 C113.32358993 61.14073951 102.86168728 61.12494861 92.3996582 61.09692383 C81.63135357 61.06807895 70.86330338 61.0610059 60.0949707 61.07641602 C47.12258224 61.09495481 34.150353 61.09324962 21.17796516 61.07420158 C16.22065148 61.06731677 11.26343232 61.06837817 6.30611992 61.07574654 C0.47266014 61.08338886 -5.36043164 61.07135027 -11.19382858 61.04389763 C-13.33887451 61.03699146 -15.48395466 61.03693955 -17.62899971 61.04411316 C-20.5489853 61.05275556 -23.46782148 61.03694046 -26.38771057 61.0146637 C-27.67203227 61.02702485 -27.67203227 61.02702485 -28.98229986 61.03963572 C-34.69949119 60.95869062 -34.69949119 60.95869062 -37.21451855 58.59475899 C-38.27889578 56.30323147 -38.55675801 54.81612742 -38.54394531 52.2980957 C-38.54694641 51.48077469 -38.54994751 50.66345367 -38.55303955 49.82136536 C-38.54069275 48.9483226 -38.52834595 48.07527985 -38.515625 47.17578125 C-38.51375183 46.27377487 -38.51187866 45.37176849 -38.50994873 44.44242859 C-38.50323662 42.54027599 -38.48933882 40.638137 -38.46875 38.73608398 C-38.43750384 35.81285897 -38.4277694 32.89017257 -38.421875 29.96679688 C-38.41270864 28.11978504 -38.40233404 26.27277872 -38.390625 24.42578125 C-38.38637512 23.5466658 -38.38212524 22.66755035 -38.37774658 21.76179504 C-38.30467153 15.61717153 -38.30467153 15.61717153 -37.1875 14.5 C-35.84482587 14.41368126 -34.49775678 14.39293527 -33.15234375 14.40234375 C-32.05974243 14.40609009 -32.05974243 14.40609009 -30.94506836 14.40991211 C-30.0144458 14.41901611 -29.08382324 14.42812012 -28.125 14.4375 C-23.7009375 14.4684375 -23.7009375 14.4684375 -19.1875 14.5 C-19.1875 22.09 -19.1875 29.68 -19.1875 37.5 C-16.2175 37.005 -16.2175 37.005 -13.1875 36.5 C-13.19386475 35.62263184 -13.20022949 34.74526367 -13.20678711 33.84130859 C-13.21393778 30.56370171 -13.18975586 27.28935556 -13.14477539 24.01220703 C-13.13169175 22.59820491 -13.13085023 21.1840315 -13.14282227 19.77001953 C-13.22878815 8.15234453 -13.22878815 8.15234453 -10.74926758 4.21777344 C-7.49846549 1.23606724 -4.49566174 -0.28589264 0 0 Z " fill="#CC0506" transform="translate(245.1875,222.5)"/>
<path d="M0 0 C2.77099077 2.0026706 3.89894651 4.56472956 5.3125 7.625 C7.44159853 12.05145408 9.90922204 16.00205759 12.765625 19.9921875 C14.00956507 22.01555837 14.56292897 23.67936094 15 26 C15.66 26 16.32 26 17 26 C17.0928125 24.8553125 17.0928125 24.8553125 17.1875 23.6875 C18.91447736 15.84967967 23.14818819 4.56787454 30 0 C32.26171875 -0.1953125 32.26171875 -0.1953125 34.6875 -0.125 C35.89986328 -0.09792969 35.89986328 -0.09792969 37.13671875 -0.0703125 C38.05904297 -0.03550781 38.05904297 -0.03550781 39 0 C39.495 0.99 39.495 0.99 40 2 C38.98715827 4.43677805 37.91893773 6.76461208 36.75 9.125 C33.83203096 15.11978695 33.83203096 15.11978695 31.375 21.3125 C30.29372069 24.21229451 29.13968446 26.78438005 27.734375 29.5234375 C24.46626545 35.99633032 21.52763173 42.60772647 18.57421875 49.22851562 C18.15527344 50.15986328 17.73632812 51.09121094 17.3046875 52.05078125 C16.93327637 52.88262939 16.56186523 53.71447754 16.17919922 54.5715332 C12.75557621 61.6222119 12.75557621 61.6222119 10 63 C8.29297265 63.06996014 6.58331997 63.08440154 4.875 63.0625 C3.96492188 63.05347656 3.05484375 63.04445313 2.1171875 63.03515625 C1.41851562 63.02355469 0.71984375 63.01195312 0 63 C0.68377609 57.35333294 3.59005605 52.78240675 6.29296875 47.8828125 C8.4059204 43.89027211 8.4059204 43.89027211 9.0390625 39.48828125 C7.49684319 35.79507186 5.42956187 32.5355842 3.25 29.1875 C2.38020833 27.82682292 1.51041667 26.46614583 0.640625 25.10546875 C0.20943359 24.43692871 -0.22175781 23.76838867 -0.66601562 23.07958984 C-2.80867353 19.73933361 -4.90451982 16.36998679 -7 13 C-7.50813232 13.43143311 -8.01626465 13.86286621 -8.53979492 14.30737305 C-9.75179036 15.33642578 -10.96378581 16.36547852 -12.17578125 17.39453125 C-12.77777344 17.92433594 -13.37976563 18.45414063 -14 19 C-14.59167969 19.47824219 -15.18335938 19.95648438 -15.79296875 20.44921875 C-16.19128906 20.96097656 -16.58960938 21.47273438 -17 22 C-16.54321162 24.99173006 -15.4755084 27.08606835 -13.78515625 29.56640625 C-13.12676758 30.5419043 -13.12676758 30.5419043 -12.45507812 31.53710938 C-11.99552734 32.20548828 -11.53597656 32.87386719 -11.0625 33.5625 C-10.60681641 34.23474609 -10.15113281 34.90699219 -9.68164062 35.59960938 C-8.83344063 36.85017657 -7.98287419 38.09914446 -7.12915039 39.34594727 C-4 43.92972973 -4 43.92972973 -4 47 C-5.89382164 47.13592021 -7.79049704 47.2324094 -9.6875 47.3125 C-10.74324219 47.37050781 -11.79898438 47.42851562 -12.88671875 47.48828125 C-17.18617926 46.81396185 -18.26887012 45.37977323 -21 42 C-23.21269381 38.7932543 -25.27488585 35.50759791 -27.3125 32.1875 C-27.86228516 31.30384766 -28.41207031 30.42019531 -28.97851562 29.50976562 C-30.32510235 27.34351742 -31.66535544 25.17361864 -33 23 C-30.95100255 19.38374431 -28.69495417 16.29543433 -25.9375 13.1875 C-25.24527344 12.39730469 -24.55304688 11.60710937 -23.83984375 10.79296875 C-22 9 -22 9 -20 9 C-19.79375 8.443125 -19.5875 7.88625 -19.375 7.3125 C-14.75480123 -0.45783429 -8.60939883 -1.49080499 0 0 Z " fill="#454545" transform="translate(153,214)"/>
<path d="M0 0 C1.20205078 0.00966797 2.40410156 0.01933594 3.64257812 0.02929688 C5.51139648 0.06700195 5.51139648 0.06700195 7.41796875 0.10546875 C9.31579102 0.12577148 9.31579102 0.12577148 11.25195312 0.14648438 C14.37022518 0.18178557 17.48762917 0.23110056 20.60546875 0.29296875 C20.85546875 7.91796875 20.85546875 7.91796875 18.60546875 11.29296875 C16.57421875 11.70947266 16.57421875 11.70947266 14.10546875 11.76953125 C12.77515625 11.8159375 12.77515625 11.8159375 11.41796875 11.86328125 C10.02578125 11.89035156 10.02578125 11.89035156 8.60546875 11.91796875 C6.77202716 11.96889768 4.93868055 12.02341111 3.10546875 12.08203125 C2.29078125 12.09959473 1.47609375 12.1171582 0.63671875 12.13525391 C-1.46237869 12.1699621 -1.46237869 12.1699621 -3.39453125 13.29296875 C-3.39453125 13.95296875 -3.39453125 14.61296875 -3.39453125 15.29296875 C1.66669351 16.90825325 6.60172761 18.33759021 11.85546875 19.16796875 C16.73084674 20.0739445 19.15984768 21.75899842 22.60546875 25.29296875 C24.33605735 28.75414595 23.95069641 32.50185759 23.60546875 36.29296875 C21.83453901 41.50737299 19.35887907 43.61917544 14.60546875 46.29296875 C11.30812229 47.39208424 8.8758813 47.40691435 5.40625 47.390625 C4.19775391 47.38740234 2.98925781 47.38417969 1.74414062 47.38085938 C0.48150391 47.37248047 -0.78113281 47.36410156 -2.08203125 47.35546875 C-3.99338867 47.34870117 -3.99338867 47.34870117 -5.94335938 47.34179688 C-9.09379689 47.32999748 -12.24414074 47.31353472 -15.39453125 47.29296875 C-15.76211304 39.81880566 -15.76211304 39.81880566 -14.18383789 37.56103516 C-11.87387561 35.92398452 -10.39603235 35.8820072 -7.578125 35.81640625 C-6.64935547 35.78546875 -5.72058594 35.75453125 -4.76367188 35.72265625 C-3.79623047 35.70460937 -2.82878906 35.6865625 -1.83203125 35.66796875 C0.08604146 35.61705773 2.00402308 35.562548 3.921875 35.50390625 C4.77209229 35.48634277 5.62230957 35.4687793 6.49829102 35.45068359 C8.66210911 35.42265198 8.66210911 35.42265198 10.60546875 34.29296875 C10.27546875 33.30296875 9.94546875 32.31296875 9.60546875 31.29296875 C8.98800781 31.18339844 8.37054688 31.07382813 7.734375 30.9609375 C-1.18564845 29.29097877 -8.75388588 27.76759799 -15.39453125 21.29296875 C-17.26014292 17.5617454 -16.9499748 13.35581991 -16.39453125 9.29296875 C-13.05682413 2.6037051 -7.1499619 -0.10165823 0 0 Z " fill="#3B3B3B" transform="translate(78.39453125,213.70703125)"/>
<path d="M0 0 C2.31 0.33 4.62 0.66 7 1 C7.20157715 1.73114014 7.4031543 2.46228027 7.61083984 3.21557617 C8.52928029 6.54037279 9.45209415 9.86394026 10.375 13.1875 C10.69210937 14.33798828 11.00921875 15.48847656 11.3359375 16.67382812 C11.6453125 17.78564453 11.9546875 18.89746094 12.2734375 20.04296875 C12.55622559 21.06414795 12.83901367 22.08532715 13.13037109 23.13745117 C13.94931563 25.83316276 14.91118847 28.40312193 16 31 C16.50817871 29.47546386 17.01629803 27.95090791 17.52416992 26.42626953 C17.96997286 25.08968111 18.41676597 23.75342259 18.86450195 22.41748047 C20.05793443 18.8517931 21.23399953 15.28205858 22.375 11.69921875 C22.59518799 11.01609619 22.81537598 10.33297363 23.04223633 9.62915039 C23.6618048 7.70480775 24.27441388 5.77822865 24.88671875 3.8515625 C26 1 26 1 28 0 C30.9375 -0.375 30.9375 -0.375 34 0 C36.37346048 3.27866512 37.6390351 6.54813571 38.75390625 10.4140625 C39.05103516 11.42210937 39.34816406 12.43015625 39.65429688 13.46875 C39.95400391 14.5103125 40.25371094 15.551875 40.5625 16.625 C41.16336049 18.7018596 41.76863789 20.77744783 42.37890625 22.8515625 C42.6426001 23.76760254 42.90629395 24.68364258 43.17797852 25.62744141 C43.96459425 28.21960746 43.96459425 28.21960746 46 31 C48.64997067 22.8950365 50.84594026 14.79545224 52.69238281 6.47485352 C53.90092478 1.09907522 53.90092478 1.09907522 55 0 C57.33944736 0.28730055 59.6739143 0.61936779 62 1 C61.50192707 4.78535426 60.6371051 8.30431052 59.5 11.9375 C58.57696887 14.90628764 57.92729258 17.52712881 57.5 20.625 C57.00073714 23.99502429 56.08282986 26.67127533 54.82421875 29.80859375 C53.58269753 33.10951037 52.67752301 36.49898382 51.74609375 39.8984375 C51 42 51 42 49 44 C45.375 44.125 45.375 44.125 42 44 C37.67763387 33.17637006 34.13117629 22.22004836 31 11 C29.26561832 15.45757243 27.68427285 19.91496638 26.28125 24.48828125 C25.98863281 25.44154297 25.69601562 26.39480469 25.39453125 27.37695312 C24.79272885 29.35186362 24.19646807 31.32847041 23.60546875 33.30664062 C23.31285156 34.25345703 23.02023437 35.20027344 22.71875 36.17578125 C22.46029297 37.03083252 22.20183594 37.88588379 21.93554688 38.7668457 C20.92504471 41.1789186 20.09295133 42.43941641 18 44 C14.3125 44.1875 14.3125 44.1875 11 44 C8.36943105 36.45460475 6.28035521 28.80885146 4.25 21.08398438 C3.10571186 16.80184359 1.91630549 12.63132125 0.29296875 8.50390625 C-1.00850389 4.97695473 -1.20131853 3.49474481 0 0 Z " fill="#F7F1EF" transform="translate(318,216)"/>
<path d="M0 0 C5.88924173 2.7342908 8.68872633 6.49854641 11.578125 12.27734375 C11.578125 16.23734375 11.578125 20.19734375 11.578125 24.27734375 C1.018125 24.27734375 -9.541875 24.27734375 -20.421875 24.27734375 C-18.68712348 31.50166832 -18.68712348 31.50166832 -13.421875 35.27734375 C-9.81817622 35.79739821 -9.81817622 35.79739821 -5.984375 35.58984375 C-4.70691406 35.56535156 -3.42945313 35.54085937 -2.11328125 35.515625 C1.53973833 35.35730134 1.53973833 35.35730134 4.92578125 34.6328125 C5.80105469 34.51550781 6.67632812 34.39820313 7.578125 34.27734375 C9.578125 36.27734375 9.578125 36.27734375 9.578125 40.27734375 C1.09836035 43.72673954 -7.934424 44.96755852 -16.859375 42.21484375 C-21.91986389 39.91947432 -25.0992189 36.05741713 -27.45703125 31.1015625 C-29.98514962 24.29328094 -30.50734737 18.47772081 -27.859375 11.65234375 C-22.5452687 0.70263718 -11.56171962 -3.44986795 0 0 Z " fill="#F8F7F5" transform="translate(301.421875,216.72265625)"/>
<path d="M0 0 C1.21236328 0.02707031 1.21236328 0.02707031 2.44921875 0.0546875 C3.37154297 0.08949219 3.37154297 0.08949219 4.3125 0.125 C4.8075 1.115 4.8075 1.115 5.3125 2.125 C4.29965827 4.56177805 3.23143773 6.88961208 2.0625 9.25 C-0.85546904 15.24478695 -0.85546904 15.24478695 -3.3125 21.4375 C-4.39377931 24.33729451 -5.54781554 26.90938005 -6.953125 29.6484375 C-10.22123455 36.12133032 -13.15986827 42.73272647 -16.11328125 49.35351562 C-16.53222656 50.28486328 -16.95117188 51.21621094 -17.3828125 52.17578125 C-17.9399292 53.42355347 -17.9399292 53.42355347 -18.50830078 54.6965332 C-21.93192379 61.7472119 -21.93192379 61.7472119 -24.6875 63.125 C-26.39452735 63.19496014 -28.10418003 63.20940154 -29.8125 63.1875 C-30.72257813 63.17847656 -31.63265625 63.16945313 -32.5703125 63.16015625 C-33.26898438 63.14855469 -33.96765625 63.13695312 -34.6875 63.125 C-34.00372391 57.47833294 -31.09744395 52.90740675 -28.39453125 48.0078125 C-26.23336017 43.94665263 -26.23336017 43.94665263 -25.75390625 39.44921875 C-26.84274179 36.73851939 -28.17527878 34.39823458 -29.75 31.9375 C-32.6875 27.32735294 -32.6875 27.32735294 -32.6875 25.125 C-30.56256859 25.09806425 -28.43754088 25.07863372 -26.3125 25.0625 C-25.12914062 25.05089844 -23.94578125 25.03929687 -22.7265625 25.02734375 C-19.6875 25.125 -19.6875 25.125 -17.6875 26.125 C-17.5946875 24.9803125 -17.5946875 24.9803125 -17.5 23.8125 C-15.55800824 14.99884509 -10.49847894 -0.30430374 0 0 Z " fill="#1E1E1E" transform="translate(187.6875,213.875)"/>
<path d="M0 0 C28.9106561 -0.04666023 57.82130659 -0.08195946 86.73199272 -0.10362434 C89.40091835 -0.1056774 92.06984395 -0.10774676 94.73876953 -0.10986328 C95.40216139 -0.1103879 96.06555325 -0.11091252 96.74904789 -0.11145304 C107.50154158 -0.1201642 118.25401395 -0.13593807 129.00649498 -0.15430559 C140.03316457 -0.1729849 151.05982237 -0.18396276 162.08650696 -0.18817699 C168.2827076 -0.19079095 174.47885984 -0.19696107 180.67504501 -0.21146011 C186.50093619 -0.22498289 192.32675881 -0.22923345 198.15266418 -0.22621536 C200.2965291 -0.22676791 202.44039619 -0.2307768 204.58424759 -0.23841095 C207.50008822 -0.24828926 210.41566637 -0.24599508 213.33151245 -0.24050903 C214.61845971 -0.24924756 214.61845971 -0.24924756 215.9314059 -0.25816262 C221.77175758 -0.22824242 221.77175758 -0.22824242 224 2 C221.36878999 4.63121001 219.48649893 4.2398976 215.90523279 4.25816262 C214.61244911 4.24942409 214.61244911 4.24942409 213.29354858 4.24050903 C212.38120756 4.24221788 211.46886653 4.24392673 210.52887881 4.24568737 C207.45325618 4.2489975 204.37784882 4.23795357 201.30224609 4.22705078 C199.10493474 4.226487 196.90762302 4.22680259 194.71031189 4.22793579 C188.72918338 4.22851158 182.74813446 4.21672074 176.76702452 4.20278788 C170.52230955 4.19031813 164.27759293 4.18911299 158.03286743 4.18673706 C147.54631256 4.18121937 137.05978241 4.16871168 126.57324219 4.15087891 C115.77083483 4.13252806 104.96843542 4.11836767 94.16601562 4.10986328 C93.50044106 4.10933783 92.83486649 4.10881239 92.149123 4.10827102 C88.81021643 4.10566099 85.4713098 4.10313807 82.13240314 4.10064721 C54.42158166 4.07972021 26.71079289 4.04452284 -1 4 C-0.67 2.68 -0.34 1.36 0 0 Z " fill="#BD201A" transform="translate(211,279)"/>
<path d="M0 0 C0.11580443 8.03189067 0.20466834 16.06343316 0.25906086 24.09595203 C0.28516566 27.82574237 0.32057743 31.554962 0.37719727 35.28442383 C0.4314892 38.88303426 0.46141389 42.48109552 0.47438622 46.08008385 C0.48363151 47.45369809 0.50168603 48.82728194 0.52865028 50.20066261 C0.564891 52.12281655 0.56704194 54.04552211 0.56762695 55.96801758 C0.57873001 57.06277908 0.58983307 58.15754059 0.60127258 59.28547668 C0 62 0 62 -2.26594543 63.86528015 C-6.13485969 65.47100297 -8.84662904 65.21118835 -13 65 C-13.09279724 57.39383511 -13.1638141 49.78772913 -13.20724869 42.18112659 C-13.22809843 38.64878618 -13.25636679 35.11683387 -13.30175781 31.5847168 C-13.35364825 27.52128433 -13.37296666 23.45825772 -13.390625 19.39453125 C-13.42159271 17.49741142 -13.42159271 17.49741142 -13.45318604 15.56196594 C-13.45348816 14.38111923 -13.45379028 13.20027252 -13.45410156 11.98364258 C-13.46298401 10.94661697 -13.47186646 9.90959137 -13.48101807 8.84114075 C-12.87085947 5.23722946 -11.54491516 3.57957277 -9 1 C-5.8035914 -0.06546953 -3.34252724 -0.07427838 0 0 Z " fill="#454545" transform="translate(119,197)"/>
<path d="M0 0 C1.98 0 3.96 0 6 0 C6.66 1.65 7.32 3.3 8 5 C8.43828125 4.6390625 8.8765625 4.278125 9.328125 3.90625 C14.48824142 0.13055506 18.78031655 -0.83669016 25.15625 -0.546875 C29.62822745 0.31312066 32.39807193 2.29641993 35 6 C39.08270178 12.84283819 38.40771141 20.03944024 38.3125 27.8125 C38.31460699 29.16080957 38.31785246 30.50911788 38.32226562 31.85742188 C38.26715163 41.73284837 38.26715163 41.73284837 36 44 C33.375 44.125 33.375 44.125 31 44 C30.98018066 43.1529248 30.96036133 42.30584961 30.93994141 41.43310547 C30.86150405 38.26830998 30.77479951 35.1038758 30.68261719 31.93945312 C30.64450798 30.57398079 30.60962464 29.20841423 30.578125 27.84277344 C30.53208122 25.87152393 30.47318951 23.90058796 30.4140625 21.9296875 C30.3826416 20.74616699 30.3512207 19.56264648 30.31884766 18.34326172 C29.99328142 14.92955268 29.31335094 12.16312439 28 9 C26.1840383 8.01690237 26.1840383 8.01690237 24 8 C23.21882813 7.90976563 22.43765625 7.81953125 21.6328125 7.7265625 C20.80523437 7.69304687 19.97765625 7.65953125 19.125 7.625 C18.30257812 7.57601562 17.48015625 7.52703125 16.6328125 7.4765625 C13.67922387 8.06377448 11.46584249 8.90597454 9.20898438 10.94482422 C6.28580513 15.91399281 7.15425069 22.61456771 7.1875 28.25 C7.17333694 30.34613362 7.1510056 32.44200322 7.12532043 34.5380249 C7.10633598 36.4292328 7.10773393 38.32061237 7.11010742 40.21191406 C7 43 7 43 6 44 C4.02 44 2.04 44 0 44 C0 29.48 0 14.96 0 0 Z " fill="#F7F4F2" transform="translate(226,216)"/>
<path d="M0 0 C1.03543945 -0.01160156 1.03543945 -0.01160156 2.09179688 -0.0234375 C6.45670018 -0.0068881 10.00765498 0.65090619 14.0625 2.25 C14.0625 3.9 14.0625 5.55 14.0625 7.25 C10.21673305 8.6344761 7.03748196 7.84624729 3.0625 7.25 C-1.30255234 6.95627685 -5.15985555 6.73157037 -8.9375 9.25 C-9.35530879 11.62305578 -9.35530879 11.62305578 -8.9375 14.25 C-6.085371 16.73411235 -3.24185893 17.4616252 0.375 18.1875 C6.56469375 19.45638722 11.32049647 21.33804491 15.625 26.0625 C17.43597255 30.07813479 17.28620487 32.0435145 16.0625 36.25 C13.90717947 39.8974655 11.4544961 42.22269196 7.4453125 43.75 C-0.8792208 45.49678732 -9.88480635 44.87945099 -17.9375 42.25 C-17.980221 40.58388095 -17.97813832 38.91617115 -17.9375 37.25 C-16.9375 36.25 -16.9375 36.25 -14.85205078 36.15234375 C-13.95470215 36.16394531 -13.05735352 36.17554688 -12.1328125 36.1875 C-11.15699219 36.19523437 -10.18117188 36.20296875 -9.17578125 36.2109375 C-7.10807168 36.23688116 -5.04036334 36.26292208 -2.97265625 36.2890625 C-1.50505859 36.30066406 -1.50505859 36.30066406 -0.0078125 36.3125 C0.89179199 36.32410156 1.79139648 36.33570313 2.71826172 36.34765625 C5.21811146 36.3517227 5.21811146 36.3517227 8.0625 35.25 C8.0625 32.61 8.0625 29.97 8.0625 27.25 C7.37285156 27.14042969 6.68320312 27.03085938 5.97265625 26.91796875 C-11.16027228 24.02722772 -11.16027228 24.02722772 -16.9375 18.25 C-18.15512731 14.59711807 -18.32825851 12.09245864 -17.9375 8.25 C-13.12536128 0.96304708 -8.35990666 -0.09314659 0 0 Z " fill="#F4EEED" transform="translate(402.9375,215.75)"/>
<path d="M0 0 C0.33 0 0.66 0 1 0 C1 3.63 1 7.26 1 11 C1.66 11 2.32 11 3 11 C3 16.28 3 21.56 3 27 C-1.25304849 29.12652424 -4.33337793 29.32619205 -8.94140625 29.37890625 C-9.70549301 29.39590073 -10.46957977 29.4128952 -11.25682068 29.43040466 C-13.69196369 29.48341185 -16.12709132 29.523774 -18.5625 29.5625 C-21.001393 29.60648516 -23.44015709 29.65322747 -25.87889099 29.70530701 C-27.39463083 29.73716142 -28.91048415 29.7640832 -30.42640686 29.78553772 C-33.53869718 29.84659788 -36.0256023 30.0085341 -39 31 C-41 29 -41 29 -41.4375 26.5625 C-41 24 -41 24 -39 22.1875 C-32.41778012 19.58203796 -24.87893484 21.21061403 -18 22 C-17.67 20.35 -17.34 18.7 -17 17 C-21.67737852 16.09375791 -26.24733949 15.78573429 -31 15.75 C-31.68578125 15.729375 -32.3715625 15.70875 -33.078125 15.6875 C-38.63897942 15.64505073 -42.77367925 16.85044893 -46.8125 20.75 C-48.4070573 23.77126646 -48.67555801 26.62580333 -49 30 C-51.64 30 -54.28 30 -57 30 C-57 31.98 -57 33.96 -57 36 C-57.66 36 -58.32 36 -59 36 C-58.45484328 28.91296261 -56.39081395 22.67203894 -54 16 C-54.66 15.67 -55.32 15.34 -56 15 C-54.35 14.67 -52.7 14.34 -51 14 C-51 13.34 -51 12.68 -51 12 C-45.06216718 11.13904841 -39.30840815 10.8466058 -33.3125 10.875 C-32.48427734 10.87113281 -31.65605469 10.86726562 -30.80273438 10.86328125 C-26.72016386 10.86981859 -22.99231966 11.05405859 -19 12 C-17.3337447 12.0370279 -15.66598681 12.04759962 -14 12 C-14.66 13.32 -15.32 14.64 -16 16 C-15.34 16 -14.68 16 -14 16 C-14 18.64 -14 21.28 -14 24 C-9.38 24 -4.76 24 0 24 C-0.185625 22.081875 -0.37125 20.16375 -0.5625 18.1875 C-1.05131375 11.99585916 -0.80094401 6.14878552 0 0 Z " fill="#EE4C4C" transform="translate(434,201)"/>
<path d="M0 0 C1.14726563 0.00515625 2.29453125 0.0103125 3.4765625 0.015625 C5.18972656 0.00789062 5.18972656 0.00789062 6.9375 0 C9.95319631 0.25316957 11.6643685 0.50575095 14.1015625 2.265625 C15.23807323 6.20552886 15.33956005 8.55163235 14.0390625 12.453125 C11.17641995 16.60857387 7.85002217 18.68280511 3.1015625 20.265625 C1.03657358 20.34878252 -1.0310164 20.37298378 -3.09765625 20.36328125 C-4.30615234 20.36005859 -5.51464844 20.35683594 -6.75976562 20.35351562 C-8.6537207 20.34094727 -8.6537207 20.34094727 -10.5859375 20.328125 C-12.49729492 20.32135742 -12.49729492 20.32135742 -14.44726562 20.31445312 C-17.59770314 20.30265373 -20.74804699 20.28619097 -23.8984375 20.265625 C-24.26601929 12.79146191 -24.26601929 12.79146191 -22.68774414 10.53369141 C-20.37778186 8.89664077 -18.8999386 8.85466345 -16.08203125 8.7890625 C-15.15326172 8.758125 -14.22449219 8.7271875 -13.26757812 8.6953125 C-12.30013672 8.67726562 -11.33269531 8.65921875 -10.3359375 8.640625 C-8.41786479 8.58971398 -6.49988317 8.53520425 -4.58203125 8.4765625 C-3.73181396 8.45899902 -2.88159668 8.44143555 -2.00561523 8.42333984 C0.15820286 8.39530823 0.15820286 8.39530823 2.1015625 7.265625 C1.7715625 6.275625 1.4415625 5.285625 1.1015625 4.265625 C-1.90691168 3.04042236 -1.90691168 3.04042236 -4.8984375 2.265625 C-2.8984375 0.265625 -2.8984375 0.265625 0 0 Z " fill="#1D1D1D" transform="translate(86.8984375,240.734375)"/>
<path d="M0 0 C2.31 0 4.62 0 7 0 C7.70088156 1.74468372 8.38524009 3.49601161 9.0625 5.25 C9.44535156 6.22453125 9.82820313 7.1990625 10.22265625 8.203125 C11.01113787 11.04007395 11.02437812 12.29409552 10 15 C8.68 15 7.36 15 6 15 C6 14.01 6 13.02 6 12 C6.66 12 7.32 12 8 12 C6.71711243 9.44496043 6.71711243 9.44496043 5 7 C4.01 7 3.02 7 2 7 C1.7525 7.804375 1.505 8.60875 1.25 9.4375 C0 12 0 12 -1.9375 12.6875 C-2.618125 12.790625 -3.29875 12.89375 -4 13 C-4.99 13.66 -5.98 14.32 -7 15 C-4.69 15 -2.38 15 0 15 C0 15.99 0 16.98 0 18 C-3.47688243 20.11096433 -3.47688243 20.11096433 -6.0625 19.5625 C-6.701875 19.376875 -7.34125 19.19125 -8 19 C-8.99 19.33 -9.98 19.66 -11 20 C-25.54478328 21.18250271 -25.54478328 21.18250271 -29.875 17.9375 C-32 15 -32 15 -33 8 C-22.11 8 -11.22 8 0 8 C0 5.36 0 2.72 0 0 Z " fill="#DB0F11" transform="translate(314,233)"/>
<path d="M0 0 C0.40089844 0.46277344 0.80179688 0.92554688 1.21484375 1.40234375 C3.29938932 3.26794361 4.87969606 3.80890339 7.5625 4.5625 C8.44550781 4.81386719 9.32851562 5.06523437 10.23828125 5.32421875 C12.90171195 5.97594932 15.54447952 6.43704131 18.25 6.875 C23.17432644 7.82109106 25.658663 9.23028646 29 13 C29.875 16.3125 29.875 16.3125 30 19 C29.30777344 18.51015625 28.61554688 18.0203125 27.90234375 17.515625 C24.4970789 15.73737094 22.37828913 15.66011097 18.5625 15.75 C17.47066406 15.76546875 16.37882812 15.7809375 15.25390625 15.796875 C12.00457049 15.93303849 12.00457049 15.93303849 8.87109375 16.5859375 C3.82445301 17.31375235 -0.74858867 15.55158613 -4.91015625 12.68359375 C-6.32208433 11.51199386 -7.66897927 10.26276325 -9 9 C-8.34 7.68 -7.68 6.36 -7 5 C-7 5.66 -7 6.32 -7 7 C-6.38125 6.505 -5.7625 6.01 -5.125 5.5 C-3 4 -3 4 -1 4 C-0.67 2.68 -0.34 1.36 0 0 Z " fill="#4E4E4E" transform="translate(72,226)"/>
<path d="M0 0 C0.33 0 0.66 0 1 0 C1 3.96 1 7.92 1 12 C-9.56 12 -20.12 12 -31 12 C-29.26524848 19.22432457 -29.26524848 19.22432457 -24 23 C-20.39630122 23.52005446 -20.39630122 23.52005446 -16.5625 23.3125 C-15.28503906 23.28800781 -14.00757813 23.26351562 -12.69140625 23.23828125 C-9.03838667 23.07995759 -9.03838667 23.07995759 -5.65234375 22.35546875 C-4.77707031 22.23816406 -3.90179688 22.12085938 -3 22 C-1 24 -1 24 -1 28 C-9.47976465 31.44939579 -18.512549 32.69021477 -27.4375 29.9375 C-31.64201212 28.06684842 -34.59188138 24.87465452 -37 21 C-37.66015625 18.77734375 -37.66015625 18.77734375 -38 17 C-36.35 16.67 -34.7 16.34 -33 16 C-33 14.35 -33 12.7 -33 11 C-22.11 11 -11.22 11 0 11 C0 7.37 0 3.74 0 0 Z " fill="#F7F6F5" transform="translate(312,229)"/>
<path d="M0 0 C0.81855469 0.0309375 1.63710937 0.061875 2.48046875 0.09375 C5.08746857 0.54790072 6.6482576 0.9585934 8.8125 2.5 C11.50917674 6.96894323 12.174315 10.24326979 12.10546875 15.4296875 C12.09580078 16.71875 12.08613281 18.0078125 12.07617188 19.3359375 C12.05111188 20.68229786 12.02571712 22.02865203 12 23.375 C11.98493504 24.74477705 11.97124982 26.11457002 11.95898438 27.484375 C11.92371379 30.82332358 11.87441896 34.16145675 11.8125 37.5 C11.4825 37.5 11.1525 37.5 10.8125 37.5 C10.8125 29.58 10.8125 21.66 10.8125 13.5 C3.5525 13.5 -3.7075 13.5 -11.1875 13.5 C-11.1875 21.09 -11.1875 28.68 -11.1875 36.5 C-11.5175 36.5 -11.8475 36.5 -12.1875 36.5 C-12.36141101 32.33760235 -12.48795376 28.17716207 -12.57202148 24.01220703 C-12.6070835 22.59776962 -12.65475128 21.18358342 -12.71557617 19.77001953 C-13.20293568 8.14710962 -13.20293568 8.14710962 -10.78051758 4.21777344 C-7.52808073 1.2345678 -4.49462274 -0.28582657 0 0 Z " fill="#ED595B" transform="translate(245.1875,222.5)"/>
<path d="M0 0 C1.21236328 0.02707031 1.21236328 0.02707031 2.44921875 0.0546875 C3.37154297 0.08949219 3.37154297 0.08949219 4.3125 0.125 C4.6425 0.785 4.9725 1.445 5.3125 2.125 C4.29968346 4.56171744 3.23140119 6.88965841 2.0625 9.25 C-0.45646585 14.47182058 -2.78474904 19.64060018 -4.6875 25.125 C-8.9775 25.125 -13.2675 25.125 -17.6875 25.125 C-16.04042546 16.88962729 -12.20151049 9.19694976 -7.6875 2.125 C-4.48369983 -0.01086678 -3.66810033 -0.10632175 0 0 Z " fill="#404040" transform="translate(187.6875,213.875)"/>
<path d="M0 0 C4.94471549 -0.96186829 9.09535269 -1.27947321 14 0 C18.0552772 3.58121996 20.60297964 8.53573667 23.07714844 13.2824707 C24.10417195 15.25896778 24.10417195 15.25896778 26 18 C26 18.99 26 19.98 26 21 C24.10617836 21.13592021 22.20950296 21.2324094 20.3125 21.3125 C19.25675781 21.37050781 18.20101562 21.42851562 17.11328125 21.48828125 C12.88690972 20.82542499 11.69259995 19.27832787 9 16 C7.29725789 13.6613875 5.72568661 11.26182544 4.1875 8.8125 C3.78080078 8.18408203 3.37410156 7.55566406 2.95507812 6.90820312 C0 2.26450893 0 2.26450893 0 0 Z " fill="#1F1F1F" transform="translate(123,240)"/>
<path d="M0 0 C1.79133978 -0.05391993 3.58313899 -0.09275571 5.375 -0.125 C6.37273437 -0.14820313 7.37046875 -0.17140625 8.3984375 -0.1953125 C11 0 11 0 13 2 C13 1.34 13 0.68 13 0 C13.99 0.33 14.98 0.66 16 1 C16 2.32 16 3.64 16 5 C18.97 5.495 18.97 5.495 22 6 C22.0928125 5.071875 22.0928125 5.071875 22.1875 4.125 C23 2 23 2 25.1875 0.75 C28.31555674 -0.08414846 30.77906276 -0.35788192 34 0 C36 3 36 3 35.625 5.6875 C35.41875 6.450625 35.2125 7.21375 35 8 C34.505 6.515 34.505 6.515 34 5 C31.69 5 29.38 5 27 5 C27.75909448 10.40249158 29.3949512 15.18615932 31.2578125 20.29296875 C32 23 32 23 31 26 C30.505 23.525 30.505 23.525 30 21 C27.69 21 25.38 21 23 21 C23 23.64 23 26.28 23 29 C22.67 29 22.34 29 22 29 C21.98582031 28.2265625 21.97164063 27.453125 21.95703125 26.65625 C21.63827315 19.69526234 21.00790172 14.14425548 16 9 C11.04838203 5.37092957 6.02196067 4.43014005 0 4 C0 2.68 0 1.36 0 0 Z " fill="#ED5254" transform="translate(291,212)"/>
<path d="M0 0 C3.0625 2.125 3.0625 2.125 5 5 C5.33 7.31 5.66 9.62 6 12 C-2.58 12 -11.16 12 -20 12 C-18.8 4.8 -18.8 4.8 -15 1 C-10.42802532 -1.95833656 -5.08933717 -1.27860195 0 0 Z " fill="#ED5A5C" transform="translate(300,223)"/>
<path d="M0 0 C0.33 0 0.66 0 1 0 C1 5.61 1 11.22 1 17 C1.66 17 2.32 17 3 17 C3 23.6 3 30.2 3 37 C5.31 37 7.62 37 10 37 C12.4375 37.5 12.4375 37.5 14 38 C13.99476318 37.43490723 13.98952637 36.86981445 13.98413086 36.28759766 C13.96337578 33.7334097 13.9503446 31.17923947 13.9375 28.625 C13.92912109 27.73554688 13.92074219 26.84609375 13.91210938 25.9296875 C13.90888672 25.07890625 13.90566406 24.228125 13.90234375 23.3515625 C13.89710693 22.56604004 13.89187012 21.78051758 13.88647461 20.97119141 C14 19 14 19 15 17 C16.32 17 17.64 17 19 17 C18.814375 17.639375 18.62875 18.27875 18.4375 18.9375 C18.2209375 19.9584375 18.2209375 19.9584375 18 21 C18.33 21.33 18.66 21.66 19 22 C19.08669432 23.4887186 19.10703494 24.981445 19.09765625 26.47265625 C19.09443359 27.37177734 19.09121094 28.27089844 19.08789062 29.19726562 C19.07951172 30.14279297 19.07113281 31.08832031 19.0625 32.0625 C19.05798828 33.01189453 19.05347656 33.96128906 19.04882812 34.93945312 C19.03700128 37.29299531 19.01906521 39.64650532 19 42 C9.595 42.495 9.595 42.495 0 43 C0 28.81 0 14.62 0 0 Z " fill="#EE5D5E" transform="translate(207,195)"/>
<path d="M0 0 C3.41182644 1.65210891 5.93722783 3.44288663 8.54296875 6.20703125 C8.21296875 6.86703125 7.88296875 7.52703125 7.54296875 8.20703125 C6.22296875 8.20703125 4.90296875 8.20703125 3.54296875 8.20703125 C3.21296875 9.19703125 2.88296875 10.18703125 2.54296875 11.20703125 C2.08921875 10.56765625 1.63546875 9.92828125 1.16796875 9.26953125 C-3.37333994 5.70136013 -8.86140921 6.04480487 -14.45703125 6.39453125 C-16.60722645 7.04229637 -16.60722645 7.04229637 -17.64453125 9.08203125 C-17.91265625 9.78328125 -18.18078125 10.48453125 -18.45703125 11.20703125 C-19.44703125 12.69203125 -19.44703125 12.69203125 -20.45703125 14.20703125 C-21.11703125 14.20703125 -21.77703125 14.20703125 -22.45703125 14.20703125 C-22.45703125 12.22703125 -22.45703125 10.24703125 -22.45703125 8.20703125 C-23.11703125 8.20703125 -23.77703125 8.20703125 -24.45703125 8.20703125 C-24.45703125 9.85703125 -24.45703125 11.50703125 -24.45703125 13.20703125 C-26.43703125 14.19703125 -26.43703125 14.19703125 -28.45703125 15.20703125 C-27.46720146 9.1443238 -25.21248137 6.57990521 -20.52734375 2.6875 C-14.38647886 -1.70379773 -7.24073051 -2.33683354 0 0 Z " fill="#F3F1EF" transform="translate(301.45703125,216.79296875)"/>
<path d="M0 0 C0 6.6 0 13.2 0 20 C-2.40545638 21.20272819 -3.94996953 21.10071472 -6.625 21.0625 C-7.85089844 21.04896484 -7.85089844 21.04896484 -9.1015625 21.03515625 C-9.72804688 21.02355469 -10.35453125 21.01195312 -11 21 C-11.02888514 17.85418577 -11.04675923 14.70840531 -11.0625 11.5625 C-11.07087891 10.66466797 -11.07925781 9.76683594 -11.08789062 8.84179688 C-11.09111328 7.98779297 -11.09433594 7.13378906 -11.09765625 6.25390625 C-11.10551147 5.06776733 -11.10551147 5.06776733 -11.11352539 3.85766602 C-11 2 -11 2 -10 1 C-8.5063392 0.76733361 -7.00421824 0.58744581 -5.5 0.4375 C-4.27796875 0.31181641 -4.27796875 0.31181641 -3.03125 0.18359375 C-1 0 -1 0 0 0 Z " fill="#1A1A1A" transform="translate(118,240)"/>
<path d="M0 0 C2 1 2 1 2.859375 3.2734375 C3.15328125 4.29695312 3.4471875 5.32046875 3.75 6.375 C4.26046875 8.10943359 4.26046875 8.10943359 4.78125 9.87890625 C4.97074219 10.52617676 5.16023438 11.17344727 5.35546875 11.84033203 C6.60106983 16.01403927 7.93187191 20.16125243 9.25 24.3125 C9.7761296 25.97523259 10.30217826 27.63799081 10.828125 29.30078125 C11.40820312 31.13189453 11.40820312 31.13189453 12 33 C10.35 33 8.7 33 7 33 C7.66 31.35 8.32 29.7 9 28 C8.34 28 7.68 28 7 28 C6.67 28.66 6.34 29.32 6 30 C5.87625 29.195625 5.7525 28.39125 5.625 27.5625 C5.41875 26.716875 5.2125 25.87125 5 25 C4.34 24.67 3.68 24.34 3 24 C3.33 23.01 3.66 22.02 4 21 C4.66 21 5.32 21 6 21 C6 20.01 6 19.02 6 18 C4.02 17.67 2.04 17.34 0 17 C-0.66 19.97 -1.32 22.94 -2 26 C-2.66 26 -3.32 26 -4 26 C-4 25.34 -4 24.68 -4 24 C-4.66 24 -5.32 24 -6 24 C-6 24.99 -6 25.98 -6 27 C-5.34 27 -4.68 27 -4 27 C-4 27.66 -4 28.32 -4 29 C-5.32 29 -6.64 29 -8 29 C-8.33 30.32 -8.66 31.64 -9 33 C-9.99 33 -10.98 33 -12 33 C-11.55164795 32.31139893 -11.1032959 31.62279785 -10.64135742 30.91333008 C-8.87916724 27.78552769 -7.81654473 24.80903327 -6.73828125 21.38671875 C-6.34189453 20.13955078 -5.94550781 18.89238281 -5.53710938 17.60742188 C-5.12876706 16.30082474 -4.72056568 14.99418356 -4.3125 13.6875 C-3.8931644 12.36114263 -3.4732482 11.03496867 -3.05273438 9.70898438 C-2.02943382 6.47441366 -1.01208309 3.23809464 0 0 Z " fill="#D91416" transform="translate(348,226)"/>
<path d="M0 0 C0.94101562 0.00322266 1.88203125 0.00644531 2.8515625 0.00976562 C3.83640625 0.01814453 4.82125 0.02652344 5.8359375 0.03515625 C6.82851563 0.03966797 7.82109375 0.04417969 8.84375 0.04882812 C11.2995391 0.0606348 13.75520854 0.07710225 16.2109375 0.09765625 C16.3553125 1.19078125 16.4996875 2.28390625 16.6484375 3.41015625 C17.10221538 7.60866307 17.10221538 7.60866307 19.2109375 11.09765625 C18.7734375 13.16015625 18.7734375 13.16015625 18.2109375 15.09765625 C18.8709375 15.09765625 19.5309375 15.09765625 20.2109375 15.09765625 C20.4609375 18.34765625 20.4609375 18.34765625 20.2109375 22.09765625 C18.2109375 24.34765625 18.2109375 24.34765625 16.2109375 26.09765625 C16.2109375 27.08765625 16.2109375 28.07765625 16.2109375 29.09765625 C14.8909375 28.10765625 13.5709375 27.11765625 12.2109375 26.09765625 C13.231875 24.82921875 13.231875 24.82921875 14.2734375 23.53515625 C16.49098536 20.23788277 16.49098536 20.23788277 16.2734375 16.53515625 C14.97648743 12.3391413 13.6918956 10.76392203 10.2109375 8.09765625 C6.22912885 6.13227634 2.08187644 5.03891443 -2.2265625 4.03515625 C-3.4021875 3.72578125 -4.5778125 3.41640625 -5.7890625 3.09765625 C-6.1190625 2.43765625 -6.4490625 1.77765625 -6.7890625 1.09765625 C-4.33631109 -0.12871945 -2.7384844 -0.01649689 0 0 Z " fill="#E50E10" transform="translate(402.7890625,229.90234375)"/>
<path d="M0 0 C0.33 0 0.66 0 1 0 C0.67 2.97 0.34 5.94 0 9 C-1.423125 8.9071875 -1.423125 8.9071875 -2.875 8.8125 C-4.421875 8.9053125 -4.421875 8.9053125 -6 9 C-6.99 10.485 -6.99 10.485 -8 12 C-10.49609375 12.4765625 -10.49609375 12.4765625 -13.4375 12.625 C-16.59657227 12.80167248 -18.98296253 12.99432084 -22 14 C-24 12 -24 12 -24.4375 9.5625 C-24 7 -24 7 -22 5.1875 C-15.41778012 2.58203796 -7.87893484 4.21061403 -1 5 C-0.67 3.35 -0.34 1.7 0 0 Z " fill="#ED5E5F" transform="translate(417,218)"/>
<path d="M0 0 C0.33 0 0.66 0 1 0 C1 3.96 1 7.92 1 12 C-9.56 12 -20.12 12 -31 12 C-29.45674326 18.39172306 -29.45674326 18.39172306 -26 22 C-24.70769231 26.41538462 -24.70769231 26.41538462 -26 29 C-25.01 29.33 -24.02 29.66 -23 30 C-28.11173326 29.75064716 -30.85686915 28.03846698 -34.51953125 24.69921875 C-36.5650822 22.3514228 -37.35369212 20.01610342 -38 17 C-36.35 16.67 -34.7 16.34 -33 16 C-33 14.35 -33 12.7 -33 11 C-22.11 11 -11.22 11 0 11 C0 7.37 0 3.74 0 0 Z " fill="#F5DDDB" transform="translate(312,229)"/>
<path d="M0 0 C1.85546875 1.53125 1.85546875 1.53125 3 3 C2.34 3 1.68 3 1 3 C1.556875 4.36125 1.556875 4.36125 2.125 5.75 C3 9 3 9 2.125 11.375 C1.75375 11.91125 1.3825 12.4475 1 13 C0.67 11.68 0.34 10.36 0 9 C-5.69631359 7.36872313 -11.72581663 6.90839198 -17.125 9.5 C-17.74375 9.995 -18.3625 10.49 -19 11 C-19.33 9.02 -19.66 7.04 -20 5 C-13.87009685 -0.04815553 -7.87096433 -1.39928255 0 0 Z " fill="#F3EBEA" transform="translate(254,216)"/>
<path d="M0 0 C0.99 0 1.98 0 3 0 C3.66 2.64 4.32 5.28 5 8 C6.32 8.33 7.64 8.66 9 9 C9 8.34 9 7.68 9 7 C9.495 6.525625 9.99 6.05125 10.5 5.5625 C12.34626591 4.00030058 12.34626591 4.00030058 12 1 C12.99 1 13.98 1 15 1 C15.33 1.99 15.66 2.98 16 4 C15.55011719 4.38800781 15.10023438 4.77601563 14.63671875 5.17578125 C12.6639014 7.37460154 11.85108103 9.42988829 10.8125 12.1875 C10.46832031 13.08855469 10.12414062 13.98960937 9.76953125 14.91796875 C9.51558594 15.60503906 9.26164062 16.29210937 9 17 C6.36 17 3.72 17 1 17 C0.731875 15.824375 0.46375 14.64875 0.1875 13.4375 C-0.81447119 9.39357312 -2.2659924 5.7832893 -4 2 C-2.68 2 -1.36 2 0 2 C0 1.34 0 0.68 0 0 Z " fill="#EC5A5C" transform="translate(263,218)"/>
<path d="M0 0 C2.5419589 -0.05434116 5.08273682 -0.0938339 7.625 -0.125 C8.33785156 -0.14175781 9.05070312 -0.15851563 9.78515625 -0.17578125 C14.2612164 -0.21684602 17.77949278 0.30913433 22 2 C22 3.65 22 5.3 22 7 C17.36428856 8.38512824 13.18533194 7.74864702 8.4375 7.25 C7.14295898 7.13785156 7.14295898 7.13785156 5.82226562 7.0234375 C4.57799805 6.89582031 4.57799805 6.89582031 3.30859375 6.765625 C2.55376709 6.69118164 1.79894043 6.61673828 1.02124023 6.54003906 C-1.40237103 5.89249369 -2.39848043 4.88967237 -4 3 C-3.01 3 -2.02 3 -1 3 C-0.67 2.01 -0.34 1.02 0 0 Z " fill="#F5F1EF" transform="translate(395,216)"/>
<path d="M0 0 C2.04650391 3.06975587 2.99704565 5.69084152 4.125 9.1875 C4.47820312 10.27417969 4.83140625 11.36085937 5.1953125 12.48046875 C5.46085937 13.31191406 5.72640625 14.14335937 6 15 C6.66 13.02 7.32 11.04 8 9 C8.33 9.99 8.66 10.98 9 12 C9.66 12.33 10.32 12.66 11 13 C10.67 14.65 10.34 16.3 10 18 C10.99 17.67 11.98 17.34 13 17 C12.39373981 21.24382132 11.09595976 24.90404024 8 28 C5.66702567 28.04092937 3.33294775 28.04241723 1 28 C1.32355469 27.43410156 1.64710938 26.86820312 1.98046875 26.28515625 C3.0833148 23.81325993 3.29883934 22.12865086 3.3125 19.4375 C3.32925781 18.67308594 3.34601563 17.90867188 3.36328125 17.12109375 C3.20594076 14.9062037 3.20594076 14.9062037 1.4921875 13.609375 C-0.77618289 11.16286034 -0.29240235 9.0644729 -0.1875 5.8125 C-0.16042969 4.72582031 -0.13335937 3.63914063 -0.10546875 2.51953125 C-0.07066406 1.68808594 -0.03585937 0.85664063 0 0 Z " fill="#F1C5C2" transform="translate(328,232)"/>
<path d="M0 0 C0.66 0 1.32 0 2 0 C2 0.66 2 1.32 2 2 C4.64 2 7.28 2 10 2 C10 5 10 5 8.5625 6.75 C6.48521242 9.74129412 6.34396858 12.42272676 6 16 C3.36 16 0.72 16 -2 16 C-2 17.98 -2 19.96 -2 22 C-2.66 22 -3.32 22 -4 22 C-3.45484328 14.91296261 -1.39081395 8.67203894 1 2 C0.34 1.67 -0.32 1.34 -1 1 C-0.67 0.67 -0.34 0.34 0 0 Z " fill="#ED4D52" transform="translate(379,215)"/>
<path d="M0 0 C2.31 0.33 4.62 0.66 7 1 C7.50744423 2.89385437 8.00564574 4.79018666 8.5 6.6875 C8.7784375 7.74324219 9.056875 8.79898438 9.34375 9.88671875 C9.9391715 12.71142672 10.12786492 15.12836708 10 18 C9.34 18.33 8.68 18.66 8 19 C8 18.01 8 17.02 8 16 C7.34 16 6.68 16 6 16 C6.33 13.69 6.66 11.38 7 9 C6.34 9.66 5.68 10.32 5 11 C5.41015778 15.65624995 5.41015778 15.65624995 7 20 C7.13415472 22.6723621 7.04318541 25.32250488 7 28 C4.94966396 24.92449595 4.36997114 22.87540938 3.5625 19.3125 C2.68490105 15.58607983 1.72599754 12.09411054 0.25 8.5625 C-0.99384784 5.01753366 -1.20059994 3.49265438 0 0 Z " fill="#F7EEEC" transform="translate(318,216)"/>
<path d="M0 0 C3.49999654 3.17907995 4.98593331 6.76351489 7 11 C2.38 11.33 -2.24 11.66 -7 12 C-11 6.5 -11 6.5 -11 2 C-10.34 2 -9.68 2 -9 2 C-9 2.66 -9 3.32 -9 4 C-7.68 3.01 -6.36 2.02 -5 1 C-5 1.66 -5 2.32 -5 3 C-4.34 3 -3.68 3 -3 3 C-2.67 2.34 -2.34 1.68 -2 1 C-1.67 1.33 -1.34 1.66 -1 2 C-0.67 1.34 -0.34 0.68 0 0 Z " fill="#525252" transform="translate(161,228)"/>
<path d="M0 0 C9.24 0 18.48 0 28 0 C26.02 0.99 26.02 0.99 24 2 C24 2.66 24 3.32 24 4 C22.700625 4.061875 21.40125 4.12375 20.0625 4.1875 C14.59206147 4.76059356 10.57120912 7.0714003 6 10 C5.7525 9.030625 5.505 8.06125 5.25 7.0625 C4.63125 5.5465625 4.63125 5.5465625 4 4 C1.96756452 3.03122943 1.96756452 3.03122943 0 3 C0 2.01 0 1.02 0 0 Z " fill="#E94849" transform="translate(227,212)"/>
<path d="M0 0 C3.26959472 3.48455077 3.35467248 6.04489142 3.29296875 10.734375 C3.28330078 12.02988281 3.27363281 13.32539063 3.26367188 14.66015625 C3.23860783 16.02344354 3.21321302 17.38672479 3.1875 18.75 C3.17244518 20.12889184 3.15875817 21.50779935 3.14648438 22.88671875 C3.11111909 26.25820915 3.06175904 29.62890654 3 33 C2.67 33 2.34 33 2 33 C2 25.08 2 17.16 2 9 C-5.26 9 -12.52 9 -20 9 C-20 16.59 -20 24.18 -20 32 C-20.33 32 -20.66 32 -21 32 C-21 22.1 -21 12.2 -21 2 C-20.67 2 -20.34 2 -20 2 C-20 3.65 -20 5.3 -20 7 C-9.73406138 7.5202991 -9.73406138 7.5202991 0 5 C0 3.35 0 1.7 0 0 Z " fill="#EB726F" transform="translate(254,227)"/>
<path d="M0 0 C0 16.5 0 33 0 50 C-0.33 50 -0.66 50 -1 50 C-1 39.11 -1 28.22 -1 17 C-1.66 17 -2.32 17 -3 17 C-3 20.63 -3 24.26 -3 28 C-3.33 28 -3.66 28 -4 28 C-4 20.08 -4 12.16 -4 4 C-8.29 3.67 -12.58 3.34 -17 3 C-17 2.67 -17 2.34 -17 2 C-16.08476562 1.93941406 -15.16953125 1.87882813 -14.2265625 1.81640625 C-12.44378906 1.69072266 -12.44378906 1.69072266 -10.625 1.5625 C-9.44164062 1.48128906 -8.25828125 1.40007812 -7.0390625 1.31640625 C-4.40001916 1.04164724 -2.56464354 0 0 0 Z " fill="#DE1015" transform="translate(437,228)"/>
<path d="M0 0 C0.33 0.66 0.66 1.32 1 2 C1.66 2 2.32 2 3 2 C3.33 2.66 3.66 3.32 4 4 C5.97888961 4.72693904 7.97954558 5.39816251 10 6 C9.38722388 8.96175123 8.74627478 10.38058783 7 13 C4.1796875 13.29296875 4.1796875 13.29296875 0.875 13.1875 C-0.76855469 13.14689453 -0.76855469 13.14689453 -2.4453125 13.10546875 C-3.28835937 13.07066406 -4.13140625 13.03585938 -5 13 C-4.42655667 9.55330375 -3.56138422 6.77811835 -1.9375 3.6875 C-1.57527344 2.99011719 -1.21304688 2.29273438 -0.83984375 1.57421875 C-0.56269531 1.05472656 -0.28554687 0.53523437 0 0 Z M2 4 C3 6 3 6 3 6 Z " fill="#575757" transform="translate(175,226)"/>
<path d="M0 0 C4.23582327 -0.04938628 8.47149465 -0.08571263 12.70751953 -0.10986328 C14.14895547 -0.11992963 15.59037095 -0.1335838 17.03173828 -0.15087891 C19.10193934 -0.17510012 21.17187076 -0.18647641 23.2421875 -0.1953125 C25.11173096 -0.21102295 25.11173096 -0.21102295 27.01904297 -0.22705078 C30 0 30 0 32 2 C30.02 2.33 28.04 2.66 26 3 C26 3.66 26 4.32 26 5 C24.68644531 4.98839844 23.37289063 4.97679687 22.01953125 4.96484375 C20.28385559 4.95546172 18.54817839 4.94636196 16.8125 4.9375 C15.94818359 4.92912109 15.08386719 4.92074219 14.19335938 4.91210938 C9.99713231 4.89603188 6.09063114 4.92440962 2 6 C1.34 4.02 0.68 2.04 0 0 Z " fill="#DE0906" transform="translate(281,241)"/>
<path d="M0 0 C0.33 0 0.66 0 1 0 C1 9.9 1 19.8 1 30 C-0.98 30 -2.96 30 -5 30 C-5 22.74 -5 15.48 -5 8 C-4.67 8 -4.34 8 -4 8 C-4 14.93 -4 21.86 -4 29 C-3.34 29 -2.68 29 -2 29 C-2.00523682 28.36908447 -2.01047363 27.73816895 -2.01586914 27.08813477 C-2.03657826 24.24626653 -2.04964066 21.40441412 -2.0625 18.5625 C-2.07087891 17.56927734 -2.07925781 16.57605469 -2.08789062 15.55273438 C-2.09111328 14.60849609 -2.09433594 13.66425781 -2.09765625 12.69140625 C-2.10289307 11.81685791 -2.10812988 10.94230957 -2.11352539 10.04125977 C-2 8 -2 8 -1 7 C-0.63239269 4.67182036 -0.29758419 2.3381615 0 0 Z " fill="#FCFBF7" transform="translate(232,229)"/>
<path d="M0 0 C0 5.25376902 -0.08919176 10.387195 -0.5 15.625 C-0.5928125 16.81351563 -0.685625 18.00203125 -0.78125 19.2265625 C-0.8534375 20.14179688 -0.925625 21.05703125 -1 22 C-3.68448553 17.97327171 -4.60060004 13.76142738 -5.90234375 9.12890625 C-6.92856845 6.20361806 -7.99291213 4.32730702 -10 2 C-6.3558226 -0.4294516 -4.28758728 -0.16179575 0 0 Z " fill="#EE494A" transform="translate(360,212)"/>
<path d="M0 0 C2.97 0 5.94 0 9 0 C8.34 0.66 7.68 1.32 7 2 C6.83274604 3.97614041 6.83274604 3.97614041 7 6.1875 C7.11297471 10.55114823 6.4020181 13.88157182 5 18 C1.36039816 12.54059724 -0.5073946 6.59612984 0 0 Z " fill="#E20F13" transform="translate(359,232)"/>
<path d="M0 0 C0 0.66 0 1.32 0 2 C-0.66 2.66 -1.32 3.32 -2 4 C-2 4.66 -2 5.32 -2 6 C-3.65 5.34 -5.3 4.68 -7 4 C-7 4.66 -7 5.32 -7 6 C-10.29960141 7.6498007 -13.99127884 7.38258361 -17.625 7.5625 C-18.42679687 7.60568359 -19.22859375 7.64886719 -20.0546875 7.69335938 C-22.0362511 7.79951457 -24.01810271 7.90026855 -26 8 C-26 6.68 -26 5.36 -26 4 C-24.68644531 3.87882812 -23.37289063 3.75765625 -22.01953125 3.6328125 C-20.28381613 3.46393211 -18.54814108 3.29463961 -16.8125 3.125 C-15.94818359 3.04636719 -15.08386719 2.96773438 -14.19335938 2.88671875 C-9.42184271 2.41139525 -4.53428586 0 0 0 Z " fill="#C70A08" transform="translate(415,257)"/>
<path d="M0 0 C2.64 0 5.28 0 8 0 C8.59720137 5.82271337 6.528243 9.9209404 4 15 C0.89809455 10.34714182 -0.33846504 5.58467324 0 0 Z " fill="#E21112" transform="translate(330,233)"/>
<path d="M0 0 C1.32 0 2.64 0 4 0 C3.814375 0.639375 3.62875 1.27875 3.4375 1.9375 C3.293125 2.618125 3.14875 3.29875 3 4 C3.33 4.33 3.66 4.66 4 5 C4.07319621 7.69654854 4.09242537 10.36691458 4.0625 13.0625 C4.05798828 13.82111328 4.05347656 14.57972656 4.04882812 15.36132812 C4.0370068 17.24091871 4.01907078 19.12046899 4 21 C3.34 21 2.68 21 2 21 C2 18.36 2 15.72 2 13 C1.01 13 0.02 13 -1 13 C-1.02696365 11.20841511 -1.04637917 9.41671527 -1.0625 7.625 C-1.07410156 6.62726563 -1.08570313 5.62953125 -1.09765625 4.6015625 C-1 2 -1 2 0 0 Z " fill="#EE4D52" transform="translate(222,212)"/>
<path d="M0 0 C1.89575251 -0.02721176 3.79161979 -0.04649136 5.6875 -0.0625 C6.74324219 -0.07410156 7.79898437 -0.08570313 8.88671875 -0.09765625 C11.73206789 -0.0084044 14.22944313 0.39275466 17 1 C18.6662553 1.0370279 20.33401319 1.04759962 22 1 C21.34 2.32 20.68 3.64 20 5 C20.66 5 21.32 5 22 5 C22 6.65 22 8.3 22 10 C21.34 10 20.68 10 20 10 C20 8.68 20 7.36 20 6 C13.4 5.34 6.8 4.68 0 4 C0 3.67 0 3.34 0 3 C3.3 3 6.6 3 10 3 C10 2.34 10 1.68 10 1 C6.7 1 3.4 1 0 1 C0 0.67 0 0.34 0 0 Z " fill="#E94A4E" transform="translate(398,212)"/>
<path d="M0 0 C1.00023193 0.00523682 2.00046387 0.01047363 3.03100586 0.01586914 C4.1105957 0.0190918 5.19018555 0.02231445 6.30249023 0.02563477 C8.00695312 0.03820312 8.00695312 0.03820312 9.74584961 0.05102539 C11.45611328 0.05779297 11.45611328 0.05779297 13.20092773 0.06469727 C16.02845312 0.07652792 18.85587601 0.09301129 21.68334961 0.11352539 C21.35334961 0.77352539 21.02334961 1.43352539 20.68334961 2.11352539 C17.59350586 2.49243164 17.59350586 2.49243164 13.74584961 2.67602539 C9.04983019 2.7393028 9.04983019 2.7393028 4.68334961 4.11352539 C5.6420047 6.44428468 5.6420047 6.44428468 8.68334961 8.11352539 C4.65342179 7.56039804 0.66312037 6.95771919 -3.31665039 6.11352539 C-3.35937139 4.44740634 -3.35728871 2.77969654 -3.31665039 1.11352539 C-2.31665039 0.11352539 -2.31665039 0.11352539 0 0 Z " fill="#EFD4D1" transform="translate(388.316650390625,251.886474609375)"/>
<path d="M0 0 C4.33333333 0 8.66666667 0 13 0 C13 0.66 13 1.32 13 2 C8.545 2.495 8.545 2.495 4 3 C3.34 6.3 2.68 9.6 2 13 C-2 11 -2 11 -3 8 C-2.44140625 5.95703125 -2.44140625 5.95703125 -1.5625 3.8125 C-1.13130859 2.73935547 -1.13130859 2.73935547 -0.69140625 1.64453125 C-0.46324219 1.10183594 -0.23507812 0.55914062 0 0 Z " fill="#EC4C4C" transform="translate(369,212)"/>
<path d="M0 0 C1.79133978 -0.05391993 3.58313899 -0.09275571 5.375 -0.125 C6.37273437 -0.14820313 7.37046875 -0.17140625 8.3984375 -0.1953125 C11 0 11 0 13 2 C13 1.34 13 0.68 13 0 C13.99 0.33 14.98 0.66 16 1 C16 2.32 16 3.64 16 5 C10.72 4.67 5.44 4.34 0 4 C0 2.68 0 1.36 0 0 Z " fill="#ED484B" transform="translate(291,212)"/>
<path d="M0 0 C5.94 0 11.88 0 18 0 C18 7.59 18 15.18 18 23 C15 21 15 21 14.58349609 19.15234375 C14.56367676 18.42144531 14.54385742 17.69054687 14.5234375 16.9375 C14.4925 16.14085937 14.4615625 15.34421875 14.4296875 14.5234375 C14.41164062 13.69070312 14.39359375 12.85796875 14.375 12 C14.3240417 10.35404698 14.26952226 8.70819922 14.2109375 7.0625 C14.19337402 6.33160156 14.17581055 5.60070312 14.15771484 4.84765625 C14.10652066 2.90510628 14.10652066 2.90510628 13 1 C8.71 1 4.42 1 0 1 C0 0.67 0 0.34 0 0 Z " fill="#D7151B" transform="translate(208,237)"/>
<path d="M0 0 C1.41554787 2.61331914 2.58131312 5.30718129 3.6875 8.0625 C3.95949219 8.73410156 4.23148437 9.40570313 4.51171875 10.09765625 C5 12 5 12 4 15 C3.67 13.35 3.34 11.7 3 10 C0.69 10 -1.62 10 -4 10 C-4 12.64 -4 15.28 -4 18 C-4.33 18 -4.66 18 -5 18 C-5.33 13.71 -5.66 9.42 -6 5 C-4.35 4.67 -2.7 4.34 -1 4 C-0.67 2.68 -0.34 1.36 0 0 Z " fill="#ED6969" transform="translate(318,223)"/>
<path d="M0 0 C0.33 0 0.66 0 1 0 C1 7.59 1 15.18 1 23 C0.01 22.67 -0.98 22.34 -2 22 C-2 15.4 -2 8.8 -2 2 C-1.34 2 -0.68 2 0 2 C0 1.34 0 0.68 0 0 Z " fill="#FDFAFB" transform="translate(262,236)"/>
<path d="M0 0 C0.66 0 1.32 0 2 0 C0.49829538 5.98551772 -0.94226163 11.61255621 -4 17 C-4.66 17 -5.32 17 -6 17 C-5.979375 16.195625 -5.95875 15.39125 -5.9375 14.5625 C-5.70366379 12.06645115 -5.70366379 12.06645115 -7 11 C-6.82364548 8.30917128 -6.38164079 5.67148554 -6 3 C-5.67 4.32 -5.34 5.64 -5 7 C-4.01 7 -3.02 7 -2 7 C-1.855625 6.401875 -1.71125 5.80375 -1.5625 5.1875 C-1.1127561 3.43849596 -0.57107659 1.71322977 0 0 Z M-6 7 C-5 10 -5 10 -5 10 Z " fill="#F4E8E4" transform="translate(344,233)"/>
<path d="M0 0 C2.97 0 5.94 0 9 0 C9.33 0.99 9.66 1.98 10 3 C11.49985609 4.66710346 11.49985609 4.66710346 13 6 C12.01 6.495 12.01 6.495 11 7 C11 6.34 11 5.68 11 5 C9.68 4.67 8.36 4.34 7 4 C6.34 5.32 5.68 6.64 5 8 C2.525 7.01 2.525 7.01 0 6 C0 4.02 0 2.04 0 0 Z " fill="#DF1418" transform="translate(377,231)"/>
<path d="M0 0 C1.125 1.6875 1.125 1.6875 2 4 C1.125 6.75 1.125 6.75 0 9 C0.66 9 1.32 9 2 9 C3.6875 10.4375 3.6875 10.4375 5 13 C4.95795687 16.05338255 4.53265251 18.99660996 4 22 C3.01 21.67 2.02 21.34 1 21 C-2.33995816 4.88389121 -2.33995816 4.88389121 -1.0625 1.5625 C-0.711875 1.046875 -0.36125 0.53125 0 0 Z " fill="#F5FAFA" transform="translate(324,223)"/>
<path d="M0 0 C1.29047599 3.87142798 0.42485574 5.58551976 -0.8125 9.4375 C-1.16957031 10.57058594 -1.52664063 11.70367187 -1.89453125 12.87109375 C-2.78299417 15.38578916 -3.73086696 17.66272785 -5 20 C-5.33 18.35 -5.66 16.7 -6 15 C-5.34 15 -4.68 15 -4 15 C-4 13.02 -4 11.04 -4 9 C-4.99 8.67 -5.98 8.34 -7 8 C-6.67 6.02 -6.34 4.04 -6 2 C-4.02 1.34 -2.04 0.68 0 0 Z " fill="#F9F7F6" transform="translate(379,217)"/>
<path d="M0 0 C2.31 0 4.62 0 7 0 C7.33 3.3 7.66 6.6 8 10 C7.34 10 6.68 10 6 10 C5.34 11.32 4.68 12.64 4 14 C3.67 14 3.34 14 3 14 C2.67 10.37 2.34 6.74 2 3 C1.34 3 0.68 3 0 3 C0 2.01 0 1.02 0 0 Z " fill="#E11113" transform="translate(265,235)"/>
<path d="M0 0 C7.26 0 14.52 0 22 0 C21.67 5.28 21.34 10.56 21 16 C20.67 16 20.34 16 20 16 C20 11.38 20 6.76 20 2 C10.42668957 1.70774979 10.42668957 1.70774979 1 3 C0.67 2.01 0.34 1.02 0 0 Z " fill="#DF0A10" transform="translate(234,236)"/>
<path d="M0 0 C2 2 2 2 4 5 C4.33 5 4.66 5 5 5 C5 6.65 5 8.3 5 10 C3.35 9.67 1.7 9.34 0 9 C-0.33 10.65 -0.66 12.3 -1 14 C-3.40034102 10.39948847 -5.32187705 7.03855465 -4.625 2.625 C-4.41875 2.08875 -4.2125 1.5525 -4 1 C-3.67 1.66 -3.34 2.32 -3 3 C-2.01 2.01 -1.02 1.02 0 0 Z " fill="#F4DFDB" transform="translate(360,242)"/>
<path d="M0 0 C0.66 0.33 1.32 0.66 2 1 C1.67 4.3 1.34 7.6 1 11 C0.34 11 -0.32 11 -1 11 C-1 10.34 -1 9.68 -1 9 C-1.66 9 -2.32 9 -3 9 C-3 9.99 -3 10.98 -3 12 C-2.34 12 -1.68 12 -1 12 C-1 12.66 -1 13.32 -1 14 C-2.32 14 -3.64 14 -5 14 C-5.33 15.32 -5.66 16.64 -6 18 C-6.99 18 -7.98 18 -9 18 C-8.566875 17.38125 -8.13375 16.7625 -7.6875 16.125 C-5.42450944 11.93427674 -4.25333265 7.5777753 -3 3 C-2.01 3 -1.02 3 0 3 C0 2.01 0 1.02 0 0 Z " fill="#DA080B" transform="translate(345,241)"/>
<path d="M0 0 C1.32 0 2.64 0 4 0 C3.67 1.32 3.34 2.64 3 4 C3.66 4 4.32 4 5 4 C5.25 7.25 5.25 7.25 5 11 C3 13.25 3 13.25 1 15 C1 15.99 1 16.98 1 18 C-0.32 17.01 -1.64 16.02 -3 15 C-2.319375 14.195625 -1.63875 13.39125 -0.9375 12.5625 C1.56098202 8.90682631 1.05624628 5.98085246 0.359375 1.7578125 C0.24078125 1.17773438 0.1221875 0.59765625 0 0 Z " fill="#D31515" transform="translate(418,241)"/>
<path d="M0 0 C0.33 0 0.66 0 1 0 C1 3.63 1 7.26 1 11 C1.66 11 2.32 11 3 11 C3 16.28 3 21.56 3 27 C2.34 27 1.68 27 1 27 C0.90912109 26.04287109 0.90912109 26.04287109 0.81640625 25.06640625 C0.73261719 24.24011719 0.64882813 23.41382813 0.5625 22.5625 C0.48128906 21.73878906 0.40007812 20.91507813 0.31640625 20.06640625 C0.21069185 18.01337975 0.21069185 18.01337975 -1 17 C-0.90903444 14.13311752 -0.76232012 11.29699485 -0.5625 8.4375 C-0.51029297 7.63119141 -0.45808594 6.82488281 -0.40429688 5.99414062 C-0.27422624 3.99578262 -0.13770944 1.99784614 0 0 Z " fill="#ED484D" transform="translate(434,201)"/>
<path d="M0 0 C1.2065625 0.0309375 1.2065625 0.0309375 2.4375 0.0625 C2.4375 2.0425 2.4375 4.0225 2.4375 6.0625 C1.4475 6.0625 0.4575 6.0625 -0.5625 6.0625 C-0.5625 8.0425 -0.5625 10.0225 -0.5625 12.0625 C-1.5525 12.3925 -2.5425 12.7225 -3.5625 13.0625 C-3.58936553 11.08340602 -3.60883375 9.10421029 -3.625 7.125 C-3.63660156 6.02285156 -3.64820313 4.92070312 -3.66015625 3.78515625 C-3.52747618 0.086036 -3.52747618 0.086036 0 0 Z " fill="#EC2D30" transform="translate(211.5625,192.9375)"/>
<path d="M0 0 C1.48117801 0.28127421 2.95993249 0.57533732 4.4375 0.875 C5.67306641 1.11863281 5.67306641 1.11863281 6.93359375 1.3671875 C7.61550781 1.57601562 8.29742187 1.78484375 9 2 C10.35439668 4.70879335 10.06501451 7.00933268 10 10 C8.68 10.33 7.36 10.66 6 11 C6 9.35 6 7.7 6 6 C5.34 6 4.68 6 4 6 C4 5.01 4 4.02 4 3 C2.68 2.67 1.36 2.34 0 2 C0 1.34 0 0.68 0 0 Z " fill="#DB1C1F" transform="translate(402,241)"/>
<path d="M0 0 C1.6875 1.9375 1.6875 1.9375 3 4 C5.59855733 4.8042208 5.59855733 4.8042208 8 5 C8.33 5.99 8.66 6.98 9 8 C6.39225124 7.40883026 3.7895666 6.802778 1.1875 6.1875 C0.44951172 6.02185547 -0.28847656 5.85621094 -1.04882812 5.68554688 C-7.77217956 4.07315943 -7.77217956 4.07315943 -10 1 C-6.82245838 -0.58877081 -3.45178742 -0.54201621 0 0 Z " fill="#E22122" transform="translate(406,230)"/>
<path d="M0 0 C2 3 2 3 1.625 5.6875 C1.41875 6.450625 1.2125 7.21375 1 8 C0.67 7.01 0.34 6.02 0 5 C-5.57830016 4.87530901 -5.57830016 4.87530901 -11 6 C-11.33 5.01 -11.66 4.02 -12 3 C-8.23498238 -0.76501762 -5.04929344 -0.4886413 0 0 Z " fill="#EB4144" transform="translate(325,212)"/>
<path d="M0 0 C0.33 0 0.66 0 1 0 C1.22126178 2.45779976 1.42750395 4.91527648 1.625 7.375 C1.68945312 8.07367188 1.75390625 8.77234375 1.8203125 9.4921875 C1.96119739 11.32369111 1.98761659 13.16312748 2 15 C1.34 15.66 0.68 16.32 0 17 C-0.64767793 19.57061311 -0.64767793 19.57061311 -1 22 C-1.33 22 -1.66 22 -2 22 C-2 15.4 -2 8.8 -2 2 C-1.34 2 -0.68 2 0 2 C0 1.34 0 0.68 0 0 Z " fill="#DB0A08" transform="translate(267,236)"/>
<path d="M0 0 C0.93423645 3.01031744 1.04449911 3.86650268 0 7 C1.65 6.67 3.3 6.34 5 6 C5.33 7.65 5.66 9.3 6 11 C3.36 11 0.72 11 -2 11 C-2 12.98 -2 14.96 -2 17 C-2.66 17 -3.32 17 -4 17 C-3.45018084 10.95198929 -2.09570426 5.69398894 0 0 Z " fill="#EF6D6D" transform="translate(379,220)"/>
<path d="M0 0 C3.99500618 1.3697164 6.80009492 3.25722422 10 6 C9.67 6.66 9.34 7.32 9 8 C7.68 8 6.36 8 5 8 C4.67 8.99 4.34 9.98 4 11 C3.4225 10.38125 2.845 9.7625 2.25 9.125 C0.19750179 7.18652947 -1.43366582 6.09985751 -4 5 C-2.35 4.67 -0.7 4.34 1 4 C0.67 2.68 0.34 1.36 0 0 Z " fill="#F3E7E5" transform="translate(300,217)"/>
<path d="M0 0 C0.33 0 0.66 0 1 0 C1 5.61 1 11.22 1 17 C1.66 17 2.32 17 3 17 C2.67 21.29 2.34 25.58 2 30 C1.34 30 0.68 30 0 30 C0 20.1 0 10.2 0 0 Z " fill="#EE4A52" transform="translate(207,195)"/>
<path d="M0 0 C0.33 1.65 0.66 3.3 1 5 C-0.32 5.33 -1.64 5.66 -3 6 C-3 5.01 -3 4.02 -3 3 C-8.61 2.67 -14.22 2.34 -20 2 C-20 1.67 -20 1.34 -20 1 C-18.64455078 0.90912109 -18.64455078 0.90912109 -17.26171875 0.81640625 C-15.49248047 0.69072266 -15.49248047 0.69072266 -13.6875 0.5625 C-11.92986328 0.44068359 -11.92986328 0.44068359 -10.13671875 0.31640625 C-1.71710526 -0.53289474 -1.71710526 -0.53289474 0 0 Z " fill="#EFD6D2" transform="translate(310,252)"/>
<path d="M0 0 C0.25 7.625 0.25 7.625 -2 11 C-3.32 10.67 -4.64 10.34 -6 10 C-6.3125 7.25 -6.3125 7.25 -6 4 C-1.89473684 0 -1.89473684 0 0 0 Z " fill="#F9F7F6" transform="translate(392,222)"/>
<path d="M0 0 C9.17286652 1.33041575 9.17286652 1.33041575 12.625 4.125 C13.07875 4.74375 13.5325 5.3625 14 6 C12.68 6.33 11.36 6.66 10 7 C9.34 6.01 8.68 5.02 8 4 C7.67 4.99 7.34 5.98 7 7 C5.68 6.67 4.36 6.34 3 6 C2.814375 5.071875 2.814375 5.071875 2.625 4.125 C2.12802644 1.80879168 2.12802644 1.80879168 0 0 Z " fill="#DE0F11" transform="translate(390,238)"/>
<path d="M0 0 C5.57060002 1.92828462 8.2497161 3.4994322 11 9 C11.25 11.875 11.25 11.875 11 14 C10.34 13.67 9.68 13.34 9 13 C9 11.68 9 10.36 9 9 C8.01 9 7.02 9 6 9 C6 7.35 6 5.7 6 4 C4.35 4.33 2.7 4.66 1 5 C0.67 3.35 0.34 1.7 0 0 Z " fill="#F0E7E2" transform="translate(409,236)"/>
<path d="M0 0 C0 0.33 0 0.66 0 1 C-1.98 1 -3.96 1 -6 1 C-6.4640625 2.175625 -6.4640625 2.175625 -6.9375 3.375 C-8 6 -8 6 -9 8 C-9.22950319 10.204364 -9.41075933 12.41392173 -9.5625 14.625 C-9.64628906 15.81351563 -9.73007813 17.00203125 -9.81640625 18.2265625 C-9.87699219 19.14179688 -9.93757813 20.05703125 -10 21 C-10.33 21 -10.66 21 -11 21 C-11.08086376 18.06195004 -11.1404283 15.12611925 -11.1875 12.1875 C-11.21263672 11.35412109 -11.23777344 10.52074219 -11.26367188 9.66210938 C-11.27333984 8.85966797 -11.28300781 8.05722656 -11.29296875 7.23046875 C-11.3086792 6.49207764 -11.32438965 5.75368652 -11.34057617 4.99291992 C-10.27243448 -1.25743177 -4.9805421 -0.24494469 0 0 Z " fill="#232323" transform="translate(118,198)"/>
<path d="M0 0 C0.66 0.33 1.32 0.66 2 1 C-4 4 -4 4 -10 7 C-10.33 6.67 -10.66 6.34 -11 6 C-12.51469448 5.76807135 -14.03754562 5.58784762 -15.5625 5.4375 C-16.38878906 5.35371094 -17.21507812 5.26992188 -18.06640625 5.18359375 C-18.70449219 5.12300781 -19.34257812 5.06242187 -20 5 C-16.56094995 2.98050869 -13.3661918 2.46937068 -9.4375 1.9375 C-6.12509817 1.48256172 -3.17362302 1.05787434 0 0 Z " fill="#CC1D1E" transform="translate(308,257)"/>
<path d="M0 0 C0.33 0 0.66 0 1 0 C1.33 3.3 1.66 6.6 2 10 C1.01 10.33 0.02 10.66 -1 11 C-1.66 10.67 -2.32 10.34 -3 10 C-3 7.69 -3 5.38 -3 3 C-2.01 2.67 -1.02 2.34 0 2 C0 1.34 0 0.68 0 0 Z " fill="#F5F6F6" transform="translate(336,248)"/>
<path d="M0 0 C0.99 0.66 1.98 1.32 3 2 C2.60196439 4.88575819 2.20990931 5.82189513 -0.0625 7.75 C-0.701875 8.1625 -1.34125 8.575 -2 9 C-2.33 8.01 -2.66 7.02 -3 6 C-3.66 5.67 -4.32 5.34 -5 5 C-3.35 3.35 -1.7 1.7 0 0 Z " fill="#3C3C3C" transform="translate(136,220)"/>
<path d="M0 0 C2.97 0 5.94 0 9 0 C9 1.65 9 3.3 9 5 C8.01 4.67 7.02 4.34 6 4 C5.01 4.33 4.02 4.66 3 5 C0.8125 4.0625 0.8125 4.0625 -1 3 C-0.67 2.01 -0.34 1.02 0 0 Z " fill="#313131" transform="translate(144,214)"/>
<path d="M0 0 C2.64 0 5.28 0 8 0 C6.68 0.33 5.36 0.66 4 1 C4 1.99 4 2.98 4 4 C4.66 4.33 5.32 4.66 6 5 C2.535 6.485 2.535 6.485 -1 8 C-2 6 -2 6 -1.0625 2.875 C-0.5365625 1.451875 -0.5365625 1.451875 0 0 Z " fill="#F04548" transform="translate(281,212)"/>
<path d="M0 0 C3.96 0 7.92 0 12 0 C12 0.33 12 0.66 12 1 C9.69 1 7.38 1 5 1 C5.33 2.32 5.66 3.64 6 5 C0.46153846 5.36923077 0.46153846 5.36923077 -1.875 3.5 C-2.24625 3.005 -2.6175 2.51 -3 2 C-2.01 2 -1.02 2 0 2 C0 1.34 0 0.68 0 0 Z " fill="#F4FAF9" transform="translate(394,217)"/>
<path d="M0 0 C0.66 0.33 1.32 0.66 2 1 C2.625 4.0625 2.625 4.0625 3 7 C2.01 7.33 1.02 7.66 0 8 C0.33 9.65 0.66 11.3 1 13 C-0.32 12.67 -1.64 12.34 -3 12 C-2.69106068 10.3743193 -2.3777305 8.74947252 -2.0625 7.125 C-1.88847656 6.22007812 -1.71445312 5.31515625 -1.53515625 4.3828125 C-1 2 -1 2 0 0 Z " fill="#E74042" transform="translate(348,226)"/>
<path d="M0 0 C1.98 0.99 3.96 1.98 6 3 C5.67 6.3 5.34 9.6 5 13 C2.94876752 10.94876752 2.35852882 9.72994937 1.375 7.0625 C0.98441406 6.02802734 0.98441406 6.02802734 0.5859375 4.97265625 C0 3 0 3 0 0 Z " fill="#F4E5E0" transform="translate(350,229)"/>
<path d="M0 0 C2.31 0.66 4.62 1.32 7 2 C6.34 2.66 5.68 3.32 5 4 C5.33 4.99 5.66 5.98 6 7 C4.35 7.33 2.7 7.66 1 8 C1 7.34 1 6.68 1 6 C0.01 5.67 -0.98 5.34 -2 5 C-2 4.34 -2 3.68 -2 3 C-1.34 3 -0.68 3 0 3 C0 2.01 0 1.02 0 0 Z " fill="#D01217" transform="translate(282,257)"/>
<path d="M0 0 C4 6 4 6 8 12 C6 12 4 12 2 12 C1.87625 11.195625 1.7525 10.39125 1.625 9.5625 C1.315625 8.2940625 1.315625 8.2940625 1 7 C0.34 6.67 -0.32 6.34 -1 6 C-0.67 4.02 -0.34 2.04 0 0 Z " fill="#D81F22" transform="translate(273,245)"/>
<path d="M0 0 C1.875 0.3125 1.875 0.3125 4 1 C6 4 6 4 5.625 6.1875 C5.41875 6.785625 5.2125 7.38375 5 8 C4.67 7.34 4.34 6.68 4 6 C1.65092125 5.31068656 1.65092125 5.31068656 -1.0625 4.875 C-2.44115234 4.62363281 -2.44115234 4.62363281 -3.84765625 4.3671875 C-4.55792969 4.24601563 -5.26820312 4.12484375 -6 4 C-6 3.67 -6 3.34 -6 3 C-5.195625 2.87625 -4.39125 2.7525 -3.5625 2.625 C-2.716875 2.41875 -1.87125 2.2125 -1 2 C-0.67 1.34 -0.34 0.68 0 0 Z " fill="#616161" transform="translate(96,237)"/>
<path d="M0 0 C2.64 0 5.28 0 8 0 C7.01 0.33 6.02 0.66 5 1 C6.32 1 7.64 1 9 1 C9.99 1 10.98 1 12 1 C12 1.66 12 2.32 12 3 C8.7 3.66 5.4 4.32 2 5 C2.33 3.68 2.66 2.36 3 1 C2.34 1 1.68 1 1 1 C0.67 1.66 0.34 2.32 0 3 C0 2.01 0 1.02 0 0 Z " fill="#C30A0A" transform="translate(255,260)"/>
<path d="M0 0 C1.65 0 3.3 0 5 0 C5 1.98 5 3.96 5 6 C4.34 6 3.68 6 3 6 C2.67 6.66 2.34 7.32 2 8 C0.68 6.68 -0.64 5.36 -2 4 C-1.34 3.67 -0.68 3.34 0 3 C0 2.01 0 1.02 0 0 Z " fill="#EB4B50" transform="translate(256,212)"/>
<path d="M0 0 C-1.1875 2.5 -1.1875 2.5 -3 5 C-5.6875 5.3125 -5.6875 5.3125 -8 5 C-8.33 3.68 -8.66 2.36 -9 1 C-6.04335481 -0.4783226 -3.25770263 -0.06032783 0 0 Z " fill="#EA4947" transform="translate(349,212)"/>
<path d="M0 0 C3.10190545 4.65285818 4.33846504 9.41532676 4 15 C2.015625 13.88671875 2.015625 13.88671875 0 12 C-0.390625 9.08203125 -0.390625 9.08203125 -0.25 5.8125 C-0.21390625 4.72582031 -0.1778125 3.63914063 -0.140625 2.51953125 C-0.09421875 1.68808594 -0.0478125 0.85664063 0 0 Z " fill="#F4D9D5" transform="translate(328,232)"/>
<path d="M0 0 C0.66 0 1.32 0 2 0 C2 1.98 2 3.96 2 6 C2.66 6 3.32 6 4 6 C4 7.98 4 9.96 4 12 C2.68 12 1.36 12 0 12 C0.33 8.7 0.66 5.4 1 2 C0.34 1.67 -0.32 1.34 -1 1 C-0.67 0.67 -0.34 0.34 0 0 Z " fill="#EA5757" transform="translate(379,215)"/>
<path d="M0 0 C2.31 0.33 4.62 0.66 7 1 C5.6875 3.5 5.6875 3.5 4 6 C3.01 6 2.02 6 1 6 C-0.0625 4.125 -0.0625 4.125 -1 2 C-0.67 1.34 -0.34 0.68 0 0 Z " fill="#F04E51" transform="translate(327,219)"/>
<path d="M0 0 C1.47906892 -0.02689216 2.95827483 -0.04634621 4.4375 -0.0625 C5.26121094 -0.07410156 6.08492188 -0.08570313 6.93359375 -0.09765625 C9 0 9 0 10 1 C10.04063832 2.66617115 10.042721 4.33388095 10 6 C7.03 5.505 7.03 5.505 4 5 C4 4.01 4 3.02 4 2 C2.68 1.34 1.36 0.68 0 0 Z " fill="#E52A2D" transform="translate(426,193)"/>
<path d="M0 0 C0.99 0.33 1.98 0.66 3 1 C3.95261487 5.76307437 4.08333357 10.1666528 4 15 C1.32820751 10.22894198 0 5.46088946 0 0 Z " fill="#F0D9D5" transform="translate(325,244)"/>
<path d="M0 0 C0.33 0.66 0.66 1.32 1 2 C1.99 2.33 2.98 2.66 4 3 C3.67 4.65 3.34 6.3 3 8 C2.01 8.33 1.02 8.66 0 9 C-0.87890625 2.84765625 -0.87890625 2.84765625 -1 1 C-0.67 0.67 -0.34 0.34 0 0 Z " fill="#F4FBF9" transform="translate(356,237)"/>
<path d="M0 0 C0.97591583 3.38317487 0.85856655 5.5657338 0 9 C0.66 9 1.32 9 2 9 C2 9.66 2 10.32 2 11 C0.68 11 -0.64 11 -2 11 C-2.33 12.32 -2.66 13.64 -3 15 C-3.99 15 -4.98 15 -6 15 C-5.566875 14.38125 -5.13375 13.7625 -4.6875 13.125 C-2.42450944 8.93427674 -1.25333265 4.5777753 0 0 Z " fill="#D82E30" transform="translate(342,244)"/>
<path d="M0 0 C1.485 0.99 1.485 0.99 3 2 C3 5.86695678 1.58090029 8.5088452 0 12 C-0.33 12 -0.66 12 -1 12 C-1.02698189 10.37509046 -1.04638757 8.75005367 -1.0625 7.125 C-1.07410156 6.22007812 -1.08570313 5.31515625 -1.09765625 4.3828125 C-1 2 -1 2 0 0 Z " fill="#535353" transform="translate(63,221)"/>
<path d="M0 0 C1.11375 0.3403125 1.11375 0.3403125 2.25 0.6875 C2.25 1.6775 2.25 2.6675 2.25 3.6875 C-1.125 4.3125 -1.125 4.3125 -4.75 4.6875 C-5.41 4.0275 -6.07 3.3675 -6.75 2.6875 C-4.29511132 0.41445492 -3.41240272 -0.38777304 0 0 Z " fill="#D50B08" transform="translate(311.75,244.3125)"/>
<path d="M0 0 C0.93619813 3.15506142 1.1057123 5.96586502 1.0625 9.25 C1.05347656 10.14203125 1.04445313 11.0340625 1.03515625 11.953125 C1.02355469 12.62859375 1.01195312 13.3040625 1 14 C0.67 13.01 0.34 12.02 0 11 C-0.66 11 -1.32 11 -2 11 C-2.33 11.66 -2.66 12.32 -3 13 C-2.45144652 8.428721 -1.58255197 4.32564205 0 0 Z " fill="#F4D9D6" transform="translate(368,234)"/>
<path d="M0 0 C0.33 0.66 0.66 1.32 1 2 C2.32 2 3.64 2 5 2 C4.67 4.97 4.34 7.94 4 11 C1.55160412 7.32740617 0 4.45351799 0 0 Z " fill="#DF2A2A" transform="translate(360,239)"/>
<path d="M0 0 C1.37432457 3.81756824 0.67975039 7.07255329 0 11 C-0.66 11 -1.32 11 -2 11 C-2.33 11.66 -2.66 12.32 -3 13 C-2.52060632 8.28596212 -2.03165952 4.33420699 0 0 Z " fill="#F1DBD9" transform="translate(342,223)"/>
<path d="M0 0 C0.99 0.33 1.98 0.66 3 1 C2.67 2.32 2.34 3.64 2 5 C2.99 5.33 3.98 5.66 5 6 C3.35 7.32 1.7 8.64 0 10 C0 6.7 0 3.4 0 0 Z " fill="#F5F5F5" transform="translate(120,225)"/>
<path d="M0 0 C6.41688675 -0.10349817 12.62694402 0.25492456 19 1 C14.93261417 3.71159055 11.77012858 3.40999452 7 3 C4.57295604 2.48718197 2.35488634 1.80166344 0 1 C0 0.67 0 0.34 0 0 Z " fill="#262626" transform="translate(79,214)"/>
<path d="M0 0 C4.29 0 8.58 0 13 0 C10.20986594 2.79013406 7.85920197 2.60077221 4 3 C2.68 3 1.36 3 0 3 C0 2.01 0 1.02 0 0 Z " fill="#ED4448" transform="translate(227,212)"/>
<path d="M0 0 C0.70125 0.268125 1.4025 0.53625 2.125 0.8125 C1.526875 1.10125 0.92875 1.39 0.3125 1.6875 C-2.06827792 2.85992026 -2.06827792 2.85992026 -4.875 4.8125 C-5.865 5.3075 -5.865 5.3075 -6.875 5.8125 C-7.205 6.8025 -7.535 7.7925 -7.875 8.8125 C-8.205 7.4925 -8.535 6.1725 -8.875 4.8125 C-3.58269231 -0.23365385 -3.58269231 -0.23365385 0 0 Z " fill="#EC5F66" transform="translate(242.875,223.1875)"/>
<path d="M0 0 C0.99 0.66 1.98 1.32 3 2 C3 5 3 5 1.125 7 C0.42375 7.66 -0.2775 8.32 -1 9 C-1.66 9.99 -2.32 10.98 -3 12 C-2.49202991 7.6822542 -1.80317221 3.96697886 0 0 Z " fill="#D92F2E" transform="translate(374,240)"/>
<path d="M0 0 C0.66 0 1.32 0 2 0 C2 0.66 2 1.32 2 2 C2.66 2 3.32 2 4 2 C4 3.98 4 5.96 4 8 C2.68 7.67 1.36 7.34 0 7 C0 4.69 0 2.38 0 0 Z " fill="#DF0A0C" transform="translate(375,237)"/>
<path d="M0 0 C0.99 0.99 1.98 1.98 3 3 C1.1875 6 1.1875 6 -1 9 C-1.99 9 -2.98 9 -4 9 C-4 8.34 -4 7.68 -4 7 C-3.505 6.525625 -3.01 6.05125 -2.5 5.5625 C-0.65373409 4.00030058 -0.65373409 4.00030058 -1 1 C-0.67 0.67 -0.34 0.34 0 0 Z " fill="#EB5357" transform="translate(276,218)"/>
<path d="M0 0 C1.32 1.65 2.64 3.3 4 5 C3.67 5.66 3.34 6.32 3 7 C1.35 7 -0.3 7 -2 7 C-1.125 2.25 -1.125 2.25 0 0 Z " fill="#2E2E2E" transform="translate(155,270)"/>
<path d="M0 0 C2.29013653 3.4352048 2.17842973 4.985331 2 9 C2.99 9.33 3.98 9.66 5 10 C5 10.33 5 10.66 5 11 C2.69 11 0.38 11 -2 11 C-1.67 10.484375 -1.34 9.96875 -1 9.4375 C0.32010877 6.21973488 0.13242105 3.4429472 0 0 Z " fill="#EEDFDB" transform="translate(331,249)"/>
<path d="M0 0 C1.80125336 2.70188004 3.00243753 4.93057703 4 8 C3.67 8.99 3.34 9.98 3 11 C2.67 9.68 2.34 8.36 2 7 C1.01 7 0.02 7 -1 7 C-0.67 4.69 -0.34 2.38 0 0 Z " fill="#E23535" transform="translate(351,234)"/>
<path d="M0 0 C0.33 0.66 0.66 1.32 1 2 C3.52733235 2.65555119 3.52733235 2.65555119 6 3 C5.67 4.32 5.34 5.64 5 7 C2.525 6.01 2.525 6.01 0 5 C0 3.35 0 1.7 0 0 Z " fill="#E30A0C" transform="translate(377,232)"/>
<path d="M0 0 C1 3 1 3 1 6 C-1.31 6 -3.62 6 -6 6 C-5.67 4.68 -5.34 3.36 -5 2 C-5 2.99 -5 3.98 -5 5 C-4.34 4.67 -3.68 4.34 -3 4 C-3 3.34 -3 2.68 -3 2 C-2.01 1.34 -1.02 0.68 0 0 Z " fill="#EA6869" transform="translate(286,229)"/>
<path d="M0 0 C1.67542976 0.28604898 3.34385343 0.61781233 5 1 C4.75 2.875 4.75 2.875 4 5 C1.9375 6.25 1.9375 6.25 0 7 C-0.38133299 5.0085944 -0.71325582 3.00720923 -1 1 C-0.67 0.67 -0.34 0.34 0 0 Z " fill="#F5E7E9" transform="translate(235,220)"/>
<path d="M0 0 C1.0625 1.875 1.0625 1.875 2 4 C1.67 4.66 1.34 5.32 1 6 C1.99 6.33 2.98 6.66 4 7 C-1.75 6.25 -1.75 6.25 -4 4 C-2.66666667 2.66666667 -1.33333333 1.33333333 0 0 Z " fill="#F0E6E5" transform="translate(285,252)"/>
<path d="M0 0 C0.66 0 1.32 0 2 0 C2 1.98 2 3.96 2 6 C2.66 6 3.32 6 4 6 C4 6.66 4 7.32 4 8 C2.35 8 0.7 8 -1 8 C-0.67 5.36 -0.34 2.72 0 0 Z " fill="#F6F0EA" transform="translate(258,252)"/>
<path d="M0 0 C1.98 0.495 1.98 0.495 4 1 C3.75 2.875 3.75 2.875 3 5 C0.9375 6.25 0.9375 6.25 -1 7 C-0.67 4.69 -0.34 2.38 0 0 Z " fill="#F4F9F6" transform="translate(366,245)"/>
<path d="M0 0 C0.33 0 0.66 0 1 0 C1 3.3 1 6.6 1 10 C-1.31 9.67 -3.62 9.34 -6 9 C-5.34 8.01 -4.68 7.02 -4 6 C-2.68 6 -1.36 6 0 6 C0 4.02 0 2.04 0 0 Z " fill="#EB5553" transform="translate(434,219)"/>
<path d="M0 0 C1.65 0 3.3 0 5 0 C5.33 0.66 5.66 1.32 6 2 C5.01 2 4.02 2 3 2 C2.67 2.99 2.34 3.98 2 5 C2 4.34 2 3.68 2 3 C1.34 3 0.68 3 0 3 C-0.33 3.99 -0.66 4.98 -1 6 C-1.33 5.34 -1.66 4.68 -2 4 C-1.0625 1.875 -1.0625 1.875 0 0 Z " fill="#F3DED9" transform="translate(373,216)"/>
<path d="M0 0 C-4.75 3.875 -4.75 3.875 -7 5 C-7 3.35 -7 1.7 -7 0 C-3.86650268 -1.04449911 -3.01031744 -0.93423645 0 0 Z " fill="#E8565F" transform="translate(240,217)"/>
<path d="M0 0 C2.29633824 3.44450737 2.54016485 5.93812283 3 10 C1.35 10 -0.3 10 -2 10 C-2 9.01 -2 8.02 -2 7 C-1.01 7 -0.02 7 1 7 C0.67 4.69 0.34 2.38 0 0 Z " fill="#DD2120" transform="translate(322,238)"/>
<path d="M0 0 C0.66 0.33 1.32 0.66 2 1 C1.67 2.65 1.34 4.3 1 6 C0.01 6.33 -0.98 6.66 -2 7 C-2.33 6.01 -2.66 5.02 -3 4 C-1.5625 1.8125 -1.5625 1.8125 0 0 Z " fill="#595959" transform="translate(123,232)"/>
<path d="M0 0 C2 2 2 2 2.3125 4.9375 C2 8 2 8 -1 11 C-0.67 7.37 -0.34 3.74 0 0 Z " fill="#F6ECE6" transform="translate(262,227)"/>
<path d="M0 0 C0.66 0 1.32 0 2 0 C2 3.63 2 7.26 2 11 C-0.14208427 7.7868736 -0.59687808 5.78934603 -1 2 C-0.67 1.34 -0.34 0.68 0 0 Z " fill="#EA6063" transform="translate(357,223)"/>
<path d="M0 0 C4.455 0.99 4.455 0.99 9 2 C8.67 2.66 8.34 3.32 8 4 C5.69 3.67 3.38 3.34 1 3 C0.67 2.01 0.34 1.02 0 0 Z " fill="#DB3331" transform="translate(402,241)"/>
<path d="M0 0 C2.31 1.98 4.62 3.96 7 6 C5.02 6.99 5.02 6.99 3 8 C1.5 6.8125 1.5 6.8125 0 5 C-0.1875 2.3125 -0.1875 2.3125 0 0 Z " fill="#E9E9E9" transform="translate(62,233)"/>
<path d="M0 0 C0.66 0 1.32 0 2 0 C2 0.66 2 1.32 2 2 C3.32 2.33 4.64 2.66 6 3 C5.67 3.66 5.34 4.32 5 5 C2.03 4.505 2.03 4.505 -1 4 C-0.67 2.68 -0.34 1.36 0 0 Z " fill="#474747" transform="translate(180,227)"/>
<path d="M0 0 C0 2.62113708 -0.31292445 4.50935112 -1 7 C-2.32 7.33 -3.64 7.66 -5 8 C-5 6.68 -5 5.36 -5 4 C-2.5 1.75 -2.5 1.75 0 0 Z " fill="#EFFBF9" transform="translate(391,222)"/>
<path d="M0 0 C2.375 -0.1875 2.375 -0.1875 5 0 C7 3 7 3 6.625 5.6875 C6.41875 6.450625 6.2125 7.21375 6 8 C5.67 7.01 5.34 6.02 5 5 C4.34 5 3.68 5 3 5 C2.67 4.01 2.34 3.02 2 2 C1.34 1.34 0.68 0.68 0 0 Z " fill="#E75251" transform="translate(320,212)"/>
<path d="M0 0 C1.32 0 2.64 0 4 0 C3.8864371 1.64666203 3.75882619 3.29236082 3.625 4.9375 C3.52058594 6.31228516 3.52058594 6.31228516 3.4140625 7.71484375 C3.27742188 8.46894531 3.14078125 9.22304687 3 10 C2.01 10.495 2.01 10.495 1 11 C1.020625 9.9275 1.04125 8.855 1.0625 7.75 C1.0142016 4.85209576 0.86844115 2.71387859 0 0 Z " fill="#D81C1E" transform="translate(418,241)"/>
<path d="M0 0 C1.98 0.495 1.98 0.495 4 1 C3.67 2.65 3.34 4.3 3 6 C2.34 5.01 1.68 4.02 1 3 C1 3.99 1 4.98 1 6 C0.34 6 -0.32 6 -1 6 C-0.67 4.02 -0.34 2.04 0 0 Z " fill="#E01819" transform="translate(344,238)"/>
<path d="M0 0 C1 2 1 2 0.25 5.0625 C-0.1625 6.031875 -0.575 7.00125 -1 8 C-1.99 8.33 -2.98 8.66 -4 9 C-2.25 2.25 -2.25 2.25 0 0 Z " fill="#F4E0DD" transform="translate(277,223)"/>
<path d="M0 0 C0.99 0.33 1.98 0.66 3 1 C2.01 2.485 2.01 2.485 1 4 C-0.9453125 4.29296875 -0.9453125 4.29296875 -3.125 4.1875 C-4.40375 4.125625 -5.6825 4.06375 -7 4 C-5.125 2.9375 -5.125 2.9375 -3 2 C-2.34 2.33 -1.68 2.66 -1 3 C-0.67 2.01 -0.34 1.02 0 0 Z " fill="#F3FAFA" transform="translate(244,217)"/>
<path d="M0 0 C1.32 0 2.64 0 4 0 C3.690625 0.598125 3.38125 1.19625 3.0625 1.8125 C1.89790296 4.08956772 1.89790296 4.08956772 1 7 C0.34 7 -0.32 7 -1 7 C-0.67 4.69 -0.34 2.38 0 0 Z " fill="#EA4647" transform="translate(222,212)"/>
<path d="M0 0 C0 0.66 0 1.32 0 2 C-0.66 2.66 -1.32 3.32 -2 4 C-2 4.66 -2 5.32 -2 6 C-2.99 5.67 -3.98 5.34 -5 5 C-5 4.34 -5 3.68 -5 3 C-5.66 2.67 -6.32 2.34 -7 2 C-2.25 0 -2.25 0 0 0 Z " fill="#D0282B" transform="translate(415,257)"/>
<path d="M0 0 C0.99 0.33 1.98 0.66 3 1 C3.33 3.31 3.66 5.62 4 8 C3.34 7.67 2.68 7.34 2 7 C2 5.68 2 4.36 2 3 C1.01 3 0.02 3 -1 3 C-0.67 2.01 -0.34 1.02 0 0 Z " fill="#EFD9D5" transform="translate(416,242)"/>
<path d="M0 0 C1.32 0.33 2.64 0.66 4 1 C3.34 2.98 2.68 4.96 2 7 C0 4 0 4 0 0 Z " fill="#D60E0F" transform="translate(332,241)"/>
<path d="M0 0 C-0.33 1.65 -0.66 3.3 -1 5 C-2.65 5 -4.3 5 -6 5 C-3.74193548 0 -3.74193548 0 0 0 Z " fill="#4F4F4F" transform="translate(128,235)"/>
<path d="M0 0 C2 2 2 2 2.125 5.125 C2.08375 6.07375 2.0425 7.0225 2 8 C0.68 7.67 -0.64 7.34 -2 7 C-2 6.34 -2 5.68 -2 5 C-1.34 5 -0.68 5 0 5 C0 3.35 0 1.7 0 0 Z " fill="#E66668" transform="translate(254,227)"/>
<path d="M0 0 C2.475 0.495 2.475 0.495 5 1 C5 2.65 5 4.3 5 6 C4.01 6.495 4.01 6.495 3 7 C2.01 4.69 1.02 2.38 0 0 Z " fill="#EA5859" transform="translate(352,216)"/>
<path d="M0 0 C1.65 0.33 3.3 0.66 5 1 C2.61426621 2.89213369 0.92824652 4.02391783 -2 5 C-2 4.01 -2 3.02 -2 2 C-1.34 2 -0.68 2 0 2 C0 1.34 0 0.68 0 0 Z " fill="#EA4D51" transform="translate(282,215)"/>
<path d="M0 0 C3 2 3 2 4 5 C3.01 5.33 2.02 5.66 1 6 C1 5.34 1 4.68 1 4 C0.01 3.67 -0.98 3.34 -2 3 C-1.34 2.01 -0.68 1.02 0 0 Z " fill="#C81716" transform="translate(369,256)"/>
<path d="M0 0 C0.99 0 1.98 0 3 0 C3 0.66 3 1.32 3 2 C2.34 2 1.68 2 1 2 C0.67 3.98 0.34 5.96 0 8 C-0.33 8 -0.66 8 -1 8 C-1.04241723 5.66705225 -1.04092937 3.33297433 -1 1 C-0.67 0.67 -0.34 0.34 0 0 Z " fill="#F5F6F5" transform="translate(281,223)"/>
<path d="M0 0 C1.65 0 3.3 0 5 0 C4.01 0.33 3.02 0.66 2 1 C1.67 2.98 1.34 4.96 1 7 C0.34 6.34 -0.32 5.68 -1 5 C-0.625 2.375 -0.625 2.375 0 0 Z " fill="#F3CECC" transform="translate(318,216)"/>
</svg>
