<?xml version="1.0" encoding="UTF-8"?>
<svg version="1.1" xmlns="http://www.w3.org/2000/svg" width="500" height="500">
<path d="M0 0 C165 0 330 0 500 0 C500 165 500 330 500 500 C335 500 170 500 0 500 C0 335 0 170 0 0 Z " fill="#FEFEFE" transform="translate(0,0)"/>
<path d="M0 0 C2 3 2 3 2 6 C2.99 6.33 3.98 6.66 5 7 C5.72441953 8.71226434 6.44383971 10.42717166 7.1171875 12.16015625 C8.48960254 15.02036635 10.69409959 16.86704212 13 19 C15.41463748 21.49790084 15.95423061 22.70822016 16.5 26.1875 C15.71251331 32.19208605 13.22001624 37.07209116 8.625 41.0625 C5.27492851 42.2589541 2.53086008 42.26648001 -1 42 C-3 41 -3 41 -4.3125 38.5 C-5.77120075 35.76097194 -5.77120075 35.76097194 -8.625 35.25 C-9.40875 35.1675 -10.1925 35.085 -11 35 C-11.495 34.505 -11.495 34.505 -12 34 C-13.85772162 34.08984301 -15.71247985 34.24611861 -17.5625 34.4375 C-19.08037109 34.59025391 -19.08037109 34.59025391 -20.62890625 34.74609375 C-21.41136719 34.82988281 -22.19382813 34.91367188 -23 35 C-23 35.66 -23 36.32 -23 37 C-24.26418246 37.69965443 -25.53665402 38.38434763 -26.8125 39.0625 C-27.52019531 39.44535156 -28.22789062 39.82820313 -28.95703125 40.22265625 C-31 41 -31 41 -34 40 C-35.60546875 37.453125 -35.60546875 37.453125 -37.1875 34.25 C-37.71730469 33.20328125 -38.24710937 32.1565625 -38.79296875 31.078125 C-39.98673879 28.03381822 -40.59245967 26.21146365 -40 23 C-38.3203125 21.59375 -38.3203125 21.59375 -36.125 20.5 C-32.37797191 18.40008933 -31.34534508 17.13952334 -30 13 C-25.97826087 8.10869565 -25.97826087 8.10869565 -22.1875 7.6875 C-21.1046875 7.8421875 -21.1046875 7.8421875 -20 8 C-19.71125 7.360625 -19.4225 6.72125 -19.125 6.0625 C-18 4 -18 4 -16 3 C-13.6670134 2.95977609 -11.33293334 2.95679753 -9 3 C-9 4.65 -9 6.3 -9 8 C-6.69 8.99 -4.38 9.98 -2 11 C-1.34 7.37 -0.68 3.74 0 0 Z " fill="#CC252C" transform="translate(166,205)"/>
<path d="M0 0 C3.74985325 -0.0871747 7.49944555 -0.14045003 11.25 -0.1875 C12.31347656 -0.21263672 13.37695312 -0.23777344 14.47265625 -0.26367188 C15.49746094 -0.27333984 16.52226562 -0.28300781 17.578125 -0.29296875 C18.52075195 -0.3086792 19.46337891 -0.32438965 20.43457031 -0.34057617 C23.48838416 0.06483593 24.82761435 0.83728465 27 3 C27.625 6.375 27.625 6.375 27 10 C25.17728176 12.22838419 23.45540992 13.37942945 21 15 C20.34 15 19.68 15 19 15 C19.45890625 15.51949219 19.9178125 16.03898437 20.390625 16.57421875 C23.09807865 19.65138771 25.77650818 22.71610498 28.3125 25.9375 C29.83873758 28.08980875 29.83873758 28.08980875 32 29 C32 29.66 32 30.32 32 31 C28.54457883 31.50058415 25.4404702 31.66702994 22 31 C19.10389393 28.70769465 17.14689831 25.97832312 15 23 C14.01 22.01 13.02 21.02 12 20 C11.67 22.97 11.34 25.94 11 29 C12.32 29 13.64 29 15 29 C15 29.66 15 30.32 15 31 C10.05 31 5.1 31 0 31 C0 30.34 0 29.68 0 29 C1.32 29 2.64 29 4 29 C4 20.09 4 11.18 4 2 C2.68 2 1.36 2 0 2 C0 1.34 0 0.68 0 0 Z " fill="#070707" transform="translate(221,263)"/>
<path d="M0 0 C5.28 0 10.56 0 16 0 C16 0.66 16 1.32 16 2 C14.68 2 13.36 2 12 2 C12 6.29 12 10.58 12 15 C16.95 15 21.9 15 27 15 C26.67 11.04 26.34 7.08 26 3 C24.68 2.67 23.36 2.34 22 2 C22 1.34 22 0.68 22 0 C27.28 0 32.56 0 38 0 C38 0.66 38 1.32 38 2 C37.01 2.33 36.02 2.66 35 3 C34.67 12.24 34.34 21.48 34 31 C35.32 31 36.64 31 38 31 C38 31.66 38 32.32 38 33 C32.72 33 27.44 33 22 33 C22 32.34 22 31.68 22 31 C23.32 30.67 24.64 30.34 26 30 C26.33 25.71 26.66 21.42 27 17 C22.05 17 17.1 17 12 17 C12 21.62 12 26.24 12 31 C13.32 31 14.64 31 16 31 C16 31.66 16 32.32 16 33 C10.72 33 5.44 33 0 33 C0 32.34 0 31.68 0 31 C1.32 30.67 2.64 30.34 4 30 C4.33 21.09 4.66 12.18 5 3 C3.35 2.67 1.7 2.34 0 2 C0 1.34 0 0.68 0 0 Z " fill="#0E0E0E" transform="translate(235,217)"/>
<path d="M0 0 C4.39049066 -0.6210418 8.33543387 -1.09033207 12.16699219 1.41943359 C14.21146016 3.41629628 16.05180301 5.4870238 17.875 7.6875 C18.51179688 8.40873047 19.14859375 9.12996094 19.8046875 9.87304688 C22.98331133 13.49866468 25.98654315 17.23317894 29 21 C29.33 14.73 29.66 8.46 30 2 C28.68 2 27.36 2 26 2 C26 1.34 26 0.68 26 0 C29.63 0 33.26 0 37 0 C37 0.66 37 1.32 37 2 C35.68 2 34.36 2 33 2 C33 11.9 33 21.8 33 32 C27.08628157 30.02876052 25.87213058 29.3082492 22.0625 24.875 C21.20785156 23.89273437 20.35320312 22.91046875 19.47265625 21.8984375 C18.65667969 20.94195312 17.84070313 19.98546875 17 19 C15.66772911 17.49905628 14.33454341 15.9989235 13 14.5 C11.12605607 12.37379438 9.58271338 10.37407007 8 8 C7.67 14.93 7.34 21.86 7 29 C8.32 29 9.64 29 11 29 C11 29.66 11 30.32 11 31 C7.37 31 3.74 31 0 31 C0 30.34 0 29.68 0 29 C1.32 29 2.64 29 4 29 C4 20.09 4 11.18 4 2 C2.68 2 1.36 2 0 2 C0 1.34 0 0.68 0 0 Z " fill="#080808" transform="translate(384,263)"/>
<path d="M0 0 C1.65 0 3.3 0 5 0 C6.71371692 3.80648736 8.42258281 7.61510294 10.12695312 11.42578125 C10.70764887 12.72227868 11.28967458 14.01818127 11.87304688 15.31347656 C12.71052399 17.17358729 13.54322138 19.03577294 14.375 20.8984375 C15.12910156 22.57945557 15.12910156 22.57945557 15.8984375 24.29443359 C17 27 17 27 17 29 C18.32 29.33 19.64 29.66 21 30 C21 30.33 21 30.66 21 31 C15.72 31 10.44 31 5 31 C5.33 30.34 5.66 29.68 6 29 C6.99 29 7.98 29 9 29 C8.34 26.69 7.68 24.38 7 22 C2.71 22 -1.58 22 -6 22 C-6.66 24.31 -7.32 26.62 -8 29 C-6.68 29 -5.36 29 -4 29 C-4 29.66 -4 30.32 -4 31 C-7.63 31 -11.26 31 -15 31 C-15 30.34 -15 29.68 -15 29 C-14.01 28.67 -13.02 28.34 -12 28 C-10.45083655 25.22191483 -10.45083655 25.22191483 -9.08203125 21.77734375 C-8.81992355 21.15726944 -8.55781586 20.53719513 -8.2877655 19.89833069 C-7.45239171 17.91552113 -6.6323464 15.92677319 -5.8125 13.9375 C-5.24904444 12.59268056 -4.68460325 11.24827363 -4.11914062 9.90429688 C-2.73462207 6.60757572 -1.36378168 3.305362 0 0 Z " fill="#0B0B0B" transform="translate(360,263)"/>
<path d="M0 0 C1.65 0 3.3 0 5 0 C5.34256836 0.79696289 5.68513672 1.59392578 6.03808594 2.41503906 C7.32022915 5.38535194 8.61084762 8.35179366 9.90722656 11.31591797 C10.46531206 12.59666922 11.02004965 13.87888496 11.57128906 15.16259766 C12.36670754 17.01330959 13.17541146 18.85829351 13.984375 20.703125 C14.46616211 21.81333008 14.94794922 22.92353516 15.44433594 24.06738281 C17.05058766 27.44164957 17.05058766 27.44164957 21 31 C16.05 31 11.1 31 6 31 C6 30.34 6 29.68 6 29 C6.99 29 7.98 29 9 29 C8.34 27.02 7.68 25.04 7 23 C2.71 22.67 -1.58 22.34 -6 22 C-6.66 24.31 -7.32 26.62 -8 29 C-6.68 29 -5.36 29 -4 29 C-4 29.66 -4 30.32 -4 31 C-7.63 31 -11.26 31 -15 31 C-15 30.34 -15 29.68 -15 29 C-14.01 28.67 -13.02 28.34 -12 28 C-10.56703545 25.56512893 -10.56703545 25.56512893 -9.3359375 22.5390625 C-8.85382813 21.42789062 -8.37171875 20.31671875 -7.875 19.171875 C-7.38 18.00140625 -6.885 16.8309375 -6.375 15.625 C-5.87226562 14.46226562 -5.36953125 13.29953125 -4.8515625 12.1015625 C-2.25324428 6.11731126 -2.25324428 6.11731126 0 0 Z " fill="#090909" transform="translate(94,263)"/>
<path d="M0 0 C1.65 0 3.3 0 5 0 C5.34256836 0.79696289 5.68513672 1.59392578 6.03808594 2.41503906 C7.32022915 5.38535194 8.61084762 8.35179366 9.90722656 11.31591797 C10.46531206 12.59666922 11.02004965 13.87888496 11.57128906 15.16259766 C12.36670754 17.01330959 13.17541146 18.85829351 13.984375 20.703125 C14.46616211 21.81333008 14.94794922 22.92353516 15.44433594 24.06738281 C17.05058766 27.44164957 17.05058766 27.44164957 21 31 C16.05 31 11.1 31 6 31 C6 30.34 6 29.68 6 29 C6.99 29 7.98 29 9 29 C8.34 26.69 7.68 24.38 7 22 C2.71 22 -1.58 22 -6 22 C-6.66 24.31 -7.32 26.62 -8 29 C-6.68 29 -5.36 29 -4 29 C-4 29.66 -4 30.32 -4 31 C-7.63 31 -11.26 31 -15 31 C-15 30.34 -15 29.68 -15 29 C-14.01 28.67 -13.02 28.34 -12 28 C-10.68111288 25.79324587 -10.68111288 25.79324587 -9.58984375 23.046875 C-9.15736328 22.03496094 -8.72488281 21.02304687 -8.27929688 19.98046875 C-7.83650391 18.91441406 -7.39371094 17.84835937 -6.9375 16.75 C-6.49083984 15.69941406 -6.04417969 14.64882813 -5.58398438 13.56640625 C-3.67466466 9.06280909 -1.80721512 4.54556014 0 0 Z " fill="#0A0A0A" transform="translate(271,263)"/>
<path d="M0 0 C8.58 0 17.16 0 26 0 C26 2.64 26 5.28 26 8 C25.34 8 24.68 8 24 8 C23.67 6.68 23.34 5.36 23 4 C17.555 3.505 17.555 3.505 12 3 C12 6.96 12 10.92 12 15 C14.64 14.67 17.28 14.34 20 14 C20.33 13.01 20.66 12.02 21 11 C21.66 11 22.32 11 23 11 C23 14.3 23 17.6 23 21 C22.34 21 21.68 21 21 21 C20.67 20.01 20.34 19.02 20 18 C17.36 17.67 14.72 17.34 12 17 C12 21.29 12 25.58 12 30 C15.96 30 19.92 30 24 30 C24.33 28.35 24.66 26.7 25 25 C25.66 25 26.32 25 27 25 C27 27.64 27 30.28 27 33 C18.75 33 10.5 33 2 33 C2.66 32.01 3.32 31.02 4 30 C4.27670494 27.09069658 4.27670494 27.09069658 4.1953125 23.80078125 C4.18886719 22.59228516 4.18242187 21.38378906 4.17578125 20.13867188 C4.15902344 18.87603516 4.14226562 17.61339844 4.125 16.3125 C4.11597656 15.03826172 4.10695313 13.76402344 4.09765625 12.45117188 C4.07405641 9.30059373 4.04113194 6.15039017 4 3 C2.68 2.67 1.36 2.34 0 2 C0 1.34 0 0.68 0 0 Z " fill="#0C0C0C" transform="translate(276,217)"/>
<path d="M0 0 C4.95 0 9.9 0 15 0 C15 0.66 15 1.32 15 2 C13.68 2 12.36 2 11 2 C11.0807876 5.60509105 11.19363684 9.20847921 11.3125 12.8125 C11.33505859 13.83666016 11.35761719 14.86082031 11.38085938 15.91601562 C11.41630859 16.89892578 11.45175781 17.88183594 11.48828125 18.89453125 C11.51446533 19.80050049 11.54064941 20.70646973 11.56762695 21.63989258 C12.07513485 24.41012342 12.7731316 25.32467586 15 27 C17.17495081 27.47307456 17.17495081 27.47307456 19.5 27.375 C20.2734375 27.38273437 21.046875 27.39046875 21.84375 27.3984375 C24.5725668 26.89419961 25.30518886 26.17633532 27 24 C27.50330762 21.58936558 27.50330762 21.58936558 27.51171875 18.89453125 C27.54716797 17.91162109 27.58261719 16.92871094 27.61914062 15.91601562 C27.64169922 14.89185547 27.66425781 13.86769531 27.6875 12.8125 C27.72166016 11.77673828 27.75582031 10.74097656 27.79101562 9.67382812 C27.87352642 7.1159934 27.94266572 4.55850277 28 2 C26.68 2 25.36 2 24 2 C24 1.34 24 0.68 24 0 C27.63 0 31.26 0 35 0 C35 0.66 35 1.32 35 2 C33.68 2 32.36 2 31 2 C31.02094727 2.6705542 31.04189453 3.3411084 31.06347656 4.03198242 C31.14686027 7.0836678 31.19873016 10.13511317 31.25 13.1875 C31.30027344 14.77014648 31.30027344 14.77014648 31.3515625 16.38476562 C31.45071837 24.24286811 31.45071837 24.24286811 29.12109375 28.15625 C24.87143725 31.85024239 20.84771795 32.43852197 15.35546875 32.328125 C11.49706835 31.79063639 8.18270227 30.22464393 5 28 C3.69524382 25.39048764 3.88698428 23.47298715 3.90234375 20.5546875 C3.90556641 19.47832031 3.90878906 18.40195312 3.91210938 17.29296875 C3.92048828 16.16503906 3.92886719 15.03710938 3.9375 13.875 C3.94201172 12.73933594 3.94652344 11.60367187 3.95117188 10.43359375 C3.96298385 7.62234362 3.97945493 4.8111977 4 2 C2.68 2 1.36 2 0 2 C0 1.34 0 0.68 0 0 Z " fill="#070707" transform="translate(118,263)"/>
<path d="M0 0 C0 2.31 0 4.62 0 7 C-0.99 7 -1.98 7 -3 7 C-3 5.35 -3 3.7 -3 2 C-6.96 2 -10.92 2 -15 2 C-15 3.98 -15 5.96 -15 8 C-13.2365625 8.6496875 -13.2365625 8.6496875 -11.4375 9.3125 C-0.61057692 13.38942308 -0.61057692 13.38942308 2 16 C2.79465776 22.92487479 2.79465776 22.92487479 -0.125 26.875 C-5.24686023 30.66072278 -9.69081687 31.45065594 -16 31 C-19.4375 30 -19.4375 30 -22 29 C-22 26.36 -22 23.72 -22 21 C-21.01 21 -20.02 21 -19 21 C-18.566875 22.2065625 -18.566875 22.2065625 -18.125 23.4375 C-17.26737432 26.1326468 -17.26737432 26.1326468 -15 27 C-13.08596924 27.19668734 -13.08596924 27.19668734 -11 27.1875 C-9.948125 27.20876953 -9.948125 27.20876953 -8.875 27.23046875 C-6.75475062 27.16512323 -6.75475062 27.16512323 -5 25 C-4.83312552 22.41645782 -4.83312552 22.41645782 -5 20 C-5.89203125 19.68546875 -6.7840625 19.3709375 -7.703125 19.046875 C-8.87359375 18.61890625 -10.0440625 18.1909375 -11.25 17.75 C-12.41015625 17.33234375 -13.5703125 16.9146875 -14.765625 16.484375 C-17.99075056 15.00424491 -19.79735062 13.75331172 -22 11 C-22.65409142 7.15721291 -22.35086139 5.55135361 -20.25 2.25 C-14.3403233 -3.6596767 -7.40105578 -2.96042231 0 0 Z " fill="#0A0A0A" transform="translate(180,264)"/>
<path d="M0 0 C10.23 0 20.46 0 31 0 C30.67 2.64 30.34 5.28 30 8 C29.34 8 28.68 8 28 8 C27.67 6.68 27.34 5.36 27 4 C24.36 3.67 21.72 3.34 19 3 C19 12.24 19 21.48 19 31 C20.32 31 21.64 31 23 31 C23 31.66 23 32.32 23 33 C17.72 33 12.44 33 7 33 C7 32.34 7 31.68 7 31 C8.32 30.67 9.64 30.34 11 30 C11.33 21.09 11.66 12.18 12 3 C7.545 3.495 7.545 3.495 3 4 C2.67 5.32 2.34 6.64 2 8 C1.34 8 0.68 8 0 8 C0 5.36 0 2.72 0 0 Z " fill="#101010" transform="translate(202,217)"/>
<path d="M0 0 C9.9 0 19.8 0 30 0 C30 2.31 30 4.62 30 7 C29.34 7 28.68 7 28 7 C27.67 6.01 27.34 5.02 27 4 C24.03 3.67 21.06 3.34 18 3 C18 11.58 18 20.16 18 29 C19.32 29 20.64 29 22 29 C22 29.66 22 30.32 22 31 C17.05 31 12.1 31 7 31 C7 30.34 7 29.68 7 29 C8.32 29 9.64 29 11 29 C11 20.42 11 11.84 11 3 C8.03 3 5.06 3 2 3 C2 4.32 2 5.64 2 7 C1.34 7 0.68 7 0 7 C0 4.69 0 2.38 0 0 Z " fill="#0E0E0E" transform="translate(187,263)"/>
<path d="M0 0 C4.95 0 9.9 0 15 0 C15 0.66 15 1.32 15 2 C13.68 2 12.36 2 11 2 C11 10.91 11 19.82 11 29 C17.435 28.505 17.435 28.505 24 28 C24 26.35 24 24.7 24 23 C24.66 23 25.32 23 26 23 C26 25.64 26 28.28 26 31 C18.08 31 10.16 31 2 31 C2.33 30.34 2.66 29.68 3 29 C3.15411106 26.9692523 3.24982453 24.93393579 3.31640625 22.8984375 C3.35830078 21.68671875 3.40019531 20.475 3.44335938 19.2265625 C3.48267578 17.95554687 3.52199219 16.68453125 3.5625 15.375 C3.60568359 14.09625 3.64886719 12.8175 3.69335938 11.5 C3.79969886 8.33344652 3.90172833 5.16681247 4 2 C2.68 2 1.36 2 0 2 C0 1.34 0 0.68 0 0 Z " fill="#0E0E0E" transform="translate(295,263)"/>
<path d="M0 0 C4.95 0 9.9 0 15 0 C15 0.66 15 1.32 15 2 C13.68 2 12.36 2 11 2 C11 10.91 11 19.82 11 29 C12.32 29 13.64 29 15 29 C15 29.66 15 30.32 15 31 C10.05 31 5.1 31 0 31 C0 30.34 0 29.68 0 29 C1.32 29 2.64 29 4 29 C4 20.09 4 11.18 4 2 C2.68 2 1.36 2 0 2 C0 1.34 0 0.68 0 0 Z " fill="#060606" transform="translate(326,263)"/>
<path d="M0 0 C3.48057584 4.30928438 5.65577643 8.62310571 7 14 C2.71 14 -1.58 14 -6 14 C-6.66 16.31 -7.32 18.62 -8 21 C-6.68 21 -5.36 21 -4 21 C-4 21.66 -4 22.32 -4 23 C-7.63 23 -11.26 23 -15 23 C-15 22.34 -15 21.68 -15 21 C-14.01 20.67 -13.02 20.34 -12 20 C-10.91091668 18.23078695 -10.91091668 18.23078695 -10.09765625 16.03515625 C-9.59782227 14.83536133 -9.59782227 14.83536133 -9.08789062 13.61132812 C-8.40619311 11.91682287 -7.72649343 10.22151247 -7.04882812 8.52539062 C-6.71431641 7.72423828 -6.37980469 6.92308594 -6.03515625 6.09765625 C-5.7400415 5.36039307 -5.44492676 4.62312988 -5.14086914 3.86352539 C-3.74860307 1.5893617 -2.44291926 0.97035263 0 0 Z " fill="#1C1C1C" transform="translate(360,271)"/>
<path d="M0 0 C2.65079721 1.32539861 2.90342592 2.61974614 4.0625 5.3125 C4.57490234 6.48232422 4.57490234 6.48232422 5.09765625 7.67578125 C6 10 6 10 7 14 C2.71 14 -1.58 14 -6 14 C-6.66 16.31 -7.32 18.62 -8 21 C-6.68 21 -5.36 21 -4 21 C-4 21.66 -4 22.32 -4 23 C-7.63 23 -11.26 23 -15 23 C-15 22.34 -15 21.68 -15 21 C-14.01 20.67 -13.02 20.34 -12 20 C-10.850433 17.76643067 -10.03300381 15.48294966 -9.16015625 13.12890625 C-7.75153251 10.54405796 -6.571489 10.28324791 -4 9 C-2.66653971 6.84255767 -2.66653971 6.84255767 -1.75 4.375 C-1.41484375 3.55773437 -1.0796875 2.74046875 -0.734375 1.8984375 C-0.49203125 1.27195312 -0.2496875 0.64546875 0 0 Z " fill="#2E2E2E" transform="translate(271,271)"/>
<path d="M0 0 C3.48057584 4.30928438 5.65577643 8.62310571 7 14 C2.71 14 -1.58 14 -6 14 C-6.66 16.31 -7.32 18.62 -8 21 C-6.68 21 -5.36 21 -4 21 C-4 21.66 -4 22.32 -4 23 C-7.63 23 -11.26 23 -15 23 C-15 22.34 -15 21.68 -15 21 C-14.01 20.67 -13.02 20.34 -12 20 C-10.850433 17.76643067 -10.03300381 15.48294966 -9.16015625 13.12890625 C-7.75153251 10.54405796 -6.571489 10.28324791 -4 9 C-2.66653971 6.84255767 -2.66653971 6.84255767 -1.75 4.375 C-1.41484375 3.55773437 -1.0796875 2.74046875 -0.734375 1.8984375 C-0.49203125 1.27195312 -0.2496875 0.64546875 0 0 Z " fill="#313131" transform="translate(94,271)"/>
<path d="M0 0 C6.75 0.75 6.75 0.75 9 3 C9.3125 6.5 9.3125 6.5 9 10 C6 12 6 12 0 12 C0 8.04 0 4.08 0 0 Z " fill="#F9F9F9" transform="translate(232,265)"/>
<path d="M0 0 C3.63 0 7.26 0 11 0 C11 0.66 11 1.32 11 2 C9.68 2 8.36 2 7 2 C7 9.59 7 17.18 7 25 C6.01 24.67 5.02 24.34 4 24 C4 16.74 4 9.48 4 2 C2.68 2 1.36 2 0 2 C0 1.34 0 0.68 0 0 Z " fill="#171717" transform="translate(142,263)"/>
<path d="M0 0 C3.28220895 1.64110448 3.74570789 4.69322988 5 8 C5 8.99 5 9.98 5 11 C2.03 11 -0.94 11 -4 11 C-3.5247412 9.35303396 -3.04468109 7.70745272 -2.5625 6.0625 C-2.29566406 5.14597656 -2.02882813 4.22945313 -1.75390625 3.28515625 C-1 1 -1 1 0 0 Z " fill="#EEEEEE" transform="translate(271,271)"/>
<path d="M0 0 C2.96052484 3.36423277 3.92289822 6.69159287 5 11 C2.03 11 -0.94 11 -4 11 C-3.39301257 6.87248551 -1.96189209 3.6678852 0 0 Z " fill="#F0F0F0" transform="translate(360,271)"/>
<path d="M0 0 C5 6.36363636 5 6.36363636 5 11 C2.03 11 -0.94 11 -4 11 C-3.52269162 9.5410574 -3.04308958 8.08286504 -2.5625 6.625 C-2.29566406 5.81289063 -2.02882813 5.00078125 -1.75390625 4.1640625 C-1 2 -1 2 0 0 Z " fill="#F5F5F5" transform="translate(94,271)"/>
<path d="M0 0 C0.99 0 1.98 0 3 0 C3.185625 0.78375 3.37125 1.5675 3.5625 2.375 C4.82341699 5.39591977 4.82341699 5.39591977 8.5625 6.125 C9.696875 6.41375 10.83125 6.7025 12 7 C12.33 7.99 12.66 8.98 13 10 C8.17639811 10.19294408 4.50353262 9.75747614 0 8 C0 5.36 0 2.72 0 0 Z " fill="#242424" transform="translate(158,285)"/>
<path d="M0 0 C0.66 0 1.32 0 2 0 C2 2.64 2 5.28 2 8 C-6.25 8 -14.5 8 -23 8 C-21 6 -21 6 -19.12060547 5.77294922 C-18.37697754 5.78342285 -17.63334961 5.79389648 -16.8671875 5.8046875 C-16.06152344 5.81113281 -15.25585938 5.81757813 -14.42578125 5.82421875 C-13.16314453 5.84935547 -13.16314453 5.84935547 -11.875 5.875 C-10.60076172 5.88853516 -10.60076172 5.88853516 -9.30078125 5.90234375 C-7.20040116 5.92594353 -5.10016556 5.96181517 -3 6 C-2.01 4.02 -1.02 2.04 0 0 Z " fill="#1A1A1A" transform="translate(301,242)"/>
<path d="M0 0 C1 1 1 1 1.0625 4.5625 C1.041875 5.696875 1.02125 6.83125 1 8 C0.01 8 -0.98 8 -2 8 C-2 6.35 -2 4.7 -2 3 C-4.64 2.67 -7.28 2.34 -10 2 C-10 1.67 -10 1.34 -10 1 C-6.60169639 0.22324489 -3.48880949 -0.19382275 0 0 Z " fill="#272727" transform="translate(179,263)"/>
<path d="M0 0 C0.33 1.32 0.66 2.64 1 4 C2.32 4 3.64 4 5 4 C5 4.66 5 5.32 5 6 C1.37 6 -2.26 6 -6 6 C-6 5.34 -6 4.68 -6 4 C-5.01 3.67 -4.02 3.34 -3 3 C-1.33289654 1.50014391 -1.33289654 1.50014391 0 0 Z " fill="#111111" transform="translate(262,288)"/>
<path d="M0 0 C0.33 1.32 0.66 2.64 1 4 C2.32 4 3.64 4 5 4 C5 4.66 5 5.32 5 6 C1.37 6 -2.26 6 -6 6 C-6 5.34 -6 4.68 -6 4 C-5.01 3.67 -4.02 3.34 -3 3 C-1.33289654 1.50014391 -1.33289654 1.50014391 0 0 Z " fill="#111111" transform="translate(85,288)"/>
<path d="M0 0 C1.21386936 3.64160808 0.6674695 4.33165469 -0.9375 7.6875 C-1.31777344 8.49574219 -1.69804688 9.30398438 -2.08984375 10.13671875 C-2.39019531 10.75160156 -2.69054687 11.36648438 -3 12 C-3.99 12 -4.98 12 -6 12 C-5.57405412 10.55903414 -5.13373367 9.12231288 -4.6875 7.6875 C-4.44386719 6.88699219 -4.20023437 6.08648437 -3.94921875 5.26171875 C-2.95817977 2.90035427 -1.91925057 1.66120007 0 0 Z " fill="#141414" transform="translate(93,270)"/>
</svg>
