<?xml version="1.0" encoding="UTF-8"?>
<svg version="1.1" xmlns="http://www.w3.org/2000/svg" width="500" height="500">
<path d="M0 0 C165 0 330 0 500 0 C500 165 500 330 500 500 C335 500 170 500 0 500 C0 335 0 170 0 0 Z " fill="#FEFEFE" transform="translate(0,0)"/>
<path d="M0 0 C9.24 0 18.48 0 28 0 C28 1.32 28 2.64 28 4 C26.02 4.66 24.04 5.32 22 6 C21.67 12.93 21.34 19.86 21 27 C28.26 27 35.52 27 43 27 C43 20.07 43 13.14 43 6 C40.69 5.34 38.38 4.68 36 4 C36 2.68 36 1.36 36 0 C45.24 0 54.48 0 64 0 C64 1.32 64 2.64 64 4 C62.02 4.66 60.04 5.32 58 6 C58 22.5 58 39 58 56 C59.98 56.66 61.96 57.32 64 58 C64 59.32 64 60.64 64 62 C54.76 62 45.52 62 36 62 C36 60.68 36 59.36 36 58 C37.98 57.34 39.96 56.68 42 56 C42.33 48.08 42.66 40.16 43 32 C35.74 32 28.48 32 21 32 C21.11347156 35.79233901 21.24022786 39.58341049 21.375 43.375 C21.4059375 44.45523438 21.436875 45.53546875 21.46875 46.6484375 C21.50742187 47.6796875 21.54609375 48.7109375 21.5859375 49.7734375 C21.63306885 51.20308838 21.63306885 51.20308838 21.68115234 52.66162109 C21.78555796 55.18895176 21.78555796 55.18895176 24 57 C26.57061311 57.64767793 26.57061311 57.64767793 29 58 C29 59.32 29 60.64 29 62 C19.43 62 9.86 62 0 62 C0 60.68 0 59.36 0 58 C1.98 57.34 3.96 56.68 6 56 C6 39.5 6 23 6 6 C4.02 5.34 2.04 4.68 0 4 C0 2.68 0 1.36 0 0 Z " fill="#101010" transform="translate(28,211)"/>
<path d="M0 0 C6.6 0 13.2 0 20 0 C20.02505615 1.77681152 20.0501123 3.55362305 20.07592773 5.38427734 C20.15974383 11.24768456 20.2480132 17.11101558 20.33933926 22.97430992 C20.39455915 26.53004209 20.44797763 30.08578251 20.49731445 33.64160156 C20.55408168 37.72730602 20.61862054 41.81285525 20.68359375 45.8984375 C20.70030624 47.17866791 20.71701874 48.45889832 20.73423767 49.77792358 C20.7641555 51.54953354 20.7641555 51.54953354 20.79467773 53.35693359 C20.81799416 54.92246475 20.81799416 54.92246475 20.84178162 56.5196228 C20.83847204 59.00141782 20.83847204 59.00141782 22 61 C24.52733235 61.65555119 24.52733235 61.65555119 27 62 C27 63.32 27 64.64 27 66 C20.73 66.33 14.46 66.66 8 67 C8 65.68 8 64.36 8 63 C7.27296875 63.54140625 7.27296875 63.54140625 6.53125 64.09375 C1.40160941 67.64503964 -1.76197843 68.90551926 -8 68 C-13.86791522 64.95319787 -17.39881681 61.00994776 -19.75 54.875 C-21.93575949 47.5527057 -22.13646012 40.74453527 -19 33.6875 C-16.23864699 28.86474697 -13.21486932 25.16788348 -8 23 C-2.31714069 22.19754233 2.9524057 22.01951575 8 25 C7.96701098 22.22592351 7.89990921 19.45994071 7.8125 16.6875 C7.80669922 15.90181641 7.80089844 15.11613281 7.79492188 14.30664062 C7.7102898 12.09680306 7.57940378 10.13545194 7 8 C4.70201471 5.91988054 4.70201471 5.91988054 2 5 C1.34 4.67 0.68 4.34 0 4 C0 2.68 0 1.36 0 0 Z " fill="#060606" transform="translate(273,206)"/>
<path d="M0 0 C0 -0.66 0 -1.32 0 -2 C1.32 -2 2.64 -2 4 -2 C4 4.93 4 11.86 4 19 C3.01 19 2.02 19 1 19 C0.56429687 18.02417969 0.12859375 17.04835937 -0.3203125 16.04296875 C-0.92089216 14.75735291 -1.52250986 13.47222163 -2.125 12.1875 C-2.40859375 11.54490234 -2.6921875 10.90230469 -2.984375 10.24023438 C-5.18574112 5.62215111 -7.21214864 3.7416126 -12 2 C-15.30065132 1.60392184 -17.26578856 1.68250316 -20.3125 3 C-22.47518637 5.56318385 -22.80183854 7.61172071 -23.3125 10.8671875 C-22.81298688 14.27636455 -21.48239163 15.61510411 -19 18 C-15.17814041 19.96094928 -11.12362536 21.33780045 -7.0859375 22.78515625 C-0.55012293 25.30288356 3.81992009 28.63984018 7 35 C7.73266493 42.13447491 7.34239382 48.12106683 3 54 C-1.05050213 58.35012831 -5.37350187 60.76094521 -11.3046875 61.30078125 C-18.04098473 61.32289163 -23.03630682 61.18063636 -29 58 C-29.99 58 -30.98 58 -32 58 C-32.33 58.66 -32.66 59.32 -33 60 C-34.32 60 -35.64 60 -37 60 C-37 52.41 -37 44.82 -37 37 C-35.68 37.33 -34.36 37.66 -33 38 C-31.54296875 40.51171875 -31.54296875 40.51171875 -30.1875 43.6875 C-27.68033349 48.95946165 -25.38641402 53.33502367 -20 56 C-16.35605434 56.73836047 -13.1863342 56.37463185 -9.625 55.25 C-7.50390694 53.61838996 -6.83048047 52.56064812 -6 50 C-5.43285251 45.20655775 -5.43285251 45.20655775 -7.4375 41.015625 C-11.70895697 37.65575946 -16.82626195 36.15186116 -21.9140625 34.3515625 C-28.19516479 31.92207954 -31.64332118 28.86335993 -35 23 C-35.875 20.4375 -35.875 20.4375 -36 18 C-36.103125 16.906875 -36.20625 15.81375 -36.3125 14.6875 C-35.83512083 9.05442579 -34.1755277 5.20834816 -30.1875 1.16015625 C-21.1142687 -5.92830571 -10.11386133 -3.83550497 0 0 Z " fill="#090909" transform="translate(359,213)"/>
<path d="M0 0 C3.16702888 1.67593746 5.37374246 3.74748493 7 7 C7.15608023 9.40560273 7.25804458 11.78702772 7.31640625 14.1953125 C7.33718735 14.90275604 7.35796844 15.61019958 7.37937927 16.33908081 C7.44481078 18.60095425 7.50372974 20.86294462 7.5625 23.125 C7.60569133 24.65756422 7.64930582 26.19011657 7.69335938 27.72265625 C7.80048555 31.48165073 7.9017709 35.24076292 8 39 C9.65 39.33 11.3 39.66 13 40 C13 41.32 13 42.64 13 44 C5.41 44 -2.18 44 -10 44 C-10 42.68 -10 41.36 -10 40 C-8.02 39.505 -8.02 39.505 -6 39 C-5.95060885 34.90661348 -5.91428499 30.81334202 -5.89013672 26.71972656 C-5.88007123 25.32679219 -5.86641766 23.93387898 -5.84912109 22.54101562 C-5.8248978 20.5404564 -5.81459186 18.53974385 -5.8046875 16.5390625 C-5.79421387 15.33459473 -5.78374023 14.13012695 -5.77294922 12.88916016 C-5.69539186 9.87158505 -5.69539186 9.87158505 -8 8 C-12.05327019 7.53910733 -12.05327019 7.53910733 -15.6730957 9.1184082 C-17.62469936 11.88584323 -17.33853307 14.06139715 -17.29296875 17.41796875 C-17.28330078 18.67158203 -17.27363281 19.92519531 -17.26367188 21.21679688 C-17.23853516 22.52712891 -17.21339844 23.83746094 -17.1875 25.1875 C-17.17244967 26.52277163 -17.15876187 27.85805937 -17.14648438 29.19335938 C-17.11107694 32.46264576 -17.0616889 35.73112093 -17 39 C-15.68 39.33 -14.36 39.66 -13 40 C-13 41.32 -13 42.64 -13 44 C-20.59 44 -28.18 44 -36 44 C-36 42.68 -36 41.36 -36 40 C-34.02 39.505 -34.02 39.505 -32 39 C-32 28.44 -32 17.88 -32 7 C-34.475 6.01 -34.475 6.01 -37 5 C-37 3.68 -37 2.36 -37 1 C-30.73 1 -24.46 1 -18 1 C-17.67 2.32 -17.34 3.64 -17 5 C-16.236875 4.175 -15.47375 3.35 -14.6875 2.5 C-10.31327813 -1.1365265 -5.40995387 -1.02740964 0 0 Z " fill="#0F0F0F" transform="translate(459,229)"/>
<path d="M0 0 C1.2890625 -0.01675781 2.578125 -0.03351563 3.90625 -0.05078125 C8.48857132 0.41243167 10.94154416 1.68915783 14.10668945 4.98608398 C16.00371782 8.15355959 15.93379224 10.58749385 16.01171875 14.265625 C16.02966995 14.92584656 16.04762115 15.58606812 16.06611633 16.26629639 C16.12008809 18.36496689 16.15407043 20.46341177 16.1875 22.5625 C16.22068495 23.98961464 16.25517571 25.41669956 16.29101562 26.84375 C16.3758047 30.33311652 16.44267888 33.82256191 16.5 37.3125 C18.48 37.9725 20.46 38.6325 22.5 39.3125 C22.5 40.6325 22.5 41.9525 22.5 43.3125 C17.98864963 45.6409389 13.4762485 46.09235984 8.5 45.3125 C5.9375 43.4375 5.9375 43.4375 4.5 41.3125 C4.5 40.6525 4.5 39.9925 4.5 39.3125 C3.84 39.3125 3.18 39.3125 2.5 39.3125 C2.5 39.9725 2.5 40.6325 2.5 41.3125 C-2.8234464 44.86146427 -6.07830563 46.22988491 -12.5 45.3125 C-15.51355268 43.54481001 -17.9128243 41.4868514 -19.5 38.3125 C-19.7734375 36.359375 -19.7734375 36.359375 -19.875 34.0625 C-19.92398438 33.31484375 -19.97296875 32.5671875 -20.0234375 31.796875 C-19.24679809 28.11073573 -17.26794916 25.73863186 -14.5 23.3125 C-12.05463727 21.87619531 -9.54074639 20.89029607 -6.875 19.9375 C-5.87339844 19.54884766 -5.87339844 19.54884766 -4.8515625 19.15234375 C-1.93445136 18.04967574 0.35841452 17.3125 3.5 17.3125 C3.38610125 15.52009337 3.25852313 13.72855165 3.125 11.9375 C3.05539063 10.93976563 2.98578125 9.94203125 2.9140625 8.9140625 C2.73636036 6.15741121 2.73636036 6.15741121 0.5 4.3125 C-2.08354218 4.14562552 -2.08354218 4.14562552 -4.5 4.3125 C-4.53738281 5.01117188 -4.57476562 5.70984375 -4.61328125 6.4296875 C-4.67902344 7.33976563 -4.74476563 8.24984375 -4.8125 9.1875 C-4.87050781 10.09242188 -4.92851562 10.99734375 -4.98828125 11.9296875 C-5.5 14.3125 -5.5 14.3125 -8.5 16.3125 C-11.62026907 16.63752803 -13.64747535 16.82401479 -16.375 15.1875 C-18.08353009 12.33994985 -18.02187626 10.57422661 -17.5 7.3125 C-12.53793595 1.07447663 -7.73816265 0.02321449 0 0 Z " fill="#090909" transform="translate(200.5,228.6875)"/>
<path d="M0 0 C5.94 0 11.88 0 18 0 C18.04898437 2.34738281 18.09796875 4.69476563 18.1484375 7.11328125 C18.2024496 9.38702767 18.2597561 11.66066883 18.31738281 13.93432617 C18.35566221 15.51432451 18.39051697 17.09440969 18.421875 18.67456055 C18.46754876 20.94611645 18.52553784 23.21707509 18.5859375 25.48828125 C18.59748871 26.19463211 18.60903992 26.90098297 18.62094116 27.6287384 C18.73071048 31.27741393 18.92142364 32.88213546 21 36 C24.04331254 36.38850798 26.07556298 36.62766751 28.6730957 34.86401367 C30.59899533 32.15854105 30.3393553 30.09422643 30.29296875 26.80078125 C30.28330078 25.59228516 30.27363281 24.38378906 30.26367188 23.13867188 C30.23853516 21.87603516 30.21339844 20.61339844 30.1875 19.3125 C30.17396484 18.03826172 30.16042969 16.76402344 30.14648438 15.45117188 C30.11108199 12.30035943 30.0616979 9.15038955 30 6 C28.35 5.34 26.7 4.68 25 4 C25 2.68 25 1.36 25 0 C31.27 0 37.54 0 44 0 C44.01417969 2.56394531 44.02835937 5.12789062 44.04296875 7.76953125 C44.07358009 10.25184324 44.11267086 12.73388675 44.15258789 15.21606445 C44.17578911 16.94155386 44.19016862 18.6671853 44.19555664 20.39282227 C44.20483139 22.87346117 44.2457835 25.35185971 44.29296875 27.83203125 C44.2890361 28.60400345 44.28510345 29.37597565 44.28105164 30.17134094 C44.2926002 32.61369134 44.2926002 32.61369134 45 36 C47.44272448 37.8619056 47.44272448 37.8619056 50 39 C50 39.99 50 40.98 50 42 C43.62694402 42.74507544 37.41688675 43.10349817 31 43 C31 41.35 31 39.7 31 38 C30.45472656 38.433125 29.90945313 38.86625 29.34765625 39.3125 C24.58499689 42.82954076 21.02901535 44.90859103 15.01171875 44.45703125 C11.82764953 43.73366018 10.15225521 42.41313463 8 40 C6.04421058 36.07127638 5.76016102 32.85321293 5.76171875 28.4921875 C5.74560547 27.25855469 5.72949219 26.02492188 5.71289062 24.75390625 C5.69591273 22.16020659 5.69077477 19.56640336 5.69726562 16.97265625 C5.67728516 15.74160156 5.65730469 14.51054687 5.63671875 13.2421875 C5.63224731 11.55391846 5.63224731 11.55391846 5.62768555 9.83154297 C5.29701579 6.770281 5.29701579 6.770281 2.46020508 5.35986328 C1.6483374 4.9111084 0.83646973 4.46235352 0 4 C0 2.68 0 1.36 0 0 Z " fill="#0B0B0B" transform="translate(370,230)"/>
<path d="M0 0 C4.53538865 2.11130161 7.1653623 4.90552332 10 9 C11 12 11 12 11 21 C2.75 21 -5.5 21 -14 21 C-12.72572524 29.42522792 -12.72572524 29.42522792 -9 36 C-5.27420911 38.48386059 -3.41288598 38.3804212 1 38 C4.69064293 36.28342189 7.23952781 33.96495162 10 31 C10.66 31.99 11.32 32.98 12 34 C7.23956623 40.09161889 3.43274061 44.28323662 -4.60546875 45.34375 C-11.39846189 45.71853583 -15.83439384 44.4451079 -21 40 C-26.25789412 34.60374025 -27.2994898 28.93984634 -27.375 21.5625 C-27.25314804 14.2370469 -26.58092274 10.48521879 -21.24609375 5.29296875 C-14.5262796 -0.69734574 -8.96396799 -0.73508621 0 0 Z " fill="#090909" transform="translate(125,229)"/>
<path d="M0 0 C6.27 0 12.54 0 19 0 C19.33 20.13 19.66 40.26 20 61 C21.32 61.66 22.64 62.32 24 63 C24 64.32 24 65.64 24 67 C16.41 67 8.82 67 1 67 C1 65.68 1 64.36 1 63 C2.98 62.505 2.98 62.505 5 62 C5 43.85 5 25.7 5 7 C3.02 6.01 1.04 5.02 -1 4 C-0.67 2.68 -0.34 1.36 0 0 Z " fill="#121212" transform="translate(224,206)"/>
<path d="M0 0 C2.375 1 2.375 1 4 3 C5.28322467 7.89229405 5.50936871 9.85901409 3.4375 14.5 C1 17 1 17 -2.0625 17.5625 C-5 17 -5 17 -6.875 15.9375 C-8.58196395 12.99772876 -8.18799766 10.32129197 -8 7 C-11.18234105 8.75454385 -11.18234105 8.75454385 -14 11 C-14.08767112 13.07262076 -14.10695873 15.14820294 -14.09765625 17.22265625 C-14.09282227 19.11274414 -14.09282227 19.11274414 -14.08789062 21.04101562 C-14.07953403 22.38151109 -14.07106907 23.72200588 -14.0625 25.0625 C-14.0574866 26.40689942 -14.05292342 27.7513006 -14.04882812 29.09570312 C-14.03699488 32.39717941 -14.02050971 35.69856803 -14 39 C-12.02 39.33 -10.04 39.66 -8 40 C-8 40.99 -8 41.98 -8 43 C-15.92 43 -23.84 43 -32 43 C-32 42.01 -32 41.02 -32 40 C-30.02 39.505 -30.02 39.505 -28 39 C-27.87636773 34.64015539 -27.78565092 30.28123945 -27.7253418 25.92016602 C-27.7002019 24.43691232 -27.66608408 22.95378247 -27.62280273 21.47094727 C-27.56211742 19.33839405 -27.53378884 17.20747795 -27.51171875 15.07421875 C-27.48553467 13.79119873 -27.45935059 12.50817871 -27.43237305 11.1862793 C-27.61968994 10.13480713 -27.80700684 9.08333496 -28 8 C-30.46931245 6.28642932 -30.46931245 6.28642932 -33 5 C-33 3.68 -33 2.36 -33 1 C-27.06 1 -21.12 1 -15 1 C-14.67 2.65 -14.34 4.3 -14 6 C-13.57589844 5.566875 -13.15179688 5.13375 -12.71484375 4.6875 C-8.54436932 0.72784076 -6.00009723 -1.01888443 0 0 Z " fill="#080808" transform="translate(173,229)"/>
<path d="M0 0 C3.66983279 3.66899186 4.50992134 6.15571222 4.53125 11.2890625 C4.53640625 12.47757813 4.5415625 13.66609375 4.546875 14.890625 C4.52367187 16.73914063 4.52367187 16.73914063 4.5 18.625 C4.51546875 19.86507812 4.5309375 21.10515625 4.546875 22.3828125 C4.54171875 23.56875 4.5365625 24.7546875 4.53125 25.9765625 C4.52673828 27.06018066 4.52222656 28.14379883 4.51757812 29.26025391 C4 32 4 32 2.18554688 33.86865234 C0 35 0 35 -3.5 35.125 C-7.43339455 33.86069461 -8.30740239 32.68872857 -10.19726562 29.11279297 C-11.65073248 25.28727527 -11.57672336 21.54715709 -11.5 17.5 C-11.51546875 16.68402344 -11.5309375 15.86804688 -11.546875 15.02734375 C-11.50963022 9.22646892 -10.3513314 5.75188781 -7 1 C-4.37869511 -0.31065245 -2.90828303 -0.415469 0 0 Z " fill="#F6F6F6" transform="translate(277,233)"/>
<path d="M0 0 C2.84809926 0.30790262 4.58286148 0.65478191 6.8125 2.5 C8.64353855 6.354818 8.18701299 9.76103886 8 14 C4.04 14 0.08 14 -4 14 C-4.43177893 7.73920552 -3.92739438 4.90924297 0 0 Z " fill="#EDEDED" transform="translate(115,232)"/>
<path d="M0 0 C0.08076963 2.45898655 0.14037143 4.91533742 0.1875 7.375 C0.22520508 8.42300781 0.22520508 8.42300781 0.26367188 9.4921875 C0.29296875 11.5234375 0.29296875 11.5234375 0 15 C-3.22373677 17.14915785 -4.26703674 17.38286803 -8 17 C-10.37040308 14.62959692 -10.34465793 13.93697247 -10.4375 10.6875 C-10.36995867 6.87448479 -10.12249249 6.15472736 -7.625 3 C-3.6875 0 -3.6875 0 0 0 Z " fill="#F5F5F5" transform="translate(204,250)"/>
</svg>
