<?xml version="1.0" encoding="UTF-8"?>
<svg version="1.1" xmlns="http://www.w3.org/2000/svg" width="500" height="500">
<path d="M0 0 C165 0 330 0 500 0 C500 165 500 330 500 500 C335 500 170 500 0 500 C0 335 0 170 0 0 Z " fill="#FEFEFE" transform="translate(0,0)"/>
<path d="M0 0 C3.96509139 -0.09990539 7.92968163 -0.17194834 11.89575195 -0.21972656 C13.89756051 -0.24940781 15.89901919 -0.30027058 17.90039062 -0.3515625 C26.21327202 -0.43531949 33.45655484 -0.15298812 39.83520508 5.67749023 C45.80564127 12.01711464 47.53140325 18.49058676 47.28515625 27.06640625 C46.60686025 34.04449247 44.04920977 39.06299489 39 44 C33.27787523 47.50494139 28.32130774 49.12815071 21.58203125 49.09765625 C20.32841797 49.09443359 19.07480469 49.09121094 17.78320312 49.08789062 C16.47287109 49.07951172 15.16253906 49.07113281 13.8125 49.0625 C12.47721519 49.05748317 11.14192859 49.05292059 9.80664062 49.04882812 C6.53771527 49.03702695 3.26888009 49.02056297 0 49 C0 47.68 0 46.36 0 45 C1.65 44.34 3.3 43.68 5 43 C5 30.46 5 17.92 5 5 C2.525 4.01 2.525 4.01 0 3 C0 2.01 0 1.02 0 0 Z " fill="#080808" transform="translate(36,220)"/>
<path d="M0 0 C3.5 0.125 3.5 0.125 4.5 1.125 C4.625 4.125 4.625 4.125 4.5 7.125 C3.5 8.125 3.5 8.125 0.4375 8.1875 C-0.531875 8.166875 -1.50125 8.14625 -2.5 8.125 C-1.84 8.805625 -1.18 9.48625 -0.5 10.1875 C2.0324171 13.90698762 2.19849726 15.701184 1.5 20.125 C-0.66389718 23.87119354 -3.4366747 26.58694553 -7.5 28.125 C-10.515625 28.3203125 -10.515625 28.3203125 -13.75 28.25 C-14.82765625 28.23195313 -15.9053125 28.21390625 -17.015625 28.1953125 C-17.83546875 28.17210937 -18.6553125 28.14890625 -19.5 28.125 C-19.17 28.785 -18.84 29.445 -18.5 30.125 C-16.61771118 30.63710029 -16.61771118 30.63710029 -14.3515625 30.87109375 C-13.51109375 30.98646484 -12.670625 31.10183594 -11.8046875 31.22070312 C-10.02640456 31.44752493 -8.24775741 31.67151029 -6.46875 31.89257812 C-5.20417969 32.06756836 -5.20417969 32.06756836 -3.9140625 32.24609375 C-2.75318115 32.39195923 -2.75318115 32.39195923 -1.56884766 32.54077148 C0.86490112 33.2280456 1.88481624 34.21828427 3.5 36.125 C6.16662617 35.36386298 6.16662617 35.36386298 8.5 33.125 C9.16114775 29.7238056 8.96806282 26.38620812 8.8125 22.9375 C8.77866211 21.52694336 8.77866211 21.52694336 8.74414062 20.08789062 C8.68519227 17.76532527 8.60297785 15.44596224 8.5 13.125 C7.18 12.465 5.86 11.805 4.5 11.125 C4.5 10.135 4.5 9.145 4.5 8.125 C6.43558599 7.45279649 8.37354372 6.78741923 10.3125 6.125 C11.39144531 5.75375 12.47039062 5.3825 13.58203125 5 C16.5 4.125 16.5 4.125 19.5 4.125 C19.995 6.105 19.995 6.105 20.5 8.125 C21.221875 7.465 21.94375 6.805 22.6875 6.125 C25.72207622 3.96707914 26.8829832 3.53845673 30.5 4.125 C32.5 6.125 32.5 6.125 32.75 9.125 C32.5 12.125 32.5 12.125 30.5 14.125 C28.37109375 14.28515625 28.37109375 14.28515625 25.9375 14.1875 C24.45918728 14.13309809 22.97917459 14.10473733 21.5 14.125 C20.29504091 15.10907311 20.29504091 15.10907311 20.38647461 16.98266602 C20.39171143 17.77342529 20.39694824 18.56418457 20.40234375 19.37890625 C20.40556641 20.23291016 20.40878906 21.08691406 20.41210938 21.96679688 C20.42048828 22.86462891 20.42886719 23.76246094 20.4375 24.6875 C20.44201172 25.58919922 20.44652344 26.49089844 20.45117188 27.41992188 C20.46299775 29.65501314 20.4794778 31.88997437 20.5 34.125 C21.49 34.455 22.48 34.785 23.5 35.125 C23.5 36.115 23.5 37.105 23.5 38.125 C17.23 38.125 10.96 38.125 4.5 38.125 C4.17 40.435 3.84 42.745 3.5 45.125 C-0.52994332 49.3852258 -5.13342066 50.9157846 -10.90234375 51.42578125 C-22.75507603 51.46507208 -22.75507603 51.46507208 -28.5 48.125 C-29.5 47.125 -29.5 47.125 -29.75 44.3125 C-29.47826344 40.84785889 -28.81309135 39.63084896 -26.5 37.125 C-27.16 36.465 -27.82 35.805 -28.5 35.125 C-28.87942388 32.16549371 -28.95422179 30.72374691 -27.125 28.3125 C-25.5 27.125 -25.5 27.125 -23.5 27.125 C-24.7375 25.6090625 -24.7375 25.6090625 -26 24.0625 C-27.89580876 21.36273795 -28.53136792 19.96530878 -29.1875 16.625 C-28.24993824 11.85195833 -26.23377652 9.18967055 -22.5 6.125 C-17.00434034 3.6363994 -12.27918483 4.15525016 -6.5 5.125 C-6.190625 4.485625 -5.88125 3.84625 -5.5625 3.1875 C-3.99393605 0.14264057 -3.99393605 0.14264057 0 0 Z " fill="#0E0E0E" transform="translate(330.5,230.875)"/>
<path d="M0 0 C0.01458252 0.89831543 0.02916504 1.79663086 0.04418945 2.72216797 C0.10519697 6.0510659 0.17933628 9.37912883 0.26245117 12.70751953 C0.29573178 14.14881342 0.32375404 15.59023863 0.34643555 17.03173828 C0.3799262 19.10245797 0.432233 21.17197093 0.48828125 23.2421875 C0.51446533 24.4885498 0.54064941 25.73491211 0.56762695 27.01904297 C0.78165161 28.4946167 0.78165161 28.4946167 1 30 C1.99 30.66 2.98 31.32 4 32 C4 32.99 4 33.98 4 35 C-1.94 35 -7.88 35 -14 35 C-14.33 34.34 -14.66 33.68 -15 33 C-15.99 33.66 -16.98 34.32 -18 35 C-22.2475253 35.30891093 -25.3586453 35.33046701 -29 33 C-29.99 33.66 -30.98 34.32 -32 35 C-37.33255727 35.71250765 -42.33731054 36.24701709 -46.75 32.9375 C-48.32570694 29.23458869 -48.64073681 26.98680681 -48 23 C-44.64522719 18.78257133 -40.88982785 15.45792657 -35.4609375 14.59765625 C-32.97404971 14.34196215 -30.49582678 14.1405417 -28 14 C-28.33 11.69 -28.66 9.38 -29 7 C-31.475 6.505 -31.475 6.505 -34 6 C-34.30292969 6.5775 -34.60585937 7.155 -34.91796875 7.75 C-36.16914506 9.9674694 -37.40442705 12.0142054 -39 14 C-41.6875 14.625 -41.6875 14.625 -44 14 C-44.66 13.34 -45.32 12.68 -46 12 C-45.91504187 8.09192596 -45.48006016 6.48006016 -42.6875 3.6875 C-37.08211033 0.16783672 -31.10269082 0.34366156 -24.75 1.6875 C-21.20622871 3.37884539 -20.02604647 4.60036271 -18 8 C-17.51380715 11.61782493 -17.62281638 15.17064609 -17.75 18.8125 C-17.76804687 19.79154297 -17.78609375 20.77058594 -17.8046875 21.77929688 C-17.85167113 24.18720771 -17.91734306 26.59309335 -18 29 C-17.4225 29.144375 -16.845 29.28875 -16.25 29.4375 C-13.125 30.21875 -13.125 30.21875 -10 31 C-10.08060591 27.37407004 -10.19346817 23.74985598 -10.3125 20.125 C-10.34633789 18.57619141 -10.34633789 18.57619141 -10.38085938 16.99609375 C-10.41630859 16.00996094 -10.45175781 15.02382812 -10.48828125 14.0078125 C-10.51446533 13.09660645 -10.54064941 12.18540039 -10.56762695 11.24658203 C-10.78165161 10.13452393 -10.78165161 10.13452393 -11 9 C-11.99 8.34 -12.98 7.68 -14 7 C-14 6.01 -14 5.02 -14 4 C-12.0429132 3.32968281 -10.08428887 2.66385317 -8.125 2 C-7.03445312 1.62875 -5.94390625 1.2575 -4.8203125 0.875 C-2 0 -2 0 0 0 Z " fill="#0E0E0E" transform="translate(130,234)"/>
<path d="M0 0 C0 0.99 0 1.98 0 3 C0.825 2.484375 1.65 1.96875 2.5 1.4375 C6.65417445 -0.26867879 9.78565743 -0.37679717 14 1 C18.25559044 3.43712228 20.50056389 6.35856367 22 11 C22.903854 18.03114334 22.35007583 24.24055381 18 30 C13.82090746 33.88752795 10.53086679 34.43058492 5.05078125 34.3359375 C3 34 3 34 0 32 C0.33 35.3 0.66 38.6 1 42 C1.99 42.33 2.98 42.66 4 43 C4 43.99 4 44.98 4 46 C-1.94 46 -7.88 46 -14 46 C-14 45.01 -14 44.02 -14 43 C-13.01 43 -12.02 43 -11 43 C-10.92594705 38.19453321 -10.87144503 33.3893971 -10.83520508 28.58349609 C-10.82010089 26.94802059 -10.79961611 25.31258571 -10.77368164 23.67724609 C-10.73736855 21.32899976 -10.72029068 18.98128795 -10.70703125 16.6328125 C-10.69154739 15.89942657 -10.67606354 15.16604065 -10.66011047 14.41043091 C-10.62445364 12.1291908 -10.62445364 12.1291908 -11 9 C-11.99 8.34 -12.98 7.68 -14 7 C-14 5.68 -14 4.36 -14 3 C-12.4188708 2.49307308 -10.83498617 1.99473557 -9.25 1.5 C-7.92742187 1.08234375 -7.92742187 1.08234375 -6.578125 0.65625 C-4 0 -4 0 0 0 Z " fill="#0A0A0A" transform="translate(407,235)"/>
<path d="M0 0 C0 6.6 0 13.2 0 20 C2.31 18.68 4.62 17.36 7 16 C12.3219751 16 15.20129531 17.31302192 19 21 C20.25838557 23.51677113 20.20818973 25.41293288 20.31640625 28.2265625 C20.35830078 29.2578125 20.40019531 30.2890625 20.44335938 31.3515625 C20.48267578 32.43179688 20.52199219 33.51203125 20.5625 34.625 C20.60568359 35.71296875 20.64886719 36.8009375 20.69335938 37.921875 C20.7996453 40.6144517 20.90168057 43.30712253 21 46 C21.99 46.495 21.99 46.495 23 47 C23 47.99 23 48.98 23 50 C17.39 50 11.78 50 6 50 C6 49.01 6 48.02 6 47 C6.73234863 46.30124756 6.73234863 46.30124756 7.47949219 45.58837891 C9.46790776 43.51120619 9.36235759 42.42075012 9.328125 39.5859375 C9.32296875 38.74289062 9.3178125 37.89984375 9.3125 37.03125 C9.291875 36.1546875 9.27125 35.278125 9.25 34.375 C9.24484375 33.49070313 9.2396875 32.60640625 9.234375 31.6953125 C9.5492868 27.51917487 9.5492868 27.51917487 8 24 C5.66055264 24.28730055 3.3260857 24.61936779 1 25 C0.91314713 28.29150125 0.85966105 31.5827096 0.8125 34.875 C0.78736328 35.81214844 0.76222656 36.74929687 0.73632812 37.71484375 C0.72666016 38.61074219 0.71699219 39.50664062 0.70703125 40.4296875 C0.6913208 41.25710449 0.67561035 42.08452148 0.65942383 42.93701172 C0.82800903 43.95819092 0.82800903 43.95819092 1 45 C1.99 45.66 2.98 46.32 4 47 C4 47.99 4 48.98 4 50 C-1.94 50 -7.88 50 -14 50 C-14 49.01 -14 48.02 -14 47 C-13.01 46.34 -12.02 45.68 -11 45 C-10.69582772 42.25747556 -10.57994202 39.74447373 -10.6015625 37 C-10.59869232 36.20851562 -10.59582214 35.41703125 -10.59286499 34.6015625 C-10.59082223 32.92707606 -10.59636693 31.25256588 -10.60888672 29.578125 C-10.62493828 27.00987571 -10.60904617 24.44320014 -10.58984375 21.875 C-10.59182615 20.24999651 -10.59566975 18.62499401 -10.6015625 17 C-10.59548981 16.22914063 -10.58941711 15.45828125 -10.5831604 14.6640625 C-10.5798252 12.27165174 -10.5798252 12.27165174 -11 9 C-11.99 8.34 -12.98 7.68 -14 7 C-14 5.68 -14 4.36 -14 3 C-12.23050388 2.49528803 -10.45934777 1.99639315 -8.6875 1.5 C-7.70136719 1.2215625 -6.71523438 0.943125 -5.69921875 0.65625 C-3 0 -3 0 0 0 Z " fill="#0B0B0B" transform="translate(441,219)"/>
<path d="M0 0 C12.87 0 25.74 0 39 0 C42.375 10.125 42.375 10.125 42 14 C37.55659955 13.29022269 35.78404904 10.92009162 32.87890625 7.69140625 C30.72415124 5.55599284 30.72415124 5.55599284 26 4 C26.495 23.8 26.495 23.8 27 44 C28.65 44.33 30.3 44.66 32 45 C32 46.32 32 47.64 32 49 C24.08 49 16.16 49 8 49 C8 47.68 8 46.36 8 45 C10.475 44.505 10.475 44.505 13 44 C13.33 30.8 13.66 17.6 14 4 C6.98565896 7.50717052 5.39134138 8.47945654 1 14 C0.01 14 -0.98 14 -2 14 C-1.85795259 12.41632253 -1.71119847 10.83306682 -1.5625 9.25 C-1.48128906 8.36828125 -1.40007812 7.4865625 -1.31640625 6.578125 C-1 4 -1 4 0 0 Z " fill="#111111" transform="translate(193,220)"/>
<path d="M0 0 C2.15749784 3.23624676 2.28360488 4.34394066 2.4140625 8.10546875 C2.45273437 9.08837891 2.49140625 10.07128906 2.53125 11.08398438 C2.5621875 12.10814453 2.593125 13.13230469 2.625 14.1875 C2.66367187 15.22326172 2.70234375 16.25902344 2.7421875 17.32617188 C2.83648296 19.88393622 2.92208202 22.44169287 3 25 C3.99 25.33 4.98 25.66 6 26 C4.25 29.875 4.25 29.875 2 31 C-2.23971058 31.23553948 -5.36178302 31.32845886 -9 29 C-9.99 29.66 -10.98 30.32 -12 31 C-16.78663517 31.62847424 -21.37604098 31.86862924 -25.6875 29.5625 C-27.67430929 25.68349139 -27.98879011 22.25179749 -27 18 C-23.18308378 13.61054634 -18.60563168 11.4503277 -13 10 C-10 9.8125 -10 9.8125 -8 10 C-8.33 7.36 -8.66 4.72 -9 2 C-10.65 2 -12.3 2 -14 2 C-14.45375 2.94875 -14.9075 3.8975 -15.375 4.875 C-17 8 -17 8 -19 10 C-21.625 9.625 -21.625 9.625 -24 9 C-24.75 6.8125 -24.75 6.8125 -25 4 C-23.12408857 0.77343234 -21.62202076 -0.70312645 -18.25 -2.3125 C-11.17908864 -3.80826971 -6.28962476 -3.39639737 0 0 Z " fill="#0B0B0B" transform="translate(389,238)"/>
<path d="M0 0 C4.04606543 2.60746439 6.17567045 5.85725568 8.8125 9.8125 C8.8125 12.1225 8.8125 14.4325 8.8125 16.8125 C1.8825 16.8125 -5.0475 16.8125 -12.1875 16.8125 C-11.1975 19.1225 -10.2075 21.4325 -9.1875 23.8125 C-8.8575 24.8025 -8.5275 25.7925 -8.1875 26.8125 C-6.60503293 26.89403933 -5.02133727 26.95193557 -3.4375 27 C-2.55578125 27.03480469 -1.6740625 27.06960938 -0.765625 27.10546875 C2.28026286 26.75934513 3.42816649 25.64082297 5.8125 23.8125 C6.8025 24.1425 7.7925 24.4725 8.8125 24.8125 C6.7170549 28.89310362 4.93101408 30.79656534 0.8125 32.8125 C-5.03877623 33.70130145 -11.2492756 34.05457721 -16.3125 30.625 C-19.78361189 27.79235688 -21.92278795 24.41180197 -22.65625 19.98046875 C-22.7293078 13.01258116 -22.12290897 7.98411242 -17.1875 2.8125 C-11.8357005 -1.66216371 -6.50220945 -2.42239176 0 0 Z " fill="#101010" transform="translate(246.1875,236.1875)"/>
<path d="M0 0 C4.32633002 2.24636367 7.48567037 4.80945061 10 9 C10.33 11.97 10.66 14.94 11 18 C4.07 18 -2.86 18 -10 18 C-7.97384121 25.77277038 -7.97384121 25.77277038 -4 28 C1.36595594 28.42586952 3.83362624 28.5491332 8 25 C8.99 25.33 9.98 25.66 11 26 C9.83855163 29.25205544 8.05114432 31.4015102 5.10546875 33.234375 C-0.89481453 35.41629619 -7.80435119 34.96300386 -13.5625 32.4375 C-18.26473771 27.73526229 -20.22443878 24.15926224 -20.5625 17.5625 C-20.33153533 11.95775733 -18.82828533 8.10863955 -15 4 C-10.32268593 -0.00750453 -5.93403684 -0.75352849 0 0 Z " fill="#0F0F0F" transform="translate(290,235)"/>
<path d="M0 0 C5.03524611 0.24763505 9.0591944 0.62216663 13 4 C15.94313729 9.54338479 16.51475823 14.14984078 16.4375 20.375 C16.42722778 21.63473633 16.42722778 21.63473633 16.41674805 22.91992188 C16.26232148 28.86563403 15.76333274 34.15085323 12 39 C8.99632276 41.7533708 6.69595828 42.1583974 2.75 42.25 C-1 42 -1 42 -2 41 C-2.11349161 38.13905783 -2.16418492 35.30316544 -2.16796875 32.44140625 C-2.17129715 31.58191879 -2.17462555 30.72243134 -2.17805481 29.8368988 C-2.1831277 28.01521339 -2.18546302 26.19351864 -2.18530273 24.37182617 C-2.18748803 21.5778071 -2.20563644 18.78418343 -2.22460938 15.99023438 C-2.2275434 14.22395969 -2.22952814 12.45768312 -2.23046875 10.69140625 C-2.23765427 9.85178848 -2.24483978 9.01217072 -2.25224304 8.14710999 C-2.22882181 2.22882181 -2.22882181 2.22882181 0 0 Z " fill="#F7F7F7" transform="translate(55,223)"/>
<path d="M0 0 C5.61 0 11.22 0 17 0 C16.67 2.64 16.34 5.28 16 8 C16.89226775 10.97548978 16.89226775 10.97548978 18.4375 13.5 C18.91058594 14.3559375 19.38367188 15.211875 19.87109375 16.09375 C20.24363281 16.7228125 20.61617187 17.351875 21 18 C24.24558406 11.24494398 24.24558406 11.24494398 26 4 C24.68 3.67 23.36 3.34 22 3 C22 2.01 22 1.02 22 0 C26.62 0 31.24 0 36 0 C36 0.99 36 1.98 36 3 C35.23179932 3.60231445 34.46359863 4.20462891 33.67211914 4.82519531 C30.60843664 7.31868857 29.70831414 9.16133275 28.24609375 12.796875 C27.78396484 13.9209375 27.32183594 15.045 26.84570312 16.203125 C26.38099609 17.37359375 25.91628906 18.5440625 25.4375 19.75 C16.44975191 41.90411908 16.44975191 41.90411908 10 45 C6.72243273 45.44986217 4.9328329 45.54164491 2.0625 43.875 C0.46056512 41.04805609 1.20415681 39.05073223 2 36 C3 35 3 35 5.4375 34.8125 C8 35 8 35 10 37 C10.99 37 11.98 37 13 37 C15.27938745 34.26759683 15.27938745 34.26759683 14.765625 31.62890625 C13.97328889 28.90828278 12.96889787 26.49487116 11.75 23.9375 C9.36969933 18.88193345 7.29441774 13.75348609 5.30859375 8.53125 C3.8792815 5.76649078 2.47002838 4.79638428 0 3 C0 2.01 0 1.02 0 0 Z " fill="#0D0D0D" transform="translate(151,236)"/>
<path d="M0 0 C0.33 15.18 0.66 30.36 1 46 C2.485 46.495 2.485 46.495 4 47 C4 47.99 4 48.98 4 50 C-1.94 50 -7.88 50 -14 50 C-14 49.01 -14 48.02 -14 47 C-13.01 46.34 -12.02 45.68 -11 45 C-10.7332384 42.23371085 -10.65195811 39.69380369 -10.70703125 36.9296875 C-10.71127609 36.13345978 -10.71552094 35.33723206 -10.71989441 34.51687622 C-10.73671166 31.96924271 -10.77436821 29.42239511 -10.8125 26.875 C-10.82754295 25.14975099 -10.84123204 23.42448961 -10.85351562 21.69921875 C-10.88662499 17.46584218 -10.93842715 13.23305441 -11 9 C-12.32 8.34 -13.64 7.68 -15 7 C-14.765625 5.109375 -14.765625 5.109375 -14 3 C-12.109375 1.953125 -12.109375 1.953125 -9.75 1.25 C-8.98171875 1.00765625 -8.2134375 0.7653125 -7.421875 0.515625 C-5 0 -5 0 0 0 Z " fill="#0D0D0D" transform="translate(150,219)"/>
<path d="M0 0 C0.33 15.18 0.66 30.36 1 46 C1.66 46.33 2.32 46.66 3 47 C3 47.66 3 48.32 3 49 C-2.61 49 -8.22 49 -14 49 C-14 48.34 -14 47.68 -14 47 C-13.26656372 46.44155396 -13.26656372 46.44155396 -12.51831055 45.87182617 C-10.12829841 42.92533589 -10.63220393 39.6757085 -10.70703125 36.05078125 C-10.71127609 35.27816452 -10.71552094 34.50554779 -10.71989441 33.70951843 C-10.73667817 31.24349008 -10.77432853 28.77828104 -10.8125 26.3125 C-10.82754729 24.63998577 -10.84123562 22.96745872 -10.85351562 21.29492188 C-10.88658054 17.19629922 -10.93835972 13.09828849 -11 9 C-12.32 8.34 -13.64 7.68 -15 7 C-14.765625 5.109375 -14.765625 5.109375 -14 3 C-12.109375 1.953125 -12.109375 1.953125 -9.75 1.25 C-8.98171875 1.00765625 -8.2134375 0.7653125 -7.421875 0.515625 C-5 0 -5 0 0 0 Z " fill="#0B0B0B" transform="translate(268,219)"/>
<path d="M0 0 C0.33 1.32 0.66 2.64 1 4 C2.0828125 3.01 2.0828125 3.01 3.1875 2 C6.22207622 -0.15792086 7.3829832 -0.58654327 11 0 C13 2 13 2 13.25 5 C13 8 13 8 11 10 C8.87109375 10.16015625 8.87109375 10.16015625 6.4375 10.0625 C4.95918728 10.00809809 3.47917459 9.97973733 2 10 C0.79504091 10.98407311 0.79504091 10.98407311 0.88647461 12.85766602 C0.89171143 13.64842529 0.89694824 14.43918457 0.90234375 15.25390625 C0.90556641 16.10791016 0.90878906 16.96191406 0.91210938 17.84179688 C0.92048828 18.73962891 0.92886719 19.63746094 0.9375 20.5625 C0.94201172 21.46419922 0.94652344 22.36589844 0.95117188 23.29492188 C0.96299775 25.53001314 0.9794778 27.76497437 1 30 C1.99 30.33 2.98 30.66 4 31 C4 31.66 4 32.32 4 33 C-2.27 33 -8.54 33 -15 33 C-15 32.34 -15 31.68 -15 31 C-13.68 30.34 -12.36 29.68 -11 29 C-11 22.4 -11 15.8 -11 9 C-12.32 8.34 -13.64 7.68 -15 7 C-15 6.01 -15 5.02 -15 4 C-13.06441401 3.32779649 -11.12645628 2.66241923 -9.1875 2 C-8.10855469 1.62875 -7.02960938 1.2575 -5.91796875 0.875 C-3 0 -3 0 0 0 Z " fill="#0A0A0A" transform="translate(350,235)"/>
<path d="M0 0 C0.01458252 0.89831543 0.02916504 1.79663086 0.04418945 2.72216797 C0.10519697 6.0510659 0.17933628 9.37912883 0.26245117 12.70751953 C0.29573178 14.14881342 0.32375404 15.59023863 0.34643555 17.03173828 C0.3799262 19.10245797 0.432233 21.17197093 0.48828125 23.2421875 C0.51446533 24.4885498 0.54064941 25.73491211 0.56762695 27.01904297 C0.71031006 28.00275879 0.85299316 28.98647461 1 30 C1.99 30.66 2.98 31.32 4 32 C4 32.66 4 33.32 4 34 C-1.61 34 -7.22 34 -13 34 C-13 33.34 -13 32.68 -13 32 C-12.34 31.67 -11.68 31.34 -11 31 C-10.91318524 27.37515001 -10.85967279 23.75056557 -10.8125 20.125 C-10.78736328 19.09246094 -10.76222656 18.05992187 -10.73632812 16.99609375 C-10.72666016 16.00996094 -10.71699219 15.02382812 -10.70703125 14.0078125 C-10.6913208 13.09660645 -10.67561035 12.18540039 -10.65942383 11.24658203 C-10.82800903 10.13452393 -10.82800903 10.13452393 -11 9 C-11.99 8.34 -12.98 7.68 -14 7 C-14 6.01 -14 5.02 -14 4 C-12.0429132 3.32968281 -10.08428887 2.66385317 -8.125 2 C-7.03445312 1.62875 -5.94390625 1.2575 -4.8203125 0.875 C-2 0 -2 0 0 0 Z " fill="#070707" transform="translate(130,234)"/>
<path d="M0 0 C3.3 0 6.6 0 10 0 C9.01 0.495 9.01 0.495 8 1 C8 1.99 8 2.98 8 4 C8.9590625 4.2165625 8.9590625 4.2165625 9.9375 4.4375 C12 5 12 5 13 6 C13.25035974 9.30516934 13.18521952 12.62396041 13.1875 15.9375 C13.19974609 16.87013672 13.21199219 17.80277344 13.22460938 18.76367188 C13.22750977 20.10075195 13.22750977 20.10075195 13.23046875 21.46484375 C13.23457764 22.285896 13.23868652 23.10694824 13.24291992 23.95288086 C13 26 13 26 11 28 C10.01 28 9.02 28 8 28 C7.67 28.66 7.34 29.32 7 30 C6.59676514 29.52457764 6.19353027 29.04915527 5.77807617 28.55932617 C3.64113323 26.68528326 2.34242874 26.44423492 -0.44921875 26.05078125 C-1.72055664 25.86225586 -1.72055664 25.86225586 -3.01757812 25.66992188 C-3.89865234 25.55197266 -4.77972656 25.43402344 -5.6875 25.3125 C-6.58017578 25.18294922 -7.47285156 25.05339844 -8.39257812 24.91992188 C-10.59371344 24.60211089 -12.79583564 24.29593975 -15 24 C-15.33 23.01 -15.66 22.02 -16 21 C-15.20335937 20.97421875 -14.40671875 20.9484375 -13.5859375 20.921875 C-7.19543886 20.57980451 -2.8423135 20.33259629 2 16 C4.50304378 12.24543433 4.45280074 10.45254066 4 6 C2.1353694 2.6167447 2.1353694 2.6167447 0 0 Z " fill="#ECECEC" transform="translate(327,238)"/>
<path d="M0 0 C0.33 0 0.66 0 1 0 C1.04942899 4.92959122 1.08573318 9.85903825 1.10986328 14.78881836 C1.11992237 16.46592725 1.13357122 18.14301861 1.15087891 19.82006836 C1.17513152 22.23035002 1.1864839 24.64039986 1.1953125 27.05078125 C1.20563507 27.80087967 1.21595764 28.55097809 1.22659302 29.32380676 C1.227408 33.10300779 1.15057067 34.77414399 -1 38 C-1.66 38 -2.32 38 -3 38 C-3 38.66 -3 39.32 -3 40 C2.61 40 8.22 40 14 40 C14.495 39.01 14.495 39.01 15 38 C15 38.99 15 39.98 15 41 C8.73 41 2.46 41 -4 41 C-4 35 -4 35 -3 33 C-3.61875 33.309375 -4.2375 33.61875 -4.875 33.9375 C-8.98189876 35.99094938 -12.3929484 36.7766677 -17 36 C-21.80918004 32.5210187 -21.98042134 31.11747196 -23 25 C-15.74 24.67 -8.48 24.34 -1 24 C-0.67 16.08 -0.34 8.16 0 0 Z " fill="#FAFAFA" transform="translate(257,228)"/>
<path d="M0 0 C3.03812803 3.16198457 3.4082694 5.49302345 3.375 9.8125 C3.22362429 14.97188893 2.88332367 18.67501449 0 23 C-3 24.125 -3 24.125 -6 24 C-8.08673796 22.44622247 -8.89392114 21.5348169 -9.40405273 18.96289062 C-9.4359257 16.4741652 -9.45784049 13.98893646 -9.4375 11.5 C-9.45748047 10.63246094 -9.47746094 9.76492187 -9.49804688 8.87109375 C-9.49316507 2.55403691 -9.49316507 2.55403691 -7.1328125 -0.09765625 C-4.26668213 -1.31024987 -2.89204385 -1.11232456 0 0 Z " fill="#F5F5F5" transform="translate(416,241)"/>
<path d="M0 0 C0.66 0 1.32 0 2 0 C2.268125 1.093125 2.53625 2.18625 2.8125 3.3125 C3.91358648 6.73166327 4.42474926 7.77591981 7 10 C7 12 7 12 4.5 14.625 C3.675 15.40875 2.85 16.1925 2 17 C1.34 16.67 0.68 16.34 0 16 C-3.18490007 15.7226499 -3.18490007 15.7226499 -6 18 C-12.91998359 18.78128847 -12.91998359 18.78128847 -16.9375 15.875 C-19 13 -19 13 -20 7 C-13.07 7 -6.14 7 1 7 C0.67 4.69 0.34 2.38 0 0 Z " fill="#F7F7F7" transform="translate(300,246)"/>
<path d="M0 0 C2.40179685 2.40179685 2.25598087 2.96950007 2.265625 6.24609375 C2.26820313 7.08333984 2.27078125 7.92058594 2.2734375 8.78320312 C2.26570313 9.65912109 2.25796875 10.53503906 2.25 11.4375 C2.25773437 12.30955078 2.26546875 13.18160156 2.2734375 14.08007812 C2.27085937 14.91861328 2.26828125 15.75714844 2.265625 16.62109375 C2.26336914 17.3886499 2.26111328 18.15620605 2.25878906 18.94702148 C2 21 2 21 0 24 C-0.66 24 -1.32 24 -2 24 C-2 24.99 -2 25.98 -2 27 C-2.66 27 -3.32 27 -4 27 C-4 26.01 -4 25.02 -4 24 C-5.32 23.34 -6.64 22.68 -8 22 C-8.08685287 18.70849875 -8.14033895 15.4172904 -8.1875 12.125 C-8.21263672 11.18785156 -8.23777344 10.25070313 -8.26367188 9.28515625 C-8.27333984 8.38925781 -8.28300781 7.49335938 -8.29296875 6.5703125 C-8.3086792 5.74289551 -8.32438965 4.91547852 -8.34057617 4.06298828 C-8.22818604 3.38220215 -8.1157959 2.70141602 -8 2 C-4.77626323 -0.14915785 -3.73296326 -0.38286803 0 0 Z " fill="#EEEEEE" transform="translate(449,242)"/>
<path d="M0 0 C0.33 0.99 0.66 1.98 1 3 C2.32 3.66 3.64 4.32 5 5 C5 15.56 5 26.12 5 37 C4.67 37 4.34 37 4 37 C3.67 33.04 3.34 29.08 3 25 C1.68 24.67 0.36 24.34 -1 24 C-1.33 16.41 -1.66 8.82 -2 1 C-1.34 0.67 -0.68 0.34 0 0 Z " fill="#EEEEEE" transform="translate(392,239)"/>
<path d="M0 0 C0.763125 0.0825 1.52625 0.165 2.3125 0.25 C5.5814803 5.48036848 5.65060675 8.41967773 4.3125 14.25 C3 16.25 3 16.25 1.3125 17.25 C-0.0075 17.25 -1.3275 17.25 -2.6875 17.25 C-5.19360785 14.38587674 -5.90980776 11.9006976 -6.0625 8.1875 C-5.60821629 3.41752107 -5.17033726 0.48096161 0 0 Z " fill="#ECECEC" transform="translate(317.6875,238.75)"/>
<path d="M0 0 C4.875 0.875 4.875 0.875 6 2 C6.04092937 4.33297433 6.04241723 6.66705225 6 9 C5.19175781 9.18175781 4.38351563 9.36351562 3.55078125 9.55078125 C2.48214844 9.80214844 1.41351563 10.05351562 0.3125 10.3125 C-1.27111328 10.67794922 -1.27111328 10.67794922 -2.88671875 11.05078125 C-7.55299118 12.47349668 -10.27658289 13.91487433 -13 18 C-13.39013716 19.9896995 -13.73202649 21.99019869 -14 24 C-14.66 23.01 -15.32 22.02 -16 21 C-16.66 21.33 -17.32 21.66 -18 22 C-17.71125 21.29875 -17.4225 20.5975 -17.125 19.875 C-14.89356299 14.17243875 -13.62819543 9.07255585 -13 3 C-12.690625 3.639375 -12.38125 4.27875 -12.0625 4.9375 C-11.1654837 6.93610821 -11.1654837 6.93610821 -10 8 C-7.67484501 8.75342517 -7.67484501 8.75342517 -5 8 C-2.9932924 5.51472799 -1.48116697 2.8236715 0 0 Z " fill="#EFEFEF" transform="translate(96,239)"/>
<path d="M0 0 C0.99 0 1.98 0 3 0 C3 1.65 3 3.3 3 5 C3.763125 5 4.52625 5 5.3125 5 C7.875 5 10.4375 5 13 5 C13 5.66 13 6.32 13 7 C13.99 7.33 14.98 7.66 16 8 C16 7.34 16 6.68 16 6 C16.66 6 17.32 6 18 6 C18 6.99 18 7.98 18 9 C16.02 9 14.04 9 12 9 C12.33 9.66 12.66 10.32 13 11 C14.65 11 16.3 11 18 11 C18 11.66 18 12.32 18 13 C13.64667264 13.84023188 9.55557481 14.10770995 5.125 14.0625 C3.97257812 14.05347656 2.82015625 14.04445312 1.6328125 14.03515625 C0.76398438 14.02355469 -0.10484375 14.01195312 -1 14 C-1.02685938 11.85423363 -1.04633088 9.70837355 -1.0625 7.5625 C-1.07410156 6.36753906 -1.08570312 5.17257813 -1.09765625 3.94140625 C-1 1 -1 1 0 0 Z " fill="#646464" transform="translate(95,219)"/>
<path d="M0 0 C1.875 1.125 1.875 1.125 3 3 C3.54400387 6.65259739 3.43774093 8.3433886 1.375 11.4375 C-1 13 -1 13 -4.125 12.875 C-7 12 -7 12 -9 10 C-9.55021834 3.94759825 -9.55021834 3.94759825 -7.875 1.0625 C-5.11019567 -0.50422245 -3.11811483 -0.38976435 0 0 Z " fill="#0C0C0C" transform="translate(128,220)"/>
<path d="M0 0 C0.08086147 1.79093191 0.13912702 3.58289628 0.1875 5.375 C0.22230469 6.37273437 0.25710937 7.37046875 0.29296875 8.3984375 C0.19628906 9.25695312 0.09960938 10.11546875 0 11 C-3.22373677 13.14915785 -4.26703674 13.38286803 -8 13 C-10 11 -10 11 -10.4375 8.6875 C-9.81702912 4.87603602 -7.87099283 3.46085099 -5 1 C-3 0 -3 0 0 0 Z " fill="#E6E6E6" transform="translate(102,251)"/>
<path d="M0 0 C2.99442099 3.61395637 3 5.12507657 3 10 C-0.96 10 -4.92 10 -9 10 C-8.39779006 3.61657459 -8.39779006 3.61657459 -6.75 1.0625 C-4.26010779 -0.44922027 -2.85375301 -0.5707506 0 0 Z " fill="#E9E9E9" transform="translate(243,239)"/>
<path d="M0 0 C2.99442099 3.61395637 3 5.12507657 3 10 C-0.96 10 -4.92 10 -9 10 C-8.39779006 3.61657459 -8.39779006 3.61657459 -6.75 1.0625 C-4.26010779 -0.44922027 -2.85375301 -0.5707506 0 0 Z " fill="#EBEBEB" transform="translate(289,239)"/>
<path d="M0 0 C2.10448938 0.14109986 4.2085877 0.28804175 6.3125 0.4375 C8.07013672 0.55931641 8.07013672 0.55931641 9.86328125 0.68359375 C13 1 13 1 16 2 C15.125 5.875 15.125 5.875 14 7 C11.85692104 7.12537741 9.70921114 7.17574364 7.5625 7.1875 C6.38816406 7.20167969 5.21382813 7.21585937 4.00390625 7.23046875 C1 7 1 7 -1 5 C-0.625 2.375 -0.625 2.375 0 0 Z " fill="#F6F6F6" transform="translate(310,271)"/>
<path d="M0 0 C0.05395478 1.62463842 0.09277195 3.24978541 0.125 4.875 C0.14820313 5.77992188 0.17140625 6.68484375 0.1953125 7.6171875 C0 10 0 10 -2 12 C-5.0625 12.1875 -5.0625 12.1875 -8 12 C-9 11 -9 11 -9.375 7.6875 C-9 4 -9 4 -6.75 1.5625 C-4 0 -4 0 0 0 Z " fill="#F3F3F3" transform="translate(381,252)"/>
<path d="M0 0 C1.66611905 -0.042721 3.33382885 -0.04063832 5 0 C6 1 6 1 6.09765625 2.84765625 C6.04882812 5.92382812 6.04882812 5.92382812 6 9 C2.04 9.99 -1.92 10.98 -6 12 C-6 11.34 -6 10.68 -6 10 C-6.66 9.67 -7.32 9.34 -8 9 C-7.236875 8.62875 -6.47375 8.2575 -5.6875 7.875 C-2.47956885 5.6369085 -1.5022184 3.55788567 0 0 Z " fill="#EDEDED" transform="translate(375,239)"/>
<path d="M0 0 C0.33 0 0.66 0 1 0 C1.04942899 4.92959122 1.08573318 9.85903825 1.10986328 14.78881836 C1.11992237 16.46592725 1.13357122 18.14301861 1.15087891 19.82006836 C1.17513152 22.23035002 1.1864839 24.64039986 1.1953125 27.05078125 C1.20563507 27.80087967 1.21595764 28.55097809 1.22659302 29.32380676 C1.227408 33.10300779 1.15057067 34.77414399 -1 38 C-1.66 38 -2.32 38 -3 38 C-3 38.66 -3 39.32 -3 40 C2.61 40 8.22 40 14 40 C14.33 39.34 14.66 38.68 15 38 C15 38.99 15 39.98 15 41 C8.73 41 2.46 41 -4 41 C-4 39.02 -4 37.04 -4 35 C-2.515 34.505 -2.515 34.505 -1 34 C-0.67 22.78 -0.34 11.56 0 0 Z " fill="#979797" transform="translate(257,228)"/>
<path d="M0 0 C3.63 0 7.26 0 11 0 C11.33 1.32 11.66 2.64 12 4 C11.34 4 10.68 4 10 4 C10 3.34 10 2.68 10 2 C9.34 2 8.68 2 8 2 C7.97301811 3.62490954 7.95361243 5.24994633 7.9375 6.875 C7.92589844 7.77992188 7.91429688 8.68484375 7.90234375 9.6171875 C7.83750743 12.0168585 7.83750743 12.0168585 9 14 C6.69 14 4.38 14 2 14 C2.33 13.34 2.66 12.68 3 12 C3.06996014 10.29297265 3.08440154 8.58331997 3.0625 6.875 C3.05347656 5.96492187 3.04445313 5.05484375 3.03515625 4.1171875 C3.02355469 3.41851562 3.01195313 2.71984375 3 2 C1.02 2.99 1.02 2.99 -1 4 C-0.67 2.68 -0.34 1.36 0 0 Z " fill="#2D2D2D" transform="translate(82,219)"/>
<path d="M0 0 C0.99 0 1.98 0 3 0 C3 1.65 3 3.3 3 5 C4.65 5 6.3 5 8 5 C8 7.64 8 10.28 8 13 C7.34 13 6.68 13 6 13 C6 10.69 6 8.38 6 6 C5.01 6.495 5.01 6.495 4 7 C3.34227572 10.02934491 3.34227572 10.02934491 3 13 C2.01 13 1.02 13 0 13 C-0.19397476 11.02145742 -0.38001321 9.0421352 -0.5625 7.0625 C-0.66691406 5.96035156 -0.77132812 4.85820312 -0.87890625 3.72265625 C-0.91886719 2.82417969 -0.95882812 1.92570313 -1 1 C-0.67 0.67 -0.34 0.34 0 0 Z " fill="#161616" transform="translate(95,219)"/>
<path d="M0 0 C0.33 0 0.66 0 1 0 C1 11.88 1 23.76 1 36 C0.34 35.01 -0.32 34.02 -1 33 C-1.66 33 -2.32 33 -3 33 C-2.86722656 32.37738281 -2.73445313 31.75476563 -2.59765625 31.11328125 C-0.62983455 20.81453558 -0.36149426 10.45688277 0 0 Z " fill="#EAEAEA" transform="translate(430,228)"/>
<path d="M0 0 C0.66 0 1.32 0 2 0 C2 0.66 2 1.32 2 2 C2.99 2.33 3.98 2.66 5 3 C5 2.34 5 1.68 5 1 C5.66 1 6.32 1 7 1 C7 1.99 7 2.98 7 4 C5.02 4 3.04 4 1 4 C1.33 4.66 1.66 5.32 2 6 C3.65 6 5.3 6 7 6 C7 6.66 7 7.32 7 8 C4.125 8.625 4.125 8.625 1 9 C-1 7 -1 7 -1.1875 3.9375 C-1 1 -1 1 0 0 Z " fill="#1F1F1F" transform="translate(106,224)"/>
<path d="M0 0 C2.96175123 0.61277612 4.38058783 1.25372522 7 3 C6.34 3 5.68 3 5 3 C5 3.66 5 4.32 5 5 C10.61 5 16.22 5 22 5 C22 5.33 22 5.66 22 6 C16.06 6 10.12 6 4 6 C3.67 5.34 3.34 4.68 3 4 C2.01 4.495 2.01 4.495 1 5 C0.67 3.35 0.34 1.7 0 0 Z " fill="#5B5B5B" transform="translate(112,263)"/>
<path d="M0 0 C0.66 0 1.32 0 2 0 C2.06058594 0.77085937 2.12117188 1.54171875 2.18359375 2.3359375 C2.26738281 3.33882812 2.35117188 4.34171875 2.4375 5.375 C2.51871094 6.37273437 2.59992188 7.37046875 2.68359375 8.3984375 C2.84965626 10.97927613 2.84965626 10.97927613 4 13 C1.69 13 -0.62 13 -3 13 C-2.67 12.34 -2.34 11.68 -2 11 C-1.34 11 -0.68 11 0 11 C0 7.37 0 3.74 0 0 Z " fill="#1D1D1D" transform="translate(87,220)"/>
<path d="M0 0 C0.99 0 1.98 0 3 0 C2.34 2.97 1.68 5.94 1 9 C0.34 8.01 -0.32 7.02 -1 6 C-1.99 6.495 -1.99 6.495 -3 7 C-1.125 2.25 -1.125 2.25 0 0 Z " fill="#E5E5E5" transform="translate(81,254)"/>
<path d="M0 0 C0.66 0 1.32 0 2 0 C2 1.98 2 3.96 2 6 C1.01 6 0.02 6 -1 6 C-1.042721 4.33388095 -1.04063832 2.66617115 -1 1 C-0.67 0.67 -0.34 0.34 0 0 Z " fill="#C4C4C4" transform="translate(99,225)"/>
</svg>
