<?xml version="1.0" encoding="UTF-8"?>
<svg version="1.1" xmlns="http://www.w3.org/2000/svg" width="500" height="500">
<path d="M0 0 C165 0 330 0 500 0 C500 165 500 330 500 500 C335 500 170 500 0 500 C0 335 0 170 0 0 Z " fill="#FEFEFE" transform="translate(0,0)"/>
<path d="M0 0 C0.66 0 1.32 0 2 0 C3.38959221 2.05634722 4.64202586 4.10097817 5.875 6.25 C6.68450078 7.63044007 7.49441854 9.01063568 8.3046875 10.390625 C8.7387793 11.13505859 9.17287109 11.87949219 9.62011719 12.64648438 C12.04628752 16.78453852 14.52686745 20.88990609 17 25 C18.02758183 26.71209671 19.05492814 28.4243348 20.08203125 30.13671875 C20.57654785 30.96091309 21.07106445 31.78510742 21.58056641 32.63427734 C43.91796875 69.86328125 43.91796875 69.86328125 45.44824219 72.41381836 C46.48395377 74.13995001 47.51976129 75.8660241 48.55566406 77.59204102 C50.83228574 81.38556514 53.10821799 85.17948328 55.37890625 88.9765625 C55.7445166 89.58701416 56.11012695 90.19746582 56.48681641 90.82641602 C57.19815334 92.01579849 57.90749858 93.20637464 58.61474609 94.39819336 C60.69075922 97.88113453 62.83380988 101.3095181 65.03515625 104.71484375 C65.54812256 105.52034668 66.06108887 106.32584961 66.58959961 107.15576172 C67.59071854 108.72501445 68.60529964 110.28578389 69.63500977 111.83642578 C70.08803467 112.55169434 70.54105957 113.26696289 71.0078125 114.00390625 C71.41660645 114.63111572 71.82540039 115.2583252 72.24658203 115.90454102 C73.6572942 119.8281128 72.41884754 123.09299284 70.72827148 126.75390625 C70.19790283 127.68074219 69.66753418 128.60757813 69.12109375 129.5625 C68.53400635 130.59882568 67.94691895 131.63515137 67.34204102 132.70288086 C66.71354248 133.79093018 66.08504395 134.87897949 65.4375 136 C64.47251587 137.69491577 64.47251587 137.69491577 63.48803711 139.42407227 C61.66633799 142.62049975 59.8339901 145.81061511 58 149 C57.27214592 150.27921389 56.54529192 151.55899849 55.8203125 152.83984375 C53.8939378 156.23454405 51.94961056 159.61861948 50 163 C49.48920898 163.8863916 48.97841797 164.7727832 48.45214844 165.68603516 C42.69258109 175.67886835 36.92760375 185.6685716 31.15234375 195.65234375 C24.70820951 206.79792163 18.30483618 217.96403649 11.98168945 229.17871094 C7.69614495 236.77690775 3.38819876 244.36211037 -0.9375 251.9375 C-1.27495239 252.52846466 -1.61240479 253.11942932 -1.96008301 253.728302 C-7.22490562 262.94268543 -12.55806068 272.11593368 -17.92163086 281.27319336 C-21.84310457 287.98128582 -25.69105652 294.72745349 -29.5 301.5 C-34.16241803 309.78946267 -38.89562532 318.03465196 -43.6875 326.25 C-44.28820312 327.28060547 -44.88890625 328.31121094 -45.5078125 329.37304688 C-49.73632812 336.60449219 -49.73632812 336.60449219 -52 340 C-54.52623177 340.36914349 -54.52623177 340.36914349 -57.78323364 340.36076355 C-59.63005737 340.36694954 -59.63005737 340.36694954 -61.51419067 340.3732605 C-62.88592746 340.36264237 -64.25766206 340.35173794 -65.62939453 340.34057617 C-67.06809471 340.33973032 -68.50679618 340.34020422 -69.94549561 340.34190369 C-73.85858822 340.34276671 -77.77140664 340.32509156 -81.68443537 340.30418181 C-85.77104469 340.28546598 -89.85765985 340.28366861 -93.94430542 340.28010559 C-101.68623009 340.2707701 -109.42802813 340.24613607 -117.16989696 340.21605712 C-125.98233339 340.1825598 -134.79477577 340.16603887 -143.60725999 340.15097082 C-161.7382452 340.11958775 -179.86911243 340.06679814 -198 340 C-197.03987805 338.23661874 -196.07937613 336.47344436 -195.11871338 334.71035767 C-194.31645514 333.23752288 -194.31645514 333.23752288 -193.49798965 331.73493385 C-191.86179919 328.74768178 -190.18782905 325.78533181 -188.484375 322.8359375 C-187.57546509 321.26078369 -187.57546509 321.26078369 -186.64819336 319.65380859 C-186.02178955 318.57180176 -185.39538574 317.48979492 -184.75 316.375 C-184.08142951 315.21828026 -183.41289153 314.06154173 -182.74438477 312.90478516 C-178.78406803 306.05695137 -174.80008091 299.22354163 -170.77832031 292.41162109 C-167.16298468 286.28753367 -163.58042241 280.14455312 -160 274 C-156.01301897 267.15893894 -152.02040964 260.32147356 -148 253.5 C-141.6293 242.68851636 -135.31859671 231.84198444 -129 221 C-115.42206269 197.70182292 -115.42206269 197.70182292 -108.81835938 186.49462891 C-102.84481072 176.34972902 -96.92790738 166.17160654 -91 156 C-77.42206269 132.70182292 -77.42206269 132.70182292 -70.81835938 121.49462891 C-64.84481072 111.34972902 -58.92790738 101.17160654 -53 91 C-39.40067939 67.66513164 -39.40067939 67.66513164 -34.1875 58.8125 C-22.68183045 39.2703905 -11.18262314 19.72960015 0 0 Z " fill="#ED1C24" transform="translate(339,80)"/>
<path d="M0 0 C79.86 0 159.72 0 242 0 C234.10620909 14.47195 226.15719733 28.92265862 217.59228516 43.01123047 C213.81869888 49.24298062 210.19535538 55.56048416 206.5625 61.875 C202.00756426 69.79128415 197.44126955 77.69893585 192.79296875 85.56079102 C190.30406103 89.77322599 187.8372638 93.99784446 185.3828125 98.23046875 C184.75125244 99.31827637 184.11969238 100.40608398 183.46899414 101.52685547 C182.22134978 103.67704088 180.97566535 105.82836503 179.73217773 107.98095703 C179.16184814 108.96306152 178.59151855 109.94516602 178.00390625 110.95703125 C177.24315796 112.27151245 177.24315796 112.27151245 176.46704102 113.61254883 C175.98291748 114.40040771 175.49879395 115.1882666 175 116 C174.67677765 116.69987534 174.3535553 117.39975067 174.02053833 118.12083435 C170.63404667 121.27038054 166.65197083 120.52126428 162.2043457 120.45410156 C161.19928986 120.45468567 160.19423401 120.45526978 159.15872192 120.45587158 C155.83072587 120.45308088 152.50362118 120.42194146 149.17578125 120.390625 C146.87078847 120.38316614 144.56578935 120.37747154 142.26078796 120.37347412 C136.18938742 120.35818995 130.11836867 120.31888374 124.04711914 120.2746582 C117.85373093 120.23376573 111.66028112 120.21547596 105.46679688 120.1953125 C93.31103002 120.15239253 81.15554674 120.08410724 69 120 C68.38942245 118.91202621 67.77884491 117.82405243 67.14976501 116.70310974 C66.33676605 115.25575382 65.52374077 113.80841269 64.71069336 112.36108398 C64.30968163 111.64636681 63.90866989 110.93164963 63.49550629 110.19527435 C60.26050284 104.43846655 56.94162045 98.7359588 53.5625 93.0625 C52.4347446 91.16154805 51.30714173 89.26050559 50.1796875 87.359375 C49.63666992 86.44478516 49.09365234 85.53019531 48.53417969 84.58789062 C46.40839943 81.00207414 44.2972853 77.40774182 42.1875 73.8125 C38.57938985 67.6684552 34.94816325 61.53833063 31.31152344 55.41113281 C23.69266106 42.57416927 16.12043426 29.71123011 8.63232422 16.79736328 C7.44579287 14.76396869 6.24798875 12.73713908 5.04345703 10.71435547 C4.40134277 9.6317041 3.75922852 8.54905273 3.09765625 7.43359375 C2.50605713 6.44286865 1.91445801 5.45214355 1.30493164 4.43139648 C0 2 0 2 0 0 Z " fill="#ED1C24" transform="translate(88,80)"/>
</svg>
