<?xml version="1.0" encoding="UTF-8"?>
<svg version="1.1" xmlns="http://www.w3.org/2000/svg" width="500" height="500">
<path d="M0 0 C165 0 330 0 500 0 C500 165 500 330 500 500 C335 500 170 500 0 500 C0 335 0 170 0 0 Z " fill="#FEFEFE" transform="translate(0,0)"/>
<path d="M0 0 C2.67578125 1.33984375 2.67578125 1.33984375 5.3125 2.9375 C6.63701172 3.72447266 6.63701172 3.72447266 7.98828125 4.52734375 C8.65214844 5.01332031 9.31601562 5.49929687 10 6 C10 6.66 10 7.32 10 8 C12.97 8.495 12.97 8.495 16 9 C16.0154612 9.9859893 16.0154612 9.9859893 16.03123474 10.99189758 C16.13924871 17.82111665 16.25385097 24.65020241 16.37231445 31.47924805 C16.41567967 34.02934994 16.45735356 36.57948116 16.49731445 39.12963867 C16.55497839 42.79094289 16.61868425 46.45209922 16.68359375 50.11328125 C16.70030624 51.2571077 16.71701874 52.40093414 16.73423767 53.579422 C16.75418289 54.64029526 16.77412811 55.70116852 16.79467773 56.79418945 C16.81799416 58.19650566 16.81799416 58.19650566 16.84178162 59.62715149 C16.90972708 62.14986513 16.90972708 62.14986513 18 65 C19.485 65.495 19.485 65.495 21 66 C20.875 67.75 20.875 67.75 20 70 C18.04109119 71.39300182 16.0360882 72.72245446 14 74 C13.360625 74.763125 12.72125 75.52625 12.0625 76.3125 C10 78 10 78 6.375 77.8125 C1.41860212 76.6192931 1.41860212 76.6192931 -0.27189636 74.11831665 C-3.87935164 67.39884488 -4.68362924 62.08052694 -4.48828125 54.5234375 C-4.48120651 53.47217682 -4.47413177 52.42091614 -4.46684265 51.33779907 C-4.43909827 48.01610831 -4.37639651 44.69617179 -4.3125 41.375 C-4.28739139 39.10809745 -4.26458275 36.84116819 -4.24414062 34.57421875 C-4.18933764 29.0488917 -4.10591475 23.52457122 -4 18 C-6.65228812 16.92474806 -9.28368454 15.90543849 -12 15 C-12 14.34 -12 13.68 -12 13 C-13.98 12.67 -15.96 12.34 -18 12 C-18 18.93 -18 25.86 -18 33 C-14.37 33 -10.74 33 -7 33 C-7.66 35.31 -8.32 37.62 -9 40 C-9.66 40 -10.32 40 -11 40 C-11.33 41.32 -11.66 42.64 -12 44 C-12.66 44 -13.32 44 -14 44 C-14.33 44.99 -14.66 45.98 -15 47 C-15.99 47 -16.98 47 -18 47 C-18 51.95 -18 56.9 -18 62 C-16.02 62.495 -16.02 62.495 -14 63 C-14 63.66 -14 64.32 -14 65 C-12.35 65.33 -10.7 65.66 -9 66 C-8.67 67.32 -8.34 68.64 -8 70 C-13.625 73 -13.625 73 -17 73 C-17.495 74.98 -17.495 74.98 -18 77 C-23.625 78.125 -23.625 78.125 -27 77 C-27 76.34 -27 75.68 -27 75 C-27.886875 74.71125 -28.77375 74.4225 -29.6875 74.125 C-32.50382424 73.16851252 -35.25083156 72.13201054 -38 71 C-38 70.34 -38 69.68 -38 69 C-39.65 68.34 -41.3 67.68 -43 67 C-42.625 65.0625 -42.625 65.0625 -42 63 C-41.34 62.67 -40.68 62.34 -40 62 C-39.68758629 59.45058627 -39.48696579 56.99638487 -39.375 54.4375 C-39.33632813 53.72658203 -39.29765625 53.01566406 -39.2578125 52.28320312 C-39.16328217 50.52257575 -39.08054183 48.76132272 -39 47 C-42.3 47 -45.6 47 -49 47 C-48.88599631 50.08409976 -48.75924798 53.16677137 -48.625 56.25 C-48.5940625 57.12269531 -48.563125 57.99539062 -48.53125 58.89453125 C-48.47324219 60.16103516 -48.47324219 60.16103516 -48.4140625 61.453125 C-48.3826416 62.22817383 -48.3512207 63.00322266 -48.31884766 63.80175781 C-47.96973494 66.20865742 -47.19448896 67.89602295 -46 70 C-46.66 70 -47.32 70 -48 70 C-48 70.66 -48 71.32 -48 72 C-49.2065625 72.4021875 -49.2065625 72.4021875 -50.4375 72.8125 C-51.7059375 73.4003125 -51.7059375 73.4003125 -53 74 C-53.33 74.99 -53.66 75.98 -54 77 C-60.4410036 78.64451156 -64.21782606 77.05498079 -70 74 C-70 73.34 -70 72.68 -70 72 C-71.423125 71.5359375 -71.423125 71.5359375 -72.875 71.0625 C-76 70 -76 70 -78 69 C-78 68.01 -78 67.02 -78 66 C-76.02 65.01 -76.02 65.01 -74 64 C-73.67 49.81 -73.34 35.62 -73 21 C-74.32 20.34 -75.64 19.68 -77 19 C-78.28016835 17.99564028 -79.53128122 16.95309739 -80.75 15.875 C-81.36359375 15.33617187 -81.9771875 14.79734375 -82.609375 14.2421875 C-83.06828125 13.83226562 -83.5271875 13.42234375 -84 13 C-82.52440331 8.57320993 -80.09942632 8.08567304 -76 6 C-75.34 6 -74.68 6 -74 6 C-74 5.34 -74 4.68 -74 4 C-70.05244009 2.77187025 -68.09675545 2.47064116 -64.296875 4.3046875 C-62.42366857 5.41530443 -60.57178981 6.56290009 -58.74609375 7.75 C-55.33607029 9.30221552 -53.55679805 9.02696282 -50 8 C-49.401875 7.401875 -48.80375 6.80375 -48.1875 6.1875 C-44.98574507 2.98574507 -41.29450214 1.35979764 -37 0 C-33.30611532 0.16060368 -32.1233393 0.9177738 -29 3 C-29 3.66 -29 4.32 -29 5 C-21.52523433 6.46030908 -21.52523433 6.46030908 -14.3046875 4.765625 C-12.78030882 3.70912493 -11.28759718 2.60459364 -9.83984375 1.4453125 C-6.39555963 -1.2603884 -4.04046684 -1.13992491 0 0 Z " fill="#080808" transform="translate(302,186)"/>
<path d="M0 0 C8.25 0 16.5 0 25 0 C25 0.66 25 1.32 25 2 C26.175625 2.04125 27.35125 2.0825 28.5625 2.125 C33.72062777 2.75604755 36.49716253 5.348501 40 9 C40.928125 9.928125 40.928125 9.928125 41.875 10.875 C43.60992072 14.15207246 43.6932458 17.31894958 44 21 C44.66 21 45.32 21 46 21 C46.83962845 45.19421686 46.83962845 45.19421686 42 55 C41.62617187 55.79921875 41.25234375 56.5984375 40.8671875 57.421875 C38.77503968 61.32906496 37.62634953 62.73627388 33.4375 64.5 C30 65 30 65 26 65 C26 65.66 26 66.32 26 67 C17.42 67 8.84 67 0 67 C0 44.89 0 22.78 0 0 Z " fill="#FBFBFB" transform="translate(38,193)"/>
<path d="M0 0 C0.78375 0.42474609 1.5675 0.84949219 2.375 1.28710938 C4.29600387 2.32960538 6.2123249 3.37982445 8.125 4.4375 C7.795 6.0875 7.465 7.7375 7.125 9.4375 C6.465 9.4375 5.805 9.4375 5.125 9.4375 C5.08970499 13.68898502 5.13144535 17.93631507 5.1875 22.1875 C5.17106445 23.99734375 5.17106445 23.99734375 5.15429688 25.84375 C4.97864735 31.96580277 4.97864735 31.96580277 7.71264648 37.07910156 C9.83144335 38.29638479 9.83144335 38.29638479 13.125 39.4375 C14.0625 41.6875 14.0625 41.6875 14.125 43.4375 C13.155625 44.035625 12.18625 44.63375 11.1875 45.25 C7.89447958 47.14877509 7.89447958 47.14877509 7.125 50.4375 C4.95665814 51.93290818 3.76263563 52.51720445 1.125 52.1875 C-0.96264473 51.40463323 -2.91029239 50.49002193 -4.875 49.4375 C-4.875 48.7775 -4.875 48.1175 -4.875 47.4375 C-8.175 46.7775 -11.475 46.1175 -14.875 45.4375 C-14.875 44.7775 -14.875 44.1175 -14.875 43.4375 C-20.20462649 43.85550992 -22.98648691 44.75917681 -26.875 48.4375 C-27.4525 49.200625 -28.03 49.96375 -28.625 50.75 C-31.38440573 52.8195543 -32.28275195 52.55828064 -35.625 52.1875 C-37.04520201 51.95843516 -38.46345901 51.71498242 -39.875 51.4375 C-39.875 50.7775 -39.875 50.1175 -39.875 49.4375 C-40.596875 49.4375 -41.31875 49.4375 -42.0625 49.4375 C-45.85181112 48.09018938 -46.81702522 46.16100111 -48.82983398 42.78613281 C-50.59709433 38.81485402 -50.48574438 35.0926553 -50.3125 30.8125 C-50.30669922 29.99265625 -50.30089844 29.1728125 -50.29492188 28.328125 C-50.2013318 23.6710828 -49.63704136 19.81075928 -47.875 15.4375 C-47.215 15.4375 -46.555 15.4375 -45.875 15.4375 C-45.545 14.4475 -45.215 13.4575 -44.875 12.4375 C-44.215 12.4375 -43.555 12.4375 -42.875 12.4375 C-42.545 11.4475 -42.215 10.4575 -41.875 9.4375 C-40.54166667 8.77083333 -39.20833333 8.10416667 -37.875 7.4375 C-37.194375 6.695 -36.51375 5.9525 -35.8125 5.1875 C-25.05764009 -6.03351483 -12.87073206 -7.12253223 0 0 Z " fill="#070707" transform="translate(376.875,211.5625)"/>
<path d="M0 0 C2.82149884 1.44887778 5.53723114 2.99353096 8 5 C8 5.66 8 6.32 8 7 C9.65 7 11.3 7 13 7 C13 7.66 13 8.32 13 9 C13.66 8.896875 14.32 8.79375 15 8.6875 C18.70511099 9.07344906 21.25094216 9.88533365 24.39453125 11.890625 C27.88398565 16.47530961 26.49626399 23.52041842 26 29 C25.01 29.33 24.02 29.66 23 30 C22.05222674 31.76575709 22.05222674 31.76575709 21.4375 33.875 C20.51191912 36.70926461 19.69894116 38.45158826 18 41 C17.34 41 16.68 41 16 41 C16.1100917 44.41731792 16.24067061 47.83355574 16.375 51.25 C16.4059375 52.21808594 16.436875 53.18617188 16.46875 54.18359375 C16.52675781 55.58544922 16.52675781 55.58544922 16.5859375 57.015625 C16.6173584 57.87446289 16.6487793 58.73330078 16.68115234 59.61816406 C17.01716204 62.1282028 17.74191728 63.81932328 19 66 C18.34 66 17.68 66 17 66 C17 66.66 17 67.32 17 68 C15.7934375 68.4021875 15.7934375 68.4021875 14.5625 68.8125 C13.2940625 69.4003125 13.2940625 69.4003125 12 70 C11.67 70.99 11.34 71.98 11 73 C4.5589964 74.64451156 0.78217394 73.05498079 -5 70 C-5 69.34 -5 68.68 -5 68 C-6.423125 67.5359375 -6.423125 67.5359375 -7.875 67.0625 C-11 66 -11 66 -13 65 C-13 64.01 -13 63.02 -13 62 C-11.68 61.34 -10.36 60.68 -9 60 C-8.67 45.81 -8.34 31.62 -8 17 C-9.32 16.34 -10.64 15.68 -12 15 C-13.28016835 13.99564028 -14.53128122 12.95309739 -15.75 11.875 C-16.36359375 11.33617187 -16.9771875 10.79734375 -17.609375 10.2421875 C-18.06828125 9.83226562 -18.5271875 9.42234375 -19 9 C-17.52440331 4.57320993 -15.09942632 4.08567304 -11 2 C-10.34 2 -9.68 2 -9 2 C-9 1.34 -9 0.68 -9 0 C-5.32312584 -1.22562472 -3.74848715 -0.99016642 0 0 Z " fill="#0E0E0E" transform="translate(237,190)"/>
<path d="M0 0 C0 20.46 0 40.92 0 62 C2.64 62.66 5.28 63.32 8 64 C7.9375 66.25 7.9375 66.25 7 69 C4.77669748 70.66064856 2.50047924 71.74976038 0 73 C-0.33 73.33 -0.66 73.66 -1 74 C-8.28699747 74.07360604 -14.44499136 71.99856778 -21 69 C-21 68.34 -21 67.68 -21 67 C-22.32 66.67 -23.64 66.34 -25 66 C-24.67 65.01 -24.34 64.02 -24 63 C-23.01 62.505 -23.01 62.505 -22 62 C-21.92405187 54.79181655 -21.87144322 47.58373595 -21.83520508 40.37524414 C-21.82010119 37.92207992 -21.79961679 35.46894276 -21.77368164 33.01586914 C-21.73736943 29.49358445 -21.72028964 25.97165619 -21.70703125 22.44921875 C-21.69154739 21.34913986 -21.67606354 20.24906097 -21.66011047 19.11564636 C-21.65988388 18.09481461 -21.65965729 17.07398285 -21.65942383 16.0222168 C-21.65276199 15.12286911 -21.64610016 14.22352142 -21.63923645 13.29692078 C-22.06768672 10.56905005 -22.88081088 9.6998517 -25 8 C-24.67 7.01 -24.34 6.02 -24 5 C-21.36967904 4.13808692 -18.87908929 3.46371157 -16.1875 2.875 C-15.46240234 2.70613281 -14.73730469 2.53726563 -13.99023438 2.36328125 C-11.99558374 1.89974853 -9.99788829 1.44937305 -8 1 C-7.34298096 0.81711426 -6.68596191 0.63422852 -6.0090332 0.44580078 C-4 0 -4 0 0 0 Z " fill="#050505" transform="translate(453,188)"/>
<path d="M0 0 C1.30324219 -0.00257813 2.60648438 -0.00515625 3.94921875 -0.0078125 C7.3125 0.125 7.3125 0.125 10.3125 1.125 C10.3125 1.785 10.3125 2.445 10.3125 3.125 C10.89 3.33125 11.4675 3.5375 12.0625 3.75 C15.30725446 5.7329055 16.50639499 7.77167439 18.3125 11.125 C18.8354522 14.24944261 18.78043717 17.30037841 18.703125 20.4609375 C18.69746521 21.34028961 18.69180542 22.21964172 18.68597412 23.12564087 C18.66369084 25.91766182 18.61351063 28.70837092 18.5625 31.5 C18.54242454 33.39972097 18.52417561 35.29946218 18.5078125 37.19921875 C18.46385256 41.84164666 18.39488182 46.48310137 18.3125 51.125 C16.6625 51.125 15.0125 51.125 13.3125 51.125 C13.3125 49.145 13.3125 47.165 13.3125 45.125 C12.84199219 45.4859375 12.37148437 45.846875 11.88671875 46.21875 C11.26410156 46.6828125 10.64148438 47.146875 10 47.625 C9.38511719 48.0890625 8.77023438 48.553125 8.13671875 49.03125 C6.3125 50.125 6.3125 50.125 3.3125 50.125 C3.3125 50.785 3.3125 51.445 3.3125 52.125 C-1.6375 52.125 -6.5875 52.125 -11.6875 52.125 C-11.6875 51.465 -11.6875 50.805 -11.6875 50.125 C-12.450625 49.8775 -13.21375 49.63 -14 49.375 C-18.14546653 47.44687603 -19.94945512 44.24217189 -21.6875 40.125 C-22.48575342 34.78447271 -22.91456789 29.44122325 -20.33203125 24.56640625 C-17.01133571 20.57130896 -13.93077809 17.93165817 -8.6875 17.125 C0.84063935 16.36902487 5.88100602 18.11021223 13.3125 24.125 C13.22516027 22.04089342 13.11697722 19.95765331 13 17.875 C12.94199219 16.71484375 12.88398437 15.5546875 12.82421875 14.359375 C12.2887459 10.97485961 11.71365858 9.52045512 9.3125 7.125 C6.48838235 6.18362745 4.78331968 6.00774618 1.86328125 6.02734375 C1.01572266 6.03056641 0.16816406 6.03378906 -0.70507812 6.03710938 C-2.02668945 6.04967773 -2.02668945 6.04967773 -3.375 6.0625 C-4.71401367 6.06926758 -4.71401367 6.06926758 -6.08007812 6.07617188 C-8.28261987 6.08795017 -10.48502599 6.10439836 -12.6875 6.125 C-12.6875 6.785 -12.6875 7.445 -12.6875 8.125 C-13.6775 8.125 -14.6675 8.125 -15.6875 8.125 C-15.8125 5.75 -15.8125 5.75 -15.6875 3.125 C-11.66426597 -0.89823403 -5.38454485 -0.01071551 0 0 Z " fill="#0F0F0F" transform="translate(109.6875,207.875)"/>
<path d="M0 0 C0 0.66 0 1.32 0 2 C-0.99 2 -1.98 2 -3 2 C-3 2.99 -3 3.98 -3 5 C-2.01 5 -1.02 5 0 5 C0.99 6.485 0.99 6.485 2 8 C4.31 9.32 6.62 10.64 9 12 C9 22.23 9 32.46 9 43 C7.02 43.99 5.04 44.98 3 46 C1.29413425 47.62652316 -0.3777546 49.29006566 -2 51 C-5.35327639 53.23551759 -5.90743657 53.17283528 -9.6875 52.625 C-10.49574219 52.51414062 -11.30398438 52.40328125 -12.13671875 52.2890625 C-12.75160156 52.19367188 -13.36648438 52.09828125 -14 52 C-14 51.34 -14 50.68 -14 50 C-14.721875 50 -15.44375 50 -16.1875 50 C-19.97681112 48.65268938 -20.94202522 46.72350111 -22.95483398 43.34863281 C-24.72209433 39.37735402 -24.61074438 35.6551553 -24.4375 31.375 C-24.43169922 30.55515625 -24.42589844 29.7353125 -24.41992188 28.890625 C-24.3263318 24.2335828 -23.76204136 20.37325928 -22 16 C-21.34 16 -20.68 16 -20 16 C-19.67 15.01 -19.34 14.02 -19 13 C-18.34 13 -17.68 13 -17 13 C-16.67 12.01 -16.34 11.02 -16 10 C-14.66666667 9.33333333 -13.33333333 8.66666667 -12 8 C-11.195625 7.195625 -10.39125 6.39125 -9.5625 5.5625 C-4 0 -4 0 0 0 Z " fill="#0B0B0B" transform="translate(351,211)"/>
<path d="M0 0 C0.66 0.99 1.32 1.98 2 3 C4.63430445 4.45056981 4.63430445 4.45056981 7.625 5.6875 C9.12933594 6.34298828 9.12933594 6.34298828 10.6640625 7.01171875 C11.43492187 7.33785156 12.20578125 7.66398438 13 8 C13 8.99 13 9.98 13 11 C11.68 11.33 10.36 11.66 9 12 C9.33 21.24 9.66 30.48 10 40 C11.98 40.99 13.96 41.98 16 43 C16 45.25 16 45.25 15 48 C13.06820798 49.23877246 11.12448521 50.12521465 9.0078125 51.0078125 C6.92150955 51.90000635 6.92150955 51.90000635 5.41796875 53.625 C4.71607422 54.305625 4.71607422 54.305625 4 55 C-0.58050383 54.79642205 -4.01747254 53.1809079 -8 51 C-8 50.34 -8 49.68 -8 49 C-9.65 48.67 -11.3 48.34 -13 48 C-13 47.34 -13 46.68 -13 46 C-13.66 46 -14.32 46 -15 46 C-14.84152588 45.47889648 -14.68305176 44.95779297 -14.51977539 44.42089844 C-13.86021098 41.34892068 -13.78002727 38.40660253 -13.68359375 35.265625 C-13.64169922 33.97011719 -13.59980469 32.67460937 -13.55664062 31.33984375 C-13.51683329 29.97656524 -13.47712094 28.61328394 -13.4375 27.25 C-13.39427726 25.87108125 -13.35066179 24.49217474 -13.30664062 23.11328125 C-13.20056042 19.7422881 -13.0985015 16.37122174 -13 13 C-13.62390625 12.86722656 -14.2478125 12.73445312 -14.890625 12.59765625 C-17.35007214 11.90081289 -18.34517707 10.90304637 -20 9 C-19.34 7.68 -18.68 6.36 -18 5 C-17.34 5 -16.68 5 -16 5 C-16 4.34 -16 3.68 -16 3 C-10.66695105 -0.74448118 -6.40120706 -2.17719263 0 0 Z " fill="#0C0C0C" transform="translate(409,209)"/>
<path d="M0 0 C8.25 0 16.5 0 25 0 C25 0.66 25 1.32 25 2 C26.175625 2.04125 27.35125 2.0825 28.5625 2.125 C33.72062777 2.75604755 36.49716253 5.348501 40 9 C40.928125 9.928125 40.928125 9.928125 41.875 10.875 C43.60992072 14.15207246 43.6932458 17.31894958 44 21 C44.66 21 45.32 21 46 21 C46.83962845 45.19421686 46.83962845 45.19421686 42 55 C41.62617187 55.79921875 41.25234375 56.5984375 40.8671875 57.421875 C38.77503968 61.32906496 37.62634953 62.73627388 33.4375 64.5 C30 65 30 65 26 65 C26 65.66 26 66.32 26 67 C17.42 67 8.84 67 0 67 C0 44.89 0 22.78 0 0 Z M5 5 C5 23.81 5 42.62 5 62 C17.11953363 62.47098427 17.11953363 62.47098427 29 61 C29 60.34 29 59.68 29 59 C29.59425781 58.92652344 30.18851563 58.85304687 30.80078125 58.77734375 C33.78522006 57.7224533 34.53314082 56.2205321 36.1875 53.5625 C36.95126953 52.35787109 36.95126953 52.35787109 37.73046875 51.12890625 C40.99484569 45.65479722 40.26362687 40.07803538 40.3125 33.8125 C40.34150391 32.59240234 40.37050781 31.37230469 40.40039062 30.11523438 C40.46373945 21.1440665 39.36280533 16.85492319 33.4375 10.0625 C31.15047518 7.67702888 31.15047518 7.67702888 28 8 C28 7.34 28 6.68 28 6 C20.71989011 3.5732967 12.67390962 5 5 5 Z " fill="#333333" transform="translate(38,193)"/>
<path d="M0 0 C0 0.66 0 1.32 0 2 C1.258125 2.0825 2.51625 2.165 3.8125 2.25 C6.63110356 2.43482646 7.67613222 2.6885047 9.73828125 4.671875 C11.33003405 7.60897924 11.39996703 9.67106316 11.375 13 C11.38273437 14.03125 11.39046875 15.0625 11.3984375 16.125 C10.95665859 19.312738 10.24306754 20.72410708 8 23 C7.34 23 6.68 23 6 23 C6 23.66 6 24.32 6 25 C3.0129054 26.4935473 -0.0373448 26.30631228 -3.3125 26.375 C-5.28669922 26.44847656 -5.28669922 26.44847656 -7.30078125 26.5234375 C-11.83522081 25.8818167 -13.16338993 24.49567375 -16 21 C-18.64233546 17.35106056 -18.38055809 13.33317284 -18 9 C-17.45187071 5.98528889 -16.85031976 4.62044863 -14.3671875 2.80859375 C-9.43764557 0.0345182 -5.59440373 -0.39960027 0 0 Z " fill="#F7F7F7" transform="translate(111,229)"/>
<path d="M0 0 C1.65 0 3.3 0 5 0 C6.4606285 2.64738916 7 3.89448334 7 7 C7.66 7 8.32 7 9 7 C9.67260351 8.76858691 10.33788395 10.53996016 11 12.3125 C11.37125 13.29863281 11.7425 14.28476563 12.125 15.30078125 C13 18 13 18 13 21 C13.66 21 14.32 21 15 21 C15.17015625 21.61746094 15.3403125 22.23492187 15.515625 22.87109375 C17.98686424 31.75246107 17.98686424 31.75246107 22 40 C23.485 40.495 23.485 40.495 25 41 C25.103125 40.01 25.20625 39.02 25.3125 38 C25.8163372 34.40011971 26.91399054 31.25115323 28.28125 27.89453125 C29.01850416 25.95122544 29.533347 24.02365869 30 22 C30.66 22 31.32 22 32 22 C32.33 19.69 32.66 17.38 33 15 C33.66 15 34.32 15 35 15 C35.13277344 14.43796875 35.26554687 13.8759375 35.40234375 13.296875 C36.02437111 10.90633847 36.77115041 8.58964225 37.5625 6.25 C37.83191406 5.45078125 38.10132813 4.6515625 38.37890625 3.828125 C38.58386719 3.22484375 38.78882813 2.6215625 39 2 C39.66 2 40.32 2 41 2 C41 1.34 41 0.68 41 0 C42.32 0 43.64 0 45 0 C44.55775272 9.13977715 41.44931455 15.73424727 36 23 C34.24250821 26.73467005 32.82963255 30.45031379 31.5625 34.375 C29.66851105 40.19579325 27.19723283 45.69762918 24.375 51.125 C22.86451767 54.07499716 22.86451767 54.07499716 21.9375 57.75 C21 61 21 61 19 63 C17.68 63 16.36 63 15 63 C15.30769707 61.18667846 15.62129064 59.37435655 15.9375 57.5625 C16.11152344 56.55316406 16.28554687 55.54382813 16.46484375 54.50390625 C17 52 17 52 18 51 C18.19382275 47.51119051 17.77675511 44.39830361 17 41 C16.34 41 15.68 41 15 41 C14.79246094 40.23558594 14.58492187 39.47117188 14.37109375 38.68359375 C12.11289017 30.83184824 9.14651592 23.73677931 5.61328125 16.39453125 C3.08815654 11.08137539 0.91395244 5.84929562 0 0 Z " fill="#2B2B2B" transform="translate(165,210)"/>
<path d="M0 0 C3.31694973 1.11382898 5.687311 2.33115821 8 5 C9.02480161 9.79166079 8.75246946 14.44032485 8.5 19.3125 C8.46390625 20.62541016 8.4278125 21.93832031 8.390625 23.29101562 C8.29639122 26.53030187 8.16494088 29.76366962 8 33 C3.28515625 34.1484375 3.28515625 34.1484375 0.71875 32.8125 C-1.58305627 30.93215121 -3.8188497 29.01943753 -6 27 C-6.55816406 26.505 -7.11632812 26.01 -7.69140625 25.5 C-12.2060519 20.56090049 -11.43543383 14.31732812 -11.17578125 8.03515625 C-11.11777344 7.03355469 -11.05976563 6.03195313 -11 5 C-10.34 5 -9.68 5 -9 5 C-8.71125 4.195625 -8.4225 3.39125 -8.125 2.5625 C-6.22411415 -1.76729555 -4.1518496 -1.2636064 0 0 Z " fill="#EEEEEE" transform="translate(352,218)"/>
<path d="M0 0 C0.66 0 1.32 0 2 0 C2.33 0.66 2.66 1.32 3 2 C3.99 2 4.98 2 6 2 C6 2.99 6 3.98 6 5 C7.98 5.66 9.96 6.32 12 7 C12.04954711 11.05676492 12.085789 15.11341194 12.10986328 19.17041016 C12.11990253 20.54967315 12.13353677 21.92891496 12.15087891 23.30810547 C12.17521754 25.2938514 12.18543255 27.2797545 12.1953125 29.265625 C12.20578613 30.45961914 12.21625977 31.65361328 12.22705078 32.88378906 C12.01034762 35.85798164 11.56186122 37.50318379 10 40 C10.66 40.33 11.32 40.66 12 41 C11.030625 41.12375 10.06125 41.2475 9.0625 41.375 C8.051875 41.58125 7.04125 41.7875 6 42 C5.67 42.66 5.34 43.32 5 44 C2.4375 44.625 2.4375 44.625 0 45 C1.62339805 43.29115995 3.29319053 41.62553283 5 40 C5.66 40 6.32 40 7 40 C6.36310205 36.91268148 6.36310205 36.91268148 4.16992188 36.08129883 C3.44353516 35.77216553 2.71714844 35.46303223 1.96875 35.14453125 C-0.21875 33.84228516 -0.21875 33.84228516 -2 32 C-3.03068972 27.54211359 -2.75429082 23.23294832 -2.5 18.6875 C-2.46390625 17.46998047 -2.4278125 16.25246094 -2.390625 14.99804688 C-2.29642737 11.99549748 -2.16502633 8.99935361 -2 6 C-1.34 5.67 -0.68 5.34 0 5 C0 3.35 0 1.7 0 0 Z " fill="#ECECEC" transform="translate(384,215)"/>
<path d="M0 0 C3.63 0 7.26 0 11 0 C11 1.32 11 2.64 11 4 C9.68 4 8.36 4 7 4 C7 7.63 7 11.26 7 15 C5.68 15 4.36 15 3 15 C3 11.7 3 8.4 3 5 C1.02 5.99 1.02 5.99 -1 7 C-0.95875 7.928125 -0.9175 8.85625 -0.875 9.8125 C-1 13 -1 13 -3 16 C-3.61488281 15.9278125 -4.22976563 15.855625 -4.86328125 15.78125 C-5.67152344 15.6884375 -6.47976563 15.595625 -7.3125 15.5 C-8.11300781 15.4071875 -8.91351563 15.314375 -9.73828125 15.21875 C-12.23893626 14.97689045 -14.68203998 14.98979807 -17.19140625 15.0703125 C-18.36509766 15.09738281 -18.36509766 15.09738281 -19.5625 15.125 C-20.34753906 15.14820313 -21.13257813 15.17140625 -21.94140625 15.1953125 C-24 15 -24 15 -26 13 C-26.1953125 10.3984375 -26.1953125 10.3984375 -26.125 7.375 C-26.10695313 6.37210937 -26.08890625 5.36921875 -26.0703125 4.3359375 C-26.04710937 3.56507813 -26.02390625 2.79421875 -26 2 C-25.01 2 -24.02 2 -23 2 C-23 5.3 -23 8.6 -23 12 C-21.68 12 -20.36 12 -19 12 C-19 8.37 -19 4.74 -19 1 C-17.35 1 -15.7 1 -14 1 C-13.67 1.66 -13.34 2.32 -13 3 C-12.67 2.67 -12.34 2.34 -12 2 C-10.52351124 1.90176004 -9.04224583 1.87026481 -7.5625 1.875 C-6.35787109 1.87113281 -6.35787109 1.87113281 -5.12890625 1.8671875 C-3 2 -3 2 -1 3 C-0.67 2.01 -0.34 1.02 0 0 Z " fill="#B9B9B9" transform="translate(391,280)"/>
<path d="M0 0 C22 0 22 0 25 1 C25 1.66 25 2.32 25 3 C18.07 3 11.14 3 4 3 C4 22.14 4 41.28 4 61 C11.59 60.67 19.18 60.34 27 60 C27 60.99 27 61.98 27 63 C18.09 63 9.18 63 0 63 C0 42.21 0 21.42 0 0 Z " fill="#0C0C0C" transform="translate(39,195)"/>
<path d="M0 0 C1.65 0 3.3 0 5 0 C5 21.45 5 42.9 5 65 C3.35 65 1.7 65 0 65 C0 43.55 0 22.1 0 0 Z " fill="#1A1A1A" transform="translate(153,194)"/>
<path d="M0 0 C2.97 0.495 2.97 0.495 6 1 C6 1.66 6 2.32 6 3 C6.763125 3.12375 7.52625 3.2475 8.3125 3.375 C11 4 11 4 14 6 C14.36076355 8.06277466 14.36076355 8.06277466 14.34057617 10.63330078 C14.34034958 11.59414581 14.34012299 12.55499084 14.33988953 13.54495239 C14.32440567 14.58457123 14.30892181 15.62419006 14.29296875 16.6953125 C14.28872391 17.75789276 14.28447906 18.82047302 14.28010559 19.91525269 C14.26327389 23.31875646 14.22561303 26.72167433 14.1875 30.125 C14.17245899 32.42837688 14.15876958 34.73176302 14.14648438 37.03515625 C14.11335574 42.69030505 14.06311197 48.34511068 14 54 C13.67 54 13.34 54 13 54 C12.67 44.1 12.34 34.2 12 24 C11.34 24.33 10.68 24.66 10 25 C10.33 23.68 10.66 22.36 11 21 C7.37 21 3.74 21 0 21 C0 14.07 0 7.14 0 0 Z " fill="#9D9D9D" transform="translate(284,198)"/>
<path d="M0 0 C1.65 0 3.3 0 5 0 C5 16.83 5 33.66 5 51 C3.35 51 1.7 51 0 51 C0 34.17 0 17.34 0 0 Z " fill="#1F1F1F" transform="translate(138,209)"/>
<path d="M0 0 C2.35858628 2.35858628 2.36946499 3.07631948 2.5 6.3125 C2.45591888 9.04552925 2.37574703 10.49746716 0.7265625 12.703125 C-3.15768678 16 -3.15768678 16 -6 16 C-6 16.66 -6 17.32 -6 18 C-7.65 18 -9.3 18 -11 18 C-11 17.01 -11 16.02 -11 15 C-11.66 15 -12.32 15 -13 15 C-13.89444795 5.54204109 -13.89444795 5.54204109 -11.91015625 2.12109375 C-8.03340752 -1.488293 -4.86498559 -1.40336123 0 0 Z " fill="#141414" transform="translate(416,187)"/>
<path d="M0 0 C7.73092369 3.09236948 7.73092369 3.09236948 10 5 C10.38060051 7.78599571 10.47962905 9.93372751 10.3125 12.6875 C10.27866211 13.7403418 10.27866211 13.7403418 10.24414062 14.81445312 C10.18531647 16.5438833 10.09563389 18.27221438 10 20 C9.01 20.33 8.02 20.66 7 21 C5.3618362 23.08946337 5.3618362 23.08946337 3.875 25.5625 C2.9385852 27.05563902 1.98580641 28.53899948 1 30 C0.67 30 0.34 30 0 30 C0 20.1 0 10.2 0 0 Z " fill="#EBEBEB" transform="translate(253,199)"/>
<path d="M0 0 C3.3 0 6.6 0 10 0 C10.08076963 2.45898655 10.14037143 4.91533742 10.1875 7.375 C10.22520508 8.42300781 10.22520508 8.42300781 10.26367188 9.4921875 C10.29296875 11.5234375 10.29296875 11.5234375 10 15 C9.01 15.66 8.02 16.32 7 17 C6.67 17.99 6.34 18.98 6 20 C6.66 20.33 7.32 20.66 8 21 C6.68 21 5.36 21 4 21 C4 21.99 4 22.98 4 24 C3.34 24 2.68 24 2 24 C2 24.66 2 25.32 2 26 C-0.31 26.66 -2.62 27.32 -5 28 C-3.6875 26.5 -3.6875 26.5 -2 25 C-1.01 25 -0.02 25 1 25 C1 24.34 1 23.68 1 23 C1.66 23 2.32 23 3 23 C2.50886719 22.54109375 2.01773438 22.0821875 1.51171875 21.609375 C-0.80254412 17.61473005 -0.3178553 13.77566849 -0.1875 9.25 C-0.17396484 8.36183594 -0.16042969 7.47367188 -0.14648438 6.55859375 C-0.11121891 4.372135 -0.05741412 2.18598928 0 0 Z " fill="#DEDEDE" transform="translate(253,233)"/>
<path d="M0 0 C1.32 0 2.64 0 4 0 C3.55775272 9.13977715 0.44931455 15.73424727 -5 23 C-7.44374185 28.19295142 -9.25360144 33.53785983 -11 39 C-12 37 -12 37 -12 33 C-12.99 33.495 -12.99 33.495 -14 34 C-13.01 30.04 -12.02 26.08 -11 22 C-10.34 22 -9.68 22 -9 22 C-8.67 19.69 -8.34 17.38 -8 15 C-7.34 15 -6.68 15 -6 15 C-5.86722656 14.43796875 -5.73445312 13.8759375 -5.59765625 13.296875 C-4.97562889 10.90633847 -4.22884959 8.58964225 -3.4375 6.25 C-3.16808594 5.45078125 -2.89867187 4.6515625 -2.62109375 3.828125 C-2.41613281 3.22484375 -2.21117187 2.6215625 -2 2 C-1.34 2 -0.68 2 0 2 C0 1.34 0 0.68 0 0 Z " fill="#5F5F5F" transform="translate(206,210)"/>
<path d="M0 0 C20 0 20 0 23 2 C16.07 1.67 9.14 1.34 2 1 C2 18.82 2 36.64 2 55 C9.26 55 16.52 55 24 55 C20 57 20 57 0 57 C0 38.19 0 19.38 0 0 Z " fill="#C0C0C0" transform="translate(43,198)"/>
<path d="M0 0 C0.66 0 1.32 0 2 0 C2 16.83 2 33.66 2 51 C1.01 51 0.02 51 -1 51 C-1.02526787 43.89755001 -1.04283201 36.79511152 -1.05493164 29.69262695 C-1.05997349 27.27432828 -1.06680678 24.85603267 -1.07543945 22.43774414 C-1.08751157 18.97020717 -1.09322963 15.50271034 -1.09765625 12.03515625 C-1.10281754 10.94662857 -1.10797882 9.85810089 -1.11329651 8.73658752 C-1.11337204 7.73562546 -1.11344757 6.73466339 -1.11352539 5.70336914 C-1.115746 4.81734512 -1.11796661 3.93132111 -1.12025452 3.01844788 C-1 1 -1 1 0 0 Z " fill="#C5C5C5" transform="translate(250,199)"/>
<path d="M0 0 C7 2 7 2 9 4 C9.1953125 7.2578125 9.1953125 7.2578125 9.125 11.125 C9.10695313 12.40632812 9.08890625 13.68765625 9.0703125 15.0078125 C9.04710937 15.99523437 9.02390625 16.98265625 9 18 C6.03 18 3.06 18 0 18 C0 12.06 0 6.12 0 0 Z " fill="#F8F8F8" transform="translate(288,200)"/>
<path d="M0 0 C0.99 0 1.98 0 3 0 C7.59225513 9.41002278 7.59225513 9.41002278 7 14 C6.01 13.67 5.02 13.34 4 13 C4 12.34 4 11.68 4 11 C2.02 11 0.04 11 -2 11 C-2.33 11.99 -2.66 12.98 -3 14 C-4.98 14 -6.96 14 -9 14 C-9 9.71 -9 5.42 -9 1 C-8.01 1 -7.02 1 -6 1 C-5.67 3.64 -5.34 6.28 -5 9 C-3.35 6.03 -1.7 3.06 0 0 Z " fill="#3C3C3C" transform="translate(452,281)"/>
<path d="M0 0 C3.63 0 7.26 0 11 0 C11 1.32 11 2.64 11 4 C9.68 4 8.36 4 7 4 C7 7.63 7 11.26 7 15 C5.68 15 4.36 15 3 15 C3 11.7 3 8.4 3 5 C1.02 5.99 1.02 5.99 -1 7 C-0.95875 7.928125 -0.9175 8.85625 -0.875 9.8125 C-1 13 -1 13 -3 16 C-6.125 16.1875 -6.125 16.1875 -9 16 C-9 15.67 -9 15.34 -9 15 C-7.35 14.67 -5.7 14.34 -4 14 C-4 11.69 -4 9.38 -4 7 C-5.32 6.67 -6.64 6.34 -8 6 C-8 5.34 -8 4.68 -8 4 C-5.03 4.495 -5.03 4.495 -2 5 C-1.34 3.35 -0.68 1.7 0 0 Z " fill="#B1B1B1" transform="translate(391,280)"/>
<path d="M0 0 C1.03159626 3.09478879 0.97482862 4.52631393 0.5625 7.6875 C0.46066406 8.49574219 0.35882813 9.30398437 0.25390625 10.13671875 C0.17011719 10.75160156 0.08632812 11.36648437 0 12 C0.66 12 1.32 12 2 12 C2.8353125 13.6396875 2.8353125 13.6396875 3.6875 15.3125 C5.66575507 18.72447304 7.25790576 20.46914327 11 22 C13.67973013 22.50400883 16.27501872 22.76906938 19 23 C14.74748617 25.83500922 10.99342406 25.64456329 6 25 C2.14455202 23.00342873 0.40194908 21.60292362 -2 18 C-3.41865015 13.3184545 -3.68845263 7.83556012 -3 3 C-1.484375 1.1953125 -1.484375 1.1953125 0 0 Z " fill="#141414" transform="translate(92,234)"/>
<path d="M0 0 C0.33 0 0.66 0 1 0 C1 13.2 1 26.4 1 40 C-0.65 40 -2.3 40 -4 40 C-4 38.02 -4 36.04 -4 34 C-4.70576172 34.54140625 -4.70576172 34.54140625 -5.42578125 35.09375 C-6.04839844 35.5578125 -6.67101562 36.021875 -7.3125 36.5 C-7.92738281 36.9640625 -8.54226562 37.428125 -9.17578125 37.90625 C-11 39 -11 39 -14 39 C-14 39.66 -14 40.32 -14 41 C-18.95 41 -23.9 41 -29 41 C-29 40.67 -29 40.34 -29 40 C-24.05 39.505 -24.05 39.505 -19 39 C-20.98 38.34 -22.96 37.68 -25 37 C-25 36.67 -25 36.34 -25 36 C-20.05 35.67 -15.1 35.34 -10 35 C-10 34.34 -10 33.68 -10 33 C-8.1875 31.9375 -8.1875 31.9375 -6 31 C-5.01 31.33 -4.02 31.66 -3 32 C-3 34.31 -3 36.62 -3 39 C-2.01 39 -1.02 39 0 39 C0 26.13 0 13.26 0 0 Z " fill="#525252" transform="translate(127,219)"/>
<path d="M0 0 C0 0.33 0 0.66 0 1 C-3.3 1.33 -6.6 1.66 -10 2 C-8.47375 2.103125 -6.9475 2.20625 -5.375 2.3125 C-1.00442032 2.73465826 2.19680326 3.69806513 6 6 C3.3333581 7.33332095 1.83319697 6.67102033 -1 6 C-1 5.34 -1 4.68 -1 4 C-9.73648205 4.59585316 -9.73648205 4.59585316 -17 9 C-18.27822016 12.96670801 -18.73906016 16.85105648 -19 21 C-19.33 21 -19.66 21 -20 21 C-20 17.37 -20 13.74 -20 10 C-22.30060534 11.8628949 -22.30060534 11.8628949 -22.1953125 14.8203125 C-22.17210938 15.91085938 -22.14890625 17.00140625 -22.125 18.125 C-22.10695313 19.22070312 -22.08890625 20.31640625 -22.0703125 21.4453125 C-22.04710938 22.28835937 -22.02390625 23.13140625 -22 24 C-22.66 23.67 -23.32 23.34 -24 23 C-25.05495133 12.01510994 -25.05495133 12.01510994 -22.65234375 7.42578125 C-16.17212693 -0.27926776 -9.53544002 -0.30540555 0 0 Z " fill="#353535" transform="translate(112,225)"/>
<path d="M0 0 C3.63 0 7.26 0 11 0 C11.08047959 3.5411021 10.97311528 6.59409652 10 10 C10 10.66 10 11.32 10 12 C10.66 12 11.32 12 12 12 C12 12.66 12 13.32 12 14 C10.125 13.8125 10.125 13.8125 8 13 C6.75 10.4375 6.75 10.4375 6 8 C5.01 8 4.02 8 3 8 C3 9.98 3 11.96 3 14 C2.01 14 1.02 14 0 14 C0 9.38 0 4.76 0 0 Z " fill="#3A3A3A" transform="translate(403,281)"/>
<path d="M0 0 C1.65 0 3.3 0 5 0 C7.02055843 4.39251833 8.40895235 8.15340923 9 13 C8.01 13 7.02 13 6 13 C5.67 12.34 5.34 11.68 5 11 C1.97065509 10.34227572 1.97065509 10.34227572 -1 10 C-1 10.99 -1 11.98 -1 13 C-1.99 13 -2.98 13 -4 13 C-3.67 10.36 -3.34 7.72 -3 5 C-2.34 5 -1.68 5 -1 5 C-0.67 3.35 -0.34 1.7 0 0 Z " fill="#323232" transform="translate(354,282)"/>
<path d="M0 0 C1.65 0 3.3 0 5 0 C5.67057887 1.7902061 6.3363469 3.58221489 7 5.375 C7.556875 6.87160156 7.556875 6.87160156 8.125 8.3984375 C9 11 9 11 9 13 C8.34 13 7.68 13 7 13 C6.67 12.34 6.34 11.68 6 11 C3.67843403 10.59270772 1.3431213 10.25561323 -1 10 C-1 10.99 -1 11.98 -1 13 C-1.66 13 -2.32 13 -3 13 C-2.45144652 8.428721 -1.58255197 4.32564205 0 0 Z " fill="#252525" transform="translate(420,282)"/>
<path d="M0 0 C0.66 0 1.32 0 2 0 C2 6.93 2 13.86 2 21 C1.34 21 0.68 21 0 21 C-0.33 20.34 -0.66 19.68 -1 19 C-1.99 18.67 -2.98 18.34 -4 18 C-4 13.05 -4 8.1 -4 3 C-3.01 2.67 -2.02 2.34 -1 2 C-0.67 1.34 -0.34 0.68 0 0 Z " fill="#ACACAC" transform="translate(288,230)"/>
<path d="M0 0 C2.64 0 5.28 0 8 0 C8.33 0.99 8.66 1.98 9 3 C6.03 2.505 6.03 2.505 3 2 C3 2.66 3 3.32 3 4 C4.65 4.33 6.3 4.66 8 5 C8.04241723 7.33294775 8.04092937 9.66702567 8 12 C7 13 7 13 3.9375 13.0625 C2.968125 13.041875 1.99875 13.02125 1 13 C0.67 11.68 0.34 10.36 0 9 C2.97 9.495 2.97 9.495 6 10 C4.60804085 7.2160817 2.84424221 7.02101003 0 6 C0 4.02 0 2.04 0 0 Z " fill="#494949" transform="translate(380,282)"/>
<path d="M0 0 C1.33332095 2.6666419 0.67102033 4.16680303 0 7 C-0.66 7 -1.32 7 -2 7 C-2.07055948 9.54014145 -2.09554864 11.67513461 -1.375 14.125 C-1.25125 14.74375 -1.1275 15.3625 -1 16 C-1.66 16.99 -2.32 17.98 -3 19 C-3.5827119 20.54766142 -4.12264187 22.11192222 -4.625 23.6875 C-4.88539063 24.49574219 -5.14578125 25.30398437 -5.4140625 26.13671875 C-5.70410156 27.05904297 -5.70410156 27.05904297 -6 28 C-7 26 -7 26 -7 22 C-7.66 22.33 -8.32 22.66 -9 23 C-8.01 19.04 -7.02 15.08 -6 11 C-5.34 11 -4.68 11 -4 11 C-3.67 8.69 -3.34 6.38 -3 4 C-2.34 4 -1.68 4 -1 4 C-0.67 2.68 -0.34 1.36 0 0 Z " fill="#161616" transform="translate(201,221)"/>
<path d="M0 0 C0.99 0 1.98 0 3 0 C3 3.3 3 6.6 3 10 C4.65 10 6.3 10 8 10 C8 6.7 8 3.4 8 0 C8.66 0 9.32 0 10 0 C10.02686553 1.97909398 10.04633375 3.95828971 10.0625 5.9375 C10.07410156 7.03964844 10.08570313 8.14179688 10.09765625 9.27734375 C10 12 10 12 9 13 C5.5625 13.1875 5.5625 13.1875 2 13 C0 11 0 11 -0.1953125 8.3984375 C-0.17210937 7.40070313 -0.14890625 6.40296875 -0.125 5.375 C-0.10695313 4.37210937 -0.08890625 3.36921875 -0.0703125 2.3359375 C-0.04710937 1.56507813 -0.02390625 0.79421875 0 0 Z " fill="#333333" transform="translate(365,282)"/>
<path d="M0 0 C0.33 0 0.66 0 1 0 C1 4.62 1 9.24 1 14 C0.34 14 -0.32 14 -1 14 C-1.33 14.66 -1.66 15.32 -2 16 C-2.556875 15.21625 -3.11375 14.4325 -3.6875 13.625 C-7.42377406 9.38382404 -11.32089156 8.77198374 -16.8125 8.375 C-17.78832031 8.30023438 -18.76414062 8.22546875 -19.76953125 8.1484375 C-20.50558594 8.09945312 -21.24164063 8.05046875 -22 8 C-21.67 7.34 -21.34 6.68 -21 6 C-19.10489301 5.91839252 -17.20875496 5.86053541 -15.3125 5.8125 C-14.25675781 5.77769531 -13.20101562 5.74289063 -12.11328125 5.70703125 C-6.96890284 6.1911321 -4.07457584 8.94406812 0 12 C0 8.04 0 4.08 0 0 Z " fill="#1B1B1B" transform="translate(123,220)"/>
<path d="M0 0 C1.30324219 -0.01417969 2.60648438 -0.02835938 3.94921875 -0.04296875 C7.3125 0.1875 7.3125 0.1875 10.3125 2.1875 C3.3825 2.1875 -3.5475 2.1875 -10.6875 2.1875 C-10.6875 2.8475 -10.6875 3.5075 -10.6875 4.1875 C-5.0775 4.1875 0.5325 4.1875 6.3125 4.1875 C6.3125 4.5175 6.3125 4.8475 6.3125 5.1875 C-3.0925 5.6825 -3.0925 5.6825 -12.6875 6.1875 C-12.6875 6.8475 -12.6875 7.5075 -12.6875 8.1875 C-13.6775 8.1875 -14.6675 8.1875 -15.6875 8.1875 C-15.8125 5.8125 -15.8125 5.8125 -15.6875 3.1875 C-11.68299526 -0.81700474 -5.3687792 0.02671034 0 0 Z " fill="#646464" transform="translate(109.6875,207.8125)"/>
<path d="M0 0 C0.33 0 0.66 0 1 0 C1.02533904 7.33234927 1.04286227 14.66468727 1.05493164 21.99707031 C1.05996278 24.49186627 1.06678834 26.98665928 1.07543945 29.48144531 C1.08755827 33.06576262 1.0932405 36.65004096 1.09765625 40.234375 C1.10281754 41.35116638 1.10797882 42.46795776 1.11329651 43.61859131 C1.11337204 44.65936829 1.11344757 45.70014526 1.11352539 46.77246094 C1.115746 47.68735291 1.11796661 48.60224487 1.12025452 49.54486084 C1.00776758 51.84141569 0.64780585 53.8008733 0 56 C-1.32 55.67 -2.64 55.34 -4 55 C-3.67 54.01 -3.34 53.02 -3 52 C-2.01 51.505 -2.01 51.505 -1 51 C-0.67 34.17 -0.34 17.34 0 0 Z " fill="#676767" transform="translate(432,199)"/>
<path d="M0 0 C2.31 0 4.62 0 7 0 C7 2.64 7 5.28 7 8 C4.69 8 2.38 8 0 8 C0 5.36 0 2.72 0 0 Z " fill="#2E2E2E" transform="translate(137,196)"/>
<path d="M0 0 C0 0.33 0 0.66 0 1 C-3.3 1.33 -6.6 1.66 -10 2 C-7.710625 2.1546875 -7.710625 2.1546875 -5.375 2.3125 C-1.00442032 2.73465826 2.19680326 3.69806513 6 6 C3.3333581 7.33332095 1.83319697 6.67102033 -1 6 C-1 5.34 -1 4.68 -1 4 C-5.96916636 4.51405169 -10.29026351 5.23384882 -15 7 C-14.67 6.34 -14.34 5.68 -14 5 C-13.34 5 -12.68 5 -12 5 C-12 4.34 -12 3.68 -12 3 C-13.98 3.33 -15.96 3.66 -18 4 C-17 2 -17 2 -14.625 0.875 C-9.71740492 -0.30959192 -5.02296193 -0.16087778 0 0 Z " fill="#636363" transform="translate(112,225)"/>
<path d="M0 0 C0.99 0 1.98 0 3 0 C3 3.96 3 7.92 3 12 C4.98 12 6.96 12 9 12 C9 12.66 9 13.32 9 14 C6.03 14 3.06 14 0 14 C0 9.38 0 4.76 0 0 Z " fill="#323232" transform="translate(431,281)"/>
<path d="M0 0 C3.63 0 7.26 0 11 0 C11 0.66 11 1.32 11 2 C9.68 2 8.36 2 7 2 C7 5.63 7 9.26 7 13 C6.01 13 5.02 13 4 13 C3.96261719 12.22914063 3.92523438 11.45828125 3.88671875 10.6640625 C3.82097656 9.66117187 3.75523437 8.65828125 3.6875 7.625 C3.62949219 6.62726563 3.57148438 5.62953125 3.51171875 4.6015625 C3.34285156 3.74304688 3.17398437 2.88453125 3 2 C2.01 1.34 1.02 0.68 0 0 Z " fill="#3B3B3B" transform="translate(391,282)"/>
<path d="M0 0 C2.97 0 5.94 0 9 0 C8.67 1.32 8.34 2.64 8 4 C9.35444301 5.77190909 9.35444301 5.77190909 11 7 C9.35 6.67 7.7 6.34 6 6 C6 12.6 6 19.2 6 26 C5.67 26 5.34 26 5 26 C5 18.74 5 11.48 5 4 C4.34 4 3.68 4 3 4 C3 3.34 3 2.68 3 2 C2.01 2 1.02 2 0 2 C0 1.34 0 0.68 0 0 Z " fill="#444444" transform="translate(278,192)"/>
<path d="M0 0 C1.2263757 2.45275141 1.11415314 4.0505781 1.09765625 6.7890625 C1.09282227 8.20058594 1.09282227 8.20058594 1.08789062 9.640625 C1.07951172 10.62546875 1.07113281 11.6103125 1.0625 12.625 C1.05798828 13.61757812 1.05347656 14.61015625 1.04882812 15.6328125 C1.03702145 18.0886016 1.020554 20.54427104 1 23 C-0.98 23.66 -2.96 24.32 -5 25 C-4.67 23.68 -4.34 22.36 -4 21 C-3.34 21 -2.68 21 -2 21 C-2.02320313 19.90300781 -2.04640625 18.80601562 -2.0703125 17.67578125 C-2.08907921 16.221361 -2.10727844 14.76693336 -2.125 13.3125 C-2.14175781 12.59126953 -2.15851563 11.87003906 -2.17578125 11.12695312 C-2.21391569 6.95123219 -1.8789919 3.7505862 0 0 Z " fill="#929292" transform="translate(327,231)"/>
<path d="M0 0 C1.65 0 3.3 0 5 0 C6.80411967 2.75924185 7.0127245 3.88972103 6.625 7.25 C6.41875 8.1575 6.2125 9.065 6 10 C3 9 3 9 1.3125 6.125 C0 3 0 3 0 0 Z " fill="#1C1C1C" transform="translate(165,210)"/>
<path d="M0 0 C0.93045933 2.55144824 1.08564091 3.74006478 0.22265625 6.359375 C-0.16019531 7.14828125 -0.54304687 7.9371875 -0.9375 8.75 C-1.31777344 9.54921875 -1.69804687 10.3484375 -2.08984375 11.171875 C-2.39019531 11.77515625 -2.69054687 12.3784375 -3 13 C-3.99 13 -4.98 13 -6 13 C-5.67 11.35 -5.34 9.7 -5 8 C-4.34 8 -3.68 8 -3 8 C-2.87625 6.865625 -2.7525 5.73125 -2.625 4.5625 C-2.41875 3.386875 -2.2125 2.21125 -2 1 C-1.34 0.67 -0.68 0.34 0 0 Z " fill="#0D0D0D" transform="translate(204,220)"/>
<path d="M0 0 C1.65 0.33 3.3 0.66 5 1 C5.04254356 2.99954746 5.04080783 5.00041636 5 7 C4 8 4 8 0.9375 8.0625 C-0.031875 8.041875 -1.00125 8.02125 -2 8 C-2.33 6.68 -2.66 5.36 -3 4 C-0.03 4.495 -0.03 4.495 3 5 C2.2575 4.319375 2.2575 4.319375 1.5 3.625 C0 2 0 2 0 0 Z " fill="#373737" transform="translate(383,287)"/>
<path d="M0 0 C1.32 0.33 2.64 0.66 4 1 C3.01 1 2.02 1 1 1 C1 5.29 1 9.58 1 14 C0.01 14 -0.98 14 -2 14 C-2 13.34 -2 12.68 -2 12 C-3.98 12 -5.96 12 -8 12 C-8 8.37 -8 4.74 -8 1 C-7.67 1 -7.34 1 -7 1 C-7 4.3 -7 7.6 -7 11 C-4.69 11 -2.38 11 0 11 C0 7.37 0 3.74 0 0 Z " fill="#B0B0B0" transform="translate(442,281)"/>
<path d="M0 0 C1.46726798 3.81489674 0.43336419 6.29011622 -1 10 C-2.32 10 -3.64 10 -5 10 C-4.56802365 5.2482602 -3.67230705 3.07999946 0 0 Z " fill="#0D0D0D" transform="translate(185,263)"/>
<path d="M0 0 C1.32 0 2.64 0 4 0 C3.67 2.31 3.34 4.62 3 7 C2.34 7 1.68 7 1 7 C1 7.66 1 8.32 1 9 C0.01 8.67 -0.98 8.34 -2 8 C-1.34 5.36 -0.68 2.72 0 0 Z " fill="#121212" transform="translate(206,210)"/>
<path d="M0 0 C0.66 0.33 1.32 0.66 2 1 C0.576875 1.37125 0.576875 1.37125 -0.875 1.75 C-4.04752735 2.68043024 -4.04752735 2.68043024 -5.3125 4.9375 C-5.539375 5.618125 -5.76625 6.29875 -6 7 C-6.33 7.99 -6.66 8.98 -7 10 C-7.66 10 -8.32 10 -9 10 C-9 9.34 -9 8.68 -9 8 C-10.65 8 -12.3 8 -14 8 C-13.67 7.34 -13.34 6.68 -13 6 C-12.071875 5.87625 -11.14375 5.7525 -10.1875 5.625 C-6.46365584 4.89483448 -5.48912905 3.74662516 -3 1 C-2.01 0.67 -1.02 0.34 0 0 Z " fill="#4C4C4C" transform="translate(259,189)"/>
<path d="M0 0 C1.65 0 3.3 0 5 0 C4.67 1.32 4.34 2.64 4 4 C4.66 4.33 5.32 4.66 6 5 C5.030625 5.12375 4.06125 5.2475 3.0625 5.375 C1.5465625 5.684375 1.5465625 5.684375 0 6 C-0.33 6.66 -0.66 7.32 -1 8 C-3.5625 8.625 -3.5625 8.625 -6 9 C-4.37660195 7.29115995 -2.70680947 5.62553283 -1 4 C-0.34 4 0.32 4 1 4 C0.67 2.68 0.34 1.36 0 0 Z " fill="#A9A9A9" transform="translate(390,251)"/>
<path d="M0 0 C0.66 0.99 1.32 1.98 2 3 C2.66 3 3.32 3 4 3 C4 4.65 4 6.3 4 8 C2.02 8 0.04 8 -2 8 C-1.125 1.125 -1.125 1.125 0 0 Z " fill="#737373" transform="translate(420,282)"/>
<path d="M0 0 C0.66 0.33 1.32 0.66 2 1 C1.814375 2.051875 1.62875 3.10375 1.4375 4.1875 C0.81680057 7.8286174 0.81680057 7.8286174 1.5625 10.6875 C2.09527008 13.50357042 1.49821942 14.62047503 0 17 C-1 15 -1 15 -1 11 C-1.99 11.495 -1.99 11.495 -3 12 C-2.01 8.04 -1.02 4.08 0 0 Z " fill="#575757" transform="translate(195,232)"/>
<path d="M0 0 C-0.33 2.64 -0.66 5.28 -1 8 C-1.99 8 -2.98 8 -4 8 C-4.75 6.25 -4.75 6.25 -5 4 C-1.66666667 0 -1.66666667 0 0 0 Z " fill="#171717" transform="translate(195,242)"/>
<path d="M0 0 C0 0.66 0 1.32 0 2 C-0.99 2 -1.98 2 -3 2 C-3 2.99 -3 3.98 -3 5 C-2.01 5.33 -1.02 5.66 0 6 C-1.65 6.33 -3.3 6.66 -5 7 C-5 6.34 -5 5.68 -5 5 C-6.98 5.66 -8.96 6.32 -11 7 C-4.48275862 0 -4.48275862 0 0 0 Z " fill="#565656" transform="translate(351,211)"/>
<path d="M0 0 C2.97 0.495 2.97 0.495 6 1 C6.33 1.99 6.66 2.98 7 4 C5.02 4 3.04 4 1 4 C1 4.99 1 5.98 1 7 C0.34 7 -0.32 7 -1 7 C-0.67 4.69 -0.34 2.38 0 0 Z " fill="#2E2E2E" transform="translate(352,288)"/>
<path d="M0 0 C3.51716303 3.51716303 3.54676163 5.19567333 4 10 C3.01 9.67 2.02 9.34 1 9 C0.67 6.03 0.34 3.06 0 0 Z " fill="#2F2F2F" transform="translate(455,285)"/>
<path d="M0 0 C0.33 0.66 0.66 1.32 1 2 C0.67 2.99 0.34 3.98 0 5 C0.99 4.67 1.98 4.34 3 4 C3.33 4.99 3.66 5.98 4 7 C1.03 6.505 1.03 6.505 -2 6 C-2.33 8.31 -2.66 10.62 -3 13 C-3.98120464 9.94736336 -3.98120464 8.05263664 -3 5 C-2.34 5 -1.68 5 -1 5 C-0.67 3.35 -0.34 1.7 0 0 Z " fill="#8D8D8D" transform="translate(354,282)"/>
<path d="M0 0 C0.33 0 0.66 0 1 0 C1.02705729 1.77074917 1.04642195 3.54161711 1.0625 5.3125 C1.07410156 6.29863281 1.08570313 7.28476562 1.09765625 8.30078125 C1 11 1 11 0 14 C-0.99 13.67 -1.98 13.34 -3 13 C-2.34 13 -1.68 13 -1 13 C-1.66 10.69 -2.32 8.38 -3 6 C-2.34 6 -1.68 6 -1 6 C-0.67 4.02 -0.34 2.04 0 0 Z " fill="#DBDBDB" transform="translate(430,282)"/>
<path d="M0 0 C1.65 0 3.3 0 5 0 C4.67 1.32 4.34 2.64 4 4 C2.68 4 1.36 4 0 4 C0 2.68 0 1.36 0 0 Z " fill="#B0B0B0" transform="translate(406,283)"/>
<path d="M0 0 C0.99 0 1.98 0 3 0 C3.98120464 3.05263664 3.98120464 4.94736336 3 8 C2.01 8 1.02 8 0 8 C0.875 3.25 0.875 3.25 2 1 C1.34 0.67 0.68 0.34 0 0 Z " fill="#767676" transform="translate(452,281)"/>
<path d="M0 0 C3 4 3 4 2.8125 6.0625 C2 8 2 8 0 11 C0 7.37 0 3.74 0 0 Z " fill="#E9E9E9" transform="translate(446,282)"/>
<path d="M0 0 C0.33 0.66 0.66 1.32 1 2 C0.67 2.99 0.34 3.98 0 5 C1.32 5 2.64 5 4 5 C4 5.66 4 6.32 4 7 C2.02 7 0.04 7 -2 7 C-1.125 1.125 -1.125 1.125 0 0 Z " fill="#868686" transform="translate(180,268)"/>
<path d="M0 0 C1.33332095 2.6666419 0.67102033 4.16680303 0 7 C-0.66 7 -1.32 7 -2 7 C-2.33 7.99 -2.66 8.98 -3 10 C-4.24546405 7.50907189 -3.7767578 6.58919267 -3 4 C-2.34 4 -1.68 4 -1 4 C-0.67 2.68 -0.34 1.36 0 0 Z " fill="#676767" transform="translate(201,221)"/>
<path d="M0 0 C0.33 0.99 0.66 1.98 1 3 C2.32 3 3.64 3 5 3 C5 3.66 5 4.32 5 5 C2.69 5.33 0.38 5.66 -2 6 C-2 5.34 -2 4.68 -2 4 C-1.34 4 -0.68 4 0 4 C0 2.68 0 1.36 0 0 Z " fill="#B5B5B5" transform="translate(404,202)"/>
</svg>
